<?xml version="1.0" standalone="no"?>
<!DOCTYPE svg PUBLIC "-//W3C//DTD SVG 1.1//EN" "http://www.w3.org/Graphics/SVG/1.1/DTD/svg11.dtd" >
<svg xmlns="http://www.w3.org/2000/svg" xmlns:xlink="http://www.w3.org/1999/xlink" version="1.1">
<metadata>
Created by FontForge 20170731 at Wed Dec 29 09:54:37 2021
 By Aleksey,,,
(c) 2014 Adobe Systems Incorporated. All Rights Reserved.
</metadata>
<defs>
<font id="AcuminProWide-Bold" horiz-adv-x="819" >
  <font-face 
    font-family="Acumin Pro Wide"
    font-weight="700"
    font-stretch="expanded"
    units-per-em="2048"
    panose-1="2 11 8 5 2 2 2 2 2 4"
    ascent="1505"
    descent="-543"
    x-height="1059"
    cap-height="1442"
    bbox="-461 -539 2742 2216"
    underline-thickness="102"
    underline-position="-307"
    unicode-range="U+000D-FB02"
  />
<missing-glyph horiz-adv-x="1024" 
d="M1024 0h-1024v1434h1024v-1434zM512 625l-348 -523h696zM164 1331l348 -522l348 522h-696zM102 1239v-1044l349 522zM573 717l349 -522v1044z" />
    <glyph glyph-name="f_f" unicode="ff" horiz-adv-x="1486" 
d="M213 0v815h-180v244h180v78q0 403 408 403q86 0 127 -10v-242q-18 4 -64 4q-70 0 -102.5 -35.5t-32.5 -117.5v-80h371v78q0 403 407 403q86 0 127 -10v-242q-18 4 -63 4q-70 0 -103 -35.5t-33 -117.5v-80h218v-244h-218v-815h-335v815h-371v-815h-336z" />
    <glyph glyph-name=".notdef" horiz-adv-x="1024" 
d="M1024 0h-1024v1434h1024v-1434zM512 625l-348 -523h696zM164 1331l348 -522l348 522h-696zM102 1239v-1044l349 522zM573 717l349 -522v1044z" />
    <glyph glyph-name=".null" horiz-adv-x="0" 
 />
    <glyph glyph-name="nonmarkingreturn" horiz-adv-x="682" 
 />
    <glyph glyph-name="NULL" horiz-adv-x="0" 
 />
    <glyph glyph-name="NULL" horiz-adv-x="0" 
 />
    <glyph glyph-name="CR" unicode="&#xd;" horiz-adv-x="573" 
 />
    <glyph glyph-name="space" unicode=" " horiz-adv-x="573" 
 />
    <glyph glyph-name="exclam" unicode="!" horiz-adv-x="757" 
d="M584 0h-326v362h326v-362zM567 532h-293l-32 672v238h360v-242z" />
    <glyph glyph-name="quotedbl" unicode="&#x22;" horiz-adv-x="952" 
d="M367 852h-244l-39 465v209h317v-211zM836 852h-244l-39 465v209h317v-211z" />
    <glyph glyph-name="numbersign" unicode="#" horiz-adv-x="1531" 
d="M176 0l100 336h-159v246h233l80 268h-186v244h258l92 307h229l-92 -307h295l92 307h228l-91 -307h142v-244h-213l-80 -268h172v-246h-246l-98 -336h-234l101 336h-293l-100 -336h-230zM580 582h292l80 268h-293z" />
    <glyph glyph-name="dollar" unicode="$" horiz-adv-x="1349" 
d="M825 -193h-284v181q-110 15 -200.5 56t-149.5 98t-93 124.5t-39 139.5h336q59 -179 314 -179q105 0 159 38t54 97q0 43 -21 70t-94 55.5t-215 57.5q-267 56 -382.5 161t-115.5 259q0 73 24.5 138.5t74 122.5t133 97t192.5 55v150h285v-150q111 -16 197 -57.5t134.5 -96.5
t74 -113t28.5 -118h-334q-8 24 -15 39t-26.5 38.5t-45 37.5t-73 24.5t-108.5 10.5q-112 0 -156.5 -36.5t-44.5 -86.5q0 -40 23 -66.5t87 -50.5t183 -47q134 -26 232.5 -62t159 -77t97 -93t49.5 -103.5t13 -114.5q0 -158 -113.5 -271.5t-339.5 -144.5v-183z" />
    <glyph glyph-name="percent" unicode="%" horiz-adv-x="1951" 
d="M637 0h-229l886 1372h232zM1499 -27q-183 0 -284 105.5t-101 288.5q0 110 43.5 197.5t132.5 140.5t211 53q177 0 282 -102t105 -289q0 -175 -102.5 -284.5t-286.5 -109.5zM1503 172q72 0 110 52.5t38 142.5q0 100 -36.5 146t-113.5 46q-67 0 -104 -50t-37 -140
q0 -93 36 -145t107 -52zM449 616q-183 0 -284.5 105.5t-101.5 288.5q0 110 43.5 197.5t133 140.5t211.5 53q177 0 282 -102t105 -289q0 -175 -102.5 -284.5t-286.5 -109.5zM453 815q72 0 109.5 52.5t37.5 142.5q0 101 -36 146.5t-113 45.5q-67 0 -104.5 -50t-37.5 -140
q0 -93 36.5 -145t107.5 -52z" />
    <glyph glyph-name="ampersand" unicode="&#x26;" horiz-adv-x="1818" 
d="M864 768l217 -186l277 348h377l-449 -524l473 -406h-473l-201 172q-100 -101 -208.5 -152t-268.5 -51q-104 0 -190.5 25t-144.5 66.5t-97.5 97t-57.5 114.5t-18 121q0 122 64 211t223 180q-133 130 -133 299q0 76 30.5 145t86.5 124t144 88t196 33q113 0 201.5 -32.5
t139.5 -85.5t77 -115t26 -128q0 -114 -69.5 -192t-221.5 -152zM881 348l-330 283q-61 -35 -90 -86.5t-29 -108.5q0 -85 56.5 -140.5t154.5 -55.5q71 0 123 22.5t115 85.5zM698 920q158 77 158 190q0 59 -37 102t-108 43q-66 0 -103 -43t-37 -100q0 -95 127 -192z" />
    <glyph glyph-name="quotesingle" unicode="'" horiz-adv-x="499" 
d="M383 852h-260l-39 412v262h332v-264z" />
    <glyph glyph-name="parenleft" unicode="(" horiz-adv-x="837" 
d="M791 -340h-320q-154 165 -253 417t-99 531q0 140 30.5 279.5t82.5 256.5t112 212.5t127 169.5h320q-375 -416 -375 -922q0 -519 375 -944z" />
    <glyph glyph-name="parenright" unicode=")" horiz-adv-x="837" 
d="M45 1526h322q154 -165 253 -417t99 -531q0 -140 -30.5 -279.5t-82.5 -256.5t-112 -212.5t-127 -169.5h-322q375 412 375 922q0 519 -375 944z" />
    <glyph glyph-name="asterisk" unicode="*" horiz-adv-x="1003" 
d="M160 616l-129 215l342 138l-340 139l123 217l276 -225l-51 344h244l-54 -346l275 227l127 -217l-328 -139l328 -138l-127 -215l-262 226l41 -344h-244l49 346z" />
    <glyph glyph-name="plus" unicode="+" horiz-adv-x="1693" 
d="M705 0v522h-500v269h500v499h282v-499h500v-269h-500v-522h-282z" />
    <glyph glyph-name="comma" unicode="," horiz-adv-x="638" 
d="M197 428h342q-27 -183 -92 -366.5t-138 -294.5h-278q48 120 83.5 253t48.5 205t34 203z" />
    <glyph glyph-name="hyphen" unicode="-" horiz-adv-x="892" 
d="M104 383v279h684v-279h-684z" />
    <glyph glyph-name="period" unicode="." horiz-adv-x="612" 
d="M500 0h-385v428h385v-428z" />
    <glyph glyph-name="slash" unicode="/" horiz-adv-x="1114" 
d="M377 -104h-293l651 1546h295z" />
    <glyph glyph-name="zero" unicode="0" horiz-adv-x="1382" 
d="M690 -29q-146 0 -261 55t-188 152.5t-111 226.5t-38 281q0 149 37.5 277t110 226.5t189 155t265.5 56.5q143 0 257.5 -56t186.5 -153t110 -222.5t38 -269.5q0 -127 -21 -235t-66.5 -200t-114.5 -156.5t-169 -101t-225 -36.5zM694 231q62 0 108 26t73 68t43.5 105t22 126
t5.5 142q0 445 -250 445q-262 0 -262 -453q0 -70 6.5 -131.5t25 -123.5t46.5 -105.5t75 -71t107 -27.5z" />
    <glyph glyph-name="one" unicode="1" horiz-adv-x="854" 
d="M676 0h-328v991q-47 -24 -131.5 -42.5t-134.5 -20.5v243q117 25 207.5 83t140.5 118h246v-1372z" />
    <glyph glyph-name="two" unicode="2" horiz-adv-x="1275" 
d="M1188 0h-1100v14q0 201 104.5 356.5t362.5 315.5q183 114 234 163t51 126q0 76 -47.5 123t-155.5 47q-104 0 -155 -56t-66 -157h-322q15 213 163 341t392 128q236 0 379 -118.5t143 -305.5q0 -105 -34.5 -179t-110.5 -139.5t-223 -150.5q-257 -149 -311 -246h737z" />
    <glyph glyph-name="three" unicode="3" horiz-adv-x="1329" 
d="M76 401h332q46 -172 264 -172q107 0 167 47.5t60 139.5q0 180 -242 180h-114v258h84q120 0 169.5 32t49.5 105q0 71 -48.5 114.5t-150.5 43.5q-178 0 -211 -152h-330q8 56 29 108.5t64 107.5t103 95.5t152.5 66.5t204.5 26q254 0 390.5 -109t136.5 -280q0 -51 -14.5 -95
t-35.5 -72.5t-48.5 -51t-49.5 -34t-43 -18.5v-4q43 -15 80 -36.5t77 -59.5t63.5 -99.5t23.5 -138.5q0 -192 -151 -312t-433 -120q-137 0 -244.5 34.5t-175.5 95.5t-107 136t-52 164z" />
    <glyph glyph-name="four" unicode="4" horiz-adv-x="1345" 
d="M86 299v272l633 801h379v-807h190l-26 -266h-164v-299h-312v299h-700zM414 565h372v213q0 122 5 297q-100 -151 -377 -510z" />
    <glyph glyph-name="five" unicode="5" horiz-adv-x="1351" 
d="M109 393h325q47 -164 256 -164q115 0 179.5 60t64.5 170q0 104 -63 167.5t-189 63.5q-59 0 -104.5 -11.5t-75 -33.5t-47 -44.5t-33.5 -53.5l-291 31q30 147 71 404t56 390h950l-37 -262h-649q-4 -25 -12 -79t-15 -97t-12 -72q103 78 295 78q212 0 348 -124.5t136 -336.5
q0 -234 -151 -371t-431 -137q-247 0 -396 117.5t-175 304.5z" />
    <glyph glyph-name="six" unicode="6" horiz-adv-x="1345" 
d="M690 -29q-280 0 -439 179t-159 524q0 112 19.5 214t65.5 197t115 164t175.5 110.5t239.5 41.5q96 0 177 -20.5t137.5 -55.5t99 -82t65.5 -99t31 -108h-322q-46 117 -207 117q-240 0 -258 -352q126 137 363 137q208 0 342.5 -123.5t134.5 -327.5q0 -123 -46.5 -222.5
t-126.5 -163t-184 -97t-223 -33.5zM692 231q108 0 175 62.5t67 169.5q0 104 -61 164.5t-187 60.5q-114 0 -177 -60t-63 -149q0 -38 12 -77.5t38 -79.5t77 -65.5t119 -25.5z" />
    <glyph glyph-name="seven" unicode="7" horiz-adv-x="1161" 
d="M596 0h-365q54 300 212 613.5t325 496.5h-731v262h1073v-254q-175 -228 -310.5 -516.5t-203.5 -601.5z" />
    <glyph glyph-name="eight" unicode="8" horiz-adv-x="1341" 
d="M86 391q0 227 233 330q-81 45 -127.5 120.5t-46.5 168.5q0 179 144 285t387 106q106 0 199 -25t164.5 -73t113 -124.5t41.5 -172.5q0 -98 -50 -167t-130 -104q109 -39 175 -126.5t66 -215.5q0 -105 -50 -188t-135 -133t-189 -75.5t-219 -25.5q-117 0 -220 26.5t-183 77
t-126.5 132t-46.5 184.5zM416 408q0 -97 76 -149t178 -52q66 0 120 17.5t92 62.5t38 112q0 90 -60 144.5t-192 54.5q-252 0 -252 -190zM471 1008q0 -75 48.5 -121.5t156.5 -46.5q194 0 194 166q0 79 -56 121t-144 42q-85 0 -142 -40t-57 -121z" />
    <glyph glyph-name="nine" unicode="9" horiz-adv-x="1333" 
d="M98 342h332q49 -125 209 -125q45 0 82.5 13t63.5 34t46.5 52.5t32.5 63t20.5 72t12.5 72.5t6 70q-58 -58 -136.5 -87.5t-193.5 -29.5q-226 0 -358.5 121.5t-132.5 312.5q0 216 150.5 353t414.5 137q280 0 435 -172t155 -500q0 -115 -15.5 -216.5t-57 -203.5
t-106.5 -174.5t-173 -118t-248 -45.5q-108 0 -197 24t-146.5 61.5t-100 88.5t-64 99t-31.5 98zM422 932q0 -91 58.5 -150t174.5 -59q106 0 165 50.5t59 139.5q0 32 -7 63.5t-24.5 63t-43 55t-67 38t-92.5 14.5q-112 0 -167.5 -63t-55.5 -152z" />
    <glyph glyph-name="colon" unicode=":" horiz-adv-x="681" 
d="M516 0h-350v387h350v-387zM516 672h-350v387h350v-387z" />
    <glyph glyph-name="semicolon" unicode=";" horiz-adv-x="755" 
d="M215 387h360q-25 -177 -83.5 -353.5t-129.5 -289.5h-299q126 315 152 643zM590 672h-385v387h385v-387z" />
    <glyph glyph-name="less" unicode="&#x3c;" horiz-adv-x="1589" 
d="M514 655l870 -364v-291l-1179 522v264l1179 504v-291z" />
    <glyph glyph-name="equal" unicode="=" horiz-adv-x="1693" 
d="M205 254v268h1282v-268h-1282zM205 860v268h1282v-268h-1282z" />
    <glyph glyph-name="greater" unicode="&#x3e;" horiz-adv-x="1589" 
d="M205 0v293l870 344l-870 364v289l1179 -518v-268z" />
    <glyph glyph-name="question" unicode="?" horiz-adv-x="1298" 
d="M825 0h-348v338h348v-338zM825 455h-348v43q0 106 51 187.5t191 182.5q89 65 121 104.5t32 94.5q0 70 -51 117t-157 47q-96 0 -155 -49t-73 -138h-332q4 55 20 108.5t57.5 113.5t102.5 105t163.5 74.5t232.5 29.5q115 0 208.5 -25.5t153.5 -66.5t100.5 -94.5t57.5 -106.5
t17 -105q0 -114 -45 -197t-183 -180q-93 -66 -128.5 -114t-35.5 -111v-20z" />
    <glyph glyph-name="at" unicode="@" horiz-adv-x="2158" 
d="M1296 903l27 107h270l-114 -568q-17 -92 1.5 -131t75.5 -39q115 0 178.5 116.5t63.5 309.5q0 263 -178 416.5t-477 153.5q-338 0 -542 -211.5t-204 -567.5q0 -164 52.5 -294.5t147 -215.5t222.5 -129.5t281 -44.5q304 0 512 101l51 -193q-233 -135 -592 -135
q-192 0 -362 62t-300 176.5t-206 291.5t-76 394q0 208 75.5 389t209 311.5t326 205.5t417.5 75q185 0 349 -55.5t285.5 -155.5t192 -247.5t70.5 -322.5q0 -151 -43.5 -275t-121 -205.5t-182.5 -126t-228 -44.5q-101 0 -166 39t-80 107q-58 -75 -129 -110.5t-176 -35.5
q-143 0 -231.5 104t-88.5 283q0 167 63.5 304t170 213.5t231.5 76.5q178 0 225 -129zM1016 264q76 0 129 73.5t78 209.5q11 72 13.5 133t-27 101t-93.5 40q-69 0 -120.5 -59t-75 -144t-23.5 -180q0 -84 31 -129t88 -45z" />
    <glyph glyph-name="A" unicode="A" horiz-adv-x="1636" 
d="M-2 0l580 1442h450l610 -1442h-378l-136 328h-641l-125 -328h-360zM793 1217h-2q-52 -179 -218 -609h455q-183 448 -235 609z" />
    <glyph glyph-name="B" unicode="B" horiz-adv-x="1617" 
d="M973 0h-785v1442h799q245 0 369.5 -104t124.5 -267q0 -118 -60.5 -195.5t-154.5 -111.5q115 -36 191.5 -121t76.5 -213q0 -204 -147.5 -317t-413.5 -113zM532 616v-356h396q112 0 174.5 41t62.5 141q0 174 -231 174h-402zM532 1180v-301h381q207 0 207 149
q0 152 -205 152h-383z" />
    <glyph glyph-name="C" unicode="C" horiz-adv-x="1669" 
d="M1587 987h-354q-81 215 -354 215q-195 0 -302.5 -132t-107.5 -337q0 -81 15 -153.5t48 -135t80.5 -107.5t116.5 -71t152 -26q147 0 227 54t125 165h350q-21 -80 -56.5 -149t-95 -133t-137.5 -109t-188 -72t-242 -27q-151 0 -277.5 40.5t-215 110.5t-150.5 165.5
t-91.5 205t-29.5 228.5t32 230t97.5 206t157.5 166t219.5 111.5t276.5 40.5q128 0 238 -27.5t188.5 -74t138 -109.5t93 -132t46.5 -143z" />
    <glyph glyph-name="D" unicode="D" horiz-adv-x="1691" 
d="M834 0h-646v1442h652q177 0 321 -55t237 -150.5t143 -221.5t50 -270q0 -169 -59.5 -310.5t-161.5 -236t-240.5 -146.5t-295.5 -52zM539 1174v-904h247q213 0 324 118.5t111 348.5q0 204 -108 319t-322 118h-252z" />
    <glyph glyph-name="E" unicode="E" horiz-adv-x="1503" 
d="M188 0v1442h1198v-281h-847v-272h804v-281h-804v-327h895l-41 -281h-1205z" />
    <glyph glyph-name="F" unicode="F" horiz-adv-x="1443" 
d="M539 0h-351v1442h1188v-279h-837v-327h780v-281h-780v-555z" />
    <glyph glyph-name="G" unicode="G" horiz-adv-x="1736" 
d="M901 557v270h690v-827h-254q-12 48 -24 147q-73 -89 -184 -133.5t-302 -44.5q-171 0 -310 57t-229.5 157t-139 235.5t-48.5 294.5q0 127 32.5 241t98.5 209t159.5 164t222 107.5t280.5 38.5q134 0 246.5 -28t189 -73.5t134 -107t88 -124t42.5 -128.5h-352
q-10 26 -24.5 49.5t-43 51.5t-64.5 48t-92 33.5t-124 13.5q-108 0 -191 -37t-133 -102.5t-75 -151t-25 -188.5q0 -145 44.5 -254t142.5 -174t241 -65q176 0 265 81.5t89 217.5v22h-350z" />
    <glyph glyph-name="H" unicode="H" horiz-adv-x="1740" 
d="M539 0h-351v1442h351v-541h663v541h350v-1442h-350v621h-663v-621z" />
    <glyph glyph-name="I" unicode="I" horiz-adv-x="724" 
d="M188 0v1442h351v-1442h-351z" />
    <glyph glyph-name="J" unicode="J" horiz-adv-x="962" 
d="M59 -16v276q68 -10 152 -10q117 0 174 55.5t57 190.5v946h353v-928q0 -293 -129.5 -419t-397.5 -126q-107 0 -209 15z" />
    <glyph glyph-name="K" unicode="K" horiz-adv-x="1609" 
d="M539 0h-351v1442h351v-631q89 83 311 287.5t371 343.5h428l-678 -621l715 -821h-435l-530 629l-182 -152v-477z" />
    <glyph glyph-name="L" unicode="L" horiz-adv-x="1376" 
d="M539 281h807l-48 -281h-1110v1442h351v-1161z" />
    <glyph glyph-name="M" unicode="M" horiz-adv-x="2043" 
d="M188 0v1442h506q34 -105 101 -312.5t99.5 -308t68.5 -223t51 -192.5h2q27 103 74 250t132 403.5t126 382.5h510v-1442h-338v553q0 468 10 668h-2q-68 -252 -379 -1221h-307q-71 253 -199.5 677t-161.5 542h-2q25 -415 25 -693v-526h-316z" />
    <glyph glyph-name="N" unicode="N" horiz-adv-x="1761" 
d="M508 0h-320v1442h414q121 -184 256.5 -388t196 -294.5t117 -180.5t88.5 -151h4q-13 141 -13 657v357h322v-1442h-389q-23 37 -202.5 318.5t-311.5 493t-170 284.5h-4q12 -176 12 -639v-457z" />
    <glyph glyph-name="O" unicode="O" horiz-adv-x="1759" 
d="M100 725q0 119 34 230t102 205t161 164t219 109.5t269 39.5q183 0 332.5 -61t244.5 -165t146 -237.5t51 -282.5q0 -121 -31.5 -232.5t-96.5 -207.5t-157.5 -166.5t-222.5 -111t-283 -40.5q-179 0 -325.5 58.5t-242.5 161t-148 240t-52 296.5zM889 242q84 0 152.5 27.5
t114 73.5t76.5 108.5t44.5 130.5t13.5 141q0 98 -24.5 182t-73.5 151t-130.5 105.5t-187.5 38.5q-102 0 -181.5 -39t-127 -105.5t-72 -149.5t-24.5 -177q0 -103 26.5 -191t77 -154.5t132 -104t184.5 -37.5z" />
    <glyph glyph-name="P" unicode="P" horiz-adv-x="1562" 
d="M541 0h-353v1442h746q255 0 407 -121t152 -332q0 -221 -149.5 -346t-413.5 -125h-389v-518zM541 1174v-386h360q118 0 180 46t62 149q0 191 -242 191h-360z" />
    <glyph glyph-name="Q" unicode="Q" horiz-adv-x="1759" 
d="M1417 156l338 -232l-186 -225l-447 303q-109 -33 -254 -33q-179 0 -325.5 58.5t-242.5 161t-148 240t-52 296.5q0 119 34 230t102 205t161 164t219 109.5t269 39.5q183 0 332.5 -61t244.5 -165t146 -237.5t51 -282.5q0 -169 -62 -318t-180 -253zM889 242q84 0 152.5 27.5
t114 73.5t76.5 108.5t44.5 130.5t13.5 141q0 98 -24.5 182t-73.5 151t-130.5 105.5t-187.5 38.5q-102 0 -181.5 -39t-127 -105.5t-72 -149.5t-24.5 -177q0 -103 26.5 -191t77 -154.5t132 -104t184.5 -37.5z" />
    <glyph glyph-name="R" unicode="R" horiz-adv-x="1601" 
d="M190 0v1442h785q247 0 385.5 -111.5t138.5 -300.5q0 -133 -69 -218.5t-183 -121.5q23 -10 31 -13.5t36 -19.5t42.5 -30.5t37.5 -42t35 -58.5t21.5 -77t9.5 -99v-71q0 -207 19 -279h-359q-17 43 -21.5 106t-4.5 195v49q0 113 -55.5 159t-209.5 46h-292v-555h-347z
M537 1180v-361h360q126 0 185 45t59 137q0 179 -242 179h-362z" />
    <glyph glyph-name="S" unicode="S" horiz-adv-x="1529" 
d="M1368 1049h-350q-7 26 -16.5 45.5t-32 44t-53.5 40.5t-84 27t-121 11q-123 0 -186.5 -38.5t-63.5 -109.5q0 -43 26 -71t98 -53t206 -48q160 -29 275.5 -67.5t183.5 -80.5t107.5 -97t52.5 -107t13 -121q0 -96 -39 -176.5t-119 -143.5t-213 -98t-309 -35q-164 0 -292 35
t-210 98.5t-130.5 145t-65.5 182.5h352q33 -101 120.5 -154t258.5 -53q158 0 223.5 43t65.5 119q0 53 -28.5 87.5t-110 64.5t-230.5 55q-147 25 -254 60.5t-171.5 75.5t-102.5 91.5t-51 101.5t-13 113q0 106 48.5 189.5t133 136.5t196 80.5t241.5 27.5q142 0 255 -28
t181.5 -71t116 -101.5t67.5 -112t25 -108.5z" />
    <glyph glyph-name="T" unicode="T" horiz-adv-x="1394" 
d="M872 0h-350v1163h-508v279h1364v-279h-506v-1163z" />
    <glyph glyph-name="U" unicode="U" horiz-adv-x="1693" 
d="M170 608v834h350v-815q0 -385 338 -385q74 0 129 18t98.5 60.5t66 119t22.5 187.5v815h350v-826q0 -324 -174 -485.5t-500 -161.5q-324 0 -502 156.5t-178 482.5z" />
    <glyph glyph-name="V" unicode="V" horiz-adv-x="1607" 
d="M1008 0h-418l-588 1442h387l254 -686q106 -293 160 -492h4q29 108 178 518l246 660h375z" />
    <glyph glyph-name="W" unicode="W" horiz-adv-x="2209" 
d="M807 0h-377l-410 1442h367q14 -55 55 -213.5t66 -258t57.5 -235.5t53.5 -241t30 -179h2q49 279 293 1127h334q243 -855 291 -1116h4q38 244 248 1048q12 46 18 68h352l-436 -1442h-379q-70 241 -160.5 581t-125.5 494h-3q-7 -40 -17 -87.5t-25 -108.5t-27 -111
t-33 -128.5t-33.5 -124t-37.5 -136t-35.5 -127t-37.5 -133t-34 -119.5z" />
    <glyph glyph-name="X" unicode="X" horiz-adv-x="1458" 
d="M-33 0l555 737l-540 705h413l342 -465h2l344 465h377l-538 -688l569 -754h-404l-368 504h-4l-359 -504h-389z" />
    <glyph glyph-name="Y" unicode="Y" horiz-adv-x="1431" 
d="M891 0h-350v516q0 18 -19 47l-596 879h416q27 -43 86 -136t94 -149.5t80 -129.5t76.5 -128t50.5 -94q33 60 96 161.5t160.5 254t140.5 221.5h381l-608 -893q-8 -16 -8 -39v-510z" />
    <glyph glyph-name="Z" unicode="Z" horiz-adv-x="1464" 
d="M59 0v254l871 915h-828v273h1268v-275l-854 -895h922l-39 -272h-1340z" />
    <glyph glyph-name="bracketleft" unicode="[" horiz-adv-x="868" 
d="M784 -338h-598v1864h598v-226h-317v-1413h317v-225z" />
    <glyph glyph-name="backslash" unicode="\" horiz-adv-x="1114" 
d="M1030 -104h-293l-653 1546h295z" />
    <glyph glyph-name="bracketright" unicode="]" horiz-adv-x="868" 
d="M84 -338v225h317v1413h-317v226h598v-1864h-598z" />
    <glyph glyph-name="asciicircum" unicode="^" horiz-adv-x="1263" 
d="M41 532l463 869h254l463 -869l-283 3l-313 608l-312 -611h-272z" />
    <glyph glyph-name="underscore" unicode="_" horiz-adv-x="1339" 
d="M-2 -268v106h1343v-106h-1343z" />
    <glyph glyph-name="grave" unicode="`" 
d="M313 1231l-385 317h383l293 -317h-291z" />
    <glyph glyph-name="a" unicode="a" horiz-adv-x="1327" 
d="M477 745h-334q3 44 16.5 86.5t50 90.5t91.5 83t149 58.5t214 23.5q96 0 173.5 -13t131 -34t94 -52.5t64 -64.5t38 -74.5t19 -77t4.5 -77.5v-397q0 -205 8 -297h-315q-6 19 -13 119q-94 -148 -379 -148q-104 0 -184.5 29.5t-127 80t-70 110.5t-23.5 126q0 100 42 171
t120 110.5t174 56.5t219 17h221v33q0 73 -42 114t-150 41q-98 0 -138.5 -30.5t-52.5 -84.5zM408 334q0 -56 45 -90.5t133 -34.5q136 0 205 60t69 175v17q-25 2 -215 2q-125 0 -181 -32t-56 -97z" />
    <glyph glyph-name="b" unicode="b" horiz-adv-x="1421" 
d="M459 0h-320q2 154 2 352v1174h334v-582q120 143 350 143q143 0 261 -68t186.5 -191.5t68.5 -276.5q0 -134 -42 -244t-114.5 -183t-170 -113t-209.5 -40q-244 0 -342 148q0 -69 -4 -119zM731 236q129 0 197.5 84t68.5 215q0 58 -15.5 109t-46 93t-82 66t-118.5 24
q-135 0 -201.5 -79t-66.5 -218q0 -131 69 -212.5t195 -81.5z" />
    <glyph glyph-name="c" unicode="c" horiz-adv-x="1294" 
d="M1221 696h-334q-49 140 -217 140q-124 0 -187 -83t-63 -221q0 -89 24.5 -156t82 -110t143.5 -43q87 0 139.5 32.5t85.5 102.5h334q-17 -78 -58 -145.5t-108 -123t-168.5 -87t-226.5 -31.5q-148 0 -263 44.5t-184.5 122t-105 177t-35.5 215.5q0 109 39 208.5t111 177.5
t185.5 124.5t252.5 46.5q119 0 216.5 -30t156.5 -73.5t100.5 -99.5t58.5 -102t21 -86z" />
    <glyph glyph-name="d" unicode="d" horiz-adv-x="1423" 
d="M1284 0h-330q-3 25 -8 123q-35 -48 -69.5 -77.5t-107 -52t-175.5 -22.5q-224 0 -369 152t-145 397q0 129 48 238t126.5 179.5t175 110t195.5 39.5q137 0 213 -33.5t108 -76.5v549h336v-1229q0 -199 2 -297zM692 233q127 0 194.5 78t67.5 217q0 299 -262 299
q-128 0 -198 -87t-70 -212q0 -130 71 -212.5t197 -82.5z" />
    <glyph glyph-name="e" unicode="e" horiz-adv-x="1316" 
d="M897 324h336q-26 -75 -69 -135.5t-109 -111t-164 -78.5t-221 -28q-126 0 -227.5 32t-168 86t-111.5 126.5t-64 150.5t-19 162q0 113 38 213t110 177.5t185.5 123t254.5 45.5q120 0 218 -32t163.5 -85.5t110.5 -126.5t65 -151.5t20 -163.5q0 -46 -2 -79h-829
q6 -101 75 -165.5t185 -64.5q89 0 140.5 26t82.5 79zM666 852q-122 0 -181.5 -56t-66.5 -143h487q-2 27 -8.5 51.5t-23.5 52.5t-42 48t-68 33.5t-97 13.5z" />
    <glyph glyph-name="f" unicode="f" horiz-adv-x="780" 
d="M549 0h-336v815h-180v244h180v90q0 391 401 391q97 0 138 -10v-246q-18 2 -66 2q-80 0 -108.5 -30.5t-28.5 -106.5v-90h217v-244h-217v-815z" />
    <glyph glyph-name="g" unicode="g" horiz-adv-x="1415" 
d="M88 -98h338q14 -38 38.5 -64.5t78.5 -45.5t135 -19q63 0 110.5 16.5t77 44t47.5 69t24.5 86.5t6.5 103v45q-52 -73 -130.5 -111t-221.5 -38q-150 0 -268 72t-181 192t-63 264q0 121 41.5 227.5t113.5 181.5t171.5 118.5t211.5 43.5q78 0 139 -14t97.5 -38t57 -46.5
t32.5 -48.5q1 11 3 57t3 62h326q-2 -104 -2 -311v-629q0 -296 -144 -445t-471 -149q-97 0 -178.5 15t-137.5 39t-100.5 58t-70.5 67t-45 72.5t-26.5 67.5t-12.5 58zM684 244q129 0 197.5 75t68.5 220q0 132 -66.5 210t-189.5 78q-128 0 -200 -84t-72 -215q0 -122 69 -203
t193 -81z" />
    <glyph glyph-name="h" unicode="h" horiz-adv-x="1380" 
d="M141 0v1526h332v-600q112 161 350 161q200 0 308 -114t108 -338v-635h-338v598q0 112 -40.5 170.5t-147.5 58.5q-117 0 -177.5 -82.5t-60.5 -236.5v-508h-334z" />
    <glyph glyph-name="i" unicode="i" horiz-adv-x="618" 
d="M477 0h-334v1059h334v-1059zM477 1257h-334v269h334v-269z" />
    <glyph glyph-name="j" unicode="j" horiz-adv-x="618" 
d="M-37 -473v258h19q87 0 124 38.5t37 141.5v1094h336v-1006q0 -71 -4.5 -127t-17.5 -112.5t-35 -98.5t-57 -79t-83 -60.5t-114.5 -37t-149.5 -13.5q-12 0 -24.5 0.5t-21 1t-9.5 0.5zM477 1257h-334v269h334v-269z" />
    <glyph glyph-name="k" unicode="k" horiz-adv-x="1349" 
d="M141 0v1526h334v-924q53 57 220.5 223t232.5 234h395l-446 -406l491 -653h-403l-324 467l-166 -143v-324h-334z" />
    <glyph glyph-name="l" unicode="l" horiz-adv-x="616" 
d="M475 0h-334v1526h334v-1526z" />
    <glyph glyph-name="m" unicode="m" horiz-adv-x="2002" 
d="M471 0h-330v784q0 183 -2 275h320q8 -55 8 -125q111 153 324 153q238 0 319 -174q123 174 356 174q85 0 155.5 -26t125 -79t85 -140.5t30.5 -202.5v-639h-330v631q0 38 -7.5 71t-25 64.5t-52.5 49.5t-85 18q-193 0 -193 -250v-584h-331v633q0 88 -40 144.5t-132 56.5
q-99 0 -147 -65.5t-48 -184.5v-584z" />
    <glyph glyph-name="n" unicode="n" horiz-adv-x="1382" 
d="M477 0h-336v791q0 192 -2 268h326q6 -44 10 -137q109 165 352 165q195 0 304.5 -115t109.5 -319v-653h-338v600q0 101 -45.5 164t-150.5 63q-230 0 -230 -299v-528z" />
    <glyph glyph-name="o" unicode="o" horiz-adv-x="1374" 
d="M80 530q0 110 39.5 209t114 177.5t192 124.5t262.5 46q120 0 221.5 -33t171 -87.5t118.5 -127t72 -151t23 -158.5q0 -250 -164.5 -404.5t-453.5 -154.5q-144 0 -259 45.5t-187.5 123.5t-111 178t-38.5 212zM686 223q87 0 148 42t88.5 108.5t27.5 150.5q0 131 -67.5 220.5
t-198.5 89.5q-129 0 -196.5 -86.5t-67.5 -217.5t70.5 -219t195.5 -88z" />
    <glyph glyph-name="p" unicode="p" horiz-adv-x="1423" 
d="M477 -446h-334v1245q0 174 -2 260h328q8 -40 8 -137q111 165 369 165q208 0 352.5 -153.5t144.5 -382.5q0 -134 -45.5 -245.5t-121.5 -183.5t-172.5 -111.5t-200.5 -39.5q-120 0 -201.5 38t-124.5 93v-548zM733 236q127 0 196.5 80t69.5 216q0 124 -69 209.5t-193 85.5
q-139 0 -203.5 -80t-64.5 -219q0 -138 68 -215t196 -77z" />
    <glyph glyph-name="q" unicode="q" horiz-adv-x="1423" 
d="M1282 -446h-334v557q-49 -68 -129.5 -104t-220.5 -36q-219 0 -368.5 154t-149.5 383q0 111 32 207t86 163t124 115t146 71t153 23q139 0 220.5 -41.5t106.5 -89.5q5 82 8 103h328q-2 -94 -2 -295v-1210zM686 236q134 0 202 74.5t68 215.5q0 135 -61 218t-201 83
q-133 0 -201.5 -87.5t-68.5 -211.5q0 -129 71 -210.5t191 -81.5z" />
    <glyph glyph-name="r" unicode="r" horiz-adv-x="925" 
d="M477 0h-334v770q0 193 -2 289h326q10 -65 10 -213q47 111 149.5 176.5t258.5 62.5v-305q-94 2 -166 -17.5t-127.5 -64t-85 -123t-29.5 -188.5v-387z" />
    <glyph glyph-name="s" unicode="s" horiz-adv-x="1210" 
d="M1106 760h-328q-15 47 -58.5 76.5t-144.5 29.5q-149 0 -149 -86q0 -24 16 -40t67 -31t148 -29q90 -14 162 -33t122.5 -40.5t87.5 -48.5t58.5 -53t34.5 -58t17 -60t4 -63q0 -75 -29.5 -137t-91 -111.5t-166.5 -77t-246 -27.5q-223 0 -374 93t-175 262h332
q44 -125 240 -125q182 0 182 94q0 31 -20 50.5t-76 36t-162 30.5q-116 16 -202 44.5t-134 60t-77 72.5t-37.5 76.5t-8.5 79.5q0 65 25.5 122.5t80 108.5t153.5 81t231 30q108 0 195.5 -19.5t144.5 -51.5t96.5 -75.5t58.5 -88t23 -92.5z" />
    <glyph glyph-name="t" unicode="t" horiz-adv-x="860" 
d="M223 311v504h-190v244h190v311h336v-311h246v-244h-246v-446q0 -72 24 -101.5t97 -29.5q61 0 90 6v-230q-78 -22 -211 -22q-96 0 -162 20t-104 62t-54 99t-16 138z" />
    <glyph glyph-name="u" unicode="u" horiz-adv-x="1361" 
d="M139 412v647h334v-592q0 -236 191 -236q121 0 172 78t51 260v490h334v-752q0 -205 2 -307h-328q-1 6 -6 123q-30 -47 -66.5 -77t-110.5 -52.5t-180 -22.5q-177 0 -285 109.5t-108 331.5z" />
    <glyph glyph-name="v" unicode="v" horiz-adv-x="1255" 
d="M440 0l-436 1059h361q57 -162 121.5 -340t99.5 -275.5t51 -154.5h4q43 156 268 770h340l-436 -1059h-373z" />
    <glyph glyph-name="w" unicode="w" horiz-adv-x="1812" 
d="M338 0l-315 1059h346q152 -629 178 -799h2q60 254 213 799h313q170 -615 203 -793h2q33 205 182 793h328l-332 -1059h-360q-171 598 -193 686h-2q-77 -302 -201 -686h-364z" />
    <glyph glyph-name="x" unicode="x" horiz-adv-x="1226" 
d="M-10 0l430 537l-436 522h385q51 -65 113 -142.5l96 -120t49 -63.5h4q25 35 248 326h356l-424 -506l444 -553h-378q-74 97 -162 208t-103 132h-4q-134 -173 -262 -340h-356z" />
    <glyph glyph-name="y" unicode="y" horiz-adv-x="1273" 
d="M141 -463v270q73 -6 107 -6q54 0 89.5 8t61.5 30.5t42 47t40 72.5l-471 1100h367q214 -539 280 -791h7q94 335 254 791h342l-355 -907q-108 -280 -155 -370q-74 -143 -167 -198q-98 -59 -278 -59q-105 0 -164 12z" />
    <glyph glyph-name="z" unicode="z" horiz-adv-x="1183" 
d="M66 0v240l608 563h-574v256h994v-246l-586 -555h635l-37 -258h-1040z" />
    <glyph glyph-name="braceleft" unicode="{" horiz-adv-x="907" 
d="M276 45v217q0 123 -45.5 164t-179.5 41v256q132 0 178.5 41.5t46.5 165.5v203q0 193 105.5 293t300.5 100h125v-230h-25q-120 0 -162 -48t-42 -165v-170q0 -63 -11.5 -113t-28.5 -82.5t-43 -57t-49.5 -37.5t-52.5 -23q62 -20 99.5 -51t61.5 -98.5t24 -174.5v-178
q0 -104 39.5 -156.5t148.5 -52.5h41v-227h-127q-90 0 -161 20.5t-127 64t-86 119t-30 179.5z" />
    <glyph glyph-name="bar" unicode="|" horiz-adv-x="684" 
d="M190 -539v2153h304v-2153h-304z" />
    <glyph glyph-name="braceright" unicode="}" horiz-adv-x="907" 
d="M51 -338v227h25q120 0 163.5 49t43.5 164v172q0 78 15.5 136t44 92.5t57 54t65.5 31.5q-62 20 -98.5 50.5t-60 97.5t-23.5 175v179q0 103 -40.5 155.5t-150.5 52.5h-41v228h127q404 0 404 -383v-217q0 -123 46.5 -165t178.5 -42v-256q-132 0 -178.5 -41t-46.5 -166v-201
q0 -193 -104.5 -293t-301.5 -100h-125z" />
    <glyph glyph-name="asciitilde" unicode="~" horiz-adv-x="1662" 
d="M442 367h-252v100q0 105 27 182t73 118.5t98.5 61t113.5 19.5q78 0 159 -22t145.5 -54t122.5 -63.5t110 -53.5t87 -22q55 0 76 27.5t21 115.5v58h247v-89q0 -115 -21.5 -194t-64.5 -122t-96.5 -61t-126.5 -18q-69 0 -146.5 22.5t-144.5 55t-129 64.5t-118 54.5t-93 22.5
q-43 0 -65.5 -29.5t-22.5 -109.5v-63z" />
    <glyph glyph-name="uni00A0" unicode="&#xa0;" horiz-adv-x="573" 
 />
    <glyph glyph-name="exclamdown" unicode="&#xa1;" horiz-adv-x="720" 
d="M160 -381v242l33 667h292l35 -669v-240h-360zM178 700v361h326v-361h-326z" />
    <glyph glyph-name="cent" unicode="&#xa2;" horiz-adv-x="1310" 
d="M555 -25v162q-147 24 -251.5 105t-153 192t-48.5 242q0 202 122.5 349t330.5 185v127h285v-131q100 -19 177.5 -62.5t121 -99t66.5 -110t28 -107.5h-332q-10 30 -23 52t-37.5 45t-65 35t-95.5 12q-115 0 -173 -78.5t-58 -212.5q0 -139 63.5 -221t169.5 -82q91 0 142 35
t79 104h330q-30 -149 -130 -246t-263 -129v-166h-285z" />
    <glyph glyph-name="sterling" unicode="&#xa3;" horiz-adv-x="1323" 
d="M1272 0h-1176v223q93 40 127.5 118.5t34.5 199.5v32h-186v234h170q0 16 -1 49.5t-1 52.5q0 80 16.5 151t55 134.5t95.5 108.5t142.5 71.5t191.5 26.5q119 0 213.5 -35t151 -93.5t86.5 -126.5t33 -142h-324q-22 149 -172 149q-86 0 -122 -56t-36 -157q0 -43 4 -133h314
v-234h-305q-6 -194 -86 -301h811z" />
    <glyph glyph-name="currency" unicode="&#xa4;" horiz-adv-x="1331" 
d="M236 57l-168 185l165 174q-67 118 -67 266q0 146 67 268l-165 176l168 183l172 -181q125 72 274 72q152 0 270 -74l168 183l170 -183l-166 -178q62 -118 62 -260q0 -147 -62 -268l166 -178l-170 -185l-166 181q-122 -72 -278 -72q-147 0 -270 74zM678 395
q104 0 167.5 67.5t63.5 223.5q0 137 -60.5 207t-170.5 70q-111 0 -174.5 -72.5t-63.5 -206.5q0 -79 21 -137t56.5 -90t75.5 -47t85 -15z" />
    <glyph glyph-name="yen" unicode="&#xa5;" horiz-adv-x="1245" 
d="M152 244v190h292v107h-292v190h249l-456 641h379q91 -143 163 -253.5t101.5 -154.5t40.5 -63h2q13 26 41 68.5t111 164t161 238.5h344l-473 -641h256v-190h-299v-107h299v-190h-299v-244h-328v244h-292z" />
    <glyph glyph-name="brokenbar" unicode="&#xa6;" horiz-adv-x="546" 
d="M150 698v754h286v-754h-286zM150 -377v754h286v-754h-286z" />
    <glyph glyph-name="section" unicode="&#xa7;" horiz-adv-x="1415" 
d="M84 -6h330q20 -75 89.5 -118.5t192.5 -43.5q98 0 152.5 31t54.5 88q0 44 -22 71t-92.5 55.5t-215.5 65.5q-268 67 -380.5 172t-112.5 254q0 90 52 165.5t136 129.5q-84 72 -84 209q0 77 32 143.5t93.5 118t161 81.5t225.5 30q120 0 218 -24.5t160 -63t105 -89.5
t61.5 -100.5t21.5 -99.5h-330q-12 58 -72.5 101.5t-171.5 43.5q-182 0 -182 -112q0 -47 62 -81t239 -83q131 -39 219.5 -78t156 -92t99 -122t31.5 -159q0 -92 -44 -172.5t-124 -136.5q38 -27 64 -81.5t26 -123.5q0 -172 -143.5 -277.5t-401.5 -105.5q-264 0 -419.5 104.5
t-186.5 299.5zM645 420q213 -67 307 -107q56 53 56 123q0 79 -53 122.5t-222 103.5q-30 10 -95 30.5t-101 33.5t-68 28q-40 -22 -62 -58.5t-22 -72.5q0 -69 51.5 -112.5t208.5 -90.5z" />
    <glyph glyph-name="dieresis" unicode="&#xa8;" 
d="M319 1257h-288v269h288v-269zM786 1257h-288v269h288v-269z" />
    <glyph glyph-name="copyright" unicode="&#xa9;" horiz-adv-x="1681" 
d="M844 -25q-210 0 -378.5 93t-266 265t-97.5 392q0 211 97.5 383t267.5 269.5t377 97.5q155 0 291 -56t233.5 -154t154 -238.5t56.5 -301.5q0 -160 -56.5 -300t-154 -238.5t-233.5 -155t-291 -56.5zM842 104q169 0 303.5 72t214.5 214.5t80 332.5q0 181 -78.5 323
t-214.5 219.5t-305 77.5q-170 0 -304.5 -72.5t-214 -214.5t-79.5 -333q0 -175 77.5 -317t214.5 -222t306 -80zM1208 870h-196q-11 26 -18.5 40t-26 35.5t-47.5 31.5t-70 10q-88 0 -138 -66t-50 -182q0 -124 49.5 -194t136.5 -70q66 0 104.5 29.5t59.5 87.5h196
q-30 -129 -122.5 -202t-241.5 -73q-172 0 -275.5 112t-103.5 298q0 182 107 300t280 118q89 0 158.5 -27t109 -70.5t60.5 -87.5t28 -90z" />
    <glyph glyph-name="ordfeminine" unicode="&#xaa;" horiz-adv-x="884" 
d="M322 1038h-228q30 217 342 217q101 0 173 -22t109 -60t53.5 -79.5t16.5 -89.5v-269q0 -101 3 -178l-236 -2q0 5 -3 36.5t-3 45.5q-70 -90 -230 -90q-124 0 -196 64.5t-72 164.5q0 230 387 230h107v12q0 86 -111 86q-56 0 -80.5 -17t-31.5 -49zM551 858v12h-111
q-32 0 -55 -2.5t-45 -10t-33.5 -23t-11.5 -39.5q0 -32 26 -53t78 -21q152 0 152 137z" />
    <glyph glyph-name="guillemotleft" unicode="&#xab;" horiz-adv-x="1339" 
d="M416 109l-322 432l322 424h297l-320 -424l320 -432h-297zM948 109l-321 432l321 424h297l-319 -424l319 -432h-297z" />
    <glyph glyph-name="logicalnot" unicode="&#xac;" horiz-adv-x="1720" 
d="M205 659v271h1282v-789h-281v518h-1001z" />
    <glyph glyph-name="uni00AD" unicode="&#xad;" horiz-adv-x="892" 
d="M104 383v279h684v-279h-684z" />
    <glyph glyph-name="registered" unicode="&#xae;" horiz-adv-x="813" 
d="M420 737q-161 0 -269 108t-108 271q0 162 105 268.5t272 106.5q168 0 273.5 -110t105.5 -265q0 -168 -107 -273.5t-272 -105.5zM420 825q135 0 206.5 77t71.5 212q0 131 -75.5 211t-202.5 80q-133 0 -207 -78.5t-74 -212.5q0 -127 79 -208t202 -81zM375 944h-109v356h191
q60 0 99.5 -27t39.5 -79q0 -31 -15.5 -52t-37.5 -30q41 -14 41 -88q0 -49 2 -80h-115q-4 10 -4 72q2 29 -8.5 41t-38.5 12h-45v-125zM379 1223v-76h53q49 0 49 39q0 37 -51 37h-51z" />
    <glyph glyph-name="macron" unicode="&#xaf;" 
d="M74 1268v217h669v-217h-669z" />
    <glyph glyph-name="degree" unicode="&#xb0;" horiz-adv-x="743" 
d="M51 1108q0 139 92.5 230.5t229.5 91.5q147 0 233 -89.5t86 -224.5q0 -149 -91.5 -237t-231.5 -88q-144 0 -231 88t-87 229zM371 942q71 0 110 47t39 123q0 68 -39 118t-110 50q-70 0 -109 -47.5t-39 -122.5q0 -73 39.5 -120.5t108.5 -47.5z" />
    <glyph glyph-name="plusminus" unicode="&#xb1;" horiz-adv-x="1693" 
d="M205 858v268h500v449h282v-449h500v-268h-500v-475h-282v475h-500zM1487 0h-1282v268h1282v-268z" />
    <glyph glyph-name="two.sups" unicode="&#xb2;" horiz-adv-x="864" 
d="M803 901h-727v12q0 141 68 235t223 171q118 59 140 75q30 24 30 56q0 35 -25.5 60.5t-87.5 25.5q-106 0 -123 -98h-238q5 56 28 105.5t66 91t115 65.5t166 24t166 -24.5t112 -64.5t59.5 -85t19.5 -92q0 -96 -50.5 -152.5t-179.5 -111.5q-5 -3 -27.5 -13t-30 -14t-26 -13
t-27.5 -15t-21.5 -14.5t-20 -17t-13.5 -17.5h435z" />
    <glyph glyph-name="three.sups" unicode="&#xb3;" horiz-adv-x="886" 
d="M55 1171h248q23 -98 150 -98q65 0 98 22.5t33 63.5t-34.5 59.5t-117.5 18.5h-80v170h78q68 0 93.5 14.5t25.5 46.5q0 35 -24 54.5t-87 19.5q-98 0 -123 -74h-231q2 29 12 60t35.5 67t64 64t103 46.5t145.5 18.5q164 0 257.5 -65t93.5 -174q0 -64 -34 -103.5t-77 -50.5
q52 -9 99.5 -56.5t47.5 -123.5q0 -50 -19.5 -93t-61.5 -81.5t-121.5 -61t-188.5 -22.5q-87 0 -157 21t-110.5 52t-68 70.5t-38 72.5t-11.5 62z" />
    <glyph glyph-name="acute" unicode="&#xb4;" 
d="M215 1231l283 317h383l-371 -317h-295z" />
    <glyph glyph-name="uni00B5" unicode="&#xb5;" horiz-adv-x="1363" 
d="M139 -446v1505h334v-623q0 -39 8.5 -72.5t27.5 -64.5t56.5 -49.5t89.5 -18.5q125 0 179.5 80t54.5 244v504h334v-729q0 -275 4 -330h-324q-10 45 -10 127q-45 -83 -105 -119.5t-167 -36.5q-109 0 -164 58q14 -231 14 -475h-332z" />
    <glyph glyph-name="paragraph" unicode="&#xb6;" horiz-adv-x="1474" 
d="M1257 -348h-245v608h-322q-133 0 -242.5 34.5t-190.5 102t-126 174t-45 242.5q0 249 159.5 400t428.5 151h336q2 14 5 45t6 52t7 32h232q0 -19 -1.5 -87t-1.5 -89v-1665zM889 510h121v625h-121q-114 0 -159.5 -76.5t-45.5 -222.5q0 -58 3 -98t14.5 -86.5t33 -75
t60.5 -47.5t94 -19z" />
    <glyph glyph-name="periodcentered" unicode="&#xb7;" horiz-adv-x="612" 
d="M500 410h-385v428h385v-428z" />
    <glyph glyph-name="cedilla" unicode="&#xb8;" 
d="M166 -500l2 160q68 -14 129 -14q117 0 117 57q0 38 -53.5 52.5t-163.5 17.5v69l151 181l209 -23l-90 -102q34 -6 64.5 -18t63.5 -33.5t53 -59.5t20 -86q0 -53 -21 -93.5t-53 -64t-76.5 -38.5t-85.5 -20t-86 -5q-125 0 -180 20z" />
    <glyph glyph-name="one.sups" unicode="&#xb9;" horiz-adv-x="552" 
d="M449 901h-254v549q-59 -14 -142 -18v176q54 7 117.5 38t103.5 68h175v-813z" />
    <glyph glyph-name="ordmasculine" unicode="&#xba;" horiz-adv-x="923" 
d="M57 899q0 163 111 259.5t295 96.5q187 0 293 -100.5t106 -253.5q0 -162 -111.5 -258t-297.5 -96q-171 0 -283.5 99.5t-112.5 252.5zM459 721q80 0 114.5 46.5t34.5 135.5q-4 176 -149 176q-74 0 -109 -49.5t-35 -128.5q0 -75 36.5 -127.5t107.5 -52.5z" />
    <glyph glyph-name="guillemotright" unicode="&#xbb;" horiz-adv-x="1339" 
d="M391 109h-297l318 426l-318 430h297l322 -430zM924 109h-297l317 426l-317 430h297l321 -430z" />
    <glyph glyph-name="onequarter" unicode="&#xbc;" horiz-adv-x="1804" 
d="M479 0h-192l848 1372h190zM934 178v187l381 448h297v-451h137l-16 -184h-121v-178h-228v178h-450zM1167 362h217v99q0 107 9 180q-18 -25 -53 -68.5t-93 -113.5t-80 -97zM471 559h-254v549q-59 -14 -141 -18v176q54 7 117.5 38t103.5 68h174v-813z" />
    <glyph glyph-name="onehalf" unicode="&#xbd;" horiz-adv-x="1835" 
d="M477 0h-192l848 1372h190zM1774 0h-727v12q0 142 67.5 235.5t222.5 170.5q118 59 140 75q30 24 30 56q0 35 -25 60.5t-87 25.5q-106 0 -123 -98h-238q5 56 28 105.5t66 91t115 65.5t166 24t166 -24.5t111.5 -64.5t59 -85t19.5 -92q0 -96 -50 -152.5t-179 -111.5
q-5 -2 -22 -10t-23 -11l-21 -10.5t-22 -11.5t-19 -10.5t-19 -12t-15.5 -12.5t-14.5 -13.5t-10 -13.5h434zM446 559h-253v549q-59 -14 -142 -18v176q54 7 117.5 38t103.5 68h174v-813z" />
    <glyph glyph-name="threequarters" unicode="&#xbe;" horiz-adv-x="2013" 
d="M731 0h-192l847 1372h191zM1149 178v187l381 448h297v-451h137l-16 -184h-121v-178h-228v178h-450zM1382 362h217v99q0 107 9 180q-18 -25 -53 -68.5t-93 -113.5t-80 -97zM61 829h248q23 -98 150 -98q65 0 98 22.5t33 63.5t-34.5 59.5t-117.5 18.5h-80v170h78
q68 0 93.5 14.5t25.5 46.5q0 35 -24 54.5t-87 19.5q-97 0 -122 -74h-232q2 29 12 60t36 67t64 64t103 46.5t146 18.5q164 0 257 -65t93 -174q0 -64 -34 -103.5t-77 -50.5q52 -9 100 -56.5t48 -123.5q0 -50 -19.5 -93t-62 -81.5t-122 -61t-188.5 -22.5q-87 0 -157 21
t-110.5 52t-68 70.5t-38 72.5t-11.5 62z" />
    <glyph glyph-name="questiondown" unicode="&#xbf;" horiz-adv-x="1212" 
d="M868 63h308q-1 -71 -17 -134.5t-57 -128.5t-103.5 -112t-165 -76.5t-233.5 -29.5q-138 0 -244 34t-168.5 92t-93.5 129t-31 151q0 103 47 186t183 176q88 63 125 116t37 116v20h348v-41q0 -106 -51 -188.5t-191 -184.5q-88 -62 -120.5 -103.5t-32.5 -96.5q0 -74 55 -117
t158 -43q226 0 247 235zM455 719v340h348v-340h-348z" />
    <glyph glyph-name="Agrave" unicode="&#xc0;" horiz-adv-x="1636" 
d="M-2 0l580 1442h450l610 -1442h-378l-136 328h-641l-125 -328h-360zM793 1217h-2q-52 -179 -218 -609h455q-183 448 -235 609zM670 1577l-449 285h426l330 -285h-307z" />
    <glyph glyph-name="Aacute" unicode="&#xc1;" horiz-adv-x="1636" 
d="M-2 0l580 1442h450l610 -1442h-378l-136 328h-641l-125 -328h-360zM793 1217h-2q-52 -179 -218 -609h455q-183 448 -235 609zM621 1577l342 285h426l-449 -285h-319z" />
    <glyph glyph-name="Acircumflex" unicode="&#xc2;" horiz-adv-x="1636" 
d="M-2 0l580 1442h450l610 -1442h-378l-136 328h-641l-125 -328h-360zM793 1217h-2q-52 -179 -218 -609h455q-183 448 -235 609zM365 1563l272 282h354l271 -282h-301l-150 145l-143 -145h-303z" />
    <glyph glyph-name="Atilde" unicode="&#xc3;" horiz-adv-x="1636" 
d="M-2 0l580 1442h450l610 -1442h-378l-136 328h-641l-125 -328h-360zM793 1217h-2q-52 -179 -218 -609h455q-183 448 -235 609zM618 1581h-206v61q0 250 215 250q59 0 123.5 -23t117.5 -46t84 -23q29 0 42.5 14.5t13.5 57.5v16h200v-45q0 -79 -15 -134t-44 -83.5t-63 -40.5
t-80 -12q-58 0 -125.5 24.5t-123.5 49t-87 24.5q-52 0 -52 -59v-31z" />
    <glyph glyph-name="Adieresis" unicode="&#xc4;" horiz-adv-x="1636" 
d="M715 1593h-289v269h289v-269zM1188 1593h-289v269h289v-269zM-2 0l580 1442h450l610 -1442h-378l-136 328h-641l-125 -328h-360zM793 1217h-2q-52 -179 -218 -609h455q-183 448 -235 609z" />
    <glyph glyph-name="Aring" unicode="&#xc5;" horiz-adv-x="1636" 
d="M-2 0l580 1442h450l610 -1442h-378l-136 328h-641l-125 -328h-360zM793 1217h-2q-52 -179 -218 -609h455q-183 448 -235 609zM532 1753q0 99 70.5 164t196.5 65q124 0 193 -63t69 -164q0 -102 -70.5 -165.5t-191.5 -63.5q-124 0 -195.5 63.5t-71.5 163.5zM694 1755
q0 -40 25 -69t76 -29q52 0 79 27.5t27 68.5q0 42 -26 71t-78 29t-77.5 -28.5t-25.5 -69.5z" />
    <glyph glyph-name="AE" unicode="&#xc6;" horiz-adv-x="2398" 
d="M-45 0l946 1442h1380v-281h-841v-270h801v-281h-801v-329h889l-41 -281h-1192v383h-521l-256 -383h-364zM729 639h367v575h-6z" />
    <glyph glyph-name="Ccedilla" unicode="&#xc7;" horiz-adv-x="1669" 
d="M623 -500l2 160q68 -14 129 -14q116 0 116 57q0 38 -53.5 52.5t-163.5 17.5v69l111 131q-163 16 -292 83t-209 169t-121.5 228t-41.5 266q0 119 32 230t97.5 206t157.5 166t219.5 111.5t276.5 40.5q128 0 238 -27.5t188.5 -74t138 -109.5t93 -132t46.5 -143h-354
q-81 215 -354 215q-195 0 -302.5 -132t-107.5 -337q0 -81 15 -153.5t48 -135t80.5 -107.5t116.5 -71t152 -26q147 0 227 54t125 165h350q-23 -90 -67 -167t-113.5 -144.5t-174 -112.5t-235.5 -60l-69 -77q26 -5 50.5 -12.5t52.5 -23.5t48.5 -36.5t34.5 -53t14 -71.5
q0 -53 -21 -93.5t-53 -64t-76.5 -38.5t-85 -20t-85.5 -5q-125 0 -180 20z" />
    <glyph glyph-name="Egrave" unicode="&#xc8;" horiz-adv-x="1503" 
d="M188 0v1442h1198v-281h-847v-272h804v-281h-804v-327h895l-41 -281h-1205zM680 1577l-449 285h426l330 -285h-307z" />
    <glyph glyph-name="Eacute" unicode="&#xc9;" horiz-adv-x="1503" 
d="M188 0v1442h1198v-281h-847v-272h804v-281h-804v-327h895l-41 -281h-1205zM586 1577l342 285h426l-449 -285h-319z" />
    <glyph glyph-name="Ecircumflex" unicode="&#xca;" horiz-adv-x="1503" 
d="M188 0v1442h1198v-281h-847v-272h804v-281h-804v-327h895l-41 -281h-1205zM342 1565l272 282h355l270 -282h-301l-150 145l-143 -145h-303z" />
    <glyph glyph-name="Edieresis" unicode="&#xcb;" horiz-adv-x="1503" 
d="M694 1593h-288v269h288v-269zM1167 1593h-288v269h288v-269zM188 0v1442h1198v-281h-847v-272h804v-281h-804v-327h895l-41 -281h-1205z" />
    <glyph glyph-name="Igrave" unicode="&#xcc;" horiz-adv-x="724" 
d="M188 0v1442h351v-1442h-351zM221 1577l-448 285h426l329 -285h-307z" />
    <glyph glyph-name="Iacute" unicode="&#xcd;" horiz-adv-x="724" 
d="M188 0v1442h351v-1442h-351zM197 1577l342 285h426l-449 -285h-319z" />
    <glyph glyph-name="Icircumflex" unicode="&#xce;" horiz-adv-x="724" 
d="M188 0v1442h351v-1442h-351zM-88 1563l272 282h355l270 -282h-301l-150 145l-143 -145h-303z" />
    <glyph glyph-name="Idieresis" unicode="&#xcf;" horiz-adv-x="724" 
d="M268 1593h-288v269h288v-269zM741 1593h-288v269h288v-269zM188 0v1442h351v-1442h-351z" />
    <glyph glyph-name="Eth" unicode="&#xd0;" horiz-adv-x="1714" 
d="M211 0v623h-156v239h156v580h651q142 0 264 -36t211 -100t152 -151t94 -191t31 -219q0 -169 -59.5 -310.5t-162 -236t-241 -146.5t-295.5 -52h-645zM561 270h248q213 0 323.5 118.5t110.5 348.5q0 204 -108 319t-322 118h-252v-312h326v-239h-326v-353z" />
    <glyph glyph-name="Ntilde" unicode="&#xd1;" horiz-adv-x="1761" 
d="M508 0h-320v1442h414q121 -184 256.5 -388t196 -294.5t117 -180.5t88.5 -151h4q-13 141 -13 657v357h322v-1442h-389q-23 37 -202.5 318.5t-311.5 493t-170 284.5h-4q12 -176 12 -639v-457zM686 1581h-207v61q0 250 215 250q59 0 123.5 -23t118 -46t84.5 -23
q29 0 42 14.5t13 57.5v16h201v-45q0 -152 -53.5 -211t-149.5 -59q-58 0 -125.5 24.5t-123.5 49t-87 24.5q-51 0 -51 -59v-31z" />
    <glyph glyph-name="Ograve" unicode="&#xd2;" horiz-adv-x="1759" 
d="M100 725q0 119 34 230t102 205t161 164t219 109.5t269 39.5q183 0 332.5 -61t244.5 -165t146 -237.5t51 -282.5q0 -121 -31.5 -232.5t-96.5 -207.5t-157.5 -166.5t-222.5 -111t-283 -40.5q-179 0 -325.5 58.5t-242.5 161t-148 240t-52 296.5zM889 242q84 0 152.5 27.5
t114 73.5t76.5 108.5t44.5 130.5t13.5 141q0 98 -24.5 182t-73.5 151t-130.5 105.5t-187.5 38.5q-102 0 -181.5 -39t-127 -105.5t-72 -149.5t-24.5 -177q0 -103 26.5 -191t77 -154.5t132 -104t184.5 -37.5zM770 1587l-448 285h426l329 -285h-307z" />
    <glyph glyph-name="Oacute" unicode="&#xd3;" horiz-adv-x="1759" 
d="M100 725q0 119 34 230t102 205t161 164t219 109.5t269 39.5q183 0 332.5 -61t244.5 -165t146 -237.5t51 -282.5q0 -121 -31.5 -232.5t-96.5 -207.5t-157.5 -166.5t-222.5 -111t-283 -40.5q-179 0 -325.5 58.5t-242.5 161t-148 240t-52 296.5zM889 242q84 0 152.5 27.5
t114 73.5t76.5 108.5t44.5 130.5t13.5 141q0 98 -24.5 182t-73.5 151t-130.5 105.5t-187.5 38.5q-102 0 -181.5 -39t-127 -105.5t-72 -149.5t-24.5 -177q0 -103 26.5 -191t77 -154.5t132 -104t184.5 -37.5zM690 1589l342 285h426l-448 -285h-320z" />
    <glyph glyph-name="Ocircumflex" unicode="&#xd4;" horiz-adv-x="1759" 
d="M100 725q0 119 34 230t102 205t161 164t219 109.5t269 39.5q183 0 332.5 -61t244.5 -165t146 -237.5t51 -282.5q0 -121 -31.5 -232.5t-96.5 -207.5t-157.5 -166.5t-222.5 -111t-283 -40.5q-179 0 -325.5 58.5t-242.5 161t-148 240t-52 296.5zM889 242q84 0 152.5 27.5
t114 73.5t76.5 108.5t44.5 130.5t13.5 141q0 98 -24.5 182t-73.5 151t-130.5 105.5t-187.5 38.5q-102 0 -181.5 -39t-127 -105.5t-72 -149.5t-24.5 -177q0 -103 26.5 -191t77 -154.5t132 -104t184.5 -37.5zM426 1565l272 282h355l270 -282h-301l-150 145l-143 -145h-303z
" />
    <glyph glyph-name="Otilde" unicode="&#xd5;" horiz-adv-x="1759" 
d="M100 725q0 119 34 230t102 205t161 164t219 109.5t269 39.5q183 0 332.5 -61t244.5 -165t146 -237.5t51 -282.5q0 -121 -31.5 -232.5t-96.5 -207.5t-157.5 -166.5t-222.5 -111t-283 -40.5q-179 0 -325.5 58.5t-242.5 161t-148 240t-52 296.5zM889 242q84 0 152.5 27.5
t114 73.5t76.5 108.5t44.5 130.5t13.5 141q0 98 -24.5 182t-73.5 151t-130.5 105.5t-187.5 38.5q-102 0 -181.5 -39t-127 -105.5t-72 -149.5t-24.5 -177q0 -103 26.5 -191t77 -154.5t132 -104t184.5 -37.5zM682 1583h-207v62q0 249 215 249q59 0 123.5 -23t118 -46t84.5 -23
q29 0 42 14.5t13 57.5v16h201v-45q0 -152 -53.5 -211t-149.5 -59q-58 0 -125.5 24.5t-123.5 49t-87 24.5q-51 0 -51 -59v-31z" />
    <glyph glyph-name="Odieresis" unicode="&#xd6;" horiz-adv-x="1759" 
d="M782 1593h-288v269h288v-269zM1255 1593h-288v269h288v-269zM100 725q0 119 34 230t102 205t161 164t219 109.5t269 39.5q183 0 332.5 -61t244.5 -165t146 -237.5t51 -282.5q0 -121 -31.5 -232.5t-96.5 -207.5t-157.5 -166.5t-222.5 -111t-283 -40.5q-179 0 -325.5 58.5
t-242.5 161t-148 240t-52 296.5zM889 242q84 0 152.5 27.5t114 73.5t76.5 108.5t44.5 130.5t13.5 141q0 98 -24.5 182t-73.5 151t-130.5 105.5t-187.5 38.5q-102 0 -181.5 -39t-127 -105.5t-72 -149.5t-24.5 -177q0 -103 26.5 -191t77 -154.5t132 -104t184.5 -37.5z" />
    <glyph glyph-name="multiply" unicode="&#xd7;" horiz-adv-x="1671" 
d="M393 6l-184 189l444 452l-444 457l180 180l447 -453l444 453l182 -180l-444 -457l444 -452l-184 -189l-442 455z" />
    <glyph glyph-name="Oslash" unicode="&#xd8;" horiz-adv-x="1759" 
d="M166 0l153 184q-106 106 -162.5 247.5t-56.5 293.5q0 124 33.5 236.5t100 205.5t159.5 161.5t217.5 106.5t268.5 38q243 0 424 -107l63 76h217l-145 -176q107 -102 164 -242.5t57 -296.5t-51 -292.5t-147.5 -241t-249 -164.5t-343.5 -60q-233 0 -415 111l-66 -80h-221z
M1229 1014l-586 -705q102 -76 246 -76q105 0 185 38t128 105.5t72 154.5t24 192q0 171 -69 291zM530 436l584 705q-95 67 -240 67q-102 0 -182.5 -38t-130.5 -104t-76 -151.5t-26 -183.5q0 -168 71 -295z" />
    <glyph glyph-name="Ugrave" unicode="&#xd9;" horiz-adv-x="1693" 
d="M170 608v834h350v-815q0 -385 338 -385q74 0 129 18t98.5 60.5t66 119t22.5 187.5v815h350v-826q0 -324 -174 -485.5t-500 -161.5q-324 0 -502 156.5t-178 482.5zM723 1577l-449 285h426l330 -285h-307z" />
    <glyph glyph-name="Uacute" unicode="&#xda;" horiz-adv-x="1693" 
d="M170 608v834h350v-815q0 -385 338 -385q74 0 129 18t98.5 60.5t66 119t22.5 187.5v815h350v-826q0 -324 -174 -485.5t-500 -161.5q-324 0 -502 156.5t-178 482.5zM662 1577l342 285h426l-449 -285h-319z" />
    <glyph glyph-name="Ucircumflex" unicode="&#xdb;" horiz-adv-x="1693" 
d="M170 608v834h350v-815q0 -385 338 -385q74 0 129 18t98.5 60.5t66 119t22.5 187.5v815h350v-826q0 -324 -174 -485.5t-500 -161.5q-324 0 -502 156.5t-178 482.5zM397 1563l273 282h354l270 -282h-301l-149 145l-144 -145h-303z" />
    <glyph glyph-name="Udieresis" unicode="&#xdc;" horiz-adv-x="1693" 
d="M754 1593h-289v269h289v-269zM1227 1593h-289v269h289v-269zM170 608v834h350v-815q0 -385 338 -385q74 0 129 18t98.5 60.5t66 119t22.5 187.5v815h350v-826q0 -324 -174 -485.5t-500 -161.5q-324 0 -502 156.5t-178 482.5z" />
    <glyph glyph-name="Yacute" unicode="&#xdd;" horiz-adv-x="1431" 
d="M891 0h-350v516q0 18 -19 47l-596 879h416q27 -43 86 -136t94 -149.5t80 -129.5t76.5 -128t50.5 -94q33 60 96 161.5t160.5 254t140.5 221.5h381l-608 -893q-8 -16 -8 -39v-510zM530 1577l342 285h426l-448 -285h-320z" />
    <glyph glyph-name="Thorn" unicode="&#xde;" horiz-adv-x="1585" 
d="M541 0h-351v1442h351v-248h350q284 0 439 -121.5t155 -345.5q0 -122 -47.5 -216t-133 -151.5t-198 -86.5t-248.5 -29h-317v-244zM541 924v-406h325q271 0 271 207q0 94 -69.5 146.5t-201.5 52.5h-325z" />
    <glyph glyph-name="germandbls" unicode="&#xdf;" horiz-adv-x="1536" 
d="M143 0v1036q0 253 153.5 378.5t473.5 125.5q112 0 205 -17t155.5 -44.5t110 -66t74 -77t43 -82t21.5 -76.5t5 -65q0 -51 -8 -82l-358 -158v-4l133 -75q166 -94 234.5 -191t68.5 -223q0 -186 -125 -297t-356 -111q-223 0 -359 82v287q67 -58 158.5 -91.5t171.5 -33.5
q89 0 131.5 36.5t42.5 92.5t-37.5 102t-122.5 93l-163 90q-97 55 -131 125.5t1.5 140t133.5 119.5l235 123q-2 66 -65 110.5t-203 44.5q-154 0 -219.5 -68.5t-65.5 -226.5v-997h-338z" />
    <glyph glyph-name="agrave" unicode="&#xe0;" horiz-adv-x="1327" 
d="M477 745h-334q3 44 16.5 86.5t50 90.5t91.5 83t149 58.5t214 23.5q96 0 173.5 -13t131 -34t94 -52.5t64 -64.5t38 -74.5t19 -77t4.5 -77.5v-397q0 -205 8 -297h-315q-6 19 -13 119q-94 -148 -379 -148q-104 0 -184.5 29.5t-127 80t-70 110.5t-23.5 126q0 100 42 171
t120 110.5t174 56.5t219 17h221v33q0 73 -42 114t-150 41q-98 0 -138.5 -30.5t-52.5 -84.5zM408 334q0 -56 45 -90.5t133 -34.5q136 0 205 60t69 175v17q-25 2 -215 2q-125 0 -181 -32t-56 -97zM571 1231l-385 317h383l293 -317h-291z" />
    <glyph glyph-name="aacute" unicode="&#xe1;" horiz-adv-x="1327" 
d="M477 745h-334q3 44 16.5 86.5t50 90.5t91.5 83t149 58.5t214 23.5q96 0 173.5 -13t131 -34t94 -52.5t64 -64.5t38 -74.5t19 -77t4.5 -77.5v-397q0 -205 8 -297h-315q-6 19 -13 119q-94 -148 -379 -148q-104 0 -184.5 29.5t-127 80t-70 110.5t-23.5 126q0 100 42 171
t120 110.5t174 56.5t219 17h221v33q0 73 -42 114t-150 41q-98 0 -138.5 -30.5t-52.5 -84.5zM408 334q0 -56 45 -90.5t133 -34.5q136 0 205 60t69 175v17q-25 2 -215 2q-125 0 -181 -32t-56 -97zM469 1231l283 317h383l-371 -317h-295z" />
    <glyph glyph-name="acircumflex" unicode="&#xe2;" horiz-adv-x="1327" 
d="M477 745h-334q3 44 16.5 86.5t50 90.5t91.5 83t149 58.5t214 23.5q96 0 173.5 -13t131 -34t94 -52.5t64 -64.5t38 -74.5t19 -77t4.5 -77.5v-397q0 -205 8 -297h-315q-6 19 -13 119q-94 -148 -379 -148q-104 0 -184.5 29.5t-127 80t-70 110.5t-23.5 126q0 100 42 171
t120 110.5t174 56.5t219 17h221v33q0 73 -42 114t-150 41q-98 0 -138.5 -30.5t-52.5 -84.5zM408 334q0 -56 45 -90.5t133 -34.5q136 0 205 60t69 175v17q-25 2 -215 2q-125 0 -181 -32t-56 -97zM233 1214l273 318h315l271 -318h-287l-146 166l-135 -166h-291z" />
    <glyph glyph-name="atilde" unicode="&#xe3;" horiz-adv-x="1327" 
d="M477 745h-334q3 44 16.5 86.5t50 90.5t91.5 83t149 58.5t214 23.5q96 0 173.5 -13t131 -34t94 -52.5t64 -64.5t38 -74.5t19 -77t4.5 -77.5v-397q0 -205 8 -297h-315q-6 19 -13 119q-94 -148 -379 -148q-104 0 -184.5 29.5t-127 80t-70 110.5t-23.5 126q0 100 42 171
t120 110.5t174 56.5t219 17h221v33q0 73 -42 114t-150 41q-98 0 -138.5 -30.5t-52.5 -84.5zM408 334q0 -56 45 -90.5t133 -34.5q136 0 205 60t69 175v17q-25 2 -215 2q-125 0 -181 -32t-56 -97zM473 1217h-197v73q0 136 54.5 189t154.5 53q57 0 116 -24t107 -48t78 -24
q64 0 64 82v20h190v-59q0 -79 -15 -133t-44 -82.5t-65 -40t-85 -11.5q-48 0 -95.5 15t-78.5 33.5t-66 33.5t-61 15q-57 0 -57 -60v-32z" />
    <glyph glyph-name="adieresis" unicode="&#xe4;" horiz-adv-x="1327" 
d="M571 1257h-288v269h288v-269zM1038 1257h-288v269h288v-269zM477 745h-334q3 44 16.5 86.5t50 90.5t91.5 83t149 58.5t214 23.5q96 0 173.5 -13t131 -34t94 -52.5t64 -64.5t38 -74.5t19 -77t4.5 -77.5v-397q0 -205 8 -297h-315q-6 19 -13 119q-94 -148 -379 -148
q-104 0 -184.5 29.5t-127 80t-70 110.5t-23.5 126q0 100 42 171t120 110.5t174 56.5t219 17h221v33q0 73 -42 114t-150 41q-98 0 -138.5 -30.5t-52.5 -84.5zM408 334q0 -56 45 -90.5t133 -34.5q136 0 205 60t69 175v17q-25 2 -215 2q-125 0 -181 -32t-56 -97z" />
    <glyph glyph-name="aring" unicode="&#xe5;" horiz-adv-x="1327" 
d="M477 745h-334q3 44 16.5 86.5t50 90.5t91.5 83t149 58.5t214 23.5q96 0 173.5 -13t131 -34t94 -52.5t64 -64.5t38 -74.5t19 -77t4.5 -77.5v-397q0 -205 8 -297h-315q-6 19 -13 119q-94 -148 -379 -148q-104 0 -184.5 29.5t-127 80t-70 110.5t-23.5 126q0 100 42 171
t120 110.5t174 56.5t219 17h221v33q0 73 -42 114t-150 41q-98 0 -138.5 -30.5t-52.5 -84.5zM408 334q0 -56 45 -90.5t133 -34.5q136 0 205 60t69 175v17q-25 2 -215 2q-125 0 -181 -32t-56 -97zM397 1407q0 99 70.5 164t196.5 65q124 0 193 -63t69 -164q0 -102 -70.5 -165.5
t-191.5 -63.5q-124 0 -195.5 63.5t-71.5 163.5zM559 1409q0 -40 24.5 -69t75.5 -29q53 0 80 27.5t27 68.5q0 42 -26 71t-78 29t-77.5 -28.5t-25.5 -69.5z" />
    <glyph glyph-name="ae" unicode="&#xe6;" horiz-adv-x="2088" 
d="M477 731h-336q4 54 22.5 102.5t58 96t96 81.5t144.5 55t197 21q296 0 400 -129q155 129 389 129q118 0 213.5 -29t161 -80t110 -121t64.5 -149.5t20 -168.5v-86h-833q6 -104 74.5 -168t197.5 -64q87 0 134.5 25.5t80.5 85.5h338q-21 -72 -65 -134.5t-112.5 -114.5
t-169.5 -82t-222 -30q-166 0 -279 53.5t-176 135.5q-159 -189 -450 -189q-115 0 -204 29t-141.5 79.5t-79 113t-26.5 133.5q0 74 31 132t82 94.5t122 61t145.5 34.5t158.5 11h237v43q0 158 -184 158q-176 0 -199 -129zM862 442v13h-205q-127 0 -188 -27t-61 -88
q0 -57 45 -90t133 -33q138 0 207 58.5t69 166.5zM1436 856q-115 0 -175 -54t-73 -145h489q-5 84 -63 141.5t-178 57.5z" />
    <glyph glyph-name="ccedilla" unicode="&#xe7;" horiz-adv-x="1294" 
d="M440 -492l2 160q68 -14 129 -14q117 0 117 57q0 38 -53.5 52.5t-163.5 17.5v69l104 125q-125 13 -221 62.5t-155 124.5t-89 168t-30 200q0 109 39 208.5t111 177.5t185.5 124.5t252.5 46.5q119 0 216.5 -30t156.5 -73.5t100.5 -99.5t58.5 -102t21 -86h-334
q-49 140 -217 140q-124 0 -187 -83t-63 -221q0 -89 24.5 -156t82 -110t143.5 -43q87 0 139.5 32.5t85.5 102.5h334q-30 -139 -135.5 -241t-284.5 -133l-68 -78q34 -6 64.5 -18t63.5 -33.5t53 -59.5t20 -86q0 -53 -21 -93.5t-53 -64t-76.5 -38.5t-85 -20t-85.5 -5
q-126 0 -181 20z" />
    <glyph glyph-name="egrave" unicode="&#xe8;" horiz-adv-x="1316" 
d="M897 324h336q-26 -75 -69 -135.5t-109 -111t-164 -78.5t-221 -28q-126 0 -227.5 32t-168 86t-111.5 126.5t-64 150.5t-19 162q0 113 38 213t110 177.5t185.5 123t254.5 45.5q120 0 218 -32t163.5 -85.5t110.5 -126.5t65 -151.5t20 -163.5q0 -46 -2 -79h-829
q6 -101 75 -165.5t185 -64.5q89 0 140.5 26t82.5 79zM666 852q-122 0 -181.5 -56t-66.5 -143h487q-2 27 -8.5 51.5t-23.5 52.5t-42 48t-68 33.5t-97 13.5zM561 1231l-385 317h383l293 -317h-291z" />
    <glyph glyph-name="eacute" unicode="&#xe9;" horiz-adv-x="1316" 
d="M897 324h336q-26 -75 -69 -135.5t-109 -111t-164 -78.5t-221 -28q-126 0 -227.5 32t-168 86t-111.5 126.5t-64 150.5t-19 162q0 113 38 213t110 177.5t185.5 123t254.5 45.5q120 0 218 -32t163.5 -85.5t110.5 -126.5t65 -151.5t20 -163.5q0 -46 -2 -79h-829
q6 -101 75 -165.5t185 -64.5q89 0 140.5 26t82.5 79zM666 852q-122 0 -181.5 -56t-66.5 -143h487q-2 27 -8.5 51.5t-23.5 52.5t-42 48t-68 33.5t-97 13.5zM463 1231l282 317h383l-370 -317h-295z" />
    <glyph glyph-name="ecircumflex" unicode="&#xea;" horiz-adv-x="1316" 
d="M897 324h336q-26 -75 -69 -135.5t-109 -111t-164 -78.5t-221 -28q-126 0 -227.5 32t-168 86t-111.5 126.5t-64 150.5t-19 162q0 113 38 213t110 177.5t185.5 123t254.5 45.5q120 0 218 -32t163.5 -85.5t110.5 -126.5t65 -151.5t20 -163.5q0 -46 -2 -79h-829
q6 -101 75 -165.5t185 -64.5q89 0 140.5 26t82.5 79zM666 852q-122 0 -181.5 -56t-66.5 -143h487q-2 27 -8.5 51.5t-23.5 52.5t-42 48t-68 33.5t-97 13.5zM227 1214l273 318h315l270 -318h-286l-146 166l-135 -166h-291z" />
    <glyph glyph-name="edieresis" unicode="&#xeb;" horiz-adv-x="1316" 
d="M567 1257h-288v269h288v-269zM1034 1257h-289v269h289v-269zM897 324h336q-26 -75 -69 -135.5t-109 -111t-164 -78.5t-221 -28q-126 0 -227.5 32t-168 86t-111.5 126.5t-64 150.5t-19 162q0 113 38 213t110 177.5t185.5 123t254.5 45.5q120 0 218 -32t163.5 -85.5
t110.5 -126.5t65 -151.5t20 -163.5q0 -46 -2 -79h-829q6 -101 75 -165.5t185 -64.5q89 0 140.5 26t82.5 79zM666 852q-122 0 -181.5 -56t-66.5 -143h487q-2 27 -8.5 51.5t-23.5 52.5t-42 48t-68 33.5t-97 13.5z" />
    <glyph glyph-name="igrave" unicode="&#xec;" horiz-adv-x="618" 
d="M477 0h-334v1059h334v-1059zM172 1231l-385 317h383l293 -317h-291z" />
    <glyph glyph-name="iacute" unicode="&#xed;" horiz-adv-x="618" 
d="M477 0h-334v1059h334v-1059zM150 1231l282 317h383l-371 -317h-294z" />
    <glyph glyph-name="icircumflex" unicode="&#xee;" horiz-adv-x="618" 
d="M477 0h-334v1059h334v-1059zM-123 1214l273 318h315l270 -318h-286l-146 166l-135 -166h-291z" />
    <glyph glyph-name="idieresis" unicode="&#xef;" horiz-adv-x="618" 
d="M217 1257h-289v269h289v-269zM684 1257h-289v269h289v-269zM477 0h-334v1059h334v-1059z" />
    <glyph glyph-name="eth" unicode="&#xf0;" horiz-adv-x="1341" 
d="M346 1012l-70 123l203 120q-113 42 -231 58v227q278 -3 510 -119l262 156l67 -125l-194 -115q163 -122 254.5 -303t91.5 -416q0 -318 -157.5 -483.5t-428.5 -165.5q-132 0 -240 44t-177 118t-106.5 169.5t-37.5 201.5q0 225 153 363.5t410 138.5q46 0 96.5 -8.5
t73.5 -22.5q-58 129 -192 209zM666 221q229 0 229 297q0 129 -54 183.5t-167 54.5q-118 0 -179 -71.5t-61 -192.5q0 -71 24 -131t78.5 -100t129.5 -40z" />
    <glyph glyph-name="ntilde" unicode="&#xf1;" horiz-adv-x="1382" 
d="M477 0h-336v791q0 192 -2 268h326q6 -44 10 -137q109 165 352 165q195 0 304.5 -115t109.5 -319v-653h-338v600q0 101 -45.5 164t-150.5 63q-230 0 -230 -299v-528zM506 1217h-197v73q0 136 54.5 189t154.5 53q57 0 116 -24t107 -48t78 -24q64 0 64 82v20h190v-59
q0 -79 -15 -133t-44 -82.5t-65 -40t-85 -11.5q-48 0 -95.5 15t-78.5 33.5t-66 33.5t-61 15q-57 0 -57 -60v-32z" />
    <glyph glyph-name="ograve" unicode="&#xf2;" horiz-adv-x="1374" 
d="M80 530q0 110 39.5 209t114 177.5t192 124.5t262.5 46q120 0 221.5 -33t171 -87.5t118.5 -127t72 -151t23 -158.5q0 -250 -164.5 -404.5t-453.5 -154.5q-144 0 -259 45.5t-187.5 123.5t-111 178t-38.5 212zM686 223q87 0 148 42t88.5 108.5t27.5 150.5q0 131 -67.5 220.5
t-198.5 89.5q-129 0 -196.5 -86.5t-67.5 -217.5t70.5 -219t195.5 -88zM588 1221l-385 317h383l293 -317h-291z" />
    <glyph glyph-name="oacute" unicode="&#xf3;" horiz-adv-x="1374" 
d="M80 530q0 110 39.5 209t114 177.5t192 124.5t262.5 46q120 0 221.5 -33t171 -87.5t118.5 -127t72 -151t23 -158.5q0 -250 -164.5 -404.5t-453.5 -154.5q-144 0 -259 45.5t-187.5 123.5t-111 178t-38.5 212zM686 223q87 0 148 42t88.5 108.5t27.5 150.5q0 131 -67.5 220.5
t-198.5 89.5q-129 0 -196.5 -86.5t-67.5 -217.5t70.5 -219t195.5 -88zM500 1223l282 317h383l-370 -317h-295z" />
    <glyph glyph-name="ocircumflex" unicode="&#xf4;" horiz-adv-x="1374" 
d="M80 530q0 110 39.5 209t114 177.5t192 124.5t262.5 46q120 0 221.5 -33t171 -87.5t118.5 -127t72 -151t23 -158.5q0 -250 -164.5 -404.5t-453.5 -154.5q-144 0 -259 45.5t-187.5 123.5t-111 178t-38.5 212zM686 223q87 0 148 42t88.5 108.5t27.5 150.5q0 131 -67.5 220.5
t-198.5 89.5q-129 0 -196.5 -86.5t-67.5 -217.5t70.5 -219t195.5 -88zM256 1214l272 318h316l270 -318h-287l-145 166l-135 -166h-291z" />
    <glyph glyph-name="otilde" unicode="&#xf5;" horiz-adv-x="1374" 
d="M80 530q0 110 39.5 209t114 177.5t192 124.5t262.5 46q120 0 221.5 -33t171 -87.5t118.5 -127t72 -151t23 -158.5q0 -250 -164.5 -404.5t-453.5 -154.5q-144 0 -259 45.5t-187.5 123.5t-111 178t-38.5 212zM686 223q87 0 148 42t88.5 108.5t27.5 150.5q0 131 -67.5 220.5
t-198.5 89.5q-129 0 -196.5 -86.5t-67.5 -217.5t70.5 -219t195.5 -88zM500 1217h-197v73q0 136 54.5 189t154.5 53q57 0 116 -24t107 -48t78 -24q64 0 64 82v20h190v-59q0 -79 -15 -133t-44 -82.5t-65 -40t-85 -11.5q-48 0 -95.5 15t-78.5 33.5t-66 33.5t-61 15
q-57 0 -57 -60v-32z" />
    <glyph glyph-name="odieresis" unicode="&#xf6;" horiz-adv-x="1374" 
d="M596 1257h-289v269h289v-269zM1063 1257h-289v269h289v-269zM80 530q0 110 39.5 209t114 177.5t192 124.5t262.5 46q120 0 221.5 -33t171 -87.5t118.5 -127t72 -151t23 -158.5q0 -250 -164.5 -404.5t-453.5 -154.5q-144 0 -259 45.5t-187.5 123.5t-111 178t-38.5 212z
M686 223q87 0 148 42t88.5 108.5t27.5 150.5q0 131 -67.5 220.5t-198.5 89.5q-129 0 -196.5 -86.5t-67.5 -217.5t70.5 -219t195.5 -88z" />
    <glyph glyph-name="divide" unicode="&#xf7;" horiz-adv-x="1683" 
d="M987 12h-282v307h282v-307zM985 989h-283v307h283v-307zM1487 524h-1282v269h1282v-269z" />
    <glyph glyph-name="oslash" unicode="&#xf8;" horiz-adv-x="1374" 
d="M139 -23l117 146q-86 78 -131 183t-45 220q0 119 43 221.5t121.5 178t195 118.5t256.5 43q162 0 285 -57l41 51h174l-98 -123q96 -80 146 -192.5t50 -235.5q0 -256 -168 -407.5t-450 -151.5q-173 0 -307 72l-54 -66h-176zM913 725l-374 -469q61 -39 147 -39
q134 0 203 85.5t69 221.5q0 124 -45 201zM446 362l365 457q-55 25 -127 25q-134 0 -203 -87t-69 -227q0 -99 34 -168z" />
    <glyph glyph-name="ugrave" unicode="&#xf9;" horiz-adv-x="1361" 
d="M139 412v647h334v-592q0 -236 191 -236q121 0 172 78t51 260v490h334v-752q0 -205 2 -307h-328q-1 6 -6 123q-30 -47 -66.5 -77t-110.5 -52.5t-180 -22.5q-177 0 -285 109.5t-108 331.5zM584 1231l-385 317h383l292 -317h-290z" />
    <glyph glyph-name="uacute" unicode="&#xfa;" horiz-adv-x="1361" 
d="M139 412v647h334v-592q0 -236 191 -236q121 0 172 78t51 260v490h334v-752q0 -205 2 -307h-328q-1 6 -6 123q-30 -47 -66.5 -77t-110.5 -52.5t-180 -22.5q-177 0 -285 109.5t-108 331.5zM485 1231l283 317h383l-371 -317h-295z" />
    <glyph glyph-name="ucircumflex" unicode="&#xfb;" horiz-adv-x="1361" 
d="M139 412v647h334v-592q0 -236 191 -236q121 0 172 78t51 260v490h334v-752q0 -205 2 -307h-328q-1 6 -6 123q-30 -47 -66.5 -77t-110.5 -52.5t-180 -22.5q-177 0 -285 109.5t-108 331.5zM250 1214l272 318h316l270 -318h-287l-145 166l-135 -166h-291z" />
    <glyph glyph-name="udieresis" unicode="&#xfc;" horiz-adv-x="1361" 
d="M590 1257h-289v269h289v-269zM1057 1257h-289v269h289v-269zM139 412v647h334v-592q0 -236 191 -236q121 0 172 78t51 260v490h334v-752q0 -205 2 -307h-328q-1 6 -6 123q-30 -47 -66.5 -77t-110.5 -52.5t-180 -22.5q-177 0 -285 109.5t-108 331.5z" />
    <glyph glyph-name="yacute" unicode="&#xfd;" horiz-adv-x="1273" 
d="M141 -463v270q73 -6 107 -6q54 0 89.5 8t61.5 30.5t42 47t40 72.5l-471 1100h367q214 -539 280 -791h7q94 335 254 791h342l-355 -907q-108 -280 -155 -370q-74 -143 -167 -198q-98 -59 -278 -59q-105 0 -164 12zM442 1231l283 317h383l-371 -317h-295z" />
    <glyph glyph-name="thorn" unicode="&#xfe;" horiz-adv-x="1423" 
d="M477 -446h-334v1972h334v-602q53 73 138 118t233 45q97 0 186.5 -38.5t158 -106.5t109.5 -170t41 -221q0 -136 -46 -248t-121.5 -183.5t-170 -110t-194.5 -38.5q-114 0 -202 37.5t-132 91.5v-546zM729 236q131 0 200.5 79t69.5 222q0 130 -69 210t-203 80
q-123 0 -190.5 -82t-67.5 -217q0 -127 66 -209.5t194 -82.5z" />
    <glyph glyph-name="ydieresis" unicode="&#xff;" horiz-adv-x="1273" 
d="M547 1257h-289v269h289v-269zM1014 1257h-289v269h289v-269zM141 -463v270q73 -6 107 -6q54 0 89.5 8t61.5 30.5t42 47t40 72.5l-471 1100h367q214 -539 280 -791h7q94 335 254 791h342l-355 -907q-108 -280 -155 -370q-74 -143 -167 -198q-98 -59 -278 -59
q-105 0 -164 12z" />
    <glyph glyph-name="Amacron" unicode="&#x100;" horiz-adv-x="1636" 
d="M-2 0l580 1442h450l610 -1442h-378l-136 328h-641l-125 -328h-360zM793 1217h-2q-52 -179 -218 -609h455q-183 448 -235 609zM459 1616v215h710v-215h-710z" />
    <glyph glyph-name="amacron" unicode="&#x101;" horiz-adv-x="1327" 
d="M477 745h-334q3 44 16.5 86.5t50 90.5t91.5 83t149 58.5t214 23.5q96 0 173.5 -13t131 -34t94 -52.5t64 -64.5t38 -74.5t19 -77t4.5 -77.5v-397q0 -205 8 -297h-315q-6 19 -13 119q-94 -148 -379 -148q-104 0 -184.5 29.5t-127 80t-70 110.5t-23.5 126q0 100 42 171
t120 110.5t174 56.5t219 17h221v33q0 73 -42 114t-150 41q-98 0 -138.5 -30.5t-52.5 -84.5zM408 334q0 -56 45 -90.5t133 -34.5q136 0 205 60t69 175v17q-25 2 -215 2q-125 0 -181 -32t-56 -97zM326 1268v217h669v-217h-669z" />
    <glyph glyph-name="Abreve" unicode="&#x102;" horiz-adv-x="1636" 
d="M-2 0l580 1442h450l610 -1442h-378l-136 328h-641l-125 -328h-360zM793 1217h-2q-52 -179 -218 -609h455q-183 448 -235 609zM989 1876h221q-10 -61 -36.5 -114t-72.5 -99t-121 -73t-171 -27q-79 0 -145 20t-109 51.5t-74 74t-46 84t-19 83.5h223q15 -51 61 -80t113 -29
q54 0 91.5 16.5t54.5 38t30 54.5z" />
    <glyph glyph-name="abreve" unicode="&#x103;" horiz-adv-x="1327" 
d="M477 745h-334q3 44 16.5 86.5t50 90.5t91.5 83t149 58.5t214 23.5q96 0 173.5 -13t131 -34t94 -52.5t64 -64.5t38 -74.5t19 -77t4.5 -77.5v-397q0 -205 8 -297h-315q-6 19 -13 119q-94 -148 -379 -148q-104 0 -184.5 29.5t-127 80t-70 110.5t-23.5 126q0 100 42 171
t120 110.5t174 56.5t219 17h221v33q0 73 -42 114t-150 41q-98 0 -138.5 -30.5t-52.5 -84.5zM408 334q0 -56 45 -90.5t133 -34.5q136 0 205 60t69 175v17q-25 2 -215 2q-125 0 -181 -32t-56 -97zM817 1548h221q-10 -70 -36 -128.5t-70.5 -106.5t-114.5 -75.5t-160 -27.5
q-93 0 -165 28.5t-115 77.5t-66 107t-28 125h223q32 -129 156 -129q75 0 106.5 33t48.5 96z" />
    <glyph glyph-name="Aogonek" unicode="&#x104;" horiz-adv-x="1636" 
d="M-2 0l580 1442h450l610 -1442h-61q-107 -78 -107 -168q0 -94 107 -94q46 0 109 16v-209q-73 -41 -205 -41q-133 0 -208 65.5t-75 186.5q0 64 31 128.5t84 115.5h-53l-136 328h-641l-125 -328h-360zM793 1217h-2q-52 -179 -218 -609h455q-183 448 -235 609z" />
    <glyph glyph-name="aogonek" unicode="&#x105;" horiz-adv-x="1327" 
d="M909 0h-28q-6 19 -13 119q-94 -148 -379 -148q-104 0 -184.5 29.5t-127 80t-70 110.5t-23.5 126q0 100 42 171t120 110.5t174 56.5t219 17h221v33q0 73 -42 114t-150 41q-98 0 -138.5 -30.5t-52.5 -84.5h-334q3 44 16.5 86.5t50 90.5t91.5 83t149 58.5t214 23.5
q96 0 173.5 -13t131 -34t94 -52.5t64 -64.5t38 -74.5t19 -77t4.5 -77.5v-397q0 -205 8 -297h-22q-107 -78 -107 -168q0 -94 107 -94q45 0 108 16v-209q-73 -41 -205 -41q-133 0 -207.5 65.5t-74.5 186.5q0 64 31 128.5t83 115.5zM408 334q0 -56 45 -90.5t133 -34.5
q136 0 205 60t69 175v17q-25 2 -215 2q-125 0 -181 -32t-56 -97z" />
    <glyph glyph-name="Cacute" unicode="&#x106;" horiz-adv-x="1669" 
d="M1587 987h-354q-81 215 -354 215q-195 0 -302.5 -132t-107.5 -337q0 -81 15 -153.5t48 -135t80.5 -107.5t116.5 -71t152 -26q147 0 227 54t125 165h350q-21 -80 -56.5 -149t-95 -133t-137.5 -109t-188 -72t-242 -27q-151 0 -277.5 40.5t-215 110.5t-150.5 165.5
t-91.5 205t-29.5 228.5t32 230t97.5 206t157.5 166t219.5 111.5t276.5 40.5q128 0 238 -27.5t188.5 -74t138 -109.5t93 -132t46.5 -143zM670 1581l342 285h426l-449 -285h-319z" />
    <glyph glyph-name="cacute" unicode="&#x107;" horiz-adv-x="1294" 
d="M1221 696h-334q-49 140 -217 140q-124 0 -187 -83t-63 -221q0 -89 24.5 -156t82 -110t143.5 -43q87 0 139.5 32.5t85.5 102.5h334q-17 -78 -58 -145.5t-108 -123t-168.5 -87t-226.5 -31.5q-148 0 -263 44.5t-184.5 122t-105 177t-35.5 215.5q0 109 39 208.5t111 177.5
t185.5 124.5t252.5 46.5q119 0 216.5 -30t156.5 -73.5t100.5 -99.5t58.5 -102t21 -86zM479 1231l283 317h383l-371 -317h-295z" />
    <glyph glyph-name="Ccircumflex" unicode="&#x108;" horiz-adv-x="1669" 
d="M1587 987h-354q-81 215 -354 215q-195 0 -302.5 -132t-107.5 -337q0 -81 15 -153.5t48 -135t80.5 -107.5t116.5 -71t152 -26q147 0 227 54t125 165h350q-21 -80 -56.5 -149t-95 -133t-137.5 -109t-188 -72t-242 -27q-151 0 -277.5 40.5t-215 110.5t-150.5 165.5
t-91.5 205t-29.5 228.5t32 230t97.5 206t157.5 166t219.5 111.5t276.5 40.5q128 0 238 -27.5t188.5 -74t138 -109.5t93 -132t46.5 -143zM408 1565l272 282h354l271 -282h-301l-150 145l-143 -145h-303z" />
    <glyph glyph-name="ccircumflex" unicode="&#x109;" horiz-adv-x="1294" 
d="M1221 696h-334q-49 140 -217 140q-124 0 -187 -83t-63 -221q0 -89 24.5 -156t82 -110t143.5 -43q87 0 139.5 32.5t85.5 102.5h334q-17 -78 -58 -145.5t-108 -123t-168.5 -87t-226.5 -31.5q-148 0 -263 44.5t-184.5 122t-105 177t-35.5 215.5q0 109 39 208.5t111 177.5
t185.5 124.5t252.5 46.5q119 0 216.5 -30t156.5 -73.5t100.5 -99.5t58.5 -102t21 -86zM233 1214l273 318h315l271 -318h-287l-146 166l-135 -166h-291z" />
    <glyph glyph-name="Cdotaccent" unicode="&#x10a;" horiz-adv-x="1669" 
d="M1587 987h-354q-81 215 -354 215q-195 0 -302.5 -132t-107.5 -337q0 -81 15 -153.5t48 -135t80.5 -107.5t116.5 -71t152 -26q147 0 227 54t125 165h350q-21 -80 -56.5 -149t-95 -133t-137.5 -109t-188 -72t-242 -27q-151 0 -277.5 40.5t-215 110.5t-150.5 165.5
t-91.5 205t-29.5 228.5t32 230t97.5 206t157.5 166t219.5 111.5t276.5 40.5q128 0 238 -27.5t188.5 -74t138 -109.5t93 -132t46.5 -143zM1026 1595h-334v269h334v-269z" />
    <glyph glyph-name="cdotaccent" unicode="&#x10b;" horiz-adv-x="1294" 
d="M1221 696h-334q-49 140 -217 140q-124 0 -187 -83t-63 -221q0 -89 24.5 -156t82 -110t143.5 -43q87 0 139.5 32.5t85.5 102.5h334q-17 -78 -58 -145.5t-108 -123t-168.5 -87t-226.5 -31.5q-148 0 -263 44.5t-184.5 122t-105 177t-35.5 215.5q0 109 39 208.5t111 177.5
t185.5 124.5t252.5 46.5q119 0 216.5 -30t156.5 -73.5t100.5 -99.5t58.5 -102t21 -86zM817 1257h-334v269h334v-269z" />
    <glyph glyph-name="Ccaron" unicode="&#x10c;" horiz-adv-x="1669" 
d="M1587 987h-354q-81 215 -354 215q-195 0 -302.5 -132t-107.5 -337q0 -81 15 -153.5t48 -135t80.5 -107.5t116.5 -71t152 -26q147 0 227 54t125 165h350q-21 -80 -56.5 -149t-95 -133t-137.5 -109t-188 -72t-242 -27q-151 0 -277.5 40.5t-215 110.5t-150.5 165.5
t-91.5 205t-29.5 228.5t32 230t97.5 206t157.5 166t219.5 111.5t276.5 40.5q128 0 238 -27.5t188.5 -74t138 -109.5t93 -132t46.5 -143zM1032 1565h-354l-270 282h301l149 -147l146 147h301z" />
    <glyph glyph-name="ccaron" unicode="&#x10d;" horiz-adv-x="1294" 
d="M1221 696h-334q-49 140 -217 140q-124 0 -187 -83t-63 -221q0 -89 24.5 -156t82 -110t143.5 -43q87 0 139.5 32.5t85.5 102.5h334q-17 -78 -58 -145.5t-108 -123t-168.5 -87t-226.5 -31.5q-148 0 -263 44.5t-184.5 122t-105 177t-35.5 215.5q0 109 39 208.5t111 177.5
t185.5 124.5t252.5 46.5q119 0 216.5 -30t156.5 -73.5t100.5 -99.5t58.5 -102t21 -86zM819 1210h-315l-271 320h287l146 -166l135 166h291z" />
    <glyph glyph-name="Dcaron" unicode="&#x10e;" horiz-adv-x="1691" 
d="M834 0h-646v1442h652q177 0 321 -55t237 -150.5t143 -221.5t50 -270q0 -169 -59.5 -310.5t-161.5 -236t-240.5 -146.5t-295.5 -52zM539 1174v-904h247q213 0 324 118.5t111 348.5q0 204 -108 319t-322 118h-252zM954 1563h-354l-270 282h301l149 -147l146 147h301z" />
    <glyph glyph-name="dcaron" unicode="&#x10f;" horiz-adv-x="1609" 
d="M1284 0h-330q-3 25 -8 123q-35 -48 -69.5 -77.5t-107 -52t-175.5 -22.5q-224 0 -369 152t-145 397q0 129 48 238t126.5 179.5t175 110t195.5 39.5q137 0 213 -33.5t108 -76.5v549h336v-1229q0 -199 2 -297zM692 233q127 0 194.5 78t67.5 217q0 299 -262 299
q-128 0 -198 -87t-70 -212q0 -130 71 -212.5t197 -82.5zM1645 926h-236l-16 600h266z" />
    <glyph glyph-name="Dcroat" unicode="&#x110;" horiz-adv-x="1714" 
d="M211 0v623h-156v239h156v580h651q142 0 264 -36t211 -100t152 -151t94 -191t31 -219q0 -169 -59.5 -310.5t-162 -236t-241 -146.5t-295.5 -52h-645zM561 270h248q213 0 323.5 118.5t110.5 348.5q0 204 -108 319t-322 118h-252v-312h326v-239h-326v-353z" />
    <glyph glyph-name="dcroat" unicode="&#x111;" horiz-adv-x="1423" 
d="M1284 0h-330q-3 25 -8 123q-47 -71 -126.5 -111.5t-229.5 -40.5q-220 0 -365 151.5t-145 381.5q0 105 31.5 196t85 156.5t123.5 113t148 70.5t157 23q231 0 321 -109v252h-459v193h459v127h336v-127h125v-193h-125v-909q0 -199 2 -297zM692 233q128 0 195 78t67 201
q0 134 -63 212.5t-193 78.5q-134 0 -204 -81.5t-70 -209.5q0 -121 71.5 -200t196.5 -79z" />
    <glyph glyph-name="Emacron" unicode="&#x112;" horiz-adv-x="1503" 
d="M188 0v1442h1198v-281h-847v-272h804v-281h-804v-327h895l-41 -281h-1205zM442 1620v215h711v-215h-711z" />
    <glyph glyph-name="emacron" unicode="&#x113;" horiz-adv-x="1316" 
d="M897 324h336q-26 -75 -69 -135.5t-109 -111t-164 -78.5t-221 -28q-126 0 -227.5 32t-168 86t-111.5 126.5t-64 150.5t-19 162q0 113 38 213t110 177.5t185.5 123t254.5 45.5q120 0 218 -32t163.5 -85.5t110.5 -126.5t65 -151.5t20 -163.5q0 -46 -2 -79h-829
q6 -101 75 -165.5t185 -64.5q89 0 140.5 26t82.5 79zM666 852q-122 0 -181.5 -56t-66.5 -143h487q-2 27 -8.5 51.5t-23.5 52.5t-42 48t-68 33.5t-97 13.5zM322 1268v217h669v-217h-669z" />
    <glyph glyph-name="Ebreve" unicode="&#x114;" horiz-adv-x="1503" 
d="M188 0v1442h1198v-281h-847v-272h804v-281h-804v-327h895l-41 -281h-1205zM969 1878h221q-10 -61 -37 -114t-73 -99t-121 -73t-171 -27q-79 0 -145 20t-109 51.5t-74 74t-46 84t-19 83.5h223q15 -51 61.5 -80t113.5 -29q54 0 91.5 16.5t54.5 38t30 54.5z" />
    <glyph glyph-name="ebreve" unicode="&#x115;" horiz-adv-x="1316" 
d="M897 324h336q-26 -75 -69 -135.5t-109 -111t-164 -78.5t-221 -28q-126 0 -227.5 32t-168 86t-111.5 126.5t-64 150.5t-19 162q0 113 38 213t110 177.5t185.5 123t254.5 45.5q120 0 218 -32t163.5 -85.5t110.5 -126.5t65 -151.5t20 -163.5q0 -46 -2 -79h-829
q6 -101 75 -165.5t185 -64.5q89 0 140.5 26t82.5 79zM666 852q-122 0 -181.5 -56t-66.5 -143h487q-2 27 -8.5 51.5t-23.5 52.5t-42 48t-68 33.5t-97 13.5zM813 1548h221q-10 -70 -36 -128.5t-70.5 -106.5t-114.5 -75.5t-160 -27.5q-93 0 -165 28.5t-115 77.5t-66 107
t-28 125h223q32 -129 155 -129q40 0 68 10t45 30t26 39.5t17 49.5z" />
    <glyph glyph-name="Edotaccent" unicode="&#x116;" horiz-adv-x="1503" 
d="M188 0v1442h1198v-281h-847v-272h804v-281h-804v-327h895l-41 -281h-1205zM975 1595h-334v269h334v-269z" />
    <glyph glyph-name="edotaccent" unicode="&#x117;" horiz-adv-x="1316" 
d="M897 324h336q-26 -75 -69 -135.5t-109 -111t-164 -78.5t-221 -28q-126 0 -227.5 32t-168 86t-111.5 126.5t-64 150.5t-19 162q0 113 38 213t110 177.5t185.5 123t254.5 45.5q120 0 218 -32t163.5 -85.5t110.5 -126.5t65 -151.5t20 -163.5q0 -46 -2 -79h-829
q6 -101 75 -165.5t185 -64.5q89 0 140.5 26t82.5 79zM666 852q-122 0 -181.5 -56t-66.5 -143h487q-2 27 -8.5 51.5t-23.5 52.5t-42 48t-68 33.5t-97 13.5zM821 1257h-334v269h334v-269z" />
    <glyph glyph-name="Eogonek" unicode="&#x118;" horiz-adv-x="1503" 
d="M188 0v1442h1198v-281h-847v-272h804v-281h-804v-327h895l-41 -281h-97q-51 -37 -78.5 -81.5t-27.5 -86.5q0 -94 106 -94q46 0 109 16v-209q-73 -41 -205 -41q-133 0 -207.5 65.5t-74.5 186.5q0 64 31 128.5t83 115.5h-844z" />
    <glyph glyph-name="eogonek" unicode="&#x119;" horiz-adv-x="1316" 
d="M999 -227v-209q-73 -41 -204 -41q-133 0 -208 65.5t-75 186.5q0 100 76 200q-108 10 -195.5 46.5t-145 90t-96 123t-55 142.5t-16.5 151q0 113 38 213t110 177.5t185.5 123t254.5 45.5q120 0 218 -32t163.5 -85.5t110.5 -126.5t65 -151.5t20 -163.5q0 -46 -2 -79h-829
q6 -101 75 -165.5t185 -64.5q89 0 140.5 26t82.5 79h336q-91 -267 -375 -332q-74 -68 -74 -142q0 -94 107 -94q41 0 108 17zM666 852q-122 0 -181.5 -56t-66.5 -143h487q-2 27 -8.5 51.5t-23.5 52.5t-42 48t-68 33.5t-97 13.5z" />
    <glyph glyph-name="Ecaron" unicode="&#x11a;" horiz-adv-x="1503" 
d="M188 0v1442h1198v-281h-847v-272h804v-281h-804v-327h895l-41 -281h-1205zM969 1563h-355l-270 282h301l150 -147l145 147h301z" />
    <glyph glyph-name="ecaron" unicode="&#x11b;" horiz-adv-x="1316" 
d="M897 324h336q-26 -75 -69 -135.5t-109 -111t-164 -78.5t-221 -28q-126 0 -227.5 32t-168 86t-111.5 126.5t-64 150.5t-19 162q0 113 38 213t110 177.5t185.5 123t254.5 45.5q120 0 218 -32t163.5 -85.5t110.5 -126.5t65 -151.5t20 -163.5q0 -46 -2 -79h-829
q6 -101 75 -165.5t185 -64.5q89 0 140.5 26t82.5 79zM666 852q-122 0 -181.5 -56t-66.5 -143h487q-2 27 -8.5 51.5t-23.5 52.5t-42 48t-68 33.5t-97 13.5zM813 1210h-315l-271 320h287l145 -166l136 166h290z" />
    <glyph glyph-name="Gcircumflex" unicode="&#x11c;" horiz-adv-x="1736" 
d="M901 557v270h690v-827h-254q-12 48 -24 147q-73 -89 -184 -133.5t-302 -44.5q-171 0 -310 57t-229.5 157t-139 235.5t-48.5 294.5q0 127 32.5 241t98.5 209t159.5 164t222 107.5t280.5 38.5q134 0 246.5 -28t189 -73.5t134 -107t88 -124t42.5 -128.5h-352
q-10 26 -24.5 49.5t-43 51.5t-64.5 48t-92 33.5t-124 13.5q-108 0 -191 -37t-133 -102.5t-75 -151t-25 -188.5q0 -145 44.5 -254t142.5 -174t241 -65q176 0 265 81.5t89 217.5v22h-350zM416 1565l272 282h354l271 -282h-301l-150 145l-143 -145h-303z" />
    <glyph glyph-name="gcircumflex" unicode="&#x11d;" horiz-adv-x="1415" 
d="M88 -98h338q14 -38 38.5 -64.5t78.5 -45.5t135 -19q63 0 110.5 16.5t77 44t47.5 69t24.5 86.5t6.5 103v45q-52 -73 -130.5 -111t-221.5 -38q-150 0 -268 72t-181 192t-63 264q0 121 41.5 227.5t113.5 181.5t171.5 118.5t211.5 43.5q78 0 139 -14t97.5 -38t57 -46.5
t32.5 -48.5q1 11 3 57t3 62h326q-2 -104 -2 -311v-629q0 -296 -144 -445t-471 -149q-97 0 -178.5 15t-137.5 39t-100.5 58t-70.5 67t-45 72.5t-26.5 67.5t-12.5 58zM684 244q129 0 197.5 75t68.5 220q0 132 -66.5 210t-189.5 78q-128 0 -200 -84t-72 -215q0 -122 69 -203
t193 -81zM279 1214l272 318h315l271 -318h-287l-145 166l-136 -166h-290z" />
    <glyph glyph-name="Gbreve" unicode="&#x11e;" horiz-adv-x="1736" 
d="M901 557v270h690v-827h-254q-12 48 -24 147q-73 -89 -184 -133.5t-302 -44.5q-171 0 -310 57t-229.5 157t-139 235.5t-48.5 294.5q0 127 32.5 241t98.5 209t159.5 164t222 107.5t280.5 38.5q134 0 246.5 -28t189 -73.5t134 -107t88 -124t42.5 -128.5h-352
q-10 26 -24.5 49.5t-43 51.5t-64.5 48t-92 33.5t-124 13.5q-108 0 -191 -37t-133 -102.5t-75 -151t-25 -188.5q0 -145 44.5 -254t142.5 -174t241 -65q176 0 265 81.5t89 217.5v22h-350zM1042 1880h222q-10 -61 -37 -114t-73 -99t-121 -73t-171 -27q-79 0 -145 20t-109 51.5
t-74 74t-46 84t-19 83.5h223q15 -51 61 -79.5t113 -28.5q79 0 117 28.5t59 79.5z" />
    <glyph glyph-name="gbreve" unicode="&#x11f;" horiz-adv-x="1415" 
d="M88 -98h338q14 -38 38.5 -64.5t78.5 -45.5t135 -19q63 0 110.5 16.5t77 44t47.5 69t24.5 86.5t6.5 103v45q-52 -73 -130.5 -111t-221.5 -38q-150 0 -268 72t-181 192t-63 264q0 121 41.5 227.5t113.5 181.5t171.5 118.5t211.5 43.5q78 0 139 -14t97.5 -38t57 -46.5
t32.5 -48.5q1 11 3 57t3 62h326q-2 -104 -2 -311v-629q0 -296 -144 -445t-471 -149q-97 0 -178.5 15t-137.5 39t-100.5 58t-70.5 67t-45 72.5t-26.5 67.5t-12.5 58zM684 244q129 0 197.5 75t68.5 220q0 132 -66.5 210t-189.5 78q-128 0 -200 -84t-72 -215q0 -122 69 -203
t193 -81zM864 1548h221q-10 -70 -36 -128.5t-70 -107t-114 -75.5t-160 -27q-93 0 -165 28.5t-115.5 77.5t-66.5 107t-28 125h223q32 -129 156 -129q75 0 106.5 33t48.5 96z" />
    <glyph glyph-name="Gdotaccent" unicode="&#x120;" horiz-adv-x="1736" 
d="M901 557v270h690v-827h-254q-12 48 -24 147q-73 -89 -184 -133.5t-302 -44.5q-171 0 -310 57t-229.5 157t-139 235.5t-48.5 294.5q0 127 32.5 241t98.5 209t159.5 164t222 107.5t280.5 38.5q134 0 246.5 -28t189 -73.5t134 -107t88 -124t42.5 -128.5h-352
q-10 26 -24.5 49.5t-43 51.5t-64.5 48t-92 33.5t-124 13.5q-108 0 -191 -37t-133 -102.5t-75 -151t-25 -188.5q0 -145 44.5 -254t142.5 -174t241 -65q176 0 265 81.5t89 217.5v22h-350zM1034 1595h-334v269h334v-269z" />
    <glyph glyph-name="gdotaccent" unicode="&#x121;" horiz-adv-x="1415" 
d="M88 -98h338q14 -38 38.5 -64.5t78.5 -45.5t135 -19q63 0 110.5 16.5t77 44t47.5 69t24.5 86.5t6.5 103v45q-52 -73 -130.5 -111t-221.5 -38q-150 0 -268 72t-181 192t-63 264q0 121 41.5 227.5t113.5 181.5t171.5 118.5t211.5 43.5q78 0 139 -14t97.5 -38t57 -46.5
t32.5 -48.5q1 11 3 57t3 62h326q-2 -104 -2 -311v-629q0 -296 -144 -445t-471 -149q-97 0 -178.5 15t-137.5 39t-100.5 58t-70.5 67t-45 72.5t-26.5 67.5t-12.5 58zM684 244q129 0 197.5 75t68.5 220q0 132 -66.5 210t-189.5 78q-128 0 -200 -84t-72 -215q0 -122 69 -203
t193 -81zM872 1257h-333v269h333v-269z" />
    <glyph glyph-name="uni0122" unicode="&#x122;" horiz-adv-x="1736" 
d="M901 557v270h690v-827h-254q-12 48 -24 147q-73 -89 -184 -133.5t-302 -44.5q-171 0 -310 57t-229.5 157t-139 235.5t-48.5 294.5q0 127 32.5 241t98.5 209t159.5 164t222 107.5t280.5 38.5q134 0 246.5 -28t189 -73.5t134 -107t88 -124t42.5 -128.5h-352
q-10 26 -24.5 49.5t-43 51.5t-64.5 48t-92 33.5t-124 13.5q-108 0 -191 -37t-133 -102.5t-75 -151t-25 -188.5q0 -145 44.5 -254t142.5 -174t241 -65q176 0 265 81.5t89 217.5v22h-350zM784 -145h271q0 -101 -30 -210.5t-91 -183.5h-258q108 201 108 394z" />
    <glyph glyph-name="uni0123" unicode="&#x123;" horiz-adv-x="1415" 
d="M842 1214h-299q23 128 87 254t130 195h260q-138 -206 -178 -449zM88 -98h338q14 -38 38.5 -64.5t78.5 -45.5t135 -19q63 0 110.5 16.5t77 44t47.5 69t24.5 86.5t6.5 103v45q-52 -73 -130.5 -111t-221.5 -38q-150 0 -268 72t-181 192t-63 264q0 121 41.5 227.5
t113.5 181.5t171.5 118.5t211.5 43.5q78 0 139 -14t97.5 -38t57 -46.5t32.5 -48.5q1 11 3 57t3 62h326q-2 -104 -2 -311v-629q0 -296 -144 -445t-471 -149q-97 0 -178.5 15t-137.5 39t-100.5 58t-70.5 67t-45 72.5t-26.5 67.5t-12.5 58zM684 244q129 0 197.5 75t68.5 220
q0 132 -66.5 210t-189.5 78q-128 0 -200 -84t-72 -215q0 -122 69 -203t193 -81z" />
    <glyph glyph-name="Hcircumflex" unicode="&#x124;" horiz-adv-x="1740" 
d="M539 0h-351v1442h351v-541h663v541h350v-1442h-350v621h-663v-621zM420 1565l272 282h355l270 -282h-301l-150 145l-143 -145h-303z" />
    <glyph glyph-name="hcircumflex" unicode="&#x125;" horiz-adv-x="1380" 
d="M-127 1624l233 242h404l229 -242h-321l-111 115l-108 -115h-326zM141 0v1526h332v-600q112 161 350 161q200 0 308 -114t108 -338v-635h-338v598q0 112 -40.5 170.5t-147.5 58.5q-117 0 -177.5 -82.5t-60.5 -236.5v-508h-334z" />
    <glyph glyph-name="Hbar" unicode="&#x126;" horiz-adv-x="1740" 
d="M188 0v1053h-149v213h149v176h351v-176h663v176h350v-176h150v-213h-150v-1053h-350v610h-663v-610h-351zM539 1053v-164h663v164h-663z" />
    <glyph glyph-name="hbar" unicode="&#x127;" horiz-adv-x="1380" 
d="M141 0v1206h-149v193h149v127h332v-127h440v-193h-440v-305q113 162 350 162q199 0 307.5 -114t108.5 -339v-610h-338v573q0 113 -40.5 171.5t-147.5 58.5q-117 0 -177.5 -82.5t-60.5 -235.5v-485h-334z" />
    <glyph glyph-name="Itilde" unicode="&#x128;" horiz-adv-x="724" 
d="M188 0v1442h351v-1442h-351zM168 1581h-207v61q0 250 215 250q59 0 123.5 -23t118 -46t84.5 -23q29 0 42 14.5t13 57.5v16h201v-45q0 -152 -53.5 -211t-149.5 -59q-58 0 -125.5 24.5t-123.5 49t-87 24.5q-51 0 -51 -59v-31z" />
    <glyph glyph-name="itilde" unicode="&#x129;" horiz-adv-x="618" 
d="M477 0h-334v1059h334v-1059zM121 1217h-197v73q0 136 54.5 189t154.5 53q57 0 116 -24t107 -48t78 -24q64 0 64 82v20h190v-59q0 -79 -15 -133t-44 -82.5t-65 -40t-85 -11.5q-48 0 -95.5 15t-78.5 33.5t-66 33.5t-61 15q-57 0 -57 -60v-32z" />
    <glyph glyph-name="Imacron" unicode="&#x12a;" horiz-adv-x="724" 
d="M188 0v1442h351v-1442h-351zM4 1616v215h711v-215h-711z" />
    <glyph glyph-name="imacron" unicode="&#x12b;" horiz-adv-x="618" 
d="M477 0h-334v1059h334v-1059zM-29 1268v217h670v-217h-670z" />
    <glyph glyph-name="Iogonek" unicode="&#x12e;" horiz-adv-x="724" 
d="M188 0v1442h351v-1442h-33q-107 -78 -107 -168q0 -94 107 -94q45 0 108 16v-209q-73 -41 -204 -41q-133 0 -208 65.5t-75 186.5q0 64 31 128.5t84 115.5h-54z" />
    <glyph glyph-name="iogonek" unicode="&#x12f;" horiz-adv-x="618" 
d="M180 0h-37v1059h334v-1059h-33q-51 -37 -78.5 -81.5t-27.5 -86.5q0 -94 106 -94q46 0 109 16v-209q-73 -41 -205 -41q-133 0 -207.5 65.5t-74.5 186.5q0 64 31 128.5t83 115.5zM477 1257h-334v269h334v-269z" />
    <glyph glyph-name="Idotaccent" unicode="&#x130;" horiz-adv-x="724" 
d="M188 0v1442h351v-1442h-351zM530 1593h-333v269h333v-269z" />
    <glyph glyph-name="dotlessi" unicode="&#x131;" horiz-adv-x="618" 
d="M477 0h-334v1059h334v-1059z" />
    <glyph glyph-name="Jcircumflex" unicode="&#x134;" horiz-adv-x="962" 
d="M59 -16v276q68 -10 152 -10q117 0 174 55.5t57 190.5v946h353v-928q0 -293 -129.5 -419t-397.5 -126q-107 0 -209 15zM166 1563l272 282h355l270 -282h-301l-150 145l-143 -145h-303z" />
    <glyph glyph-name="jcircumflex" unicode="&#x135;" horiz-adv-x="618" 
d="M-37 -473v258h19q87 0 124 38.5t37 141.5v1094h336v-1006q0 -71 -4.5 -127t-17.5 -112.5t-35 -98.5t-57 -79t-83 -60.5t-114.5 -37t-149.5 -13.5q-12 0 -24.5 0.5t-21 1t-9.5 0.5zM-121 1214l273 318h315l270 -318h-286l-146 166l-135 -166h-291z" />
    <glyph glyph-name="uni0136" unicode="&#x136;" horiz-adv-x="1609" 
d="M539 0h-351v1442h351v-631q89 83 311 287.5t371 343.5h428l-678 -621l715 -821h-435l-530 629l-182 -152v-477zM721 -145h270q0 -101 -30 -210.5t-91 -183.5h-258q109 202 109 394z" />
    <glyph glyph-name="uni0137" unicode="&#x137;" horiz-adv-x="1349" 
d="M141 0v1526h334v-924q53 57 220.5 223t232.5 234h395l-446 -406l491 -653h-403l-324 467l-166 -143v-324h-334zM592 -145h270q0 -101 -30 -210.5t-91 -183.5h-258q109 202 109 394z" />
    <glyph glyph-name="kgreenlandic" unicode="&#x138;" horiz-adv-x="1331" 
d="M141 0v1059h334v-463q51 55 219 223t236 240h393q-285 -254 -463 -424q36 -45 230 -290t280 -345h-405q-36 51 -165.5 221.5t-176.5 239.5l-148 -125v-336h-334z" />
    <glyph glyph-name="Lacute" unicode="&#x139;" horiz-adv-x="1376" 
d="M539 281h807l-48 -281h-1110v1442h351v-1161zM195 1577l342 285h426l-449 -285h-319z" />
    <glyph glyph-name="lacute" unicode="&#x13a;" horiz-adv-x="616" 
d="M141 1630l269 242h387l-346 -242h-310zM475 0h-334v1526h334v-1526z" />
    <glyph glyph-name="uni013B" unicode="&#x13b;" horiz-adv-x="1376" 
d="M539 281h807l-48 -281h-1110v1442h351v-1161zM612 -145h271q0 -101 -30 -210.5t-91 -183.5h-258q108 201 108 394z" />
    <glyph glyph-name="uni013C" unicode="&#x13c;" horiz-adv-x="616" 
d="M475 0h-334v1526h334v-1526zM174 -145h270q0 -102 -29.5 -211.5t-90.5 -182.5h-258q108 201 108 394z" />
    <glyph glyph-name="Lcaron" unicode="&#x13d;" horiz-adv-x="1376" 
d="M539 281h807l-48 -281h-1110v1442h351v-1161zM1079 842h-235l-17 600h267z" />
    <glyph glyph-name="lcaron" unicode="&#x13e;" horiz-adv-x="808" 
d="M475 0h-334v1526h334v-1526zM836 926h-236l-16 600h266z" />
    <glyph glyph-name="Ldot" unicode="&#x13f;" horiz-adv-x="1376" 
d="M1114 637h-332v375h332v-375zM539 281h807l-48 -281h-1110v1442h351v-1161z" />
    <glyph glyph-name="ldot" unicode="&#x140;" horiz-adv-x="784" 
d="M838 674h-277v385h277v-385zM475 0h-334v1526h334v-1526z" />
    <glyph glyph-name="Lslash" unicode="&#x141;" horiz-adv-x="1376" 
d="M188 0v600l-200 -84v234l200 84v608h351v-463l348 145v-233l-348 -146v-464h807l-48 -281h-1110z" />
    <glyph glyph-name="lslash" unicode="&#x142;" horiz-adv-x="673" 
d="M504 0h-334v629l-150 -78v235l150 78v662h334v-488l172 90v-237l-172 -90v-801z" />
    <glyph glyph-name="Nacute" unicode="&#x143;" horiz-adv-x="1761" 
d="M508 0h-320v1442h414q121 -184 256.5 -388t196 -294.5t117 -180.5t88.5 -151h4q-13 141 -13 657v357h322v-1442h-389q-23 37 -202.5 318.5t-311.5 493t-170 284.5h-4q12 -176 12 -639v-457zM694 1577l342 285h426l-448 -285h-320z" />
    <glyph glyph-name="nacute" unicode="&#x144;" horiz-adv-x="1382" 
d="M477 0h-336v791q0 192 -2 268h326q6 -44 10 -137q109 165 352 165q195 0 304.5 -115t109.5 -319v-653h-338v600q0 101 -45.5 164t-150.5 63q-230 0 -230 -299v-528zM498 1231l282 317h383l-370 -317h-295z" />
    <glyph glyph-name="uni0145" unicode="&#x145;" horiz-adv-x="1761" 
d="M508 0h-320v1442h414q121 -184 256.5 -388t196 -294.5t117 -180.5t88.5 -151h4q-13 141 -13 657v357h322v-1442h-389q-23 37 -202.5 318.5t-311.5 493t-170 284.5h-4q12 -176 12 -639v-457zM758 -127h270q0 -101 -30 -210t-91 -183h-258q109 202 109 393z" />
    <glyph glyph-name="uni0146" unicode="&#x146;" horiz-adv-x="1382" 
d="M477 0h-336v791q0 192 -2 268h326q6 -44 10 -137q109 165 352 165q195 0 304.5 -115t109.5 -319v-653h-338v600q0 101 -45.5 164t-150.5 63q-230 0 -230 -299v-528zM569 -145h271q0 -101 -30 -210.5t-91 -183.5h-258q108 201 108 394z" />
    <glyph glyph-name="Ncaron" unicode="&#x147;" horiz-adv-x="1761" 
d="M508 0h-320v1442h414q121 -184 256.5 -388t196 -294.5t117 -180.5t88.5 -151h4q-13 141 -13 657v357h322v-1442h-389q-23 37 -202.5 318.5t-311.5 493t-170 284.5h-4q12 -176 12 -639v-457zM1055 1563h-355l-270 282h301l150 -147l145 147h301z" />
    <glyph glyph-name="ncaron" unicode="&#x148;" horiz-adv-x="1382" 
d="M477 0h-336v791q0 192 -2 268h326q6 -44 10 -137q109 165 352 165q195 0 304.5 -115t109.5 -319v-653h-338v600q0 101 -45.5 164t-150.5 63q-230 0 -230 -299v-528zM848 1210h-316l-270 320h287l145 -166l135 166h291z" />
    <glyph glyph-name="napostrophe" unicode="&#x149;" horiz-adv-x="1382" 
d="M131 1638h279q-12 -109 -57 -235.5t-99 -202.5h-244q41 93 74 214.5t47 223.5zM477 0h-336v791q0 192 -2 268h326q6 -44 10 -137q109 165 352 165q195 0 304.5 -115t109.5 -319v-653h-338v600q0 101 -45.5 164t-150.5 63q-230 0 -230 -299v-528z" />
    <glyph glyph-name="Omacron" unicode="&#x14c;" horiz-adv-x="1759" 
d="M100 725q0 119 34 230t102 205t161 164t219 109.5t269 39.5q183 0 332.5 -61t244.5 -165t146 -237.5t51 -282.5q0 -121 -31.5 -232.5t-96.5 -207.5t-157.5 -166.5t-222.5 -111t-283 -40.5q-179 0 -325.5 58.5t-242.5 161t-148 240t-52 296.5zM889 242q84 0 152.5 27.5
t114 73.5t76.5 108.5t44.5 130.5t13.5 141q0 98 -24.5 182t-73.5 151t-130.5 105.5t-187.5 38.5q-102 0 -181.5 -39t-127 -105.5t-72 -149.5t-24.5 -177q0 -103 26.5 -191t77 -154.5t132 -104t184.5 -37.5zM518 1620v215h711v-215h-711z" />
    <glyph glyph-name="omacron" unicode="&#x14d;" horiz-adv-x="1374" 
d="M80 530q0 110 39.5 209t114 177.5t192 124.5t262.5 46q120 0 221.5 -33t171 -87.5t118.5 -127t72 -151t23 -158.5q0 -250 -164.5 -404.5t-453.5 -154.5q-144 0 -259 45.5t-187.5 123.5t-111 178t-38.5 212zM686 223q87 0 148 42t88.5 108.5t27.5 150.5q0 131 -67.5 220.5
t-198.5 89.5q-129 0 -196.5 -86.5t-67.5 -217.5t70.5 -219t195.5 -88zM350 1268v217h670v-217h-670z" />
    <glyph glyph-name="Ohungarumlaut" unicode="&#x150;" horiz-adv-x="1759" 
d="M471 1579l252 285h315l-307 -285h-260zM952 1579l252 285h316l-308 -285h-260zM100 725q0 119 34 230t102 205t161 164t219 109.5t269 39.5q183 0 332.5 -61t244.5 -165t146 -237.5t51 -282.5q0 -121 -31.5 -232.5t-96.5 -207.5t-157.5 -166.5t-222.5 -111t-283 -40.5
q-179 0 -325.5 58.5t-242.5 161t-148 240t-52 296.5zM889 242q84 0 152.5 27.5t114 73.5t76.5 108.5t44.5 130.5t13.5 141q0 98 -24.5 182t-73.5 151t-130.5 105.5t-187.5 38.5q-102 0 -181.5 -39t-127 -105.5t-72 -149.5t-24.5 -177q0 -103 26.5 -191t77 -154.5t132 -104
t184.5 -37.5z" />
    <glyph glyph-name="ohungarumlaut" unicode="&#x151;" horiz-adv-x="1374" 
d="M563 1204h-235l223 322h295zM1006 1204h-236l223 322h295zM80 530q0 110 39.5 209t114 177.5t192 124.5t262.5 46q120 0 221.5 -33t171 -87.5t118.5 -127t72 -151t23 -158.5q0 -250 -164.5 -404.5t-453.5 -154.5q-144 0 -259 45.5t-187.5 123.5t-111 178t-38.5 212z
M686 223q87 0 148 42t88.5 108.5t27.5 150.5q0 131 -67.5 220.5t-198.5 89.5q-129 0 -196.5 -86.5t-67.5 -217.5t70.5 -219t195.5 -88z" />
    <glyph glyph-name="OE" unicode="&#x152;" horiz-adv-x="2408" 
d="M1522 281h817l-43 -281h-1067q-122 -16 -297 -16q-172 0 -312.5 40.5t-235.5 110t-160 164.5t-94.5 200.5t-29.5 221.5q0 153 56.5 286.5t161.5 234t266.5 158.5t359.5 58q62 0 115.5 -2.5t110 -8t59.5 -5.5h1061v-281h-768v-272h727v-281h-727v-327zM471 723
q0 -213 128 -340t343 -127q157 0 227 20v889q-90 21 -213 21q-221 0 -353 -118.5t-132 -344.5z" />
    <glyph glyph-name="oe" unicode="&#x153;" horiz-adv-x="2193" 
d="M1774 324h333q-25 -74 -67.5 -135t-108.5 -111.5t-164.5 -78.5t-220.5 -28q-268 0 -424 156q-166 -156 -446 -156q-144 0 -259 45.5t-187 123.5t-110.5 178t-39.5 212q-1 87 23.5 168.5t75 152.5t122 123.5t171 82.5t216.5 30q269 0 430 -161q158 161 424 161
q120 0 218 -32t164 -85.5t111 -126.5t65 -151.5t20 -163.5v-79h-832q8 -100 77.5 -165t182.5 -65q91 0 143 26t83 79zM686 223q87 0 148 42t88.5 108.5t27.5 150.5q0 131 -67.5 220.5t-198.5 89.5q-129 0 -196.5 -86.5t-67.5 -217.5t70.5 -219t195.5 -88zM1542 852
q-116 0 -178 -57t-72 -142h490q-2 33 -15.5 65.5t-39.5 63.5t-74 50.5t-111 19.5z" />
    <glyph glyph-name="Racute" unicode="&#x154;" horiz-adv-x="1601" 
d="M190 0v1442h785q247 0 385.5 -111.5t138.5 -300.5q0 -133 -69 -218.5t-183 -121.5q23 -10 31 -13.5t36 -19.5t42.5 -30.5t37.5 -42t35 -58.5t21.5 -77t9.5 -99v-71q0 -207 19 -279h-359q-17 43 -21.5 106t-4.5 195v49q0 113 -55.5 159t-209.5 46h-292v-555h-347z
M537 1180v-361h360q126 0 185 45t59 137q0 179 -242 179h-362zM614 1577l342 285h426l-448 -285h-320z" />
    <glyph glyph-name="racute" unicode="&#x155;" horiz-adv-x="925" 
d="M477 0h-334v770q0 193 -2 289h326q10 -65 10 -213q47 111 149.5 176.5t258.5 62.5v-305q-94 2 -166 -17.5t-127.5 -64t-85 -123t-29.5 -188.5v-387zM274 1231l283 317h383l-371 -317h-295z" />
    <glyph glyph-name="uni0156" unicode="&#x156;" horiz-adv-x="1601" 
d="M190 0v1442h785q247 0 385.5 -111.5t138.5 -300.5q0 -133 -69 -218.5t-183 -121.5q23 -10 31 -13.5t36 -19.5t42.5 -30.5t37.5 -42t35 -58.5t21.5 -77t9.5 -99v-71q0 -207 19 -279h-359q-17 43 -21.5 106t-4.5 195v49q0 113 -55.5 159t-209.5 46h-292v-555h-347z
M537 1180v-361h360q126 0 185 45t59 137q0 179 -242 179h-362zM705 -102h270q0 -101 -30 -210.5t-91 -183.5h-258q109 202 109 394z" />
    <glyph glyph-name="uni0157" unicode="&#x157;" horiz-adv-x="925" 
d="M477 0h-334v770q0 193 -2 289h326q10 -65 10 -213q47 111 149.5 176.5t258.5 62.5v-305q-94 2 -166 -17.5t-127.5 -64t-85 -123t-29.5 -188.5v-387zM176 -145h270q0 -102 -29.5 -211.5t-90.5 -182.5h-258q108 201 108 394z" />
    <glyph glyph-name="Rcaron" unicode="&#x158;" horiz-adv-x="1601" 
d="M190 0v1442h785q247 0 385.5 -111.5t138.5 -300.5q0 -133 -69 -218.5t-183 -121.5q23 -10 31 -13.5t36 -19.5t42.5 -30.5t37.5 -42t35 -58.5t21.5 -77t9.5 -99v-71q0 -207 19 -279h-359q-17 43 -21.5 106t-4.5 195v49q0 113 -55.5 159t-209.5 46h-292v-555h-347z
M537 1180v-361h360q126 0 185 45t59 137q0 179 -242 179h-362zM971 1563h-355l-270 282h301l150 -147l145 147h301z" />
    <glyph glyph-name="rcaron" unicode="&#x159;" horiz-adv-x="925" 
d="M477 0h-334v770q0 193 -2 289h326q10 -65 10 -213q47 111 149.5 176.5t258.5 62.5v-305q-94 2 -166 -17.5t-127.5 -64t-85 -123t-29.5 -188.5v-387zM639 1210h-315l-271 320h287l145 -166l136 166h290z" />
    <glyph glyph-name="Sacute" unicode="&#x15a;" horiz-adv-x="1529" 
d="M1368 1049h-350q-7 26 -16.5 45.5t-32 44t-53.5 40.5t-84 27t-121 11q-123 0 -186.5 -38.5t-63.5 -109.5q0 -43 26 -71t98 -53t206 -48q160 -29 275.5 -67.5t183.5 -80.5t107.5 -97t52.5 -107t13 -121q0 -96 -39 -176.5t-119 -143.5t-213 -98t-309 -35q-164 0 -292 35
t-210 98.5t-130.5 145t-65.5 182.5h352q33 -101 120.5 -154t258.5 -53q158 0 223.5 43t65.5 119q0 53 -28.5 87.5t-110 64.5t-230.5 55q-147 25 -254 60.5t-171.5 75.5t-102.5 91.5t-51 101.5t-13 113q0 106 48.5 189.5t133 136.5t196 80.5t241.5 27.5q142 0 255 -28
t181.5 -71t116 -101.5t67.5 -112t25 -108.5zM555 1579l342 285h426l-449 -285h-319z" />
    <glyph glyph-name="sacute" unicode="&#x15b;" horiz-adv-x="1210" 
d="M1106 760h-328q-15 47 -58.5 76.5t-144.5 29.5q-149 0 -149 -86q0 -24 16 -40t67 -31t148 -29q90 -14 162 -33t122.5 -40.5t87.5 -48.5t58.5 -53t34.5 -58t17 -60t4 -63q0 -75 -29.5 -137t-91 -111.5t-166.5 -77t-246 -27.5q-223 0 -374 93t-175 262h332
q44 -125 240 -125q182 0 182 94q0 31 -20 50.5t-76 36t-162 30.5q-116 16 -202 44.5t-134 60t-77 72.5t-37.5 76.5t-8.5 79.5q0 65 25.5 122.5t80 108.5t153.5 81t231 30q108 0 195.5 -19.5t144.5 -51.5t96.5 -75.5t58.5 -88t23 -92.5zM412 1231l282 317h383l-370 -317h-295
z" />
    <glyph glyph-name="Scircumflex" unicode="&#x15c;" horiz-adv-x="1529" 
d="M1368 1049h-350q-7 26 -16.5 45.5t-32 44t-53.5 40.5t-84 27t-121 11q-123 0 -186.5 -38.5t-63.5 -109.5q0 -43 26 -71t98 -53t206 -48q160 -29 275.5 -67.5t183.5 -80.5t107.5 -97t52.5 -107t13 -121q0 -96 -39 -176.5t-119 -143.5t-213 -98t-309 -35q-164 0 -292 35
t-210 98.5t-130.5 145t-65.5 182.5h352q33 -101 120.5 -154t258.5 -53q158 0 223.5 43t65.5 119q0 53 -28.5 87.5t-110 64.5t-230.5 55q-147 25 -254 60.5t-171.5 75.5t-102.5 91.5t-51 101.5t-13 113q0 106 48.5 189.5t133 136.5t196 80.5t241.5 27.5q142 0 255 -28
t181.5 -71t116 -101.5t67.5 -112t25 -108.5zM313 1565l273 282h354l270 -282h-301l-149 145l-144 -145h-303z" />
    <glyph glyph-name="scircumflex" unicode="&#x15d;" horiz-adv-x="1210" 
d="M1106 760h-328q-15 47 -58.5 76.5t-144.5 29.5q-149 0 -149 -86q0 -24 16 -40t67 -31t148 -29q90 -14 162 -33t122.5 -40.5t87.5 -48.5t58.5 -53t34.5 -58t17 -60t4 -63q0 -75 -29.5 -137t-91 -111.5t-166.5 -77t-246 -27.5q-223 0 -374 93t-175 262h332
q44 -125 240 -125q182 0 182 94q0 31 -20 50.5t-76 36t-162 30.5q-116 16 -202 44.5t-134 60t-77 72.5t-37.5 76.5t-8.5 79.5q0 65 25.5 122.5t80 108.5t153.5 81t231 30q108 0 195.5 -19.5t144.5 -51.5t96.5 -75.5t58.5 -88t23 -92.5zM176 1214l273 318h315l270 -318h-286
l-146 166l-135 -166h-291z" />
    <glyph glyph-name="uni015E" unicode="&#x15e;" horiz-adv-x="1529" 
d="M539 -500l2 160q68 -14 129 -14q116 0 116 57q0 38 -53.5 52.5t-163.5 17.5v69l111 131q-149 7 -264.5 44t-190.5 99.5t-119 141t-61 174.5h352q33 -101 120.5 -154t258.5 -53q158 0 223.5 43t65.5 119q0 53 -28.5 87.5t-110 64.5t-230.5 55q-147 25 -254 60.5
t-171.5 75.5t-102.5 91.5t-51 101.5t-13 113q0 106 48.5 189.5t133 136.5t196 80.5t241.5 27.5q142 0 255 -28t181.5 -71t116 -101.5t67.5 -112t25 -108.5h-350q-7 26 -16.5 45.5t-32 44t-53.5 40.5t-84 27t-121 11q-123 0 -186.5 -38.5t-63.5 -109.5q0 -43 26 -71t98 -53
t206 -48q160 -29 275.5 -67.5t183.5 -80.5t107.5 -97t52.5 -107t13 -121q0 -84 -29.5 -156t-90 -131.5t-159.5 -99.5t-231 -55l-73 -84q26 -5 50.5 -12.5t52.5 -23.5t48.5 -36.5t34.5 -53t14 -71.5q0 -53 -21 -93.5t-53 -64t-76.5 -38.5t-85 -20t-85.5 -5q-125 0 -180 20z
" />
    <glyph glyph-name="uni015F" unicode="&#x15f;" horiz-adv-x="1210" 
d="M379 -500l2 160q68 -14 129 -14q117 0 117 57q0 38 -53.5 52.5t-163.5 17.5v69l112 133q-190 18 -315 109t-146 242h332q44 -125 240 -125q182 0 182 94q0 31 -20 50.5t-76 36t-162 30.5q-116 16 -202 44.5t-134 60t-77 72.5t-37.5 76.5t-8.5 79.5q0 65 25.5 122.5
t80 108.5t153.5 81t231 30q108 0 195.5 -19.5t144.5 -51.5t96.5 -75.5t58.5 -88t23 -92.5h-328q-15 47 -58.5 76.5t-144.5 29.5q-149 0 -149 -86q0 -24 16 -40t67 -31t148 -29q90 -14 162 -33t122.5 -40.5t87.5 -48.5t58.5 -53t34.5 -58t17 -60t4 -63q0 -135 -94.5 -227
t-296.5 -117l-72 -82q34 -6 64.5 -18t63.5 -33.5t53 -59.5t20 -86q0 -53 -21 -93.5t-53 -64t-76.5 -38.5t-85.5 -20t-86 -5q-125 0 -180 20z" />
    <glyph glyph-name="Scaron" unicode="&#x160;" horiz-adv-x="1529" 
d="M1368 1049h-350q-7 26 -16.5 45.5t-32 44t-53.5 40.5t-84 27t-121 11q-123 0 -186.5 -38.5t-63.5 -109.5q0 -43 26 -71t98 -53t206 -48q160 -29 275.5 -67.5t183.5 -80.5t107.5 -97t52.5 -107t13 -121q0 -96 -39 -176.5t-119 -143.5t-213 -98t-309 -35q-164 0 -292 35
t-210 98.5t-130.5 145t-65.5 182.5h352q33 -101 120.5 -154t258.5 -53q158 0 223.5 43t65.5 119q0 53 -28.5 87.5t-110 64.5t-230.5 55q-147 25 -254 60.5t-171.5 75.5t-102.5 91.5t-51 101.5t-13 113q0 106 48.5 189.5t133 136.5t196 80.5t241.5 27.5q142 0 255 -28
t181.5 -71t116 -101.5t67.5 -112t25 -108.5zM938 1569h-354l-271 282h301l150 -147l145 147h301z" />
    <glyph glyph-name="scaron" unicode="&#x161;" horiz-adv-x="1210" 
d="M1106 760h-328q-15 47 -58.5 76.5t-144.5 29.5q-149 0 -149 -86q0 -24 16 -40t67 -31t148 -29q90 -14 162 -33t122.5 -40.5t87.5 -48.5t58.5 -53t34.5 -58t17 -60t4 -63q0 -75 -29.5 -137t-91 -111.5t-166.5 -77t-246 -27.5q-223 0 -374 93t-175 262h332
q44 -125 240 -125q182 0 182 94q0 31 -20 50.5t-76 36t-162 30.5q-116 16 -202 44.5t-134 60t-77 72.5t-37.5 76.5t-8.5 79.5q0 65 25.5 122.5t80 108.5t153.5 81t231 30q108 0 195.5 -19.5t144.5 -51.5t96.5 -75.5t58.5 -88t23 -92.5zM762 1210h-316l-270 320h287l145 -166
l135 166h291z" />
    <glyph glyph-name="uni0162" unicode="&#x162;" horiz-adv-x="1394" 
d="M451 -500l2 160q68 -14 129 -14q116 0 116 57q0 38 -53.5 52.5t-163.5 17.5v69l133 158h-92v1163h-508v279h1364v-279h-506v-1163h-30l-90 -102q26 -5 50.5 -12.5t52.5 -23.5t48.5 -36.5t34.5 -53t14 -71.5q0 -53 -21 -93.5t-53 -64t-76.5 -38.5t-85 -20t-85.5 -5
q-125 0 -180 20z" />
    <glyph glyph-name="uni0163" unicode="&#x163;" horiz-adv-x="860" 
d="M242 -469l2 160q72 -15 129 -15q116 0 116 58q0 38 -53 52t-164 17v70l119 141q-92 31 -130 103.5t-38 193.5v504h-190v244h190v311h336v-311h246v-244h-246v-446q0 -72 24 -101.5t97 -29.5q61 0 90 6v-230q-62 -18 -170 -22l-57 -64q34 -6 64.5 -18t63.5 -33.5t52.5 -59
t19.5 -85.5q0 -53 -21 -93.5t-53 -64t-76.5 -38.5t-85 -20t-85.5 -5q-125 0 -180 20z" />
    <glyph glyph-name="Tcaron" unicode="&#x164;" horiz-adv-x="1394" 
d="M872 0h-350v1163h-508v279h1364v-279h-506v-1163zM870 1563h-354l-270 282h301l149 -147l146 147h301z" />
    <glyph glyph-name="tcaron" unicode="&#x165;" horiz-adv-x="860" 
d="M903 1212h-182l-14 476h225zM223 311v504h-190v244h190v311h336v-311h246v-244h-246v-446q0 -72 24 -101.5t97 -29.5q61 0 90 6v-230q-78 -22 -211 -22q-96 0 -162 20t-104 62t-54 99t-16 138z" />
    <glyph glyph-name="Utilde" unicode="&#x168;" horiz-adv-x="1693" 
d="M170 608v834h350v-815q0 -385 338 -385q74 0 129 18t98.5 60.5t66 119t22.5 187.5v815h350v-826q0 -324 -174 -485.5t-500 -161.5q-324 0 -502 156.5t-178 482.5zM653 1581h-207v61q0 250 216 250q59 0 123.5 -23t117.5 -46t84 -23q29 0 42 14.5t13 57.5v16h201v-45
q0 -152 -53.5 -211t-149.5 -59q-58 0 -125 24.5t-123 49t-87 24.5q-52 0 -52 -59v-31z" />
    <glyph glyph-name="utilde" unicode="&#x169;" horiz-adv-x="1361" 
d="M139 412v647h334v-592q0 -236 191 -236q121 0 172 78t51 260v490h334v-752q0 -205 2 -307h-328q-1 6 -6 123q-30 -47 -66.5 -77t-110.5 -52.5t-180 -22.5q-177 0 -285 109.5t-108 331.5zM494 1217h-197v73q0 136 54.5 189t154.5 53q57 0 116 -24t107 -48t78 -24
q63 0 63 82v20h191v-59q0 -79 -15 -133t-44 -82.5t-65 -40t-85 -11.5q-48 0 -95.5 15t-78.5 33.5t-66 33.5t-61 15q-57 0 -57 -60v-32z" />
    <glyph glyph-name="Umacron" unicode="&#x16a;" horiz-adv-x="1693" 
d="M170 608v834h350v-815q0 -385 338 -385q74 0 129 18t98.5 60.5t66 119t22.5 187.5v815h350v-826q0 -324 -174 -485.5t-500 -161.5q-324 0 -502 156.5t-178 482.5zM489 1616v215h711v-215h-711z" />
    <glyph glyph-name="umacron" unicode="&#x16b;" horiz-adv-x="1361" 
d="M139 412v647h334v-592q0 -236 191 -236q121 0 172 78t51 260v490h334v-752q0 -205 2 -307h-328q-1 6 -6 123q-30 -47 -66.5 -77t-110.5 -52.5t-180 -22.5q-177 0 -285 109.5t-108 331.5zM344 1268v217h670v-217h-670z" />
    <glyph glyph-name="Ubreve" unicode="&#x16c;" horiz-adv-x="1693" 
d="M170 608v834h350v-815q0 -385 338 -385q74 0 129 18t98.5 60.5t66 119t22.5 187.5v815h350v-826q0 -324 -174 -485.5t-500 -161.5q-324 0 -502 156.5t-178 482.5zM1022 1876h221q-10 -61 -36.5 -114t-72.5 -99t-121 -73t-171 -27q-79 0 -145 20t-109 51.5t-74 74t-46 84
t-19 83.5h223q15 -51 61 -80t113 -29q54 0 91.5 16.5t54.5 38t30 54.5z" />
    <glyph glyph-name="ubreve" unicode="&#x16d;" horiz-adv-x="1361" 
d="M139 412v647h334v-592q0 -236 191 -236q121 0 172 78t51 260v490h334v-752q0 -205 2 -307h-328q-1 6 -6 123q-30 -47 -66.5 -77t-110.5 -52.5t-180 -22.5q-177 0 -285 109.5t-108 331.5zM836 1548h221q-10 -70 -36 -128.5t-70.5 -106.5t-114.5 -75.5t-160 -27.5
q-93 0 -165 28.5t-115.5 77.5t-66.5 107t-28 125h223q32 -129 156 -129q40 0 68 10t45 30t26 39.5t17 49.5z" />
    <glyph glyph-name="Uring" unicode="&#x16e;" horiz-adv-x="1693" 
d="M170 608v834h350v-815q0 -385 338 -385q74 0 129 18t98.5 60.5t66 119t22.5 187.5v815h350v-826q0 -324 -174 -485.5t-500 -161.5q-324 0 -502 156.5t-178 482.5zM584 1757q0 100 70 165t196 65q124 0 193 -63.5t69 -164.5q0 -102 -70.5 -165.5t-191.5 -63.5
q-124 0 -195 63.5t-71 163.5zM745 1759q0 -40 25 -69t76 -29q52 0 79 27.5t27 68.5q0 42 -26 71.5t-78 29.5t-77.5 -29t-25.5 -70z" />
    <glyph glyph-name="uring" unicode="&#x16f;" horiz-adv-x="1361" 
d="M139 412v647h334v-592q0 -236 191 -236q121 0 172 78t51 260v490h334v-752q0 -205 2 -307h-328q-1 6 -6 123q-30 -47 -66.5 -77t-110.5 -52.5t-180 -22.5q-177 0 -285 109.5t-108 331.5zM416 1384q0 100 70 165t196 65q124 0 193 -63.5t69 -164.5q0 -102 -70.5 -165.5
t-191.5 -63.5q-124 0 -195 63.5t-71 163.5zM578 1386q0 -40 24.5 -69t75.5 -29q52 0 79 27.5t27 68.5q0 42 -26 71.5t-78 29.5t-77 -29t-25 -70z" />
    <glyph glyph-name="Uhungarumlaut" unicode="&#x170;" horiz-adv-x="1693" 
d="M444 1577l252 285h316l-307 -285h-261zM926 1577l252 285h315l-307 -285h-260zM170 608v834h350v-815q0 -385 338 -385q74 0 129 18t98.5 60.5t66 119t22.5 187.5v815h350v-826q0 -324 -174 -485.5t-500 -161.5q-324 0 -502 156.5t-178 482.5z" />
    <glyph glyph-name="uhungarumlaut" unicode="&#x171;" horiz-adv-x="1361" 
d="M557 1204h-235l223 322h295zM999 1204h-235l223 322h295zM139 412v647h334v-592q0 -236 191 -236q121 0 172 78t51 260v490h334v-752q0 -205 2 -307h-328q-1 6 -6 123q-30 -47 -66.5 -77t-110.5 -52.5t-180 -22.5q-177 0 -285 109.5t-108 331.5z" />
    <glyph glyph-name="Uogonek" unicode="&#x172;" horiz-adv-x="1693" 
d="M1110 0h14q-51 -37 -78.5 -81.5t-27.5 -86.5q0 -94 106 -94q46 0 109 16v-209q-73 -41 -205 -41q-133 0 -208 65.5t-75 186.5q0 110 86 213q-316 5 -488.5 161.5t-172.5 477.5v834h350v-815q0 -385 338 -385q74 0 129 18t98.5 60.5t66 119t22.5 187.5v815h350v-826
q0 -252 -106 -406t-308 -210z" />
    <glyph glyph-name="uogonek" unicode="&#x173;" horiz-adv-x="1361" 
d="M139 412v647h334v-592q0 -236 191 -236q121 0 172 78t51 260v490h334v-752q0 -205 2 -307h-29q-107 -78 -107 -168q0 -94 107 -94q46 0 109 16v-209q-73 -41 -205 -41q-133 0 -208 65.5t-75 186.5q0 64 31 128.5t84 115.5h-35q-1 6 -6 123q-30 -47 -66.5 -77
t-110.5 -52.5t-180 -22.5q-177 0 -285 109.5t-108 331.5z" />
    <glyph glyph-name="Wcircumflex" unicode="&#x174;" horiz-adv-x="2209" 
d="M807 0h-377l-410 1442h367q14 -55 55 -213.5t66 -258t57.5 -235.5t53.5 -241t30 -179h2q49 279 293 1127h334q243 -855 291 -1116h4q38 244 248 1048q12 46 18 68h352l-436 -1442h-379q-70 241 -160.5 581t-125.5 494h-3q-7 -40 -17 -87.5t-25 -108.5t-27 -111
t-33 -128.5t-33.5 -124t-37.5 -136t-35.5 -127t-37.5 -133t-34 -119.5zM653 1563l273 282h354l270 -282h-301l-149 145l-144 -145h-303z" />
    <glyph glyph-name="wcircumflex" unicode="&#x175;" horiz-adv-x="1812" 
d="M338 0l-315 1059h346q152 -629 178 -799h2q60 254 213 799h313q170 -615 203 -793h2q33 205 182 793h328l-332 -1059h-360q-171 598 -193 686h-2q-77 -302 -201 -686h-364zM477 1214l273 318h315l270 -318h-286l-146 166l-135 -166h-291z" />
    <glyph glyph-name="Ycircumflex" unicode="&#x176;" horiz-adv-x="1431" 
d="M891 0h-350v516q0 18 -19 47l-596 879h416q27 -43 86 -136t94 -149.5t80 -129.5t76.5 -128t50.5 -94q33 60 96 161.5t160.5 254t140.5 221.5h381l-608 -893q-8 -16 -8 -39v-510zM266 1563l273 282h354l270 -282h-301l-149 145l-144 -145h-303z" />
    <glyph glyph-name="ycircumflex" unicode="&#x177;" horiz-adv-x="1273" 
d="M141 -463v270q73 -6 107 -6q54 0 89.5 8t61.5 30.5t42 47t40 72.5l-471 1100h367q214 -539 280 -791h7q94 335 254 791h342l-355 -907q-108 -280 -155 -370q-74 -143 -167 -198q-98 -59 -278 -59q-105 0 -164 12zM207 1214l272 318h316l270 -318h-287l-145 166l-135 -166
h-291z" />
    <glyph glyph-name="Ydieresis" unicode="&#x178;" horiz-adv-x="1431" 
d="M623 1593h-289v269h289v-269zM1096 1593h-289v269h289v-269zM891 0h-350v516q0 18 -19 47l-596 879h416q27 -43 86 -136t94 -149.5t80 -129.5t76.5 -128t50.5 -94q33 60 96 161.5t160.5 254t140.5 221.5h381l-608 -893q-8 -16 -8 -39v-510z" />
    <glyph glyph-name="Zacute" unicode="&#x179;" horiz-adv-x="1464" 
d="M59 0v254l871 915h-828v273h1268v-275l-854 -895h922l-39 -272h-1340zM545 1577l342 285h426l-449 -285h-319z" />
    <glyph glyph-name="zacute" unicode="&#x17a;" horiz-adv-x="1183" 
d="M66 0v240l608 563h-574v256h994v-246l-586 -555h635l-37 -258h-1040zM401 1231l283 317h383l-371 -317h-295z" />
    <glyph glyph-name="Zdotaccent" unicode="&#x17b;" horiz-adv-x="1464" 
d="M59 0v254l871 915h-828v273h1268v-275l-854 -895h922l-39 -272h-1340zM899 1593h-334v269h334v-269z" />
    <glyph glyph-name="zdotaccent" unicode="&#x17c;" horiz-adv-x="1183" 
d="M66 0v240l608 563h-574v256h994v-246l-586 -555h635l-37 -258h-1040zM756 1257h-334v269h334v-269z" />
    <glyph glyph-name="Zcaron" unicode="&#x17d;" horiz-adv-x="1464" 
d="M59 0v254l871 915h-828v273h1268v-275l-854 -895h922l-39 -272h-1340zM905 1563h-354l-270 282h301l149 -147l146 147h301z" />
    <glyph glyph-name="zcaron" unicode="&#x17e;" horiz-adv-x="1183" 
d="M66 0v240l608 563h-574v256h994v-246l-586 -555h635l-37 -258h-1040zM750 1210h-316l-270 320h287l145 -166l135 166h291z" />
    <glyph glyph-name="uni018F" unicode="&#x18f;" horiz-adv-x="1685" 
d="M102 819h1108q-10 176 -118.5 278.5t-282.5 102.5q-259 0 -350 -176h-342q23 67 63 130t102 121.5t139 102t181 69.5t221 26q155 0 282 -42t212.5 -113t144 -167t85 -202t26.5 -220q0 -123 -28.5 -234t-89 -207.5t-147 -167t-210 -111t-271.5 -40.5q-228 0 -395 94.5
t-250.5 258t-83.5 376.5q0 51 4 121zM1200 578h-733q3 -148 98 -246.5t262 -98.5q169 0 261.5 90.5t111.5 254.5z" />
    <glyph glyph-name="florin" unicode="&#x192;" horiz-adv-x="1302" 
d="M90 -150l57 244q69 -26 144 -26q41 0 65.5 15.5t44.5 65.5t35 146l58 340h-187v231h228l10 66q68 469 438 469q153 0 234 -45l-54 -234q-82 21 -129 21q-67 0 -99 -46t-50 -149l-15 -82h232v-231h-271l-69 -397q-16 -99 -42 -172t-71.5 -136t-119.5 -96t-175 -33
q-151 0 -264 49z" />
    <glyph glyph-name="Ohorn" unicode="&#x1a0;" horiz-adv-x="1759" 
d="M1370 1628h295q14 -57 14 -135q0 -99 -45.5 -174.5t-134.5 -114.5q160 -205 160 -477q0 -121 -31.5 -232.5t-96.5 -207.5t-157.5 -166.5t-222.5 -111t-283 -40.5q-179 0 -325.5 58.5t-242.5 161t-148 240t-52 296.5q0 119 34 230t102 205t161 164t219 109.5t269 39.5
q242 0 418 -103q88 18 88 127q0 59 -21 131zM889 242q84 0 152.5 27.5t114 73.5t76.5 108.5t44.5 130.5t13.5 141q0 98 -24.5 182t-73.5 151t-130.5 105.5t-187.5 38.5q-102 0 -181.5 -39t-127 -105.5t-72 -149.5t-24.5 -177q0 -103 26.5 -191t77 -154.5t132 -104
t184.5 -37.5z" />
    <glyph glyph-name="ohorn" unicode="&#x1a1;" horiz-adv-x="1374" 
d="M1067 1243h295q14 -57 14 -135q0 -94 -42 -168.5t-124 -114.5q84 -141 84 -295q0 -250 -164.5 -404.5t-453.5 -154.5q-144 0 -259 45.5t-187.5 123.5t-111 178t-38.5 212q0 110 39.5 209t114 177.5t192 124.5t262.5 46q199 0 346 -90q53 32 53 115q0 63 -20 131zM686 223
q87 0 148 42t88.5 108.5t27.5 150.5q0 131 -67.5 220.5t-198.5 89.5q-129 0 -196.5 -86.5t-67.5 -217.5t70.5 -219t195.5 -88z" />
    <glyph glyph-name="Uhorn" unicode="&#x1af;" horiz-adv-x="1693" 
d="M170 608v834h350v-815q0 -385 338 -385q74 0 129 18t98.5 60.5t66 119t22.5 187.5v815h202q90 15 90 127q0 63 -20 131h295q14 -57 14 -135q0 -113 -58.5 -195t-172.5 -113v-641q0 -324 -174 -485.5t-500 -161.5q-324 0 -502 156.5t-178 482.5z" />
    <glyph glyph-name="uhorn" unicode="&#x1b0;" horiz-adv-x="1361" 
d="M139 412v647h334v-592q0 -236 191 -236q121 0 172 78t51 260v490h170q90 15 90 127q0 59 -21 131h295q15 -61 15 -135q0 -108 -55 -188t-160 -115v-572q0 -205 2 -307h-328q-1 6 -6 123q-30 -47 -66.5 -77t-110.5 -52.5t-180 -22.5q-177 0 -285 109.5t-108 331.5z" />
    <glyph glyph-name="uni01CD" unicode="&#x1cd;" horiz-adv-x="1636" 
d="M-2 0l580 1442h450l610 -1442h-378l-136 328h-641l-125 -328h-360zM793 1217h-2q-52 -179 -218 -609h455q-183 448 -235 609zM981 1563h-354l-271 282h301l150 -147l145 147h301z" />
    <glyph glyph-name="uni01CE" unicode="&#x1ce;" horiz-adv-x="1327" 
d="M477 745h-334q3 44 16.5 86.5t50 90.5t91.5 83t149 58.5t214 23.5q96 0 173.5 -13t131 -34t94 -52.5t64 -64.5t38 -74.5t19 -77t4.5 -77.5v-397q0 -205 8 -297h-315q-6 19 -13 119q-94 -148 -379 -148q-104 0 -184.5 29.5t-127 80t-70 110.5t-23.5 126q0 100 42 171
t120 110.5t174 56.5t219 17h221v33q0 73 -42 114t-150 41q-98 0 -138.5 -30.5t-52.5 -84.5zM408 334q0 -56 45 -90.5t133 -34.5q136 0 205 60t69 175v17q-25 2 -215 2q-125 0 -181 -32t-56 -97zM817 1210h-315l-271 320h287l146 -166l135 166h291z" />
    <glyph glyph-name="uni01CF" unicode="&#x1cf;" horiz-adv-x="724" 
d="M188 0v1442h351v-1442h-351zM537 1563h-355l-270 282h301l149 -147l146 147h301z" />
    <glyph glyph-name="uni01D0" unicode="&#x1d0;" horiz-adv-x="618" 
d="M477 0h-334v1059h334v-1059zM463 1210h-316l-270 320h287l145 -166l135 166h291z" />
    <glyph glyph-name="uni01D1" unicode="&#x1d1;" horiz-adv-x="1759" 
d="M100 725q0 119 34 230t102 205t161 164t219 109.5t269 39.5q183 0 332.5 -61t244.5 -165t146 -237.5t51 -282.5q0 -121 -31.5 -232.5t-96.5 -207.5t-157.5 -166.5t-222.5 -111t-283 -40.5q-179 0 -325.5 58.5t-242.5 161t-148 240t-52 296.5zM889 242q84 0 152.5 27.5
t114 73.5t76.5 108.5t44.5 130.5t13.5 141q0 98 -24.5 182t-73.5 151t-130.5 105.5t-187.5 38.5q-102 0 -181.5 -39t-127 -105.5t-72 -149.5t-24.5 -177q0 -103 26.5 -191t77 -154.5t132 -104t184.5 -37.5zM1051 1567h-355l-270 282h301l150 -147l145 147h301z" />
    <glyph glyph-name="uni01D2" unicode="&#x1d2;" horiz-adv-x="1374" 
d="M80 530q0 110 39.5 209t114 177.5t192 124.5t262.5 46q120 0 221.5 -33t171 -87.5t118.5 -127t72 -151t23 -158.5q0 -250 -164.5 -404.5t-453.5 -154.5q-144 0 -259 45.5t-187.5 123.5t-111 178t-38.5 212zM686 223q87 0 148 42t88.5 108.5t27.5 150.5q0 131 -67.5 220.5
t-198.5 89.5q-129 0 -196.5 -86.5t-67.5 -217.5t70.5 -219t195.5 -88zM842 1210h-316l-270 320h287l145 -166l135 166h291z" />
    <glyph glyph-name="uni01D3" unicode="&#x1d3;" horiz-adv-x="1693" 
d="M170 608v834h350v-815q0 -385 338 -385q74 0 129 18t98.5 60.5t66 119t22.5 187.5v815h350v-826q0 -324 -174 -485.5t-500 -161.5q-324 0 -502 156.5t-178 482.5zM1022 1563h-354l-271 282h301l150 -147l145 147h301z" />
    <glyph glyph-name="uni01D4" unicode="&#x1d4;" horiz-adv-x="1361" 
d="M139 412v647h334v-592q0 -236 191 -236q121 0 172 78t51 260v490h334v-752q0 -205 2 -307h-328q-1 6 -6 123q-30 -47 -66.5 -77t-110.5 -52.5t-180 -22.5q-177 0 -285 109.5t-108 331.5zM836 1210h-316l-270 320h287l145 -166l135 166h291z" />
    <glyph glyph-name="uni01D5" unicode="&#x1d5;" horiz-adv-x="1693" 
d="M741 1563h-258v225h258v-225zM1212 1903h-729v180h729v-180zM1212 1563h-258v225h258v-225zM170 608v834h350v-815q0 -385 338 -385q74 0 129 18t98.5 60.5t66 119t22.5 187.5v815h350v-826q0 -324 -174 -485.5t-500 -161.5q-324 0 -502 156.5t-178 482.5z" />
    <glyph glyph-name="uni01D6" unicode="&#x1d6;" horiz-adv-x="1361" 
d="M594 1165h-258v226h258v-226zM991 1509h-629v193h629v-193zM1024 1165h-258v226h258v-226zM139 412v647h334v-592q0 -236 191 -236q121 0 172 78t51 260v490h334v-752q0 -205 2 -307h-328q-1 6 -6 123q-30 -47 -66.5 -77t-110.5 -52.5t-180 -22.5q-177 0 -285 109.5
t-108 331.5z" />
    <glyph glyph-name="uni01D7" unicode="&#x1d7;" horiz-adv-x="1693" 
d="M483 1563v225h258v-225h-258zM975 1866h-275l285 243h356zM1212 1563h-258v225h258v-225zM170 608v834h350v-815q0 -385 338 -385q74 0 129 18t98.5 60.5t66 119t22.5 187.5v815h350v-826q0 -324 -174 -485.5t-500 -161.5q-324 0 -502 156.5t-178 482.5z" />
    <glyph glyph-name="uni01D8" unicode="&#x1d8;" horiz-adv-x="1361" 
d="M336 1165v244h258v-244h-258zM797 1499h-277l242 252h356zM1024 1165h-258v244h258v-244zM139 412v647h334v-592q0 -236 191 -236q121 0 172 78t51 260v490h334v-752q0 -205 2 -307h-328q-1 6 -6 123q-30 -47 -66.5 -77t-110.5 -52.5t-180 -22.5q-177 0 -285 109.5
t-108 331.5z" />
    <glyph glyph-name="uni01D9" unicode="&#x1d9;" horiz-adv-x="1693" 
d="M741 1563h-258v225h258v-225zM455 2093h268l125 -125l125 125h268l-240 -238h-309zM1212 1563h-258v225h258v-225zM170 608v834h350v-815q0 -385 338 -385q74 0 129 18t98.5 60.5t66 119t22.5 187.5v815h350v-826q0 -324 -174 -485.5t-500 -161.5q-324 0 -502 156.5
t-178 482.5z" />
    <glyph glyph-name="uni01DA" unicode="&#x1da;" horiz-adv-x="1361" 
d="M588 1171h-260v230h260v-230zM842 1483h-324l-213 241h264l111 -129l111 129h264zM1030 1171h-258v226h258v-226zM139 412v647h334v-592q0 -236 191 -236q121 0 172 78t51 260v490h334v-752q0 -205 2 -307h-328q-1 6 -6 123q-30 -47 -66.5 -77t-110.5 -52.5t-180 -22.5
q-177 0 -285 109.5t-108 331.5z" />
    <glyph glyph-name="uni01DB" unicode="&#x1db;" horiz-adv-x="1693" 
d="M483 1563v225h258v-225h-258zM379 2109h354l285 -243h-277zM1212 1563h-258v225h258v-225zM170 608v834h350v-815q0 -385 338 -385q74 0 129 18t98.5 60.5t66 119t22.5 187.5v815h350v-826q0 -324 -174 -485.5t-500 -161.5q-324 0 -502 156.5t-178 482.5z" />
    <glyph glyph-name="uni01DC" unicode="&#x1dc;" horiz-adv-x="1361" 
d="M336 1165v226h258v-226h-258zM561 1481l-319 250h348l246 -250h-275zM1024 1165h-258v226h258v-226zM139 412v647h334v-592q0 -236 191 -236q121 0 172 78t51 260v490h334v-752q0 -205 2 -307h-328q-1 6 -6 123q-30 -47 -66.5 -77t-110.5 -52.5t-180 -22.5
q-177 0 -285 109.5t-108 331.5z" />
    <glyph glyph-name="Gcaron" unicode="&#x1e6;" horiz-adv-x="1736" 
d="M901 557v270h690v-827h-254q-12 48 -24 147q-73 -89 -184 -133.5t-302 -44.5q-171 0 -310 57t-229.5 157t-139 235.5t-48.5 294.5q0 127 32.5 241t98.5 209t159.5 164t222 107.5t280.5 38.5q134 0 246.5 -28t189 -73.5t134 -107t88 -124t42.5 -128.5h-352
q-10 26 -24.5 49.5t-43 51.5t-64.5 48t-92 33.5t-124 13.5q-108 0 -191 -37t-133 -102.5t-75 -151t-25 -188.5q0 -145 44.5 -254t142.5 -174t241 -65q176 0 265 81.5t89 217.5v22h-350zM1040 1565h-354l-270 282h301l149 -147l146 147h301z" />
    <glyph glyph-name="gcaron" unicode="&#x1e7;" horiz-adv-x="1415" 
d="M88 -98h338q14 -38 38.5 -64.5t78.5 -45.5t135 -19q63 0 110.5 16.5t77 44t47.5 69t24.5 86.5t6.5 103v45q-52 -73 -130.5 -111t-221.5 -38q-150 0 -268 72t-181 192t-63 264q0 121 41.5 227.5t113.5 181.5t171.5 118.5t211.5 43.5q78 0 139 -14t97.5 -38t57 -46.5
t32.5 -48.5q1 11 3 57t3 62h326q-2 -104 -2 -311v-629q0 -296 -144 -445t-471 -149q-97 0 -178.5 15t-137.5 39t-100.5 58t-70.5 67t-45 72.5t-26.5 67.5t-12.5 58zM684 244q129 0 197.5 75t68.5 220q0 132 -66.5 210t-189.5 78q-128 0 -200 -84t-72 -215q0 -122 69 -203
t193 -81zM864 1210h-315l-270 320h286l146 -166l135 166h291z" />
    <glyph glyph-name="uni0218" unicode="&#x218;" horiz-adv-x="1529" 
d="M1368 1049h-350q-7 26 -16.5 45.5t-32 44t-53.5 40.5t-84 27t-121 11q-123 0 -186.5 -38.5t-63.5 -109.5q0 -43 26 -71t98 -53t206 -48q160 -29 275.5 -67.5t183.5 -80.5t107.5 -97t52.5 -107t13 -121q0 -96 -39 -176.5t-119 -143.5t-213 -98t-309 -35q-164 0 -292 35
t-210 98.5t-130.5 145t-65.5 182.5h352q33 -101 120.5 -154t258.5 -53q158 0 223.5 43t65.5 119q0 53 -28.5 87.5t-110 64.5t-230.5 55q-147 25 -254 60.5t-171.5 75.5t-102.5 91.5t-51 101.5t-13 113q0 106 48.5 189.5t133 136.5t196 80.5t241.5 27.5q142 0 255 -28
t181.5 -71t116 -101.5t67.5 -112t25 -108.5zM682 -145h270q0 -101 -30 -210.5t-91 -183.5h-258q109 202 109 394z" />
    <glyph glyph-name="uni0219" unicode="&#x219;" horiz-adv-x="1210" 
d="M1106 760h-328q-15 47 -58.5 76.5t-144.5 29.5q-149 0 -149 -86q0 -24 16 -40t67 -31t148 -29q90 -14 162 -33t122.5 -40.5t87.5 -48.5t58.5 -53t34.5 -58t17 -60t4 -63q0 -75 -29.5 -137t-91 -111.5t-166.5 -77t-246 -27.5q-223 0 -374 93t-175 262h332
q44 -125 240 -125q182 0 182 94q0 31 -20 50.5t-76 36t-162 30.5q-116 16 -202 44.5t-134 60t-77 72.5t-37.5 76.5t-8.5 79.5q0 65 25.5 122.5t80 108.5t153.5 81t231 30q108 0 195.5 -19.5t144.5 -51.5t96.5 -75.5t58.5 -88t23 -92.5zM518 -145h270q0 -102 -29.5 -211.5
t-90.5 -182.5h-258q108 201 108 394z" />
    <glyph glyph-name="uni021A" unicode="&#x21a;" horiz-adv-x="1394" 
d="M872 0h-350v1163h-508v279h1364v-279h-506v-1163zM567 -145h271q0 -101 -30 -210.5t-91 -183.5h-258q108 201 108 394z" />
    <glyph glyph-name="uni021B" unicode="&#x21b;" horiz-adv-x="860" 
d="M223 311v504h-190v244h190v311h336v-311h246v-244h-246v-446q0 -72 24 -101.5t97 -29.5q61 0 90 6v-230q-78 -22 -211 -22q-96 0 -162 20t-104 62t-54 99t-16 138zM348 -145h270q0 -102 -29.5 -211.5t-90.5 -182.5h-258q108 201 108 394z" />
    <glyph glyph-name="uni0237" unicode="&#x237;" horiz-adv-x="618" 
d="M-37 -473v258h19q87 0 124 38.5t37 141.5v1094h336v-1006q0 -71 -4.5 -127t-17.5 -112.5t-35 -98.5t-57 -79t-83 -60.5t-114.5 -37t-149.5 -13.5q-12 0 -24.5 0.5t-21 1t-9.5 0.5z" />
    <glyph glyph-name="uni0251" unicode="&#x251;" horiz-adv-x="1419" 
d="M1296 0h-303q-6 18 -11 69.5t-7 61.5q-114 -160 -379 -160q-146 0 -263 66.5t-185 192.5t-68 290q0 109 31.5 203t85 160t123.5 112.5t147.5 69t157.5 22.5q217 0 321 -110v82h336v-760q0 -53 5 -159t9 -140zM692 233q128 0 195 78.5t67 216.5q0 136 -63 217.5t-193 81.5
q-132 0 -203 -86t-71 -213q0 -132 71 -213.5t197 -81.5z" />
    <glyph glyph-name="uni0259" unicode="&#x259;" horiz-adv-x="1296" 
d="M389 735h-336q124 352 563 352q126 0 227.5 -32t168 -86t111.5 -126.5t64 -150.5t19 -162q0 -113 -38 -213t-110 -177.5t-185.5 -123t-254.5 -45.5q-120 0 -218 32t-163.5 85.5t-110.5 126.5t-65 151.5t-20 163.5q0 47 2 80h829q-6 101 -75 165.5t-185 64.5
q-89 0 -140.5 -26t-82.5 -79zM868 406h-487q2 -27 9 -51.5t24 -52.5t42 -48t68 -33.5t97 -13.5q122 0 181 56t66 143z" />
    <glyph glyph-name="uni0261" unicode="&#x261;" horiz-adv-x="1415" 
d="M88 -98h338q14 -38 38.5 -64.5t78.5 -45.5t135 -19q63 0 110.5 16.5t77 44t47.5 69t24.5 86.5t6.5 103v45q-52 -73 -130.5 -111t-221.5 -38q-150 0 -268 72t-181 192t-63 264q0 121 41.5 227.5t113.5 181.5t171.5 118.5t211.5 43.5q78 0 139 -14t97.5 -38t57 -46.5
t32.5 -48.5q1 11 3 57t3 62h326q-2 -104 -2 -311v-629q0 -296 -144 -445t-471 -149q-97 0 -178.5 15t-137.5 39t-100.5 58t-70.5 67t-45 72.5t-26.5 67.5t-12.5 58zM684 244q129 0 197.5 75t68.5 220q0 132 -66.5 210t-189.5 78q-128 0 -200 -84t-72 -215q0 -122 69 -203
t193 -81z" />
    <glyph glyph-name="uni02BB" unicode="&#x2bb;" horiz-adv-x="868" 
d="M547 864h-342q19 171 75.5 354.5t118.5 303.5h265q-101 -345 -117 -658z" />
    <glyph glyph-name="uni02BC" unicode="&#x2bc;" horiz-adv-x="868" 
d="M322 1526h342q-20 -171 -77 -354.5t-118 -305.5h-264q98 334 117 660z" />
    <glyph glyph-name="uni02BE" unicode="&#x2be;" horiz-adv-x="704" 
d="M209 1092v149q46 3 72 26.5t26 63.5q0 39 -28 62t-74 26v150q127 0 211 -61.5t84 -174.5q0 -118 -85 -179.5t-206 -61.5z" />
    <glyph glyph-name="uni02BF" unicode="&#x2bf;" horiz-adv-x="704" 
d="M498 1563v-150q-48 -3 -74.5 -26t-26.5 -64q0 -37 28.5 -60t74.5 -26v-152q-127 0 -211 61.5t-84 174.5q0 81 43.5 137.5t108 80.5t141.5 24z" />
    <glyph glyph-name="circumflex" unicode="&#x2c6;" 
d="M-20 1214l272 318h315l271 -318h-287l-145 166l-136 -166h-290z" />
    <glyph glyph-name="caron" unicode="&#x2c7;" 
d="M565 1210h-315l-270 320h286l146 -166l135 166h291z" />
    <glyph glyph-name="uni02C8" unicode="&#x2c8;" horiz-adv-x="681" 
d="M477 1114h-272v424h272v-424z" />
    <glyph glyph-name="uni02C9" unicode="&#x2c9;" horiz-adv-x="1079" 
d="M205 1268v217h669v-217h-669z" />
    <glyph glyph-name="uni02CA" unicode="&#x2ca;" horiz-adv-x="1038" 
d="M223 1231l283 317h383l-371 -317h-295z" />
    <glyph glyph-name="uni02CB" unicode="&#x2cb;" horiz-adv-x="1040" 
d="M526 1231l-385 317h383l293 -317h-291z" />
    <glyph glyph-name="uni02CC" unicode="&#x2cc;" horiz-adv-x="681" 
d="M477 -524h-272v424h272v-424z" />
    <glyph glyph-name="breve" unicode="&#x2d8;" 
d="M565 1548h221q-10 -70 -36 -128.5t-70 -107t-114 -75.5t-160 -27q-93 0 -165 28.5t-115.5 77.5t-66.5 107t-28 125h223q32 -129 156 -129q75 0 106.5 33t48.5 96z" />
    <glyph glyph-name="dotaccent" unicode="&#x2d9;" 
d="M573 1257h-333v269h333v-269z" />
    <glyph glyph-name="ring" unicode="&#x2da;" 
d="M145 1384q0 99 70.5 164.5t196.5 65.5q124 0 193 -63.5t69 -164.5q0 -102 -70.5 -165.5t-191.5 -63.5q-124 0 -195.5 63.5t-71.5 163.5zM307 1386q0 -40 25 -69t76 -29q52 0 79 27.5t27 68.5q0 42 -26 71.5t-78 29.5t-77.5 -29t-25.5 -70z" />
    <glyph glyph-name="ogonek" unicode="&#x2db;" 
d="M680 -246v-209q-73 -41 -205 -41q-133 0 -207.5 65.5t-74.5 186.5q0 68 35.5 137.5t93.5 120.5l249 -14q-51 -37 -78.5 -81.5t-27.5 -86.5q0 -94 106 -94q46 0 109 16z" />
    <glyph glyph-name="tilde" unicode="&#x2dc;" 
d="M223 1217h-196v73q0 136 54.5 189t154.5 53q57 0 116 -24t107 -48t78 -24q63 0 63 82v20h191v-59q0 -79 -15 -133t-44 -82.5t-65 -40t-85 -11.5q-48 0 -95.5 15t-78.5 33.5t-66 33.5t-61 15q-58 0 -58 -60v-32z" />
    <glyph glyph-name="hungarumlaut" unicode="&#x2dd;" 
d="M287 1204h-236l223 322h295zM729 1204h-235l223 322h295z" />
    <glyph glyph-name="uni0300" unicode="&#x300;" horiz-adv-x="0" 
d="M6 1231l-385 317h383l293 -317h-291z" />
    <glyph glyph-name="uni0301" unicode="&#x301;" horiz-adv-x="0" 
d="M-297 1231l283 317h383l-371 -317h-295z" />
    <glyph glyph-name="uni0302" unicode="&#x302;" horiz-adv-x="0" 
d="M-430 1214l272 318h316l270 -318h-287l-145 166l-135 -166h-291z" />
    <glyph glyph-name="uni0303" unicode="&#x303;" horiz-adv-x="0" 
d="M-186 1217h-197v73q0 136 54.5 189t154.5 53q57 0 116 -24t107 -48t78 -24q63 0 63 82v20h191v-59q0 -79 -15 -133t-44 -82.5t-65 -40t-85 -11.5q-48 0 -95.5 15t-78.5 33.5t-66 33.5t-61 15q-57 0 -57 -60v-32z" />
    <glyph glyph-name="uni0304" unicode="&#x304;" horiz-adv-x="0" 
d="M-336 1268v217h670v-217h-670z" />
    <glyph glyph-name="uni0306" unicode="&#x306;" horiz-adv-x="0" 
d="M156 1548h221q-10 -70 -36 -128.5t-70.5 -106.5t-114.5 -75.5t-160 -27.5q-93 0 -165 28.5t-115.5 77.5t-66.5 107t-28 125h223q32 -129 156 -129q40 0 68 10t45 30t26 39.5t17 49.5z" />
    <glyph glyph-name="uni0307" unicode="&#x307;" horiz-adv-x="0" 
d="M164 1257h-334v269h334v-269z" />
    <glyph glyph-name="uni0308" unicode="&#x308;" horiz-adv-x="0" 
d="M-90 1257h-289v269h289v-269zM377 1257h-289v269h289v-269z" />
    <glyph glyph-name="uni0309" unicode="&#x309;" horiz-adv-x="0" 
d="M-205 1382l-55 150q101 63 242 63q122 0 184.5 -51.5t62.5 -140.5q0 -113 -112 -211h-240q57 60 76.5 88.5t19.5 60.5q0 29 -18 48.5t-53 19.5q-55 0 -107 -27z" />
    <glyph glyph-name="uni030A" unicode="&#x30a;" horiz-adv-x="0" 
d="M-264 1384q0 100 70 165t196 65q124 0 193 -63.5t69 -164.5q0 -102 -70.5 -165.5t-191.5 -63.5q-124 0 -195 63.5t-71 163.5zM-102 1386q0 -40 24.5 -69t75.5 -29q52 0 79 27.5t27 68.5q0 42 -26 71.5t-78 29.5t-77 -29t-25 -70z" />
    <glyph glyph-name="uni030B" unicode="&#x30b;" horiz-adv-x="0" 
d="M-225 1204h-236l223 322h295zM217 1204h-235l223 322h295z" />
    <glyph glyph-name="uni030C" unicode="&#x30c;" horiz-adv-x="0" 
d="M156 1210h-316l-270 320h287l145 -166l135 166h291z" />
    <glyph glyph-name="uni031B" unicode="&#x31b;" horiz-adv-x="0" 
d="M-96 1319h295q14 -57 14 -135q0 -133 -81 -221t-234 -103l-78 199q104 10 104 129q0 63 -20 131z" />
    <glyph glyph-name="uni0323" unicode="&#x323;" horiz-adv-x="0" 
d="M168 -428h-338v285h338v-285z" />
    <glyph glyph-name="uni0324" unicode="&#x324;" horiz-adv-x="0" 
d="M-90 -410h-289v269h289v-269zM377 -410h-289v269h289v-269z" />
    <glyph glyph-name="uni0326" unicode="&#x326;" horiz-adv-x="0" 
d="M-82 -145h270q0 -102 -29.5 -211.5t-90.5 -182.5h-258q108 201 108 394z" />
    <glyph glyph-name="uni0327" unicode="&#x327;" horiz-adv-x="0" 
d="M-244 -500l2 160q68 -14 129 -14q117 0 117 57q0 38 -53.5 52.5t-163.5 17.5v69l152 181l208 -23l-90 -102q34 -6 64.5 -18t63.5 -33.5t53 -59.5t20 -86q0 -53 -21 -93.5t-53 -64t-76.5 -38.5t-85 -20t-85.5 -5q-126 0 -181 20z" />
    <glyph glyph-name="uni0328" unicode="&#x328;" horiz-adv-x="0" 
d="M236 -246v-209q-73 -41 -205 -41q-133 0 -208 65.5t-75 186.5q0 68 35.5 137.5t93.5 120.5l250 -14q-107 -78 -107 -168q0 -94 107 -94q46 0 109 16z" />
    <glyph glyph-name="uni032E" unicode="&#x32e;" horiz-adv-x="0" 
d="M156 -115h221q-10 -70 -36 -128.5t-70.5 -106.5t-114.5 -75.5t-160 -27.5q-93 0 -165 28.5t-115.5 77.5t-66.5 107t-28 125h223q32 -129 156 -129q40 0 68 10t45 30t26 39.5t17 49.5z" />
    <glyph glyph-name="uni0331" unicode="&#x331;" horiz-adv-x="0" 
d="M-336 -377v217h670v-217h-670z" />
    <glyph glyph-name="pi" unicode="&#x3c0;" horiz-adv-x="1351" 
d="M170 0v817q-131 0 -168 -6l2 231q87 17 334 17h985v-246h-156v-813h-338v817h-325v-817h-334z" />
    <glyph glyph-name="uni1E0C" unicode="&#x1e0c;" horiz-adv-x="1691" 
d="M834 0h-646v1442h652q177 0 321 -55t237 -150.5t143 -221.5t50 -270q0 -169 -59.5 -310.5t-161.5 -236t-240.5 -146.5t-295.5 -52zM539 1174v-904h247q213 0 324 118.5t111 348.5q0 204 -108 319t-322 118h-252zM948 -428h-338v285h338v-285z" />
    <glyph glyph-name="uni1E0D" unicode="&#x1e0d;" horiz-adv-x="1423" 
d="M1284 0h-330q-3 25 -8 123q-35 -48 -69.5 -77.5t-107 -52t-175.5 -22.5q-224 0 -369 152t-145 397q0 129 48 238t126.5 179.5t175 110t195.5 39.5q137 0 213 -33.5t108 -76.5v549h336v-1229q0 -199 2 -297zM692 233q127 0 194.5 78t67.5 217q0 299 -262 299
q-128 0 -198 -87t-70 -212q0 -130 71 -212.5t197 -82.5zM879 -428h-338v285h338v-285z" />
    <glyph glyph-name="uni1E0E" unicode="&#x1e0e;" horiz-adv-x="1691" 
d="M834 0h-646v1442h652q177 0 321 -55t237 -150.5t143 -221.5t50 -270q0 -169 -59.5 -310.5t-161.5 -236t-240.5 -146.5t-295.5 -52zM539 1174v-904h247q213 0 324 118.5t111 348.5q0 204 -108 319t-322 118h-252zM446 -377v217h670v-217h-670z" />
    <glyph glyph-name="uni1E0F" unicode="&#x1e0f;" horiz-adv-x="1423" 
d="M1284 0h-330q-3 25 -8 123q-35 -48 -69.5 -77.5t-107 -52t-175.5 -22.5q-224 0 -369 152t-145 397q0 129 48 238t126.5 179.5t175 110t195.5 39.5q137 0 213 -33.5t108 -76.5v549h336v-1229q0 -199 2 -297zM692 233q127 0 194.5 78t67.5 217q0 299 -262 299
q-128 0 -198 -87t-70 -212q0 -130 71 -212.5t197 -82.5zM375 -377v217h669v-217h-669z" />
    <glyph glyph-name="uni1E20" unicode="&#x1e20;" horiz-adv-x="1736" 
d="M901 557v270h690v-827h-254q-12 48 -24 147q-73 -89 -184 -133.5t-302 -44.5q-171 0 -310 57t-229.5 157t-139 235.5t-48.5 294.5q0 127 32.5 241t98.5 209t159.5 164t222 107.5t280.5 38.5q134 0 246.5 -28t189 -73.5t134 -107t88 -124t42.5 -128.5h-352
q-10 26 -24.5 49.5t-43 51.5t-64.5 48t-92 33.5t-124 13.5q-108 0 -191 -37t-133 -102.5t-75 -151t-25 -188.5q0 -145 44.5 -254t142.5 -174t241 -65q176 0 265 81.5t89 217.5v22h-350zM510 1620v215h711v-215h-711z" />
    <glyph glyph-name="uni1E21" unicode="&#x1e21;" horiz-adv-x="1415" 
d="M88 -98h338q14 -38 38.5 -64.5t78.5 -45.5t135 -19q63 0 110.5 16.5t77 44t47.5 69t24.5 86.5t6.5 103v45q-52 -73 -130.5 -111t-221.5 -38q-150 0 -268 72t-181 192t-63 264q0 121 41.5 227.5t113.5 181.5t171.5 118.5t211.5 43.5q78 0 139 -14t97.5 -38t57 -46.5
t32.5 -48.5q1 11 3 57t3 62h326q-2 -104 -2 -311v-629q0 -296 -144 -445t-471 -149q-97 0 -178.5 15t-137.5 39t-100.5 58t-70.5 67t-45 72.5t-26.5 67.5t-12.5 58zM684 244q129 0 197.5 75t68.5 220q0 132 -66.5 210t-189.5 78q-128 0 -200 -84t-72 -215q0 -122 69 -203
t193 -81zM373 1268v217h669v-217h-669z" />
    <glyph glyph-name="uni1E24" unicode="&#x1e24;" horiz-adv-x="1740" 
d="M539 0h-351v1442h351v-541h663v541h350v-1442h-350v621h-663v-621zM1038 -428h-338v285h338v-285z" />
    <glyph glyph-name="uni1E25" unicode="&#x1e25;" horiz-adv-x="1380" 
d="M141 0v1526h332v-600q112 161 350 161q200 0 308 -114t108 -338v-635h-338v598q0 112 -40.5 170.5t-147.5 58.5q-117 0 -177.5 -82.5t-60.5 -236.5v-508h-334zM858 -428h-338v285h338v-285z" />
    <glyph glyph-name="uni1E2A" unicode="&#x1e2a;" horiz-adv-x="1740" 
d="M539 0h-351v1442h351v-541h663v541h350v-1442h-350v621h-663v-621zM1026 -115h221q-10 -70 -36 -128.5t-70.5 -106.5t-114.5 -75.5t-160 -27.5q-93 0 -165 28.5t-115 77.5t-66 107t-28 125h223q32 -129 155 -129q40 0 68 10t45 30t26 39.5t17 49.5z" />
    <glyph glyph-name="uni1E2B" unicode="&#x1e2b;" horiz-adv-x="1380" 
d="M141 0v1526h332v-600q112 161 350 161q200 0 308 -114t108 -338v-635h-338v598q0 112 -40.5 170.5t-147.5 58.5q-117 0 -177.5 -82.5t-60.5 -236.5v-508h-334zM846 -115h221q-10 -70 -36 -128.5t-70.5 -106.5t-114.5 -75.5t-160 -27.5q-93 0 -165 28.5t-115.5 77.5
t-66.5 107t-28 125h224q32 -129 155 -129q40 0 68 10t45 30t26 39.5t17 49.5z" />
    <glyph glyph-name="uni1E36" unicode="&#x1e36;" horiz-adv-x="1376" 
d="M539 281h807l-48 -281h-1110v1442h351v-1161zM907 -428h-338v285h338v-285z" />
    <glyph glyph-name="uni1E37" unicode="&#x1e37;" horiz-adv-x="616" 
d="M475 0h-334v1526h334v-1526zM475 -428h-338v285h338v-285z" />
    <glyph glyph-name="uni1E38" unicode="&#x1e38;" horiz-adv-x="1376" 
d="M539 281h807l-48 -281h-1110v1442h351v-1161zM10 1597v215h711v-215h-711zM907 -428h-338v285h338v-285z" />
    <glyph glyph-name="uni1E39" unicode="&#x1e39;" horiz-adv-x="616" 
d="M475 0h-334v1526h334v-1526zM-29 1667v217h670v-217h-670zM475 -428h-338v285h338v-285z" />
    <glyph glyph-name="uni1E3A" unicode="&#x1e3a;" horiz-adv-x="1376" 
d="M539 281h807l-48 -281h-1110v1442h351v-1161zM399 -377v217h670v-217h-670z" />
    <glyph glyph-name="uni1E3B" unicode="&#x1e3b;" horiz-adv-x="616" 
d="M475 0h-334v1526h334v-1526zM-29 -377v217h670v-217h-670z" />
    <glyph glyph-name="uni1E42" unicode="&#x1e42;" horiz-adv-x="2043" 
d="M188 0v1442h506q34 -105 101 -312.5t99.5 -308t68.5 -223t51 -192.5h2q27 103 74 250t132 403.5t126 382.5h510v-1442h-338v553q0 468 10 668h-2q-68 -252 -379 -1221h-307q-71 253 -199.5 677t-161.5 542h-2q25 -415 25 -693v-526h-316zM1165 -428h-338v285h338v-285z
" />
    <glyph glyph-name="uni1E43" unicode="&#x1e43;" horiz-adv-x="2002" 
d="M471 0h-330v784q0 183 -2 275h320q8 -55 8 -125q111 153 324 153q238 0 319 -174q123 174 356 174q85 0 155.5 -26t125 -79t85 -140.5t30.5 -202.5v-639h-330v631q0 38 -7.5 71t-25 64.5t-52.5 49.5t-85 18q-193 0 -193 -250v-584h-331v633q0 88 -40 144.5t-132 56.5
q-99 0 -147 -65.5t-48 -184.5v-584zM1169 -428h-338v285h338v-285z" />
    <glyph glyph-name="uni1E44" unicode="&#x1e44;" horiz-adv-x="1761" 
d="M508 0h-320v1442h414q121 -184 256.5 -388t196 -294.5t117 -180.5t88.5 -151h4q-13 141 -13 657v357h322v-1442h-389q-23 37 -202.5 318.5t-311.5 493t-170 284.5h-4q12 -176 12 -639v-457zM1049 1593h-334v269h334v-269z" />
    <glyph glyph-name="uni1E45" unicode="&#x1e45;" horiz-adv-x="1382" 
d="M477 0h-336v791q0 192 -2 268h326q6 -44 10 -137q109 165 352 165q195 0 304.5 -115t109.5 -319v-653h-338v600q0 101 -45.5 164t-150.5 63q-230 0 -230 -299v-528zM856 1257h-334v269h334v-269z" />
    <glyph glyph-name="uni1E46" unicode="&#x1e46;" horiz-adv-x="1761" 
d="M508 0h-320v1442h414q121 -184 256.5 -388t196 -294.5t117 -180.5t88.5 -151h4q-13 141 -13 657v357h322v-1442h-389q-23 37 -202.5 318.5t-311.5 493t-170 284.5h-4q12 -176 12 -639v-457zM1049 -428h-338v285h338v-285z" />
    <glyph glyph-name="uni1E47" unicode="&#x1e47;" horiz-adv-x="1382" 
d="M477 0h-336v791q0 192 -2 268h326q6 -44 10 -137q109 165 352 165q195 0 304.5 -115t109.5 -319v-653h-338v600q0 101 -45.5 164t-150.5 63q-230 0 -230 -299v-528zM858 -428h-338v285h338v-285z" />
    <glyph glyph-name="uni1E48" unicode="&#x1e48;" horiz-adv-x="1761" 
d="M508 0h-320v1442h414q121 -184 256.5 -388t196 -294.5t117 -180.5t88.5 -151h4q-13 141 -13 657v357h322v-1442h-389q-23 37 -202.5 318.5t-311.5 493t-170 284.5h-4q12 -176 12 -639v-457zM545 -377v217h669v-217h-669z" />
    <glyph glyph-name="uni1E49" unicode="&#x1e49;" horiz-adv-x="1382" 
d="M477 0h-336v791q0 192 -2 268h326q6 -44 10 -137q109 165 352 165q195 0 304.5 -115t109.5 -319v-653h-338v600q0 101 -45.5 164t-150.5 63q-230 0 -230 -299v-528zM354 -377v217h670v-217h-670z" />
    <glyph glyph-name="uni1E5A" unicode="&#x1e5a;" horiz-adv-x="1601" 
d="M190 0v1442h785q247 0 385.5 -111.5t138.5 -300.5q0 -133 -69 -218.5t-183 -121.5q23 -10 31 -13.5t36 -19.5t42.5 -30.5t37.5 -42t35 -58.5t21.5 -77t9.5 -99v-71q0 -207 19 -279h-359q-17 43 -21.5 106t-4.5 195v49q0 113 -55.5 159t-209.5 46h-292v-555h-347z
M537 1180v-361h360q126 0 185 45t59 137q0 179 -242 179h-362zM969 -428h-338v285h338v-285z" />
    <glyph glyph-name="uni1E5B" unicode="&#x1e5b;" horiz-adv-x="925" 
d="M477 0h-334v770q0 193 -2 289h326q10 -65 10 -213q47 111 149.5 176.5t258.5 62.5v-305q-94 2 -166 -17.5t-127.5 -64t-85 -123t-29.5 -188.5v-387zM479 -428h-338v285h338v-285z" />
    <glyph glyph-name="uni1E5C" unicode="&#x1e5c;" horiz-adv-x="1601" 
d="M190 0v1442h785q247 0 385.5 -111.5t138.5 -300.5q0 -133 -69 -218.5t-183 -121.5q23 -10 31 -13.5t36 -19.5t42.5 -30.5t37.5 -42t35 -58.5t21.5 -77t9.5 -99v-71q0 -207 19 -279h-359q-17 43 -21.5 106t-4.5 195v49q0 113 -55.5 159t-209.5 46h-292v-555h-347z
M537 1180v-361h360q126 0 185 45t59 137q0 179 -242 179h-362zM442 1593v215h711v-215h-711zM961 -428h-338v285h338v-285z" />
    <glyph glyph-name="uni1E5D" unicode="&#x1e5d;" horiz-adv-x="925" 
d="M477 0h-334v770q0 193 -2 289h326q10 -65 10 -213q47 111 149.5 176.5t258.5 62.5v-305q-94 2 -166 -17.5t-127.5 -64t-85 -123t-29.5 -188.5v-387zM170 1268v217h670v-217h-670zM479 -428h-338v285h338v-285z" />
    <glyph glyph-name="uni1E5E" unicode="&#x1e5e;" horiz-adv-x="1601" 
d="M190 0v1442h785q247 0 385.5 -111.5t138.5 -300.5q0 -133 -69 -218.5t-183 -121.5q23 -10 31 -13.5t36 -19.5t42.5 -30.5t37.5 -42t35 -58.5t21.5 -77t9.5 -99v-71q0 -207 19 -279h-359q-17 43 -21.5 106t-4.5 195v49q0 113 -55.5 159t-209.5 46h-292v-555h-347z
M537 1180v-361h360q126 0 185 45t59 137q0 179 -242 179h-362zM481 -377v217h670v-217h-670z" />
    <glyph glyph-name="uni1E5F" unicode="&#x1e5f;" horiz-adv-x="925" 
d="M477 0h-334v770q0 193 -2 289h326q10 -65 10 -213q47 111 149.5 176.5t258.5 62.5v-305q-94 2 -166 -17.5t-127.5 -64t-85 -123t-29.5 -188.5v-387zM-14 -377v217h669v-217h-669z" />
    <glyph glyph-name="uni1E60" unicode="&#x1e60;" horiz-adv-x="1529" 
d="M1368 1049h-350q-7 26 -16.5 45.5t-32 44t-53.5 40.5t-84 27t-121 11q-123 0 -186.5 -38.5t-63.5 -109.5q0 -43 26 -71t98 -53t206 -48q160 -29 275.5 -67.5t183.5 -80.5t107.5 -97t52.5 -107t13 -121q0 -96 -39 -176.5t-119 -143.5t-213 -98t-309 -35q-164 0 -292 35
t-210 98.5t-130.5 145t-65.5 182.5h352q33 -101 120.5 -154t258.5 -53q158 0 223.5 43t65.5 119q0 53 -28.5 87.5t-110 64.5t-230.5 55q-147 25 -254 60.5t-171.5 75.5t-102.5 91.5t-51 101.5t-13 113q0 106 48.5 189.5t133 136.5t196 80.5t241.5 27.5q142 0 255 -28
t181.5 -71t116 -101.5t67.5 -112t25 -108.5zM932 1593h-334v269h334v-269z" />
    <glyph glyph-name="uni1E61" unicode="&#x1e61;" horiz-adv-x="1210" 
d="M1106 760h-328q-15 47 -58.5 76.5t-144.5 29.5q-149 0 -149 -86q0 -24 16 -40t67 -31t148 -29q90 -14 162 -33t122.5 -40.5t87.5 -48.5t58.5 -53t34.5 -58t17 -60t4 -63q0 -75 -29.5 -137t-91 -111.5t-166.5 -77t-246 -27.5q-223 0 -374 93t-175 262h332
q44 -125 240 -125q182 0 182 94q0 31 -20 50.5t-76 36t-162 30.5q-116 16 -202 44.5t-134 60t-77 72.5t-37.5 76.5t-8.5 79.5q0 65 25.5 122.5t80 108.5t153.5 81t231 30q108 0 195.5 -19.5t144.5 -51.5t96.5 -75.5t58.5 -88t23 -92.5zM770 1257h-334v269h334v-269z" />
    <glyph glyph-name="uni1E62" unicode="&#x1e62;" horiz-adv-x="1529" 
d="M1368 1049h-350q-7 26 -16.5 45.5t-32 44t-53.5 40.5t-84 27t-121 11q-123 0 -186.5 -38.5t-63.5 -109.5q0 -43 26 -71t98 -53t206 -48q160 -29 275.5 -67.5t183.5 -80.5t107.5 -97t52.5 -107t13 -121q0 -96 -39 -176.5t-119 -143.5t-213 -98t-309 -35q-164 0 -292 35
t-210 98.5t-130.5 145t-65.5 182.5h352q33 -101 120.5 -154t258.5 -53q158 0 223.5 43t65.5 119q0 53 -28.5 87.5t-110 64.5t-230.5 55q-147 25 -254 60.5t-171.5 75.5t-102.5 91.5t-51 101.5t-13 113q0 106 48.5 189.5t133 136.5t196 80.5t241.5 27.5q142 0 255 -28
t181.5 -71t116 -101.5t67.5 -112t25 -108.5zM932 -428h-338v285h338v-285z" />
    <glyph glyph-name="uni1E63" unicode="&#x1e63;" horiz-adv-x="1210" 
d="M1106 760h-328q-15 47 -58.5 76.5t-144.5 29.5q-149 0 -149 -86q0 -24 16 -40t67 -31t148 -29q90 -14 162 -33t122.5 -40.5t87.5 -48.5t58.5 -53t34.5 -58t17 -60t4 -63q0 -75 -29.5 -137t-91 -111.5t-166.5 -77t-246 -27.5q-223 0 -374 93t-175 262h332
q44 -125 240 -125q182 0 182 94q0 31 -20 50.5t-76 36t-162 30.5q-116 16 -202 44.5t-134 60t-77 72.5t-37.5 76.5t-8.5 79.5q0 65 25.5 122.5t80 108.5t153.5 81t231 30q108 0 195.5 -19.5t144.5 -51.5t96.5 -75.5t58.5 -88t23 -92.5zM774 -428h-338v285h338v-285z" />
    <glyph glyph-name="uni1E6C" unicode="&#x1e6c;" horiz-adv-x="1394" 
d="M872 0h-350v1163h-508v279h1364v-279h-506v-1163zM864 -428h-338v285h338v-285z" />
    <glyph glyph-name="uni1E6D" unicode="&#x1e6d;" horiz-adv-x="860" 
d="M223 311v504h-190v244h190v311h336v-311h246v-244h-246v-446q0 -72 24 -101.5t97 -29.5q61 0 90 6v-230q-78 -22 -211 -22q-96 0 -162 20t-104 62t-54 99t-16 138zM621 -428h-338v285h338v-285z" />
    <glyph glyph-name="uni1E6E" unicode="&#x1e6e;" horiz-adv-x="1394" 
d="M872 0h-350v1163h-508v279h1364v-279h-506v-1163zM360 -377v217h670v-217h-670z" />
    <glyph glyph-name="uni1E6F" unicode="&#x1e6f;" horiz-adv-x="860" 
d="M223 311v504h-190v244h190v311h336v-311h246v-244h-246v-446q0 -72 24 -101.5t97 -29.5q61 0 90 6v-230q-78 -22 -211 -22q-96 0 -162 20t-104 62t-54 99t-16 138zM135 -377v217h670v-217h-670z" />
    <glyph glyph-name="Wgrave" unicode="&#x1e80;" horiz-adv-x="2209" 
d="M807 0h-377l-410 1442h367q14 -55 55 -213.5t66 -258t57.5 -235.5t53.5 -241t30 -179h2q49 279 293 1127h334q243 -855 291 -1116h4q38 244 248 1048q12 46 18 68h352l-436 -1442h-379q-70 241 -160.5 581t-125.5 494h-3q-7 -40 -17 -87.5t-25 -108.5t-27 -111
t-33 -128.5t-33.5 -124t-37.5 -136t-35.5 -127t-37.5 -133t-34 -119.5zM977 1577l-449 285h426l330 -285h-307z" />
    <glyph glyph-name="wgrave" unicode="&#x1e81;" horiz-adv-x="1812" 
d="M338 0l-315 1059h346q152 -629 178 -799h2q60 254 213 799h313q170 -615 203 -793h2q33 205 182 793h328l-332 -1059h-360q-171 598 -193 686h-2q-77 -302 -201 -686h-364zM784 1231l-385 317h383l293 -317h-291z" />
    <glyph glyph-name="Wacute" unicode="&#x1e82;" horiz-adv-x="2209" 
d="M807 0h-377l-410 1442h367q14 -55 55 -213.5t66 -258t57.5 -235.5t53.5 -241t30 -179h2q49 279 293 1127h334q243 -855 291 -1116h4q38 244 248 1048q12 46 18 68h352l-436 -1442h-379q-70 241 -160.5 581t-125.5 494h-3q-7 -40 -17 -87.5t-25 -108.5t-27 -111
t-33 -128.5t-33.5 -124t-37.5 -136t-35.5 -127t-37.5 -133t-34 -119.5zM922 1577l342 285h426l-449 -285h-319z" />
    <glyph glyph-name="wacute" unicode="&#x1e83;" horiz-adv-x="1812" 
d="M338 0l-315 1059h346q152 -629 178 -799h2q60 254 213 799h313q170 -615 203 -793h2q33 205 182 793h328l-332 -1059h-360q-171 598 -193 686h-2q-77 -302 -201 -686h-364zM754 1231l282 317h383l-370 -317h-295z" />
    <glyph glyph-name="Wdieresis" unicode="&#x1e84;" horiz-adv-x="2209" 
d="M1010 1577h-289v268h289v-268zM1483 1577h-289v268h289v-268zM807 0h-377l-410 1442h367q14 -55 55 -213.5t66 -258t57.5 -235.5t53.5 -241t30 -179h2q49 279 293 1127h334q243 -855 291 -1116h4q38 244 248 1048q12 46 18 68h352l-436 -1442h-379q-70 241 -160.5 581
t-125.5 494h-3q-7 -40 -17 -87.5t-25 -108.5t-27 -111t-33 -128.5t-33.5 -124t-37.5 -136t-35.5 -127t-37.5 -133t-34 -119.5z" />
    <glyph glyph-name="wdieresis" unicode="&#x1e85;" horiz-adv-x="1812" 
d="M817 1257h-289v269h289v-269zM1284 1257h-289v269h289v-269zM338 0l-315 1059h346q152 -629 178 -799h2q60 254 213 799h313q170 -615 203 -793h2q33 205 182 793h328l-332 -1059h-360q-171 598 -193 686h-2q-77 -302 -201 -686h-364z" />
    <glyph glyph-name="uni1E8E" unicode="&#x1e8e;" horiz-adv-x="1431" 
d="M891 0h-350v516q0 18 -19 47l-596 879h416q27 -43 86 -136t94 -149.5t80 -129.5t76.5 -128t50.5 -94q33 60 96 161.5t160.5 254t140.5 221.5h381l-608 -893q-8 -16 -8 -39v-510zM885 1556h-334v269h334v-269z" />
    <glyph glyph-name="uni1E8F" unicode="&#x1e8f;" horiz-adv-x="1273" 
d="M141 -463v270q73 -6 107 -6q54 0 89.5 8t61.5 30.5t42 47t40 72.5l-471 1100h367q214 -539 280 -791h7q94 335 254 791h342l-355 -907q-108 -280 -155 -370q-74 -143 -167 -198q-98 -59 -278 -59q-105 0 -164 12zM801 1257h-334v269h334v-269z" />
    <glyph glyph-name="uni1E92" unicode="&#x1e92;" horiz-adv-x="1464" 
d="M59 0v254l871 915h-828v273h1268v-275l-854 -895h922l-39 -272h-1340zM899 -428h-338v285h338v-285z" />
    <glyph glyph-name="uni1E93" unicode="&#x1e93;" horiz-adv-x="1183" 
d="M66 0v240l608 563h-574v256h994v-246l-586 -555h635l-37 -258h-1040zM762 -428h-338v285h338v-285z" />
    <glyph glyph-name="uni1E97" unicode="&#x1e97;" horiz-adv-x="860" 
d="M297 1473h-289v268h289v-268zM764 1473h-289v268h289v-268zM223 311v504h-190v244h190v311h336v-311h246v-244h-246v-446q0 -72 24 -101.5t97 -29.5q61 0 90 6v-230q-78 -22 -211 -22q-96 0 -162 20t-104 62t-54 99t-16 138z" />
    <glyph glyph-name="uni1E9E" unicode="&#x1e9e;" horiz-adv-x="1685" 
d="M197 0v1018q0 220 166.5 337.5t482.5 117.5q152 0 271 -28t190.5 -71t118 -100.5t64 -112t17.5 -110.5q0 -38 -6 -72l-340 -156v-4l113 -53q185 -86 261.5 -177t76.5 -224q0 -182 -128.5 -287t-393.5 -105q-120 0 -229.5 28t-174.5 77v299q80 -72 184 -116t217 -44
q187 0 187 115q0 51 -43.5 89.5t-163.5 92.5l-240 111q-103 50 -106.5 138t98.5 144l330 176q0 50 -80 94t-211 44q-166 0 -238.5 -60t-72.5 -221v-940h-350z" />
    <glyph glyph-name="uni1EA0" unicode="&#x1ea0;" horiz-adv-x="1636" 
d="M-2 0l580 1442h450l610 -1442h-378l-136 328h-641l-125 -328h-360zM793 1217h-2q-52 -179 -218 -609h455q-183 448 -235 609zM983 -428h-338v285h338v-285z" />
    <glyph glyph-name="uni1EA1" unicode="&#x1ea1;" horiz-adv-x="1327" 
d="M477 745h-334q3 44 16.5 86.5t50 90.5t91.5 83t149 58.5t214 23.5q96 0 173.5 -13t131 -34t94 -52.5t64 -64.5t38 -74.5t19 -77t4.5 -77.5v-397q0 -205 8 -297h-315q-6 19 -13 119q-94 -148 -379 -148q-104 0 -184.5 29.5t-127 80t-70 110.5t-23.5 126q0 100 42 171
t120 110.5t174 56.5t219 17h221v33q0 73 -42 114t-150 41q-98 0 -138.5 -30.5t-52.5 -84.5zM408 334q0 -56 45 -90.5t133 -34.5q136 0 205 60t69 175v17q-25 2 -215 2q-125 0 -181 -32t-56 -97zM831 -428h-337v285h337v-285z" />
    <glyph glyph-name="uni1EA2" unicode="&#x1ea2;" horiz-adv-x="1636" 
d="M-2 0l580 1442h450l610 -1442h-378l-136 328h-641l-125 -328h-360zM793 1217h-2q-52 -179 -218 -609h455q-183 448 -235 609zM610 1735l-55 149q103 64 242 64q122 0 184.5 -52t62.5 -141q0 -113 -112 -211h-240q56 60 76 88.5t20 61.5q0 28 -18 47.5t-53 19.5
q-57 0 -107 -26z" />
    <glyph glyph-name="uni1EA3" unicode="&#x1ea3;" horiz-adv-x="1327" 
d="M477 745h-334q3 44 16.5 86.5t50 90.5t91.5 83t149 58.5t214 23.5q96 0 173.5 -13t131 -34t94 -52.5t64 -64.5t38 -74.5t19 -77t4.5 -77.5v-397q0 -205 8 -297h-315q-6 19 -13 119q-94 -148 -379 -148q-104 0 -184.5 29.5t-127 80t-70 110.5t-23.5 126q0 100 42 171
t120 110.5t174 56.5t219 17h221v33q0 73 -42 114t-150 41q-98 0 -138.5 -30.5t-52.5 -84.5zM408 334q0 -56 45 -90.5t133 -34.5q136 0 205 60t69 175v17q-25 2 -215 2q-125 0 -181 -32t-56 -97zM457 1382l-56 150q101 63 242 63q123 0 185.5 -51.5t62.5 -140.5
q0 -112 -113 -211h-239q57 60 76.5 88.5t19.5 60.5q0 28 -18.5 48t-53.5 20q-54 0 -106 -27z" />
    <glyph glyph-name="uni1EA4" unicode="&#x1ea4;" horiz-adv-x="1636" 
d="M336 1556l280 275h385l277 -275h-311l-160 142l-154 -142h-317zM1130 1790l216 242h335l-286 -242h-265zM-2 0l580 1442h450l610 -1442h-378l-136 328h-641l-125 -328h-360zM793 1217h-2q-52 -179 -218 -609h455q-183 448 -235 609z" />
    <glyph glyph-name="uni1EA5" unicode="&#x1ea5;" horiz-adv-x="1327" 
d="M252 1200l254 285h297l270 -285h-280l-136 143l-131 -143h-274zM920 1438l229 272h317l-299 -272h-247zM477 745h-334q3 44 16.5 86.5t50 90.5t91.5 83t149 58.5t214 23.5q96 0 173.5 -13t131 -34t94 -52.5t64 -64.5t38 -74.5t19 -77t4.5 -77.5v-397q0 -205 8 -297h-315
q-6 19 -13 119q-94 -148 -379 -148q-104 0 -184.5 29.5t-127 80t-70 110.5t-23.5 126q0 100 42 171t120 110.5t174 56.5t219 17h221v33q0 73 -42 114t-150 41q-98 0 -138.5 -30.5t-52.5 -84.5zM408 334q0 -56 45 -90.5t133 -34.5q136 0 205 60t69 175v17q-25 2 -215 2
q-125 0 -181 -32t-56 -97z" />
    <glyph glyph-name="uni1EA6" unicode="&#x1ea6;" horiz-adv-x="1636" 
d="M336 1556l280 275h385l277 -275h-311l-160 142l-154 -142h-317zM1315 1745l-309 246l340 -4l225 -244zM-2 0l580 1442h450l610 -1442h-378l-136 328h-641l-125 -328h-360zM793 1217h-2q-52 -179 -218 -609h455q-183 448 -235 609z" />
    <glyph glyph-name="uni1EA7" unicode="&#x1ea7;" horiz-adv-x="1327" 
d="M252 1200l254 285h297l270 -285h-280l-136 143l-131 -143h-274zM1092 1411l-297 279h303l221 -279h-227zM477 745h-334q3 44 16.5 86.5t50 90.5t91.5 83t149 58.5t214 23.5q96 0 173.5 -13t131 -34t94 -52.5t64 -64.5t38 -74.5t19 -77t4.5 -77.5v-397q0 -205 8 -297h-315
q-6 19 -13 119q-94 -148 -379 -148q-104 0 -184.5 29.5t-127 80t-70 110.5t-23.5 126q0 100 42 171t120 110.5t174 56.5t219 17h221v33q0 73 -42 114t-150 41q-98 0 -138.5 -30.5t-52.5 -84.5zM408 334q0 -56 45 -90.5t133 -34.5q136 0 205 60t69 175v17q-25 2 -215 2
q-125 0 -181 -32t-56 -97z" />
    <glyph glyph-name="uni1EA8" unicode="&#x1ea8;" horiz-adv-x="1636" 
d="M336 1556l280 275h385l277 -275h-311l-160 142l-154 -142h-317zM1106 1937l-39 146q93 57 217 57q103 0 162 -48t59 -132q0 -59 -31.5 -110t-78.5 -85h-224q101 76 101 144q0 55 -66 55q-54 0 -100 -27zM-2 0l580 1442h450l610 -1442h-378l-136 328h-641l-125 -328h-360z
M793 1217h-2q-52 -179 -218 -609h455q-183 448 -235 609z" />
    <glyph glyph-name="uni1EA9" unicode="&#x1ea9;" horiz-adv-x="1327" 
d="M252 1200l254 285h297l270 -285h-280l-136 143l-131 -143h-274zM883 1583l-45 127q82 66 211 66q101 0 152.5 -44t51.5 -128q0 -116 -100 -187h-205q111 88 111 146q0 53 -68 53q-61 0 -108 -33zM477 745h-334q3 44 16.5 86.5t50 90.5t91.5 83t149 58.5t214 23.5
q96 0 173.5 -13t131 -34t94 -52.5t64 -64.5t38 -74.5t19 -77t4.5 -77.5v-397q0 -205 8 -297h-315q-6 19 -13 119q-94 -148 -379 -148q-104 0 -184.5 29.5t-127 80t-70 110.5t-23.5 126q0 100 42 171t120 110.5t174 56.5t219 17h221v33q0 73 -42 114t-150 41
q-98 0 -138.5 -30.5t-52.5 -84.5zM408 334q0 -56 45 -90.5t133 -34.5q136 0 205 60t69 175v17q-25 2 -215 2q-125 0 -181 -32t-56 -97z" />
    <glyph glyph-name="uni1EAA" unicode="&#x1eaa;" horiz-adv-x="1636" 
d="M379 1556l262 232h328l264 -232h-305l-123 99l-119 -99h-307zM606 1868h-172v33q0 65 15.5 110t44 68.5t61.5 33t76 9.5q58 0 122.5 -19t116.5 -38t78 -19q32 0 47 12t15 45v17h168v-21q0 -119 -54.5 -176t-144.5 -57q-66 0 -171 38t-140 38q-62 0 -62 -62v-12zM-2 0
l580 1442h450l610 -1442h-378l-136 328h-641l-125 -328h-360zM793 1217h-2q-52 -179 -218 -609h455q-183 448 -235 609z" />
    <glyph glyph-name="uni1EAB" unicode="&#x1eab;" horiz-adv-x="1327" 
d="M483 1487h-166v24q0 116 51.5 169t135.5 53q55 0 111.5 -18t100.5 -36t70 -18q29 0 42.5 10.5t13.5 42.5v17h164v-31q0 -213 -191 -213q-61 0 -152.5 36t-123.5 36q-56 0 -56 -58v-14zM262 1184l225 227h344l232 -227h-283l-125 116l-116 -116h-277zM477 745h-334
q3 44 16.5 86.5t50 90.5t91.5 83t149 58.5t214 23.5q96 0 173.5 -13t131 -34t94 -52.5t64 -64.5t38 -74.5t19 -77t4.5 -77.5v-397q0 -205 8 -297h-315q-6 19 -13 119q-94 -148 -379 -148q-104 0 -184.5 29.5t-127 80t-70 110.5t-23.5 126q0 100 42 171t120 110.5t174 56.5
t219 17h221v33q0 73 -42 114t-150 41q-98 0 -138.5 -30.5t-52.5 -84.5zM408 334q0 -56 45 -90.5t133 -34.5q136 0 205 60t69 175v17q-25 2 -215 2q-125 0 -181 -32t-56 -97z" />
    <glyph glyph-name="uni1EAC" unicode="&#x1eac;" horiz-adv-x="1636" 
d="M-2 0l580 1442h450l610 -1442h-378l-136 328h-641l-125 -328h-360zM793 1217h-2q-52 -179 -218 -609h455q-183 448 -235 609zM356 1563l273 282h354l270 -282h-301l-149 145l-144 -145h-303zM983 -428h-338v285h338v-285z" />
    <glyph glyph-name="uni1EAD" unicode="&#x1ead;" horiz-adv-x="1327" 
d="M477 745h-334q3 44 16.5 86.5t50 90.5t91.5 83t149 58.5t214 23.5q96 0 173.5 -13t131 -34t94 -52.5t64 -64.5t38 -74.5t19 -77t4.5 -77.5v-397q0 -205 8 -297h-315q-6 19 -13 119q-94 -148 -379 -148q-104 0 -184.5 29.5t-127 80t-70 110.5t-23.5 126q0 100 42 171
t120 110.5t174 56.5t219 17h221v33q0 73 -42 114t-150 41q-98 0 -138.5 -30.5t-52.5 -84.5zM408 334q0 -56 45 -90.5t133 -34.5q136 0 205 60t69 175v17q-25 2 -215 2q-125 0 -181 -32t-56 -97zM233 1214l273 318h315l271 -318h-287l-146 166l-135 -166h-291zM846 -428h-338
v285h338v-285z" />
    <glyph glyph-name="uni1EAE" unicode="&#x1eae;" horiz-adv-x="1636" 
d="M969 1831h225q-14 -58 -42 -106.5t-73.5 -89.5t-115.5 -64t-158 -23q-89 0 -160 24.5t-115.5 67t-70.5 90t-37 101.5h225q37 -98 162 -98t160 98zM672 1892l221 226h340l-307 -226h-254zM-2 0l580 1442h450l610 -1442h-378l-136 328h-641l-125 -328h-360zM793 1217h-2
q-52 -179 -218 -609h455q-183 448 -235 609z" />
    <glyph glyph-name="uni1EAF" unicode="&#x1eaf;" horiz-adv-x="1327" 
d="M809 1460h211q-12 -59 -37 -107t-66 -88.5t-107 -63.5t-151 -23q-68 0 -124.5 17t-95 44t-67 64.5t-44 76t-23.5 80.5h213q33 -100 146 -100q112 0 145 100zM530 1516l222 227h297l-279 -227h-240zM477 745h-334q3 44 16.5 86.5t50 90.5t91.5 83t149 58.5t214 23.5
q96 0 173.5 -13t131 -34t94 -52.5t64 -64.5t38 -74.5t19 -77t4.5 -77.5v-397q0 -205 8 -297h-315q-6 19 -13 119q-94 -148 -379 -148q-104 0 -184.5 29.5t-127 80t-70 110.5t-23.5 126q0 100 42 171t120 110.5t174 56.5t219 17h221v33q0 73 -42 114t-150 41
q-98 0 -138.5 -30.5t-52.5 -84.5zM408 334q0 -56 45 -90.5t133 -34.5q136 0 205 60t69 175v17q-25 2 -215 2q-125 0 -181 -32t-56 -97z" />
    <glyph glyph-name="uni1EB0" unicode="&#x1eb0;" horiz-adv-x="1636" 
d="M700 1892l-313 226h336l223 -226h-246zM969 1831h225q-14 -58 -42 -106.5t-73.5 -89.5t-115.5 -64t-158 -23q-89 0 -160 24.5t-115.5 67t-70.5 90t-37 101.5h225q37 -98 162 -98t160 98zM-2 0l580 1442h450l610 -1442h-378l-136 328h-641l-125 -328h-360zM793 1217h-2
q-52 -179 -218 -609h455q-183 448 -235 609z" />
    <glyph glyph-name="uni1EB1" unicode="&#x1eb1;" horiz-adv-x="1327" 
d="M561 1516l-285 227h306l221 -227h-242zM809 1460h211q-12 -59 -37 -107t-66 -88.5t-107 -63.5t-151 -23q-68 0 -124.5 17t-95 44t-67 64.5t-44 76t-23.5 80.5h213q33 -100 146 -100q112 0 145 100zM477 745h-334q3 44 16.5 86.5t50 90.5t91.5 83t149 58.5t214 23.5
q96 0 173.5 -13t131 -34t94 -52.5t64 -64.5t38 -74.5t19 -77t4.5 -77.5v-397q0 -205 8 -297h-315q-6 19 -13 119q-94 -148 -379 -148q-104 0 -184.5 29.5t-127 80t-70 110.5t-23.5 126q0 100 42 171t120 110.5t174 56.5t219 17h221v33q0 73 -42 114t-150 41
q-98 0 -138.5 -30.5t-52.5 -84.5zM408 334q0 -56 45 -90.5t133 -34.5q136 0 205 60t69 175v17q-25 2 -215 2q-125 0 -181 -32t-56 -97z" />
    <glyph glyph-name="uni1EB2" unicode="&#x1eb2;" horiz-adv-x="1636" 
d="M631 2017l-51 123q86 66 219 66q92 0 147 -46.5t55 -121.5q0 -98 -94 -172h-202q52 41 76 72.5t24 62.5q0 21 -17 35t-49 14q-44 0 -108 -33zM981 1821h213q-10 -52 -35.5 -98.5t-70 -89t-117.5 -68t-166 -25.5q-78 0 -142.5 19.5t-105.5 49t-71 68t-44.5 74t-19.5 70.5
h225q15 -46 57 -72.5t103 -26.5q135 0 174 99zM-2 0l580 1442h450l610 -1442h-378l-136 328h-641l-125 -328h-360zM793 1217h-2q-52 -179 -218 -609h455q-183 448 -235 609z" />
    <glyph glyph-name="uni1EB3" unicode="&#x1eb3;" horiz-adv-x="1327" 
d="M487 1657l-36 135q92 55 206 55q95 0 151 -45t56 -123q0 -106 -102 -178h-211q94 70 94 129q0 51 -61 51q-44 0 -97 -24zM809 1460h211q-12 -59 -37 -107t-66 -88.5t-107 -63.5t-151 -23q-68 0 -124.5 17t-95 44t-67 64.5t-44 76t-23.5 80.5h213q33 -100 146 -100
q112 0 145 100zM477 745h-334q3 44 16.5 86.5t50 90.5t91.5 83t149 58.5t214 23.5q96 0 173.5 -13t131 -34t94 -52.5t64 -64.5t38 -74.5t19 -77t4.5 -77.5v-397q0 -205 8 -297h-315q-6 19 -13 119q-94 -148 -379 -148q-104 0 -184.5 29.5t-127 80t-70 110.5t-23.5 126
q0 100 42 171t120 110.5t174 56.5t219 17h221v33q0 73 -42 114t-150 41q-98 0 -138.5 -30.5t-52.5 -84.5zM408 334q0 -56 45 -90.5t133 -34.5q136 0 205 60t69 175v17q-25 2 -215 2q-125 0 -181 -32t-56 -97z" />
    <glyph glyph-name="uni1EB4" unicode="&#x1eb4;" horiz-adv-x="1636" 
d="M965 1774h198q-70 -226 -360 -226q-68 0 -125 14.5t-94 37t-65.5 53.5t-43.5 60t-24 61h200q15 -32 55.5 -55t100.5 -23q124 0 158 78zM616 1858h-163v22q0 111 50 154t136 43q56 0 119 -18t113.5 -36t74.5 -18q31 0 45.5 10.5t14.5 42.5v17h157v-21q0 -199 -186 -199
q-63 0 -167 36t-136 36q-58 0 -58 -57v-12zM-2 0l580 1442h450l610 -1442h-378l-136 328h-641l-125 -328h-360zM793 1217h-2q-52 -179 -218 -609h455q-183 448 -235 609z" />
    <glyph glyph-name="uni1EB5" unicode="&#x1eb5;" horiz-adv-x="1327" 
d="M811 1436h209q-13 -52 -37.5 -95.5t-65.5 -81.5t-107 -59.5t-151 -21.5q-83 0 -149 23.5t-106.5 63t-64.5 82t-34 89.5h213q34 -82 146 -82t147 82zM485 1522h-166v24q0 116 51.5 168.5t135.5 52.5q56 0 112 -17.5t100 -35.5t70 -18q29 0 42.5 10.5t13.5 42.5v16h164v-30
q0 -213 -191 -213q-61 0 -152.5 35.5t-123.5 35.5q-56 0 -56 -57v-14zM477 745h-334q3 44 16.5 86.5t50 90.5t91.5 83t149 58.5t214 23.5q96 0 173.5 -13t131 -34t94 -52.5t64 -64.5t38 -74.5t19 -77t4.5 -77.5v-397q0 -205 8 -297h-315q-6 19 -13 119q-94 -148 -379 -148
q-104 0 -184.5 29.5t-127 80t-70 110.5t-23.5 126q0 100 42 171t120 110.5t174 56.5t219 17h221v33q0 73 -42 114t-150 41q-98 0 -138.5 -30.5t-52.5 -84.5zM408 334q0 -56 45 -90.5t133 -34.5q136 0 205 60t69 175v17q-25 2 -215 2q-125 0 -181 -32t-56 -97z" />
    <glyph glyph-name="uni1EB6" unicode="&#x1eb6;" horiz-adv-x="1636" 
d="M-2 0l580 1442h450l610 -1442h-378l-136 328h-641l-125 -328h-360zM793 1217h-2q-52 -179 -218 -609h455q-183 448 -235 609zM981 1876h221q-10 -61 -36.5 -114t-72.5 -99t-121 -73t-171 -27q-79 0 -145 20t-109 51.5t-74 74t-46 84t-19 83.5h223q15 -51 61 -80t113 -29
q54 0 91.5 16.5t54.5 38t30 54.5zM983 -428h-338v285h338v-285z" />
    <glyph glyph-name="uni1EB7" unicode="&#x1eb7;" horiz-adv-x="1327" 
d="M477 745h-334q3 44 16.5 86.5t50 90.5t91.5 83t149 58.5t214 23.5q96 0 173.5 -13t131 -34t94 -52.5t64 -64.5t38 -74.5t19 -77t4.5 -77.5v-397q0 -205 8 -297h-315q-6 19 -13 119q-94 -148 -379 -148q-104 0 -184.5 29.5t-127 80t-70 110.5t-23.5 126q0 100 42 171
t120 110.5t174 56.5t219 17h221v33q0 73 -42 114t-150 41q-98 0 -138.5 -30.5t-52.5 -84.5zM408 334q0 -56 45 -90.5t133 -34.5q136 0 205 60t69 175v17q-25 2 -215 2q-125 0 -181 -32t-56 -97zM819 1548h221q-10 -70 -36 -128.5t-70.5 -106.5t-114.5 -75.5t-160 -27.5
q-93 0 -165 28.5t-115 77.5t-66 107t-28 125h223q32 -129 156 -129q75 0 106.5 33t48.5 96zM831 -428h-337v285h337v-285z" />
    <glyph glyph-name="uni1EB8" unicode="&#x1eb8;" horiz-adv-x="1503" 
d="M188 0v1442h1198v-281h-847v-272h804v-281h-804v-327h895l-41 -281h-1205zM963 -428h-338v285h338v-285z" />
    <glyph glyph-name="uni1EB9" unicode="&#x1eb9;" horiz-adv-x="1316" 
d="M897 324h336q-26 -75 -69 -135.5t-109 -111t-164 -78.5t-221 -28q-126 0 -227.5 32t-168 86t-111.5 126.5t-64 150.5t-19 162q0 113 38 213t110 177.5t185.5 123t254.5 45.5q120 0 218 -32t163.5 -85.5t110.5 -126.5t65 -151.5t20 -163.5q0 -46 -2 -79h-829
q6 -101 75 -165.5t185 -64.5q89 0 140.5 26t82.5 79zM666 852q-122 0 -181.5 -56t-66.5 -143h487q-2 27 -8.5 51.5t-23.5 52.5t-42 48t-68 33.5t-97 13.5zM825 -428h-338v285h338v-285z" />
    <glyph glyph-name="uni1EBA" unicode="&#x1eba;" horiz-adv-x="1503" 
d="M188 0v1442h1198v-281h-847v-272h804v-281h-804v-327h895l-41 -281h-1205zM600 1739l-55 149q103 64 241 64q122 0 185 -52t63 -141q0 -113 -112 -211h-240q56 60 76 88.5t20 61.5q0 28 -18 47.5t-53 19.5q-57 0 -107 -26z" />
    <glyph glyph-name="uni1EBB" unicode="&#x1ebb;" horiz-adv-x="1316" 
d="M897 324h336q-26 -75 -69 -135.5t-109 -111t-164 -78.5t-221 -28q-126 0 -227.5 32t-168 86t-111.5 126.5t-64 150.5t-19 162q0 113 38 213t110 177.5t185.5 123t254.5 45.5q120 0 218 -32t163.5 -85.5t110.5 -126.5t65 -151.5t20 -163.5q0 -46 -2 -79h-829
q6 -101 75 -165.5t185 -64.5q89 0 140.5 26t82.5 79zM666 852q-122 0 -181.5 -56t-66.5 -143h487q-2 27 -8.5 51.5t-23.5 52.5t-42 48t-68 33.5t-97 13.5zM465 1382l-55 150q101 63 241 63q123 0 185.5 -51.5t62.5 -140.5q0 -112 -113 -211h-239q57 60 76.5 88.5t19.5 60.5
q0 28 -18.5 48t-53.5 20q-54 0 -106 -27z" />
    <glyph glyph-name="uni1EBC" unicode="&#x1ebc;" horiz-adv-x="1503" 
d="M188 0v1442h1198v-281h-847v-272h804v-281h-804v-327h895l-41 -281h-1205zM612 1585h-206v62q0 249 215 249q59 0 123.5 -23t117.5 -46t84 -23q29 0 42 14.5t13 57.5v16h201v-45q0 -152 -53.5 -211t-149.5 -59q-58 0 -125 24.5t-123 49t-87 24.5q-52 0 -52 -59v-31z" />
    <glyph glyph-name="uni1EBD" unicode="&#x1ebd;" horiz-adv-x="1316" 
d="M897 324h336q-26 -75 -69 -135.5t-109 -111t-164 -78.5t-221 -28q-126 0 -227.5 32t-168 86t-111.5 126.5t-64 150.5t-19 162q0 113 38 213t110 177.5t185.5 123t254.5 45.5q120 0 218 -32t163.5 -85.5t110.5 -126.5t65 -151.5t20 -163.5q0 -46 -2 -79h-829
q6 -101 75 -165.5t185 -64.5q89 0 140.5 26t82.5 79zM666 852q-122 0 -181.5 -56t-66.5 -143h487q-2 27 -8.5 51.5t-23.5 52.5t-42 48t-68 33.5t-97 13.5zM471 1217h-197v73q0 136 54.5 189t154.5 53q57 0 116 -24t107 -48t78 -24q64 0 64 82v20h190v-59q0 -79 -15 -133
t-44 -82.5t-65 -40t-85 -11.5q-48 0 -95.5 15t-78.5 33.5t-66 33.5t-61 15q-57 0 -57 -60v-32z" />
    <glyph glyph-name="uni1EBE" unicode="&#x1ebe;" horiz-adv-x="1503" 
d="M303 1559l281 274h385l276 -274h-311l-160 141l-153 -141h-318zM1098 1792l215 242h336l-287 -242h-264zM188 0v1442h1198v-281h-847v-272h804v-281h-804v-327h895l-41 -281h-1205z" />
    <glyph glyph-name="uni1EBF" unicode="&#x1ebf;" horiz-adv-x="1316" 
d="M260 1200l254 285h297l270 -285h-280l-135 143l-131 -143h-275zM928 1438l229 272h318l-299 -272h-248zM897 324h336q-26 -75 -69 -135.5t-109 -111t-164 -78.5t-221 -28q-126 0 -227.5 32t-168 86t-111.5 126.5t-64 150.5t-19 162q0 113 38 213t110 177.5t185.5 123
t254.5 45.5q120 0 218 -32t163.5 -85.5t110.5 -126.5t65 -151.5t20 -163.5q0 -46 -2 -79h-829q6 -101 75 -165.5t185 -64.5q89 0 140.5 26t82.5 79zM666 852q-122 0 -181.5 -56t-66.5 -143h487q-2 27 -8.5 51.5t-23.5 52.5t-42 48t-68 33.5t-97 13.5z" />
    <glyph glyph-name="uni1EC0" unicode="&#x1ec0;" horiz-adv-x="1503" 
d="M303 1559l281 274h385l276 -274h-311l-160 141l-153 -141h-318zM1282 1747l-309 246l340 -4l225 -244zM188 0v1442h1198v-281h-847v-272h804v-281h-804v-327h895l-41 -281h-1205z" />
    <glyph glyph-name="uni1EC1" unicode="&#x1ec1;" horiz-adv-x="1316" 
d="M260 1200l254 285h297l270 -285h-280l-135 143l-131 -143h-275zM1100 1411l-297 279h303l221 -279h-227zM897 324h336q-26 -75 -69 -135.5t-109 -111t-164 -78.5t-221 -28q-126 0 -227.5 32t-168 86t-111.5 126.5t-64 150.5t-19 162q0 113 38 213t110 177.5t185.5 123
t254.5 45.5q120 0 218 -32t163.5 -85.5t110.5 -126.5t65 -151.5t20 -163.5q0 -46 -2 -79h-829q6 -101 75 -165.5t185 -64.5q89 0 140.5 26t82.5 79zM666 852q-122 0 -181.5 -56t-66.5 -143h487q-2 27 -8.5 51.5t-23.5 52.5t-42 48t-68 33.5t-97 13.5z" />
    <glyph glyph-name="uni1EC2" unicode="&#x1ec2;" horiz-adv-x="1503" 
d="M303 1559l281 274h385l276 -274h-311l-160 141l-153 -141h-318zM1073 1939l-39 146q93 57 217 57q103 0 162.5 -48t59.5 -132q0 -59 -32 -110t-79 -85h-223q100 76 100 144q0 55 -65 55q-54 0 -101 -27zM188 0v1442h1198v-281h-847v-272h804v-281h-804v-327h895l-41 -281
h-1205z" />
    <glyph glyph-name="uni1EC3" unicode="&#x1ec3;" horiz-adv-x="1316" 
d="M264 1200l254 285h297l270 -285h-280l-135 143l-131 -143h-275zM895 1583l-45 127q82 66 211 66q101 0 153 -44t52 -128q0 -115 -101 -187h-204q110 87 110 146q0 53 -67 53q-62 0 -109 -33zM897 324h336q-26 -75 -69 -135.5t-109 -111t-164 -78.5t-221 -28
q-126 0 -227.5 32t-168 86t-111.5 126.5t-64 150.5t-19 162q0 113 38 213t110 177.5t185.5 123t254.5 45.5q120 0 218 -32t163.5 -85.5t110.5 -126.5t65 -151.5t20 -163.5q0 -46 -2 -79h-829q6 -101 75 -165.5t185 -64.5q89 0 140.5 26t82.5 79zM666 852q-122 0 -181.5 -56
t-66.5 -143h487q-2 27 -8.5 51.5t-23.5 52.5t-42 48t-68 33.5t-97 13.5z" />
    <glyph glyph-name="uni1EC4" unicode="&#x1ec4;" horiz-adv-x="1503" 
d="M365 1559l262 231h327l265 -231h-306l-122 98l-119 -98h-307zM592 1870h-172v33q0 65 15 110t43.5 68.5t61.5 33t76 9.5q58 0 123 -19t117 -38t78 -19q32 0 46.5 12t14.5 45v17h168v-21q0 -120 -54.5 -176.5t-143.5 -56.5q-66 0 -171.5 38t-140.5 38q-61 0 -61 -62v-12z
M188 0v1442h1198v-281h-847v-272h804v-281h-804v-327h895l-41 -281h-1205z" />
    <glyph glyph-name="uni1EC5" unicode="&#x1ec5;" horiz-adv-x="1316" 
d="M485 1487h-166v24q0 116 51.5 169t135.5 53q55 0 111.5 -18t100.5 -36t70 -18q29 0 42.5 10.5t13.5 42.5v17h164v-31q0 -213 -191 -213q-61 0 -152.5 36t-123.5 36q-56 0 -56 -58v-14zM264 1184l225 227h345l231 -227h-283l-125 116l-116 -116h-277zM897 324h336
q-26 -75 -69 -135.5t-109 -111t-164 -78.5t-221 -28q-126 0 -227.5 32t-168 86t-111.5 126.5t-64 150.5t-19 162q0 113 38 213t110 177.5t185.5 123t254.5 45.5q120 0 218 -32t163.5 -85.5t110.5 -126.5t65 -151.5t20 -163.5q0 -46 -2 -79h-829q6 -101 75 -165.5t185 -64.5
q89 0 140.5 26t82.5 79zM666 852q-122 0 -181.5 -56t-66.5 -143h487q-2 27 -8.5 51.5t-23.5 52.5t-42 48t-68 33.5t-97 13.5z" />
    <glyph glyph-name="uni1EC6" unicode="&#x1ec6;" horiz-adv-x="1503" 
d="M188 0v1442h1198v-281h-847v-272h804v-281h-804v-327h895l-41 -281h-1205zM338 1565l272 282h355l270 -282h-301l-150 145l-143 -145h-303zM983 -428h-338v285h338v-285z" />
    <glyph glyph-name="uni1EC7" unicode="&#x1ec7;" horiz-adv-x="1316" 
d="M897 324h336q-26 -75 -69 -135.5t-109 -111t-164 -78.5t-221 -28q-126 0 -227.5 32t-168 86t-111.5 126.5t-64 150.5t-19 162q0 113 38 213t110 177.5t185.5 123t254.5 45.5q120 0 218 -32t163.5 -85.5t110.5 -126.5t65 -151.5t20 -163.5q0 -46 -2 -79h-829
q6 -101 75 -165.5t185 -64.5q89 0 140.5 26t82.5 79zM666 852q-122 0 -181.5 -56t-66.5 -143h487q-2 27 -8.5 51.5t-23.5 52.5t-42 48t-68 33.5t-97 13.5zM227 1214l273 318h315l270 -318h-286l-146 166l-135 -166h-291zM825 -428h-338v285h338v-285z" />
    <glyph glyph-name="uni1EC8" unicode="&#x1ec8;" horiz-adv-x="724" 
d="M188 0v1442h351v-1442h-351zM158 1735l-56 149q103 64 242 64q122 0 185 -52t63 -141q0 -112 -113 -211h-239q56 60 76 88.5t20 61.5q0 28 -18.5 47.5t-53.5 19.5q-56 0 -106 -26z" />
    <glyph glyph-name="uni1EC9" unicode="&#x1ec9;" horiz-adv-x="618" 
d="M477 0h-334v1059h334v-1059zM102 1382l-55 150q101 63 242 63q123 0 185.5 -51.5t62.5 -140.5q0 -112 -113 -211h-240q41 43 56.5 61t28 41.5t12.5 46.5q0 28 -18.5 48t-53.5 20q-55 0 -107 -27z" />
    <glyph glyph-name="uni1ECA" unicode="&#x1eca;" horiz-adv-x="724" 
d="M188 0v1442h351v-1442h-351zM530 -428h-337v285h337v-285z" />
    <glyph glyph-name="uni1ECB" unicode="&#x1ecb;" horiz-adv-x="618" 
d="M477 0h-334v1059h334v-1059zM477 1257h-334v269h334v-269zM475 -428h-338v285h338v-285z" />
    <glyph glyph-name="uni1ECC" unicode="&#x1ecc;" horiz-adv-x="1759" 
d="M100 725q0 119 34 230t102 205t161 164t219 109.5t269 39.5q183 0 332.5 -61t244.5 -165t146 -237.5t51 -282.5q0 -121 -31.5 -232.5t-96.5 -207.5t-157.5 -166.5t-222.5 -111t-283 -40.5q-179 0 -325.5 58.5t-242.5 161t-148 240t-52 296.5zM889 242q84 0 152.5 27.5
t114 73.5t76.5 108.5t44.5 130.5t13.5 141q0 98 -24.5 182t-73.5 151t-130.5 105.5t-187.5 38.5q-102 0 -181.5 -39t-127 -105.5t-72 -149.5t-24.5 -177q0 -103 26.5 -191t77 -154.5t132 -104t184.5 -37.5zM1044 -428h-337v285h337v-285z" />
    <glyph glyph-name="uni1ECD" unicode="&#x1ecd;" horiz-adv-x="1374" 
d="M80 530q0 110 39.5 209t114 177.5t192 124.5t262.5 46q120 0 221.5 -33t171 -87.5t118.5 -127t72 -151t23 -158.5q0 -250 -164.5 -404.5t-453.5 -154.5q-144 0 -259 45.5t-187.5 123.5t-111 178t-38.5 212zM686 223q87 0 148 42t88.5 108.5t27.5 150.5q0 131 -67.5 220.5
t-198.5 89.5q-129 0 -196.5 -86.5t-67.5 -217.5t70.5 -219t195.5 -88zM854 -428h-338v285h338v-285z" />
    <glyph glyph-name="uni1ECE" unicode="&#x1ece;" horiz-adv-x="1759" 
d="M100 725q0 119 34 230t102 205t161 164t219 109.5t269 39.5q183 0 332.5 -61t244.5 -165t146 -237.5t51 -282.5q0 -121 -31.5 -232.5t-96.5 -207.5t-157.5 -166.5t-222.5 -111t-283 -40.5q-179 0 -325.5 58.5t-242.5 161t-148 240t-52 296.5zM889 242q84 0 152.5 27.5
t114 73.5t76.5 108.5t44.5 130.5t13.5 141q0 98 -24.5 182t-73.5 151t-130.5 105.5t-187.5 38.5q-102 0 -181.5 -39t-127 -105.5t-72 -149.5t-24.5 -177q0 -103 26.5 -191t77 -154.5t132 -104t184.5 -37.5zM672 1755l-56 150q101 63 242 63q123 0 185.5 -51.5t62.5 -140.5
q0 -112 -113 -211h-239q57 60 76.5 88.5t19.5 60.5q0 28 -18.5 48t-53.5 20q-54 0 -106 -27z" />
    <glyph glyph-name="uni1ECF" unicode="&#x1ecf;" horiz-adv-x="1374" 
d="M80 530q0 110 39.5 209t114 177.5t192 124.5t262.5 46q120 0 221.5 -33t171 -87.5t118.5 -127t72 -151t23 -158.5q0 -250 -164.5 -404.5t-453.5 -154.5q-144 0 -259 45.5t-187.5 123.5t-111 178t-38.5 212zM686 223q87 0 148 42t88.5 108.5t27.5 150.5q0 131 -67.5 220.5
t-198.5 89.5q-129 0 -196.5 -86.5t-67.5 -217.5t70.5 -219t195.5 -88zM481 1382l-55 150q101 63 242 63q122 0 184.5 -51.5t62.5 -140.5q0 -113 -112 -211h-240q57 60 76.5 88.5t19.5 60.5q0 29 -18 48.5t-53 19.5q-55 0 -107 -27z" />
    <glyph glyph-name="uni1ED0" unicode="&#x1ed0;" horiz-adv-x="1759" 
d="M406 1559l280 274h385l277 -274h-312l-159 141l-154 -141h-317zM1200 1792l215 242h336l-287 -242h-264zM100 725q0 119 34 230t102 205t161 164t219 109.5t269 39.5q183 0 332.5 -61t244.5 -165t146 -237.5t51 -282.5q0 -121 -31.5 -232.5t-96.5 -207.5t-157.5 -166.5
t-222.5 -111t-283 -40.5q-179 0 -325.5 58.5t-242.5 161t-148 240t-52 296.5zM889 242q84 0 152.5 27.5t114 73.5t76.5 108.5t44.5 130.5t13.5 141q0 98 -24.5 182t-73.5 151t-130.5 105.5t-187.5 38.5q-102 0 -181.5 -39t-127 -105.5t-72 -149.5t-24.5 -177
q0 -103 26.5 -191t77 -154.5t132 -104t184.5 -37.5z" />
    <glyph glyph-name="uni1ED1" unicode="&#x1ed1;" horiz-adv-x="1374" 
d="M276 1200l254 285h297l271 -285h-281l-135 143l-131 -143h-275zM944 1438l230 272h317l-299 -272h-248zM80 530q0 110 39.5 209t114 177.5t192 124.5t262.5 46q120 0 221.5 -33t171 -87.5t118.5 -127t72 -151t23 -158.5q0 -250 -164.5 -404.5t-453.5 -154.5
q-144 0 -259 45.5t-187.5 123.5t-111 178t-38.5 212zM686 223q87 0 148 42t88.5 108.5t27.5 150.5q0 131 -67.5 220.5t-198.5 89.5q-129 0 -196.5 -86.5t-67.5 -217.5t70.5 -219t195.5 -88z" />
    <glyph glyph-name="uni1ED2" unicode="&#x1ed2;" horiz-adv-x="1759" 
d="M406 1559l280 274h385l277 -274h-312l-159 141l-154 -141h-317zM1384 1747l-309 246l340 -4l225 -244zM100 725q0 119 34 230t102 205t161 164t219 109.5t269 39.5q183 0 332.5 -61t244.5 -165t146 -237.5t51 -282.5q0 -121 -31.5 -232.5t-96.5 -207.5t-157.5 -166.5
t-222.5 -111t-283 -40.5q-179 0 -325.5 58.5t-242.5 161t-148 240t-52 296.5zM889 242q84 0 152.5 27.5t114 73.5t76.5 108.5t44.5 130.5t13.5 141q0 98 -24.5 182t-73.5 151t-130.5 105.5t-187.5 38.5q-102 0 -181.5 -39t-127 -105.5t-72 -149.5t-24.5 -177
q0 -103 26.5 -191t77 -154.5t132 -104t184.5 -37.5z" />
    <glyph glyph-name="uni1ED3" unicode="&#x1ed3;" horiz-adv-x="1374" 
d="M276 1200l254 285h297l271 -285h-281l-135 143l-131 -143h-275zM1116 1411l-297 279h303l221 -279h-227zM80 530q0 110 39.5 209t114 177.5t192 124.5t262.5 46q120 0 221.5 -33t171 -87.5t118.5 -127t72 -151t23 -158.5q0 -250 -164.5 -404.5t-453.5 -154.5
q-144 0 -259 45.5t-187.5 123.5t-111 178t-38.5 212zM686 223q87 0 148 42t88.5 108.5t27.5 150.5q0 131 -67.5 220.5t-198.5 89.5q-129 0 -196.5 -86.5t-67.5 -217.5t70.5 -219t195.5 -88z" />
    <glyph glyph-name="uni1ED4" unicode="&#x1ed4;" horiz-adv-x="1759" 
d="M406 1559l280 274h385l277 -274h-312l-159 141l-154 -141h-317zM1176 1939l-39 146q93 57 217 57q103 0 162 -48t59 -132q0 -59 -32 -110t-79 -85h-223q100 76 100 144q0 55 -65 55q-54 0 -100 -27zM100 725q0 119 34 230t102 205t161 164t219 109.5t269 39.5
q183 0 332.5 -61t244.5 -165t146 -237.5t51 -282.5q0 -121 -31.5 -232.5t-96.5 -207.5t-157.5 -166.5t-222.5 -111t-283 -40.5q-179 0 -325.5 58.5t-242.5 161t-148 240t-52 296.5zM889 242q84 0 152.5 27.5t114 73.5t76.5 108.5t44.5 130.5t13.5 141q0 98 -24.5 182
t-73.5 151t-130.5 105.5t-187.5 38.5q-102 0 -181.5 -39t-127 -105.5t-72 -149.5t-24.5 -177q0 -103 26.5 -191t77 -154.5t132 -104t184.5 -37.5z" />
    <glyph glyph-name="uni1ED5" unicode="&#x1ed5;" horiz-adv-x="1374" 
d="M276 1200l254 285h297l271 -285h-281l-135 143l-131 -143h-275zM907 1583l-45 127q82 66 211 66q101 0 153 -44t52 -128q0 -116 -100 -187h-205q110 87 110 146q0 53 -67 53q-62 0 -109 -33zM80 530q0 110 39.5 209t114 177.5t192 124.5t262.5 46q120 0 221.5 -33
t171 -87.5t118.5 -127t72 -151t23 -158.5q0 -250 -164.5 -404.5t-453.5 -154.5q-144 0 -259 45.5t-187.5 123.5t-111 178t-38.5 212zM686 223q87 0 148 42t88.5 108.5t27.5 150.5q0 131 -67.5 220.5t-198.5 89.5q-129 0 -196.5 -86.5t-67.5 -217.5t70.5 -219t195.5 -88z" />
    <glyph glyph-name="uni1ED6" unicode="&#x1ed6;" horiz-adv-x="1759" 
d="M449 1559l262 231h327l265 -231h-306l-123 98l-118 -98h-307zM676 1870h-172v33q0 65 15 110t43.5 68.5t61.5 33t76 9.5q58 0 123 -19t117 -38t78 -19q32 0 46.5 12t14.5 45v17h168v-21q0 -120 -54.5 -176.5t-143.5 -56.5q-66 0 -171.5 38t-140.5 38q-61 0 -61 -62v-12z
M100 725q0 119 34 230t102 205t161 164t219 109.5t269 39.5q183 0 332.5 -61t244.5 -165t146 -237.5t51 -282.5q0 -121 -31.5 -232.5t-96.5 -207.5t-157.5 -166.5t-222.5 -111t-283 -40.5q-179 0 -325.5 58.5t-242.5 161t-148 240t-52 296.5zM889 242q84 0 152.5 27.5
t114 73.5t76.5 108.5t44.5 130.5t13.5 141q0 98 -24.5 182t-73.5 151t-130.5 105.5t-187.5 38.5q-102 0 -181.5 -39t-127 -105.5t-72 -149.5t-24.5 -177q0 -103 26.5 -191t77 -154.5t132 -104t184.5 -37.5z" />
    <glyph glyph-name="uni1ED7" unicode="&#x1ed7;" horiz-adv-x="1374" 
d="M508 1487h-166v24q0 116 51 169t135 53q55 0 112 -18t101 -36t70 -18q29 0 42 10.5t13 42.5v17h164v-31q0 -213 -190 -213q-61 0 -153 36t-124 36q-55 0 -55 -58v-14zM287 1184l225 227h344l231 -227h-282l-125 116l-117 -116h-276zM80 530q0 110 39.5 209t114 177.5
t192 124.5t262.5 46q120 0 221.5 -33t171 -87.5t118.5 -127t72 -151t23 -158.5q0 -250 -164.5 -404.5t-453.5 -154.5q-144 0 -259 45.5t-187.5 123.5t-111 178t-38.5 212zM686 223q87 0 148 42t88.5 108.5t27.5 150.5q0 131 -67.5 220.5t-198.5 89.5q-129 0 -196.5 -86.5
t-67.5 -217.5t70.5 -219t195.5 -88z" />
    <glyph glyph-name="uni1ED8" unicode="&#x1ed8;" horiz-adv-x="1759" 
d="M100 725q0 119 34 230t102 205t161 164t219 109.5t269 39.5q183 0 332.5 -61t244.5 -165t146 -237.5t51 -282.5q0 -121 -31.5 -232.5t-96.5 -207.5t-157.5 -166.5t-222.5 -111t-283 -40.5q-179 0 -325.5 58.5t-242.5 161t-148 240t-52 296.5zM889 242q84 0 152.5 27.5
t114 73.5t76.5 108.5t44.5 130.5t13.5 141q0 98 -24.5 182t-73.5 151t-130.5 105.5t-187.5 38.5q-102 0 -181.5 -39t-127 -105.5t-72 -149.5t-24.5 -177q0 -103 26.5 -191t77 -154.5t132 -104t184.5 -37.5zM426 1563l272 282h355l270 -282h-301l-150 145l-143 -145h-303z
M1044 -428h-337v285h337v-285z" />
    <glyph glyph-name="uni1ED9" unicode="&#x1ed9;" horiz-adv-x="1374" 
d="M80 530q0 110 39.5 209t114 177.5t192 124.5t262.5 46q120 0 221.5 -33t171 -87.5t118.5 -127t72 -151t23 -158.5q0 -250 -164.5 -404.5t-453.5 -154.5q-144 0 -259 45.5t-187.5 123.5t-111 178t-38.5 212zM686 223q87 0 148 42t88.5 108.5t27.5 150.5q0 131 -67.5 220.5
t-198.5 89.5q-129 0 -196.5 -86.5t-67.5 -217.5t70.5 -219t195.5 -88zM256 1214l272 318h316l270 -318h-287l-145 166l-135 -166h-291zM854 -428h-338v285h338v-285z" />
    <glyph glyph-name="uni1EDA" unicode="&#x1eda;" horiz-adv-x="1759" 
d="M1370 1628h295q14 -57 14 -135q0 -99 -45.5 -174.5t-134.5 -114.5q160 -205 160 -477q0 -121 -31.5 -232.5t-96.5 -207.5t-157.5 -166.5t-222.5 -111t-283 -40.5q-179 0 -325.5 58.5t-242.5 161t-148 240t-52 296.5q0 119 34 230t102 205t161 164t219 109.5t269 39.5
q242 0 418 -103q88 18 88 127q0 59 -21 131zM889 242q84 0 152.5 27.5t114 73.5t76.5 108.5t44.5 130.5t13.5 141q0 98 -24.5 182t-73.5 151t-130.5 105.5t-187.5 38.5q-102 0 -181.5 -39t-127 -105.5t-72 -149.5t-24.5 -177q0 -103 26.5 -191t77 -154.5t132 -104
t184.5 -37.5zM674 1579l342 285h426l-449 -285h-319z" />
    <glyph glyph-name="uni1EDB" unicode="&#x1edb;" horiz-adv-x="1374" 
d="M1067 1243h295q14 -57 14 -135q0 -94 -42 -168.5t-124 -114.5q84 -141 84 -295q0 -250 -164.5 -404.5t-453.5 -154.5q-144 0 -259 45.5t-187.5 123.5t-111 178t-38.5 212q0 110 39.5 209t114 177.5t192 124.5t262.5 46q199 0 346 -90q53 32 53 115q0 63 -20 131zM686 223
q87 0 148 42t88.5 108.5t27.5 150.5q0 131 -67.5 220.5t-198.5 89.5q-129 0 -196.5 -86.5t-67.5 -217.5t70.5 -219t195.5 -88zM508 1231l283 317h383l-371 -317h-295z" />
    <glyph glyph-name="uni1EDC" unicode="&#x1edc;" horiz-adv-x="1759" 
d="M1370 1628h295q14 -57 14 -135q0 -99 -45.5 -174.5t-134.5 -114.5q160 -205 160 -477q0 -121 -31.5 -232.5t-96.5 -207.5t-157.5 -166.5t-222.5 -111t-283 -40.5q-179 0 -325.5 58.5t-242.5 161t-148 240t-52 296.5q0 119 34 230t102 205t161 164t219 109.5t269 39.5
q242 0 418 -103q88 18 88 127q0 59 -21 131zM889 242q84 0 152.5 27.5t114 73.5t76.5 108.5t44.5 130.5t13.5 141q0 98 -24.5 182t-73.5 151t-130.5 105.5t-187.5 38.5q-102 0 -181.5 -39t-127 -105.5t-72 -149.5t-24.5 -177q0 -103 26.5 -191t77 -154.5t132 -104
t184.5 -37.5zM772 1579l-448 285h426l329 -285h-307z" />
    <glyph glyph-name="uni1EDD" unicode="&#x1edd;" horiz-adv-x="1374" 
d="M1067 1243h295q14 -57 14 -135q0 -94 -42 -168.5t-124 -114.5q84 -141 84 -295q0 -250 -164.5 -404.5t-453.5 -154.5q-144 0 -259 45.5t-187.5 123.5t-111 178t-38.5 212q0 110 39.5 209t114 177.5t192 124.5t262.5 46q199 0 346 -90q53 32 53 115q0 63 -20 131zM686 223
q87 0 148 42t88.5 108.5t27.5 150.5q0 131 -67.5 220.5t-198.5 89.5q-129 0 -196.5 -86.5t-67.5 -217.5t70.5 -219t195.5 -88zM592 1231l-385 317h383l293 -317h-291z" />
    <glyph glyph-name="uni1EDE" unicode="&#x1ede;" horiz-adv-x="1759" 
d="M1370 1628h295q14 -57 14 -135q0 -99 -45.5 -174.5t-134.5 -114.5q160 -205 160 -477q0 -121 -31.5 -232.5t-96.5 -207.5t-157.5 -166.5t-222.5 -111t-283 -40.5q-179 0 -325.5 58.5t-242.5 161t-148 240t-52 296.5q0 119 34 230t102 205t161 164t219 109.5t269 39.5
q242 0 418 -103q88 18 88 127q0 59 -21 131zM889 242q84 0 152.5 27.5t114 73.5t76.5 108.5t44.5 130.5t13.5 141q0 98 -24.5 182t-73.5 151t-130.5 105.5t-187.5 38.5q-102 0 -181.5 -39t-127 -105.5t-72 -149.5t-24.5 -177q0 -103 26.5 -191t77 -154.5t132 -104
t184.5 -37.5zM674 1753l-56 150q101 63 242 63q123 0 185.5 -51.5t62.5 -140.5q0 -112 -113 -211h-239q57 60 76.5 88.5t19.5 60.5q0 28 -18.5 48t-53.5 20q-54 0 -106 -27z" />
    <glyph glyph-name="uni1EDF" unicode="&#x1edf;" horiz-adv-x="1374" 
d="M1067 1243h295q14 -57 14 -135q0 -94 -42 -168.5t-124 -114.5q84 -141 84 -295q0 -250 -164.5 -404.5t-453.5 -154.5q-144 0 -259 45.5t-187.5 123.5t-111 178t-38.5 212q0 110 39.5 209t114 177.5t192 124.5t262.5 46q199 0 346 -90q53 32 53 115q0 63 -20 131zM686 223
q87 0 148 42t88.5 108.5t27.5 150.5q0 131 -67.5 220.5t-198.5 89.5q-129 0 -196.5 -86.5t-67.5 -217.5t70.5 -219t195.5 -88zM483 1382l-55 150q101 63 242 63q123 0 185.5 -51.5t62.5 -140.5q0 -112 -113 -211h-240q41 43 56.5 61t28 41.5t12.5 46.5q0 28 -18.5 48
t-53.5 20q-55 0 -107 -27z" />
    <glyph glyph-name="uni1EE0" unicode="&#x1ee0;" horiz-adv-x="1759" 
d="M1370 1628h295q14 -57 14 -135q0 -99 -45.5 -174.5t-134.5 -114.5q160 -205 160 -477q0 -121 -31.5 -232.5t-96.5 -207.5t-157.5 -166.5t-222.5 -111t-283 -40.5q-179 0 -325.5 58.5t-242.5 161t-148 240t-52 296.5q0 119 34 230t102 205t161 164t219 109.5t269 39.5
q242 0 418 -103q88 18 88 127q0 59 -21 131zM889 242q84 0 152.5 27.5t114 73.5t76.5 108.5t44.5 130.5t13.5 141q0 98 -24.5 182t-73.5 151t-130.5 105.5t-187.5 38.5q-102 0 -181.5 -39t-127 -105.5t-72 -149.5t-24.5 -177q0 -103 26.5 -191t77 -154.5t132 -104
t184.5 -37.5zM684 1583h-207v62q0 249 215 249q59 0 123.5 -23t118 -46t84.5 -23q29 0 42 14.5t13 57.5v16h201v-45q0 -152 -53.5 -211t-149.5 -59q-58 0 -125.5 24.5t-123.5 49t-87 24.5q-51 0 -51 -59v-31z" />
    <glyph glyph-name="uni1EE1" unicode="&#x1ee1;" horiz-adv-x="1374" 
d="M1067 1243h295q14 -57 14 -135q0 -94 -42 -168.5t-124 -114.5q84 -141 84 -295q0 -250 -164.5 -404.5t-453.5 -154.5q-144 0 -259 45.5t-187.5 123.5t-111 178t-38.5 212q0 110 39.5 209t114 177.5t192 124.5t262.5 46q199 0 346 -90q53 32 53 115q0 63 -20 131zM686 223
q87 0 148 42t88.5 108.5t27.5 150.5q0 131 -67.5 220.5t-198.5 89.5q-129 0 -196.5 -86.5t-67.5 -217.5t70.5 -219t195.5 -88zM502 1217h-197v73q0 136 54.5 189t154.5 53q57 0 116 -24t107 -48t78 -24q64 0 64 82v20h190v-59q0 -79 -15 -133t-44 -82.5t-65 -40t-85 -11.5
q-48 0 -95.5 15t-78.5 33.5t-66 33.5t-61 15q-57 0 -57 -60v-32z" />
    <glyph glyph-name="uni1EE2" unicode="&#x1ee2;" horiz-adv-x="1759" 
d="M1370 1628h295q14 -57 14 -135q0 -99 -45.5 -174.5t-134.5 -114.5q160 -205 160 -477q0 -121 -31.5 -232.5t-96.5 -207.5t-157.5 -166.5t-222.5 -111t-283 -40.5q-179 0 -325.5 58.5t-242.5 161t-148 240t-52 296.5q0 119 34 230t102 205t161 164t219 109.5t269 39.5
q242 0 418 -103q88 18 88 127q0 59 -21 131zM889 242q84 0 152.5 27.5t114 73.5t76.5 108.5t44.5 130.5t13.5 141q0 98 -24.5 182t-73.5 151t-130.5 105.5t-187.5 38.5q-102 0 -181.5 -39t-127 -105.5t-72 -149.5t-24.5 -177q0 -103 26.5 -191t77 -154.5t132 -104
t184.5 -37.5zM1047 -428h-338v285h338v-285z" />
    <glyph glyph-name="uni1EE3" unicode="&#x1ee3;" horiz-adv-x="1374" 
d="M1067 1243h295q14 -57 14 -135q0 -94 -42 -168.5t-124 -114.5q84 -141 84 -295q0 -250 -164.5 -404.5t-453.5 -154.5q-144 0 -259 45.5t-187.5 123.5t-111 178t-38.5 212q0 110 39.5 209t114 177.5t192 124.5t262.5 46q199 0 346 -90q53 32 53 115q0 63 -20 131zM686 223
q87 0 148 42t88.5 108.5t27.5 150.5q0 131 -67.5 220.5t-198.5 89.5q-129 0 -196.5 -86.5t-67.5 -217.5t70.5 -219t195.5 -88zM854 -428h-338v285h338v-285z" />
    <glyph glyph-name="uni1EE4" unicode="&#x1ee4;" horiz-adv-x="1693" 
d="M170 608v834h350v-815q0 -385 338 -385q74 0 129 18t98.5 60.5t66 119t22.5 187.5v815h350v-826q0 -324 -174 -485.5t-500 -161.5q-324 0 -502 156.5t-178 482.5zM1016 -428h-338v285h338v-285z" />
    <glyph glyph-name="uni1EE5" unicode="&#x1ee5;" horiz-adv-x="1361" 
d="M139 412v647h334v-592q0 -236 191 -236q121 0 172 78t51 260v490h334v-752q0 -205 2 -307h-328q-1 6 -6 123q-30 -47 -66.5 -77t-110.5 -52.5t-180 -22.5q-177 0 -285 109.5t-108 331.5zM848 -428h-338v285h338v-285z" />
    <glyph glyph-name="uni1EE6" unicode="&#x1ee6;" horiz-adv-x="1693" 
d="M170 608v834h350v-815q0 -385 338 -385q74 0 129 18t98.5 60.5t66 119t22.5 187.5v815h350v-826q0 -324 -174 -485.5t-500 -161.5q-324 0 -502 156.5t-178 482.5zM643 1753l-55 150q101 63 241 63q123 0 185.5 -51.5t62.5 -140.5q0 -113 -112 -211h-240q57 60 76.5 88.5
t19.5 60.5q0 29 -18 48.5t-53 19.5q-55 0 -107 -27z" />
    <glyph glyph-name="uni1EE7" unicode="&#x1ee7;" horiz-adv-x="1361" 
d="M139 412v647h334v-592q0 -236 191 -236q121 0 172 78t51 260v490h334v-752q0 -205 2 -307h-328q-1 6 -6 123q-30 -47 -66.5 -77t-110.5 -52.5t-180 -22.5q-177 0 -285 109.5t-108 331.5zM475 1382l-55 150q101 63 242 63q122 0 184.5 -51.5t62.5 -140.5q0 -113 -112 -211
h-240q57 60 76.5 88.5t19.5 60.5q0 29 -18 48.5t-53 19.5q-55 0 -107 -27z" />
    <glyph glyph-name="uni1EE8" unicode="&#x1ee8;" horiz-adv-x="1693" 
d="M170 608v834h350v-815q0 -385 338 -385q74 0 129 18t98.5 60.5t66 119t22.5 187.5v815h202q90 15 90 127q0 63 -20 131h295q14 -57 14 -135q0 -113 -58.5 -195t-172.5 -113v-641q0 -324 -174 -485.5t-500 -161.5q-324 0 -502 156.5t-178 482.5zM662 1577l342 285h426
l-449 -285h-319z" />
    <glyph glyph-name="uni1EE9" unicode="&#x1ee9;" horiz-adv-x="1361" 
d="M139 412v647h334v-592q0 -236 191 -236q121 0 172 78t51 260v490h170q90 15 90 127q0 59 -21 131h295q15 -61 15 -135q0 -108 -55 -188t-160 -115v-572q0 -205 2 -307h-328q-1 6 -6 123q-30 -47 -66.5 -77t-110.5 -52.5t-180 -22.5q-177 0 -285 109.5t-108 331.5z
M487 1231l283 317h383l-371 -317h-295z" />
    <glyph glyph-name="uni1EEA" unicode="&#x1eea;" horiz-adv-x="1693" 
d="M170 608v834h350v-815q0 -385 338 -385q74 0 129 18t98.5 60.5t66 119t22.5 187.5v815h202q90 15 90 127q0 63 -20 131h295q14 -57 14 -135q0 -113 -58.5 -195t-172.5 -113v-641q0 -324 -174 -485.5t-500 -161.5q-324 0 -502 156.5t-178 482.5zM743 1577l-448 285h426
l330 -285h-308z" />
    <glyph glyph-name="uni1EEB" unicode="&#x1eeb;" horiz-adv-x="1361" 
d="M139 412v647h334v-592q0 -236 191 -236q121 0 172 78t51 260v490h170q90 15 90 127q0 59 -21 131h295q15 -61 15 -135q0 -108 -55 -188t-160 -115v-572q0 -205 2 -307h-328q-1 6 -6 123q-30 -47 -66.5 -77t-110.5 -52.5t-180 -22.5q-177 0 -285 109.5t-108 331.5z
M586 1231l-385 317h383l293 -317h-291z" />
    <glyph glyph-name="uni1EEC" unicode="&#x1eec;" horiz-adv-x="1693" 
d="M170 608v834h350v-815q0 -385 338 -385q74 0 129 18t98.5 60.5t66 119t22.5 187.5v815h202q90 15 90 127q0 63 -20 131h295q14 -57 14 -135q0 -113 -58.5 -195t-172.5 -113v-641q0 -324 -174 -485.5t-500 -161.5q-324 0 -502 156.5t-178 482.5zM643 1753l-55 150
q101 63 241 63q123 0 185.5 -51.5t62.5 -140.5q0 -113 -112 -211h-240q57 60 76.5 88.5t19.5 60.5q0 29 -18 48.5t-53 19.5q-55 0 -107 -27z" />
    <glyph glyph-name="uni1EED" unicode="&#x1eed;" horiz-adv-x="1361" 
d="M139 412v647h334v-592q0 -236 191 -236q121 0 172 78t51 260v490h170q90 15 90 127q0 59 -21 131h295q15 -61 15 -135q0 -108 -55 -188t-160 -115v-572q0 -205 2 -307h-328q-1 6 -6 123q-30 -47 -66.5 -77t-110.5 -52.5t-180 -22.5q-177 0 -285 109.5t-108 331.5z
M477 1382l-55 150q101 63 242 63q122 0 184.5 -51.5t62.5 -140.5q0 -113 -112 -211h-240q57 60 76.5 88.5t19.5 60.5q0 29 -18 48.5t-53 19.5q-55 0 -107 -27z" />
    <glyph glyph-name="uni1EEE" unicode="&#x1eee;" horiz-adv-x="1693" 
d="M170 608v834h350v-815q0 -385 338 -385q74 0 129 18t98.5 60.5t66 119t22.5 187.5v815h202q90 15 90 127q0 63 -20 131h295q14 -57 14 -135q0 -113 -58.5 -195t-172.5 -113v-641q0 -324 -174 -485.5t-500 -161.5q-324 0 -502 156.5t-178 482.5zM653 1581h-207v61
q0 250 216 250q59 0 123.5 -23t117.5 -46t84 -23q29 0 42 14.5t13 57.5v16h201v-45q0 -152 -53.5 -211t-149.5 -59q-58 0 -125 24.5t-123 49t-87 24.5q-52 0 -52 -59v-31z" />
    <glyph glyph-name="uni1EEF" unicode="&#x1eef;" horiz-adv-x="1361" 
d="M139 412v647h334v-592q0 -236 191 -236q121 0 172 78t51 260v490h170q90 15 90 127q0 59 -21 131h295q15 -61 15 -135q0 -108 -55 -188t-160 -115v-572q0 -205 2 -307h-328q-1 6 -6 123q-30 -47 -66.5 -77t-110.5 -52.5t-180 -22.5q-177 0 -285 109.5t-108 331.5z
M494 1217h-197v73q0 136 54.5 189t154.5 53q57 0 116 -24t107 -48t78 -24q63 0 63 82v20h191v-59q0 -79 -15 -133t-44 -82.5t-65 -40t-85 -11.5q-48 0 -95.5 15t-78.5 33.5t-66 33.5t-61 15q-57 0 -57 -60v-32z" />
    <glyph glyph-name="uni1EF0" unicode="&#x1ef0;" horiz-adv-x="1693" 
d="M170 608v834h350v-815q0 -385 338 -385q74 0 129 18t98.5 60.5t66 119t22.5 187.5v815h202q90 15 90 127q0 63 -20 131h295q14 -57 14 -135q0 -113 -58.5 -195t-172.5 -113v-641q0 -324 -174 -485.5t-500 -161.5q-324 0 -502 156.5t-178 482.5zM1016 -428h-338v285h338
v-285z" />
    <glyph glyph-name="uni1EF1" unicode="&#x1ef1;" horiz-adv-x="1361" 
d="M139 412v647h334v-592q0 -236 191 -236q121 0 172 78t51 260v490h170q90 15 90 127q0 59 -21 131h295q15 -61 15 -135q0 -108 -55 -188t-160 -115v-572q0 -205 2 -307h-328q-1 6 -6 123q-30 -47 -66.5 -77t-110.5 -52.5t-180 -22.5q-177 0 -285 109.5t-108 331.5z
M848 -428h-338v285h338v-285z" />
    <glyph glyph-name="Ygrave" unicode="&#x1ef2;" horiz-adv-x="1431" 
d="M891 0h-350v516q0 18 -19 47l-596 879h416q27 -43 86 -136t94 -149.5t80 -129.5t76.5 -128t50.5 -94q33 60 96 161.5t160.5 254t140.5 221.5h381l-608 -893q-8 -16 -8 -39v-510zM610 1556l-448 285h426l330 -285h-308z" />
    <glyph glyph-name="ygrave" unicode="&#x1ef3;" horiz-adv-x="1273" 
d="M141 -463v270q73 -6 107 -6q54 0 89.5 8t61.5 30.5t42 47t40 72.5l-471 1100h367q214 -539 280 -791h7q94 335 254 791h342l-355 -907q-108 -280 -155 -370q-74 -143 -167 -198q-98 -59 -278 -59q-105 0 -164 12zM537 1231l-385 317h383l292 -317h-290z" />
    <glyph glyph-name="uni1EF4" unicode="&#x1ef4;" horiz-adv-x="1431" 
d="M891 0h-350v516q0 18 -19 47l-596 879h416q27 -43 86 -136t94 -149.5t80 -129.5t76.5 -128t50.5 -94q33 60 96 161.5t160.5 254t140.5 221.5h381l-608 -893q-8 -16 -8 -39v-510zM885 -428h-338v285h338v-285z" />
    <glyph glyph-name="uni1EF5" unicode="&#x1ef5;" horiz-adv-x="1273" 
d="M141 -463v270q73 -6 107 -6q54 0 89.5 8t61.5 30.5t42 47t40 72.5l-471 1100h367q214 -539 280 -791h7q94 335 254 791h342l-355 -907q-108 -280 -155 -370q-74 -143 -167 -198q-98 -59 -278 -59q-105 0 -164 12zM1278 -428h-338v285h338v-285z" />
    <glyph glyph-name="uni1EF6" unicode="&#x1ef6;" horiz-adv-x="1431" 
d="M891 0h-350v516q0 18 -19 47l-596 879h416q27 -43 86 -136t94 -149.5t80 -129.5t76.5 -128t50.5 -94q33 60 96 161.5t160.5 254t140.5 221.5h381l-608 -893q-8 -16 -8 -39v-510zM512 1735l-55 149q103 64 241 64q122 0 185 -52t63 -141q0 -113 -112 -211h-240
q56 60 76 88.5t20 61.5q0 28 -18.5 47.5t-53.5 19.5q-56 0 -106 -26z" />
    <glyph glyph-name="uni1EF7" unicode="&#x1ef7;" horiz-adv-x="1273" 
d="M141 -463v270q73 -6 107 -6q54 0 89.5 8t61.5 30.5t42 47t40 72.5l-471 1100h367q214 -539 280 -791h7q94 335 254 791h342l-355 -907q-108 -280 -155 -370q-74 -143 -167 -198q-98 -59 -278 -59q-105 0 -164 12zM432 1382l-55 150q101 63 241 63q123 0 185.5 -51.5
t62.5 -140.5q0 -113 -112 -211h-240q57 60 76.5 88.5t19.5 60.5q0 29 -18 48.5t-53 19.5q-55 0 -107 -27z" />
    <glyph glyph-name="uni1EF8" unicode="&#x1ef8;" horiz-adv-x="1431" 
d="M891 0h-350v516q0 18 -19 47l-596 879h416q27 -43 86 -136t94 -149.5t80 -129.5t76.5 -128t50.5 -94q33 60 96 161.5t160.5 254t140.5 221.5h381l-608 -893q-8 -16 -8 -39v-510zM522 1581h-207v61q0 250 215 250q59 0 123.5 -23t118 -46t84.5 -23q29 0 42 14.5t13 57.5
v16h201v-45q0 -152 -53.5 -211t-149.5 -59q-58 0 -125.5 24.5t-123.5 49t-87 24.5q-51 0 -51 -59v-31z" />
    <glyph glyph-name="uni1EF9" unicode="&#x1ef9;" horiz-adv-x="1273" 
d="M141 -463v270q73 -6 107 -6q54 0 89.5 8t61.5 30.5t42 47t40 72.5l-471 1100h367q214 -539 280 -791h7q94 335 254 791h342l-355 -907q-108 -280 -155 -370q-74 -143 -167 -198q-98 -59 -278 -59q-105 0 -164 12zM451 1217h-197v73q0 136 54.5 189t154.5 53q57 0 116 -24
t107 -48t78 -24q63 0 63 82v20h191v-59q0 -79 -15 -133t-44 -82.5t-65 -40t-85 -11.5q-48 0 -95.5 15t-78.5 33.5t-66 33.5t-61 15q-57 0 -57 -60v-32z" />
    <glyph glyph-name="uni2007" unicode="&#x2007;" horiz-adv-x="1370" 
 />
    <glyph glyph-name="uni2010" unicode="&#x2010;" horiz-adv-x="892" 
d="M104 383v279h684v-279h-684z" />
    <glyph glyph-name="figuredash" unicode="&#x2012;" horiz-adv-x="1370" 
d="M158 573v277h1054v-277h-1054z" />
    <glyph glyph-name="endash" unicode="&#x2013;" horiz-adv-x="1286" 
d="M104 383v279h1076v-279h-1076z" />
    <glyph glyph-name="emdash" unicode="&#x2014;" horiz-adv-x="2361" 
d="M104 383v279h2151v-279h-2151z" />
    <glyph glyph-name="uni2015" unicode="&#x2015;" horiz-adv-x="2361" 
d="M104 383v279h2151v-279h-2151z" />
    <glyph glyph-name="quoteleft" unicode="&#x2018;" horiz-adv-x="626" 
d="M426 864h-342q19 170 76 353.5t119 304.5h264q-101 -345 -117 -658z" />
    <glyph glyph-name="quoteright" unicode="&#x2019;" horiz-adv-x="626" 
d="M201 1526h342q-20 -171 -77 -354.5t-118 -305.5h-264q98 334 117 660z" />
    <glyph glyph-name="quotesinglbase" unicode="&#x201a;" horiz-adv-x="626" 
d="M201 377h342q-20 -171 -77 -354.5t-118 -305.5h-264q98 334 117 660z" />
    <glyph glyph-name="quotedblleft" unicode="&#x201c;" horiz-adv-x="1101" 
d="M426 866h-342q19 170 76 353.5t119 304.5h264q-101 -345 -117 -658zM915 866h-342q19 170 76 353.5t119 304.5h264q-101 -345 -117 -658z" />
    <glyph glyph-name="quotedblright" unicode="&#x201d;" horiz-adv-x="1101" 
d="M195 1526h331q-23 -184 -78.5 -363t-115.5 -297h-248q96 400 111 660zM690 1526h342q-20 -172 -76.5 -355.5t-117.5 -304.5h-265q98 334 117 660z" />
    <glyph glyph-name="quotedblbase" unicode="&#x201e;" horiz-adv-x="1101" 
d="M195 377h331q-23 -184 -78.5 -363t-115.5 -297h-248q96 400 111 660zM690 377h342q-20 -172 -76.5 -355.5t-117.5 -304.5h-265q98 334 117 660z" />
    <glyph glyph-name="dagger" unicode="&#x2020;" horiz-adv-x="1155" 
d="M418 -279l18 1002l-377 -16v239l377 -14l-18 444h280l-16 -444l373 14v-239l-373 16l16 -1002h-280z" />
    <glyph glyph-name="daggerdbl" unicode="&#x2021;" horiz-adv-x="1155" 
d="M418 -279l18 437l-377 -15v236l377 -12v409l-377 -14v239l377 -16l-18 389h280l-16 -389l373 16v-239l-373 14v-409l373 12v-236l-373 15l16 -437h-280z" />
    <glyph glyph-name="bullet" unicode="&#x2022;" horiz-adv-x="978" 
d="M205 238v579h569v-579h-569z" />
    <glyph glyph-name="ellipsis" unicode="&#x2026;" horiz-adv-x="1896" 
d="M512 0h-385v428h385v-428zM1153 0h-385v428h385v-428zM1794 0h-385v428h385v-428z" />
    <glyph glyph-name="perthousand" unicode="&#x2030;" horiz-adv-x="2805" 
d="M637 0h-229l886 1372h232zM1499 -27q-183 0 -284 105.5t-101 288.5q0 110 43.5 197.5t132.5 140.5t211 53q177 0 282 -102t105 -289q0 -175 -102.5 -284.5t-286.5 -109.5zM1503 172q72 0 110 52.5t38 142.5q0 100 -36.5 146t-113.5 46q-67 0 -104 -50t-37 -140
q0 -93 36 -145t107 -52zM2353 -27q-183 0 -284 105.5t-101 288.5q0 110 43.5 197.5t132.5 140.5t211 53q177 0 282 -102t105 -289q0 -175 -102.5 -284.5t-286.5 -109.5zM2357 172q72 0 110 52.5t38 142.5q0 100 -36.5 146t-113.5 46q-67 0 -104 -50t-37 -140q0 -93 36 -145
t107 -52zM449 616q-183 0 -284.5 105.5t-101.5 288.5q0 110 43.5 197.5t133 140.5t211.5 53q177 0 282 -102t105 -289q0 -175 -102.5 -284.5t-286.5 -109.5zM453 815q72 0 109.5 52.5t37.5 142.5q0 101 -36 146.5t-113 45.5q-67 0 -104.5 -50t-37.5 -140q0 -93 36.5 -145
t107.5 -52z" />
    <glyph glyph-name="uni2032" unicode="&#x2032;" horiz-adv-x="618" 
d="M362 852h-260l82 674h332z" />
    <glyph glyph-name="uni2033" unicode="&#x2033;" horiz-adv-x="1069" 
d="M346 852h-244l80 674h318zM813 852h-244l80 674h318z" />
    <glyph glyph-name="guilsinglleft" unicode="&#x2039;" horiz-adv-x="845" 
d="M440 109l-346 432l346 424h312l-342 -424l342 -432h-312z" />
    <glyph glyph-name="guilsinglright" unicode="&#x203a;" horiz-adv-x="845" 
d="M406 109h-312l342 426l-342 430h312l346 -430z" />
    <glyph glyph-name="fraction" unicode="&#x2044;" horiz-adv-x="339" 
d="M-156 0h-192l848 1372h190z" />
    <glyph glyph-name="zero.sups" unicode="&#x2070;" horiz-adv-x="942" 
d="M471 891q-98 0 -177 33.5t-128.5 91t-76 131.5t-26.5 158q0 181 111 300t303 119q100 0 179 -34.5t127 -93t73 -131t25 -152.5q0 -191 -112 -306.5t-298 -115.5zM475 1083q143 0 143 226q0 225 -145 225q-72 0 -109.5 -58t-37.5 -167t39.5 -167.5t109.5 -58.5z" />
    <glyph glyph-name="four.sups" unicode="&#x2074;" horiz-adv-x="905" 
d="M57 1079v187l381 448h297v-450h137l-16 -185h-121v-178h-227v178h-451zM291 1264h217v98q0 115 8 180q-18 -25 -52.5 -68t-92.5 -113.5t-80 -96.5z" />
    <glyph glyph-name="five.sups" unicode="&#x2075;" horiz-adv-x="899" 
d="M80 1163h250q23 -86 135 -86q129 0 129 105q0 100 -145 100q-98 0 -140 -57l-221 37q59 281 82 452h637l-33 -194h-405q-2 -17 -8.5 -55t-8.5 -48q52 37 176 37q142 0 233 -69.5t91 -192.5q0 -134 -102.5 -216.5t-288.5 -82.5q-175 0 -274 77.5t-107 192.5z" />
    <glyph glyph-name="six.sups" unicode="&#x2076;" horiz-adv-x="919" 
d="M63 1307q0 62 13.5 120t45 112.5t77.5 95t116 65t156 24.5q84 0 151.5 -20t110.5 -54t68 -73t33 -82h-252q-27 57 -119 57q-74 0 -108 -46.5t-36 -116.5q34 30 95.5 48t138.5 17q144 -1 227.5 -73.5t83.5 -190.5q0 -135 -103.5 -217t-281.5 -82q-198 0 -307 112t-109 304
zM338 1194q0 -51 32.5 -89t104.5 -38q66 0 102 29.5t35 83.5q-3 108 -143 108q-58 0 -94.5 -27t-36.5 -67z" />
    <glyph glyph-name="seven.sups" unicode="&#x2077;" horiz-adv-x="794" 
d="M426 903h-283q31 163 135 343.5t199 269.5h-440v198h708v-184q-108 -122 -194 -289.5t-125 -337.5z" />
    <glyph glyph-name="eight.sups" unicode="&#x2078;" horiz-adv-x="925" 
d="M70 1143q0 129 137 182q-96 48 -96 164q0 98 91 166.5t269 68.5q167 0 257.5 -66t90.5 -161q0 -63 -26.5 -101.5t-81.5 -62.5q145 -59 145 -186q0 -116 -115 -186t-282 -70q-177 0 -283 74.5t-106 177.5zM324 1159q0 -40 38 -66t103 -26q68 0 104.5 24t36.5 64
q0 86 -145 86q-65 0 -101 -21.5t-36 -60.5zM346 1481q0 -80 123 -80q111 0 111 74q0 37 -28 59t-85 22q-59 0 -90 -20.5t-31 -54.5z" />
    <glyph glyph-name="nine.sups" unicode="&#x2079;" horiz-adv-x="919" 
d="M68 1133h254q29 -64 124 -64q137 0 152 174q-78 -68 -221 -65q-155 1 -239.5 73.5t-84.5 182.5q0 125 102.5 207.5t282.5 82.5q199 0 307.5 -109.5t108.5 -299.5q0 -55 -11 -109.5t-40.5 -112.5t-73.5 -102t-117.5 -72t-165.5 -28q-87 0 -158.5 22t-116 58t-70.5 77
t-33 85zM305 1448q1 -47 38.5 -73.5t100.5 -26.5q65 0 103.5 24t38.5 68t-34 77t-110 33q-61 0 -99.5 -26t-37.5 -76z" />
    <glyph glyph-name="parenleft.sups" unicode="&#x207d;" horiz-adv-x="536" 
d="M496 745h-232q-71 81 -128.5 222t-57.5 321q0 315 186 549h232q-91 -120 -145 -248.5t-54 -300.5q0 -169 54 -297.5t145 -245.5z" />
    <glyph glyph-name="parenright.sups" unicode="&#x207e;" horiz-adv-x="536" 
d="M43 1866h231q72 -84 129.5 -225t57.5 -320q0 -312 -187 -547h-231q90 117 144.5 246.5t54.5 300.5q0 118 -31.5 226t-70.5 175t-97 144z" />
    <glyph glyph-name="n.sups" unicode="&#x207f;" horiz-adv-x="937" 
d="M342 559h-248v463q0 68 -1 140t-1 79h240q1 -4 6 -90q35 47 88 75.5t149 28.5q49 0 93.5 -13.5t85.5 -43t65.5 -86t24.5 -133.5v-420h-248v377q0 129 -113 129q-141 0 -141 -172v-334z" />
    <glyph glyph-name="zero.subs" unicode="&#x2080;" horiz-adv-x="942" 
d="M471 -340q-98 0 -177 33.5t-128.5 91t-76 131.5t-26.5 158q0 181 111 300.5t303 119.5q100 0 179 -34.5t127 -93.5t73 -131.5t25 -152.5q0 -191 -112 -306.5t-298 -115.5zM475 -147q143 0 143 225t-145 225q-72 0 -109.5 -58t-37.5 -167t39.5 -167t109.5 -58z" />
    <glyph glyph-name="one.subs" unicode="&#x2081;" horiz-adv-x="552" 
d="M449 -330h-254v549q-59 -14 -142 -18v176q54 7 117.5 38t103.5 68h175v-813z" />
    <glyph glyph-name="two.subs" unicode="&#x2082;" horiz-adv-x="864" 
d="M803 -330h-727v13q0 141 68 234.5t223 170.5q118 59 140 75q30 24 30 56q0 35 -25.5 60.5t-87.5 25.5q-106 0 -123 -98h-238q5 56 28 105.5t66 91t115 66t166 24.5t166 -24.5t112 -65t59.5 -85.5t19.5 -92q0 -96 -50.5 -152.5t-179.5 -111.5q-5 -3 -27.5 -13t-30 -14
t-26 -13t-27.5 -15t-21.5 -14.5t-20 -17t-13.5 -17.5h435z" />
    <glyph glyph-name="three.subs" unicode="&#x2083;" horiz-adv-x="886" 
d="M55 -59h248q23 -99 150 -99q65 0 98 22.5t33 63.5t-34.5 59.5t-117.5 18.5h-80v170h78q68 0 93.5 15t25.5 47q0 35 -24 54t-87 19q-98 0 -123 -73h-231q2 29 12 60t35.5 67t64 64t103 46.5t145.5 18.5q164 0 257.5 -65.5t93.5 -174.5q0 -64 -34 -103.5t-77 -50.5
q52 -9 99.5 -56.5t47.5 -123.5q0 -50 -19.5 -93t-61.5 -81.5t-121.5 -61t-188.5 -22.5q-87 0 -157 21t-110.5 52t-68 71t-38 73t-11.5 62z" />
    <glyph glyph-name="four.subs" unicode="&#x2084;" horiz-adv-x="905" 
d="M57 -152v187l381 448h297v-450h137l-16 -185h-121v-178h-227v178h-451zM291 33h217v98q0 115 8 180q-18 -25 -52.5 -68t-92.5 -113.5t-80 -96.5z" />
    <glyph glyph-name="five.subs" unicode="&#x2085;" horiz-adv-x="899" 
d="M80 -68h250q23 -86 135 -86q129 0 129 105q0 100 -145 100q-98 0 -140 -57l-221 37q59 281 82 452h637l-33 -194h-405q-2 -17 -8.5 -55t-8.5 -48q52 37 176 37q142 0 233 -69.5t91 -192.5q0 -134 -102.5 -216.5t-288.5 -82.5q-175 0 -274 77.5t-107 192.5z" />
    <glyph glyph-name="six.subs" unicode="&#x2086;" horiz-adv-x="919" 
d="M63 76q0 62 13.5 120t45 113t77.5 95.5t116 65t156 24.5q161 0 253.5 -68.5t109.5 -161.5h-252q-28 58 -119 58q-74 0 -108 -47t-36 -117q34 30 95.5 48t138.5 17q144 -1 227.5 -73.5t83.5 -190.5q0 -135 -103.5 -217t-281.5 -82q-198 0 -307 112t-109 304zM338 -37
q0 -51 32.5 -89t104.5 -38q66 0 102 29.5t35 83.5q-3 108 -143 108q-58 0 -94.5 -27t-36.5 -67z" />
    <glyph glyph-name="seven.subs" unicode="&#x2087;" horiz-adv-x="794" 
d="M426 -328h-283q31 163 135 343.5t199 269.5h-440v198h708v-184q-108 -122 -194 -289.5t-125 -337.5z" />
    <glyph glyph-name="eight.subs" unicode="&#x2088;" horiz-adv-x="925" 
d="M70 -88q0 129 137 182q-96 48 -96 164q0 98 91 167t269 69q167 0 257.5 -66.5t90.5 -161.5q0 -63 -26.5 -101.5t-81.5 -62.5q145 -59 145 -186q0 -116 -115 -186t-282 -70q-177 0 -283 74.5t-106 177.5zM324 -72q0 -40 38 -66t103 -26q68 0 104.5 24t36.5 64
q0 86 -145 86q-65 0 -101 -21.5t-36 -60.5zM346 250q0 -80 123 -80q111 0 111 74q0 37 -28 59.5t-85 22.5q-59 0 -90 -21t-31 -55z" />
    <glyph glyph-name="nine.subs" unicode="&#x2089;" horiz-adv-x="919" 
d="M68 -98h254q29 -64 124 -64q137 0 152 174q-78 -68 -221 -65q-155 1 -239.5 73.5t-84.5 182.5q0 125 102.5 208t282.5 83q198 0 307 -110t109 -300q0 -55 -11 -109.5t-40.5 -112.5t-73.5 -102t-117.5 -72t-165.5 -28q-87 0 -158.5 22t-116 58t-70.5 77t-33 85zM305 217
q1 -47 38.5 -73.5t100.5 -26.5q65 0 103.5 24t38.5 68t-34 77t-110 33q-61 0 -99.5 -26t-37.5 -76z" />
    <glyph glyph-name="parenleft.subs" unicode="&#x208d;" horiz-adv-x="536" 
d="M496 -485h-232q-31 35 -60.5 84t-59.5 116.5t-48 157t-18 184.5q0 315 186 549h232q-91 -120 -145 -248.5t-54 -300.5q0 -169 54 -296.5t145 -245.5z" />
    <glyph glyph-name="parenright.subs" unicode="&#x208e;" horiz-adv-x="536" 
d="M43 635h231q72 -84 129.5 -225t57.5 -320q0 -312 -187 -547h-231q90 117 144.5 246.5t54.5 300.5q0 118 -31.5 226t-70.5 175t-97 144z" />
    <glyph glyph-name="colonmonetary" unicode="&#x20a1;" horiz-adv-x="1370" 
d="M463 -190v210q-176 69 -274.5 239.5t-98.5 420.5q0 247 99.5 420.5t273.5 245.5v170h203v-125q14 2 43 2h41v123h204v-164q141 -54 218 -159.5t85 -221.5h-327q-22 80 -75 121t-161 41q-70 0 -121.5 -34.5t-81 -97t-43.5 -142t-14 -177.5q0 -83 15 -159.5t45 -141
t81.5 -103t118.5 -38.5q197 0 244 170h324q-24 -133 -101.5 -234.5t-206.5 -152.5v-213h-204v172q-16 -2 -50 -2h-34v-170h-203z" />
    <glyph glyph-name="franc" unicode="&#x20a3;" horiz-adv-x="1306" 
d="M55 205v213h162v954h975v-274h-649v-271h610v-270h-610v-139h221v-213h-221v-205h-326v205h-162z" />
    <glyph glyph-name="lira" unicode="&#x20a4;" horiz-adv-x="1323" 
d="M1272 0h-1176v223q80 32 115 82t43 137h-188v179h190q-1 14 -4 45.5t-4 50.5h-182v178h174v14q0 77 16.5 146.5t54.5 133.5t95.5 110.5t146 74t199.5 27.5q96 0 176 -23.5t133.5 -62t92 -89.5t57 -104t22.5 -108h-322q-23 133 -170 133q-87 0 -128.5 -61t-41.5 -162v-29
h303v-178h-294q4 -66 4 -96h290v-179h-303q-20 -103 -75 -170h813z" />
    <glyph glyph-name="uni20A6" unicode="&#x20a6;" horiz-adv-x="1468" 
d="M475 0h-268v475h-119v180h119v101h-119v180h119v436h438l137 -436h195v49v387h268v-436h119v-180h-119v-101h119v-180h-119v-475h-430l-145 475h-195v-80v-395zM475 655h139l-30 101h-109v-101zM870 655h109v101h-139zM928 475l51 -164h20q-9 69 -12 164h-59zM471 936h57
l-49 160h-18q7 -83 10 -160z" />
    <glyph glyph-name="peseta" unicode="&#x20a7;" horiz-adv-x="1437" 
d="M524 0h-319v778h-133v213h133v381h502q133 0 244 -43.5t187 -130.5t99 -207h117v-213h-119q-38 -178 -189.5 -281.5t-365.5 -103.5h-156v-393zM524 1143v-152h394q-20 77 -80 114.5t-166 37.5h-148zM524 778v-149h125q115 0 181 33.5t88 115.5h-394z" />
    <glyph glyph-name="dong" unicode="&#x20ab;" horiz-adv-x="1445" 
d="M135 -354v207h1077v-207h-1077zM1225 0h-314q-5 15 -14 117q-50 -70 -124 -107t-208 -37q-132 0 -240.5 67.5t-169.5 182t-61 250.5q0 123 44 223t116.5 162t161.5 95.5t182 33.5q209 0 299 -104v194h-412v207h412v92h326v-92h139v-207h-139v-784q0 -245 2 -293zM659 221
q116 0 182 66.5t66 193.5q0 123 -62.5 192.5t-176.5 69.5q-122 0 -182 -75.5t-60 -188.5q0 -110 59.5 -184t173.5 -74z" />
    <glyph glyph-name="Euro" unicode="&#x20ac;" horiz-adv-x="1423" 
d="M78 471v176h123v33q0 45 2 68h-125v180h149q55 226 206.5 349.5t369.5 123.5q121 0 220.5 -36t162 -95.5t98.5 -130t43 -146.5h-315q-47 156 -226 156q-99 0 -154.5 -56.5t-78.5 -164.5h332v-180h-353v-66v-35h353v-176h-334q50 -235 237 -235q92 0 145 32.5t79 104.5
h319q-21 -84 -62 -154t-105.5 -127t-160.5 -89t-215 -32q-234 0 -379.5 133t-189.5 367h-141z" />
    <glyph glyph-name="uni20B1" unicode="&#x20b1;" horiz-adv-x="1423" 
d="M532 0h-323v690h-146v141h146v76h-146v144h146v321h481q191 0 333 -83t196 -238h139v-144h-111q2 -12 2 -41q0 -25 -2 -35h111v-141h-139q-55 -155 -200.5 -244.5t-338.5 -89.5h-148v-356zM532 690v-104h125q181 0 236 104h-361zM532 1143v-92h349q-61 92 -215 92h-134z
M532 831h394v29q0 33 -2 47h-392v-76z" />
    <glyph glyph-name="uni20B2" unicode="&#x20b2;" horiz-adv-x="1406" 
d="M563 -193v181q-231 51 -352 230.5t-121 465.5q0 274 126 458.5t347 235.5v150h287v-142q194 -28 302 -136.5t122 -268.5h-336q-29 162 -231 162q-64 0 -113.5 -29.5t-79 -75t-48.5 -107t-25.5 -118.5t-6.5 -117q0 -66 8 -127t29.5 -125t55 -110.5t89.5 -76.5t129 -30
q87 0 173 27v434h342v-602q-211 -91 -410 -109v-170h-287z" />
    <glyph glyph-name="uni20B4" unicode="&#x20b4;" horiz-adv-x="1337" 
d="M86 475v178h207q70 48 172 95h-354v180h731q24 33 24 84q0 66 -48.5 110.5t-139.5 44.5q-165 0 -195 -127h-313q7 71 39.5 133t91.5 114.5t156 83t221 30.5q104 0 189 -23.5t140 -61t92.5 -88t53.5 -102.5t16 -106q0 -53 -8 -92h86v-180h-209q-68 -50 -176 -95h363v-178
h-733q-29 -34 -29 -92q0 -70 59 -119t148 -49q106 0 154 34.5t69 100.5h324q-35 -174 -178 -273.5t-390 -99.5q-136 0 -250.5 45.5t-186 137t-71.5 213.5q0 48 13 102h-68z" />
    <glyph glyph-name="uni20B5" unicode="&#x20b5;" horiz-adv-x="1347" 
d="M555 -193v187q-218 46 -341.5 225.5t-123.5 460.5q0 279 125 462.5t340 233.5v152h287v-146q101 -18 181 -61.5t128.5 -101.5t75 -122.5t30.5 -131.5h-327q-22 80 -76.5 124t-159.5 44q-70 0 -121.5 -34t-81 -97t-43.5 -142t-14 -178q0 -128 25 -224t85.5 -157t153.5 -61
q96 0 154 41.5t86 126.5h324q-24 -162 -131 -273.5t-289 -142.5v-185h-287z" />
    <glyph glyph-name="uni20B9" unicode="&#x20b9;" horiz-adv-x="1376" 
d="M131 498v219h311q111 0 181.5 45t87.5 133h-580v184h555q-60 105 -227 105h-328v188h1145v-186h-326q42 -48 66 -107h260v-184h-238q-13 -139 -103.5 -229.5t-232.5 -133.5l494 -532h-399l-465 498h-201z" />
    <glyph glyph-name="uni20BA" unicode="&#x20ba;" horiz-adv-x="1384" 
d="M627 0h-328v483l-199 -75v208l199 76v121l-199 -76v209l199 76v350h334v-221l264 102v-209l-264 -102v-121l264 103v-209l-264 -103v-352q78 1 139 23.5t98 56t63 84t38 95t20 99.5h312q-9 -93 -31 -174t-71.5 -165t-121.5 -143.5t-188 -97.5t-264 -38z" />
    <glyph glyph-name="uni20BD" unicode="&#x20bd;" horiz-adv-x="1382" 
d="M66 229v191h165v121h-165v225h165v606h541q248 0 383 -112.5t135 -296.5q0 -213 -143 -317.5t-393 -104.5h-170v-121h364v-191h-364v-229h-353v229h-165zM584 1143v-377h145q213 0 213 186q0 191 -215 191h-143z" />
    <glyph glyph-name="uni2113" unicode="&#x2113;" horiz-adv-x="1058" 
d="M94 319l-67 209q17 9 77 39t91 49v426q0 122 29.5 211t83.5 140.5t122.5 75.5t153.5 24q173 0 266.5 -93t93.5 -272q0 -190 -95 -341.5t-329 -292.5v-117q0 -88 21 -120t65 -32q50 0 72.5 34.5t34.5 105.5h293q-43 -381 -431 -381q-89 0 -157.5 21t-109 54.5t-66 81
t-34.5 95t-9 102.5v35q-102 -53 -105 -54zM520 1096v-305q142 144 142 337q0 146 -66 146q-29 0 -44.5 -12.5t-23.5 -51.5t-8 -114z" />
    <glyph glyph-name="uni2116" unicode="&#x2116;" horiz-adv-x="2488" 
d="M502 0h-320v1401h428q290 -522 394 -717.5t129 -273.5h2q-15 165 -15 628v363h320v-1401h-393q-510 956 -562 1067h-2q19 -252 19 -707v-360zM1645 207v194h692v-194h-692zM1987 518q-180 0 -294 113t-114 301q0 186 115 300t295 114q186 0 299.5 -112.5t113.5 -301.5
q0 -186 -112.5 -300t-302.5 -114zM1991 721q79 0 122.5 52t43.5 159q0 113 -43.5 163t-124.5 50q-73 0 -117.5 -54.5t-44.5 -158.5q0 -98 44 -154.5t120 -56.5z" />
    <glyph glyph-name="uni2117" unicode="&#x2117;" horiz-adv-x="1681" 
d="M844 -25q-210 0 -378.5 93t-266 265t-97.5 392q0 211 97.5 383t267.5 269.5t377 97.5q155 0 291 -56t233.5 -154t154 -238.5t56.5 -301.5q0 -214 -96 -386t-264 -268t-375 -96zM842 109q170 0 304 71t214 212t80 331q0 181 -78.5 322.5t-214.5 218.5t-305 77
q-170 0 -304.5 -72t-214 -213.5t-79.5 -332.5q0 -175 78 -316t214.5 -219.5t305.5 -78.5zM760 334h-197v794h348q129 0 216 -72.5t87 -191.5q0 -132 -85.5 -204t-225.5 -72h-143v-254zM762 967v-219h112q140 0 140 110q0 52 -33.5 80.5t-97.5 28.5h-121z" />
    <glyph glyph-name="uni2120" unicode="&#x2120;" horiz-adv-x="1167" 
d="M528 1290h-143q-10 60 -92 60q-37 0 -53.5 -11t-16.5 -26q0 -19 17 -26t73 -17q129 -21 180.5 -59.5t51.5 -108.5q0 -83 -61.5 -124.5t-176.5 -41.5q-114 0 -176.5 47t-73.5 131h148q7 -34 37.5 -49.5t70.5 -15.5q82 0 82 36q0 20 -26.5 30t-92.5 20q-120 20 -161 57.5
t-41 99.5q0 74 59 117t166 43q114 0 169 -45.5t60 -116.5zM604 948v494h246q36 -142 63 -279h5q21 90 75 279h228v-494h-152v137q0 57 2.5 107.5t6 90.5t3.5 50h-4q-20 -66 -53 -188t-55 -193h-125q-68 255 -96 381h-5q8 -174 9 -270v-115h-148z" />
    <glyph glyph-name="trademark" unicode="&#x2122;" horiz-adv-x="1030" 
d="M106 948v363h-153v131h465v-131h-150v-363h-162zM469 948v494h246q36 -142 63 -279h4q17 72 76 279h227v-494h-151v137q0 57 2.5 107.5t6 90.5t3.5 50h-4q-20 -66 -53 -188t-55 -193h-125q-74 279 -97 381h-4q6 -142 8 -270v-115h-147z" />
    <glyph glyph-name="uni2126" unicode="&#x2126;" horiz-adv-x="1677" 
d="M51 0v279h324q-68 54 -116 105t-87.5 115.5t-59.5 143.5t-20 174q0 104 32 201t95.5 179.5t152.5 144t211 96.5t263 35q176 0 319 -54t233.5 -145t138.5 -208t48 -247q0 -188 -79.5 -323.5t-211.5 -216.5h332v-279h-678v299q125 66 205.5 192.5t79.5 288.5
q-1 89 -24.5 163.5t-70 133.5t-124 92t-178.5 33q-102 0 -179 -35t-121 -96.5t-65.5 -136t-21.5 -160.5q0 -164 79.5 -282.5t210.5 -192.5v-299h-688z" />
    <glyph glyph-name="estimated" unicode="&#x212e;" horiz-adv-x="1751" 
d="M461 633v-258q0 -19 16 -45q127 -201 383 -201q156 0 260.5 53.5t182.5 179.5h303q-112 -184 -301.5 -285.5t-448.5 -101.5q-180 0 -328 57t-244 155t-148 228t-52 277q0 144 60.5 275t164 227t251.5 152.5t314 56.5q176 0 325.5 -56t251.5 -152t159 -226t57 -277v-51
h-1198q-8 0 -8 -8zM469 803h815q8 0 8 12v209q0 24 -18 49q-119 178 -395 178q-139 0 -242 -52.5t-158 -131.5q-18 -27 -18 -47v-205q0 -12 8 -12z" />
    </font>
</defs>
</svg>
