<?xml version="1.0" standalone="no"?>
<!DOCTYPE svg PUBLIC "-//W3C//DTD SVG 1.1//EN" "http://www.w3.org/Graphics/SVG/1.1/DTD/svg11.dtd" >
<svg xmlns="http://www.w3.org/2000/svg" xmlns:xlink="http://www.w3.org/1999/xlink" version="1.1">
<metadata>
Created by FontForge 20170731 at Wed Dec 29 09:54:38 2021
 By Aleksey,,,
(c) 2014 Adobe Systems Incorporated. All Rights Reserved.
</metadata>
<defs>
<font id="AcuminProWide-Regular" horiz-adv-x="819" >
  <font-face 
    font-family="Acumin Pro Wide"
    font-weight="400"
    font-stretch="expanded"
    units-per-em="2048"
    panose-1="2 11 5 5 2 2 2 2 2 4"
    ascent="1505"
    descent="-543"
    x-height="1036"
    cap-height="1454"
    bbox="-389 -543 2683 2185"
    underline-thickness="102"
    underline-position="-307"
    unicode-range="U+000D-FB02"
  />
<missing-glyph horiz-adv-x="1024" 
d="M1024 0h-1024v1434h1024v-1434zM512 625l-348 -523h696zM164 1331l348 -522l348 522h-696zM102 1239v-1044l349 522zM573 717l349 -522v1044z" />
    <glyph glyph-name="f_f" unicode="ff" horiz-adv-x="1302" 
d="M227 0v883h-194v153h194v131q0 84 18 152t56.5 122.5t105.5 84.5t158 30q71 0 115 -12v-155q-48 10 -88 10q-96 0 -133 -57t-37 -179v-127h436v133q0 84 17.5 151.5t55.5 122t105.5 84t159.5 29.5q72 0 115 -12v-155q-45 10 -88 10q-96 0 -133 -57t-37 -179v-127h243
v-153h-243v-883h-195v883h-436v-883h-195z" />
    <glyph glyph-name=".notdef" horiz-adv-x="1024" 
d="M1024 0h-1024v1434h1024v-1434zM512 625l-348 -523h696zM164 1331l348 -522l348 522h-696zM102 1239v-1044l349 522zM573 717l349 -522v1044z" />
    <glyph glyph-name=".null" horiz-adv-x="0" 
 />
    <glyph glyph-name="nonmarkingreturn" horiz-adv-x="682" 
 />
    <glyph glyph-name="NULL" horiz-adv-x="0" 
 />
    <glyph glyph-name="NULL" horiz-adv-x="0" 
 />
    <glyph glyph-name="CR" unicode="&#xd;" horiz-adv-x="606" 
 />
    <glyph glyph-name="space" unicode=" " horiz-adv-x="606" 
 />
    <glyph glyph-name="exclam" unicode="!" horiz-adv-x="665" 
d="M463 0h-189v309h189v-309zM455 514h-172l-19 707v233h211v-233z" />
    <glyph glyph-name="quotedbl" unicode="&#x22;" horiz-adv-x="753" 
d="M262 942h-143l-23 424v174h187v-172zM637 942h-143l-23 424v174h186v-172z" />
    <glyph glyph-name="numbersign" unicode="#" horiz-adv-x="1443" 
d="M164 0l119 383h-183v158h232l112 366h-225v156h275l108 350h150l-109 -350h354l109 350h149l-108 -350h172v-156h-219l-113 -366h217v-158h-266l-117 -383h-153l118 383h-352l-119 -383h-151zM481 541h355l112 366h-352z" />
    <glyph glyph-name="dollar" unicode="$" horiz-adv-x="1249" 
d="M690 -213h-135v190q-206 15 -335 121t-161 287h201q59 -215 295 -246v492q-169 38 -268.5 92.5t-140 126t-40.5 174.5q0 67 27 130t79.5 117t141 88.5t201.5 39.5v155h135v-157q108 -10 191.5 -45.5t133 -87t76.5 -108.5t33 -120h-196q-40 166 -238 199v-434
q113 -25 197 -59.5t135 -73.5t82 -88t42 -95.5t11 -103.5q0 -169 -122.5 -279t-344.5 -125v-190zM690 600v-465q124 9 193 66.5t69 154.5q0 43 -10 75t-37.5 64t-80.5 57.5t-134 47.5zM555 831v412q-133 -7 -190.5 -64t-57.5 -137q0 -79 53.5 -127t194.5 -84z" />
    <glyph glyph-name="percent" unicode="%" horiz-adv-x="1931" 
d="M1479 -25q-174 0 -270.5 111.5t-96.5 288.5q0 63 14.5 121.5t45 109t73.5 88t103.5 59t132.5 21.5q174 0 273 -105.5t99 -291.5q0 -173 -97 -287.5t-277 -114.5zM1483 111q102 0 157.5 72.5t55.5 193.5q0 124 -55 193t-160 69q-95 0 -151 -69t-56 -193
q0 -121 55.5 -193.5t153.5 -72.5zM446 614q-174 0 -270 111.5t-96 288.5q0 63 14.5 121.5t45 109t73.5 88t103.5 59t132.5 21.5q174 0 273 -105.5t99 -291.5q0 -83 -23.5 -154.5t-69 -127.5t-118 -88t-164.5 -32zM451 750q102 0 157.5 72.5t55.5 193.5q0 124 -55 193
t-160 69q-95 0 -151 -69t-56 -193q0 -121 55.5 -193.5t153.5 -72.5zM563 0h-164l959 1384h166z" />
    <glyph glyph-name="ampersand" unicode="&#x26;" horiz-adv-x="1748" 
d="M743 778l322 -278l334 446h225l-434 -555l452 -391h-286l-283 246q-56 -68 -103 -113.5t-106 -84.5t-129 -58t-153 -19q-114 0 -205 36.5t-144 96.5t-80.5 130t-27.5 143q0 131 72.5 225.5t248.5 192.5q-83 79 -125 156t-42 173q0 150 109 255.5t292 105.5
q96 0 171.5 -29.5t120.5 -79.5t68 -109.5t23 -123.5q0 -116 -75 -198t-245 -167zM950 354l-393 342q-59 -29 -102.5 -60.5t-68.5 -60.5t-39.5 -61.5t-19.5 -59.5t-5 -59q0 -107 76.5 -181.5t195.5 -74.5q105 0 180 46t176 169zM635 877q133 64 189.5 125t56.5 141
q0 36 -11 69.5t-33.5 64t-64 48.5t-96.5 18q-95 0 -151 -58t-56 -148q0 -69 38.5 -130t127.5 -130z" />
    <glyph glyph-name="quotesingle" unicode="'" horiz-adv-x="385" 
d="M272 942h-155l-23 391v207h199v-205z" />
    <glyph glyph-name="parenleft" unicode="(" horiz-adv-x="757" 
d="M688 -326h-201q-157 168 -260.5 414t-103.5 535q0 149 31.5 291t85.5 257t115 205.5t132 163.5h201q-383 -407 -383 -922q0 -272 95.5 -499.5t287.5 -444.5z" />
    <glyph glyph-name="parenright" unicode=")" horiz-adv-x="757" 
d="M70 1540h200q157 -168 261 -413.5t104 -534.5q0 -149 -31.5 -291.5t-86 -257.5t-115.5 -205.5t-132 -163.5h-200q383 407 383 922q0 272 -95.5 499.5t-287.5 444.5z" />
    <glyph glyph-name="asterisk" unicode="*" horiz-adv-x="948" 
d="M135 705l-88 145l338 158l-336 161l84 148l291 -213l-35 352h172l-35 -352l287 213l88 -148l-332 -159l332 -160l-88 -145l-283 213l31 -351h-172l33 351z" />
    <glyph glyph-name="plus" unicode="+" horiz-adv-x="1689" 
d="M758 0v575h-545v173h545v542h174v-542h545v-173h-545v-575h-174z" />
    <glyph glyph-name="comma" unicode="," horiz-adv-x="512" 
d="M188 336h201q-14 -141 -69 -317t-130 -298h-170q141 310 168 615z" />
    <glyph glyph-name="hyphen" unicode="-" horiz-adv-x="886" 
d="M117 440v168h653v-168h-653z" />
    <glyph glyph-name="period" unicode="." horiz-adv-x="454" 
d="M336 0h-217v336h217v-336z" />
    <glyph glyph-name="slash" unicode="/" horiz-adv-x="1073" 
d="M279 -104h-183l699 1558h182z" />
    <glyph glyph-name="zero" unicode="0" horiz-adv-x="1327" 
d="M664 -29q-135 0 -241 56t-172.5 154.5t-101 228t-34.5 282.5q0 154 35 284t102.5 228t174 153.5t241.5 55.5q107 0 196.5 -36.5t153 -101t108 -153.5t65.5 -194t21 -223q0 -121 -19 -228t-61 -201t-105 -161t-155.5 -105.5t-207.5 -38.5zM664 137q78 0 138.5 31t99 83.5
t63.5 126.5t35 154t10 173q0 82 -10 156.5t-35 146.5t-63 124.5t-98 84.5t-136 32q-90 0 -158 -41t-110 -116.5t-62.5 -175.5t-20.5 -224q0 -103 18.5 -196.5t57.5 -176.5t109 -132.5t162 -49.5z" />
    <glyph glyph-name="one" unicode="1" horiz-adv-x="794" 
d="M592 0h-195v1143q-57 -40 -159.5 -80.5t-159.5 -48.5v155q110 32 208.5 92t157.5 123h148v-1384z" />
    <glyph glyph-name="two" unicode="2" horiz-adv-x="1212" 
d="M1128 0h-1034v10q0 178 115.5 335.5t361.5 307.5q71 43 113 70t83.5 57.5t62.5 53t38.5 51t23 57.5t5.5 66q0 101 -71 172t-216 71q-261 0 -311 -284h-190q15 199 150.5 322.5t356.5 123.5q115 0 208 -32.5t151.5 -88t89.5 -128t31 -154.5q0 -50 -9 -92t-22 -75.5
t-41 -67.5t-53.5 -58.5t-73 -58t-85 -56.5t-103.5 -63q-334 -203 -383 -373h831z" />
    <glyph glyph-name="three" unicode="3" horiz-adv-x="1288" 
d="M100 373h199q29 -111 118.5 -175.5t231.5 -64.5q143 0 231.5 69t88.5 208q0 121 -84 187.5t-248 66.5h-107v165h88q160 0 225.5 52t65.5 153q0 94 -69.5 156.5t-208.5 62.5q-244 0 -301 -213h-193q8 52 28 101t59 99.5t93 88t137 61t183 23.5q122 0 216.5 -31.5
t149.5 -85.5t83 -118t28 -136q0 -65 -21 -117.5t-55.5 -84.5t-68 -51t-68.5 -29v-4q34 -8 68 -23.5t72 -44.5t66.5 -66.5t47.5 -93.5t19 -122q0 -196 -142 -315.5t-391 -119.5q-102 0 -187.5 22.5t-145 60t-104 89.5t-69 109t-35.5 121z" />
    <glyph glyph-name="four" unicode="4" horiz-adv-x="1271" 
d="M88 354v172l692 858h219v-860h211l-24 -170h-187v-354h-186v354h-725zM297 524h516v344q0 215 6 326q-43 -63 -206 -272t-316 -398z" />
    <glyph glyph-name="five" unicode="5" horiz-adv-x="1296" 
d="M125 360h192q70 -225 338 -225q157 0 244.5 90t87.5 240q0 46 -9.5 88t-33 83t-58.5 71t-91 48.5t-127 18.5q-74 0 -131.5 -14.5t-97 -42t-65.5 -59t-48 -74.5l-170 26q28 138 68.5 393.5t54.5 380.5h860l-23 -165h-680q-14 -105 -63 -394q121 109 336 109
q214 0 344.5 -125t130.5 -334q0 -228 -142.5 -366t-390.5 -138q-120 0 -216.5 32t-159 87t-100 123t-50.5 147z" />
    <glyph glyph-name="six" unicode="6" horiz-adv-x="1282" 
d="M662 -27q-260 0 -403.5 181t-143.5 522q0 112 17 213t58.5 198.5t104 168.5t162 114t225.5 43q88 0 162 -20.5t124.5 -53t87.5 -77t57 -89.5t28 -92h-193q-66 176 -276 176q-341 0 -359 -520q133 201 402 201q214 0 343.5 -125t129.5 -330q0 -235 -145 -372.5
t-381 -137.5zM664 133q153 0 239 91t86 245q0 138 -80.5 223.5t-234.5 85.5q-81 0 -147 -25t-107 -66.5t-63.5 -93.5t-22.5 -108q0 -34 8.5 -75t31.5 -91.5t58.5 -90.5t95.5 -67.5t136 -27.5z" />
    <glyph glyph-name="seven" unicode="7" horiz-adv-x="1087" 
d="M457 0h-213q55 297 222 640.5t359 576.5h-798v167h1011v-157q-197 -252 -355 -583t-226 -644z" />
    <glyph glyph-name="eight" unicode="8" horiz-adv-x="1302" 
d="M109 389q0 129 75 219t193 133q-89 40 -143 117t-54 180q0 167 128.5 271t355.5 104q202 0 334 -100.5t132 -276.5q0 -110 -58.5 -185t-147.5 -103q129 -41 198.5 -134.5t69.5 -218.5q0 -104 -45 -186.5t-122 -133.5t-173.5 -77.5t-204.5 -26.5q-153 0 -274.5 49.5
t-192.5 145.5t-71 223zM307 397q0 -128 98 -199t244 -71q68 0 128 15.5t109.5 46t78 83t28.5 121.5q0 116 -81.5 190t-260.5 74q-95 0 -164.5 -21t-107.5 -58.5t-55 -82t-17 -98.5zM373 1038q0 -95 70 -158t219 -63q270 0 270 219q0 100 -74 163t-201 63
q-129 0 -206.5 -57.5t-77.5 -166.5z" />
    <glyph glyph-name="nine" unicode="9" horiz-adv-x="1277" 
d="M125 322h199q34 -90 102.5 -140.5t189.5 -50.5q59 0 108.5 17.5t84 46.5t61.5 72.5t44 90t28.5 105t17.5 111t9 114.5q-109 -184 -379 -184q-225 0 -354.5 123t-129.5 313q0 206 140.5 338.5t371.5 132.5q264 0 404.5 -166.5t140.5 -482.5q0 -130 -16 -241.5
t-55.5 -214.5t-101 -175t-158 -115t-220.5 -43q-93 0 -170.5 21t-129.5 55t-92 81t-61.5 94t-33.5 98zM309 952q0 -136 85 -213t231 -77q144 0 229.5 73t85.5 189q0 43 -9 85.5t-32.5 87t-59 78t-93.5 55t-132 21.5q-146 0 -225.5 -84t-79.5 -215z" />
    <glyph glyph-name="colon" unicode=":" horiz-adv-x="559" 
d="M381 0h-203v322h203v-322zM381 723h-203v321h203v-321z" />
    <glyph glyph-name="semicolon" unicode=";" horiz-adv-x="598" 
d="M420 723h-215v321h215v-321zM213 328h201q-14 -141 -69 -317t-130 -298h-170q141 310 168 615z" />
    <glyph glyph-name="less" unicode="&#x3c;" horiz-adv-x="1609" 
d="M416 659l981 -466v-191l-1184 571v168l1184 551v-188z" />
    <glyph glyph-name="equal" unicode="=" horiz-adv-x="1689" 
d="M213 299v172h1264v-172h-1264zM213 872v172h1264v-172h-1264z" />
    <glyph glyph-name="greater" unicode="&#x3e;" horiz-adv-x="1609" 
d="M213 2v191l979 442l-979 467v190l1184 -569v-170z" />
    <glyph glyph-name="question" unicode="?" horiz-adv-x="1232" 
d="M719 -2h-203v285h203v-285zM719 440h-203v25q0 92 45 168.5t182 181.5q112 86 152 141.5t41 133.5q2 103 -74 173t-223 70q-136 0 -218.5 -66.5t-105.5 -191.5h-194q6 49 21 97.5t52.5 107.5t92 103t147.5 74t211 30q100 0 183.5 -23t139 -61t94 -89t56 -106t17.5 -112
q0 -123 -52 -203.5t-194 -187.5q-96 -69 -133 -125.5t-37 -126.5v-13z" />
    <glyph glyph-name="at" unicode="@" horiz-adv-x="2144" 
d="M1360 854l37 160h164l-129 -625q-22 -120 6 -164.5t94 -44.5q144 0 232.5 142t88.5 368q0 139 -51.5 259t-144 206.5t-229.5 136t-300 49.5q-188 0 -343.5 -68t-257.5 -185.5t-158 -275t-56 -337.5q0 -225 95.5 -400t268 -271.5t394.5 -96.5q200 0 324 35.5t239 101.5
l45 -137q-121 -78 -267 -120t-361 -42q-195 0 -363.5 66.5t-291.5 186t-193 295t-70 384.5q0 135 30.5 262.5t88.5 241t145.5 208t197 162.5t249 106t295.5 38q251 0 452 -99.5t316.5 -282.5t115.5 -417q0 -154 -41.5 -281t-114 -210.5t-169 -128.5t-207.5 -45
q-105 0 -164 49t-59 141q-59 -90 -137 -140t-201 -50q-148 0 -236 102.5t-88 284.5q0 170 64.5 312.5t175 224t241.5 81.5q66 0 117.5 -17t82 -46t48 -58t25.5 -61zM981 178q112 0 195.5 96.5t111.5 253.5q30 173 -14.5 268t-173.5 95q-73 0 -133.5 -42t-98 -109.5
t-57.5 -149t-20 -164.5q0 -248 190 -248z" />
    <glyph glyph-name="A" unicode="A" horiz-adv-x="1572" 
d="M25 0l624 1454h250l651 -1454h-225l-195 440h-704l-188 -440h-213zM768 1307h-2q-57 -174 -277 -691h574q-258 582 -295 691z" />
    <glyph glyph-name="B" unicode="B" horiz-adv-x="1533" 
d="M918 0h-713v1454h700q231 0 353 -96t122 -268q0 -65 -20.5 -120t-55 -91.5t-74.5 -61t-85 -37.5q43 -12 81.5 -29.5t78.5 -47t69 -67t47.5 -92t18.5 -118.5q0 -106 -41.5 -189t-114 -134t-165.5 -77t-201 -26zM410 688v-522h462q54 0 102 7t95 25t80 46.5t53.5 75
t20.5 106.5q0 129 -97 195.5t-274 66.5h-442zM410 1288v-434h444q311 0 311 217t-303 217h-452z" />
    <glyph glyph-name="C" unicode="C" horiz-adv-x="1640" 
d="M1546 1020h-211q-26 63 -60.5 112t-88 92.5t-134.5 67t-184 23.5q-164 0 -286.5 -76t-186 -208t-63.5 -300q0 -166 63 -299t186.5 -212t288.5 -79q100 0 176 20t129.5 60.5t89 88.5t68.5 116h207q-150 -457 -680 -457q-177 0 -319.5 59t-235 162.5t-141.5 240t-49 294.5
q0 156 53.5 294.5t149 241.5t239 163.5t313.5 60.5q122 0 225.5 -25.5t177.5 -69t131 -103.5t90.5 -126t51.5 -141z" />
    <glyph glyph-name="D" unicode="D" horiz-adv-x="1660" 
d="M799 0h-594v1454h598q173 0 314.5 -54t234.5 -148.5t143.5 -222.5t50.5 -277q0 -228 -99.5 -400.5t-268 -262t-379.5 -89.5zM412 1286v-1116h346q141 0 251 42.5t179.5 120t105 181.5t35.5 231q0 250 -150 394.5t-405 146.5h-362z" />
    <glyph glyph-name="E" unicode="E" horiz-adv-x="1452" 
d="M205 0v1454h1124v-172h-917v-430h872v-174h-872v-504h962l-28 -174h-1141z" />
    <glyph glyph-name="F" unicode="F" horiz-adv-x="1396" 
d="M412 0h-205v1454h1106v-172h-901v-473h841v-176h-841v-633z" />
    <glyph glyph-name="G" unicode="G" horiz-adv-x="1724" 
d="M889 623v174h670v-797h-158q-17 105 -17 215q-76 -123 -200 -184.5t-330 -61.5q-226 0 -394 94t-256.5 264t-88.5 396q0 160 53.5 299.5t152 242t245.5 161.5t325 59q126 0 231.5 -25t178.5 -66t129 -98.5t88 -118t49 -128.5h-213q-108 268 -465 268q-134 0 -240.5 -45
t-175 -124t-105 -184.5t-36.5 -228.5q0 -174 62.5 -307t189 -211t301.5 -78q228 0 351.5 113.5t123.5 327.5v43h-471z" />
    <glyph glyph-name="H" unicode="H" horiz-adv-x="1697" 
d="M412 0h-207v1454h207v-588h874v588h207v-1454h-207v692h-874v-692z" />
    <glyph glyph-name="I" unicode="I" horiz-adv-x="616" 
d="M205 0v1454h207v-1454h-207z" />
    <glyph glyph-name="J" unicode="J" horiz-adv-x="899" 
d="M53 -12v174q92 -15 185 -15q60 0 106.5 18t75.5 48t47.5 74.5t25.5 93.5t7 108v965h207v-954q0 -271 -109 -400t-350 -129q-112 0 -195 17z" />
    <glyph glyph-name="K" unicode="K" horiz-adv-x="1521" 
d="M412 0h-207v1454h207v-717q116 100 421 354t433 363h266l-739 -623l784 -831h-268l-672 721l-225 -182v-539z" />
    <glyph glyph-name="L" unicode="L" horiz-adv-x="1316" 
d="M410 174h876l-31 -174h-1050v1454h205v-1280z" />
    <glyph glyph-name="M" unicode="M" horiz-adv-x="1998" 
d="M205 0v1454h295q432 -1021 491 -1206h2q30 79 112.5 276t201.5 478t190 452h297v-1454h-201v627q0 478 11 684h-2q-25 -77 -88.5 -237t-123 -303.5t-165 -395.5t-156.5 -375h-178q-59 154 -178 451t-210 528.5t-126 331.5h-2q20 -280 20 -721v-590h-190z" />
    <glyph glyph-name="N" unicode="N" horiz-adv-x="1720" 
d="M397 0h-192v1454h246q124 -173 341.5 -462t359 -481.5t177.5 -258.5h4q-12 161 -12 655v547h192v-1454h-231q-203 272 -512 701t-379 544h-4q10 -188 10 -651v-594z" />
    <glyph glyph-name="O" unicode="O" horiz-adv-x="1757" 
d="M877 -31q-229 0 -404 102t-266.5 275t-91.5 387q0 151 55 287.5t153 239.5t243.5 164t316.5 61q170 0 314 -61t240.5 -164t150.5 -240t54 -289q0 -155 -52 -292.5t-147 -242t-241.5 -166t-324.5 -61.5zM883 141q130 0 234.5 47t170.5 128t101.5 186t35.5 225
q0 115 -36 219.5t-104 187t-175.5 131t-239.5 48.5q-124 0 -227 -46.5t-170 -125.5t-104 -183.5t-37 -220.5q0 -94 22.5 -181.5t68.5 -163t110.5 -131.5t154.5 -88t195 -32z" />
    <glyph glyph-name="P" unicode="P" horiz-adv-x="1503" 
d="M412 0h-207v1454h684q259 0 392.5 -118.5t133.5 -309.5q0 -212 -137.5 -328t-382.5 -116h-483v-582zM412 1282v-526h454q164 0 252 59.5t88 208.5q0 125 -85.5 191.5t-254.5 66.5h-454z" />
    <glyph glyph-name="Q" unicode="Q" horiz-adv-x="1757" 
d="M1346 111l387 -277l-117 -141l-451 323q-130 -47 -288 -47q-229 0 -404 102t-266.5 275t-91.5 387q0 151 55 287.5t153 239.5t243.5 164t316.5 61q170 0 314 -61t240.5 -164t150.5 -240t54 -289q0 -190 -76.5 -353t-219.5 -267zM883 141q130 0 234.5 47t170.5 128
t101.5 186t35.5 225q0 115 -36 219.5t-104 187t-175.5 131t-239.5 48.5q-124 0 -227 -46.5t-170 -125.5t-104 -183.5t-37 -220.5q0 -94 22.5 -181.5t68.5 -163t110.5 -131.5t154.5 -88t195 -32z" />
    <glyph glyph-name="R" unicode="R" horiz-adv-x="1533" 
d="M207 0v1454h694q228 0 363 -102t135 -291q0 -134 -67 -223.5t-199 -124.5q227 -64 227 -355v-63q0 -234 16 -295h-209q-7 18 -11 40.5t-5.5 59t-2 55t0 73.5t0.5 69v47q0 161 -74 222t-266 61h-399v-627h-203zM410 1286v-491h438q171 0 255.5 62t84.5 192q0 237 -332 237
h-446z" />
    <glyph glyph-name="S" unicode="S" horiz-adv-x="1482" 
d="M1319 1090h-207q-11 37 -23.5 63.5t-42 60.5t-69.5 55.5t-108 36.5t-156 15q-161 0 -252.5 -55.5t-91.5 -161.5q0 -38 8.5 -66.5t33.5 -56.5t68 -49.5t113 -41.5t168 -36q153 -26 264 -63t176.5 -77t104 -93.5t51 -104t12.5 -117.5q0 -89 -36.5 -165t-110 -136
t-195.5 -94.5t-281 -34.5q-293 0 -456.5 122t-202.5 333h211q28 -91 80 -153t148.5 -100t234.5 -38q203 0 300 68t97 178q0 57 -18.5 98t-68 78.5t-140.5 66.5t-230 52q-160 27 -267.5 66t-166.5 92.5t-82.5 112.5t-23.5 138q0 125 74 217t199.5 138.5t285.5 46.5
q135 0 241.5 -27.5t170 -68.5t106 -97t60 -104t22.5 -98z" />
    <glyph glyph-name="T" unicode="T" horiz-adv-x="1355" 
d="M782 0h-207v1280h-555v174h1315v-174h-553v-1280z" />
    <glyph glyph-name="U" unicode="U" horiz-adv-x="1667" 
d="M193 614v840h204v-825q0 -111 25.5 -197.5t67.5 -140t101 -88.5t120 -48.5t131 -13.5q103 0 180 26t134 82.5t85.5 151.5t28.5 228v825h205v-823q0 -662 -639 -662q-149 0 -266 37.5t-202 114.5t-130 201.5t-45 291.5z" />
    <glyph glyph-name="V" unicode="V" horiz-adv-x="1564" 
d="M893 0h-231l-637 1454h225l332 -776q121 -283 198 -500h4q10 32 33 90.5t70 173t82 203.5l350 809h221z" />
    <glyph glyph-name="W" unicode="W" horiz-adv-x="2217" 
d="M715 0h-219l-453 1454h217q329 -1075 358 -1255h3q39 197 385 1255h206q343 -1096 373 -1251h4q13 62 42.5 168.5t84 281.5t82.5 264t99 310t73 227h209l-483 -1454h-226q-335 1063 -372 1235h-2q-35 -174 -381 -1235z" />
    <glyph glyph-name="X" unicode="X" horiz-adv-x="1398" 
d="M-8 0l577 745l-553 709h246l438 -565h2l441 565h233l-563 -702l594 -752h-246l-471 604h-6l-457 -604h-235z" />
    <glyph glyph-name="Y" unicode="Y" horiz-adv-x="1370" 
d="M788 0h-204v553q0 19 -15 37l-610 864h246q43 -63 174.5 -252t207.5 -302t107 -167q65 111 488 721h227l-610 -868q-11 -22 -11 -35v-551z" />
    <glyph glyph-name="Z" unicode="Z" horiz-adv-x="1413" 
d="M49 0v150l1016 1134h-969v170h1237v-158l-1007 -1126h1056l-28 -170h-1305z" />
    <glyph glyph-name="bracketleft" unicode="[" horiz-adv-x="821" 
d="M725 -326h-528v1866h528v-143h-356v-1579h356v-144z" />
    <glyph glyph-name="backslash" unicode="\" horiz-adv-x="1073" 
d="M977 -104h-182l-699 1558h185z" />
    <glyph glyph-name="bracketright" unicode="]" horiz-adv-x="821" 
d="M96 -326v144h357v1579h-357v143h529v-1866h-529z" />
    <glyph glyph-name="asciicircum" unicode="^" horiz-adv-x="1202" 
d="M45 551l473 862h164l473 -862h-190l-365 694l-379 -694h-176z" />
    <glyph glyph-name="underscore" unicode="_" horiz-adv-x="1341" 
d="M0 -268v106h1343v-106h-1343z" />
    <glyph glyph-name="grave" unicode="`" 
d="M371 1233l-340 328h235l289 -328h-184z" />
    <glyph glyph-name="a" unicode="a" horiz-adv-x="1241" 
d="M346 735h-194q4 45 18 87t47 88t82 79t130 54.5t183 21.5q91 0 164.5 -14t123 -40t84.5 -59t53.5 -74t27 -81.5t8.5 -85.5v-455q0 -194 10 -256h-186q-5 21 -12 152q-91 -181 -391 -181q-105 0 -185.5 29.5t-126 79.5t-68 106.5t-22.5 118.5q0 338 539 338h252v55
q0 46 -12 82.5t-40 69t-83.5 50.5t-135.5 18q-71 0 -121.5 -14.5t-78.5 -43t-42 -56.5t-24 -69zM883 461v45h-248q-181 0 -265.5 -45t-84.5 -148q0 -82 62.5 -135t184.5 -53q100 0 171 27t109 76t54.5 105.5t16.5 127.5z" />
    <glyph glyph-name="b" unicode="b" horiz-adv-x="1333" 
d="M350 0h-186q2 131 2 356v1184h194v-663q22 34 51.5 63.5t75 59.5t112.5 47.5t146 17.5q142 0 256.5 -69t178 -189.5t63.5 -269.5q0 -257 -142.5 -411.5t-367.5 -154.5q-268 0 -377 189q-1 -17 -1.5 -52.5t-1.5 -63.5t-3 -44zM702 137q88 0 155 32t106.5 88t59 125
t19.5 148q0 69 -20 133t-59.5 118t-107 87t-153.5 33q-171 0 -260.5 -105.5t-89.5 -275.5q0 -177 94.5 -280t255.5 -103z" />
    <glyph glyph-name="c" unicode="c" horiz-adv-x="1220" 
d="M1141 705h-195q-76 202 -311 202q-161 0 -253.5 -107.5t-92.5 -281.5q0 -168 92 -278.5t254 -110.5q228 0 313 195h195q-20 -72 -60 -134t-101.5 -112t-150.5 -78.5t-196 -28.5q-108 0 -198 28t-154 78t-108.5 118.5t-65.5 149t-21 169.5q0 111 37.5 210.5t106 175.5
t173.5 120.5t232 44.5q100 0 184 -24.5t138.5 -62t94.5 -87t60 -95.5t27 -91z" />
    <glyph glyph-name="d" unicode="d" horiz-adv-x="1333" 
d="M1169 0h-188q-8 57 -8 158q-23 -39 -49.5 -67.5t-70 -58t-109.5 -45.5t-152 -16q-225 0 -364.5 151t-139.5 388q0 124 44.5 229.5t118.5 176t169 110t196 39.5q256 0 357 -160v635h194v-1239q0 -201 2 -301zM633 135q177 0 262.5 103.5t85.5 283.5q0 183 -78.5 282
t-263.5 99q-85 0 -153.5 -33t-110.5 -88t-64 -123.5t-22 -144.5q0 -98 37.5 -182.5t117.5 -140.5t189 -56z" />
    <glyph glyph-name="e" unicode="e" horiz-adv-x="1239" 
d="M946 295h195q-18 -49 -44.5 -93t-70 -87.5t-98.5 -74.5t-132 -50t-167 -19q-108 0 -198.5 30.5t-153 82.5t-106 122t-63.5 148t-20 162q0 155 65 279.5t188.5 197t283.5 72.5q114 0 206 -32.5t151.5 -85.5t100 -124t57.5 -145.5t17 -153.5q0 -31 -2 -51h-870
q8 -152 104 -248t250 -96q216 0 307 166zM623 913q-152 0 -236 -83t-98 -218h665q-3 41 -13 79t-34 80t-59.5 72t-93.5 50t-131 20z" />
    <glyph glyph-name="f" unicode="f" horiz-adv-x="671" 
d="M422 0h-195v883h-194v153h194v140q0 380 344 380q79 0 123 -12v-160q-41 9 -92 9q-103 0 -141.5 -50t-38.5 -178v-129h242v-153h-242v-883z" />
    <glyph glyph-name="g" unicode="g" horiz-adv-x="1331" 
d="M98 -127h199q27 -91 100 -145t221 -54q89 0 153.5 23t102.5 61t61 98.5t30.5 122.5t7.5 146v57q-50 -98 -142.5 -149t-246.5 -51q-217 0 -356.5 150t-139.5 374q0 122 42 227t112.5 177.5t165.5 113.5t200 41q85 0 152 -17.5t109 -46.5t66.5 -59.5t37.5 -64.5
q0 115 6 159h188q-2 -100 -2 -301v-600q0 -152 -27.5 -262t-90 -192t-172 -123t-267.5 -41q-84 0 -155.5 13.5t-121 35.5t-89 53.5t-64 62.5t-42 68t-25.5 65t-13 58zM631 145q164 0 255 99t91 282q0 180 -88 277.5t-248 97.5q-87 0 -156 -33t-111.5 -88t-64.5 -123
t-22 -143q0 -161 96.5 -265t247.5 -104z" />
    <glyph glyph-name="h" unicode="h" horiz-adv-x="1302" 
d="M166 0v1540h194v-690q105 215 383 215q182 0 288 -112t106 -326v-627h-197v596q0 305 -256 305q-157 0 -240.5 -109.5t-83.5 -281.5v-510h-194z" />
    <glyph glyph-name="i" unicode="i" horiz-adv-x="526" 
d="M360 0h-194v1036h194v-1036zM360 1307h-194v233h194v-233z" />
    <glyph glyph-name="j" unicode="j" horiz-adv-x="538" 
d="M-33 -481v157h21q105 0 147.5 59.5t42.5 186.5v1114h195v-1071q0 -69 -5.5 -122t-20 -106.5t-41.5 -91.5t-68 -68t-102 -45t-140 -15q-7 0 -17 1t-12 1zM373 1307h-195v233h195v-233z" />
    <glyph glyph-name="k" unicode="k" horiz-adv-x="1222" 
d="M166 0v1540h194v-999q61 54 283.5 246t288.5 249h246l-480 -403l531 -633h-246l-428 522l-195 -153v-369h-194z" />
    <glyph glyph-name="l" unicode="l" horiz-adv-x="526" 
d="M360 0h-194v1540h194v-1540z" />
    <glyph glyph-name="m" unicode="m" horiz-adv-x="1904" 
d="M358 0h-192v768q0 178 -2 268h188q6 -64 6 -155q45 79 127 131.5t207 52.5q240 0 320 -199q24 39 51 70t69.5 62.5t102.5 49t133 17.5q79 0 144 -24t117 -73t81 -132.5t29 -194.5v-641h-195v633q0 51 -9.5 94.5t-32.5 85t-69 66t-112 24.5q-126 0 -199 -85.5t-73 -250.5
v-567h-193v641q0 40 -5.5 75.5t-21.5 70.5t-40 60t-64.5 40.5t-93.5 15.5q-139 0 -206 -95.5t-67 -254.5v-553z" />
    <glyph glyph-name="n" unicode="n" horiz-adv-x="1302" 
d="M360 0h-194v774q0 184 -2 262h188q8 -70 8 -192q19 41 47.5 77t73 70t110 54t144.5 20q187 0 294.5 -112t107.5 -322v-631h-197v596q0 305 -258 305q-157 0 -239.5 -109t-82.5 -294v-498z" />
    <glyph glyph-name="o" unicode="o" horiz-adv-x="1282" 
d="M88 518q0 112 38.5 211t109 174t176.5 118.5t233 43.5q130 0 236 -46.5t173.5 -124.5t103.5 -175t36 -201q0 -109 -35.5 -206.5t-103.5 -174t-176.5 -121.5t-243.5 -45q-127 0 -232.5 45t-173 121t-104.5 174t-37 207zM641 131q170 0 261 109.5t91 275.5q0 106 -40 193
t-122.5 141.5t-193.5 54.5q-168 0 -258 -110.5t-90 -276.5q0 -102 39.5 -188.5t121.5 -142.5t191 -56z" />
    <glyph glyph-name="p" unicode="p" horiz-adv-x="1331" 
d="M360 -455h-194v1233q0 172 -2 258h190q6 -44 6 -178q51 92 150 149.5t250 57.5q208 0 345.5 -151.5t137.5 -376.5q0 -124 -41 -230.5t-111 -179.5t-164.5 -114.5t-199.5 -41.5q-77 0 -139 15.5t-105 44t-71 57t-52 66.5v-609zM698 137q110 0 190 55.5t117 142.5t37 193
q0 71 -21 136t-61 119t-107 86t-151 32q-173 0 -259.5 -107t-86.5 -280q0 -169 88 -273t254 -104z" />
    <glyph glyph-name="q" unicode="q" horiz-adv-x="1333" 
d="M1169 -455h-194v615q-112 -189 -383 -189q-216 0 -360 151.5t-144 381.5q0 129 45.5 237t120 177.5t167 108t189.5 38.5q86 0 156 -19.5t111 -50t63.5 -56.5t34.5 -52q3 97 6 149h190q0 -40 -1 -141t-1 -152v-1198zM627 137q172 0 262 98t90 287q0 175 -83 277t-255 102
q-112 0 -193.5 -54.5t-120 -141t-38.5 -191.5q0 -161 93.5 -269t244.5 -108z" />
    <glyph glyph-name="r" unicode="r" horiz-adv-x="817" 
d="M360 0h-194v754q0 188 -2 282h190q6 -93 6 -233q52 123 161.5 193t258.5 69v-186q-187 2 -303.5 -112.5t-116.5 -334.5v-432z" />
    <glyph glyph-name="s" unicode="s" horiz-adv-x="1148" 
d="M1026 756h-197q-7 29 -19.5 52.5t-41.5 51.5t-86 44t-137 16q-69 0 -117.5 -13.5t-72.5 -36t-34 -45t-10 -47.5q0 -42 21.5 -68.5t85.5 -49t180 -37.5q114 -16 197 -40t133.5 -53t80 -67.5t40 -77t10.5 -88.5q0 -148 -118 -237t-357 -89q-225 0 -356 89.5t-158 252.5h196
q58 -194 330 -194q268 0 268 164q0 35 -12.5 60t-45.5 48t-96.5 40t-160.5 28q-131 16 -220.5 47t-133.5 73t-61 84.5t-17 96.5t22.5 105t71 97.5t137 74.5t207.5 28q103 0 185 -20.5t132.5 -52t85 -74t49.5 -82t19 -80.5z" />
    <glyph glyph-name="t" unicode="t" horiz-adv-x="759" 
d="M240 291v592h-207v153h207v334h194v-334h271v-153h-271v-568q0 -93 31 -132.5t113 -39.5q59 0 102 11v-144q-59 -20 -162 -20q-156 0 -217 71t-61 230z" />
    <glyph glyph-name="u" unicode="u" horiz-adv-x="1286" 
d="M166 393v643h194v-606q0 -62 13 -113t41 -92.5t77.5 -64.5t116.5 -23q167 0 242.5 102t75.5 328v469h194v-733q0 -203 2 -303h-188q-4 29 -8 176q-42 -99 -127 -152t-244 -53q-84 0 -153.5 24t-123 73.5t-83 132t-29.5 192.5z" />
    <glyph glyph-name="v" unicode="v" horiz-adv-x="1175" 
d="M483 0l-458 1036h213q46 -116 192 -457.5t166 -398.5h2q47 143 352 856h199l-453 -1036h-213z" />
    <glyph glyph-name="w" unicode="w" horiz-adv-x="1746" 
d="M381 0l-342 1036h203q228 -734 256 -862h2q37 146 284 862h187q253 -735 278 -850h2q54 218 262 850h193l-358 -1036h-201q-36 106 -112 325.5t-112.5 327.5t-52.5 162h-2q-60 -216 -278 -815h-209z" />
    <glyph glyph-name="x" unicode="x" horiz-adv-x="1161" 
d="M14 0l451 524l-449 512h236q217 -249 338 -391h2q122 150 334 391h217l-443 -501l463 -535h-235q-182 213 -348 406h-5q-124 -153 -339 -406h-222z" />
    <glyph glyph-name="y" unicode="y" horiz-adv-x="1191" 
d="M109 -471v170q52 -8 112 -8q103 0 160 53t129 209l-479 1083h213q304 -699 370 -886h4q174 480 340 886h203l-407 -983q-49 -121 -83 -195.5t-72.5 -140.5t-70.5 -100t-76.5 -59t-92 -33t-115.5 -8q-82 0 -135 12z" />
    <glyph glyph-name="z" unicode="z" horiz-adv-x="1118" 
d="M72 0v145l719 734h-680v157h929v-149l-710 -727h757l-30 -160h-985z" />
    <glyph glyph-name="braceleft" unicode="{" horiz-adv-x="862" 
d="M301 57v217q0 142 -51.5 199t-194.5 57v160q139 0 192.5 55.5t53.5 198.5v211q0 190 97 287.5t286 97.5h78v-143h-35q-138 0 -194 -62.5t-56 -197.5v-195q0 -274 -188 -330q47 -15 78.5 -35.5t58 -57.5t39 -97.5t12.5 -147.5v-192q0 -139 59.5 -201.5t184.5 -62.5h41
v-144h-80q-381 0 -381 383z" />
    <glyph glyph-name="bar" unicode="|" horiz-adv-x="600" 
d="M209 -541v2155h182v-2155h-182z" />
    <glyph glyph-name="braceright" unicode="}" horiz-adv-x="862" 
d="M55 -326v144h35q138 0 194 62.5t56 199.5v192q0 276 188 332q-64 20 -102 51t-62 101t-24 184v195q0 138 -59.5 200t-184.5 62h-41v143h78q383 0 383 -381v-219q0 -142 51.5 -198t194.5 -56v-160q-139 0 -192.5 -56.5t-53.5 -199.5v-211q0 -190 -97 -287.5t-286 -97.5
h-78z" />
    <glyph glyph-name="asciitilde" unicode="~" horiz-adv-x="1607" 
d="M354 406h-161v75q0 161 77 239.5t197 78.5q88 0 190 -35.5t176.5 -77.5t157.5 -77.5t139 -35.5q69 0 97 38.5t28 131.5v48h160v-62q0 -79 -14.5 -138.5t-39 -96t-61 -59.5t-76 -31.5t-87.5 -8.5q-78 0 -174.5 35.5t-173 78.5t-163.5 78.5t-147 35.5q-58 0 -91.5 -37.5
t-33.5 -130.5v-49z" />
    <glyph glyph-name="uni00A0" unicode="&#xa0;" horiz-adv-x="606" 
 />
    <glyph glyph-name="exclamdown" unicode="&#xa1;" horiz-adv-x="665" 
d="M215 -408v234l21 706h170l20 -704v-236h-211zM227 737v310h189v-310h-189z" />
    <glyph glyph-name="cent" unicode="&#xa2;" horiz-adv-x="1239" 
d="M575 -61v206q-150 15 -258 92t-159.5 192t-51.5 255q0 217 129.5 363.5t339.5 171.5v159h142v-157q102 -9 184 -43.5t133 -85t80.5 -107t36.5 -115.5h-195q-57 169 -239 193v-760q178 22 237 184h197q-40 -145 -149.5 -236.5t-284.5 -105.5v-206h-142zM575 307v754
q-124 -22 -195 -118t-71 -255q0 -155 68 -256t198 -125z" />
    <glyph glyph-name="sterling" unicode="&#xa3;" horiz-adv-x="1249" 
d="M1202 0h-1096v145q90 45 133.5 155t43.5 255q0 45 -2 68h-201v151h192q-6 74 -6 162q0 219 114.5 348t334.5 129q199 0 311.5 -104.5t126.5 -266.5h-192q-21 102 -85 156.5t-169 54.5q-126 0 -184 -76t-58 -229q0 -82 6 -174h363v-151h-357v-45q0 -273 -117 -408h867z
" />
    <glyph glyph-name="currency" unicode="&#xa4;" horiz-adv-x="1280" 
d="M201 88l-113 125l162 170q-80 125 -80 295q0 162 80 291l-162 174l113 121l161 -172q120 90 287 90q166 0 291 -92l158 174l110 -121l-157 -174q75 -124 75 -289q0 -171 -75 -293l157 -174l-110 -125l-160 172q-126 -92 -293 -92q-164 0 -287 94zM647 322q137 0 220 88
t83 268q0 155 -77 250.5t-226 95.5q-147 0 -227 -96.5t-80 -247.5q0 -91 26.5 -161.5t71 -112.5t98 -63t111.5 -21z" />
    <glyph glyph-name="yen" unicode="&#xa5;" horiz-adv-x="1185" 
d="M176 303v131h307v150h-307v133h270l-469 667h228q76 -114 147 -219t107 -157.5t66 -97t43.5 -66t21.5 -37.5h2q19 32 397 577h209l-483 -667h278v-133h-315v-150h315v-131h-315v-303h-195v303h-307z" />
    <glyph glyph-name="brokenbar" unicode="&#xa6;" horiz-adv-x="491" 
d="M168 696v754h176v-754h-176zM168 -379v754h176v-754h-176z" />
    <glyph glyph-name="section" unicode="&#xa7;" horiz-adv-x="1353" 
d="M106 -14h195q31 -115 130.5 -173.5t230.5 -58.5q145 0 224 54.5t79 138.5q0 47 -14 78.5t-57 63.5t-123 61.5t-212 64.5t-221.5 77.5t-139.5 93t-71 104.5t-21 122q0 89 56.5 165t142.5 126q-43 32 -66.5 86t-23.5 119q0 68 27.5 129t82 111.5t146 80t209.5 29.5
q110 -1 199.5 -25t145 -61.5t93.5 -87t54.5 -95t19.5 -91.5h-193q-17 87 -100 149t-223 62q-77 0 -131.5 -15.5t-83 -43t-41 -58.5t-12.5 -68q0 -18 4 -34t14.5 -31t20 -27t30 -24.5t35 -21.5t44 -21.5t47.5 -19.5t56 -20t58.5 -19.5t64.5 -20.5q245 -74 353 -167.5
t108 -244.5q0 -88 -45.5 -169t-126.5 -136q88 -66 88 -211q0 -159 -135 -258.5t-365 -99.5q-234 0 -378 100.5t-175 286.5zM623 379q232 -67 327 -117q107 66 107 180q0 99 -68.5 155.5t-261.5 123.5q-44 15 -113.5 37.5t-108.5 36.5t-71 32q-65 -30 -105 -83.5t-40 -106.5
q0 -41 11 -70.5t44.5 -62.5t102.5 -63.5t176 -61.5z" />
    <glyph glyph-name="dieresis" unicode="&#xa8;" 
d="M291 1307h-178v233h178v-233zM707 1307h-179v233h179v-233z" />
    <glyph glyph-name="copyright" unicode="&#xa9;" horiz-adv-x="1718" 
d="M864 -31q-215 0 -385.5 96t-267 271t-96.5 399q0 214 98 387t269.5 271t381.5 98q158 0 296 -57t236 -157t154 -240.5t56 -301.5q0 -163 -56.5 -305.5t-155 -243.5t-236 -159t-294.5 -58zM862 82q132 0 247 46t198.5 129t131.5 206.5t48 271.5q0 186 -80.5 333
t-223 228.5t-321.5 81.5q-132 0 -246.5 -44t-200 -125t-134 -205.5t-48.5 -276.5q0 -184 82.5 -332t226.5 -230.5t320 -82.5zM1231 887h-135q-12 34 -27 60.5t-40.5 53t-66 41.5t-92.5 15q-116 0 -186 -84.5t-70 -235.5q0 -146 73.5 -232.5t186.5 -86.5q86 0 139.5 38.5
t82.5 121.5h133q-30 -130 -120.5 -202.5t-238.5 -72.5q-174 0 -283.5 117t-109.5 313q0 193 111 314.5t286 121.5q85 0 153 -25.5t109 -68.5t64.5 -90t30.5 -98z" />
    <glyph glyph-name="ordfeminine" unicode="&#xaa;" horiz-adv-x="831" 
d="M244 1059h-146q5 31 15 58t33 56t56 49.5t86.5 34t121.5 13.5q90 0 154 -20.5t97 -57t47.5 -77t14.5 -89.5v-309q0 -103 2 -148l-145 -2q-7 44 -7 113q-78 -119 -254 -119q-124 0 -193 62t-69 157q0 56 21.5 97.5t56 65.5t86.5 38.5t103 19.5t116 5h131v24q0 55 -37 92
t-126 37q-78 0 -115.5 -25t-48.5 -75zM573 891v14h-135q-39 0 -68 -2t-60 -9t-50.5 -19t-32 -33t-12.5 -51q0 -46 38.5 -77.5t108.5 -31.5q91 0 151 48.5t60 160.5z" />
    <glyph glyph-name="guillemotleft" unicode="&#xab;" horiz-adv-x="1191" 
d="M442 111l-344 424l344 421h191l-340 -421l344 -424h-195zM899 111l-344 424l344 421h191l-340 -421l344 -424h-195z" />
    <glyph glyph-name="logicalnot" unicode="&#xac;" horiz-adv-x="1716" 
d="M213 729v170h1266v-741h-181v571h-1085z" />
    <glyph glyph-name="uni00AD" unicode="&#xad;" horiz-adv-x="886" 
d="M117 440v168h653v-168h-653z" />
    <glyph glyph-name="registered" unicode="&#xae;" horiz-adv-x="786" 
d="M41 1128q0 161 102 263t263 102q160 0 260 -105.5t100 -259.5q0 -161 -100 -262.5t-260 -101.5q-158 0 -261.5 102t-103.5 262zM406 838q134 0 205 79t71 209q0 131 -75.5 212t-203.5 81q-141 0 -210.5 -82t-69.5 -209q0 -128 79.5 -209t203.5 -81zM340 956h-84v359h174
q58 0 94.5 -27.5t36.5 -75.5q0 -31 -14 -54t-37 -30q43 -10 43 -92q0 -60 2 -80h-86q-4 14 -4 82q0 32 -14 44t-48 12h-63v-138zM342 1249v-90h70q63 0 63 45t-65 45h-68z" />
    <glyph glyph-name="macron" unicode="&#xaf;" 
d="M100 1323v150h617v-150h-617z" />
    <glyph glyph-name="degree" unicode="&#xb0;" horiz-adv-x="716" 
d="M57 1135q0 133 86.5 220t214.5 87q136 0 218.5 -86t82.5 -211q0 -137 -88.5 -222t-214.5 -85q-133 0 -216 83.5t-83 213.5zM356 952q81 0 128.5 52.5t47.5 138.5q0 74 -45.5 130t-130.5 56q-82 0 -127 -53.5t-45 -136.5q0 -81 47.5 -134t124.5 -53z" />
    <glyph glyph-name="plusminus" unicode="&#xb1;" horiz-adv-x="1689" 
d="M758 309v551h-545v168h545v504h174v-504h545v-168h-545v-551h-174zM1477 0h-1264v170h1264v-170z" />
    <glyph glyph-name="two.sups" unicode="&#xb2;" horiz-adv-x="813" 
d="M741 913h-665v11q0 112 66 203.5t218 170.5q57 31 81.5 44.5t54.5 33t40 33t17.5 31.5t7.5 41q0 52 -38.5 89.5t-119.5 37.5q-77 0 -120 -34t-58 -110h-155q13 122 100 197.5t240 75.5q84 0 147.5 -22.5t100 -60t54 -80.5t17.5 -89q0 -51 -15 -90t-49.5 -71t-75 -56.5
t-108.5 -57.5q-94 -48 -137 -81.5t-65 -81.5h487z" />
    <glyph glyph-name="three.sups" unicode="&#xb3;" horiz-adv-x="811" 
d="M49 1167h158q38 -139 201 -139q88 0 135 33t47 96q0 69 -52 97t-155 28h-70v121h64q104 0 140 21.5t36 76.5q0 47 -35 79t-119 32q-80 0 -119 -31.5t-55 -85.5h-147q3 26 11 52t30.5 62t56 63t92.5 46t135 19q147 0 228.5 -62.5t81.5 -167.5q0 -66 -35.5 -105.5
t-87.5 -51.5q65 -13 113.5 -64.5t48.5 -126.5q0 -108 -87 -181t-264 -73q-95 0 -166.5 27t-109 70t-55.5 83.5t-21 81.5z" />
    <glyph glyph-name="acute" unicode="&#xb4;" 
d="M264 1233l283 328h235l-336 -328h-182z" />
    <glyph glyph-name="uni00B5" unicode="&#xb5;" horiz-adv-x="1292" 
d="M166 -455v1491h194v-618q0 -281 246 -281q165 0 245.5 109.5t80.5 302.5v487h194v-710q0 -277 2 -326h-184q-8 64 -8 190q-53 -115 -132.5 -167t-223.5 -52q-157 0 -234 111q10 -196 12 -537h-192z" />
    <glyph glyph-name="paragraph" unicode="&#xb6;" horiz-adv-x="1400" 
d="M1159 -336h-164v639h-342q-263 0 -416 142.5t-153 398.5q0 237 149.5 384.5t423.5 147.5h338q4 86 13 119h155q-4 -82 -4 -143v-1688zM872 465h121v756h-119q-70 0 -117.5 -26t-72.5 -78t-35 -115.5t-10 -153.5q0 -56 2.5 -96t9.5 -88t23 -80.5t41 -61.5t64.5 -43
t92.5 -14z" />
    <glyph glyph-name="periodcentered" unicode="&#xb7;" horiz-adv-x="454" 
d="M336 410h-217v335h217v-335z" />
    <glyph glyph-name="cedilla" unicode="&#xb8;" 
d="M190 -492v121q81 -18 150 -18q145 0 145 78q0 29 -20 48t-59 28t-80.5 12.5t-98.5 3.5v57l156 182l135 -20l-96 -115q30 -3 59 -10.5t61 -22t55.5 -35t38.5 -52t15 -70.5q0 -61 -27.5 -104.5t-73.5 -65t-92 -30.5t-96 -9q-99 0 -172 22z" />
    <glyph glyph-name="one.sups" unicode="&#xb9;" horiz-adv-x="503" 
d="M375 913h-162v633q-28 -17 -86.5 -34t-89.5 -17v119q50 9 118 43.5t109 68.5h111v-813z" />
    <glyph glyph-name="ordmasculine" unicode="&#xba;" horiz-adv-x="870" 
d="M61 913q0 164 107 260.5t270 96.5q168 0 268.5 -101.5t100.5 -253.5q0 -163 -105 -259.5t-274 -96.5q-159 0 -263 102t-104 252zM432 680q106 0 159.5 63t53.5 172q-2 105 -56.5 168.5t-156.5 63.5q-103 0 -156 -64t-53 -170q0 -99 58.5 -166t150.5 -67z" />
    <glyph glyph-name="guillemotright" unicode="&#xbb;" horiz-adv-x="1191" 
d="M293 111h-191l340 421l-344 424h195l344 -424zM752 111h-191l340 421l-344 424h195l344 -424z" />
    <glyph glyph-name="onequarter" unicode="&#xbc;" horiz-adv-x="1679" 
d="M377 0h-146l877 1384h143zM877 199v127l411 487h189v-487h145l-12 -127h-133v-199h-150v199h-450zM1040 326h287v163q0 152 4 199q-29 -41 -291 -362zM371 571h-162v633q-28 -17 -86.5 -34t-89.5 -17v119q50 9 118 43.5t109 68.5h111v-813z" />
    <glyph glyph-name="onehalf" unicode="&#xbd;" horiz-adv-x="1712" 
d="M365 0h-146l877 1384h143zM1636 0h-665v10q0 113 66 204.5t218 170.5q128 68 164.5 98.5t36.5 83.5q0 52 -38.5 89.5t-119.5 37.5q-77 0 -120 -33.5t-58 -109.5h-155q13 122 100 197t240 75q84 0 147.5 -22.5t100 -60t54 -80.5t17.5 -89q0 -51 -15 -89.5t-49.5 -71
t-75 -56.5t-108.5 -57q-93 -48 -136.5 -82t-65.5 -82h487zM360 571h-161v633q-28 -17 -86.5 -34t-89.5 -17v119q50 9 118 43.5t109 68.5h110v-813z" />
    <glyph glyph-name="threequarters" unicode="&#xbe;" horiz-adv-x="1878" 
d="M629 0h-146l877 1384h143zM1071 199v127l412 487h188v-487h146l-13 -127h-133v-199h-149v199h-451zM1235 326h287v163q0 152 4 199q-29 -41 -291 -362zM72 825h157q38 -139 201 -139q88 0 135 33t47 96q0 69 -51.5 97t-154.5 28h-70v121h63q104 0 140 21.5t36 76.5
q0 47 -34.5 79t-118.5 32q-80 0 -119 -31.5t-55 -85.5h-148q3 25 11 51.5t31 62.5t56.5 63t92.5 46t135 19q147 0 228 -62.5t81 -167.5q0 -66 -35.5 -105.5t-87.5 -51.5q65 -13 113.5 -64.5t48.5 -126.5q0 -108 -86.5 -181t-263.5 -73q-95 0 -166.5 27t-109 70t-55.5 83.5
t-21 81.5z" />
    <glyph glyph-name="questiondown" unicode="&#xbf;" horiz-adv-x="1128" 
d="M903 -6h182q-3 -58 -18 -114t-53 -118t-94.5 -108t-151.5 -76.5t-215 -30.5q-233 0 -358 111t-125 279q0 120 53 203.5t192 187.5q95 69 132.5 127t37.5 129v10h203v-25q0 -44 -8 -79t-30.5 -78.5t-68.5 -90.5t-118 -102q-113 -85 -153.5 -143t-41.5 -137
q-2 -101 77 -168.5t220 -67.5q294 0 338 291zM485 754v282h203v-282h-203z" />
    <glyph glyph-name="Agrave" unicode="&#xc0;" horiz-adv-x="1572" 
d="M25 0l624 1454h250l651 -1454h-225l-195 440h-704l-188 -440h-213zM768 1307h-2q-57 -174 -277 -691h574q-258 582 -295 691zM260 1880h272l351 -285h-201z" />
    <glyph glyph-name="Aacute" unicode="&#xc1;" horiz-adv-x="1572" 
d="M25 0l624 1454h250l651 -1454h-225l-195 440h-704l-188 -440h-213zM768 1307h-2q-57 -174 -277 -691h574q-258 582 -295 691zM651 1595l346 285h265l-406 -285h-205z" />
    <glyph glyph-name="Acircumflex" unicode="&#xc2;" horiz-adv-x="1572" 
d="M25 0l624 1454h250l651 -1454h-225l-195 440h-704l-188 -440h-213zM768 1307h-2q-57 -174 -277 -691h574q-258 582 -295 691zM365 1579l297 283h229l299 -283h-207l-209 186l-207 -186h-202z" />
    <glyph glyph-name="Atilde" unicode="&#xc3;" horiz-adv-x="1572" 
d="M25 0l624 1454h250l651 -1454h-225l-195 440h-704l-188 -440h-213zM768 1307h-2q-57 -174 -277 -691h574q-258 582 -295 691zM545 1604h-139v47q0 219 188 219q58 0 130 -30t134.5 -59.5t97.5 -29.5q36 0 52 21.5t16 78.5v23h135v-43q0 -126 -47 -179t-133 -53
q-46 0 -101.5 19t-98 42.5t-91 42.5t-82.5 19q-61 0 -61 -88v-30z" />
    <glyph glyph-name="Adieresis" unicode="&#xc4;" horiz-adv-x="1572" 
d="M647 1620h-178v233h178v-233zM1094 1620h-179v233h179v-233zM25 0l624 1454h250l651 -1454h-225l-195 440h-704l-188 -440h-213zM768 1307h-2q-57 -174 -277 -691h574q-258 582 -295 691z" />
    <glyph glyph-name="Aring" unicode="&#xc5;" horiz-adv-x="1572" 
d="M25 0l624 1454h250l651 -1454h-225l-195 440h-704l-188 -440h-213zM768 1307h-2q-57 -174 -277 -691h574q-258 582 -295 691zM539 1743q0 92 61.5 154.5t169.5 62.5q107 0 168 -60t61 -153t-62 -154t-167 -61q-107 0 -169 60t-62 151zM770 1632q54 0 83.5 33t29.5 80
t-29 82t-84 35q-56 0 -84.5 -33.5t-28.5 -79.5q0 -49 28.5 -83t84.5 -34z" />
    <glyph glyph-name="AE" unicode="&#xc6;" horiz-adv-x="2334" 
d="M-29 0l1026 1454h1215v-174h-901v-426h858v-174h-858v-506h946l-29 -174h-1120v481h-576l-344 -481h-217zM639 647h469v660h-6z" />
    <glyph glyph-name="Ccedilla" unicode="&#xc7;" horiz-adv-x="1640" 
d="M635 -492v121q81 -18 149 -18q71 0 108.5 20.5t37.5 57.5q0 29 -20 48t-59 28t-80.5 12.5t-98.5 3.5v57l114 133q-212 16 -366 122t-229.5 269t-75.5 363q0 156 53.5 294.5t149 241.5t239 163.5t313.5 60.5q122 0 225.5 -25.5t177.5 -69t131 -103.5t90.5 -126t51.5 -141
h-211q-26 63 -60.5 112t-88 92.5t-134.5 67t-184 23.5q-164 0 -286.5 -76t-186 -208t-63.5 -300q0 -166 63 -299t186.5 -212t288.5 -79q100 0 176 20t129.5 60.5t89 88.5t68.5 116h207q-138 -423 -602 -455l-72 -86q30 -3 59.5 -10.5t61 -22t55 -35t39 -52t15.5 -70.5
q0 -61 -27.5 -104.5t-73.5 -65t-92 -30.5t-96 -9q-99 0 -172 22z" />
    <glyph glyph-name="Egrave" unicode="&#xc8;" horiz-adv-x="1452" 
d="M205 0v1454h1124v-172h-917v-430h872v-174h-872v-504h962l-28 -174h-1141zM293 1880h272l350 -285h-200z" />
    <glyph glyph-name="Eacute" unicode="&#xc9;" horiz-adv-x="1452" 
d="M205 0v1454h1124v-172h-917v-430h872v-174h-872v-504h962l-28 -174h-1141zM606 1595l346 285h265l-406 -285h-205z" />
    <glyph glyph-name="Ecircumflex" unicode="&#xca;" horiz-adv-x="1452" 
d="M205 0v1454h1124v-172h-917v-430h872v-174h-872v-504h962l-28 -174h-1141zM352 1589l297 283h230l299 -283h-207l-209 187l-207 -187h-203z" />
    <glyph glyph-name="Edieresis" unicode="&#xcb;" horiz-adv-x="1452" 
d="M629 1620h-178v233h178v-233zM1075 1620h-178v233h178v-233zM205 0v1454h1124v-172h-917v-430h872v-174h-872v-504h962l-28 -174h-1141z" />
    <glyph glyph-name="Igrave" unicode="&#xcc;" horiz-adv-x="616" 
d="M205 0v1454h207v-1454h-207zM-203 1880h273l350 -285h-201z" />
    <glyph glyph-name="Iacute" unicode="&#xcd;" horiz-adv-x="616" 
d="M205 0v1454h207v-1454h-207zM203 1595l346 285h264l-405 -285h-205z" />
    <glyph glyph-name="Icircumflex" unicode="&#xce;" horiz-adv-x="616" 
d="M205 0v1454h207v-1454h-207zM-106 1579l296 283h230l299 -283h-207l-209 186l-207 -186h-202z" />
    <glyph glyph-name="Idieresis" unicode="&#xcf;" horiz-adv-x="616" 
d="M172 1620h-178v233h178v-233zM618 1620h-178v233h178v-233zM205 0v1454h207v-1454h-207z" />
    <glyph glyph-name="Eth" unicode="&#xd0;" horiz-adv-x="1683" 
d="M227 0v678h-184v151h184v625h598q173 0 314.5 -54t235 -148.5t144 -222.5t50.5 -277q0 -171 -58 -313.5t-158.5 -238t-237.5 -148t-294 -52.5h-594zM434 170h346q279 0 425.5 157.5t146.5 417.5q0 250 -150 394.5t-405 146.5h-363v-457h436v-151h-436v-508z" />
    <glyph glyph-name="Ntilde" unicode="&#xd1;" horiz-adv-x="1720" 
d="M397 0h-192v1454h246q124 -173 341.5 -462t359 -481.5t177.5 -258.5h4q-12 161 -12 655v547h192v-1454h-231q-203 272 -512 701t-379 544h-4q10 -188 10 -651v-594zM621 1604h-140v47q0 219 189 219q58 0 130 -30t134.5 -59.5t97.5 -29.5q36 0 52 21.5t16 78.5v23h135
v-43q0 -126 -47 -179t-133 -53q-46 0 -101.5 19t-98 42.5t-91 42.5t-82.5 19q-61 0 -61 -88v-30z" />
    <glyph glyph-name="Ograve" unicode="&#xd2;" horiz-adv-x="1757" 
d="M877 -31q-229 0 -404 102t-266.5 275t-91.5 387q0 151 55 287.5t153 239.5t243.5 164t316.5 61q170 0 314 -61t240.5 -164t150.5 -240t54 -289q0 -155 -52 -292.5t-147 -242t-241.5 -166t-324.5 -61.5zM883 141q130 0 234.5 47t170.5 128t101.5 186t35.5 225
q0 115 -36 219.5t-104 187t-175.5 131t-239.5 48.5q-124 0 -227 -46.5t-170 -125.5t-104 -183.5t-37 -220.5q0 -94 22.5 -181.5t68.5 -163t110.5 -131.5t154.5 -88t195 -32zM381 1884h272l351 -285h-201z" />
    <glyph glyph-name="Oacute" unicode="&#xd3;" horiz-adv-x="1757" 
d="M877 -31q-229 0 -404 102t-266.5 275t-91.5 387q0 151 55 287.5t153 239.5t243.5 164t316.5 61q170 0 314 -61t240.5 -164t150.5 -240t54 -289q0 -155 -52 -292.5t-147 -242t-241.5 -166t-324.5 -61.5zM883 141q130 0 234.5 47t170.5 128t101.5 186t35.5 225
q0 115 -36 219.5t-104 187t-175.5 131t-239.5 48.5q-124 0 -227 -46.5t-170 -125.5t-104 -183.5t-37 -220.5q0 -94 22.5 -181.5t68.5 -163t110.5 -131.5t154.5 -88t195 -32zM727 1612l346 284h264l-405 -284h-205z" />
    <glyph glyph-name="Ocircumflex" unicode="&#xd4;" horiz-adv-x="1757" 
d="M877 -31q-229 0 -404 102t-266.5 275t-91.5 387q0 151 55 287.5t153 239.5t243.5 164t316.5 61q170 0 314 -61t240.5 -164t150.5 -240t54 -289q0 -155 -52 -292.5t-147 -242t-241.5 -166t-324.5 -61.5zM883 141q130 0 234.5 47t170.5 128t101.5 186t35.5 225
q0 115 -36 219.5t-104 187t-175.5 131t-239.5 48.5q-124 0 -227 -46.5t-170 -125.5t-104 -183.5t-37 -220.5q0 -94 22.5 -181.5t68.5 -163t110.5 -131.5t154.5 -88t195 -32zM453 1593l297 283h229l299 -283h-207l-209 187l-207 -187h-202z" />
    <glyph glyph-name="Otilde" unicode="&#xd5;" horiz-adv-x="1757" 
d="M877 -31q-229 0 -404 102t-266.5 275t-91.5 387q0 151 55 287.5t153 239.5t243.5 164t316.5 61q170 0 314 -61t240.5 -164t150.5 -240t54 -289q0 -155 -52 -292.5t-147 -242t-241.5 -166t-324.5 -61.5zM883 141q130 0 234.5 47t170.5 128t101.5 186t35.5 225
q0 115 -36 219.5t-104 187t-175.5 131t-239.5 48.5q-124 0 -227 -46.5t-170 -125.5t-104 -183.5t-37 -220.5q0 -94 22.5 -181.5t68.5 -163t110.5 -131.5t154.5 -88t195 -32zM627 1618h-140v47q0 219 189 219q58 0 130 -30t134.5 -59.5t97.5 -29.5q36 0 52 22t16 79v22h135
v-43q0 -126 -47 -178.5t-133 -52.5q-58 0 -130 31t-136.5 61.5t-106.5 30.5q-61 0 -61 -88v-31z" />
    <glyph glyph-name="Odieresis" unicode="&#xd6;" horiz-adv-x="1757" 
d="M731 1620h-178v233h178v-233zM1178 1620h-179v233h179v-233zM877 -31q-229 0 -404 102t-266.5 275t-91.5 387q0 151 55 287.5t153 239.5t243.5 164t316.5 61q170 0 314 -61t240.5 -164t150.5 -240t54 -289q0 -155 -52 -292.5t-147 -242t-241.5 -166t-324.5 -61.5z
M883 141q130 0 234.5 47t170.5 128t101.5 186t35.5 225q0 115 -36 219.5t-104 187t-175.5 131t-239.5 48.5q-124 0 -227 -46.5t-170 -125.5t-104 -183.5t-37 -220.5q0 -94 22.5 -181.5t68.5 -163t110.5 -131.5t154.5 -88t195 -32z" />
    <glyph glyph-name="multiply" unicode="&#xd7;" horiz-adv-x="1632" 
d="M330 23l-115 118l485 496l-485 498l113 116l487 -497l488 497l114 -116l-487 -498l487 -496l-114 -118l-486 497z" />
    <glyph glyph-name="Oslash" unicode="&#xd8;" horiz-adv-x="1757" 
d="M197 0l141 176q-107 106 -165 250t-58 307q0 153 54.5 290t152.5 239.5t243 162.5t316 60q232 0 419 -115l68 84h162l-129 -162q115 -104 178 -250.5t63 -310.5q0 -124 -32.5 -238t-97 -209.5t-155.5 -165.5t-214 -109.5t-266 -39.5q-250 0 -439 127l-78 -96h-163z
M1280 1143l-725 -901q141 -103 328 -103q173 0 298 79.5t185.5 210.5t60.5 298q0 249 -147 416zM463 330l721 897q-129 90 -314 90q-165 0 -290 -79.5t-188.5 -210t-63.5 -288.5q0 -239 135 -409z" />
    <glyph glyph-name="Ugrave" unicode="&#xd9;" horiz-adv-x="1667" 
d="M193 614v840h204v-825q0 -111 25.5 -197.5t67.5 -140t101 -88.5t120 -48.5t131 -13.5q103 0 180 26t134 82.5t85.5 151.5t28.5 228v825h205v-823q0 -662 -639 -662q-149 0 -266 37.5t-202 114.5t-130 201.5t-45 291.5zM342 1880h272l351 -285h-201z" />
    <glyph glyph-name="Uacute" unicode="&#xda;" horiz-adv-x="1667" 
d="M193 614v840h204v-825q0 -111 25.5 -197.5t67.5 -140t101 -88.5t120 -48.5t131 -13.5q103 0 180 26t134 82.5t85.5 151.5t28.5 228v825h205v-823q0 -662 -639 -662q-149 0 -266 37.5t-202 114.5t-130 201.5t-45 291.5zM694 1595l346 285h265l-406 -285h-205z" />
    <glyph glyph-name="Ucircumflex" unicode="&#xdb;" horiz-adv-x="1667" 
d="M193 614v840h204v-825q0 -111 25.5 -197.5t67.5 -140t101 -88.5t120 -48.5t131 -13.5q103 0 180 26t134 82.5t85.5 151.5t28.5 228v825h205v-823q0 -662 -639 -662q-149 0 -266 37.5t-202 114.5t-130 201.5t-45 291.5zM420 1579l297 283h229l299 -283h-207l-209 186
l-206 -186h-203z" />
    <glyph glyph-name="Udieresis" unicode="&#xdc;" horiz-adv-x="1667" 
d="M698 1620h-178v233h178v-233zM1145 1620h-178v233h178v-233zM193 614v840h204v-825q0 -111 25.5 -197.5t67.5 -140t101 -88.5t120 -48.5t131 -13.5q103 0 180 26t134 82.5t85.5 151.5t28.5 228v825h205v-823q0 -662 -639 -662q-149 0 -266 37.5t-202 114.5t-130 201.5
t-45 291.5z" />
    <glyph glyph-name="Yacute" unicode="&#xdd;" horiz-adv-x="1370" 
d="M788 0h-204v553q0 19 -15 37l-610 864h246q43 -63 174.5 -252t207.5 -302t107 -167q65 111 488 721h227l-610 -868q-11 -22 -11 -35v-551zM545 1595l346 285h264l-405 -285h-205z" />
    <glyph glyph-name="Thorn" unicode="&#xde;" horiz-adv-x="1470" 
d="M412 0h-205v1454h205v-274h415q251 0 398 -116.5t147 -330.5q0 -92 -29.5 -168t-82 -128.5t-125 -88.5t-157 -52.5t-179.5 -16.5h-387v-279zM412 1012v-563h393q79 0 142.5 15t114 46.5t78 87.5t27.5 133q0 128 -92.5 204.5t-255.5 76.5h-407z" />
    <glyph glyph-name="germandbls" unicode="&#xdf;" horiz-adv-x="1447" 
d="M178 0v1073q0 483 559 483q93 0 172 -15t133.5 -39.5t98 -59t69.5 -70.5t42.5 -76.5t23 -75t6.5 -67.5q0 -43 -8 -76l-420 -200v-5l174 -94q177 -96 248.5 -191.5t71.5 -224.5q0 -183 -119.5 -287t-333.5 -104q-226 0 -375 113v201q58 -64 159.5 -112t209.5 -48
q137 0 201.5 63.5t64.5 155.5q0 82 -49.5 145t-179.5 134l-195 106q-99 57 -99 127t97 121l350 178q2 37 -14.5 76.5t-54 78.5t-110.5 64t-169 25q-179 0 -267.5 -81.5t-88.5 -264.5v-1053h-197z" />
    <glyph glyph-name="agrave" unicode="&#xe0;" horiz-adv-x="1241" 
d="M346 735h-194q4 45 18 87t47 88t82 79t130 54.5t183 21.5q91 0 164.5 -14t123 -40t84.5 -59t53.5 -74t27 -81.5t8.5 -85.5v-455q0 -194 10 -256h-186q-5 21 -12 152q-91 -181 -391 -181q-105 0 -185.5 29.5t-126 79.5t-68 106.5t-22.5 118.5q0 338 539 338h252v55
q0 46 -12 82.5t-40 69t-83.5 50.5t-135.5 18q-71 0 -121.5 -14.5t-78.5 -43t-42 -56.5t-24 -69zM883 461v45h-248q-181 0 -265.5 -45t-84.5 -148q0 -82 62.5 -135t184.5 -53q100 0 171 27t109 76t54.5 105.5t16.5 127.5zM569 1233l-340 328h236l289 -328h-185z" />
    <glyph glyph-name="aacute" unicode="&#xe1;" horiz-adv-x="1241" 
d="M346 735h-194q4 45 18 87t47 88t82 79t130 54.5t183 21.5q91 0 164.5 -14t123 -40t84.5 -59t53.5 -74t27 -81.5t8.5 -85.5v-455q0 -194 10 -256h-186q-5 21 -12 152q-91 -181 -391 -181q-105 0 -185.5 29.5t-126 79.5t-68 106.5t-22.5 118.5q0 338 539 338h252v55
q0 46 -12 82.5t-40 69t-83.5 50.5t-135.5 18q-71 0 -121.5 -14.5t-78.5 -43t-42 -56.5t-24 -69zM883 461v45h-248q-181 0 -265.5 -45t-84.5 -148q0 -82 62.5 -135t184.5 -53q100 0 171 27t109 76t54.5 105.5t16.5 127.5zM479 1233l283 328h235l-335 -328h-183z" />
    <glyph glyph-name="acircumflex" unicode="&#xe2;" horiz-adv-x="1241" 
d="M346 735h-194q4 45 18 87t47 88t82 79t130 54.5t183 21.5q91 0 164.5 -14t123 -40t84.5 -59t53.5 -74t27 -81.5t8.5 -85.5v-455q0 -194 10 -256h-186q-5 21 -12 152q-91 -181 -391 -181q-105 0 -185.5 29.5t-126 79.5t-68 106.5t-22.5 118.5q0 338 539 338h252v55
q0 46 -12 82.5t-40 69t-83.5 50.5t-135.5 18q-71 0 -121.5 -14.5t-78.5 -43t-42 -56.5t-24 -69zM883 461v45h-248q-181 0 -265.5 -45t-84.5 -148q0 -82 62.5 -135t184.5 -53q100 0 171 27t109 76t54.5 105.5t16.5 127.5zM260 1229l266 330h197l266 -330h-182l-184 225
l-179 -225h-184z" />
    <glyph glyph-name="atilde" unicode="&#xe3;" horiz-adv-x="1241" 
d="M346 735h-194q4 45 18 87t47 88t82 79t130 54.5t183 21.5q91 0 164.5 -14t123 -40t84.5 -59t53.5 -74t27 -81.5t8.5 -85.5v-455q0 -194 10 -256h-186q-5 21 -12 152q-91 -181 -391 -181q-105 0 -185.5 29.5t-126 79.5t-68 106.5t-22.5 118.5q0 338 539 338h252v55
q0 46 -12 82.5t-40 69t-83.5 50.5t-135.5 18q-71 0 -121.5 -14.5t-78.5 -43t-42 -56.5t-24 -69zM883 461v45h-248q-181 0 -265.5 -45t-84.5 -148q0 -82 62.5 -135t184.5 -53q100 0 171 27t109 76t54.5 105.5t16.5 127.5zM391 1251h-131v52q0 213 178 213q57 0 118 -29
t114 -57.5t88 -28.5q33 0 49 21t16 75v27h129v-47q0 -123 -46.5 -175.5t-131.5 -52.5q-45 0 -93 18.5t-81.5 41t-73 41t-71.5 18.5q-64 0 -64 -80v-37z" />
    <glyph glyph-name="adieresis" unicode="&#xe4;" horiz-adv-x="1241" 
d="M494 1307h-179v233h179v-233zM909 1307h-178v233h178v-233zM346 735h-194q4 45 18 87t47 88t82 79t130 54.5t183 21.5q91 0 164.5 -14t123 -40t84.5 -59t53.5 -74t27 -81.5t8.5 -85.5v-455q0 -194 10 -256h-186q-5 21 -12 152q-91 -181 -391 -181q-105 0 -185.5 29.5
t-126 79.5t-68 106.5t-22.5 118.5q0 338 539 338h252v55q0 46 -12 82.5t-40 69t-83.5 50.5t-135.5 18q-71 0 -121.5 -14.5t-78.5 -43t-42 -56.5t-24 -69zM883 461v45h-248q-181 0 -265.5 -45t-84.5 -148q0 -82 62.5 -135t184.5 -53q100 0 171 27t109 76t54.5 105.5
t16.5 127.5z" />
    <glyph glyph-name="aring" unicode="&#xe5;" horiz-adv-x="1241" 
d="M346 735h-194q4 45 18 87t47 88t82 79t130 54.5t183 21.5q91 0 164.5 -14t123 -40t84.5 -59t53.5 -74t27 -81.5t8.5 -85.5v-455q0 -194 10 -256h-186q-5 21 -12 152q-91 -181 -391 -181q-105 0 -185.5 29.5t-126 79.5t-68 106.5t-22.5 118.5q0 338 539 338h252v55
q0 46 -12 82.5t-40 69t-83.5 50.5t-135.5 18q-71 0 -121.5 -14.5t-78.5 -43t-42 -56.5t-24 -69zM883 461v45h-248q-181 0 -265.5 -45t-84.5 -148q0 -82 62.5 -135t184.5 -53q100 0 171 27t109 76t54.5 105.5t16.5 127.5zM387 1391q0 92 61.5 154.5t169.5 62.5
q107 0 168.5 -60.5t61.5 -152.5q0 -93 -62.5 -154t-167.5 -61q-107 0 -169 60t-62 151zM618 1280q54 0 83.5 33t29.5 80t-29 81.5t-84 34.5q-56 0 -84 -33t-28 -79q0 -49 28 -83t84 -34z" />
    <glyph glyph-name="ae" unicode="&#xe6;" horiz-adv-x="2031" 
d="M346 729h-194q6 69 33.5 126.5t81 106t143.5 76t208 27.5q315 0 398 -184q62 82 164.5 133t244.5 51q115 0 207 -31t150.5 -82t97 -120t54.5 -140t16 -147v-60h-873q3 -159 102 -257.5t265 -98.5q109 0 181 41.5t116 130.5h198q-23 -69 -64.5 -126.5t-103.5 -104
t-150.5 -73t-195.5 -26.5q-164 0 -280.5 65t-175.5 173q-122 -238 -453 -238q-109 0 -193.5 29t-133 77t-73 104.5t-24.5 117.5q0 89 39 154t110 101.5t160 53.5t201 17h285v53q0 240 -262 240q-134 0 -198.5 -49t-80.5 -140zM889 473v14h-283q-175 0 -247 -43.5t-72 -134.5
q0 -79 68.5 -129.5t185.5 -50.5q183 0 265.5 88t82.5 256zM1415 915q-147 0 -232 -74.5t-102 -215.5h668q-3 53 -21.5 101t-55 92.5t-102.5 70.5t-155 26z" />
    <glyph glyph-name="ccedilla" unicode="&#xe7;" horiz-adv-x="1220" 
d="M428 -487v120q81 -18 150 -18q145 0 145 78q0 29 -20 48t-59 28t-80.5 12.5t-98.5 3.5v57l113 131q-120 9 -215 55.5t-154.5 120t-90 166.5t-30.5 199q0 111 37.5 210.5t106 175.5t173.5 120.5t232 44.5q100 0 184 -24.5t138.5 -62t94.5 -87t60 -95.5t27 -91h-195
q-76 202 -311 202q-161 0 -253.5 -107.5t-92.5 -281.5q0 -168 92 -278.5t254 -110.5q228 0 313 195h195q-36 -133 -140.5 -228.5t-269.5 -118.5l-74 -88q30 -3 59.5 -10.5t61 -22t55 -35t39 -52t15.5 -70.5q0 -61 -27.5 -104.5t-73.5 -65t-92 -30.5t-96 -9q-96 0 -172 23z
" />
    <glyph glyph-name="egrave" unicode="&#xe8;" horiz-adv-x="1239" 
d="M946 295h195q-18 -49 -44.5 -93t-70 -87.5t-98.5 -74.5t-132 -50t-167 -19q-108 0 -198.5 30.5t-153 82.5t-106 122t-63.5 148t-20 162q0 155 65 279.5t188.5 197t283.5 72.5q114 0 206 -32.5t151.5 -85.5t100 -124t57.5 -145.5t17 -153.5q0 -31 -2 -51h-870
q8 -152 104 -248t250 -96q216 0 307 166zM623 913q-152 0 -236 -83t-98 -218h665q-3 41 -13 79t-34 80t-59.5 72t-93.5 50t-131 20zM580 1233l-340 328h235l289 -328h-184z" />
    <glyph glyph-name="eacute" unicode="&#xe9;" horiz-adv-x="1239" 
d="M946 295h195q-18 -49 -44.5 -93t-70 -87.5t-98.5 -74.5t-132 -50t-167 -19q-108 0 -198.5 30.5t-153 82.5t-106 122t-63.5 148t-20 162q0 155 65 279.5t188.5 197t283.5 72.5q114 0 206 -32.5t151.5 -85.5t100 -124t57.5 -145.5t17 -153.5q0 -31 -2 -51h-870
q8 -152 104 -248t250 -96q216 0 307 166zM623 913q-152 0 -236 -83t-98 -218h665q-3 41 -13 79t-34 80t-59.5 72t-93.5 50t-131 20zM473 1233l283 328h235l-336 -328h-182z" />
    <glyph glyph-name="ecircumflex" unicode="&#xea;" horiz-adv-x="1239" 
d="M946 295h195q-18 -49 -44.5 -93t-70 -87.5t-98.5 -74.5t-132 -50t-167 -19q-108 0 -198.5 30.5t-153 82.5t-106 122t-63.5 148t-20 162q0 155 65 279.5t188.5 197t283.5 72.5q114 0 206 -32.5t151.5 -85.5t100 -124t57.5 -145.5t17 -153.5q0 -31 -2 -51h-870
q8 -152 104 -248t250 -96q216 0 307 166zM623 913q-152 0 -236 -83t-98 -218h665q-3 41 -13 79t-34 80t-59.5 72t-93.5 50t-131 20zM254 1229l266 330h197l266 -330h-182l-185 225l-178 -225h-184z" />
    <glyph glyph-name="edieresis" unicode="&#xeb;" horiz-adv-x="1239" 
d="M500 1307h-178v233h178v-233zM915 1307h-178v233h178v-233zM946 295h195q-18 -49 -44.5 -93t-70 -87.5t-98.5 -74.5t-132 -50t-167 -19q-108 0 -198.5 30.5t-153 82.5t-106 122t-63.5 148t-20 162q0 155 65 279.5t188.5 197t283.5 72.5q114 0 206 -32.5t151.5 -85.5
t100 -124t57.5 -145.5t17 -153.5q0 -31 -2 -51h-870q8 -152 104 -248t250 -96q216 0 307 166zM623 913q-152 0 -236 -83t-98 -218h665q-3 41 -13 79t-34 80t-59.5 72t-93.5 50t-131 20z" />
    <glyph glyph-name="igrave" unicode="&#xec;" horiz-adv-x="526" 
d="M360 0h-194v1036h194v-1036zM184 1233l-340 328h236l289 -328h-185z" />
    <glyph glyph-name="iacute" unicode="&#xed;" horiz-adv-x="526" 
d="M360 0h-194v1036h194v-1036zM170 1233l283 328h235l-336 -328h-182z" />
    <glyph glyph-name="icircumflex" unicode="&#xee;" horiz-adv-x="526" 
d="M360 0h-194v1036h194v-1036zM-102 1229l266 330h196l267 -330h-183l-184 225l-178 -225h-184z" />
    <glyph glyph-name="idieresis" unicode="&#xef;" horiz-adv-x="526" 
d="M143 1307h-178v233h178v-233zM559 1307h-178v233h178v-233zM360 0h-194v1036h194v-1036z" />
    <glyph glyph-name="eth" unicode="&#xf0;" horiz-adv-x="1284" 
d="M383 1073l-55 96l241 154q-133 65 -307 88v145q264 -15 467 -131l256 162l55 -96l-209 -133q161 -124 248.5 -314.5t87.5 -435.5q0 -303 -141 -470t-401 -167q-101 0 -188 31.5t-147 85t-103 123t-63 145.5t-20 154q0 227 146.5 375.5t386.5 148.5q93 0 167 -26t116 -76
q-74 207 -244 328zM635 129q165 0 249.5 114t84.5 320q0 154 -87 236t-243 82q-84 0 -149.5 -30.5t-105 -83.5t-59.5 -119t-20 -142q0 -69 21 -134.5t60 -120.5t104 -88.5t145 -33.5z" />
    <glyph glyph-name="ntilde" unicode="&#xf1;" horiz-adv-x="1302" 
d="M360 0h-194v774q0 184 -2 262h188q8 -70 8 -192q19 41 47.5 77t73 70t110 54t144.5 20q187 0 294.5 -112t107.5 -322v-631h-197v596q0 305 -258 305q-157 0 -239.5 -109t-82.5 -294v-498zM442 1251h-131v52q0 213 178 213q57 0 118 -29t114 -57.5t88 -28.5q33 0 49 21
t16 75v27h130v-47q0 -122 -47 -175t-132 -53q-45 0 -93 18.5t-81.5 41t-73 41t-71.5 18.5q-64 0 -64 -80v-37z" />
    <glyph glyph-name="ograve" unicode="&#xf2;" horiz-adv-x="1282" 
d="M88 518q0 112 38.5 211t109 174t176.5 118.5t233 43.5q130 0 236 -46.5t173.5 -124.5t103.5 -175t36 -201q0 -109 -35.5 -206.5t-103.5 -174t-176.5 -121.5t-243.5 -45q-127 0 -232.5 45t-173 121t-104.5 174t-37 207zM641 131q170 0 261 109.5t91 275.5q0 106 -40 193
t-122.5 141.5t-193.5 54.5q-168 0 -258 -110.5t-90 -276.5q0 -102 39.5 -188.5t121.5 -142.5t191 -56zM592 1229l-340 327h235l289 -327h-184z" />
    <glyph glyph-name="oacute" unicode="&#xf3;" horiz-adv-x="1282" 
d="M88 518q0 112 38.5 211t109 174t176.5 118.5t233 43.5q130 0 236 -46.5t173.5 -124.5t103.5 -175t36 -201q0 -109 -35.5 -206.5t-103.5 -174t-176.5 -121.5t-243.5 -45q-127 0 -232.5 45t-173 121t-104.5 174t-37 207zM641 131q170 0 261 109.5t91 275.5q0 106 -40 193
t-122.5 141.5t-193.5 54.5q-168 0 -258 -110.5t-90 -276.5q0 -102 39.5 -188.5t121.5 -142.5t191 -56zM510 1229l283 327h235l-336 -327h-182z" />
    <glyph glyph-name="ocircumflex" unicode="&#xf4;" horiz-adv-x="1282" 
d="M88 518q0 112 38.5 211t109 174t176.5 118.5t233 43.5q130 0 236 -46.5t173.5 -124.5t103.5 -175t36 -201q0 -109 -35.5 -206.5t-103.5 -174t-176.5 -121.5t-243.5 -45q-127 0 -232.5 45t-173 121t-104.5 174t-37 207zM641 131q170 0 261 109.5t91 275.5q0 106 -40 193
t-122.5 141.5t-193.5 54.5q-168 0 -258 -110.5t-90 -276.5q0 -102 39.5 -188.5t121.5 -142.5t191 -56zM276 1229l267 330h196l267 -330h-183l-184 225l-178 -225h-185z" />
    <glyph glyph-name="otilde" unicode="&#xf5;" horiz-adv-x="1282" 
d="M88 518q0 112 38.5 211t109 174t176.5 118.5t233 43.5q130 0 236 -46.5t173.5 -124.5t103.5 -175t36 -201q0 -109 -35.5 -206.5t-103.5 -174t-176.5 -121.5t-243.5 -45q-127 0 -232.5 45t-173 121t-104.5 174t-37 207zM641 131q170 0 261 109.5t91 275.5q0 106 -40 193
t-122.5 141.5t-193.5 54.5q-168 0 -258 -110.5t-90 -276.5q0 -102 39.5 -188.5t121.5 -142.5t191 -56zM426 1251h-131v52q0 213 178 213q57 0 118 -29t114 -57.5t88 -28.5q33 0 49 21t16 75v27h129v-47q0 -123 -46.5 -175.5t-131.5 -52.5q-45 0 -93 18.5t-81.5 41t-73.5 41
t-72 18.5q-63 0 -63 -80v-37z" />
    <glyph glyph-name="odieresis" unicode="&#xf6;" horiz-adv-x="1282" 
d="M522 1307h-178v233h178v-233zM938 1307h-178v233h178v-233zM88 518q0 112 38.5 211t109 174t176.5 118.5t233 43.5q130 0 236 -46.5t173.5 -124.5t103.5 -175t36 -201q0 -109 -35.5 -206.5t-103.5 -174t-176.5 -121.5t-243.5 -45q-127 0 -232.5 45t-173 121t-104.5 174
t-37 207zM641 131q170 0 261 109.5t91 275.5q0 106 -40 193t-122.5 141.5t-193.5 54.5q-168 0 -258 -110.5t-90 -276.5q0 -102 39.5 -188.5t121.5 -142.5t191 -56z" />
    <glyph glyph-name="divide" unicode="&#xf7;" horiz-adv-x="1660" 
d="M934 4h-176v285h176v-285zM932 1006h-176v284h176v-284zM1477 575h-1264v170h1264v-170z" />
    <glyph glyph-name="oslash" unicode="&#xf8;" horiz-adv-x="1282" 
d="M131 -29l119 148q-78 78 -120 183t-42 214q0 153 67.5 277t196 198t295.5 74q162 0 291 -76l61 76h140l-113 -143q82 -75 125 -181.5t43 -222.5q0 -112 -37.5 -211t-107 -174t-177 -118.5t-239.5 -43.5q-166 0 -297 80l-64 -80h-141zM915 782l-473 -596q85 -59 197 -59
q71 0 130 20.5t100 56.5t70 85t42.5 106t13.5 121q0 157 -80 266zM362 262l474 596q-83 55 -199 55q-87 0 -156 -32.5t-110.5 -88.5t-63.5 -125.5t-22 -148.5q0 -147 77 -256z" />
    <glyph glyph-name="ugrave" unicode="&#xf9;" horiz-adv-x="1286" 
d="M166 393v643h194v-606q0 -62 13 -113t41 -92.5t77.5 -64.5t116.5 -23q167 0 242.5 102t75.5 328v469h194v-733q0 -203 2 -303h-188q-4 29 -8 176q-42 -99 -127 -152t-244 -53q-84 0 -153.5 24t-123 73.5t-83 132t-29.5 192.5zM604 1233l-340 328h236l288 -328h-184z" />
    <glyph glyph-name="uacute" unicode="&#xfa;" horiz-adv-x="1286" 
d="M166 393v643h194v-606q0 -62 13 -113t41 -92.5t77.5 -64.5t116.5 -23q167 0 242.5 102t75.5 328v469h194v-733q0 -203 2 -303h-188q-4 29 -8 176q-42 -99 -127 -152t-244 -53q-84 0 -153.5 24t-123 73.5t-83 132t-29.5 192.5zM498 1233l282 328h236l-336 -328h-182z" />
    <glyph glyph-name="ucircumflex" unicode="&#xfb;" horiz-adv-x="1286" 
d="M166 393v643h194v-606q0 -62 13 -113t41 -92.5t77.5 -64.5t116.5 -23q167 0 242.5 102t75.5 328v469h194v-733q0 -203 2 -303h-188q-4 29 -8 176q-42 -99 -127 -152t-244 -53q-84 0 -153.5 24t-123 73.5t-83 132t-29.5 192.5zM279 1229l266 330h196l267 -330h-183
l-184 225l-178 -225h-184z" />
    <glyph glyph-name="udieresis" unicode="&#xfc;" horiz-adv-x="1286" 
d="M524 1307h-178v233h178v-233zM940 1307h-178v233h178v-233zM166 393v643h194v-606q0 -62 13 -113t41 -92.5t77.5 -64.5t116.5 -23q167 0 242.5 102t75.5 328v469h194v-733q0 -203 2 -303h-188q-4 29 -8 176q-42 -99 -127 -152t-244 -53q-84 0 -153.5 24t-123 73.5
t-83 132t-29.5 192.5z" />
    <glyph glyph-name="yacute" unicode="&#xfd;" horiz-adv-x="1191" 
d="M109 -471v170q52 -8 112 -8q103 0 160 53t129 209l-479 1083h213q304 -699 370 -886h4q174 480 340 886h203l-407 -983q-49 -121 -83 -195.5t-72.5 -140.5t-70.5 -100t-76.5 -59t-92 -33t-115.5 -8q-82 0 -135 12zM451 1233l282 328h236l-336 -328h-182z" />
    <glyph glyph-name="thorn" unicode="&#xfe;" horiz-adv-x="1331" 
d="M360 -455h-194v1995h194v-684q124 209 402 209q203 0 342 -148.5t139 -379.5q0 -126 -41 -233t-111 -179.5t-163.5 -113t-196.5 -40.5q-255 0 -371 183v-609zM698 137q166 0 255 111.5t89 281.5q0 70 -20.5 135t-60.5 118.5t-106.5 85.5t-149.5 32q-164 0 -256.5 -107.5
t-92.5 -273.5q0 -76 20 -142.5t59.5 -121.5t107.5 -87t155 -32z" />
    <glyph glyph-name="ydieresis" unicode="&#xff;" horiz-adv-x="1191" 
d="M477 1307h-178v233h178v-233zM893 1307h-178v233h178v-233zM109 -471v170q52 -8 112 -8q103 0 160 53t129 209l-479 1083h213q304 -699 370 -886h4q174 480 340 886h203l-407 -983q-49 -121 -83 -195.5t-72.5 -140.5t-70.5 -100t-76.5 -59t-92 -33t-115.5 -8
q-82 0 -135 12z" />
    <glyph glyph-name="Amacron" unicode="&#x100;" horiz-adv-x="1572" 
d="M25 0l624 1454h250l651 -1454h-225l-195 440h-704l-188 -440h-213zM768 1307h-2q-57 -174 -277 -691h574q-258 582 -295 691zM455 1647v147h659v-147h-659z" />
    <glyph glyph-name="amacron" unicode="&#x101;" horiz-adv-x="1241" 
d="M346 735h-194q4 45 18 87t47 88t82 79t130 54.5t183 21.5q91 0 164.5 -14t123 -40t84.5 -59t53.5 -74t27 -81.5t8.5 -85.5v-455q0 -194 10 -256h-186q-5 21 -12 152q-91 -181 -391 -181q-105 0 -185.5 29.5t-126 79.5t-68 106.5t-22.5 118.5q0 338 539 338h252v55
q0 46 -12 82.5t-40 69t-83.5 50.5t-135.5 18q-71 0 -121.5 -14.5t-78.5 -43t-42 -56.5t-24 -69zM883 461v45h-248q-181 0 -265.5 -45t-84.5 -148q0 -82 62.5 -135t184.5 -53q100 0 171 27t109 76t54.5 105.5t16.5 127.5zM303 1323v150h617v-150h-617z" />
    <glyph glyph-name="Abreve" unicode="&#x102;" horiz-adv-x="1572" 
d="M25 0l624 1454h250l651 -1454h-225l-195 440h-704l-188 -440h-213zM768 1307h-2q-57 -174 -277 -691h574q-258 582 -295 691zM983 1866h143q-20 -122 -110 -200.5t-240 -78.5q-83 0 -150 25t-107 66.5t-62.5 89t-28.5 98.5h147q15 -63 70 -101.5t133 -38.5q92 0 138.5 38
t66.5 102z" />
    <glyph glyph-name="abreve" unicode="&#x103;" horiz-adv-x="1241" 
d="M346 735h-194q4 45 18 87t47 88t82 79t130 54.5t183 21.5q91 0 164.5 -14t123 -40t84.5 -59t53.5 -74t27 -81.5t8.5 -85.5v-455q0 -194 10 -256h-186q-5 21 -12 152q-91 -181 -391 -181q-105 0 -185.5 29.5t-126 79.5t-68 106.5t-22.5 118.5q0 338 539 338h252v55
q0 46 -12 82.5t-40 69t-83.5 50.5t-135.5 18q-71 0 -121.5 -14.5t-78.5 -43t-42 -56.5t-24 -69zM883 461v45h-248q-181 0 -265.5 -45t-84.5 -148q0 -82 62.5 -135t184.5 -53q100 0 171 27t109 76t54.5 105.5t16.5 127.5zM801 1536h141q-18 -137 -103.5 -223t-230.5 -86
q-82 0 -145.5 26t-102 70.5t-59 98t-25.5 114.5h144q16 -76 62.5 -121t125.5 -45q48 0 83.5 14t56.5 40t32.5 51.5t20.5 60.5z" />
    <glyph glyph-name="Aogonek" unicode="&#x104;" horiz-adv-x="1572" 
d="M25 0l624 1454h250l651 -1454h-22q-133 -109 -133 -219q0 -58 35.5 -87.5t95.5 -29.5q64 0 123 21v-144q-62 -33 -172 -33q-122 0 -189 63.5t-67 170.5q0 69 33 136.5t87 121.5h-16l-195 440h-704l-188 -440h-213zM768 1307h-2q-57 -174 -277 -691h574q-258 582 -295 691
z" />
    <glyph glyph-name="aogonek" unicode="&#x105;" horiz-adv-x="1241" 
d="M1083 0h-10q-133 -109 -133 -219q0 -58 35.5 -87.5t95.5 -29.5q65 0 123 21v-144q-62 -33 -172 -33q-122 0 -189 63.5t-67 170.5q0 71 35.5 140.5t93.5 125.5q-2 14 -10 144q-91 -181 -391 -181q-105 0 -185.5 29.5t-126 79.5t-68 106.5t-22.5 118.5q0 338 539 338h252
v55q0 46 -12 82.5t-40 69t-83.5 50.5t-135.5 18q-71 0 -121.5 -14.5t-78.5 -43t-42 -56.5t-24 -69h-194q4 45 18 87t47 88t82 79t130 54.5t183 21.5q91 0 164.5 -14t123 -40t84.5 -59t53.5 -74t27 -81.5t8.5 -85.5v-455q0 -194 10 -256zM883 461v45h-248q-181 0 -265.5 -45
t-84.5 -148q0 -82 62.5 -135t184.5 -53q100 0 171 27t109 76t54.5 105.5t16.5 127.5z" />
    <glyph glyph-name="Cacute" unicode="&#x106;" horiz-adv-x="1640" 
d="M1546 1020h-211q-26 63 -60.5 112t-88 92.5t-134.5 67t-184 23.5q-164 0 -286.5 -76t-186 -208t-63.5 -300q0 -166 63 -299t186.5 -212t288.5 -79q100 0 176 20t129.5 60.5t89 88.5t68.5 116h207q-150 -457 -680 -457q-177 0 -319.5 59t-235 162.5t-141.5 240t-49 294.5
q0 156 53.5 294.5t149 241.5t239 163.5t313.5 60.5q122 0 225.5 -25.5t177.5 -69t131 -103.5t90.5 -126t51.5 -141zM711 1614l346 284h264l-406 -284h-204z" />
    <glyph glyph-name="cacute" unicode="&#x107;" horiz-adv-x="1220" 
d="M1141 705h-195q-76 202 -311 202q-161 0 -253.5 -107.5t-92.5 -281.5q0 -168 92 -278.5t254 -110.5q228 0 313 195h195q-20 -72 -60 -134t-101.5 -112t-150.5 -78.5t-196 -28.5q-108 0 -198 28t-154 78t-108.5 118.5t-65.5 149t-21 169.5q0 111 37.5 210.5t106 175.5
t173.5 120.5t232 44.5q100 0 184 -24.5t138.5 -62t94.5 -87t60 -95.5t27 -91zM502 1233l282 328h236l-336 -328h-182z" />
    <glyph glyph-name="Ccircumflex" unicode="&#x108;" horiz-adv-x="1640" 
d="M1546 1020h-211q-26 63 -60.5 112t-88 92.5t-134.5 67t-184 23.5q-164 0 -286.5 -76t-186 -208t-63.5 -300q0 -166 63 -299t186.5 -212t288.5 -79q100 0 176 20t129.5 60.5t89 88.5t68.5 116h207q-150 -457 -680 -457q-177 0 -319.5 59t-235 162.5t-141.5 240t-49 294.5
q0 156 53.5 294.5t149 241.5t239 163.5t313.5 60.5q122 0 225.5 -25.5t177.5 -69t131 -103.5t90.5 -126t51.5 -141zM440 1593l297 283h230l299 -283h-207l-209 187l-207 -187h-203z" />
    <glyph glyph-name="ccircumflex" unicode="&#x109;" horiz-adv-x="1220" 
d="M1141 705h-195q-76 202 -311 202q-161 0 -253.5 -107.5t-92.5 -281.5q0 -168 92 -278.5t254 -110.5q228 0 313 195h195q-20 -72 -60 -134t-101.5 -112t-150.5 -78.5t-196 -28.5q-108 0 -198 28t-154 78t-108.5 118.5t-65.5 149t-21 169.5q0 111 37.5 210.5t106 175.5
t173.5 120.5t232 44.5q100 0 184 -24.5t138.5 -62t94.5 -87t60 -95.5t27 -91zM266 1229l266 330h197l266 -330h-182l-184 225l-178 -225h-185z" />
    <glyph glyph-name="Cdotaccent" unicode="&#x10a;" horiz-adv-x="1640" 
d="M1546 1020h-211q-26 63 -60.5 112t-88 92.5t-134.5 67t-184 23.5q-164 0 -286.5 -76t-186 -208t-63.5 -300q0 -166 63 -299t186.5 -212t288.5 -79q100 0 176 20t129.5 60.5t89 88.5t68.5 116h207q-150 -457 -680 -457q-177 0 -319.5 59t-235 162.5t-141.5 240t-49 294.5
q0 156 53.5 294.5t149 241.5t239 163.5t313.5 60.5q122 0 225.5 -25.5t177.5 -69t131 -103.5t90.5 -126t51.5 -141zM952 1634h-194v234h194v-234z" />
    <glyph glyph-name="cdotaccent" unicode="&#x10b;" horiz-adv-x="1220" 
d="M1141 705h-195q-76 202 -311 202q-161 0 -253.5 -107.5t-92.5 -281.5q0 -168 92 -278.5t254 -110.5q228 0 313 195h195q-20 -72 -60 -134t-101.5 -112t-150.5 -78.5t-196 -28.5q-108 0 -198 28t-154 78t-108.5 118.5t-65.5 149t-21 169.5q0 111 37.5 210.5t106 175.5
t173.5 120.5t232 44.5q100 0 184 -24.5t138.5 -62t94.5 -87t60 -95.5t27 -91zM735 1307h-194v233h194v-233z" />
    <glyph glyph-name="Ccaron" unicode="&#x10c;" horiz-adv-x="1640" 
d="M1546 1020h-211q-26 63 -60.5 112t-88 92.5t-134.5 67t-184 23.5q-164 0 -286.5 -76t-186 -208t-63.5 -300q0 -166 63 -299t186.5 -212t288.5 -79q100 0 176 20t129.5 60.5t89 88.5t68.5 116h207q-150 -457 -680 -457q-177 0 -319.5 59t-235 162.5t-141.5 240t-49 294.5
q0 156 53.5 294.5t149 241.5t239 163.5t313.5 60.5q122 0 225.5 -25.5t177.5 -69t131 -103.5t90.5 -126t51.5 -141zM440 1876h207l209 -186l207 186h203l-297 -283h-230z" />
    <glyph glyph-name="ccaron" unicode="&#x10d;" horiz-adv-x="1220" 
d="M1141 705h-195q-76 202 -311 202q-161 0 -253.5 -107.5t-92.5 -281.5q0 -168 92 -278.5t254 -110.5q228 0 313 195h195q-20 -72 -60 -134t-101.5 -112t-150.5 -78.5t-196 -28.5q-108 0 -198 28t-154 78t-108.5 118.5t-65.5 149t-21 169.5q0 111 37.5 210.5t106 175.5
t173.5 120.5t232 44.5q100 0 184 -24.5t138.5 -62t94.5 -87t60 -95.5t27 -91zM729 1214h-197l-266 330h183l184 -225l178 225h184z" />
    <glyph glyph-name="Dcaron" unicode="&#x10e;" horiz-adv-x="1660" 
d="M799 0h-594v1454h598q173 0 314.5 -54t234.5 -148.5t143.5 -222.5t50.5 -277q0 -228 -99.5 -400.5t-268 -262t-379.5 -89.5zM412 1286v-1116h346q141 0 251 42.5t179.5 120t105 181.5t35.5 231q0 250 -150 394.5t-405 146.5h-362zM342 1862h207l209 -187l207 187h202
l-297 -283h-229z" />
    <glyph glyph-name="dcaron" unicode="&#x10f;" horiz-adv-x="1439" 
d="M1169 0h-188q-8 57 -8 158q-23 -39 -49.5 -67.5t-70 -58t-109.5 -45.5t-152 -16q-225 0 -364.5 151t-139.5 388q0 124 44.5 229.5t118.5 176t169 110t196 39.5q256 0 357 -160v635h194v-1239q0 -201 2 -301zM633 135q177 0 262.5 103.5t85.5 283.5q0 183 -78.5 282
t-263.5 99q-85 0 -153.5 -33t-110.5 -88t-64 -123.5t-22 -144.5q0 -98 37.5 -182.5t117.5 -140.5t189 -56zM1479 983h-150l-10 557h168z" />
    <glyph glyph-name="Dcroat" unicode="&#x110;" horiz-adv-x="1683" 
d="M227 0v678h-184v151h184v625h598q173 0 314.5 -54t235 -148.5t144 -222.5t50.5 -277q0 -171 -58 -313.5t-158.5 -238t-237.5 -148t-294 -52.5h-594zM434 170h346q279 0 425.5 157.5t146.5 417.5q0 250 -150 394.5t-405 146.5h-363v-457h436v-151h-436v-508z" />
    <glyph glyph-name="dcroat" unicode="&#x111;" horiz-adv-x="1333" 
d="M1169 0h-188q-8 57 -8 166q-22 -41 -48.5 -72t-70 -61t-111 -46t-155.5 -16q-220 0 -360 151.5t-140 381.5q0 126 44.5 232t118.5 175t168.5 107.5t196.5 38.5q267 0 357 -166v348h-488v129h488v172h194v-172h162v-129h-162v-938q0 -201 2 -301zM631 135q92 0 160.5 29.5
t109.5 82.5t60.5 120t19.5 149t-19 149.5t-59 119.5t-106.5 81t-155.5 29q-167 0 -259.5 -108.5t-92.5 -278.5q0 -154 91.5 -263.5t250.5 -109.5z" />
    <glyph glyph-name="Emacron" unicode="&#x112;" horiz-adv-x="1452" 
d="M205 0v1454h1124v-172h-917v-430h872v-174h-872v-504h962l-28 -174h-1141zM438 1671v148h660v-148h-660z" />
    <glyph glyph-name="emacron" unicode="&#x113;" horiz-adv-x="1239" 
d="M946 295h195q-18 -49 -44.5 -93t-70 -87.5t-98.5 -74.5t-132 -50t-167 -19q-108 0 -198.5 30.5t-153 82.5t-106 122t-63.5 148t-20 162q0 155 65 279.5t188.5 197t283.5 72.5q114 0 206 -32.5t151.5 -85.5t100 -124t57.5 -145.5t17 -153.5q0 -31 -2 -51h-870
q8 -152 104 -248t250 -96q216 0 307 166zM623 913q-152 0 -236 -83t-98 -218h665q-3 41 -13 79t-34 80t-59.5 72t-93.5 50t-131 20zM309 1323v150h617v-150h-617z" />
    <glyph glyph-name="Ebreve" unicode="&#x114;" horiz-adv-x="1452" 
d="M205 0v1454h1124v-172h-917v-430h872v-174h-872v-504h962l-28 -174h-1141zM985 1880h143q-20 -122 -109.5 -200t-240.5 -78q-84 0 -150.5 25t-106.5 66t-62.5 88.5t-28.5 98.5h148q15 -63 69.5 -101t132.5 -38q92 0 138.5 37.5t66.5 101.5z" />
    <glyph glyph-name="ebreve" unicode="&#x115;" horiz-adv-x="1239" 
d="M946 295h195q-18 -49 -44.5 -93t-70 -87.5t-98.5 -74.5t-132 -50t-167 -19q-108 0 -198.5 30.5t-153 82.5t-106 122t-63.5 148t-20 162q0 155 65 279.5t188.5 197t283.5 72.5q114 0 206 -32.5t151.5 -85.5t100 -124t57.5 -145.5t17 -153.5q0 -31 -2 -51h-870
q8 -152 104 -248t250 -96q216 0 307 166zM623 913q-152 0 -236 -83t-98 -218h665q-3 41 -13 79t-34 80t-59.5 72t-93.5 50t-131 20zM809 1536h141q-18 -137 -103.5 -223t-230.5 -86q-82 0 -145.5 26t-101.5 70.5t-58.5 98t-25.5 114.5h143q16 -76 62.5 -121t125.5 -45
q48 0 83.5 14t56.5 40t32.5 51.5t20.5 60.5z" />
    <glyph glyph-name="Edotaccent" unicode="&#x116;" horiz-adv-x="1452" 
d="M205 0v1454h1124v-172h-917v-430h872v-174h-872v-504h962l-28 -174h-1141zM870 1634h-194v234h194v-234z" />
    <glyph glyph-name="edotaccent" unicode="&#x117;" horiz-adv-x="1239" 
d="M946 295h195q-18 -49 -44.5 -93t-70 -87.5t-98.5 -74.5t-132 -50t-167 -19q-108 0 -198.5 30.5t-153 82.5t-106 122t-63.5 148t-20 162q0 155 65 279.5t188.5 197t283.5 72.5q114 0 206 -32.5t151.5 -85.5t100 -124t57.5 -145.5t17 -153.5q0 -31 -2 -51h-870
q8 -152 104 -248t250 -96q216 0 307 166zM623 913q-152 0 -236 -83t-98 -218h665q-3 41 -13 79t-34 80t-59.5 72t-93.5 50t-131 20zM715 1307h-195v233h195v-233z" />
    <glyph glyph-name="Eogonek" unicode="&#x118;" horiz-adv-x="1452" 
d="M205 0v1454h1124v-172h-917v-430h872v-174h-872v-504h962l-28 -174h-101q-133 -109 -133 -219q0 -58 35.5 -87.5t95.5 -29.5q65 0 123 21v-144q-62 -33 -172 -33q-122 0 -189 63.5t-67 170.5q0 69 33.5 136.5t87.5 121.5h-854z" />
    <glyph glyph-name="eogonek" unicode="&#x119;" horiz-adv-x="1239" 
d="M952 -307v-144q-60 -32 -172 -32q-122 0 -189 63.5t-67 169.5q0 112 88 221q-104 2 -191.5 33.5t-148 84t-103 121.5t-62 146.5t-19.5 159.5q0 155 65 279.5t188.5 197t283.5 72.5q114 0 206 -32.5t151.5 -85.5t100 -124t57.5 -145.5t17 -153.5q0 -31 -2 -51h-870
q8 -152 104 -248t250 -96q216 0 307 166h195q-37 -101 -116.5 -182.5t-207.5 -116.5q-119 -104 -119 -207q0 -58 35.5 -87.5t95.5 -29.5q64 0 123 21zM623 913q-152 0 -236 -83t-98 -218h665q-3 41 -13 79t-34 80t-59.5 72t-93.5 50t-131 20z" />
    <glyph glyph-name="Ecaron" unicode="&#x11a;" horiz-adv-x="1452" 
d="M205 0v1454h1124v-172h-917v-430h872v-174h-872v-504h962l-28 -174h-1141zM354 1862h207l209 -187l207 187h203l-297 -283h-230z" />
    <glyph glyph-name="ecaron" unicode="&#x11b;" horiz-adv-x="1239" 
d="M946 295h195q-18 -49 -44.5 -93t-70 -87.5t-98.5 -74.5t-132 -50t-167 -19q-108 0 -198.5 30.5t-153 82.5t-106 122t-63.5 148t-20 162q0 155 65 279.5t188.5 197t283.5 72.5q114 0 206 -32.5t151.5 -85.5t100 -124t57.5 -145.5t17 -153.5q0 -31 -2 -51h-870
q8 -152 104 -248t250 -96q216 0 307 166zM623 913q-152 0 -236 -83t-98 -218h665q-3 41 -13 79t-34 80t-59.5 72t-93.5 50t-131 20zM717 1214h-197l-266 330h182l185 -225l178 225h184z" />
    <glyph glyph-name="Gcircumflex" unicode="&#x11c;" horiz-adv-x="1724" 
d="M889 623v174h670v-797h-158q-17 105 -17 215q-76 -123 -200 -184.5t-330 -61.5q-226 0 -394 94t-256.5 264t-88.5 396q0 160 53.5 299.5t152 242t245.5 161.5t325 59q126 0 231.5 -25t178.5 -66t129 -98.5t88 -118t49 -128.5h-213q-108 268 -465 268q-134 0 -240.5 -45
t-175 -124t-105 -184.5t-36.5 -228.5q0 -174 62.5 -307t189 -211t301.5 -78q228 0 351.5 113.5t123.5 327.5v43h-471zM444 1595l297 283h230l299 -283h-207l-209 187l-207 -187h-203z" />
    <glyph glyph-name="gcircumflex" unicode="&#x11d;" horiz-adv-x="1331" 
d="M98 -127h199q27 -91 100 -145t221 -54q89 0 153.5 23t102.5 61t61 98.5t30.5 122.5t7.5 146v57q-50 -98 -142.5 -149t-246.5 -51q-217 0 -356.5 150t-139.5 374q0 122 42 227t112.5 177.5t165.5 113.5t200 41q85 0 152 -17.5t109 -46.5t66.5 -59.5t37.5 -64.5
q0 115 6 159h188q-2 -100 -2 -301v-600q0 -152 -27.5 -262t-90 -192t-172 -123t-267.5 -41q-84 0 -155.5 13.5t-121 35.5t-89 53.5t-64 62.5t-42 68t-25.5 65t-13 58zM631 145q164 0 255 99t91 282q0 180 -88 277.5t-248 97.5q-87 0 -156 -33t-111.5 -88t-64.5 -123
t-22 -143q0 -161 96.5 -265t247.5 -104zM301 1229l266 330h197l266 -330h-182l-184 225l-179 -225h-184z" />
    <glyph glyph-name="Gbreve" unicode="&#x11e;" horiz-adv-x="1724" 
d="M889 623v174h670v-797h-158q-17 105 -17 215q-76 -123 -200 -184.5t-330 -61.5q-226 0 -394 94t-256.5 264t-88.5 396q0 160 53.5 299.5t152 242t245.5 161.5t325 59q126 0 231.5 -25t178.5 -66t129 -98.5t88 -118t49 -128.5h-213q-108 268 -465 268q-134 0 -240.5 -45
t-175 -124t-105 -184.5t-36.5 -228.5q0 -174 62.5 -307t189 -211t301.5 -78q228 0 351.5 113.5t123.5 327.5v43h-471zM1069 1886h143q-20 -122 -109.5 -200t-240.5 -78q-84 0 -150.5 25t-106.5 66t-62.5 88.5t-28.5 98.5h148q15 -63 69.5 -101t132.5 -38q92 0 138.5 37.5
t66.5 101.5z" />
    <glyph glyph-name="gbreve" unicode="&#x11f;" horiz-adv-x="1331" 
d="M98 -127h199q27 -91 100 -145t221 -54q89 0 153.5 23t102.5 61t61 98.5t30.5 122.5t7.5 146v57q-50 -98 -142.5 -149t-246.5 -51q-217 0 -356.5 150t-139.5 374q0 122 42 227t112.5 177.5t165.5 113.5t200 41q85 0 152 -17.5t109 -46.5t66.5 -59.5t37.5 -64.5
q0 115 6 159h188q-2 -100 -2 -301v-600q0 -152 -27.5 -262t-90 -192t-172 -123t-267.5 -41q-84 0 -155.5 13.5t-121 35.5t-89 53.5t-64 62.5t-42 68t-25.5 65t-13 58zM631 145q164 0 255 99t91 282q0 180 -88 277.5t-248 97.5q-87 0 -156 -33t-111.5 -88t-64.5 -123
t-22 -143q0 -161 96.5 -265t247.5 -104zM856 1536h141q-18 -137 -103 -223t-230 -86q-82 0 -145.5 26t-102 70.5t-59 98t-25.5 114.5h143q16 -76 63 -121t126 -45q48 0 83.5 14t56.5 40t32 51.5t20 60.5z" />
    <glyph glyph-name="Gdotaccent" unicode="&#x120;" horiz-adv-x="1724" 
d="M889 623v174h670v-797h-158q-17 105 -17 215q-76 -123 -200 -184.5t-330 -61.5q-226 0 -394 94t-256.5 264t-88.5 396q0 160 53.5 299.5t152 242t245.5 161.5t325 59q126 0 231.5 -25t178.5 -66t129 -98.5t88 -118t49 -128.5h-213q-108 268 -465 268q-134 0 -240.5 -45
t-175 -124t-105 -184.5t-36.5 -228.5q0 -174 62.5 -307t189 -211t301.5 -78q228 0 351.5 113.5t123.5 327.5v43h-471zM956 1636h-194v234h194v-234z" />
    <glyph glyph-name="gdotaccent" unicode="&#x121;" horiz-adv-x="1331" 
d="M98 -127h199q27 -91 100 -145t221 -54q89 0 153.5 23t102.5 61t61 98.5t30.5 122.5t7.5 146v57q-50 -98 -142.5 -149t-246.5 -51q-217 0 -356.5 150t-139.5 374q0 122 42 227t112.5 177.5t165.5 113.5t200 41q85 0 152 -17.5t109 -46.5t66.5 -59.5t37.5 -64.5
q0 115 6 159h188q-2 -100 -2 -301v-600q0 -152 -27.5 -262t-90 -192t-172 -123t-267.5 -41q-84 0 -155.5 13.5t-121 35.5t-89 53.5t-64 62.5t-42 68t-25.5 65t-13 58zM631 145q164 0 255 99t91 282q0 180 -88 277.5t-248 97.5q-87 0 -156 -33t-111.5 -88t-64.5 -123
t-22 -143q0 -161 96.5 -265t247.5 -104zM762 1307h-195v233h195v-233z" />
    <glyph glyph-name="uni0122" unicode="&#x122;" horiz-adv-x="1724" 
d="M889 623v174h670v-797h-158q-17 105 -17 215q-76 -123 -200 -184.5t-330 -61.5q-226 0 -394 94t-256.5 264t-88.5 396q0 160 53.5 299.5t152 242t245.5 161.5t325 59q126 0 231.5 -25t178.5 -66t129 -98.5t88 -118t49 -128.5h-213q-108 268 -465 268q-134 0 -240.5 -45
t-175 -124t-105 -184.5t-36.5 -228.5q0 -174 62.5 -307t189 -211t301.5 -78q228 0 351.5 113.5t123.5 327.5v43h-471zM823 -152h172q0 -96 -29.5 -211t-80.5 -180h-164q102 194 102 391z" />
    <glyph glyph-name="uni0123" unicode="&#x123;" horiz-adv-x="1331" 
d="M733 1210h-182q13 113 57.5 228t106.5 202h164q-118 -194 -146 -430zM98 -127h199q27 -91 100 -145t221 -54q89 0 153.5 23t102.5 61t61 98.5t30.5 122.5t7.5 146v57q-50 -98 -142.5 -149t-246.5 -51q-217 0 -356.5 150t-139.5 374q0 122 42 227t112.5 177.5t165.5 113.5
t200 41q85 0 152 -17.5t109 -46.5t66.5 -59.5t37.5 -64.5q0 115 6 159h188q-2 -100 -2 -301v-600q0 -152 -27.5 -262t-90 -192t-172 -123t-267.5 -41q-84 0 -155.5 13.5t-121 35.5t-89 53.5t-64 62.5t-42 68t-25.5 65t-13 58zM631 145q164 0 255 99t91 282q0 180 -88 277.5
t-248 97.5q-87 0 -156 -33t-111.5 -88t-64.5 -123t-22 -143q0 -161 96.5 -265t247.5 -104z" />
    <glyph glyph-name="Hcircumflex" unicode="&#x124;" horiz-adv-x="1697" 
d="M412 0h-207v1454h207v-588h874v588h207v-1454h-207v692h-874v-692zM434 1591l297 283h230l299 -283h-207l-209 187l-207 -187h-203z" />
    <glyph glyph-name="hcircumflex" unicode="&#x125;" horiz-adv-x="1302" 
d="M-102 1651l239 219h242l239 -219h-204l-158 129l-152 -129h-206zM166 0v1540h194v-690q105 215 383 215q182 0 288 -112t106 -326v-627h-197v596q0 305 -256 305q-157 0 -240.5 -109.5t-83.5 -281.5v-510h-194z" />
    <glyph glyph-name="Hbar" unicode="&#x126;" horiz-adv-x="1697" 
d="M205 0v1065h-160v143h160v246h207v-246h874v246h207v-246h160v-143h-160v-1065h-207v676h-874v-676h-207zM412 1065v-213h874v213h-874z" />
    <glyph glyph-name="hbar" unicode="&#x127;" horiz-adv-x="1302" 
d="M166 0v1239h-172v129h172v172h194v-172h484v-129h-484v-403q100 221 383 221q184 0 289 -110.5t105 -332.5v-614h-197v586q0 307 -256 307q-157 0 -240.5 -110t-83.5 -281v-502h-194z" />
    <glyph glyph-name="Itilde" unicode="&#x128;" horiz-adv-x="616" 
d="M205 0v1454h207v-1454h-207zM68 1604h-140v47q0 219 189 219q58 0 130 -30t134.5 -59.5t97.5 -29.5q36 0 52 21.5t16 78.5v23h135v-43q0 -126 -47 -179t-133 -53q-46 0 -101.5 19t-98 42.5t-91 42.5t-82.5 19q-61 0 -61 -88v-30z" />
    <glyph glyph-name="itilde" unicode="&#x129;" horiz-adv-x="526" 
d="M360 0h-194v1036h194v-1036zM47 1251h-131v52q0 213 178 213q57 0 118 -29t114 -57.5t88 -28.5q33 0 49 21t16 75v27h129v-47q0 -123 -46.5 -175.5t-131.5 -52.5q-45 0 -93 18.5t-81.5 41t-73 41t-71.5 18.5q-64 0 -64 -80v-37z" />
    <glyph glyph-name="Imacron" unicode="&#x12a;" horiz-adv-x="616" 
d="M205 0v1454h207v-1454h-207zM-25 1647v147h660v-147h-660z" />
    <glyph glyph-name="imacron" unicode="&#x12b;" horiz-adv-x="526" 
d="M360 0h-194v1036h194v-1036zM-47 1323v150h616v-150h-616z" />
    <glyph glyph-name="Iogonek" unicode="&#x12e;" horiz-adv-x="616" 
d="M518 -315v-144q-62 -33 -172 -33q-122 0 -189 63.5t-67 170.5q0 69 33.5 136.5t87.5 121.5h-6v1454h207v-1454h-15q-133 -109 -133 -219q0 -58 35.5 -87.5t95.5 -29.5q65 0 123 21z" />
    <glyph glyph-name="iogonek" unicode="&#x12f;" horiz-adv-x="526" 
d="M469 -315v-144q-62 -33 -172 -33q-122 0 -189 63.5t-67 170.5q0 137 125 262v1032h194v-1036h-12q-133 -109 -133 -219q0 -58 35.5 -87.5t95.5 -29.5q64 0 123 21zM360 1307h-194v233h194v-233z" />
    <glyph glyph-name="Idotaccent" unicode="&#x130;" horiz-adv-x="616" 
d="M205 0v1454h207v-1454h-207zM406 1620h-195v233h195v-233z" />
    <glyph glyph-name="dotlessi" unicode="&#x131;" horiz-adv-x="526" 
d="M360 0h-194v1036h194v-1036z" />
    <glyph glyph-name="Jcircumflex" unicode="&#x134;" horiz-adv-x="899" 
d="M53 -12v174q92 -15 185 -15q60 0 106.5 18t75.5 48t47.5 74.5t25.5 93.5t7 108v965h207v-954q0 -271 -109 -400t-350 -129q-112 0 -195 17zM188 1579l297 283h230l299 -283h-207l-209 186l-207 -186h-203z" />
    <glyph glyph-name="jcircumflex" unicode="&#x135;" horiz-adv-x="538" 
d="M-33 -481v157h21q105 0 147.5 59.5t42.5 186.5v1114h195v-1071q0 -69 -5.5 -122t-20 -106.5t-41.5 -91.5t-68 -68t-102 -45t-140 -15q-7 0 -17 1t-12 1zM-96 1229l266 330h197l266 -330h-182l-185 225l-178 -225h-184z" />
    <glyph glyph-name="uni0136" unicode="&#x136;" horiz-adv-x="1521" 
d="M412 0h-207v1454h207v-717q116 100 421 354t433 363h266l-739 -623l784 -831h-268l-672 721l-225 -182v-539zM725 -152h172q0 -96 -30 -211t-81 -180h-163q102 194 102 391z" />
    <glyph glyph-name="uni0137" unicode="&#x137;" horiz-adv-x="1222" 
d="M166 0v1540h194v-999q61 54 283.5 246t288.5 249h246l-480 -403l531 -633h-246l-428 522l-195 -153v-369h-194zM578 -152h172q0 -96 -30 -211t-81 -180h-164q103 196 103 391z" />
    <glyph glyph-name="kgreenlandic" unicode="&#x138;" horiz-adv-x="1218" 
d="M166 0v1036h194v-495q10 8 151 127.5t249 212.5t178 155h246q-192 -154 -490 -407q27 -31 270.5 -314t270.5 -315h-246q-14 19 -217.5 258.5t-220.5 265.5l-191 -145v-379h-194z" />
    <glyph glyph-name="Lacute" unicode="&#x139;" horiz-adv-x="1316" 
d="M410 174h876l-31 -174h-1050v1454h205v-1280zM199 1595l346 285h264l-406 -285h-204z" />
    <glyph glyph-name="lacute" unicode="&#x13a;" horiz-adv-x="526" 
d="M156 1661l284 250h240l-330 -250h-194zM360 0h-194v1540h194v-1540z" />
    <glyph glyph-name="uni013B" unicode="&#x13b;" horiz-adv-x="1316" 
d="M410 174h876l-31 -174h-1050v1454h205v-1280zM666 -152h172q0 -96 -30 -211t-81 -180h-164q103 196 103 391z" />
    <glyph glyph-name="uni013C" unicode="&#x13c;" horiz-adv-x="526" 
d="M360 0h-194v1540h194v-1540zM178 -152h172q0 -96 -29.5 -211t-80.5 -180h-164q102 194 102 391z" />
    <glyph glyph-name="Lcaron" unicode="&#x13d;" horiz-adv-x="1316" 
d="M410 174h876l-31 -174h-1050v1454h205v-1280zM938 901h-150l-10 557h168z" />
    <glyph glyph-name="lcaron" unicode="&#x13e;" horiz-adv-x="618" 
d="M360 0h-194v1540h194v-1540zM651 983h-149l-10 557h167z" />
    <glyph glyph-name="Ldot" unicode="&#x13f;" horiz-adv-x="1316" 
d="M942 649h-197v316h197v-316zM410 174h876l-31 -174h-1050v1454h205v-1280z" />
    <glyph glyph-name="ldot" unicode="&#x140;" horiz-adv-x="614" 
d="M659 717h-176v319h176v-319zM360 0h-194v1540h194v-1540z" />
    <glyph glyph-name="Lslash" unicode="&#x141;" horiz-adv-x="1316" 
d="M205 0v612l-219 -106l-2 151l221 109v688h205v-590l424 207v-156l-424 -204v-537h876l-31 -174h-1050z" />
    <glyph glyph-name="lslash" unicode="&#x142;" horiz-adv-x="573" 
d="M385 0h-195v721l-161 -90v160l161 92v657h195v-549l188 107v-162l-188 -107v-829z" />
    <glyph glyph-name="Nacute" unicode="&#x143;" horiz-adv-x="1720" 
d="M397 0h-192v1454h246q124 -173 341.5 -462t359 -481.5t177.5 -258.5h4q-12 161 -12 655v547h192v-1454h-231q-203 272 -512 701t-379 544h-4q10 -188 10 -651v-594zM721 1595l346 285h264l-405 -285h-205z" />
    <glyph glyph-name="nacute" unicode="&#x144;" horiz-adv-x="1302" 
d="M360 0h-194v774q0 184 -2 262h188q8 -70 8 -192q19 41 47.5 77t73 70t110 54t144.5 20q187 0 294.5 -112t107.5 -322v-631h-197v596q0 305 -258 305q-157 0 -239.5 -109t-82.5 -294v-498zM512 1233l283 328h235l-336 -328h-182z" />
    <glyph glyph-name="uni0145" unicode="&#x145;" horiz-adv-x="1720" 
d="M397 0h-192v1454h246q124 -173 341.5 -462t359 -481.5t177.5 -258.5h4q-12 161 -12 655v547h192v-1454h-231q-203 272 -512 701t-379 544h-4q10 -188 10 -651v-594zM809 -145h172q0 -96 -30 -211.5t-81 -180.5h-163q102 194 102 392z" />
    <glyph glyph-name="uni0146" unicode="&#x146;" horiz-adv-x="1302" 
d="M360 0h-194v774q0 184 -2 262h188q8 -70 8 -192q19 41 47.5 77t73 70t110 54t144.5 20q187 0 294.5 -112t107.5 -322v-631h-197v596q0 305 -258 305q-157 0 -239.5 -109t-82.5 -294v-498zM590 -152h172q0 -96 -30 -211t-81 -180h-164q103 196 103 391z" />
    <glyph glyph-name="Ncaron" unicode="&#x147;" horiz-adv-x="1720" 
d="M397 0h-192v1454h246q124 -173 341.5 -462t359 -481.5t177.5 -258.5h4q-12 161 -12 655v547h192v-1454h-231q-203 272 -512 701t-379 544h-4q10 -188 10 -651v-594zM446 1862h207l209 -187l207 187h203l-297 -283h-230z" />
    <glyph glyph-name="ncaron" unicode="&#x148;" horiz-adv-x="1302" 
d="M360 0h-194v774q0 184 -2 262h188q8 -70 8 -192q19 41 47.5 77t73 70t110 54t144.5 20q187 0 294.5 -112t107.5 -322v-631h-197v596q0 305 -258 305q-157 0 -239.5 -109t-82.5 -294v-498zM756 1214h-197l-266 330h182l184 -225l179 225h184z" />
    <glyph glyph-name="napostrophe" unicode="&#x149;" horiz-adv-x="1302" 
d="M137 1612h170q-13 -113 -51 -226.5t-82 -187.5h-149q82 202 112 414zM360 0h-194v774q0 184 -2 262h188q8 -70 8 -192q19 41 47.5 77t73 70t110 54t144.5 20q187 0 294.5 -112t107.5 -322v-631h-197v596q0 305 -258 305q-157 0 -239.5 -109t-82.5 -294v-498z" />
    <glyph glyph-name="Omacron" unicode="&#x14c;" horiz-adv-x="1757" 
d="M877 -31q-229 0 -404 102t-266.5 275t-91.5 387q0 151 55 287.5t153 239.5t243.5 164t316.5 61q170 0 314 -61t240.5 -164t150.5 -240t54 -289q0 -155 -52 -292.5t-147 -242t-241.5 -166t-324.5 -61.5zM883 141q130 0 234.5 47t170.5 128t101.5 186t35.5 225
q0 115 -36 219.5t-104 187t-175.5 131t-239.5 48.5q-124 0 -227 -46.5t-170 -125.5t-104 -183.5t-37 -220.5q0 -94 22.5 -181.5t68.5 -163t110.5 -131.5t154.5 -88t195 -32zM535 1671v148h659v-148h-659z" />
    <glyph glyph-name="omacron" unicode="&#x14d;" horiz-adv-x="1282" 
d="M88 518q0 112 38.5 211t109 174t176.5 118.5t233 43.5q130 0 236 -46.5t173.5 -124.5t103.5 -175t36 -201q0 -109 -35.5 -206.5t-103.5 -174t-176.5 -121.5t-243.5 -45q-127 0 -232.5 45t-173 121t-104.5 174t-37 207zM641 131q170 0 261 109.5t91 275.5q0 106 -40 193
t-122.5 141.5t-193.5 54.5q-168 0 -258 -110.5t-90 -276.5q0 -102 39.5 -188.5t121.5 -142.5t191 -56zM332 1323v150h616v-150h-616z" />
    <glyph glyph-name="Ohungarumlaut" unicode="&#x150;" horiz-adv-x="1757" 
d="M539 1612l247 282h211l-284 -282h-174zM950 1612l248 282h211l-285 -282h-174zM877 -31q-229 0 -404 102t-266.5 275t-91.5 387q0 151 55 287.5t153 239.5t243.5 164t316.5 61q170 0 314 -61t240.5 -164t150.5 -240t54 -289q0 -155 -52 -292.5t-147 -242t-241.5 -166
t-324.5 -61.5zM883 141q130 0 234.5 47t170.5 128t101.5 186t35.5 225q0 115 -36 219.5t-104 187t-175.5 131t-239.5 48.5q-124 0 -227 -46.5t-170 -125.5t-104 -183.5t-37 -220.5q0 -94 22.5 -181.5t68.5 -163t110.5 -131.5t154.5 -88t195 -32z" />
    <glyph glyph-name="ohungarumlaut" unicode="&#x151;" horiz-adv-x="1282" 
d="M510 1198h-156l236 342h186zM889 1198h-156l236 342h186zM88 518q0 112 38.5 211t109 174t176.5 118.5t233 43.5q130 0 236 -46.5t173.5 -124.5t103.5 -175t36 -201q0 -109 -35.5 -206.5t-103.5 -174t-176.5 -121.5t-243.5 -45q-127 0 -232.5 45t-173 121t-104.5 174
t-37 207zM641 131q170 0 261 109.5t91 275.5q0 106 -40 193t-122.5 141.5t-193.5 54.5q-168 0 -258 -110.5t-90 -276.5q0 -102 39.5 -188.5t121.5 -142.5t191 -56z" />
    <glyph glyph-name="OE" unicode="&#x152;" horiz-adv-x="2385" 
d="M1413 174h895l-29 -174h-1048q-169 -23 -309 -23q-159 0 -291.5 40t-226 110t-158.5 165t-96 205.5t-31 231.5q0 155 55.5 289.5t158.5 236t262 160t353 58.5q127 0 295 -19h1020v-174h-850v-428h805v-176h-805v-502zM336 733q0 -141 47 -253.5t128.5 -184.5t189.5 -110
t233 -38q166 0 272 27v1108q-99 21 -256 21q-103 0 -194.5 -21t-168.5 -66.5t-132.5 -111.5t-87 -161t-31.5 -210z" />
    <glyph glyph-name="oe" unicode="&#x153;" horiz-adv-x="2150" 
d="M1858 295h194q-18 -49 -44.5 -93t-70 -87.5t-98.5 -74.5t-132 -50t-167 -19q-153 0 -266 64.5t-178 173.5q-67 -109 -184 -173.5t-277 -64.5q-127 0 -232 45t-172.5 121t-104.5 174t-38 207q0 112 38.5 211t109 174t176.5 118.5t233 43.5q150 0 265.5 -66t183.5 -176
q65 114 180 178t262 64q112 0 204 -33t152 -86.5t100.5 -125t58 -145.5t17.5 -151q0 -39 -2 -51h-870q8 -152 104 -248t250 -96q217 0 308 166zM641 131q170 0 261 109.5t91 275.5q0 106 -40 193t-122.5 141.5t-193.5 54.5q-168 0 -258 -110.5t-90 -276.5
q0 -102 39.5 -188.5t121.5 -142.5t191 -56zM1534 913q-150 0 -235 -83.5t-99 -217.5h666q-4 51 -22.5 99.5t-55 96t-102 76.5t-152.5 29z" />
    <glyph glyph-name="Racute" unicode="&#x154;" horiz-adv-x="1533" 
d="M207 0v1454h694q228 0 363 -102t135 -291q0 -134 -67 -223.5t-199 -124.5q227 -64 227 -355v-63q0 -234 16 -295h-209q-7 18 -11 40.5t-5.5 59t-2 55t0 73.5t0.5 69v47q0 161 -74 222t-266 61h-399v-627h-203zM410 1286v-491h438q171 0 255.5 62t84.5 192q0 237 -332 237
h-446zM627 1595l346 285h264l-406 -285h-204z" />
    <glyph glyph-name="racute" unicode="&#x155;" horiz-adv-x="817" 
d="M360 0h-194v754q0 188 -2 282h190q6 -93 6 -233q52 123 161.5 193t258.5 69v-186q-187 2 -303.5 -112.5t-116.5 -334.5v-432zM301 1233l283 328h235l-336 -328h-182z" />
    <glyph glyph-name="uni0156" unicode="&#x156;" horiz-adv-x="1533" 
d="M207 0v1454h694q228 0 363 -102t135 -291q0 -134 -67 -223.5t-199 -124.5q227 -64 227 -355v-63q0 -234 16 -295h-209q-7 18 -11 40.5t-5.5 59t-2 55t0 73.5t0.5 69v47q0 161 -74 222t-266 61h-399v-627h-203zM410 1286v-491h438q171 0 255.5 62t84.5 192q0 237 -332 237
h-446zM715 -135h172q0 -96 -30 -211t-81 -180h-164q103 196 103 391z" />
    <glyph glyph-name="uni0157" unicode="&#x157;" horiz-adv-x="817" 
d="M360 0h-194v754q0 188 -2 282h190q6 -93 6 -233q52 123 161.5 193t258.5 69v-186q-187 2 -303.5 -112.5t-116.5 -334.5v-432zM178 -152h172q0 -96 -29.5 -211t-80.5 -180h-164q102 194 102 391z" />
    <glyph glyph-name="Rcaron" unicode="&#x158;" horiz-adv-x="1533" 
d="M207 0v1454h694q228 0 363 -102t135 -291q0 -134 -67 -223.5t-199 -124.5q227 -64 227 -355v-63q0 -234 16 -295h-209q-7 18 -11 40.5t-5.5 59t-2 55t0 73.5t0.5 69v47q0 161 -74 222t-266 61h-399v-627h-203zM410 1286v-491h438q171 0 255.5 62t84.5 192q0 237 -332 237
h-446zM338 1862h207l209 -187l207 187h202l-297 -283h-229z" />
    <glyph glyph-name="rcaron" unicode="&#x159;" horiz-adv-x="817" 
d="M360 0h-194v754q0 188 -2 282h190q6 -93 6 -233q52 123 161.5 193t258.5 69v-186q-187 2 -303.5 -112.5t-116.5 -334.5v-432zM532 1214h-196l-266 330h182l184 -225l178 225h185z" />
    <glyph glyph-name="Sacute" unicode="&#x15a;" horiz-adv-x="1482" 
d="M1319 1090h-207q-11 37 -23.5 63.5t-42 60.5t-69.5 55.5t-108 36.5t-156 15q-161 0 -252.5 -55.5t-91.5 -161.5q0 -38 8.5 -66.5t33.5 -56.5t68 -49.5t113 -41.5t168 -36q153 -26 264 -63t176.5 -77t104 -93.5t51 -104t12.5 -117.5q0 -89 -36.5 -165t-110 -136
t-195.5 -94.5t-281 -34.5q-293 0 -456.5 122t-202.5 333h211q28 -91 80 -153t148.5 -100t234.5 -38q203 0 300 68t97 178q0 57 -18.5 98t-68 78.5t-140.5 66.5t-230 52q-160 27 -267.5 66t-166.5 92.5t-82.5 112.5t-23.5 138q0 125 74 217t199.5 138.5t285.5 46.5
q135 0 241.5 -27.5t170 -68.5t106 -97t60 -104t22.5 -98zM594 1610l346 284h264l-405 -284h-205z" />
    <glyph glyph-name="sacute" unicode="&#x15b;" horiz-adv-x="1148" 
d="M1026 756h-197q-7 29 -19.5 52.5t-41.5 51.5t-86 44t-137 16q-69 0 -117.5 -13.5t-72.5 -36t-34 -45t-10 -47.5q0 -42 21.5 -68.5t85.5 -49t180 -37.5q114 -16 197 -40t133.5 -53t80 -67.5t40 -77t10.5 -88.5q0 -148 -118 -237t-357 -89q-225 0 -356 89.5t-158 252.5h196
q58 -194 330 -194q268 0 268 164q0 35 -12.5 60t-45.5 48t-96.5 40t-160.5 28q-131 16 -220.5 47t-133.5 73t-61 84.5t-17 96.5t22.5 105t71 97.5t137 74.5t207.5 28q103 0 185 -20.5t132.5 -52t85 -74t49.5 -82t19 -80.5zM428 1233l283 328h235l-336 -328h-182z" />
    <glyph glyph-name="Scircumflex" unicode="&#x15c;" horiz-adv-x="1482" 
d="M1319 1090h-207q-11 37 -23.5 63.5t-42 60.5t-69.5 55.5t-108 36.5t-156 15q-161 0 -252.5 -55.5t-91.5 -161.5q0 -38 8.5 -66.5t33.5 -56.5t68 -49.5t113 -41.5t168 -36q153 -26 264 -63t176.5 -77t104 -93.5t51 -104t12.5 -117.5q0 -89 -36.5 -165t-110 -136
t-195.5 -94.5t-281 -34.5q-293 0 -456.5 122t-202.5 333h211q28 -91 80 -153t148.5 -100t234.5 -38q203 0 300 68t97 178q0 57 -18.5 98t-68 78.5t-140.5 66.5t-230 52q-160 27 -267.5 66t-166.5 92.5t-82.5 112.5t-23.5 138q0 125 74 217t199.5 138.5t285.5 46.5
q135 0 241.5 -27.5t170 -68.5t106 -97t60 -104t22.5 -98zM328 1593l297 283h229l299 -283h-207l-209 187l-207 -187h-202z" />
    <glyph glyph-name="scircumflex" unicode="&#x15d;" horiz-adv-x="1148" 
d="M1026 756h-197q-7 29 -19.5 52.5t-41.5 51.5t-86 44t-137 16q-69 0 -117.5 -13.5t-72.5 -36t-34 -45t-10 -47.5q0 -42 21.5 -68.5t85.5 -49t180 -37.5q114 -16 197 -40t133.5 -53t80 -67.5t40 -77t10.5 -88.5q0 -148 -118 -237t-357 -89q-225 0 -356 89.5t-158 252.5h196
q58 -194 330 -194q268 0 268 164q0 35 -12.5 60t-45.5 48t-96.5 40t-160.5 28q-131 16 -220.5 47t-133.5 73t-61 84.5t-17 96.5t22.5 105t71 97.5t137 74.5t207.5 28q103 0 185 -20.5t132.5 -52t85 -74t49.5 -82t19 -80.5zM209 1229l266 330h197l266 -330h-182l-185 225
l-178 -225h-184z" />
    <glyph glyph-name="uni015E" unicode="&#x15e;" horiz-adv-x="1482" 
d="M528 -492v121q81 -18 150 -18q145 0 145 78q0 29 -20 48t-59 28t-80.5 12.5t-98.5 3.5v57l113 133q-260 13 -407.5 133.5t-184.5 319.5h211q28 -91 80 -153t148.5 -100t234.5 -38q203 0 300 68t97 178q0 57 -18.5 98t-68 78.5t-140.5 66.5t-230 52q-160 27 -267.5 66
t-166.5 92.5t-82.5 112.5t-23.5 138q0 125 74 217t199.5 138.5t285.5 46.5q135 0 241.5 -27.5t170 -68.5t106 -97t60 -104t22.5 -98h-207q-11 37 -23.5 63.5t-42 60.5t-69.5 55.5t-108 36.5t-156 15q-161 0 -252.5 -55.5t-91.5 -161.5q0 -38 8.5 -66.5t33.5 -56.5t68 -49.5
t113 -41.5t168 -36q153 -26 264 -63t176.5 -77t104 -93.5t51 -104t12.5 -117.5q0 -83 -31.5 -154.5t-94.5 -130.5t-167.5 -96.5t-240.5 -46.5l-74 -86q30 -3 59 -10.5t61 -22t55.5 -35t38.5 -52t15 -70.5q0 -61 -27.5 -104.5t-73.5 -65t-92 -30.5t-96 -9q-99 0 -172 22z" />
    <glyph glyph-name="uni015F" unicode="&#x15f;" horiz-adv-x="1148" 
d="M360 -492v121q81 -18 150 -18q145 0 145 78q0 29 -20 48t-59 28t-80.5 12.5t-98.5 3.5v57l117 135q-193 13 -306 101t-138 239h196q58 -194 330 -194q268 0 268 164q0 35 -12.5 60t-45.5 48t-96.5 40t-160.5 28q-131 16 -220.5 47t-133.5 73t-61 84.5t-17 96.5t22.5 105
t71 97.5t137 74.5t207.5 28q103 0 185 -20.5t132.5 -52t85 -74t49.5 -82t19 -80.5h-197q-7 29 -19.5 52.5t-41.5 51.5t-86 44t-137 16q-69 0 -117.5 -13.5t-72.5 -36t-34 -45t-10 -47.5q0 -42 21.5 -68.5t85.5 -49t180 -37.5q114 -16 197 -40t133.5 -53t80 -67.5t40 -77
t10.5 -88.5q0 -134 -97 -221t-294 -101l-76 -90q30 -3 59 -10.5t61 -22t55.5 -35t38.5 -52t15 -70.5q0 -61 -27.5 -104.5t-73.5 -65t-92 -30.5t-96 -9q-99 0 -172 22z" />
    <glyph glyph-name="Scaron" unicode="&#x160;" horiz-adv-x="1482" 
d="M1319 1090h-207q-11 37 -23.5 63.5t-42 60.5t-69.5 55.5t-108 36.5t-156 15q-161 0 -252.5 -55.5t-91.5 -161.5q0 -38 8.5 -66.5t33.5 -56.5t68 -49.5t113 -41.5t168 -36q153 -26 264 -63t176.5 -77t104 -93.5t51 -104t12.5 -117.5q0 -89 -36.5 -165t-110 -136
t-195.5 -94.5t-281 -34.5q-293 0 -456.5 122t-202.5 333h211q28 -91 80 -153t148.5 -100t234.5 -38q203 0 300 68t97 178q0 57 -18.5 98t-68 78.5t-140.5 66.5t-230 52q-160 27 -267.5 66t-166.5 92.5t-82.5 112.5t-23.5 138q0 125 74 217t199.5 138.5t285.5 46.5
q135 0 241.5 -27.5t170 -68.5t106 -97t60 -104t22.5 -98zM328 1894h207l208 -186l207 186h203l-297 -282h-229z" />
    <glyph glyph-name="scaron" unicode="&#x161;" horiz-adv-x="1148" 
d="M1026 756h-197q-7 29 -19.5 52.5t-41.5 51.5t-86 44t-137 16q-69 0 -117.5 -13.5t-72.5 -36t-34 -45t-10 -47.5q0 -42 21.5 -68.5t85.5 -49t180 -37.5q114 -16 197 -40t133.5 -53t80 -67.5t40 -77t10.5 -88.5q0 -148 -118 -237t-357 -89q-225 0 -356 89.5t-158 252.5h196
q58 -194 330 -194q268 0 268 164q0 35 -12.5 60t-45.5 48t-96.5 40t-160.5 28q-131 16 -220.5 47t-133.5 73t-61 84.5t-17 96.5t22.5 105t71 97.5t137 74.5t207.5 28q103 0 185 -20.5t132.5 -52t85 -74t49.5 -82t19 -80.5zM672 1214h-197l-266 330h182l184 -225l179 225h184
z" />
    <glyph glyph-name="uni0162" unicode="&#x162;" horiz-adv-x="1355" 
d="M442 -492v121q81 -18 150 -18q145 0 145 78q0 29 -20 48t-59 28t-80.5 12.5t-98.5 3.5v57l137 162h-41v1280h-555v174h1315v-174h-553v-1280h-12l-96 -115q30 -3 59 -10.5t61 -22t55.5 -35t38.5 -52t15 -70.5q0 -61 -27.5 -104.5t-73.5 -65t-92 -30.5t-96 -9
q-99 0 -172 22z" />
    <glyph glyph-name="uni0163" unicode="&#x163;" horiz-adv-x="759" 
d="M225 -475v121q85 -19 150 -19q145 0 145 78q0 29 -20 48t-59 28t-80.5 12.5t-98.5 3.5v58l129 151q-83 25 -117 93.5t-34 191.5v592h-207v153h207v334h194v-334h271v-153h-271v-568q0 -93 31 -132.5t113 -39.5q59 0 102 11v-144q-61 -20 -150 -20l-73 -88
q39 -4 75.5 -15.5t73 -32.5t58.5 -58t22 -85q0 -61 -27.5 -104.5t-73.5 -65t-92 -30.5t-96 -9q-96 0 -172 23z" />
    <glyph glyph-name="Tcaron" unicode="&#x164;" horiz-adv-x="1355" 
d="M782 0h-207v1280h-555v174h1315v-174h-553v-1280zM262 1862h207l209 -187l207 187h202l-296 -283h-230z" />
    <glyph glyph-name="tcaron" unicode="&#x165;" horiz-adv-x="759" 
d="M745 1217h-122l-11 436h156zM240 291v592h-207v153h207v334h194v-334h271v-153h-271v-568q0 -93 31 -132.5t113 -39.5q59 0 102 11v-144q-59 -20 -162 -20q-156 0 -217 71t-61 230z" />
    <glyph glyph-name="Utilde" unicode="&#x168;" horiz-adv-x="1667" 
d="M193 614v840h204v-825q0 -111 25.5 -197.5t67.5 -140t101 -88.5t120 -48.5t131 -13.5q103 0 180 26t134 82.5t85.5 151.5t28.5 228v825h205v-823q0 -662 -639 -662q-149 0 -266 37.5t-202 114.5t-130 201.5t-45 291.5zM594 1604h-139v47q0 219 188 219q58 0 130.5 -30
t135 -59.5t97.5 -29.5q36 0 51.5 21.5t15.5 78.5v23h135v-43q0 -126 -47 -179t-133 -53q-46 0 -101.5 19t-98 42.5t-91 42.5t-82.5 19q-61 0 -61 -88v-30z" />
    <glyph glyph-name="utilde" unicode="&#x169;" horiz-adv-x="1286" 
d="M166 393v643h194v-606q0 -62 13 -113t41 -92.5t77.5 -64.5t116.5 -23q167 0 242.5 102t75.5 328v469h194v-733q0 -203 2 -303h-188q-4 29 -8 176q-42 -99 -127 -152t-244 -53q-84 0 -153.5 24t-123 73.5t-83 132t-29.5 192.5zM428 1251h-131v52q0 213 178 213
q57 0 118 -29t114 -57.5t88 -28.5q33 0 49 21t16 75v27h129v-47q0 -123 -46.5 -175.5t-131.5 -52.5q-45 0 -93 18.5t-81.5 41t-73 41t-71.5 18.5q-64 0 -64 -80v-37z" />
    <glyph glyph-name="Umacron" unicode="&#x16a;" horiz-adv-x="1667" 
d="M193 614v840h204v-825q0 -111 25.5 -197.5t67.5 -140t101 -88.5t120 -48.5t131 -13.5q103 0 180 26t134 82.5t85.5 151.5t28.5 228v825h205v-823q0 -662 -639 -662q-149 0 -266 37.5t-202 114.5t-130 201.5t-45 291.5zM502 1647v147h659v-147h-659z" />
    <glyph glyph-name="umacron" unicode="&#x16b;" horiz-adv-x="1286" 
d="M166 393v643h194v-606q0 -62 13 -113t41 -92.5t77.5 -64.5t116.5 -23q167 0 242.5 102t75.5 328v469h194v-733q0 -203 2 -303h-188q-4 29 -8 176q-42 -99 -127 -152t-244 -53q-84 0 -153.5 24t-123 73.5t-83 132t-29.5 192.5zM334 1323v150h616v-150h-616z" />
    <glyph glyph-name="Ubreve" unicode="&#x16c;" horiz-adv-x="1667" 
d="M193 614v840h204v-825q0 -111 25.5 -197.5t67.5 -140t101 -88.5t120 -48.5t131 -13.5q103 0 180 26t134 82.5t85.5 151.5t28.5 228v825h205v-823q0 -662 -639 -662q-149 0 -266 37.5t-202 114.5t-130 201.5t-45 291.5zM1038 1866h144q-20 -122 -110 -200.5t-241 -78.5
q-83 0 -150 25t-107 66.5t-62.5 89t-28.5 98.5h148q15 -63 70 -101.5t133 -38.5q92 0 138 38t66 102z" />
    <glyph glyph-name="ubreve" unicode="&#x16d;" horiz-adv-x="1286" 
d="M166 393v643h194v-606q0 -62 13 -113t41 -92.5t77.5 -64.5t116.5 -23q167 0 242.5 102t75.5 328v469h194v-733q0 -203 2 -303h-188q-4 29 -8 176q-42 -99 -127 -152t-244 -53q-84 0 -153.5 24t-123 73.5t-83 132t-29.5 192.5zM834 1536h141q-18 -137 -103.5 -223
t-230.5 -86q-82 0 -145.5 26t-102 70.5t-59 98t-25.5 114.5h144q16 -76 62.5 -121t125.5 -45q48 0 83.5 14t56.5 40t32.5 51.5t20.5 60.5z" />
    <glyph glyph-name="Uring" unicode="&#x16e;" horiz-adv-x="1667" 
d="M193 614v840h204v-825q0 -111 25.5 -197.5t67.5 -140t101 -88.5t120 -48.5t131 -13.5q103 0 180 26t134 82.5t85.5 151.5t28.5 228v825h205v-823q0 -662 -639 -662q-149 0 -266 37.5t-202 114.5t-130 201.5t-45 291.5zM602 1772q0 92 62 154.5t170 62.5q107 0 168 -60
t61 -153t-62 -154t-167 -61q-107 0 -169.5 60t-62.5 151zM834 1661q54 0 83 32.5t29 80.5q0 47 -28.5 81.5t-83.5 34.5q-56 0 -84.5 -33t-28.5 -79q0 -49 28.5 -83t84.5 -34z" />
    <glyph glyph-name="uring" unicode="&#x16f;" horiz-adv-x="1286" 
d="M166 393v643h194v-606q0 -62 13 -113t41 -92.5t77.5 -64.5t116.5 -23q167 0 242.5 102t75.5 328v469h194v-733q0 -203 2 -303h-188q-4 29 -8 176q-42 -99 -127 -152t-244 -53q-84 0 -153.5 24t-123 73.5t-83 132t-29.5 192.5zM412 1382q0 92 61.5 154.5t169.5 62.5
q107 0 168 -60t61 -153t-62 -154t-167 -61q-107 0 -169 60t-62 151zM643 1272q54 0 83.5 32.5t29.5 79.5t-29 82t-84 35q-56 0 -84.5 -33t-28.5 -79q0 -49 28.5 -83t84.5 -34z" />
    <glyph glyph-name="Uhungarumlaut" unicode="&#x170;" horiz-adv-x="1667" 
d="M512 1597l248 283h211l-285 -283h-174zM924 1597l247 283h211l-284 -283h-174zM193 614v840h204v-825q0 -111 25.5 -197.5t67.5 -140t101 -88.5t120 -48.5t131 -13.5q103 0 180 26t134 82.5t85.5 151.5t28.5 228v825h205v-823q0 -662 -639 -662q-149 0 -266 37.5
t-202 114.5t-130 201.5t-45 291.5z" />
    <glyph glyph-name="uhungarumlaut" unicode="&#x171;" horiz-adv-x="1286" 
d="M512 1198h-156l236 342h186zM891 1198h-156l236 342h186zM166 393v643h194v-606q0 -62 13 -113t41 -92.5t77.5 -64.5t116.5 -23q167 0 242.5 102t75.5 328v469h194v-733q0 -203 2 -303h-188q-4 29 -8 176q-42 -99 -127 -152t-244 -53q-84 0 -153.5 24t-123 73.5t-83 132
t-29.5 192.5z" />
    <glyph glyph-name="Uogonek" unicode="&#x172;" horiz-adv-x="1667" 
d="M1087 2l7 -2q-133 -109 -133 -219q0 -58 35.5 -87.5t95.5 -29.5q64 0 122 21v-144q-62 -33 -172 -33q-122 0 -189 63.5t-67 170.5q0 118 95 227h-45q-149 0 -266 37.5t-202 114.5t-130 201.5t-45 291.5v840h204v-825q0 -111 25.5 -197.5t67.5 -140t101 -88.5t120 -48.5
t131 -13.5q103 0 180 26t134 82.5t85.5 151.5t28.5 228v825h205v-823q0 -515 -388 -629z" />
    <glyph glyph-name="uogonek" unicode="&#x173;" horiz-adv-x="1286" 
d="M166 393v643h194v-606q0 -62 13 -113t41 -92.5t77.5 -64.5t116.5 -23q167 0 242.5 102t75.5 328v469h194v-733q0 -203 2 -303h-18q-131 -110 -131 -217q0 -58 35.5 -87.5t95.5 -29.5q64 0 123 21v-144q-60 -32 -172 -32q-122 0 -189 63.5t-67 169.5q0 72 37 143t96 127
q-2 30 -6 162q-42 -99 -127 -152t-244 -53q-84 0 -153.5 24t-123 73.5t-83 132t-29.5 192.5z" />
    <glyph glyph-name="Wcircumflex" unicode="&#x174;" horiz-adv-x="2217" 
d="M715 0h-219l-453 1454h217q329 -1075 358 -1255h3q39 197 385 1255h206q343 -1096 373 -1251h4q13 62 42.5 168.5t84 281.5t82.5 264t99 310t73 227h209l-483 -1454h-226q-335 1063 -372 1235h-2q-35 -174 -381 -1235zM696 1579l297 283h230l299 -283h-207l-209 186
l-207 -186h-203z" />
    <glyph glyph-name="wcircumflex" unicode="&#x175;" horiz-adv-x="1746" 
d="M381 0l-342 1036h203q228 -734 256 -862h2q37 146 284 862h187q253 -735 278 -850h2q54 218 262 850h193l-358 -1036h-201q-36 106 -112 325.5t-112.5 327.5t-52.5 162h-2q-60 -216 -278 -815h-209zM508 1229l266 330h197l266 -330h-182l-185 225l-178 -225h-184z" />
    <glyph glyph-name="Ycircumflex" unicode="&#x176;" horiz-adv-x="1370" 
d="M788 0h-204v553q0 19 -15 37l-610 864h246q43 -63 174.5 -252t207.5 -302t107 -167q65 111 488 721h227l-610 -868q-11 -22 -11 -35v-551zM270 1579l297 283h230l299 -283h-207l-209 186l-207 -186h-203z" />
    <glyph glyph-name="ycircumflex" unicode="&#x177;" horiz-adv-x="1191" 
d="M109 -471v170q52 -8 112 -8q103 0 160 53t129 209l-479 1083h213q304 -699 370 -886h4q174 480 340 886h203l-407 -983q-49 -121 -83 -195.5t-72.5 -140.5t-70.5 -100t-76.5 -59t-92 -33t-115.5 -8q-82 0 -135 12zM231 1229l267 330h196l267 -330h-183l-184 225
l-178 -225h-185z" />
    <glyph glyph-name="Ydieresis" unicode="&#x178;" horiz-adv-x="1370" 
d="M549 1620h-178v233h178v-233zM995 1620h-178v233h178v-233zM788 0h-204v553q0 19 -15 37l-610 864h246q43 -63 174.5 -252t207.5 -302t107 -167q65 111 488 721h227l-610 -868q-11 -22 -11 -35v-551z" />
    <glyph glyph-name="Zacute" unicode="&#x179;" horiz-adv-x="1413" 
d="M49 0v150l1016 1134h-969v170h1237v-158l-1007 -1126h1056l-28 -170h-1305zM565 1595l346 285h265l-406 -285h-205z" />
    <glyph glyph-name="zacute" unicode="&#x17a;" horiz-adv-x="1118" 
d="M72 0v145l719 734h-680v157h929v-149l-710 -727h757l-30 -160h-985zM444 1233l283 328h236l-336 -328h-183z" />
    <glyph glyph-name="Zdotaccent" unicode="&#x17b;" horiz-adv-x="1413" 
d="M49 0v150l1016 1134h-969v170h1237v-158l-1007 -1126h1056l-28 -170h-1305zM803 1620h-195v233h195v-233z" />
    <glyph glyph-name="zdotaccent" unicode="&#x17c;" horiz-adv-x="1118" 
d="M72 0v145l719 734h-680v157h929v-149l-710 -727h757l-30 -160h-985zM653 1307h-194v233h194v-233z" />
    <glyph glyph-name="Zcaron" unicode="&#x17d;" horiz-adv-x="1413" 
d="M49 0v150l1016 1134h-969v170h1237v-158l-1007 -1126h1056l-28 -170h-1305zM291 1862h207l209 -187l206 187h203l-297 -283h-229z" />
    <glyph glyph-name="zcaron" unicode="&#x17e;" horiz-adv-x="1118" 
d="M72 0v145l719 734h-680v157h929v-149l-710 -727h757l-30 -160h-985zM670 1214h-197l-266 330h182l184 -225l179 225h184z" />
    <glyph glyph-name="uni018F" unicode="&#x18f;" horiz-adv-x="1626" 
d="M109 793h1189q-12 246 -150.5 385t-361.5 139q-327 0 -450 -252h-207q33 87 90 161t138.5 133t194.5 92.5t245 33.5q141 0 259.5 -40.5t200.5 -111t139 -166t84 -204t27 -226.5q0 -129 -28.5 -244t-86.5 -211t-141.5 -165.5t-199.5 -108t-254 -39.5q-319 -1 -507 198.5
t-188 530.5q0 41 7 95zM801 133q211 0 340.5 128.5t150.5 375.5h-973q2 -159 67.5 -275t172.5 -172.5t242 -56.5z" />
    <glyph glyph-name="florin" unicode="&#x192;" horiz-adv-x="1316" 
d="M102 -154l37 154q72 -35 158 -35q80 0 121 64.5t71 244.5l68 414h-213v152h238l20 118q11 71 25.5 126.5t43 119t67 105.5t100 70t139.5 28q135 0 199 -43l-35 -147q-75 30 -150 30q-86 0 -126 -67.5t-62 -200.5l-23 -139h267v-152h-293l-72 -436q-13 -85 -30 -148.5
t-45.5 -123.5t-67 -98t-95 -60.5t-129.5 -22.5q-131 0 -213 47z" />
    <glyph glyph-name="Ohorn" unicode="&#x1a0;" horiz-adv-x="1757" 
d="M1430 1642h180q14 -41 14 -116q0 -92 -46 -164.5t-138 -106.5q98 -103 150 -238t52 -286q0 -155 -52 -292.5t-147 -242t-241.5 -166t-324.5 -61.5q-229 0 -404 102t-266.5 275t-91.5 387q0 151 55 287.5t153 239.5t243.5 164t316.5 61q242 0 428 -121q139 27 139 160
q0 63 -20 118zM883 141q130 0 234.5 47t170.5 128t101.5 186t35.5 225q0 115 -36 219.5t-104 187t-175.5 131t-239.5 48.5q-124 0 -227 -46.5t-170 -125.5t-104 -183.5t-37 -220.5q0 -94 22.5 -181.5t68.5 -163t110.5 -131.5t154.5 -88t195 -32z" />
    <glyph glyph-name="ohorn" unicode="&#x1a1;" horiz-adv-x="1282" 
d="M1092 1227h180q14 -41 14 -117q0 -93 -47.5 -165.5t-140.5 -106.5q96 -140 96 -320q0 -109 -35.5 -206.5t-103.5 -174t-176.5 -121.5t-243.5 -45q-127 0 -232.5 45t-173 121t-104.5 174t-37 207q0 112 38.5 211t109 174t176.5 118.5t233 43.5q204 0 346 -113
q121 32 121 156q0 64 -20 119zM641 131q170 0 261 109.5t91 275.5q0 106 -40 193t-122.5 141.5t-193.5 54.5q-168 0 -258 -110.5t-90 -276.5q0 -102 39.5 -188.5t121.5 -142.5t191 -56z" />
    <glyph glyph-name="Uhorn" unicode="&#x1af;" horiz-adv-x="1667" 
d="M193 614v840h204v-825q0 -111 25.5 -197.5t67.5 -140t101 -88.5t120 -48.5t131 -13.5q103 0 180 26t134 82.5t85.5 151.5t28.5 228v825h98q154 21 154 162q0 61 -21 119h180q15 -43 15 -117q0 -101 -56 -177.5t-165 -103.5v-706q0 -662 -639 -662q-149 0 -266 37.5
t-202 114.5t-130 201.5t-45 291.5z" />
    <glyph glyph-name="uhorn" unicode="&#x1b0;" horiz-adv-x="1286" 
d="M166 393v643h194v-606q0 -62 13 -113t41 -92.5t77.5 -64.5t116.5 -23q167 0 242.5 102t75.5 328v469h88q170 16 170 164q0 61 -21 119h180q15 -44 15 -117q0 -105 -60 -182.5t-178 -101.5v-615q0 -203 2 -303h-188q-4 29 -8 176q-42 -99 -127 -152t-244 -53
q-84 0 -153.5 24t-123 73.5t-83 132t-29.5 192.5z" />
    <glyph glyph-name="uni01CD" unicode="&#x1cd;" horiz-adv-x="1572" 
d="M25 0l624 1454h250l651 -1454h-225l-195 440h-704l-188 -440h-213zM768 1307h-2q-57 -174 -277 -691h574q-258 582 -295 691zM362 1862h207l209 -187l207 187h203l-297 -283h-229z" />
    <glyph glyph-name="uni01CE" unicode="&#x1ce;" horiz-adv-x="1241" 
d="M346 735h-194q4 45 18 87t47 88t82 79t130 54.5t183 21.5q91 0 164.5 -14t123 -40t84.5 -59t53.5 -74t27 -81.5t8.5 -85.5v-455q0 -194 10 -256h-186q-5 21 -12 152q-91 -181 -391 -181q-105 0 -185.5 29.5t-126 79.5t-68 106.5t-22.5 118.5q0 338 539 338h252v55
q0 46 -12 82.5t-40 69t-83.5 50.5t-135.5 18q-71 0 -121.5 -14.5t-78.5 -43t-42 -56.5t-24 -69zM883 461v45h-248q-181 0 -265.5 -45t-84.5 -148q0 -82 62.5 -135t184.5 -53q100 0 171 27t109 76t54.5 105.5t16.5 127.5zM711 1214h-197l-266 330h182l184 -225l179 225h184z
" />
    <glyph glyph-name="uni01CF" unicode="&#x1cf;" horiz-adv-x="616" 
d="M205 0v1454h207v-1454h-207zM-106 1862h206l209 -187l207 187h203l-297 -283h-229z" />
    <glyph glyph-name="uni01D0" unicode="&#x1d0;" horiz-adv-x="526" 
d="M360 0h-194v1036h194v-1036zM360 1214h-196l-266 330h182l184 -225l178 225h185z" />
    <glyph glyph-name="uni01D1" unicode="&#x1d1;" horiz-adv-x="1757" 
d="M877 -31q-229 0 -404 102t-266.5 275t-91.5 387q0 151 55 287.5t153 239.5t243.5 164t316.5 61q170 0 314 -61t240.5 -164t150.5 -240t54 -289q0 -155 -52 -292.5t-147 -242t-241.5 -166t-324.5 -61.5zM883 141q130 0 234.5 47t170.5 128t101.5 186t35.5 225
q0 115 -36 219.5t-104 187t-175.5 131t-239.5 48.5q-124 0 -227 -46.5t-170 -125.5t-104 -183.5t-37 -220.5q0 -94 22.5 -181.5t68.5 -163t110.5 -131.5t154.5 -88t195 -32zM449 1886h206l209 -186l207 186h203l-297 -282h-229z" />
    <glyph glyph-name="uni01D2" unicode="&#x1d2;" horiz-adv-x="1282" 
d="M88 518q0 112 38.5 211t109 174t176.5 118.5t233 43.5q130 0 236 -46.5t173.5 -124.5t103.5 -175t36 -201q0 -109 -35.5 -206.5t-103.5 -174t-176.5 -121.5t-243.5 -45q-127 0 -232.5 45t-173 121t-104.5 174t-37 207zM641 131q170 0 261 109.5t91 275.5q0 106 -40 193
t-122.5 141.5t-193.5 54.5q-168 0 -258 -110.5t-90 -276.5q0 -102 39.5 -188.5t121.5 -142.5t191 -56zM739 1214h-196l-267 330h183l184 -225l178 225h185z" />
    <glyph glyph-name="uni01D3" unicode="&#x1d3;" horiz-adv-x="1667" 
d="M193 614v840h204v-825q0 -111 25.5 -197.5t67.5 -140t101 -88.5t120 -48.5t131 -13.5q103 0 180 26t134 82.5t85.5 151.5t28.5 228v825h205v-823q0 -662 -639 -662q-149 0 -266 37.5t-202 114.5t-130 201.5t-45 291.5zM420 1862h207l209 -187l206 187h203l-297 -283h-229
z" />
    <glyph glyph-name="uni01D4" unicode="&#x1d4;" horiz-adv-x="1286" 
d="M166 393v643h194v-606q0 -62 13 -113t41 -92.5t77.5 -64.5t116.5 -23q167 0 242.5 102t75.5 328v469h194v-733q0 -203 2 -303h-188q-4 29 -8 176q-42 -99 -127 -152t-244 -53q-84 0 -153.5 24t-123 73.5t-83 132t-29.5 192.5zM741 1214h-196l-266 330h182l184 -225
l178 225h185z" />
    <glyph glyph-name="uni01D5" unicode="&#x1d5;" horiz-adv-x="1667" 
d="M686 1589h-168v193h168v-193zM1149 1915h-631v133h631v-133zM1149 1589h-168v193h168v-193zM193 614v840h204v-825q0 -111 25.5 -197.5t67.5 -140t101 -88.5t120 -48.5t131 -13.5q103 0 180 26t134 82.5t85.5 151.5t28.5 228v825h205v-823q0 -662 -639 -662
q-149 0 -266 37.5t-202 114.5t-130 201.5t-45 291.5z" />
    <glyph glyph-name="uni01D6" unicode="&#x1d6;" horiz-adv-x="1286" 
d="M516 1174h-168v196h168v-196zM918 1489h-560v139h560v-139zM938 1174h-168v196h168v-196zM166 393v643h194v-606q0 -62 13 -113t41 -92.5t77.5 -64.5t116.5 -23q167 0 242.5 102t75.5 328v469h194v-733q0 -203 2 -303h-188q-4 29 -8 176q-42 -99 -127 -152t-244 -53
q-84 0 -153.5 24t-123 73.5t-83 132t-29.5 192.5z" />
    <glyph glyph-name="uni01D7" unicode="&#x1d7;" horiz-adv-x="1667" 
d="M518 1589v193h168v-193h-168zM915 1868h-190l291 246h233zM1149 1589h-168v193h168v-193zM193 614v840h204v-825q0 -111 25.5 -197.5t67.5 -140t101 -88.5t120 -48.5t131 -13.5q103 0 180 26t134 82.5t85.5 151.5t28.5 228v825h205v-823q0 -662 -639 -662
q-149 0 -266 37.5t-202 114.5t-130 201.5t-45 291.5z" />
    <glyph glyph-name="uni01D8" unicode="&#x1d8;" horiz-adv-x="1286" 
d="M348 1174v192h168v-192h-168zM711 1466h-179l236 275h221zM938 1174h-168v200h168v-200zM166 393v643h194v-606q0 -62 13 -113t41 -92.5t77.5 -64.5t116.5 -23q167 0 242.5 102t75.5 328v469h194v-733q0 -203 2 -303h-188q-4 29 -8 176q-42 -99 -127 -152t-244 -53
q-84 0 -153.5 24t-123 73.5t-83 132t-29.5 192.5z" />
    <glyph glyph-name="uni01D9" unicode="&#x1d9;" horiz-adv-x="1667" 
d="M686 1589h-168v193h168v-193zM483 2083h189l164 -146l163 146h183l-254 -234h-187zM1149 1589h-168v193h168v-193zM193 614v840h204v-825q0 -111 25.5 -197.5t67.5 -140t101 -88.5t120 -48.5t131 -13.5q103 0 180 26t134 82.5t85.5 151.5t28.5 228v825h205v-823
q0 -662 -639 -662q-149 0 -266 37.5t-202 114.5t-130 201.5t-45 291.5z" />
    <glyph glyph-name="uni01DA" unicode="&#x1da;" horiz-adv-x="1286" 
d="M522 1176h-162v184h162v-184zM737 1427h-186l-219 248h170l143 -159l143 159h168zM926 1176h-162v184h162v-184zM166 393v643h194v-606q0 -62 13 -113t41 -92.5t77.5 -64.5t116.5 -23q167 0 242.5 102t75.5 328v469h194v-733q0 -203 2 -303h-188q-4 29 -8 176
q-42 -99 -127 -152t-244 -53q-84 0 -153.5 24t-123 73.5t-83 132t-29.5 192.5z" />
    <glyph glyph-name="uni01DB" unicode="&#x1db;" horiz-adv-x="1667" 
d="M518 1589v193h168v-193h-168zM434 2114h236l288 -246h-196zM1149 1589h-168v193h168v-193zM193 614v840h204v-825q0 -111 25.5 -197.5t67.5 -140t101 -88.5t120 -48.5t131 -13.5q103 0 180 26t134 82.5t85.5 151.5t28.5 228v825h205v-823q0 -662 -639 -662
q-149 0 -266 37.5t-202 114.5t-130 201.5t-45 291.5z" />
    <glyph glyph-name="uni01DC" unicode="&#x1dc;" horiz-adv-x="1286" 
d="M348 1174v192h168v-192h-168zM580 1458l-281 275h221l236 -275h-176zM938 1174h-168v192h168v-192zM166 393v643h194v-606q0 -62 13 -113t41 -92.5t77.5 -64.5t116.5 -23q167 0 242.5 102t75.5 328v469h194v-733q0 -203 2 -303h-188q-4 29 -8 176q-42 -99 -127 -152
t-244 -53q-84 0 -153.5 24t-123 73.5t-83 132t-29.5 192.5z" />
    <glyph glyph-name="Gcaron" unicode="&#x1e6;" horiz-adv-x="1724" 
d="M889 623v174h670v-797h-158q-17 105 -17 215q-76 -123 -200 -184.5t-330 -61.5q-226 0 -394 94t-256.5 264t-88.5 396q0 160 53.5 299.5t152 242t245.5 161.5t325 59q126 0 231.5 -25t178.5 -66t129 -98.5t88 -118t49 -128.5h-213q-108 268 -465 268q-134 0 -240.5 -45
t-175 -124t-105 -184.5t-36.5 -228.5q0 -174 62.5 -307t189 -211t301.5 -78q228 0 351.5 113.5t123.5 327.5v43h-471zM444 1876h207l209 -186l207 186h203l-297 -283h-230z" />
    <glyph glyph-name="gcaron" unicode="&#x1e7;" horiz-adv-x="1331" 
d="M98 -127h199q27 -91 100 -145t221 -54q89 0 153.5 23t102.5 61t61 98.5t30.5 122.5t7.5 146v57q-50 -98 -142.5 -149t-246.5 -51q-217 0 -356.5 150t-139.5 374q0 122 42 227t112.5 177.5t165.5 113.5t200 41q85 0 152 -17.5t109 -46.5t66.5 -59.5t37.5 -64.5
q0 115 6 159h188q-2 -100 -2 -301v-600q0 -152 -27.5 -262t-90 -192t-172 -123t-267.5 -41q-84 0 -155.5 13.5t-121 35.5t-89 53.5t-64 62.5t-42 68t-25.5 65t-13 58zM631 145q164 0 255 99t91 282q0 180 -88 277.5t-248 97.5q-87 0 -156 -33t-111.5 -88t-64.5 -123
t-22 -143q0 -161 96.5 -265t247.5 -104zM764 1214h-197l-266 330h182l185 -225l178 225h184z" />
    <glyph glyph-name="uni0218" unicode="&#x218;" horiz-adv-x="1482" 
d="M1319 1090h-207q-11 37 -23.5 63.5t-42 60.5t-69.5 55.5t-108 36.5t-156 15q-161 0 -252.5 -55.5t-91.5 -161.5q0 -38 8.5 -66.5t33.5 -56.5t68 -49.5t113 -41.5t168 -36q153 -26 264 -63t176.5 -77t104 -93.5t51 -104t12.5 -117.5q0 -89 -36.5 -165t-110 -136
t-195.5 -94.5t-281 -34.5q-293 0 -456.5 122t-202.5 333h211q28 -91 80 -153t148.5 -100t234.5 -38q203 0 300 68t97 178q0 57 -18.5 98t-68 78.5t-140.5 66.5t-230 52q-160 27 -267.5 66t-166.5 92.5t-82.5 112.5t-23.5 138q0 125 74 217t199.5 138.5t285.5 46.5
q135 0 241.5 -27.5t170 -68.5t106 -97t60 -104t22.5 -98zM707 -152h172q0 -96 -30 -211t-81 -180h-164q103 196 103 391z" />
    <glyph glyph-name="uni0219" unicode="&#x219;" horiz-adv-x="1148" 
d="M1026 756h-197q-7 29 -19.5 52.5t-41.5 51.5t-86 44t-137 16q-69 0 -117.5 -13.5t-72.5 -36t-34 -45t-10 -47.5q0 -42 21.5 -68.5t85.5 -49t180 -37.5q114 -16 197 -40t133.5 -53t80 -67.5t40 -77t10.5 -88.5q0 -148 -118 -237t-357 -89q-225 0 -356 89.5t-158 252.5h196
q58 -194 330 -194q268 0 268 164q0 35 -12.5 60t-45.5 48t-96.5 40t-160.5 28q-131 16 -220.5 47t-133.5 73t-61 84.5t-17 96.5t22.5 105t71 97.5t137 74.5t207.5 28q103 0 185 -20.5t132.5 -52t85 -74t49.5 -82t19 -80.5zM510 -152h172q0 -96 -30 -211t-81 -180h-163
q102 194 102 391z" />
    <glyph glyph-name="uni021A" unicode="&#x21a;" horiz-adv-x="1355" 
d="M782 0h-207v1280h-555v174h1315v-174h-553v-1280zM594 -152h172q0 -96 -30 -211t-81 -180h-163q102 194 102 391z" />
    <glyph glyph-name="uni021B" unicode="&#x21b;" horiz-adv-x="759" 
d="M240 291v592h-207v153h207v334h194v-334h271v-153h-271v-568q0 -93 31 -132.5t113 -39.5q59 0 102 11v-144q-59 -20 -162 -20q-156 0 -217 71t-61 230zM344 -152h172q0 -96 -29.5 -211t-80.5 -180h-164q102 194 102 391z" />
    <glyph glyph-name="uni0237" unicode="&#x237;" horiz-adv-x="538" 
d="M-33 -481v157h21q105 0 147.5 59.5t42.5 186.5v1114h195v-1071q0 -69 -5.5 -122t-20 -106.5t-41.5 -91.5t-68 -68t-102 -45t-140 -15q-7 0 -17 1t-12 1z" />
    <glyph glyph-name="uni0251" unicode="&#x251;" horiz-adv-x="1331" 
d="M1178 0h-181q-10 36 -14 164q-107 -193 -393 -193q-221 0 -361.5 151t-140.5 388q0 128 44.5 235t118.5 176t168.5 106.5t196.5 37.5q249 0 357 -160v131h194v-764q0 -165 11 -272zM629 135q181 0 266.5 103.5t85.5 283.5q0 81 -19.5 148t-59 120.5t-106 83t-155.5 29.5
q-69 0 -127.5 -21t-99.5 -58t-69.5 -86.5t-42 -106t-13.5 -117.5q0 -98 38 -182.5t117 -140.5t185 -56z" />
    <glyph glyph-name="uni0259" unicode="&#x259;" horiz-adv-x="1230" 
d="M281 741h-195q18 49 44.5 93t70 87.5t98.5 74.5t132 50t167 19q108 0 198.5 -30.5t153 -82.5t106 -122t63.5 -148t20 -162q0 -155 -65 -279.5t-188.5 -197t-283.5 -72.5q-114 0 -206 32.5t-151.5 85.5t-100 124t-57.5 145.5t-17 153.5q0 31 2 51h870q-8 152 -104 248
t-250 96q-216 0 -307 -166zM938 424h-666q3 -41 13.5 -79t34.5 -79.5t59 -72t93.5 -50.5t131.5 -20q152 0 236 83t98 218z" />
    <glyph glyph-name="uni0261" unicode="&#x261;" horiz-adv-x="1331" 
d="M98 -127h199q27 -91 100 -145t221 -54q89 0 153.5 23t102.5 61t61 98.5t30.5 122.5t7.5 146v57q-50 -98 -142.5 -149t-246.5 -51q-217 0 -356.5 150t-139.5 374q0 122 42 227t112.5 177.5t165.5 113.5t200 41q85 0 152 -17.5t109 -46.5t66.5 -59.5t37.5 -64.5
q0 115 6 159h188q-2 -100 -2 -301v-600q0 -152 -27.5 -262t-90 -192t-172 -123t-267.5 -41q-84 0 -155.5 13.5t-121 35.5t-89 53.5t-64 62.5t-42 68t-25.5 65t-13 58zM631 145q164 0 255 99t91 282q0 180 -88 277.5t-248 97.5q-87 0 -156 -33t-111.5 -88t-64.5 -123
t-22 -143q0 -161 96.5 -265t247.5 -104z" />
    <glyph glyph-name="uni02BB" unicode="&#x2bb;" horiz-adv-x="720" 
d="M406 938h-201q10 129 56.5 310.5t94.5 291.5h160q-41 -133 -71 -295t-39 -307z" />
    <glyph glyph-name="uni02BC" unicode="&#x2bc;" horiz-adv-x="720" 
d="M315 1540h201q-10 -128 -56 -310.5t-93 -293.5h-162q95 309 110 604z" />
    <glyph glyph-name="uni02BE" unicode="&#x2be;" horiz-adv-x="661" 
d="M207 1120v117q52 3 82 30t30 76q0 45 -32 70.5t-82 32.5v115q106 0 179 -61t73 -157q0 -99 -73 -161t-177 -62z" />
    <glyph glyph-name="uni02BF" unicode="&#x2bf;" horiz-adv-x="661" 
d="M457 1559v-117q-53 -3 -84 -30.5t-31 -76.5q0 -46 32.5 -71.5t82.5 -30.5v-117q-107 0 -179.5 60.5t-72.5 156.5q0 100 73 163t179 63z" />
    <glyph glyph-name="circumflex" unicode="&#x2c6;" 
d="M45 1229l266 330h197l266 -330h-182l-184 225l-179 -225h-184z" />
    <glyph glyph-name="caron" unicode="&#x2c7;" 
d="M508 1214h-197l-266 330h182l185 -225l178 225h184z" />
    <glyph glyph-name="uni02C8" unicode="&#x2c8;" horiz-adv-x="581" 
d="M377 1141h-172v393h172v-393z" />
    <glyph glyph-name="uni02C9" unicode="&#x2c9;" horiz-adv-x="1028" 
d="M205 1323v150h616v-150h-616z" />
    <glyph glyph-name="uni02CA" unicode="&#x2ca;" horiz-adv-x="911" 
d="M215 1233l283 328h235l-336 -328h-182z" />
    <glyph glyph-name="uni02CB" unicode="&#x2cb;" horiz-adv-x="913" 
d="M514 1233l-340 328h236l288 -328h-184z" />
    <glyph glyph-name="uni02CC" unicode="&#x2cc;" horiz-adv-x="581" 
d="M377 -498h-172v394h172v-394z" />
    <glyph glyph-name="breve" unicode="&#x2d8;" 
d="M600 1536h141q-18 -137 -103 -223t-230 -86q-82 0 -145.5 26t-102 70.5t-59 98t-25.5 114.5h143q16 -76 63 -121t126 -45q48 0 83.5 14t56.5 40t32 51.5t20 60.5z" />
    <glyph glyph-name="dotaccent" unicode="&#x2d9;" 
d="M506 1307h-195v233h195v-233z" />
    <glyph glyph-name="ring" unicode="&#x2da;" 
d="M178 1382q0 92 62 154.5t170 62.5q107 0 168 -60t61 -153t-62 -154t-167 -61q-107 0 -169.5 60t-62.5 151zM410 1272q54 0 83 32.5t29 79.5t-28.5 82t-83.5 35q-56 0 -84.5 -33t-28.5 -79q0 -49 28.5 -83t84.5 -34z" />
    <glyph glyph-name="ogonek" unicode="&#x2db;" 
d="M694 -315v-144q-62 -33 -172 -33q-122 0 -189 63.5t-67 170.5q0 82 46.5 161t117.5 134l143 -37q-133 -109 -133 -219q0 -58 35.5 -87.5t95.5 -29.5q65 0 123 21z" />
    <glyph glyph-name="tilde" unicode="&#x2dc;" 
d="M195 1251h-132v52q0 213 179 213q57 0 118 -29t113.5 -57.5t87.5 -28.5q33 0 49.5 21t16.5 75v27h129v-47q0 -123 -46.5 -175.5t-131.5 -52.5q-45 0 -93 18.5t-81.5 41t-73.5 41t-72 18.5q-63 0 -63 -80v-37z" />
    <glyph glyph-name="hungarumlaut" unicode="&#x2dd;" 
d="M279 1198h-156l235 342h187zM657 1198h-155l235 342h187z" />
    <glyph glyph-name="uni0300" unicode="&#x300;" horiz-adv-x="0" 
d="M63 1233l-339 328h235l289 -328h-185z" />
    <glyph glyph-name="uni0301" unicode="&#x301;" horiz-adv-x="0" 
d="M-248 1233l283 328h235l-336 -328h-182z" />
    <glyph glyph-name="uni0302" unicode="&#x302;" horiz-adv-x="0" 
d="M-365 1229l267 330h196l267 -330h-183l-184 225l-178 -225h-185z" />
    <glyph glyph-name="uni0303" unicode="&#x303;" horiz-adv-x="0" 
d="M-215 1251h-131v52q0 213 178 213q57 0 118 -29t114 -57.5t88 -28.5q33 0 49 21t16 75v27h129v-47q0 -123 -46.5 -175.5t-131.5 -52.5q-45 0 -93 18.5t-81.5 41t-73.5 41t-72 18.5q-63 0 -63 -80v-37z" />
    <glyph glyph-name="uni0304" unicode="&#x304;" horiz-adv-x="0" 
d="M-309 1323v150h616v-150h-616z" />
    <glyph glyph-name="uni0306" unicode="&#x306;" horiz-adv-x="0" 
d="M190 1536h142q-18 -137 -103.5 -223t-230.5 -86q-82 0 -145.5 26t-102 70.5t-59 98t-25.5 114.5h144q16 -76 62.5 -121t125.5 -45q48 0 83.5 14t56.5 40t32 51.5t20 60.5z" />
    <glyph glyph-name="uni0307" unicode="&#x307;" horiz-adv-x="0" 
d="M96 1307h-194v233h194v-233z" />
    <glyph glyph-name="uni0308" unicode="&#x308;" horiz-adv-x="0" 
d="M-119 1307h-178v233h178v-233zM297 1307h-178v233h178v-233z" />
    <glyph glyph-name="uni0309" unicode="&#x309;" horiz-adv-x="0" 
d="M-178 1419l-41 109q89 59 209 59q102 0 157.5 -50t55.5 -132q0 -44 -21 -87.5t-42 -66.5t-54 -53h-172q64 55 94.5 96.5t30.5 81.5q0 35 -21.5 57.5t-66.5 22.5q-73 0 -129 -37z" />
    <glyph glyph-name="uni030A" unicode="&#x30a;" horiz-adv-x="0" 
d="M-231 1382q0 92 61.5 154.5t169.5 62.5q107 0 168 -60t61 -153t-62 -154t-167 -61q-107 0 -169 60t-62 151zM0 1272q54 0 83.5 32.5t29.5 79.5t-29 82t-84 35q-56 0 -84.5 -33t-28.5 -79q0 -49 28.5 -83t84.5 -34z" />
    <glyph glyph-name="uni030B" unicode="&#x30b;" horiz-adv-x="0" 
d="M-233 1198h-156l235 342h187zM145 1198h-155l235 342h187z" />
    <glyph glyph-name="uni030C" unicode="&#x30c;" horiz-adv-x="0" 
d="M98 1214h-196l-267 330h183l184 -225l178 225h185z" />
    <glyph glyph-name="uni031B" unicode="&#x31b;" horiz-adv-x="0" 
d="M6 1327h180q15 -43 15 -117q0 -116 -73.5 -197.5t-215.5 -94.5l-55 126q170 16 170 164q0 61 -21 119z" />
    <glyph glyph-name="uni0323" unicode="&#x323;" horiz-adv-x="0" 
d="M98 -401h-196v239h196v-239z" />
    <glyph glyph-name="uni0324" unicode="&#x324;" horiz-adv-x="0" 
d="M-119 -377h-178v234h178v-234zM297 -377h-178v234h178v-234z" />
    <glyph glyph-name="uni0326" unicode="&#x326;" horiz-adv-x="0" 
d="M-35 -152h172q0 -96 -29.5 -211t-80.5 -180h-164q102 194 102 391z" />
    <glyph glyph-name="uni0327" unicode="&#x327;" horiz-adv-x="0" 
d="M-219 -492v121q81 -18 149 -18q71 0 108.5 20.5t37.5 57.5q0 29 -20 48t-59 28t-80.5 12.5t-98.5 3.5v57l155 182l136 -20l-97 -115q30 -3 59.5 -10.5t61 -22t55 -35t39 -52t15.5 -70.5q0 -61 -27.5 -104.5t-73.5 -65t-92 -30.5t-96 -9q-99 0 -172 22z" />
    <glyph glyph-name="uni0328" unicode="&#x328;" horiz-adv-x="0" 
d="M233 -315v-144q-62 -33 -172 -33q-122 0 -189 63.5t-67 170.5q0 82 46.5 161t117.5 134l144 -37q-133 -109 -133 -219q0 -58 35.5 -87.5t95.5 -29.5q63 0 122 21z" />
    <glyph glyph-name="uni032E" unicode="&#x32e;" horiz-adv-x="0" 
d="M190 -135h142q-18 -137 -103.5 -223t-230.5 -86q-82 0 -145.5 26t-102 70.5t-59 98t-25.5 114.5h144q16 -76 62.5 -121t125.5 -45q48 0 83.5 14t56.5 40t32 51.5t20 60.5z" />
    <glyph glyph-name="uni0331" unicode="&#x331;" horiz-adv-x="0" 
d="M-309 -346v149h616v-149h-616z" />
    <glyph glyph-name="pi" unicode="&#x3c0;" horiz-adv-x="1232" 
d="M180 0v883q-153 0 -188 -6v145q60 14 338 14h878v-153h-172v-883h-196v883h-471v-883h-189z" />
    <glyph glyph-name="uni1E0C" unicode="&#x1e0c;" horiz-adv-x="1660" 
d="M799 0h-594v1454h598q173 0 314.5 -54t234.5 -148.5t143.5 -222.5t50.5 -277q0 -228 -99.5 -400.5t-268 -262t-379.5 -89.5zM412 1286v-1116h346q141 0 251 42.5t179.5 120t105 181.5t35.5 231q0 250 -150 394.5t-405 146.5h-362zM852 -401h-197v239h197v-239z" />
    <glyph glyph-name="uni1E0D" unicode="&#x1e0d;" horiz-adv-x="1333" 
d="M1169 0h-188q-8 57 -8 158q-23 -39 -49.5 -67.5t-70 -58t-109.5 -45.5t-152 -16q-225 0 -364.5 151t-139.5 388q0 124 44.5 229.5t118.5 176t169 110t196 39.5q256 0 357 -160v635h194v-1239q0 -201 2 -301zM633 135q177 0 262.5 103.5t85.5 283.5q0 183 -78.5 282
t-263.5 99q-85 0 -153.5 -33t-110.5 -88t-64 -123.5t-22 -144.5q0 -98 37.5 -182.5t117.5 -140.5t189 -56zM764 -401h-197v239h197v-239z" />
    <glyph glyph-name="uni1E0E" unicode="&#x1e0e;" horiz-adv-x="1660" 
d="M799 0h-594v1454h598q173 0 314.5 -54t234.5 -148.5t143.5 -222.5t50.5 -277q0 -228 -99.5 -400.5t-268 -262t-379.5 -89.5zM412 1286v-1116h346q141 0 251 42.5t179.5 120t105 181.5t35.5 231q0 250 -150 394.5t-405 146.5h-362zM459 -346v149h616v-149h-616z" />
    <glyph glyph-name="uni1E0F" unicode="&#x1e0f;" horiz-adv-x="1333" 
d="M1169 0h-188q-8 57 -8 158q-23 -39 -49.5 -67.5t-70 -58t-109.5 -45.5t-152 -16q-225 0 -364.5 151t-139.5 388q0 124 44.5 229.5t118.5 176t169 110t196 39.5q256 0 357 -160v635h194v-1239q0 -201 2 -301zM633 135q177 0 262.5 103.5t85.5 283.5q0 183 -78.5 282
t-263.5 99q-85 0 -153.5 -33t-110.5 -88t-64 -123.5t-22 -144.5q0 -98 37.5 -182.5t117.5 -140.5t189 -56zM356 -346v149h617v-149h-617z" />
    <glyph glyph-name="uni1E20" unicode="&#x1e20;" horiz-adv-x="1724" 
d="M889 623v174h670v-797h-158q-17 105 -17 215q-76 -123 -200 -184.5t-330 -61.5q-226 0 -394 94t-256.5 264t-88.5 396q0 160 53.5 299.5t152 242t245.5 161.5t325 59q126 0 231.5 -25t178.5 -66t129 -98.5t88 -118t49 -128.5h-213q-108 268 -465 268q-134 0 -240.5 -45
t-175 -124t-105 -184.5t-36.5 -228.5q0 -174 62.5 -307t189 -211t301.5 -78q228 0 351.5 113.5t123.5 327.5v43h-471zM539 1669v148h659v-148h-659z" />
    <glyph glyph-name="uni1E21" unicode="&#x1e21;" horiz-adv-x="1331" 
d="M98 -127h199q27 -91 100 -145t221 -54q89 0 153.5 23t102.5 61t61 98.5t30.5 122.5t7.5 146v57q-50 -98 -142.5 -149t-246.5 -51q-217 0 -356.5 150t-139.5 374q0 122 42 227t112.5 177.5t165.5 113.5t200 41q85 0 152 -17.5t109 -46.5t66.5 -59.5t37.5 -64.5
q0 115 6 159h188q-2 -100 -2 -301v-600q0 -152 -27.5 -262t-90 -192t-172 -123t-267.5 -41q-84 0 -155.5 13.5t-121 35.5t-89 53.5t-64 62.5t-42 68t-25.5 65t-13 58zM631 145q164 0 255 99t91 282q0 180 -88 277.5t-248 97.5q-87 0 -156 -33t-111.5 -88t-64.5 -123
t-22 -143q0 -161 96.5 -265t247.5 -104zM356 1323v150h617v-150h-617z" />
    <glyph glyph-name="uni1E24" unicode="&#x1e24;" horiz-adv-x="1697" 
d="M412 0h-207v1454h207v-588h874v588h207v-1454h-207v692h-874v-692zM946 -401h-196v239h196v-239z" />
    <glyph glyph-name="uni1E25" unicode="&#x1e25;" horiz-adv-x="1302" 
d="M166 0v1540h194v-690q105 215 383 215q182 0 288 -112t106 -326v-627h-197v596q0 305 -256 305q-157 0 -240.5 -109.5t-83.5 -281.5v-510h-194zM750 -401h-197v239h197v-239z" />
    <glyph glyph-name="uni1E2A" unicode="&#x1e2a;" horiz-adv-x="1697" 
d="M412 0h-207v1454h207v-588h874v588h207v-1454h-207v692h-874v-692zM1038 -135h142q-18 -137 -103.5 -223t-230.5 -86q-82 0 -145.5 26t-102 70.5t-59 98t-25.5 114.5h143q16 -76 63 -121t126 -45q48 0 83.5 14t56.5 40t32 51.5t20 60.5z" />
    <glyph glyph-name="uni1E2B" unicode="&#x1e2b;" horiz-adv-x="1302" 
d="M166 0v1540h194v-690q105 215 383 215q182 0 288 -112t106 -326v-627h-197v596q0 305 -256 305q-157 0 -240.5 -109.5t-83.5 -281.5v-510h-194zM842 -135h141q-18 -137 -103.5 -223t-230.5 -86q-82 0 -145.5 26t-102 70.5t-59 98t-25.5 114.5h144q16 -76 62.5 -121
t125.5 -45q48 0 83.5 14t56.5 40t32.5 51.5t20.5 60.5z" />
    <glyph glyph-name="uni1E36" unicode="&#x1e36;" horiz-adv-x="1316" 
d="M410 174h876l-31 -174h-1050v1454h205v-1280zM854 -401h-197v239h197v-239z" />
    <glyph glyph-name="uni1E37" unicode="&#x1e37;" horiz-adv-x="526" 
d="M360 0h-194v1540h194v-1540zM360 -401h-196v239h196v-239z" />
    <glyph glyph-name="uni1E38" unicode="&#x1e38;" horiz-adv-x="1316" 
d="M410 174h876l-31 -174h-1050v1454h205v-1280zM-12 1640v148h659v-148h-659zM854 -401h-197v239h197v-239z" />
    <glyph glyph-name="uni1E39" unicode="&#x1e39;" horiz-adv-x="526" 
d="M360 0h-194v1540h194v-1540zM-47 1677v150h616v-150h-616zM360 -401h-196v239h196v-239z" />
    <glyph glyph-name="uni1E3A" unicode="&#x1e3a;" horiz-adv-x="1316" 
d="M410 174h876l-31 -174h-1050v1454h205v-1280zM432 -346v149h617v-149h-617z" />
    <glyph glyph-name="uni1E3B" unicode="&#x1e3b;" horiz-adv-x="526" 
d="M360 0h-194v1540h194v-1540zM-47 -346v149h616v-149h-616z" />
    <glyph glyph-name="uni1E42" unicode="&#x1e42;" horiz-adv-x="1998" 
d="M205 0v1454h295q432 -1021 491 -1206h2q30 79 112.5 276t201.5 478t190 452h297v-1454h-201v627q0 478 11 684h-2q-25 -77 -88.5 -237t-123 -303.5t-165 -395.5t-156.5 -375h-178q-59 154 -178 451t-210 528.5t-126 331.5h-2q20 -280 20 -721v-590h-190zM1079 -401h-196
v239h196v-239z" />
    <glyph glyph-name="uni1E43" unicode="&#x1e43;" horiz-adv-x="1904" 
d="M358 0h-192v768q0 178 -2 268h188q6 -64 6 -155q45 79 127 131.5t207 52.5q240 0 320 -199q24 39 51 70t69.5 62.5t102.5 49t133 17.5q79 0 144 -24t117 -73t81 -132.5t29 -194.5v-641h-195v633q0 51 -9.5 94.5t-32.5 85t-69 66t-112 24.5q-126 0 -199 -85.5t-73 -250.5
v-567h-193v641q0 40 -5.5 75.5t-21.5 70.5t-40 60t-64.5 40.5t-93.5 15.5q-139 0 -206 -95.5t-67 -254.5v-553zM1051 -401h-197v239h197v-239z" />
    <glyph glyph-name="uni1E44" unicode="&#x1e44;" horiz-adv-x="1720" 
d="M397 0h-192v1454h246q124 -173 341.5 -462t359 -481.5t177.5 -258.5h4q-12 161 -12 655v547h192v-1454h-231q-203 272 -512 701t-379 544h-4q10 -188 10 -651v-594zM958 1620h-194v233h194v-233z" />
    <glyph glyph-name="uni1E45" unicode="&#x1e45;" horiz-adv-x="1302" 
d="M360 0h-194v774q0 184 -2 262h188q8 -70 8 -192q19 41 47.5 77t73 70t110 54t144.5 20q187 0 294.5 -112t107.5 -322v-631h-197v596q0 305 -258 305q-157 0 -239.5 -109t-82.5 -294v-498zM754 1307h-195v233h195v-233z" />
    <glyph glyph-name="uni1E46" unicode="&#x1e46;" horiz-adv-x="1720" 
d="M397 0h-192v1454h246q124 -173 341.5 -462t359 -481.5t177.5 -258.5h4q-12 161 -12 655v547h192v-1454h-231q-203 272 -512 701t-379 544h-4q10 -188 10 -651v-594zM958 -401h-196v239h196v-239z" />
    <glyph glyph-name="uni1E47" unicode="&#x1e47;" horiz-adv-x="1302" 
d="M360 0h-194v774q0 184 -2 262h188q8 -70 8 -192q19 41 47.5 77t73 70t110 54t144.5 20q187 0 294.5 -112t107.5 -322v-631h-197v596q0 305 -258 305q-157 0 -239.5 -109t-82.5 -294v-498zM750 -401h-197v239h197v-239z" />
    <glyph glyph-name="uni1E48" unicode="&#x1e48;" horiz-adv-x="1720" 
d="M397 0h-192v1454h246q124 -173 341.5 -462t359 -481.5t177.5 -258.5h4q-12 161 -12 655v547h192v-1454h-231q-203 272 -512 701t-379 544h-4q10 -188 10 -651v-594zM551 -346v149h616v-149h-616z" />
    <glyph glyph-name="uni1E49" unicode="&#x1e49;" horiz-adv-x="1302" 
d="M360 0h-194v774q0 184 -2 262h188q8 -70 8 -192q19 41 47.5 77t73 70t110 54t144.5 20q187 0 294.5 -112t107.5 -322v-631h-197v596q0 305 -258 305q-157 0 -239.5 -109t-82.5 -294v-498zM342 -346v149h616v-149h-616z" />
    <glyph glyph-name="uni1E5A" unicode="&#x1e5a;" horiz-adv-x="1533" 
d="M207 0v1454h694q228 0 363 -102t135 -291q0 -134 -67 -223.5t-199 -124.5q227 -64 227 -355v-63q0 -234 16 -295h-209q-7 18 -11 40.5t-5.5 59t-2 55t0 73.5t0.5 69v47q0 161 -74 222t-266 61h-399v-627h-203zM410 1286v-491h438q171 0 255.5 62t84.5 192q0 237 -332 237
h-446zM864 -401h-196v239h196v-239z" />
    <glyph glyph-name="uni1E5B" unicode="&#x1e5b;" horiz-adv-x="817" 
d="M360 0h-194v754q0 188 -2 282h190q6 -93 6 -233q52 123 161.5 193t258.5 69v-186q-187 2 -303.5 -112.5t-116.5 -334.5v-432zM362 -401h-196v239h196v-239z" />
    <glyph glyph-name="uni1E5C" unicode="&#x1e5c;" horiz-adv-x="1533" 
d="M207 0v1454h694q228 0 363 -102t135 -291q0 -134 -67 -223.5t-199 -124.5q227 -64 227 -355v-63q0 -234 16 -295h-209q-7 18 -11 40.5t-5.5 59t-2 55t0 73.5t0.5 69v47q0 161 -74 222t-266 61h-399v-627h-203zM410 1286v-491h438q171 0 255.5 62t84.5 192q0 237 -332 237
h-446zM434 1638v148h660v-148h-660zM862 -401h-196v239h196v-239z" />
    <glyph glyph-name="uni1E5D" unicode="&#x1e5d;" horiz-adv-x="817" 
d="M360 0h-194v754q0 188 -2 282h190q6 -93 6 -233q52 123 161.5 193t258.5 69v-186q-187 2 -303.5 -112.5t-116.5 -334.5v-432zM154 1323v150h616v-150h-616zM362 -401h-196v239h196v-239z" />
    <glyph glyph-name="uni1E5E" unicode="&#x1e5e;" horiz-adv-x="1533" 
d="M207 0v1454h694q228 0 363 -102t135 -291q0 -134 -67 -223.5t-199 -124.5q227 -64 227 -355v-63q0 -234 16 -295h-209q-7 18 -11 40.5t-5.5 59t-2 55t0 73.5t0.5 69v47q0 161 -74 222t-266 61h-399v-627h-203zM410 1286v-491h438q171 0 255.5 62t84.5 192q0 237 -332 237
h-446zM463 -346v149h616v-149h-616z" />
    <glyph glyph-name="uni1E5F" unicode="&#x1e5f;" horiz-adv-x="817" 
d="M360 0h-194v754q0 188 -2 282h190q6 -93 6 -233q52 123 161.5 193t258.5 69v-186q-187 2 -303.5 -112.5t-116.5 -334.5v-432zM-31 -346v149h617v-149h-617z" />
    <glyph glyph-name="uni1E60" unicode="&#x1e60;" horiz-adv-x="1482" 
d="M1319 1090h-207q-11 37 -23.5 63.5t-42 60.5t-69.5 55.5t-108 36.5t-156 15q-161 0 -252.5 -55.5t-91.5 -161.5q0 -38 8.5 -66.5t33.5 -56.5t68 -49.5t113 -41.5t168 -36q153 -26 264 -63t176.5 -77t104 -93.5t51 -104t12.5 -117.5q0 -89 -36.5 -165t-110 -136
t-195.5 -94.5t-281 -34.5q-293 0 -456.5 122t-202.5 333h211q28 -91 80 -153t148.5 -100t234.5 -38q203 0 300 68t97 178q0 57 -18.5 98t-68 78.5t-140.5 66.5t-230 52q-160 27 -267.5 66t-166.5 92.5t-82.5 112.5t-23.5 138q0 125 74 217t199.5 138.5t285.5 46.5
q135 0 241.5 -27.5t170 -68.5t106 -97t60 -104t22.5 -98zM840 1620h-195v233h195v-233z" />
    <glyph glyph-name="uni1E61" unicode="&#x1e61;" horiz-adv-x="1148" 
d="M1026 756h-197q-7 29 -19.5 52.5t-41.5 51.5t-86 44t-137 16q-69 0 -117.5 -13.5t-72.5 -36t-34 -45t-10 -47.5q0 -42 21.5 -68.5t85.5 -49t180 -37.5q114 -16 197 -40t133.5 -53t80 -67.5t40 -77t10.5 -88.5q0 -148 -118 -237t-357 -89q-225 0 -356 89.5t-158 252.5h196
q58 -194 330 -194q268 0 268 164q0 35 -12.5 60t-45.5 48t-96.5 40t-160.5 28q-131 16 -220.5 47t-133.5 73t-61 84.5t-17 96.5t22.5 105t71 97.5t137 74.5t207.5 28q103 0 185 -20.5t132.5 -52t85 -74t49.5 -82t19 -80.5zM670 1307h-195v233h195v-233z" />
    <glyph glyph-name="uni1E62" unicode="&#x1e62;" horiz-adv-x="1482" 
d="M1319 1090h-207q-11 37 -23.5 63.5t-42 60.5t-69.5 55.5t-108 36.5t-156 15q-161 0 -252.5 -55.5t-91.5 -161.5q0 -38 8.5 -66.5t33.5 -56.5t68 -49.5t113 -41.5t168 -36q153 -26 264 -63t176.5 -77t104 -93.5t51 -104t12.5 -117.5q0 -89 -36.5 -165t-110 -136
t-195.5 -94.5t-281 -34.5q-293 0 -456.5 122t-202.5 333h211q28 -91 80 -153t148.5 -100t234.5 -38q203 0 300 68t97 178q0 57 -18.5 98t-68 78.5t-140.5 66.5t-230 52q-160 27 -267.5 66t-166.5 92.5t-82.5 112.5t-23.5 138q0 125 74 217t199.5 138.5t285.5 46.5
q135 0 241.5 -27.5t170 -68.5t106 -97t60 -104t22.5 -98zM840 -401h-197v239h197v-239z" />
    <glyph glyph-name="uni1E63" unicode="&#x1e63;" horiz-adv-x="1148" 
d="M1026 756h-197q-7 29 -19.5 52.5t-41.5 51.5t-86 44t-137 16q-69 0 -117.5 -13.5t-72.5 -36t-34 -45t-10 -47.5q0 -42 21.5 -68.5t85.5 -49t180 -37.5q114 -16 197 -40t133.5 -53t80 -67.5t40 -77t10.5 -88.5q0 -148 -118 -237t-357 -89q-225 0 -356 89.5t-158 252.5h196
q58 -194 330 -194q268 0 268 164q0 35 -12.5 60t-45.5 48t-96.5 40t-160.5 28q-131 16 -220.5 47t-133.5 73t-61 84.5t-17 96.5t22.5 105t71 97.5t137 74.5t207.5 28q103 0 185 -20.5t132.5 -52t85 -74t49.5 -82t19 -80.5zM672 -401h-197v239h197v-239z" />
    <glyph glyph-name="uni1E6C" unicode="&#x1e6c;" horiz-adv-x="1355" 
d="M782 0h-207v1280h-555v174h1315v-174h-553v-1280zM774 -401h-196v239h196v-239z" />
    <glyph glyph-name="uni1E6D" unicode="&#x1e6d;" horiz-adv-x="759" 
d="M240 291v592h-207v153h207v334h194v-334h271v-153h-271v-568q0 -93 31 -132.5t113 -39.5q59 0 102 11v-144q-59 -20 -162 -20q-156 0 -217 71t-61 230zM512 -401h-197v239h197v-239z" />
    <glyph glyph-name="uni1E6E" unicode="&#x1e6e;" horiz-adv-x="1355" 
d="M782 0h-207v1280h-555v174h1315v-174h-553v-1280zM367 -346v149h616v-149h-616z" />
    <glyph glyph-name="uni1E6F" unicode="&#x1e6f;" horiz-adv-x="759" 
d="M240 291v592h-207v153h207v334h194v-334h271v-153h-271v-568q0 -93 31 -132.5t113 -39.5q59 0 102 11v-144q-59 -20 -162 -20q-156 0 -217 71t-61 230zM111 -346v149h616v-149h-616z" />
    <glyph glyph-name="Wgrave" unicode="&#x1e80;" horiz-adv-x="2217" 
d="M715 0h-219l-453 1454h217q329 -1075 358 -1255h3q39 197 385 1255h206q343 -1096 373 -1251h4q13 62 42.5 168.5t84 281.5t82.5 264t99 310t73 227h209l-483 -1454h-226q-335 1063 -372 1235h-2q-35 -174 -381 -1235zM604 1880h273l350 -285h-201z" />
    <glyph glyph-name="wgrave" unicode="&#x1e81;" horiz-adv-x="1746" 
d="M381 0l-342 1036h203q228 -734 256 -862h2q37 146 284 862h187q253 -735 278 -850h2q54 218 262 850h193l-358 -1036h-201q-36 106 -112 325.5t-112.5 327.5t-52.5 162h-2q-60 -216 -278 -815h-209zM799 1233l-340 328h235l289 -328h-184z" />
    <glyph glyph-name="Wacute" unicode="&#x1e82;" horiz-adv-x="2217" 
d="M715 0h-219l-453 1454h217q329 -1075 358 -1255h3q39 197 385 1255h206q343 -1096 373 -1251h4q13 62 42.5 168.5t84 281.5t82.5 264t99 310t73 227h209l-483 -1454h-226q-335 1063 -372 1235h-2q-35 -174 -381 -1235zM985 1595l346 285h264l-405 -285h-205z" />
    <glyph glyph-name="wacute" unicode="&#x1e83;" horiz-adv-x="1746" 
d="M381 0l-342 1036h203q228 -734 256 -862h2q37 146 284 862h187q253 -735 278 -850h2q54 218 262 850h193l-358 -1036h-201q-36 106 -112 325.5t-112.5 327.5t-52.5 162h-2q-60 -216 -278 -815h-209zM768 1233l283 328h235l-336 -328h-182z" />
    <glyph glyph-name="Wdieresis" unicode="&#x1e84;" horiz-adv-x="2217" 
d="M975 1614h-178v233h178v-233zM1421 1614h-178v233h178v-233zM715 0h-219l-453 1454h217q329 -1075 358 -1255h3q39 197 385 1255h206q343 -1096 373 -1251h4q13 62 42.5 168.5t84 281.5t82.5 264t99 310t73 227h209l-483 -1454h-226q-335 1063 -372 1235h-2
q-35 -174 -381 -1235z" />
    <glyph glyph-name="wdieresis" unicode="&#x1e85;" horiz-adv-x="1746" 
d="M754 1307h-179v233h179v-233zM1169 1307h-178v233h178v-233zM381 0l-342 1036h203q228 -734 256 -862h2q37 146 284 862h187q253 -735 278 -850h2q54 218 262 850h193l-358 -1036h-201q-36 106 -112 325.5t-112.5 327.5t-52.5 162h-2q-60 -216 -278 -815h-209z" />
    <glyph glyph-name="uni1E8E" unicode="&#x1e8e;" horiz-adv-x="1370" 
d="M788 0h-204v553q0 19 -15 37l-610 864h246q43 -63 174.5 -252t207.5 -302t107 -167q65 111 488 721h227l-610 -868q-11 -22 -11 -35v-551zM782 1608h-194v233h194v-233z" />
    <glyph glyph-name="uni1E8F" unicode="&#x1e8f;" horiz-adv-x="1191" 
d="M109 -471v170q52 -8 112 -8q103 0 160 53t129 209l-479 1083h213q304 -699 370 -886h4q174 480 340 886h203l-407 -983q-49 -121 -83 -195.5t-72.5 -140.5t-70.5 -100t-76.5 -59t-92 -33t-115.5 -8q-82 0 -135 12zM692 1307h-194v233h194v-233z" />
    <glyph glyph-name="uni1E92" unicode="&#x1e92;" horiz-adv-x="1413" 
d="M49 0v150l1016 1134h-969v170h1237v-158l-1007 -1126h1056l-28 -170h-1305zM803 -401h-197v239h197v-239z" />
    <glyph glyph-name="uni1E93" unicode="&#x1e93;" horiz-adv-x="1118" 
d="M72 0v145l719 734h-680v157h929v-149l-710 -727h757l-30 -160h-985zM670 -401h-197v239h197v-239z" />
    <glyph glyph-name="uni1E97" unicode="&#x1e97;" horiz-adv-x="759" 
d="M215 1470h-178v234h178v-234zM631 1470h-178v234h178v-234zM240 291v592h-207v153h207v334h194v-334h271v-153h-271v-568q0 -93 31 -132.5t113 -39.5q59 0 102 11v-144q-59 -20 -162 -20q-156 0 -217 71t-61 230z" />
    <glyph glyph-name="uni1E9E" unicode="&#x1e9e;" horiz-adv-x="1572" 
d="M209 0v1044q0 113 42 198.5t120 138t182.5 78.5t234.5 26q138 0 247 -27.5t174 -69.5t107 -98t57.5 -106.5t15.5 -100.5q0 -38 -5 -67l-417 -195v-4l174 -76q191 -85 265.5 -176t74.5 -221q0 -175 -129.5 -274t-358.5 -99q-139 0 -250.5 37t-179.5 101v208
q78 -87 194.5 -138.5t235.5 -51.5q140 0 214.5 54.5t74.5 148.5q0 76 -54 134.5t-198 121.5l-270 121q-41 18 -56.5 52t-1.5 69.5t54 56.5l426 209q0 91 -102 162t-289 71q-193 0 -286 -74t-93 -260v-993h-203z" />
    <glyph glyph-name="uni1EA0" unicode="&#x1ea0;" horiz-adv-x="1572" 
d="M25 0l624 1454h250l651 -1454h-225l-195 440h-704l-188 -440h-213zM768 1307h-2q-57 -174 -277 -691h574q-258 582 -295 691zM877 -401h-197v239h197v-239z" />
    <glyph glyph-name="uni1EA1" unicode="&#x1ea1;" horiz-adv-x="1241" 
d="M346 735h-194q4 45 18 87t47 88t82 79t130 54.5t183 21.5q91 0 164.5 -14t123 -40t84.5 -59t53.5 -74t27 -81.5t8.5 -85.5v-455q0 -194 10 -256h-186q-5 21 -12 152q-91 -181 -391 -181q-105 0 -185.5 29.5t-126 79.5t-68 106.5t-22.5 118.5q0 338 539 338h252v55
q0 46 -12 82.5t-40 69t-83.5 50.5t-135.5 18q-71 0 -121.5 -14.5t-78.5 -43t-42 -56.5t-24 -69zM883 461v45h-248q-181 0 -265.5 -45t-84.5 -148q0 -82 62.5 -135t184.5 -53q100 0 171 27t109 76t54.5 105.5t16.5 127.5zM723 -401h-197v239h197v-239z" />
    <glyph glyph-name="uni1EA2" unicode="&#x1ea2;" horiz-adv-x="1572" 
d="M25 0l624 1454h250l651 -1454h-225l-195 440h-704l-188 -440h-213zM768 1307h-2q-57 -174 -277 -691h574q-258 582 -295 691zM594 1796l-41 109q89 59 209 59q102 0 157.5 -50t55.5 -132q0 -44 -21 -87.5t-42 -66.5t-54 -53h-172q64 55 94.5 96.5t30.5 81.5
q0 35 -21.5 57.5t-66.5 22.5q-73 0 -129 -37z" />
    <glyph glyph-name="uni1EA3" unicode="&#x1ea3;" horiz-adv-x="1241" 
d="M346 735h-194q4 45 18 87t47 88t82 79t130 54.5t183 21.5q91 0 164.5 -14t123 -40t84.5 -59t53.5 -74t27 -81.5t8.5 -85.5v-455q0 -194 10 -256h-186q-5 21 -12 152q-91 -181 -391 -181q-105 0 -185.5 29.5t-126 79.5t-68 106.5t-22.5 118.5q0 338 539 338h252v55
q0 46 -12 82.5t-40 69t-83.5 50.5t-135.5 18q-71 0 -121.5 -14.5t-78.5 -43t-42 -56.5t-24 -69zM883 461v45h-248q-181 0 -265.5 -45t-84.5 -148q0 -82 62.5 -135t184.5 -53q100 0 171 27t109 76t54.5 105.5t16.5 127.5zM434 1419l-41 109q89 59 209 59q102 0 157.5 -50
t55.5 -132q0 -44 -21 -87.5t-42 -66.5t-54 -53h-172q64 55 94.5 96.5t30.5 81.5q0 35 -21.5 57.5t-66.5 22.5q-73 0 -129 -37z" />
    <glyph glyph-name="uni1EA4" unicode="&#x1ea4;" horiz-adv-x="1572" 
d="M367 1579l290 262h236l293 -262h-215l-197 168l-190 -168h-217zM1059 1810l244 248h225l-289 -248h-180zM25 0l624 1454h250l651 -1454h-225l-195 440h-704l-188 -440h-213zM768 1307h-2q-57 -174 -277 -691h574q-258 582 -295 691z" />
    <glyph glyph-name="uni1EA5" unicode="&#x1ea5;" horiz-adv-x="1241" 
d="M266 1212l248 281h195l254 -281h-187l-166 181l-161 -181h-183zM852 1448l227 266h203l-266 -266h-164zM346 735h-194q4 45 18 87t47 88t82 79t130 54.5t183 21.5q91 0 164.5 -14t123 -40t84.5 -59t53.5 -74t27 -81.5t8.5 -85.5v-455q0 -194 10 -256h-186q-5 21 -12 152
q-91 -181 -391 -181q-105 0 -185.5 29.5t-126 79.5t-68 106.5t-22.5 118.5q0 338 539 338h252v55q0 46 -12 82.5t-40 69t-83.5 50.5t-135.5 18q-71 0 -121.5 -14.5t-78.5 -43t-42 -56.5t-24 -69zM883 461v45h-248q-181 0 -265.5 -45t-84.5 -148q0 -82 62.5 -135t184.5 -53
q100 0 171 27t109 76t54.5 105.5t16.5 127.5z" />
    <glyph glyph-name="uni1EA6" unicode="&#x1ea6;" horiz-adv-x="1572" 
d="M367 1577l290 262h236l293 -262h-215l-197 168l-190 -168h-217zM1268 1757l-316 256l234 -2l266 -254h-184zM25 0l624 1454h250l651 -1454h-225l-195 440h-704l-188 -440h-213zM768 1307h-2q-57 -174 -277 -691h574q-258 582 -295 691z" />
    <glyph glyph-name="uni1EA7" unicode="&#x1ea7;" horiz-adv-x="1241" 
d="M266 1217l248 280h195l254 -280h-187l-166 180l-161 -180h-183zM1008 1432l-271 272h201l227 -272h-157zM346 735h-194q4 45 18 87t47 88t82 79t130 54.5t183 21.5q91 0 164.5 -14t123 -40t84.5 -59t53.5 -74t27 -81.5t8.5 -85.5v-455q0 -194 10 -256h-186q-5 21 -12 152
q-91 -181 -391 -181q-105 0 -185.5 29.5t-126 79.5t-68 106.5t-22.5 118.5q0 338 539 338h252v55q0 46 -12 82.5t-40 69t-83.5 50.5t-135.5 18q-71 0 -121.5 -14.5t-78.5 -43t-42 -56.5t-24 -69zM883 461v45h-248q-181 0 -265.5 -45t-84.5 -148q0 -82 62.5 -135t184.5 -53
q100 0 171 27t109 76t54.5 105.5t16.5 127.5z" />
    <glyph glyph-name="uni1EA8" unicode="&#x1ea8;" horiz-adv-x="1572" 
d="M367 1577l290 262h236l293 -262h-215l-197 168l-190 -168h-217zM1014 1978l-37 105q79 59 203 59q94 0 147 -46.5t53 -125.5q0 -107 -118 -194h-160q121 98 121 170q0 67 -82 67q-69 0 -127 -35zM25 0l624 1454h250l651 -1454h-225l-195 440h-704l-188 -440h-213z
M768 1307h-2q-57 -174 -277 -691h574q-258 582 -295 691z" />
    <glyph glyph-name="uni1EA9" unicode="&#x1ea9;" horiz-adv-x="1241" 
d="M264 1212l248 281h195l254 -281h-187l-166 181l-162 -181h-182zM786 1624l-41 90q75 68 191 68q91 0 137.5 -43t46.5 -121q0 -101 -102 -184h-152q121 93 121 163q0 31 -20 49.5t-58 18.5q-72 0 -123 -41zM346 735h-194q4 45 18 87t47 88t82 79t130 54.5t183 21.5
q91 0 164.5 -14t123 -40t84.5 -59t53.5 -74t27 -81.5t8.5 -85.5v-455q0 -194 10 -256h-186q-5 21 -12 152q-91 -181 -391 -181q-105 0 -185.5 29.5t-126 79.5t-68 106.5t-22.5 118.5q0 338 539 338h252v55q0 46 -12 82.5t-40 69t-83.5 50.5t-135.5 18q-71 0 -121.5 -14.5
t-78.5 -43t-42 -56.5t-24 -69zM883 461v45h-248q-181 0 -265.5 -45t-84.5 -148q0 -82 62.5 -135t184.5 -53q100 0 171 27t109 76t54.5 105.5t16.5 127.5z" />
    <glyph glyph-name="uni1EAA" unicode="&#x1eaa;" horiz-adv-x="1572" 
d="M401 1573l269 213h200l275 -213h-209l-166 119l-158 -119h-211zM557 1874h-117v31q0 96 47 139t125 43q53 0 112.5 -21.5t111.5 -43t88 -21.5q32 0 48.5 15t16.5 52v19h119v-25q0 -92 -45.5 -140t-130.5 -48q-57 0 -158 43t-147 43q-30 0 -50 -18t-20 -54v-14zM25 0
l624 1454h250l651 -1454h-225l-195 440h-704l-188 -440h-213zM768 1307h-2q-57 -174 -277 -691h574q-258 582 -295 691z" />
    <glyph glyph-name="uni1EAB" unicode="&#x1eab;" horiz-adv-x="1241" 
d="M270 1190l228 209h221l233 -209h-192l-154 127l-145 -127h-191zM418 1489h-115v24q0 96 44.5 141.5t117.5 45.5q52 0 106 -20t97.5 -40t70.5 -20q32 0 49 12t17 47v17h115v-27q0 -180 -166 -180q-56 0 -147 41t-126 41q-63 0 -63 -68v-14zM346 735h-194q4 45 18 87t47 88
t82 79t130 54.5t183 21.5q91 0 164.5 -14t123 -40t84.5 -59t53.5 -74t27 -81.5t8.5 -85.5v-455q0 -194 10 -256h-186q-5 21 -12 152q-91 -181 -391 -181q-105 0 -185.5 29.5t-126 79.5t-68 106.5t-22.5 118.5q0 338 539 338h252v55q0 46 -12 82.5t-40 69t-83.5 50.5
t-135.5 18q-71 0 -121.5 -14.5t-78.5 -43t-42 -56.5t-24 -69zM883 461v45h-248q-181 0 -265.5 -45t-84.5 -148q0 -82 62.5 -135t184.5 -53q100 0 171 27t109 76t54.5 105.5t16.5 127.5z" />
    <glyph glyph-name="uni1EAC" unicode="&#x1eac;" horiz-adv-x="1572" 
d="M25 0l624 1454h250l651 -1454h-225l-195 440h-704l-188 -440h-213zM768 1307h-2q-57 -174 -277 -691h574q-258 582 -295 691zM362 1579l297 283h230l299 -283h-207l-209 186l-207 -186h-203zM877 -401h-197v239h197v-239z" />
    <glyph glyph-name="uni1EAD" unicode="&#x1ead;" horiz-adv-x="1241" 
d="M346 735h-194q4 45 18 87t47 88t82 79t130 54.5t183 21.5q91 0 164.5 -14t123 -40t84.5 -59t53.5 -74t27 -81.5t8.5 -85.5v-455q0 -194 10 -256h-186q-5 21 -12 152q-91 -181 -391 -181q-105 0 -185.5 29.5t-126 79.5t-68 106.5t-22.5 118.5q0 338 539 338h252v55
q0 46 -12 82.5t-40 69t-83.5 50.5t-135.5 18q-71 0 -121.5 -14.5t-78.5 -43t-42 -56.5t-24 -69zM883 461v45h-248q-181 0 -265.5 -45t-84.5 -148q0 -82 62.5 -135t184.5 -53q100 0 171 27t109 76t54.5 105.5t16.5 127.5zM260 1229l266 330h197l266 -330h-182l-184 225
l-179 -225h-184zM727 -401h-197v239h197v-239z" />
    <glyph glyph-name="uni1EAE" unicode="&#x1eae;" horiz-adv-x="1572" 
d="M971 1825h147q-30 -117 -119 -184.5t-227 -67.5q-149 0 -237 74t-109 178h149q46 -117 197 -117q155 0 199 117zM674 1882l225 242h219l-274 -242h-170zM25 0l624 1454h250l651 -1454h-225l-195 440h-704l-188 -440h-213zM768 1307h-2q-57 -174 -277 -691h574
q-258 582 -295 691z" />
    <glyph glyph-name="uni1EAF" unicode="&#x1eaf;" horiz-adv-x="1241" 
d="M807 1436h141q-26 -116 -108.5 -184t-216.5 -68q-140 0 -221 74t-101 178h143q19 -54 64 -87.5t117 -33.5q82 0 121.5 32.5t60.5 88.5zM526 1491l222 242h198l-256 -242h-164zM346 735h-194q4 45 18 87t47 88t82 79t130 54.5t183 21.5q91 0 164.5 -14t123 -40t84.5 -59
t53.5 -74t27 -81.5t8.5 -85.5v-455q0 -194 10 -256h-186q-5 21 -12 152q-91 -181 -391 -181q-105 0 -185.5 29.5t-126 79.5t-68 106.5t-22.5 118.5q0 338 539 338h252v55q0 46 -12 82.5t-40 69t-83.5 50.5t-135.5 18q-71 0 -121.5 -14.5t-78.5 -43t-42 -56.5t-24 -69z
M883 461v45h-248q-181 0 -265.5 -45t-84.5 -148q0 -82 62.5 -135t184.5 -53q100 0 171 27t109 76t54.5 105.5t16.5 127.5z" />
    <glyph glyph-name="uni1EB0" unicode="&#x1eb0;" horiz-adv-x="1572" 
d="M711 1882l-277 242h217l228 -242h-168zM971 1825h147q-30 -117 -119 -184.5t-227 -67.5q-149 0 -237 74t-109 178h149q46 -117 197 -117q155 0 199 117zM25 0l624 1454h250l651 -1454h-225l-195 440h-704l-188 -440h-213zM768 1307h-2q-57 -174 -277 -691h574
q-258 582 -295 691z" />
    <glyph glyph-name="uni1EB1" unicode="&#x1eb1;" horiz-adv-x="1241" 
d="M559 1495l-260 242h203l221 -242h-164zM805 1440h141q-26 -116 -108.5 -184t-216.5 -68q-140 0 -221 74t-101 178h143q19 -54 64 -87.5t117 -33.5q82 0 121.5 32.5t60.5 88.5zM346 735h-194q4 45 18 87t47 88t82 79t130 54.5t183 21.5q91 0 164.5 -14t123 -40t84.5 -59
t53.5 -74t27 -81.5t8.5 -85.5v-455q0 -194 10 -256h-186q-5 21 -12 152q-91 -181 -391 -181q-105 0 -185.5 29.5t-126 79.5t-68 106.5t-22.5 118.5q0 338 539 338h252v55q0 46 -12 82.5t-40 69t-83.5 50.5t-135.5 18q-71 0 -121.5 -14.5t-78.5 -43t-42 -56.5t-24 -69z
M883 461v45h-248q-181 0 -265.5 -45t-84.5 -148q0 -82 62.5 -135t184.5 -53q100 0 171 27t109 76t54.5 105.5t16.5 127.5z" />
    <glyph glyph-name="uni1EB2" unicode="&#x1eb2;" horiz-adv-x="1572" 
d="M612 2028l-41 88q77 65 189 65q86 0 134 -43.5t48 -114.5q0 -93 -100 -172h-150q117 89 117 154q0 27 -20 44t-60 17q-58 0 -117 -38zM987 1812h141q-13 -46 -40 -88t-69 -78t-105.5 -57.5t-139.5 -21.5q-85 0 -153 25.5t-107 65.5t-60.5 78.5t-29.5 75.5h145
q22 -48 77 -82t130 -34q86 0 137.5 33t73.5 83zM25 0l624 1454h250l651 -1454h-225l-195 440h-704l-188 -440h-213zM768 1307h-2q-57 -174 -277 -691h574q-258 582 -295 691z" />
    <glyph glyph-name="uni1EB3" unicode="&#x1eb3;" horiz-adv-x="1241" 
d="M463 1634l-35 92q79 64 182 64q86 0 133.5 -42t47.5 -114q0 -52 -31.5 -98t-79.5 -78h-148q119 89 119 152t-73 63q-62 0 -115 -39zM803 1436h141q-26 -115 -109 -183.5t-217 -68.5q-140 0 -220.5 74t-100.5 178h143q19 -54 64 -87.5t117 -33.5q82 0 121.5 32.5
t60.5 88.5zM346 735h-194q4 45 18 87t47 88t82 79t130 54.5t183 21.5q91 0 164.5 -14t123 -40t84.5 -59t53.5 -74t27 -81.5t8.5 -85.5v-455q0 -194 10 -256h-186q-5 21 -12 152q-91 -181 -391 -181q-105 0 -185.5 29.5t-126 79.5t-68 106.5t-22.5 118.5q0 338 539 338h252
v55q0 46 -12 82.5t-40 69t-83.5 50.5t-135.5 18q-71 0 -121.5 -14.5t-78.5 -43t-42 -56.5t-24 -69zM883 461v45h-248q-181 0 -265.5 -45t-84.5 -148q0 -82 62.5 -135t184.5 -53q100 0 171 27t109 76t54.5 105.5t16.5 127.5z" />
    <glyph glyph-name="uni1EB4" unicode="&#x1eb4;" horiz-adv-x="1572" 
d="M977 1776h131q-26 -88 -109.5 -147.5t-224.5 -59.5q-75 0 -136.5 19.5t-100 52t-62 66.5t-33.5 69h138q19 -36 71 -62t125 -26q156 0 201 88zM559 1868h-113v22q0 89 45.5 129.5t118.5 40.5q65 0 178.5 -39t143.5 -39q31 0 48 13t17 47v18h113v-22q0 -85 -44.5 -127.5
t-121.5 -42.5q-58 0 -170.5 41t-148.5 41q-66 0 -66 -68v-14zM25 0l624 1454h250l651 -1454h-225l-195 440h-704l-188 -440h-213zM768 1307h-2q-57 -174 -277 -691h574q-258 582 -295 691z" />
    <glyph glyph-name="uni1EB5" unicode="&#x1eb5;" horiz-adv-x="1241" 
d="M807 1411h139q-27 -102 -109 -166.5t-216 -64.5q-138 0 -218.5 66.5t-103.5 164.5h143q41 -102 181 -102q43 0 76 9t53.5 26.5t32 32t22.5 34.5zM430 1505h-115v25q0 96 44.5 141t117.5 45q52 0 106 -20t98 -40t71 -20q32 0 48.5 12.5t16.5 47.5v16h115v-26
q0 -181 -166 -181q-56 0 -146 41t-126 41q-64 0 -64 -67v-15zM346 735h-194q4 45 18 87t47 88t82 79t130 54.5t183 21.5q91 0 164.5 -14t123 -40t84.5 -59t53.5 -74t27 -81.5t8.5 -85.5v-455q0 -194 10 -256h-186q-5 21 -12 152q-91 -181 -391 -181q-105 0 -185.5 29.5
t-126 79.5t-68 106.5t-22.5 118.5q0 338 539 338h252v55q0 46 -12 82.5t-40 69t-83.5 50.5t-135.5 18q-71 0 -121.5 -14.5t-78.5 -43t-42 -56.5t-24 -69zM883 461v45h-248q-181 0 -265.5 -45t-84.5 -148q0 -82 62.5 -135t184.5 -53q100 0 171 27t109 76t54.5 105.5
t16.5 127.5z" />
    <glyph glyph-name="uni1EB6" unicode="&#x1eb6;" horiz-adv-x="1572" 
d="M25 0l624 1454h250l651 -1454h-225l-195 440h-704l-188 -440h-213zM768 1307h-2q-57 -174 -277 -691h574q-258 582 -295 691zM985 1866h143q-20 -122 -110 -200.5t-240 -78.5q-83 0 -150 25t-107 66.5t-62.5 89t-28.5 98.5h148q15 -63 69.5 -101.5t132.5 -38.5
q92 0 138.5 38t66.5 102zM877 -401h-197v239h197v-239z" />
    <glyph glyph-name="uni1EB7" unicode="&#x1eb7;" horiz-adv-x="1241" 
d="M346 735h-194q4 45 18 87t47 88t82 79t130 54.5t183 21.5q91 0 164.5 -14t123 -40t84.5 -59t53.5 -74t27 -81.5t8.5 -85.5v-455q0 -194 10 -256h-186q-5 21 -12 152q-91 -181 -391 -181q-105 0 -185.5 29.5t-126 79.5t-68 106.5t-22.5 118.5q0 338 539 338h252v55
q0 46 -12 82.5t-40 69t-83.5 50.5t-135.5 18q-71 0 -121.5 -14.5t-78.5 -43t-42 -56.5t-24 -69zM883 461v45h-248q-181 0 -265.5 -45t-84.5 -148q0 -82 62.5 -135t184.5 -53q100 0 171 27t109 76t54.5 105.5t16.5 127.5zM815 1536h141q-18 -137 -103 -223t-230 -86
q-82 0 -145.5 26t-102 70.5t-59 98t-25.5 114.5h143q16 -76 63 -121t126 -45q48 0 83.5 14t56.5 40t32 51.5t20 60.5zM723 -401h-197v239h197v-239z" />
    <glyph glyph-name="uni1EB8" unicode="&#x1eb8;" horiz-adv-x="1452" 
d="M205 0v1454h1124v-172h-917v-430h872v-174h-872v-504h962l-28 -174h-1141zM879 -401h-197v239h197v-239z" />
    <glyph glyph-name="uni1EB9" unicode="&#x1eb9;" horiz-adv-x="1239" 
d="M946 295h195q-18 -49 -44.5 -93t-70 -87.5t-98.5 -74.5t-132 -50t-167 -19q-108 0 -198.5 30.5t-153 82.5t-106 122t-63.5 148t-20 162q0 155 65 279.5t188.5 197t283.5 72.5q114 0 206 -32.5t151.5 -85.5t100 -124t57.5 -145.5t17 -153.5q0 -31 -2 -51h-870
q8 -152 104 -248t250 -96q216 0 307 166zM623 913q-152 0 -236 -83t-98 -218h665q-3 41 -13 79t-34 80t-59.5 72t-93.5 50t-131 20zM717 -401h-197v239h197v-239z" />
    <glyph glyph-name="uni1EBA" unicode="&#x1eba;" horiz-adv-x="1452" 
d="M205 0v1454h1124v-172h-917v-430h872v-174h-872v-504h962l-28 -174h-1141zM594 1808l-41 109q89 59 209 59q102 0 157.5 -50t55.5 -132q0 -44 -21 -87.5t-42 -66.5t-54 -53h-172q64 55 94.5 96.5t30.5 81.5q0 35 -21.5 57.5t-66.5 22.5q-73 0 -129 -37z" />
    <glyph glyph-name="uni1EBB" unicode="&#x1ebb;" horiz-adv-x="1239" 
d="M946 295h195q-18 -49 -44.5 -93t-70 -87.5t-98.5 -74.5t-132 -50t-167 -19q-108 0 -198.5 30.5t-153 82.5t-106 122t-63.5 148t-20 162q0 155 65 279.5t188.5 197t283.5 72.5q114 0 206 -32.5t151.5 -85.5t100 -124t57.5 -145.5t17 -153.5q0 -31 -2 -51h-870
q8 -152 104 -248t250 -96q216 0 307 166zM623 913q-152 0 -236 -83t-98 -218h665q-3 41 -13 79t-34 80t-59.5 72t-93.5 50t-131 20zM444 1419l-41 109q89 59 209 59q102 0 157.5 -50t55.5 -132q0 -34 -10.5 -65.5t-30 -58.5t-35.5 -44t-40 -39h-172q64 55 94.5 96.5
t30.5 81.5q0 35 -22 57.5t-67 22.5q-73 0 -129 -37z" />
    <glyph glyph-name="uni1EBC" unicode="&#x1ebc;" horiz-adv-x="1452" 
d="M205 0v1454h1124v-172h-917v-430h872v-174h-872v-504h962l-28 -174h-1141zM530 1624h-139v47q0 219 189 219q58 0 130 -29.5t134.5 -59t97.5 -29.5q36 0 52 21.5t16 78.5v22h135v-43q0 -126 -47 -178.5t-133 -52.5q-58 0 -130 31t-136.5 61.5t-106.5 30.5
q-29 0 -45.5 -23t-16.5 -65v-31z" />
    <glyph glyph-name="uni1EBD" unicode="&#x1ebd;" horiz-adv-x="1239" 
d="M946 295h195q-18 -49 -44.5 -93t-70 -87.5t-98.5 -74.5t-132 -50t-167 -19q-108 0 -198.5 30.5t-153 82.5t-106 122t-63.5 148t-20 162q0 155 65 279.5t188.5 197t283.5 72.5q114 0 206 -32.5t151.5 -85.5t100 -124t57.5 -145.5t17 -153.5q0 -31 -2 -51h-870
q8 -152 104 -248t250 -96q216 0 307 166zM623 913q-152 0 -236 -83t-98 -218h665q-3 41 -13 79t-34 80t-59.5 72t-93.5 50t-131 20zM403 1251h-131v52q0 213 179 213q57 0 118 -29t113.5 -57.5t87.5 -28.5q33 0 49.5 21t16.5 75v27h129v-47q0 -122 -47 -175t-132 -53
q-45 0 -93 18.5t-81.5 41t-73 41t-71.5 18.5q-64 0 -64 -80v-37z" />
    <glyph glyph-name="uni1EBE" unicode="&#x1ebe;" horiz-adv-x="1452" 
d="M350 1593l291 262h236l292 -262h-215l-196 168l-191 -168h-217zM1042 1825l244 248h225l-288 -248h-181zM205 0v1454h1124v-172h-917v-430h872v-174h-872v-504h962l-28 -174h-1141z" />
    <glyph glyph-name="uni1EBF" unicode="&#x1ebf;" horiz-adv-x="1239" 
d="M274 1212l248 281h195l254 -281h-187l-166 181l-161 -181h-183zM860 1448l227 266h203l-266 -266h-164zM946 295h195q-18 -49 -44.5 -93t-70 -87.5t-98.5 -74.5t-132 -50t-167 -19q-108 0 -198.5 30.5t-153 82.5t-106 122t-63.5 148t-20 162q0 155 65 279.5t188.5 197
t283.5 72.5q114 0 206 -32.5t151.5 -85.5t100 -124t57.5 -145.5t17 -153.5q0 -31 -2 -51h-870q8 -152 104 -248t250 -96q216 0 307 166zM623 913q-152 0 -236 -83t-98 -218h665q-3 41 -13 79t-34 80t-59.5 72t-93.5 50t-131 20z" />
    <glyph glyph-name="uni1EC0" unicode="&#x1ec0;" horiz-adv-x="1452" 
d="M350 1591l291 262h236l292 -262h-215l-196 168l-191 -168h-217zM1251 1772l-315 256l233 -3l267 -253h-185zM205 0v1454h1124v-172h-917v-430h872v-174h-872v-504h962l-28 -174h-1141z" />
    <glyph glyph-name="uni1EC1" unicode="&#x1ec1;" horiz-adv-x="1239" 
d="M274 1212l248 281h195l254 -281h-187l-166 181l-161 -181h-183zM1016 1427l-271 273h201l228 -273h-158zM946 295h195q-18 -49 -44.5 -93t-70 -87.5t-98.5 -74.5t-132 -50t-167 -19q-108 0 -198.5 30.5t-153 82.5t-106 122t-63.5 148t-20 162q0 155 65 279.5t188.5 197
t283.5 72.5q114 0 206 -32.5t151.5 -85.5t100 -124t57.5 -145.5t17 -153.5q0 -31 -2 -51h-870q8 -152 104 -248t250 -96q216 0 307 166zM623 913q-152 0 -236 -83t-98 -218h665q-3 41 -13 79t-34 80t-59.5 72t-93.5 50t-131 20z" />
    <glyph glyph-name="uni1EC2" unicode="&#x1ec2;" horiz-adv-x="1452" 
d="M350 1589l291 262h236l292 -262h-215l-196 168l-191 -168h-217zM997 1991l-36 104q79 59 202 59q94 0 147.5 -46.5t53.5 -125.5q0 -106 -119 -194h-160q121 98 121 170q0 67 -82 67q-71 0 -127 -34zM205 0v1454h1124v-172h-917v-430h872v-174h-872v-504h962l-28 -174
h-1141z" />
    <glyph glyph-name="uni1EC3" unicode="&#x1ec3;" horiz-adv-x="1239" 
d="M276 1212l248 281h195l254 -281h-187l-165 181l-162 -181h-183zM799 1624l-41 90q75 68 190 68q91 0 138 -43t47 -121q0 -100 -103 -184h-151q120 92 120 163q0 32 -20 50t-57 18q-72 0 -123 -41zM946 295h195q-18 -49 -44.5 -93t-70 -87.5t-98.5 -74.5t-132 -50
t-167 -19q-108 0 -198.5 30.5t-153 82.5t-106 122t-63.5 148t-20 162q0 155 65 279.5t188.5 197t283.5 72.5q114 0 206 -32.5t151.5 -85.5t100 -124t57.5 -145.5t17 -153.5q0 -31 -2 -51h-870q8 -152 104 -248t250 -96q216 0 307 166zM623 913q-152 0 -236 -83t-98 -218h665
q-3 41 -13 79t-34 80t-59.5 72t-93.5 50t-131 20z" />
    <glyph glyph-name="uni1EC4" unicode="&#x1ec4;" horiz-adv-x="1452" 
d="M393 1579l269 213h200l275 -213h-209l-166 119l-158 -119h-211zM549 1880h-117v31q0 96 47 139t125 43q53 0 112 -21.5t111 -43t88 -21.5q66 0 66 68v18h119v-25q0 -92 -45.5 -140t-130.5 -48q-57 0 -158.5 43t-147.5 43q-30 0 -49.5 -18t-19.5 -54v-14zM205 0v1454h1124
v-172h-917v-430h872v-174h-872v-504h962l-28 -174h-1141z" />
    <glyph glyph-name="uni1EC5" unicode="&#x1ec5;" horiz-adv-x="1239" 
d="M281 1190l227 209h221l234 -209h-193l-154 127l-145 -127h-190zM428 1489h-115v24q0 96 44.5 141.5t117.5 45.5q52 0 106 -20t98 -40t71 -20q32 0 48.5 12t16.5 47v17h115v-27q0 -180 -166 -180q-56 0 -146 41t-126 41q-64 0 -64 -68v-14zM946 295h195q-18 -49 -44.5 -93
t-70 -87.5t-98.5 -74.5t-132 -50t-167 -19q-108 0 -198.5 30.5t-153 82.5t-106 122t-63.5 148t-20 162q0 155 65 279.5t188.5 197t283.5 72.5q114 0 206 -32.5t151.5 -85.5t100 -124t57.5 -145.5t17 -153.5q0 -31 -2 -51h-870q8 -152 104 -248t250 -96q216 0 307 166z
M623 913q-152 0 -236 -83t-98 -218h665q-3 41 -13 79t-34 80t-59.5 72t-93.5 50t-131 20z" />
    <glyph glyph-name="uni1EC6" unicode="&#x1ec6;" horiz-adv-x="1452" 
d="M205 0v1454h1124v-172h-917v-430h872v-174h-872v-504h962l-28 -174h-1141zM350 1589l297 283h230l299 -283h-207l-209 187l-207 -187h-203zM887 -401h-197v239h197v-239z" />
    <glyph glyph-name="uni1EC7" unicode="&#x1ec7;" horiz-adv-x="1239" 
d="M946 295h195q-18 -49 -44.5 -93t-70 -87.5t-98.5 -74.5t-132 -50t-167 -19q-108 0 -198.5 30.5t-153 82.5t-106 122t-63.5 148t-20 162q0 155 65 279.5t188.5 197t283.5 72.5q114 0 206 -32.5t151.5 -85.5t100 -124t57.5 -145.5t17 -153.5q0 -31 -2 -51h-870
q8 -152 104 -248t250 -96q216 0 307 166zM623 913q-152 0 -236 -83t-98 -218h665q-3 41 -13 79t-34 80t-59.5 72t-93.5 50t-131 20zM254 1229l266 330h197l266 -330h-182l-185 225l-178 -225h-184zM717 -401h-197v239h197v-239z" />
    <glyph glyph-name="uni1EC8" unicode="&#x1ec8;" horiz-adv-x="616" 
d="M205 0v1454h207v-1454h-207zM129 1796l-41 109q89 59 209 59q102 0 157.5 -50t55.5 -132q0 -44 -21 -87.5t-42 -66.5t-54 -53h-172q64 55 94.5 96.5t30.5 81.5q0 35 -21.5 57.5t-66.5 22.5q-73 0 -129 -37z" />
    <glyph glyph-name="uni1EC9" unicode="&#x1ec9;" horiz-adv-x="526" 
d="M360 0h-194v1036h194v-1036zM84 1419l-41 109q89 59 209 59q102 0 157.5 -50t55.5 -132q0 -44 -21 -87.5t-42 -66.5t-54 -53h-172q64 55 94.5 96.5t30.5 81.5q0 35 -21.5 57.5t-66.5 22.5q-73 0 -129 -37z" />
    <glyph glyph-name="uni1ECA" unicode="&#x1eca;" horiz-adv-x="616" 
d="M205 0v1454h207v-1454h-207zM406 -401h-197v239h197v-239z" />
    <glyph glyph-name="uni1ECB" unicode="&#x1ecb;" horiz-adv-x="526" 
d="M360 0h-194v1036h194v-1036zM360 1307h-194v233h194v-233zM360 -401h-196v239h196v-239z" />
    <glyph glyph-name="uni1ECC" unicode="&#x1ecc;" horiz-adv-x="1757" 
d="M877 -31q-229 0 -404 102t-266.5 275t-91.5 387q0 151 55 287.5t153 239.5t243.5 164t316.5 61q170 0 314 -61t240.5 -164t150.5 -240t54 -289q0 -155 -52 -292.5t-147 -242t-241.5 -166t-324.5 -61.5zM883 141q130 0 234.5 47t170.5 128t101.5 186t35.5 225
q0 115 -36 219.5t-104 187t-175.5 131t-239.5 48.5q-124 0 -227 -46.5t-170 -125.5t-104 -183.5t-37 -220.5q0 -94 22.5 -181.5t68.5 -163t110.5 -131.5t154.5 -88t195 -32zM965 -401h-197v239h197v-239z" />
    <glyph glyph-name="uni1ECD" unicode="&#x1ecd;" horiz-adv-x="1282" 
d="M88 518q0 112 38.5 211t109 174t176.5 118.5t233 43.5q130 0 236 -46.5t173.5 -124.5t103.5 -175t36 -201q0 -109 -35.5 -206.5t-103.5 -174t-176.5 -121.5t-243.5 -45q-127 0 -232.5 45t-173 121t-104.5 174t-37 207zM641 131q170 0 261 109.5t91 275.5q0 106 -40 193
t-122.5 141.5t-193.5 54.5q-168 0 -258 -110.5t-90 -276.5q0 -102 39.5 -188.5t121.5 -142.5t191 -56zM739 -401h-196v239h196v-239z" />
    <glyph glyph-name="uni1ECE" unicode="&#x1ece;" horiz-adv-x="1757" 
d="M877 -31q-229 0 -404 102t-266.5 275t-91.5 387q0 151 55 287.5t153 239.5t243.5 164t316.5 61q170 0 314 -61t240.5 -164t150.5 -240t54 -289q0 -155 -52 -292.5t-147 -242t-241.5 -166t-324.5 -61.5zM883 141q130 0 234.5 47t170.5 128t101.5 186t35.5 225
q0 115 -36 219.5t-104 187t-175.5 131t-239.5 48.5q-124 0 -227 -46.5t-170 -125.5t-104 -183.5t-37 -220.5q0 -94 22.5 -181.5t68.5 -163t110.5 -131.5t154.5 -88t195 -32zM688 1817l-41 108q91 60 209 60q102 0 157.5 -50.5t55.5 -132.5q0 -44 -21 -87.5t-42 -66.5
t-54 -53h-172q64 55 94.5 97t30.5 82q0 35 -21.5 57t-66.5 22q-74 0 -129 -36z" />
    <glyph glyph-name="uni1ECF" unicode="&#x1ecf;" horiz-adv-x="1282" 
d="M88 518q0 112 38.5 211t109 174t176.5 118.5t233 43.5q130 0 236 -46.5t173.5 -124.5t103.5 -175t36 -201q0 -109 -35.5 -206.5t-103.5 -174t-176.5 -121.5t-243.5 -45q-127 0 -232.5 45t-173 121t-104.5 174t-37 207zM641 131q170 0 261 109.5t91 275.5q0 106 -40 193
t-122.5 141.5t-193.5 54.5q-168 0 -258 -110.5t-90 -276.5q0 -102 39.5 -188.5t121.5 -142.5t191 -56zM463 1419l-41 109q89 59 209 59q102 0 157.5 -50t55.5 -132q0 -44 -21 -87.5t-42 -66.5t-54 -53h-172q64 55 94.5 96.5t30.5 81.5q0 35 -21.5 57.5t-66.5 22.5
q-73 0 -129 -37z" />
    <glyph glyph-name="uni1ED0" unicode="&#x1ed0;" horiz-adv-x="1757" 
d="M457 1589l291 262h235l293 -262h-215l-197 168l-190 -168h-217zM1149 1821l244 247h225l-289 -247h-180zM877 -31q-229 0 -404 102t-266.5 275t-91.5 387q0 151 55 287.5t153 239.5t243.5 164t316.5 61q170 0 314 -61t240.5 -164t150.5 -240t54 -289q0 -155 -52 -292.5
t-147 -242t-241.5 -166t-324.5 -61.5zM883 141q130 0 234.5 47t170.5 128t101.5 186t35.5 225q0 115 -36 219.5t-104 187t-175.5 131t-239.5 48.5q-124 0 -227 -46.5t-170 -125.5t-104 -183.5t-37 -220.5q0 -94 22.5 -181.5t68.5 -163t110.5 -131.5t154.5 -88t195 -32z" />
    <glyph glyph-name="uni1ED1" unicode="&#x1ed1;" horiz-adv-x="1282" 
d="M293 1212l248 281h194l254 -281h-186l-166 181l-162 -181h-182zM879 1448l227 266h203l-267 -266h-163zM88 518q0 112 38.5 211t109 174t176.5 118.5t233 43.5q130 0 236 -46.5t173.5 -124.5t103.5 -175t36 -201q0 -109 -35.5 -206.5t-103.5 -174t-176.5 -121.5
t-243.5 -45q-127 0 -232.5 45t-173 121t-104.5 174t-37 207zM641 131q170 0 261 109.5t91 275.5q0 106 -40 193t-122.5 141.5t-193.5 54.5q-168 0 -258 -110.5t-90 -276.5q0 -102 39.5 -188.5t121.5 -142.5t191 -56z" />
    <glyph glyph-name="uni1ED2" unicode="&#x1ed2;" horiz-adv-x="1757" 
d="M457 1589l291 262h235l293 -262h-215l-197 168l-190 -168h-217zM1358 1769l-316 256l234 -2l266 -254h-184zM877 -31q-229 0 -404 102t-266.5 275t-91.5 387q0 151 55 287.5t153 239.5t243.5 164t316.5 61q170 0 314 -61t240.5 -164t150.5 -240t54 -289
q0 -155 -52 -292.5t-147 -242t-241.5 -166t-324.5 -61.5zM883 141q130 0 234.5 47t170.5 128t101.5 186t35.5 225q0 115 -36 219.5t-104 187t-175.5 131t-239.5 48.5q-124 0 -227 -46.5t-170 -125.5t-104 -183.5t-37 -220.5q0 -94 22.5 -181.5t68.5 -163t110.5 -131.5
t154.5 -88t195 -32z" />
    <glyph glyph-name="uni1ED3" unicode="&#x1ed3;" horiz-adv-x="1282" 
d="M293 1212l248 281h194l254 -281h-186l-166 181l-162 -181h-182zM1034 1427l-270 273h201l227 -273h-158zM88 518q0 112 38.5 211t109 174t176.5 118.5t233 43.5q130 0 236 -46.5t173.5 -124.5t103.5 -175t36 -201q0 -109 -35.5 -206.5t-103.5 -174t-176.5 -121.5
t-243.5 -45q-127 0 -232.5 45t-173 121t-104.5 174t-37 207zM641 131q170 0 261 109.5t91 275.5q0 106 -40 193t-122.5 141.5t-193.5 54.5q-168 0 -258 -110.5t-90 -276.5q0 -102 39.5 -188.5t121.5 -142.5t191 -56z" />
    <glyph glyph-name="uni1ED4" unicode="&#x1ed4;" horiz-adv-x="1757" 
d="M457 1591l291 262h235l293 -262h-215l-197 168l-190 -168h-217zM1104 1993l-37 104q81 60 203 60q94 0 147 -46.5t53 -125.5q0 -56 -33.5 -106.5t-84.5 -88.5h-160q121 98 121 170q0 32 -21 50t-61 18q-69 0 -127 -35zM877 -31q-229 0 -404 102t-266.5 275t-91.5 387
q0 151 55 287.5t153 239.5t243.5 164t316.5 61q170 0 314 -61t240.5 -164t150.5 -240t54 -289q0 -155 -52 -292.5t-147 -242t-241.5 -166t-324.5 -61.5zM883 141q130 0 234.5 47t170.5 128t101.5 186t35.5 225q0 115 -36 219.5t-104 187t-175.5 131t-239.5 48.5
q-124 0 -227 -46.5t-170 -125.5t-104 -183.5t-37 -220.5q0 -94 22.5 -181.5t68.5 -163t110.5 -131.5t154.5 -88t195 -32z" />
    <glyph glyph-name="uni1ED5" unicode="&#x1ed5;" horiz-adv-x="1282" 
d="M293 1212l248 281h194l254 -281h-186l-166 181l-162 -181h-182zM815 1624l-41 90q75 68 191 68q91 0 137.5 -43t46.5 -121q0 -101 -102 -184h-152q121 93 121 163q0 31 -20 49.5t-58 18.5q-72 0 -123 -41zM88 518q0 112 38.5 211t109 174t176.5 118.5t233 43.5
q130 0 236 -46.5t173.5 -124.5t103.5 -175t36 -201q0 -109 -35.5 -206.5t-103.5 -174t-176.5 -121.5t-243.5 -45q-127 0 -232.5 45t-173 121t-104.5 174t-37 207zM641 131q170 0 261 109.5t91 275.5q0 106 -40 193t-122.5 141.5t-193.5 54.5q-168 0 -258 -110.5t-90 -276.5
q0 -102 39.5 -188.5t121.5 -142.5t191 -56z" />
    <glyph glyph-name="uni1ED6" unicode="&#x1ed6;" horiz-adv-x="1757" 
d="M494 1585l268 213h201l274 -213h-209l-166 119l-157 -119h-211zM649 1886h-117v31q0 96 47.5 139t125.5 43q53 0 112 -21.5t111 -43t88 -21.5q32 0 48.5 15t16.5 53v18h119v-24q0 -92 -45.5 -140.5t-130.5 -48.5q-57 0 -158 43t-147 43q-30 0 -50 -17.5t-20 -53.5v-15z
M877 -31q-229 0 -404 102t-266.5 275t-91.5 387q0 151 55 287.5t153 239.5t243.5 164t316.5 61q170 0 314 -61t240.5 -164t150.5 -240t54 -289q0 -155 -52 -292.5t-147 -242t-241.5 -166t-324.5 -61.5zM883 141q130 0 234.5 47t170.5 128t101.5 186t35.5 225
q0 115 -36 219.5t-104 187t-175.5 131t-239.5 48.5q-124 0 -227 -46.5t-170 -125.5t-104 -183.5t-37 -220.5q0 -94 22.5 -181.5t68.5 -163t110.5 -131.5t154.5 -88t195 -32z" />
    <glyph glyph-name="uni1ED7" unicode="&#x1ed7;" horiz-adv-x="1282" 
d="M301 1190l227 209h222l233 -209h-192l-154 127l-145 -127h-191zM449 1489h-115v24q0 96 44.5 141.5t117.5 45.5q52 0 106 -20t97.5 -40t70.5 -20q32 0 49 12t17 47v17h114v-27q0 -180 -166 -180q-56 0 -146 41t-126 41q-63 0 -63 -68v-14zM88 518q0 112 38.5 211t109 174
t176.5 118.5t233 43.5q130 0 236 -46.5t173.5 -124.5t103.5 -175t36 -201q0 -109 -35.5 -206.5t-103.5 -174t-176.5 -121.5t-243.5 -45q-127 0 -232.5 45t-173 121t-104.5 174t-37 207zM641 131q170 0 261 109.5t91 275.5q0 106 -40 193t-122.5 141.5t-193.5 54.5
q-168 0 -258 -110.5t-90 -276.5q0 -102 39.5 -188.5t121.5 -142.5t191 -56z" />
    <glyph glyph-name="uni1ED8" unicode="&#x1ed8;" horiz-adv-x="1757" 
d="M877 -31q-229 0 -404 102t-266.5 275t-91.5 387q0 151 55 287.5t153 239.5t243.5 164t316.5 61q170 0 314 -61t240.5 -164t150.5 -240t54 -289q0 -155 -52 -292.5t-147 -242t-241.5 -166t-324.5 -61.5zM883 141q130 0 234.5 47t170.5 128t101.5 186t35.5 225
q0 115 -36 219.5t-104 187t-175.5 131t-239.5 48.5q-124 0 -227 -46.5t-170 -125.5t-104 -183.5t-37 -220.5q0 -94 22.5 -181.5t68.5 -163t110.5 -131.5t154.5 -88t195 -32zM453 1579l297 283h229l299 -283h-207l-209 186l-207 -186h-202zM965 -401h-197v239h197v-239z" />
    <glyph glyph-name="uni1ED9" unicode="&#x1ed9;" horiz-adv-x="1282" 
d="M88 518q0 112 38.5 211t109 174t176.5 118.5t233 43.5q130 0 236 -46.5t173.5 -124.5t103.5 -175t36 -201q0 -109 -35.5 -206.5t-103.5 -174t-176.5 -121.5t-243.5 -45q-127 0 -232.5 45t-173 121t-104.5 174t-37 207zM641 131q170 0 261 109.5t91 275.5q0 106 -40 193
t-122.5 141.5t-193.5 54.5q-168 0 -258 -110.5t-90 -276.5q0 -102 39.5 -188.5t121.5 -142.5t191 -56zM276 1229l267 330h196l267 -330h-183l-184 225l-178 -225h-185zM739 -401h-196v239h196v-239z" />
    <glyph glyph-name="uni1EDA" unicode="&#x1eda;" horiz-adv-x="1757" 
d="M1430 1642h180q14 -41 14 -116q0 -92 -46 -164.5t-138 -106.5q98 -103 150 -238t52 -286q0 -155 -52 -292.5t-147 -242t-241.5 -166t-324.5 -61.5q-229 0 -404 102t-266.5 275t-91.5 387q0 151 55 287.5t153 239.5t243.5 164t316.5 61q242 0 428 -121q139 27 139 160
q0 63 -20 118zM883 141q130 0 234.5 47t170.5 128t101.5 186t35.5 225q0 115 -36 219.5t-104 187t-175.5 131t-239.5 48.5q-124 0 -227 -46.5t-170 -125.5t-104 -183.5t-37 -220.5q0 -94 22.5 -181.5t68.5 -163t110.5 -131.5t154.5 -88t195 -32zM731 1606l346 284h264
l-405 -284h-205z" />
    <glyph glyph-name="uni1EDB" unicode="&#x1edb;" horiz-adv-x="1282" 
d="M1092 1227h180q14 -41 14 -117q0 -93 -47.5 -165.5t-140.5 -106.5q96 -140 96 -320q0 -109 -35.5 -206.5t-103.5 -174t-176.5 -121.5t-243.5 -45q-127 0 -232.5 45t-173 121t-104.5 174t-37 207q0 112 38.5 211t109 174t176.5 118.5t233 43.5q204 0 346 -113
q121 32 121 156q0 64 -20 119zM641 131q170 0 261 109.5t91 275.5q0 106 -40 193t-122.5 141.5t-193.5 54.5q-168 0 -258 -110.5t-90 -276.5q0 -102 39.5 -188.5t121.5 -142.5t191 -56zM514 1233l283 328h235l-336 -328h-182z" />
    <glyph glyph-name="uni1EDC" unicode="&#x1edc;" horiz-adv-x="1757" 
d="M1430 1642h180q14 -41 14 -116q0 -92 -46 -164.5t-138 -106.5q98 -103 150 -238t52 -286q0 -155 -52 -292.5t-147 -242t-241.5 -166t-324.5 -61.5q-229 0 -404 102t-266.5 275t-91.5 387q0 151 55 287.5t153 239.5t243.5 164t316.5 61q242 0 428 -121q139 27 139 160
q0 63 -20 118zM883 141q130 0 234.5 47t170.5 128t101.5 186t35.5 225q0 115 -36 219.5t-104 187t-175.5 131t-239.5 48.5q-124 0 -227 -46.5t-170 -125.5t-104 -183.5t-37 -220.5q0 -94 22.5 -181.5t68.5 -163t110.5 -131.5t154.5 -88t195 -32zM391 1890h273l350 -284h-201
z" />
    <glyph glyph-name="uni1EDD" unicode="&#x1edd;" horiz-adv-x="1282" 
d="M1092 1227h180q14 -41 14 -117q0 -93 -47.5 -165.5t-140.5 -106.5q96 -140 96 -320q0 -109 -35.5 -206.5t-103.5 -174t-176.5 -121.5t-243.5 -45q-127 0 -232.5 45t-173 121t-104.5 174t-37 207q0 112 38.5 211t109 174t176.5 118.5t233 43.5q204 0 346 -113
q121 32 121 156q0 64 -20 119zM641 131q170 0 261 109.5t91 275.5q0 106 -40 193t-122.5 141.5t-193.5 54.5q-168 0 -258 -110.5t-90 -276.5q0 -102 39.5 -188.5t121.5 -142.5t191 -56zM616 1233l-340 328h236l289 -328h-185z" />
    <glyph glyph-name="uni1EDE" unicode="&#x1ede;" horiz-adv-x="1757" 
d="M1430 1642h180q14 -41 14 -116q0 -92 -46 -164.5t-138 -106.5q98 -103 150 -238t52 -286q0 -155 -52 -292.5t-147 -242t-241.5 -166t-324.5 -61.5q-229 0 -404 102t-266.5 275t-91.5 387q0 151 55 287.5t153 239.5t243.5 164t316.5 61q242 0 428 -121q139 27 139 160
q0 63 -20 118zM883 141q130 0 234.5 47t170.5 128t101.5 186t35.5 225q0 115 -36 219.5t-104 187t-175.5 131t-239.5 48.5q-124 0 -227 -46.5t-170 -125.5t-104 -183.5t-37 -220.5q0 -94 22.5 -181.5t68.5 -163t110.5 -131.5t154.5 -88t195 -32zM698 1802l-41 109
q89 59 209 59q102 0 157.5 -50t55.5 -132q0 -34 -10.5 -65.5t-30 -58.5t-35.5 -44t-40 -39h-172q64 55 94 96.5t30 81.5q0 35 -21.5 57.5t-66.5 22.5q-73 0 -129 -37z" />
    <glyph glyph-name="uni1EDF" unicode="&#x1edf;" horiz-adv-x="1282" 
d="M1092 1227h180q14 -41 14 -117q0 -93 -47.5 -165.5t-140.5 -106.5q96 -140 96 -320q0 -109 -35.5 -206.5t-103.5 -174t-176.5 -121.5t-243.5 -45q-127 0 -232.5 45t-173 121t-104.5 174t-37 207q0 112 38.5 211t109 174t176.5 118.5t233 43.5q204 0 346 -113
q121 32 121 156q0 64 -20 119zM641 131q170 0 261 109.5t91 275.5q0 106 -40 193t-122.5 141.5t-193.5 54.5q-168 0 -258 -110.5t-90 -276.5q0 -102 39.5 -188.5t121.5 -142.5t191 -56zM477 1419l-41 109q89 59 209 59q102 0 157.5 -50t55.5 -132q0 -44 -21 -87.5t-42 -66.5
t-54 -53h-172q64 55 94.5 96.5t30.5 81.5q0 35 -21.5 57.5t-66.5 22.5q-73 0 -129 -37z" />
    <glyph glyph-name="uni1EE0" unicode="&#x1ee0;" horiz-adv-x="1757" 
d="M1430 1642h180q14 -41 14 -116q0 -92 -46 -164.5t-138 -106.5q98 -103 150 -238t52 -286q0 -155 -52 -292.5t-147 -242t-241.5 -166t-324.5 -61.5q-229 0 -404 102t-266.5 275t-91.5 387q0 151 55 287.5t153 239.5t243.5 164t316.5 61q242 0 428 -121q139 27 139 160
q0 63 -20 118zM883 141q130 0 234.5 47t170.5 128t101.5 186t35.5 225q0 115 -36 219.5t-104 187t-175.5 131t-239.5 48.5q-124 0 -227 -46.5t-170 -125.5t-104 -183.5t-37 -220.5q0 -94 22.5 -181.5t68.5 -163t110.5 -131.5t154.5 -88t195 -32zM637 1618h-139v47
q0 219 188 219q58 0 130.5 -30t135 -59.5t97.5 -29.5q36 0 51.5 22t15.5 79v22h135v-43q0 -126 -47 -178.5t-133 -52.5q-58 0 -130 31t-136.5 61.5t-106.5 30.5q-61 0 -61 -88v-31z" />
    <glyph glyph-name="uni1EE1" unicode="&#x1ee1;" horiz-adv-x="1282" 
d="M1092 1227h180q14 -41 14 -117q0 -93 -47.5 -165.5t-140.5 -106.5q96 -140 96 -320q0 -109 -35.5 -206.5t-103.5 -174t-176.5 -121.5t-243.5 -45q-127 0 -232.5 45t-173 121t-104.5 174t-37 207q0 112 38.5 211t109 174t176.5 118.5t233 43.5q204 0 346 -113
q121 32 121 156q0 64 -20 119zM641 131q170 0 261 109.5t91 275.5q0 106 -40 193t-122.5 141.5t-193.5 54.5q-168 0 -258 -110.5t-90 -276.5q0 -102 39.5 -188.5t121.5 -142.5t191 -56zM440 1251h-131v52q0 213 178 213q57 0 118 -29t114 -57.5t88 -28.5q33 0 49 21t16 75
v27h129v-47q0 -123 -46.5 -175.5t-131.5 -52.5q-45 0 -93 18.5t-81.5 41t-73 41t-71.5 18.5q-64 0 -64 -80v-37z" />
    <glyph glyph-name="uni1EE2" unicode="&#x1ee2;" horiz-adv-x="1757" 
d="M1430 1642h180q14 -41 14 -116q0 -92 -46 -164.5t-138 -106.5q98 -103 150 -238t52 -286q0 -155 -52 -292.5t-147 -242t-241.5 -166t-324.5 -61.5q-229 0 -404 102t-266.5 275t-91.5 387q0 151 55 287.5t153 239.5t243.5 164t316.5 61q242 0 428 -121q139 27 139 160
q0 63 -20 118zM883 141q130 0 234.5 47t170.5 128t101.5 186t35.5 225q0 115 -36 219.5t-104 187t-175.5 131t-239.5 48.5q-124 0 -227 -46.5t-170 -125.5t-104 -183.5t-37 -220.5q0 -94 22.5 -181.5t68.5 -163t110.5 -131.5t154.5 -88t195 -32zM975 -401h-197v239h197v-239
z" />
    <glyph glyph-name="uni1EE3" unicode="&#x1ee3;" horiz-adv-x="1282" 
d="M1092 1227h180q14 -41 14 -117q0 -93 -47.5 -165.5t-140.5 -106.5q96 -140 96 -320q0 -109 -35.5 -206.5t-103.5 -174t-176.5 -121.5t-243.5 -45q-127 0 -232.5 45t-173 121t-104.5 174t-37 207q0 112 38.5 211t109 174t176.5 118.5t233 43.5q204 0 346 -113
q121 32 121 156q0 64 -20 119zM641 131q170 0 261 109.5t91 275.5q0 106 -40 193t-122.5 141.5t-193.5 54.5q-168 0 -258 -110.5t-90 -276.5q0 -102 39.5 -188.5t121.5 -142.5t191 -56zM739 -401h-196v239h196v-239z" />
    <glyph glyph-name="uni1EE4" unicode="&#x1ee4;" horiz-adv-x="1667" 
d="M193 614v840h204v-825q0 -111 25.5 -197.5t67.5 -140t101 -88.5t120 -48.5t131 -13.5q103 0 180 26t134 82.5t85.5 151.5t28.5 228v825h205v-823q0 -662 -639 -662q-149 0 -266 37.5t-202 114.5t-130 201.5t-45 291.5zM932 -401h-197v239h197v-239z" />
    <glyph glyph-name="uni1EE5" unicode="&#x1ee5;" horiz-adv-x="1286" 
d="M166 393v643h194v-606q0 -62 13 -113t41 -92.5t77.5 -64.5t116.5 -23q167 0 242.5 102t75.5 328v469h194v-733q0 -203 2 -303h-188q-4 29 -8 176q-42 -99 -127 -152t-244 -53q-84 0 -153.5 24t-123 73.5t-83 132t-29.5 192.5zM741 -401h-196v239h196v-239z" />
    <glyph glyph-name="uni1EE6" unicode="&#x1ee6;" horiz-adv-x="1667" 
d="M193 614v840h204v-825q0 -111 25.5 -197.5t67.5 -140t101 -88.5t120 -48.5t131 -13.5q103 0 180 26t134 82.5t85.5 151.5t28.5 228v825h205v-823q0 -662 -639 -662q-149 0 -266 37.5t-202 114.5t-130 201.5t-45 291.5zM655 1802l-41 109q89 59 209 59q102 0 157.5 -50
t55.5 -132q0 -34 -10.5 -65.5t-30 -58.5t-35.5 -44t-40 -39h-172q64 55 94 96.5t30 81.5q0 35 -21.5 57.5t-66.5 22.5q-73 0 -129 -37z" />
    <glyph glyph-name="uni1EE7" unicode="&#x1ee7;" horiz-adv-x="1286" 
d="M166 393v643h194v-606q0 -62 13 -113t41 -92.5t77.5 -64.5t116.5 -23q167 0 242.5 102t75.5 328v469h194v-733q0 -203 2 -303h-188q-4 29 -8 176q-42 -99 -127 -152t-244 -53q-84 0 -153.5 24t-123 73.5t-83 132t-29.5 192.5zM465 1419l-41 109q89 59 209 59
q102 0 157.5 -50t55.5 -132q0 -44 -21 -87.5t-42 -66.5t-54 -53h-172q64 55 94.5 96.5t30.5 81.5q0 35 -21.5 57.5t-66.5 22.5q-73 0 -129 -37z" />
    <glyph glyph-name="uni1EE8" unicode="&#x1ee8;" horiz-adv-x="1667" 
d="M193 614v840h204v-825q0 -111 25.5 -197.5t67.5 -140t101 -88.5t120 -48.5t131 -13.5q103 0 180 26t134 82.5t85.5 151.5t28.5 228v825h98q154 21 154 162q0 61 -21 119h180q15 -43 15 -117q0 -101 -56 -177.5t-165 -103.5v-706q0 -662 -639 -662q-149 0 -266 37.5
t-202 114.5t-130 201.5t-45 291.5zM694 1595l346 285h265l-406 -285h-205z" />
    <glyph glyph-name="uni1EE9" unicode="&#x1ee9;" horiz-adv-x="1286" 
d="M166 393v643h194v-606q0 -62 13 -113t41 -92.5t77.5 -64.5t116.5 -23q167 0 242.5 102t75.5 328v469h88q170 16 170 164q0 61 -21 119h180q15 -44 15 -117q0 -105 -60 -182.5t-178 -101.5v-615q0 -203 2 -303h-188q-4 29 -8 176q-42 -99 -127 -152t-244 -53
q-84 0 -153.5 24t-123 73.5t-83 132t-29.5 192.5zM510 1233l283 328h235l-336 -328h-182z" />
    <glyph glyph-name="uni1EEA" unicode="&#x1eea;" horiz-adv-x="1667" 
d="M193 614v840h204v-825q0 -111 25.5 -197.5t67.5 -140t101 -88.5t120 -48.5t131 -13.5q103 0 180 26t134 82.5t85.5 151.5t28.5 228v825h98q154 21 154 162q0 61 -21 119h180q15 -43 15 -117q0 -101 -56 -177.5t-165 -103.5v-706q0 -662 -639 -662q-149 0 -266 37.5
t-202 114.5t-130 201.5t-45 291.5zM362 1880h273l350 -285h-201z" />
    <glyph glyph-name="uni1EEB" unicode="&#x1eeb;" horiz-adv-x="1286" 
d="M166 393v643h194v-606q0 -62 13 -113t41 -92.5t77.5 -64.5t116.5 -23q167 0 242.5 102t75.5 328v469h88q170 16 170 164q0 61 -21 119h180q15 -44 15 -117q0 -105 -60 -182.5t-178 -101.5v-615q0 -203 2 -303h-188q-4 29 -8 176q-42 -99 -127 -152t-244 -53
q-84 0 -153.5 24t-123 73.5t-83 132t-29.5 192.5zM616 1233l-340 328h236l289 -328h-185z" />
    <glyph glyph-name="uni1EEC" unicode="&#x1eec;" horiz-adv-x="1667" 
d="M193 614v840h204v-825q0 -111 25.5 -197.5t67.5 -140t101 -88.5t120 -48.5t131 -13.5q103 0 180 26t134 82.5t85.5 151.5t28.5 228v825h98q154 21 154 162q0 61 -21 119h180q15 -43 15 -117q0 -101 -56 -177.5t-165 -103.5v-706q0 -662 -639 -662q-149 0 -266 37.5
t-202 114.5t-130 201.5t-45 291.5zM655 1802l-41 109q89 59 209 59q102 0 157.5 -50t55.5 -132q0 -34 -10.5 -65.5t-30 -58.5t-35.5 -44t-40 -39h-172q64 55 94 96.5t30 81.5q0 35 -21.5 57.5t-66.5 22.5q-73 0 -129 -37z" />
    <glyph glyph-name="uni1EED" unicode="&#x1eed;" horiz-adv-x="1286" 
d="M166 393v643h194v-606q0 -62 13 -113t41 -92.5t77.5 -64.5t116.5 -23q167 0 242.5 102t75.5 328v469h88q170 16 170 164q0 61 -21 119h180q15 -44 15 -117q0 -105 -60 -182.5t-178 -101.5v-615q0 -203 2 -303h-188q-4 29 -8 176q-42 -99 -127 -152t-244 -53
q-84 0 -153.5 24t-123 73.5t-83 132t-29.5 192.5zM477 1419l-41 109q89 59 209 59q102 0 157.5 -50t55.5 -132q0 -44 -21 -87.5t-42 -66.5t-54 -53h-172q64 55 94.5 96.5t30.5 81.5q0 35 -21.5 57.5t-66.5 22.5q-73 0 -129 -37z" />
    <glyph glyph-name="uni1EEE" unicode="&#x1eee;" horiz-adv-x="1667" 
d="M193 614v840h204v-825q0 -111 25.5 -197.5t67.5 -140t101 -88.5t120 -48.5t131 -13.5q103 0 180 26t134 82.5t85.5 151.5t28.5 228v825h98q154 21 154 162q0 61 -21 119h180q15 -43 15 -117q0 -101 -56 -177.5t-165 -103.5v-706q0 -662 -639 -662q-149 0 -266 37.5
t-202 114.5t-130 201.5t-45 291.5zM594 1604h-139v47q0 219 188 219q58 0 130.5 -30t135 -59.5t97.5 -29.5q36 0 51.5 21.5t15.5 78.5v23h135v-43q0 -126 -47 -179t-133 -53q-46 0 -101.5 19t-98 42.5t-91 42.5t-82.5 19q-61 0 -61 -88v-30z" />
    <glyph glyph-name="uni1EEF" unicode="&#x1eef;" horiz-adv-x="1286" 
d="M166 393v643h194v-606q0 -62 13 -113t41 -92.5t77.5 -64.5t116.5 -23q167 0 242.5 102t75.5 328v469h88q170 16 170 164q0 61 -21 119h180q15 -44 15 -117q0 -105 -60 -182.5t-178 -101.5v-615q0 -203 2 -303h-188q-4 29 -8 176q-42 -99 -127 -152t-244 -53
q-84 0 -153.5 24t-123 73.5t-83 132t-29.5 192.5zM428 1251h-131v52q0 213 178 213q57 0 118 -29t114 -57.5t88 -28.5q33 0 49 21t16 75v27h129v-47q0 -123 -46.5 -175.5t-131.5 -52.5q-45 0 -93 18.5t-81.5 41t-73 41t-71.5 18.5q-64 0 -64 -80v-37z" />
    <glyph glyph-name="uni1EF0" unicode="&#x1ef0;" horiz-adv-x="1667" 
d="M193 614v840h204v-825q0 -111 25.5 -197.5t67.5 -140t101 -88.5t120 -48.5t131 -13.5q103 0 180 26t134 82.5t85.5 151.5t28.5 228v825h98q154 21 154 162q0 61 -21 119h180q15 -43 15 -117q0 -101 -56 -177.5t-165 -103.5v-706q0 -662 -639 -662q-149 0 -266 37.5
t-202 114.5t-130 201.5t-45 291.5zM932 -401h-197v239h197v-239z" />
    <glyph glyph-name="uni1EF1" unicode="&#x1ef1;" horiz-adv-x="1286" 
d="M166 393v643h194v-606q0 -62 13 -113t41 -92.5t77.5 -64.5t116.5 -23q167 0 242.5 102t75.5 328v469h88q170 16 170 164q0 61 -21 119h180q15 -44 15 -117q0 -105 -60 -182.5t-178 -101.5v-615q0 -203 2 -303h-188q-4 29 -8 176q-42 -99 -127 -152t-244 -53
q-84 0 -153.5 24t-123 73.5t-83 132t-29.5 192.5zM741 -401h-196v239h196v-239z" />
    <glyph glyph-name="Ygrave" unicode="&#x1ef2;" horiz-adv-x="1370" 
d="M788 0h-204v553q0 19 -15 37l-610 864h246q43 -63 174.5 -252t207.5 -302t107 -167q65 111 488 721h227l-610 -868q-11 -22 -11 -35v-551zM211 1872h272l351 -285h-201z" />
    <glyph glyph-name="ygrave" unicode="&#x1ef3;" horiz-adv-x="1191" 
d="M109 -471v170q52 -8 112 -8q103 0 160 53t129 209l-479 1083h213q304 -699 370 -886h4q174 480 340 886h203l-407 -983q-49 -121 -83 -195.5t-72.5 -140.5t-70.5 -100t-76.5 -59t-92 -33t-115.5 -8q-82 0 -135 12zM543 1233l-340 328h235l289 -328h-184z" />
    <glyph glyph-name="uni1EF4" unicode="&#x1ef4;" horiz-adv-x="1370" 
d="M788 0h-204v553q0 19 -15 37l-610 864h246q43 -63 174.5 -252t207.5 -302t107 -167q65 111 488 721h227l-610 -868q-11 -22 -11 -35v-551zM784 -401h-196v239h196v-239z" />
    <glyph glyph-name="uni1EF5" unicode="&#x1ef5;" horiz-adv-x="1191" 
d="M109 -471v170q52 -8 112 -8q103 0 160 53t129 209l-479 1083h213q304 -699 370 -886h4q174 480 340 886h203l-407 -983q-49 -121 -83 -195.5t-72.5 -140.5t-70.5 -100t-76.5 -59t-92 -33t-115.5 -8q-82 0 -135 12zM1087 -401h-196v239h196v-239z" />
    <glyph glyph-name="uni1EF6" unicode="&#x1ef6;" horiz-adv-x="1370" 
d="M788 0h-204v553q0 19 -15 37l-610 864h246q43 -63 174.5 -252t207.5 -302t107 -167q65 111 488 721h227l-610 -868q-11 -22 -11 -35v-551zM506 1796l-41 109q89 59 209 59q102 0 157.5 -50t55.5 -132q0 -44 -21 -87.5t-42 -66.5t-54 -53h-172q64 55 94.5 96.5t30.5 81.5
q0 35 -21.5 57.5t-66.5 22.5q-73 0 -129 -37z" />
    <glyph glyph-name="uni1EF7" unicode="&#x1ef7;" horiz-adv-x="1191" 
d="M109 -471v170q52 -8 112 -8q103 0 160 53t129 209l-479 1083h213q304 -699 370 -886h4q174 480 340 886h203l-407 -983q-49 -121 -83 -195.5t-72.5 -140.5t-70.5 -100t-76.5 -59t-92 -33t-115.5 -8q-82 0 -135 12zM418 1419l-41 109q89 59 209 59q102 0 157.5 -50
t55.5 -132q0 -44 -21 -87.5t-42 -66.5t-54 -53h-172q64 55 94.5 96.5t30.5 81.5q0 35 -21.5 57.5t-66.5 22.5q-73 0 -129 -37z" />
    <glyph glyph-name="uni1EF8" unicode="&#x1ef8;" horiz-adv-x="1370" 
d="M788 0h-204v553q0 19 -15 37l-610 864h246q43 -63 174.5 -252t207.5 -302t107 -167q65 111 488 721h227l-610 -868q-11 -22 -11 -35v-551zM444 1604h-139v47q0 219 189 219q58 0 130 -30t134.5 -59.5t97.5 -29.5q36 0 52 21.5t16 78.5v23h135v-43q0 -126 -47 -179
t-133 -53q-46 0 -101.5 19t-98 42.5t-91 42.5t-82.5 19q-29 0 -45.5 -23t-16.5 -65v-30z" />
    <glyph glyph-name="uni1EF9" unicode="&#x1ef9;" horiz-adv-x="1191" 
d="M109 -471v170q52 -8 112 -8q103 0 160 53t129 209l-479 1083h213q304 -699 370 -886h4q174 480 340 886h203l-407 -983q-49 -121 -83 -195.5t-72.5 -140.5t-70.5 -100t-76.5 -59t-92 -33t-115.5 -8q-82 0 -135 12zM381 1251h-131v52q0 213 178 213q57 0 118 -29
t114 -57.5t88 -28.5q33 0 49 21t16 75v27h129v-47q0 -123 -46.5 -175.5t-131.5 -52.5q-45 0 -93 18.5t-81.5 41t-73.5 41t-72 18.5q-63 0 -63 -80v-37z" />
    <glyph glyph-name="uni2007" unicode="&#x2007;" horiz-adv-x="1306" 
 />
    <glyph glyph-name="uni2010" unicode="&#x2010;" horiz-adv-x="886" 
d="M117 440v168h653v-168h-653z" />
    <glyph glyph-name="figuredash" unicode="&#x2012;" horiz-adv-x="1306" 
d="M152 643v170h1003v-170h-1003z" />
    <glyph glyph-name="endash" unicode="&#x2013;" horiz-adv-x="1308" 
d="M117 440v168h1075v-168h-1075z" />
    <glyph glyph-name="emdash" unicode="&#x2014;" horiz-adv-x="2383" 
d="M117 440v168h2150v-168h-2150z" />
    <glyph glyph-name="uni2015" unicode="&#x2015;" horiz-adv-x="2383" 
d="M117 440v168h2150v-168h-2150z" />
    <glyph glyph-name="quoteleft" unicode="&#x2018;" horiz-adv-x="487" 
d="M289 938h-201q10 129 56.5 310t95.5 292h159q-41 -133 -71 -295t-39 -307z" />
    <glyph glyph-name="quoteright" unicode="&#x2019;" horiz-adv-x="487" 
d="M199 1540h200q-10 -128 -56 -310.5t-93 -293.5h-162q42 138 73 299t38 305z" />
    <glyph glyph-name="quotesinglbase" unicode="&#x201a;" horiz-adv-x="487" 
d="M199 317h200q-10 -128 -56 -310.5t-93 -293.5h-162q42 138 73 299t38 305z" />
    <glyph glyph-name="quotedblleft" unicode="&#x201c;" horiz-adv-x="866" 
d="M289 936h-201q10 129 56.5 310t95.5 292h159q-41 -133 -71 -295t-39 -307zM674 936h-201q10 129 56.5 310t95.5 292h159q-41 -133 -71 -295t-39 -307z" />
    <glyph glyph-name="quotedblright" unicode="&#x201d;" horiz-adv-x="866" 
d="M199 1540h200q-10 -128 -56 -310.5t-93 -293.5h-162q42 138 73 299t38 305zM584 1540h200q-10 -128 -56 -310.5t-93 -293.5h-162q42 138 73 299t38 305z" />
    <glyph glyph-name="quotedblbase" unicode="&#x201e;" horiz-adv-x="866" 
d="M199 317h200q-10 -128 -56 -310.5t-93 -293.5h-162q42 138 73 299t38 305zM584 317h200q-10 -128 -56 -310.5t-93 -293.5h-162q42 138 73 299t38 305z" />
    <glyph glyph-name="dagger" unicode="&#x2020;" horiz-adv-x="1107" 
d="M444 -299l13 1075l-396 -12v164l396 -13l-13 478h185l-15 -478l392 13v-164l-392 12l15 -1075h-185z" />
    <glyph glyph-name="daggerdbl" unicode="&#x2021;" horiz-adv-x="1107" 
d="M444 -299l13 483l-396 -14v162l396 -10v503l-396 -12v164l396 -14l-13 428h185l-15 -428l392 14v-164l-392 12v-503l392 10v-162l-392 14l15 -483h-185z" />
    <glyph glyph-name="bullet" unicode="&#x2022;" horiz-adv-x="862" 
d="M205 291v461h452v-461h-452z" />
    <glyph glyph-name="ellipsis" unicode="&#x2026;" horiz-adv-x="1720" 
d="M352 0h-217v336h217v-336zM934 0h-217v336h217v-336zM1509 0h-217v336h217v-336z" />
    <glyph glyph-name="perthousand" unicode="&#x2030;" horiz-adv-x="2762" 
d="M563 0h-164l959 1384h166zM1479 -25q-174 0 -270.5 111.5t-96.5 288.5q0 63 14.5 121.5t45 109t73.5 88t103.5 59t132.5 21.5q174 0 273 -105.5t99 -291.5q0 -173 -97 -287.5t-277 -114.5zM1483 111q102 0 157.5 72.5t55.5 193.5q0 124 -55 193t-160 69q-95 0 -151 -69
t-56 -193q0 -121 55.5 -193.5t153.5 -72.5zM2308 -25q-174 0 -270 111.5t-96 288.5q0 80 23.5 151t68 127t116 88.5t160.5 32.5q174 0 273.5 -105.5t99.5 -291.5q0 -83 -23.5 -154.5t-69 -127.5t-118 -88t-164.5 -32zM2312 111q102 0 157.5 72.5t55.5 193.5q0 124 -55 193
t-160 69q-95 0 -151 -69t-56 -193q0 -121 55.5 -193.5t153.5 -72.5zM446 614q-174 0 -270 111.5t-96 288.5q0 63 14.5 121.5t45 109t73.5 88t103.5 59t132.5 21.5q174 0 273 -105.5t99 -291.5q0 -83 -23.5 -154.5t-69 -127.5t-118 -88t-164.5 -32zM451 750q102 0 157.5 72.5
t55.5 193.5q0 124 -55 193t-160 69q-95 0 -151 -69t-56 -193q0 -121 55.5 -193.5t153.5 -72.5z" />
    <glyph glyph-name="uni2032" unicode="&#x2032;" horiz-adv-x="485" 
d="M258 942h-156l84 598h197z" />
    <glyph glyph-name="uni2033" unicode="&#x2033;" horiz-adv-x="854" 
d="M258 942h-156l84 598h197zM633 942h-156l84 598h197z" />
    <glyph glyph-name="guilsinglleft" unicode="&#x2039;" horiz-adv-x="776" 
d="M477 111l-379 424l379 421h199l-377 -421l379 -424h-201z" />
    <glyph glyph-name="guilsinglright" unicode="&#x203a;" horiz-adv-x="776" 
d="M299 111h-199l377 421l-379 424h201l379 -424z" />
    <glyph glyph-name="fraction" unicode="&#x2044;" horiz-adv-x="333" 
d="M-197 0h-145l877 1384h143z" />
    <glyph glyph-name="zero.sups" unicode="&#x2070;" horiz-adv-x="878" 
d="M438 903q-171 0 -269.5 118t-98.5 296q0 186 100.5 303t273.5 117q89 0 160 -33t115 -90.5t67 -131t23 -157.5q0 -195 -100.5 -308.5t-270.5 -113.5zM442 1034q201 0 201 287q0 134 -53 210.5t-150 76.5q-96 0 -150 -75.5t-54 -213.5q0 -129 57 -207t149 -78z" />
    <glyph glyph-name="four.sups" unicode="&#x2074;" horiz-adv-x="841" 
d="M61 1112v127l412 487h189v-487h145l-12 -127h-133v-199h-150v199h-451zM225 1239h287v164q0 152 4 199q-33 -48 -291 -363z" />
    <glyph glyph-name="five.sups" unicode="&#x2075;" horiz-adv-x="856" 
d="M84 1159h162q16 -53 62.5 -90t131.5 -37q99 0 144 41.5t45 112.5q0 155 -195 155q-128 0 -190 -84l-142 31q59 332 70 438h580l-23 -133h-428q-17 -117 -31 -190q74 63 209 63q149 0 233.5 -74t84.5 -196q0 -130 -93.5 -210.5t-265.5 -80.5q-159 0 -250 73.5t-104 180.5z
" />
    <glyph glyph-name="six.sups" unicode="&#x2076;" horiz-adv-x="854" 
d="M444 903q-177 0 -275.5 109t-98.5 297q0 64 12 123.5t40 115.5t69.5 97.5t106.5 66.5t146 25q141 0 223.5 -65t96.5 -150h-162q-39 94 -162 94q-194 0 -209 -242q38 43 104.5 70t156.5 26q142 -1 222.5 -76.5t80.5 -193.5q0 -130 -96.5 -213.5t-254.5 -83.5zM248 1217
q0 -33 10 -64t31.5 -61t61.5 -48t93 -18q84 0 135.5 40.5t51.5 125.5q0 76 -47.5 118t-141.5 42q-82 0 -138 -37.5t-56 -97.5z" />
    <glyph glyph-name="seven.sups" unicode="&#x2077;" horiz-adv-x="733" 
d="M324 915h-179q44 177 154.5 373.5t210.5 302.5h-479v135h655v-118q-117 -141 -217 -328t-145 -365z" />
    <glyph glyph-name="eight.sups" unicode="&#x2078;" horiz-adv-x="843" 
d="M70 1149q0 135 153 194q-58 24 -87.5 68t-29.5 100q0 100 83 163t241 63q148 0 227.5 -63.5t79.5 -153.5q0 -122 -123 -170q72 -24 116 -76t44 -121q0 -112 -100 -181t-256 -69q-164 0 -256 71.5t-92 174.5zM236 1159q0 -58 49.5 -95.5t134.5 -37.5q92 0 140 33.5
t48 95.5q0 129 -188 129q-92 0 -138 -34t-46 -91zM264 1511q0 -112 164 -112q150 0 150 110q0 52 -39.5 81.5t-114.5 29.5q-76 0 -118 -29t-42 -80z" />
    <glyph glyph-name="nine.sups" unicode="&#x2079;" horiz-adv-x="860" 
d="M80 1128h162q41 -102 176 -102q191 0 211 260q-71 -95 -252 -92q-145 1 -228 75t-83 185q0 124 95.5 203.5t252.5 79.5q181 0 279 -105t98 -297q0 -60 -11 -118t-38.5 -116t-69 -101t-107.5 -70t-149 -27q-146 0 -232.5 66.5t-103.5 158.5zM227 1464q0 -72 51 -111.5
t142 -39.5q78 0 135 32t57 97q0 75 -49 124.5t-149 49.5q-80 0 -134 -38.5t-53 -113.5z" />
    <glyph glyph-name="parenleft.sups" unicode="&#x207d;" horiz-adv-x="489" 
d="M440 752h-159q-76 80 -134.5 225.5t-58.5 320.5q0 319 193 553h159q-209 -251 -209 -553q0 -295 209 -546z" />
    <glyph glyph-name="parenright.sups" unicode="&#x207e;" horiz-adv-x="489" 
d="M49 1880h160q76 -81 134 -226.5t58 -320.5q0 -320 -192 -553h-160q211 250 211 553q0 167 -57.5 299.5t-153.5 247.5z" />
    <glyph glyph-name="n.sups" unicode="&#x207f;" horiz-adv-x="888" 
d="M260 573h-151v463q0 130 -5 217h148q6 -24 6 -118q73 135 256 135q38 0 73.5 -8t71.5 -28t62 -50.5t42.5 -79.5t16.5 -111v-420h-153v383q0 87 -36 135t-128 48q-89 0 -146 -59t-57 -162v-345z" />
    <glyph glyph-name="zero.subs" unicode="&#x2080;" horiz-adv-x="878" 
d="M438 -328q-171 0 -269.5 118t-98.5 296q0 186 100.5 303t273.5 117q89 0 160 -33t115 -90.5t67 -131t23 -157.5q0 -195 -100.5 -308.5t-270.5 -113.5zM442 -197q201 0 201 287q0 134 -53 210.5t-150 76.5q-96 0 -150 -75.5t-54 -213.5q0 -129 57 -207t149 -78z" />
    <glyph glyph-name="one.subs" unicode="&#x2081;" horiz-adv-x="503" 
d="M375 -317h-162v632q-28 -17 -86.5 -34t-89.5 -17v119q50 9 118 43.5t109 69.5h111v-813z" />
    <glyph glyph-name="two.subs" unicode="&#x2082;" horiz-adv-x="813" 
d="M741 -317h-665v10q0 113 66 204.5t218 170.5q128 68 164.5 98.5t36.5 83.5q0 52 -38.5 89.5t-119.5 37.5q-77 0 -120 -34t-58 -110h-155q13 122 100 197.5t240 75.5q84 0 147.5 -22.5t100 -60t54 -80.5t17.5 -89q0 -51 -15 -89.5t-49.5 -71t-75 -56.5t-108.5 -57
q-93 -48 -136.5 -82t-65.5 -82h487z" />
    <glyph glyph-name="three.subs" unicode="&#x2083;" horiz-adv-x="811" 
d="M49 -63h158q38 -140 201 -140q88 0 135 33t47 96q0 69 -52 97t-155 28h-70v121h64q104 0 140 21.5t36 76.5q0 47 -35 79t-119 32q-80 0 -119 -31.5t-55 -85.5h-147q3 26 11 52t30.5 62t56 63t92.5 46t135 19q147 0 228.5 -62.5t81.5 -167.5q0 -66 -35.5 -105.5
t-87.5 -51.5q65 -13 113.5 -64.5t48.5 -126.5q0 -108 -87 -181t-264 -73q-77 0 -139 18.5t-99.5 46.5t-63.5 65t-36.5 69.5t-13.5 63.5z" />
    <glyph glyph-name="four.subs" unicode="&#x2084;" horiz-adv-x="841" 
d="M61 -119v127l412 488h189v-488h145l-12 -127h-133v-198h-150v198h-451zM225 8h287v164q0 152 4 199q-33 -48 -291 -363z" />
    <glyph glyph-name="five.subs" unicode="&#x2085;" horiz-adv-x="856" 
d="M84 -72h162q16 -53 62.5 -90t131.5 -37q99 0 144 41.5t45 112.5q0 156 -195 156q-128 0 -190 -84l-142 30q58 330 70 439h580l-23 -134h-428q-17 -117 -31 -190q75 64 209 64q148 0 233 -74.5t85 -196.5q0 -130 -93.5 -210.5t-265.5 -80.5q-159 0 -250 73.5t-104 180.5z
" />
    <glyph glyph-name="six.subs" unicode="&#x2086;" horiz-adv-x="854" 
d="M444 -328q-177 0 -275.5 109t-98.5 297q0 64 12 123.5t40 115.5t69.5 97.5t106.5 66.5t146 25q141 0 223.5 -65t96.5 -150h-162q-39 94 -162 94q-194 0 -209 -242q38 43 104.5 70.5t156.5 26.5q142 -1 222.5 -77t80.5 -194q0 -130 -96.5 -213.5t-254.5 -83.5zM248 -14
q0 -33 10 -64t31.5 -61t61.5 -48t93 -18q84 0 135.5 40.5t51.5 125.5q0 76 -47.5 118t-141.5 42q-82 0 -138 -37.5t-56 -97.5z" />
    <glyph glyph-name="seven.subs" unicode="&#x2087;" horiz-adv-x="733" 
d="M324 -315h-179q44 177 154.5 372.5t210.5 302.5h-479v136h655v-119q-117 -142 -217 -328t-145 -364z" />
    <glyph glyph-name="eight.subs" unicode="&#x2088;" horiz-adv-x="843" 
d="M70 -82q0 136 153 195q-58 24 -87.5 68t-29.5 100q0 100 83 162.5t241 62.5q148 0 227.5 -63.5t79.5 -153.5q0 -122 -123 -170q72 -24 116 -76t44 -121q0 -112 -100 -181t-256 -69q-164 0 -256 71.5t-92 174.5zM236 -72q0 -58 49.5 -95.5t134.5 -37.5q92 0 140 33.5
t48 95.5q0 129 -188 129q-92 0 -138 -34t-46 -91zM264 281q0 -113 164 -113q150 0 150 111q0 52 -39.5 81t-114.5 29q-76 0 -118 -28.5t-42 -79.5z" />
    <glyph glyph-name="nine.subs" unicode="&#x2089;" horiz-adv-x="860" 
d="M80 -102h162q17 -42 59 -72.5t117 -30.5q191 0 211 260q-71 -95 -252 -92q-145 1 -228 75t-83 185q0 124 95.5 203.5t252.5 79.5q181 0 279 -105t98 -297q0 -60 -11 -118t-38.5 -116t-69 -101t-107.5 -70t-149 -27q-146 0 -232.5 67t-103.5 159zM227 233q0 -72 51 -111.5
t142 -39.5q78 0 135 32t57 97q0 75 -49 124.5t-149 49.5q-80 0 -134 -38.5t-53 -113.5z" />
    <glyph glyph-name="parenleft.subs" unicode="&#x208d;" horiz-adv-x="489" 
d="M440 -479h-159q-76 79 -134.5 225t-58.5 322q0 319 193 553h159q-209 -251 -209 -553q0 -296 209 -547z" />
    <glyph glyph-name="parenright.subs" unicode="&#x208e;" horiz-adv-x="489" 
d="M49 649h160q76 -81 134 -226.5t58 -320.5q0 -320 -192 -553h-160q211 250 211 553q0 167 -57.5 299.5t-153.5 247.5z" />
    <glyph glyph-name="colonmonetary" unicode="&#x20a1;" horiz-adv-x="1280" 
d="M606 -213h-112v217q-181 57 -280 233t-99 449q0 277 99.5 453t279.5 237v164h112v-137q54 4 82 4h19v133h112v-145q158 -33 251 -135t106 -220h-189q-39 140 -168 187v-1069q63 23 106 69t68 125h187q-76 -301 -361 -360v-205h-112v190h-35q-16 0 -66 5v-195zM494 188
v1010q-181 -114 -181 -510q0 -379 181 -500zM707 137v1110h-29q-38 0 -72 -6v-1098q30 -6 68 -6h33z" />
    <glyph glyph-name="franc" unicode="&#x20a3;" horiz-adv-x="1253" 
d="M51 268v144h185v972h903v-170h-711v-407h670v-170h-670v-225h260v-144h-260v-268h-192v268h-185z" />
    <glyph glyph-name="lira" unicode="&#x20a4;" horiz-adv-x="1249" 
d="M1202 0h-1096v145q156 76 170 357h-204v127h204q-4 82 -8 131h-196v129h190v47q0 217 115.5 347t337.5 130q104 0 187 -30t134 -81.5t80 -112.5t35 -130h-190q-19 90 -83.5 141t-168.5 51q-250 0 -250 -309v-53h362v-129h-356q4 -90 6 -131h350v-127h-352
q-12 -219 -111 -332h869z" />
    <glyph glyph-name="uni20A6" unicode="&#x20a6;" horiz-adv-x="1368" 
d="M373 0h-170v514h-121v129h121v150h-121v127h121v464h270l201 -464h303v464h170v-464h121v-127h-121v-150h121v-129h-121v-514h-260l-221 514h-293v-514zM848 514l135 -315h12q-13 155 -16 315h-131zM373 920h119l-123 288h-9q9 -85 13 -288zM793 643h184v150h-250z
M373 643h237l-63 150h-174v-150z" />
    <glyph glyph-name="peseta" unicode="&#x20a7;" horiz-adv-x="1341" 
d="M397 0h-190v858h-139v141h139v385h465q197 0 335 -103t162 -282h115v-141h-117q-26 -185 -172 -287t-366 -102h-232v-469zM397 858v-235h230q308 0 348 235h-578zM397 1233v-234h578q-18 108 -99 171t-227 63h-252z" />
    <glyph glyph-name="dong" unicode="&#x20ab;" horiz-adv-x="1353" 
d="M150 -319v143h970v-143h-970zM1135 0h-179q-10 38 -10 158q-34 -58 -79 -97t-121 -63.5t-179 -24.5q-131 0 -238.5 66.5t-167 179.5t-59.5 248q0 120 42 219t111.5 162.5t157 98t181.5 34.5q145 0 228.5 -44.5t119.5 -107.5v285h-491v143h491v144h191v-144h163v-143h-163
v-817q0 -199 2 -297zM606 131q160 0 253 90t93 262q0 159 -85.5 251.5t-241.5 92.5q-107 0 -182.5 -50t-109.5 -128.5t-34 -175.5q0 -64 20 -124.5t57 -109.5t97 -78.5t133 -29.5z" />
    <glyph glyph-name="Euro" unicode="&#x20ac;" horiz-adv-x="1341" 
d="M84 504v127h137q-2 18 -2 55q0 34 4 92h-139v127h154q45 243 189 375.5t353 132.5q109 0 196.5 -31.5t143.5 -85t89 -118.5t44 -138h-186q-38 105 -107 159t-190 54q-274 0 -338 -348h432v-127h-446q-2 -29 -2 -90q0 -39 2 -57h446v-127h-434q28 -176 114.5 -271.5
t221.5 -95.5q111 0 183 45t118 154h188q-49 -171 -172.5 -268t-320.5 -97q-220 0 -357 141t-174 392h-147z" />
    <glyph glyph-name="uni20B1" unicode="&#x20b1;" horiz-adv-x="1386" 
d="M422 0h-189v743h-151v117h151v113h-151v117h151v294h453q167 0 296.5 -77.5t180.5 -216.5h144v-117h-115q2 -18 2 -58q0 -37 -2 -55h115v-117h-142q-54 -144 -189 -225.5t-319 -81.5h-235v-436zM422 743v-153h240q228 0 303 153h-543zM422 1231v-141h534
q-82 141 -282 141h-252zM422 860h575q2 16 2 53q0 24 -4 60h-573v-113z" />
    <glyph glyph-name="uni20B2" unicode="&#x20b2;" horiz-adv-x="1323" 
d="M604 -213v193q-162 24 -273.5 122t-163.5 247t-52 343q0 301 130 492.5t359 220.5v149h135v-145q104 -7 188 -41.5t137 -87.5t83.5 -115.5t38.5 -130.5h-197q-58 189 -250 211v-1112q133 5 234 55v480h198v-580q-105 -50 -206 -80.5t-226 -34.5v-186h-135zM604 145v1096
q-77 -16 -134 -65t-89.5 -123.5t-48 -161.5t-15.5 -189q0 -105 15.5 -193.5t48 -164t89 -127t134.5 -72.5z" />
    <glyph glyph-name="uni20B4" unicode="&#x20b4;" horiz-adv-x="1275" 
d="M74 520v127h227q110 71 291 133h-494v129h762q51 51 51 135q0 88 -70.5 153t-199.5 65q-227 0 -287 -187h-188q29 154 152.5 247t324.5 93q118 0 209.5 -34.5t143 -89.5t77 -116t25.5 -122q0 -84 -25 -144h113v-129h-232q-95 -64 -272 -123q-5 -2 -15.5 -5t-15.5 -5h508
v-127h-756q-74 -63 -71 -158q0 -94 81 -162.5t210 -68.5q83 0 144.5 16.5t99 47.5t59 63.5t37.5 75.5h190q-38 -167 -169 -265t-370 -98q-208 0 -342.5 109.5t-134.5 273.5q0 97 39 166h-102z" />
    <glyph glyph-name="uni20B5" unicode="&#x20b5;" horiz-adv-x="1267" 
d="M733 -213h-135v195q-228 28 -355.5 214.5t-127.5 493.5q0 304 127.5 491.5t355.5 219.5v153h135v-149q104 -6 187 -43t135 -93.5t82 -118.5t39 -128h-193q-58 198 -250 219v-1098q187 21 256 215h191q-18 -75 -52.5 -137.5t-87.5 -114.5t-131.5 -85t-175.5 -41v-193z
M598 147v1090q-285 -56 -285 -545q0 -221 74.5 -366.5t210.5 -178.5z" />
    <glyph glyph-name="uni20B9" unicode="&#x20b9;" horiz-adv-x="1306" 
d="M379 551h-242v141h293q68 0 128.5 16t111.5 49t81.5 91t30.5 135v12h-645v129h606q-81 127 -313 127h-293v133h1067v-129h-354q69 -59 96 -131h258v-129h-229v-20q0 -163 -103 -265.5t-268 -140.5l502 -569h-238z" />
    <glyph glyph-name="uni20BA" unicode="&#x20ba;" horiz-adv-x="1333" 
d="M506 0h-191v565l-223 -88v146l223 88v151l-223 -88v146l223 88v376h195v-299l307 121v-145l-307 -121v-152l307 121v-143l-307 -123v-485q237 1 364 122.5t160 352.5h187q-41 -318 -222 -475.5t-493 -157.5z" />
    <glyph glyph-name="uni20BD" unicode="&#x20bd;" horiz-adv-x="1320" 
d="M61 299v131h183v154h-183v145h183v655h483q226 0 352.5 -108.5t126.5 -286.5q0 -198 -130.5 -301.5t-368.5 -103.5h-258v-154h405v-131h-405v-299h-205v299h-183zM449 1231v-502h233q155 0 235 59.5t80 192.5q0 119 -74.5 184.5t-230.5 65.5h-243z" />
    <glyph glyph-name="uni2113" unicode="&#x2113;" horiz-adv-x="919" 
d="M63 344l-49 131q20 13 78.5 48.5t89.5 56.5v516q0 115 26 197t72.5 127t102 65t123.5 20q148 0 224.5 -88.5t76.5 -245.5q0 -194 -98.5 -351t-331.5 -318v-148q0 -124 35 -171.5t106 -47.5q72 0 112 42t58 147h178q-21 -171 -109 -259t-253 -88q-320 0 -320 349v92
q-17 -13 -36.5 -25t-47 -27.5t-37.5 -21.5zM377 1110v-418q138 119 195 234t57 243q0 189 -121 189q-67 0 -99 -55.5t-32 -192.5z" />
    <glyph glyph-name="uni2116" unicode="&#x2116;" horiz-adv-x="2355" 
d="M369 0h-189v1413h262q572 -901 657 -1045q56 -95 75 -139h2q-4 49 -6.5 104.5t-4 97.5t-2 111.5t-0.5 103.5v119.5v115.5v532h189v-1413h-240q-699 1130 -756 1231h-2q15 -207 15 -701v-530zM1554 236v139h644v-139h-644zM1874 506q-167 0 -274 115.5t-107 302.5
q0 182 107.5 297.5t275.5 115.5q180 0 283.5 -115.5t103.5 -297.5q0 -185 -106 -301.5t-283 -116.5zM1880 647q101 0 160 72t59 205t-60 204.5t-163 71.5q-98 0 -158.5 -73t-60.5 -203q0 -127 62.5 -202t160.5 -75z" />
    </font>
</defs>
</svg>
