<?xml version="1.0" standalone="no"?>
<!DOCTYPE svg PUBLIC "-//W3C//DTD SVG 1.1//EN" "http://www.w3.org/Graphics/SVG/1.1/DTD/svg11.dtd" >
<svg xmlns="http://www.w3.org/2000/svg" xmlns:xlink="http://www.w3.org/1999/xlink" version="1.1">
<metadata>
Created by FontForge 20170731 at Wed Dec 29 09:54:43 2021
 By Aleksey,,,
(c) 2014 Adobe Systems Incorporated. All Rights Reserved.
</metadata>
<defs>
<font id="AcuminProWide-UltraBlack" horiz-adv-x="819" >
  <font-face 
    font-family="Acumin Pro Wide"
    font-weight="950"
    font-stretch="expanded"
    units-per-em="2048"
    panose-1="2 11 10 5 2 2 2 2 2 4"
    ascent="1505"
    descent="-543"
    x-height="1094"
    cap-height="1442"
    bbox="-610 -600 3281 2302"
    underline-thickness="102"
    underline-position="-307"
    unicode-range="U+000D-FB02"
  />
<missing-glyph horiz-adv-x="1024" 
d="M1024 0h-1024v1434h1024v-1434zM512 625l-348 -523h696zM164 1331l348 -522l348 522h-696zM102 1239v-1044l349 522zM573 717l349 -522v1044z" />
    <glyph glyph-name="f_f" unicode="ff" horiz-adv-x="1914" 
d="M172 0v750h-145v344h145v2q0 122 36.5 206t108.5 130.5t163.5 66t217.5 19.5q128 0 209 -19v-295q-31 2 -41 2q-39 0 -54 -17.5t-15 -51.5v-43h295v2q0 119 34.5 202t102.5 130.5t158 68.5t212 21q145 0 226 -19v-295q-29 2 -39 2q-39 0 -54.5 -17t-15.5 -50v-45h172
v-344h-172v-750h-624v750h-295v-750h-625z" />
    <glyph glyph-name=".notdef" horiz-adv-x="1024" 
d="M1024 0h-1024v1434h1024v-1434zM512 625l-348 -523h696zM164 1331l348 -522l348 522h-696zM102 1239v-1044l349 522zM573 717l349 -522v1044z" />
    <glyph glyph-name=".null" horiz-adv-x="0" 
 />
    <glyph glyph-name="nonmarkingreturn" horiz-adv-x="682" 
 />
    <glyph glyph-name="NULL" horiz-adv-x="0" 
 />
    <glyph glyph-name="NULL" horiz-adv-x="0" 
 />
    <glyph glyph-name="CR" unicode="&#xd;" horiz-adv-x="471" 
 />
    <glyph glyph-name="space" unicode=" " horiz-adv-x="471" 
 />
    <glyph glyph-name="exclam" unicode="!" horiz-adv-x="913" 
d="M786 0h-559v487h559v-487zM758 590h-488l-71 569v283h624v-299z" />
    <glyph glyph-name="quotedbl" unicode="&#x22;" horiz-adv-x="997" 
d="M399 768h-282l-41 461v268h366v-283zM879 768h-283l-41 461v268h367v-283z" />
    <glyph glyph-name="numbersign" unicode="#" horiz-adv-x="1576" 
d="M199 0l49 211h-152v381h242l47 194h-174v381h264l55 234h308l-54 -234h220l55 234h307l-53 -234h162l-2 -381h-248l-45 -194h184v-381h-272l-50 -211h-315l49 211h-215l-49 -211h-313zM649 592h217l47 194h-219z" />
    <glyph glyph-name="dollar" unicode="$" horiz-adv-x="1581" 
d="M963 -152h-375v146q-122 17 -219.5 57t-162 94.5t-103 118.5t-50.5 135h553q19 -48 65 -74t136 -26q72 0 96.5 17t24.5 44q0 29 -50 49.5t-196 45.5q-148 25 -257.5 65.5t-172 84.5t-100 100t-49 105t-11.5 108q0 175 125 298.5t379 157.5v117h375v-121
q214 -34 343.5 -135.5t143.5 -243.5h-526q-8 26 -19 44t-46 35t-89 17q-112 0 -112 -59q0 -19 12 -31.5t64.5 -29t156.5 -35.5q151 -27 261 -65.5t175.5 -80.5t104.5 -97t52 -107t13 -119q0 -190 -138.5 -314t-403.5 -157v-144z" />
    <glyph glyph-name="percent" unicode="%" horiz-adv-x="2314" 
d="M1296 387q0 201 123 317.5t365 116.5q123 0 216.5 -35t147 -95t79.5 -130.5t26 -150.5q0 -112 -36.5 -198t-101.5 -138.5t-150 -78.5t-187 -26q-235 0 -358.5 113.5t-123.5 304.5zM1780 242q39 0 59.5 31.5t20.5 117.5q0 93 -20 128.5t-64 35.5q-84 0 -84 -158
q0 -90 21.5 -122.5t66.5 -32.5zM59 965q0 201 123 317.5t365 116.5q99 0 179.5 -23.5t133.5 -63t89 -93t51.5 -111.5t15.5 -121q0 -112 -36.5 -197.5t-101.5 -138t-150 -78.5t-187 -26q-235 0 -358.5 113.5t-123.5 304.5zM543 819q39 0 59.5 32t20.5 118q0 93 -20 128.5
t-64 35.5q-84 0 -84 -158q0 -90 21.5 -123t66.5 -33zM825 -20h-264l907 1390h263z" />
    <glyph glyph-name="ampersand" unicode="&#x26;" horiz-adv-x="2021" 
d="M1294 0l-108 86q-206 -113 -494 -113q-312 0 -477.5 121.5t-165.5 323.5q0 124 74 202t223 144q-72 59 -105.5 135t-33.5 152q0 77 31.5 146t97.5 128t185 94t278 35q135 0 248 -31.5t187 -85.5t114.5 -124t40.5 -148q0 -29 -5.5 -55t-13.5 -46.5t-22 -40.5t-26.5 -34.5
t-33 -30t-34.5 -24.5t-37.5 -21t-36 -18t-36.5 -16.5t-32 -14.5l139 -119l195 244h534l-432 -494l469 -395h-723zM881 326l-291 229q-33 -33 -33 -82q0 -73 60 -117.5t163 -44.5q39 0 101 15zM844 950q39 24 59.5 56.5t20.5 64.5q0 49 -29 76t-74 27q-37 0 -61.5 -22.5
t-24.5 -61.5q0 -37 24 -68t85 -72z" />
    <glyph glyph-name="quotesingle" unicode="'" horiz-adv-x="538" 
d="M424 768h-307l-41 461v268h387v-283z" />
    <glyph glyph-name="parenleft" unicode="(" horiz-adv-x="858" 
d="M858 -367h-459q-148 169 -236.5 413.5t-88.5 533.5q0 283 89.5 516t235.5 401h459q-143 -192 -234.5 -426t-91.5 -493q0 -255 85.5 -497t240.5 -448z" />
    <glyph glyph-name="parenright" unicode=")" horiz-adv-x="858" 
d="M4 1497h459q148 -169 236.5 -413t88.5 -533q0 -283 -89.5 -516.5t-235.5 -401.5h-459q142 191 234 425.5t92 494.5q0 255 -85.5 496t-240.5 448z" />
    <glyph glyph-name="asterisk" unicode="*" horiz-adv-x="1079" 
d="M207 592l-189 303l404 86l-402 82l187 305l274 -281l-121 355h371l-123 -357l277 283l186 -305l-379 -86l379 -82l-190 -303l-256 274l106 -348h-371l121 356z" />
    <glyph glyph-name="plus" unicode="+" horiz-adv-x="1406" 
d="M96 403v359h422v420h373v-420h420v-359h-420v-403h-373v403h-422z" />
    <glyph glyph-name="comma" unicode="," horiz-adv-x="722" 
d="M154 530h489q-22 -183 -100.5 -391.5t-165.5 -335.5h-381q54 139 98.5 342.5t59.5 384.5z" />
    <glyph glyph-name="hyphen" unicode="-" horiz-adv-x="915" 
d="M70 326v430h776v-430h-776z" />
    <glyph glyph-name="period" unicode="." horiz-adv-x="698" 
d="M608 0h-518v530h518v-530z" />
    <glyph glyph-name="slash" unicode="/" horiz-adv-x="925" 
d="M379 -70h-369l533 1530h372z" />
    <glyph glyph-name="zero" unicode="0" horiz-adv-x="1642" 
d="M76 690q0 124 25.5 229t82.5 195t142 153t210.5 98.5t282.5 35.5q148 0 271.5 -37.5t210.5 -103t148 -154.5t89.5 -192.5t28.5 -217.5q0 -122 -24 -227.5t-80 -198t-140 -158t-211 -103.5t-287 -38q-138 0 -251.5 26t-194.5 75t-140.5 114t-94.5 147t-51.5 170t-16.5 187
zM819 313q71 0 95 91t24 294q0 103 -2 151t-12 106.5t-34.5 81t-66.5 22.5q-40 0 -65.5 -25t-37.5 -78.5t-16 -111t-4 -148.5q0 -204 22.5 -293.5t96.5 -89.5z" />
    <glyph glyph-name="one" unicode="1" horiz-adv-x="1013" 
d="M856 0h-616v874q-99 9 -183 31v314q242 21 349 153h450v-1372z" />
    <glyph glyph-name="two" unicode="2" horiz-adv-x="1593" 
d="M1479 0h-1377v33q0 109 25.5 204t85 191.5t169.5 185.5t267 166q143 69 183 101.5t40 79.5q0 49 -30 72.5t-80 23.5q-70 0 -98 -40t-35 -112h-541q6 109 50 197.5t127.5 156.5t219 105t314.5 37q327 0 513.5 -117.5t186.5 -341.5q0 -68 -19.5 -123.5t-50.5 -95.5
t-86.5 -77.5t-111 -63.5t-139.5 -60q-92 -36 -166.5 -78t-94.5 -65h715z" />
    <glyph glyph-name="three" unicode="3" horiz-adv-x="1562" 
d="M49 401h576q12 -56 40.5 -81t82.5 -25q49 0 76.5 33t27.5 88q0 65 -35 98t-131 33h-143v327h143q87 0 117.5 25t30.5 80q0 49 -27.5 73.5t-73.5 24.5q-33 0 -55.5 -9t-34 -25.5t-16.5 -30t-9 -33.5h-548q9 66 35 124.5t80 114t130 95.5t192 64t259 24q325 0 496.5 -105.5
t171.5 -285.5q0 -197 -230 -265v-4q291 -81 291 -323q0 -211 -187.5 -329t-521.5 -118q-180 0 -317.5 32t-224 91t-134.5 135.5t-61 171.5z" />
    <glyph glyph-name="four" unicode="4" horiz-adv-x="1609" 
d="M68 260v361l542 751h756v-725h203l-45 -387h-158v-260h-584v260h-714zM592 647h190v33q0 142 11 324q-117 -230 -201 -357z" />
    <glyph glyph-name="five" unicode="5" horiz-adv-x="1589" 
d="M74 406h569q9 -39 39 -66t86 -27q47 0 80 33.5t33 97.5q0 63 -31 99.5t-96 36.5q-108 0 -146 -82l-510 49q73 359 123 825h1249l-73 -393h-699l-16 -117q121 47 289 47q92 0 174 -16t152 -51t121 -85.5t79.5 -123t28.5 -160.5q0 -253 -190.5 -377.5t-542.5 -124.5
q-317 0 -505.5 117.5t-213.5 317.5z" />
    <glyph glyph-name="six" unicode="6" horiz-adv-x="1665" 
d="M76 676q0 122 27.5 228.5t87 199t147.5 158.5t216 103.5t286 37.5q115 0 213 -15.5t166.5 -41t124 -61.5t89.5 -73t58 -79t35 -76t16 -68h-584q-13 39 -40 58.5t-80 19.5q-69 0 -104 -52t-36 -165q125 78 353 78q247 0 396.5 -114.5t149.5 -321.5q0 -136 -61 -239
t-167.5 -163.5t-238.5 -90.5t-286 -30q-384 0 -576 184t-192 523zM834 311q64 0 99.5 43t35.5 107q0 71 -35 111t-98 40q-61 0 -100.5 -35.5t-39.5 -107.5q0 -73 36 -115.5t102 -42.5z" />
    <glyph glyph-name="seven" unicode="7" horiz-adv-x="1464" 
d="M915 0h-677q29 150 94 305.5t143 279.5t155 219t142 150h-719v418h1366v-352q-172 -193 -306 -458.5t-198 -561.5z" />
    <glyph glyph-name="eight" unicode="8" horiz-adv-x="1632" 
d="M70 408q0 109 63.5 180t179.5 117q-196 102 -196 278q0 197 183 308.5t511 111.5q318 0 506 -113.5t188 -298.5q0 -180 -194 -262q46 -18 87.5 -44t81.5 -64.5t63.5 -93t23.5 -117.5q0 -119 -59 -206.5t-165.5 -137.5t-240 -73.5t-297.5 -23.5q-343 0 -539 118t-196 321z
M662 418q0 -56 41.5 -90.5t117.5 -34.5q70 0 110 32.5t40 88.5q0 58 -39 91.5t-123 33.5q-76 0 -111.5 -36t-35.5 -85zM668 971q0 -113 145 -113q68 0 101.5 31t33.5 78q0 59 -37.5 86.5t-101.5 27.5q-61 0 -101 -25.5t-40 -84.5z" />
    <glyph glyph-name="nine" unicode="9" horiz-adv-x="1619" 
d="M778 -31q-146 0 -263.5 28t-190.5 71t-125.5 101t-76.5 109t-34 105h582q22 -84 118 -84q127 0 134 225q-99 -71 -308 -71q-261 0 -404.5 117.5t-143.5 314.5q0 164 96 283t253.5 177t354.5 58q140 0 255.5 -24.5t199.5 -70.5t146 -108t99.5 -141t55.5 -165.5t18 -184.5
q0 -71 -8 -138t-30.5 -142.5t-58.5 -140t-95.5 -124.5t-137.5 -102t-189.5 -67.5t-246.5 -25.5zM817 782q56 0 88.5 35t32.5 101q0 157 -123 157q-38 0 -65 -13.5t-40.5 -36.5t-19.5 -47t-6 -50q0 -65 32.5 -105.5t100.5 -40.5z" />
    <glyph glyph-name="colon" unicode=":" horiz-adv-x="757" 
d="M627 0h-496v469h496v-469zM627 625h-496v469h496v-469z" />
    <glyph glyph-name="semicolon" unicode=";" horiz-adv-x="796" 
d="M152 477h489q-17 -184 -88 -374t-168 -320h-381q59 152 102 354.5t46 339.5zM647 625h-495v469h495v-469z" />
    <glyph glyph-name="less" unicode="&#x3c;" horiz-adv-x="1251" 
d="M440 602l715 -233v-392l-1059 402v444l1059 424v-389z" />
    <glyph glyph-name="equal" unicode="=" horiz-adv-x="1406" 
d="M96 102v359h1215v-359h-1215zM96 705v358h1215v-358h-1215z" />
    <glyph glyph-name="greater" unicode="&#x3e;" horiz-adv-x="1251" 
d="M96 -23v390l715 258l-715 231v391l1059 -401v-445z" />
    <glyph glyph-name="question" unicode="?" horiz-adv-x="1411" 
d="M1010 0h-602v406h602v-406zM1006 508h-594v37q0 119 52 206.5t171 178.5q88 68 88 114q0 68 -57 68q-79 0 -84 -123h-506q18 232 188 348.5t467 116.5q291 0 456 -116t165 -304q0 -111 -57 -188t-171 -156q-63 -43 -90.5 -82t-27.5 -92v-8z" />
    <glyph glyph-name="at" unicode="@" horiz-adv-x="2095" 
d="M1184 932l14 49h401l-102 -514q-18 -105 53 -105q22 0 44.5 8t48 30.5t45 57.5t32.5 95.5t13 138.5q0 112 -38.5 207t-114 167t-196 112.5t-274.5 40.5t-283.5 -43t-228.5 -127.5t-155 -221.5t-56 -315q0 -191 83.5 -327t226 -202.5t329.5 -66.5q237 0 379 49l49 -223
q-112 -46 -213 -63t-254 -17q-177 0 -336.5 58.5t-282.5 165t-195.5 270.5t-72.5 362q0 129 32 249.5t91.5 223.5t148 188t197.5 145t244 93t285 33q202 0 371 -56.5t284 -155.5t178.5 -235.5t63.5 -295.5q0 -284 -140.5 -448.5t-390.5 -164.5q-113 0 -190 37t-100 102
q-122 -139 -316 -139q-140 0 -230.5 94.5t-90.5 266.5q0 148 55.5 271.5t159 198t233.5 74.5q140 0 199 -67zM1001 383q39 0 70.5 57.5t44.5 159.5q10 58 0.5 95.5t-45.5 37.5q-50 0 -83.5 -92.5t-33.5 -175.5q0 -41 10.5 -61.5t36.5 -20.5z" />
    <glyph glyph-name="A" unicode="A" horiz-adv-x="1812" 
d="M-27 0l496 1442h829l541 -1442h-672l-55 205h-473l-51 -205h-615zM879 1049h-17q-27 -125 -110 -455h243q-71 299 -116 455z" />
    <glyph glyph-name="B" unicode="B" horiz-adv-x="1841" 
d="M1163 0h-1022v1442h1016q143 0 253.5 -30.5t177 -83.5t99.5 -119.5t33 -143.5q0 -122 -67 -198t-180 -109q61 -17 112.5 -43t97.5 -66t72.5 -99.5t26.5 -131.5q0 -68 -19 -127t-64.5 -113.5t-115 -93t-177 -61.5t-243.5 -23zM748 575v-247h215q86 0 125.5 35t39.5 92
q0 52 -37.5 86t-121.5 34h-221zM748 1112v-215h223q70 0 103.5 32t33.5 79q0 48 -35.5 76t-103.5 28h-221z" />
    <glyph glyph-name="C" unicode="C" horiz-adv-x="1847" 
d="M1790 918h-633q-7 42 -19 74t-34 61.5t-60.5 45t-91.5 15.5q-112 0 -166.5 -95t-54.5 -292q0 -79 9 -140.5t31.5 -120t68 -90.5t112.5 -32q100 0 146.5 49.5t66.5 138.5h619q-34 -194 -148.5 -322.5t-290 -187.5t-413.5 -59q-205 0 -368.5 55t-272 155t-166 240.5
t-57.5 311.5q0 124 30.5 233.5t98.5 206t169 165.5t250.5 109t333.5 40q165 0 300.5 -30t229.5 -81.5t161.5 -124t102.5 -153t46 -172.5z" />
    <glyph glyph-name="D" unicode="D" horiz-adv-x="1898" 
d="M995 0h-854v1442h852q168 0 307.5 -36.5t236.5 -100.5t164 -153t98.5 -192.5t31.5 -220.5q0 -157 -55.5 -291t-159 -234t-263.5 -157t-358 -57zM772 1061v-680h156q129 0 185 89.5t56 256.5q0 70 -9 123t-33.5 104t-75 79t-125.5 28h-154z" />
    <glyph glyph-name="E" unicode="E" horiz-adv-x="1605" 
d="M141 0v1442h1379v-389h-768v-129h731v-389h-731v-148h823l-74 -387h-1360z" />
    <glyph glyph-name="F" unicode="F" horiz-adv-x="1550" 
d="M762 0h-621v1442h1352v-389h-731v-191h686v-389h-686v-473z" />
    <glyph glyph-name="G" unicode="G" horiz-adv-x="1861" 
d="M944 492v358h805v-850h-410q-18 39 -32 127q-74 -86 -184 -125t-298 -39q-179 0 -323 54.5t-238.5 152.5t-145 233t-50.5 297q0 122 28.5 231.5t95.5 211t166.5 175t251 117.5t340.5 44q329 0 544 -130t255 -356h-629q-16 65 -55 99t-117 34q-217 0 -217 -391
q0 -87 12.5 -158.5t39.5 -128t72.5 -87.5t107.5 -31q44 0 78.5 12t53.5 29t31 39t15.5 39.5t3.5 33.5v9h-201z" />
    <glyph glyph-name="H" unicode="H" horiz-adv-x="1880" 
d="M772 0h-631v1442h631v-498h336v498h631v-1442h-631v555h-336v-555z" />
    <glyph glyph-name="I" unicode="I" horiz-adv-x="913" 
d="M141 0v1442h631v-1442h-631z" />
    <glyph glyph-name="J" unicode="J" horiz-adv-x="1114" 
d="M51 -6v387q71 -8 142 -8q57 0 91.5 9.5t52 33.5t23 53.5t5.5 81.5v891h628v-838q0 -71 -2.5 -122.5t-9.5 -110.5t-20.5 -101t-37 -86.5t-56.5 -74.5t-80 -58t-107.5 -44.5t-139.5 -26t-175 -9.5q-186 0 -314 23z" />
    <glyph glyph-name="K" unicode="K" horiz-adv-x="1867" 
d="M770 0h-629v1442h629v-559q293 453 365 559h757l-544 -582l573 -860h-733l-268 500l-150 -158v-342z" />
    <glyph glyph-name="L" unicode="L" horiz-adv-x="1523" 
d="M774 389h737l-65 -389h-1305v1442h633v-1053z" />
    <glyph glyph-name="M" unicode="M" horiz-adv-x="2322" 
d="M141 0v1442h891q81 -500 115 -776h4q60 365 149 776h881v-1442h-622v391q0 408 22 694h-8q-24 -103 -97.5 -464t-136.5 -621h-475q-46 242 -100.5 594.5t-83.5 499.5h-6q2 -51 9 -189t12 -270.5t5 -243.5v-391h-559z" />
    <glyph glyph-name="N" unicode="N" horiz-adv-x="1914" 
d="M700 0h-559v1442h721q242 -492 352 -729h15q-12 145 -12 587v142h557v-1442h-689q-59 119 -215 462.5t-176 385.5h-12q18 -161 18 -641v-207z" />
    <glyph glyph-name="O" unicode="O" horiz-adv-x="1914" 
d="M68 719q0 102 22 195t66.5 179t117.5 156t170.5 121.5t231.5 80t293 28.5q197 0 362 -57t278 -157t175.5 -240t62.5 -304q0 -129 -33.5 -241.5t-104.5 -208t-176 -163.5t-255.5 -106.5t-335.5 -38.5q-208 0 -375 58t-275.5 160t-166 239.5t-57.5 298.5zM965 344
q65 0 109.5 27.5t67.5 81t32.5 117t9.5 149.5q0 205 -49.5 300t-180.5 95q-119 0 -171 -95.5t-52 -287.5q0 -89 11 -156t36.5 -121t72.5 -82t114 -28z" />
    <glyph glyph-name="P" unicode="P" horiz-adv-x="1716" 
d="M762 0h-621v1442h903q285 0 457 -131.5t172 -358.5q0 -236 -167 -363.5t-441 -127.5h-303v-461zM762 1081v-260h139q77 0 118.5 36t41.5 95q0 55 -38.5 92t-121.5 37h-139z" />
    <glyph glyph-name="Q" unicode="Q" horiz-adv-x="1912" 
d="M1618 -358l-516 329q-68 -8 -160 -8q-208 0 -375 58t-275.5 160t-166 239.5t-57.5 298.5q0 102 22 195t66.5 179t117.5 156t170.5 121.5t231.5 80t293 28.5q197 0 362 -57t278 -157t175.5 -240t62.5 -304q0 -173 -61.5 -318t-186.5 -247l312 -199zM965 344
q65 0 109.5 27.5t67.5 81t32.5 117t9.5 149.5q0 205 -49.5 300t-180.5 95q-119 0 -171 -95.5t-52 -287.5q0 -89 11 -156t36.5 -121t72.5 -82t114 -28z" />
    <glyph glyph-name="R" unicode="R" horiz-adv-x="1777" 
d="M141 0v1442h994q143 0 254.5 -32t180.5 -88.5t104.5 -130t35.5 -159.5q0 -131 -66 -221t-184 -133q102 -43 155.5 -128.5t53.5 -238.5v-86q0 -133 23 -225h-605q-30 72 -30 289v51q0 104 -35.5 137t-144.5 33h-123v-510h-613zM754 1079v-239h180q64 0 108.5 27.5
t44.5 90.5q0 59 -42 90t-115 31h-176z" />
    <glyph glyph-name="S" unicode="S" horiz-adv-x="1669" 
d="M1556 1032h-591q-21 109 -142 109q-51 0 -77.5 -18t-26.5 -50q0 -36 49 -58t172 -44q155 -27 272 -66t192 -84t122 -102.5t65.5 -117t18.5 -130.5q0 -235 -206 -371.5t-566 -136.5q-154 0 -280.5 23.5t-217 65.5t-156 101t-102 128.5t-49.5 150.5h631q30 -127 161 -127
q62 0 95.5 22t33.5 60q0 23 -6 37t-29.5 31t-75.5 32t-138 31q-118 21 -212 50t-158.5 60t-111 69.5t-73 74.5t-42 80t-20 79.5t-4.5 80.5q0 208 185.5 337.5t533.5 129.5q334 0 535 -116.5t218 -330.5z" />
    <glyph glyph-name="T" unicode="T" horiz-adv-x="1538" 
d="M23 1053v389h1493v-389h-431v-1053h-628v1053h-434z" />
    <glyph glyph-name="U" unicode="U" horiz-adv-x="1839" 
d="M121 602v840h631v-873q0 -198 170 -198q51 0 85.5 17t51 48t22.5 62t6 71v873h631v-852q0 -153 -42.5 -266t-136.5 -195.5t-252 -124t-380 -41.5q-172 0 -305 28.5t-223.5 81t-148.5 132t-83.5 177t-25.5 220.5z" />
    <glyph glyph-name="V" unicode="V" horiz-adv-x="1812" 
d="M1292 0h-782l-530 1442h669l164 -608q50 -186 96 -414h4q53 243 95 405l147 617h678z" />
    <glyph glyph-name="W" unicode="W" horiz-adv-x="2387" 
d="M1018 0h-633l-375 1442h654q19 -152 53 -455.5t53 -460.5h8q26 134 83 442.5t89 473.5h529q28 -131 52.5 -259t58.5 -316t61 -330h8q24 216 62.5 530.5t45.5 374.5h611l-400 -1442h-635q-29 136 -76 388.5t-85 434.5h-8q-30 -151 -82.5 -433t-73.5 -390z" />
    <glyph glyph-name="X" unicode="X" horiz-adv-x="1705" 
d="M-29 0l500 731l-471 711h717l157 -316h5l163 316h674l-499 -690l526 -752h-723l-184 340h-5l-182 -340h-678z" />
    <glyph glyph-name="Y" unicode="Y" horiz-adv-x="1660" 
d="M1145 0h-631v483q0 30 -25 70l-552 889h729q47 -106 112.5 -281t83.5 -221q73 206 195 502h667l-563 -899q-16 -28 -16 -70v-473z" />
    <glyph glyph-name="Z" unicode="Z" horiz-adv-x="1669" 
d="M59 0v305l727 748h-692v389h1469v-350l-717 -703h801l-68 -389h-1520z" />
    <glyph glyph-name="bracketleft" unicode="[" horiz-adv-x="849" 
d="M784 -365h-637v1862h637v-270h-282v-1321h282v-271z" />
    <glyph glyph-name="backslash" unicode="\" horiz-adv-x="925" 
d="M915 -70h-368l-537 1530h373z" />
    <glyph glyph-name="bracketright" unicode="]" horiz-adv-x="849" 
d="M66 -365v271h282v1321h-282v270h636v-1862h-636z" />
    <glyph glyph-name="asciicircum" unicode="^" horiz-adv-x="1214" 
d="M41 602l383 803h369l383 -803h-379l-193 447l-188 -447h-375z" />
    <glyph glyph-name="underscore" unicode="_" horiz-adv-x="1140" 
d="M0 -309v170h1141v-170h-1141z" />
    <glyph glyph-name="grave" unicode="`" 
d="M256 1184l-428 354h565l269 -354h-406z" />
    <glyph glyph-name="a" unicode="a" horiz-adv-x="1525" 
d="M649 752h-536q1 47 14.5 91.5t55.5 97.5t109 91t185.5 64t274.5 26q663 0 663 -407v-320q0 -88 3 -181t6.5 -149t5.5 -65h-562q-4 25 -16 104q-61 -69 -153 -101t-226 -32q-188 0 -304 92t-116 256q0 373 629 373q109 0 154 -2v47q0 50 -20 74.5t-75 24.5
q-46 0 -66.5 -23t-25.5 -61zM633 375q0 -36 22.5 -57t61.5 -21q59 0 89 31.5t30 115.5v19q-3 0 -29 1t-51 1q-123 0 -123 -90z" />
    <glyph glyph-name="b" unicode="b" horiz-adv-x="1622" 
d="M682 0h-578q5 230 5 346v1151h622v-496q121 121 330 121q101 0 190 -35t159 -102t110.5 -174.5t40.5 -243.5q0 -144 -43 -259.5t-116.5 -188t-168 -110.5t-201.5 -38q-235 0 -338 125q-1 -7 -4.5 -43.5t-7.5 -52.5zM813 326q62 0 87.5 55t25.5 170q0 113 -25 164t-80 51
q-63 0 -85.5 -53.5t-22.5 -159.5q0 -51 3 -86t13 -70t31 -53t53 -18z" />
    <glyph glyph-name="c" unicode="c" horiz-adv-x="1495" 
d="M1442 678h-559q-5 71 -24 108t-68 37q-53 0 -76 -64t-23 -206q0 -154 22.5 -220.5t76.5 -66.5q45 0 66.5 33t29.5 113h559q-11 -71 -37.5 -132t-79 -119t-127 -99t-188 -66t-254.5 -25q-117 0 -215.5 18.5t-169.5 50t-126.5 77t-90 95.5t-57 109.5t-31.5 115.5t-9 116
q0 124 44 227t129 179.5t220 119.5t308 43q120 0 221 -18.5t169 -48.5t121 -71t83.5 -81.5t50.5 -85.5t27 -77.5t8 -61.5z" />
    <glyph glyph-name="d" unicode="d" horiz-adv-x="1622" 
d="M891 1024v473h625v-1104q0 -253 4 -393h-613q-8 43 -12 100q-68 -72 -142 -101.5t-192 -29.5q-122 0 -218.5 46t-157.5 125.5t-92.5 183.5t-31.5 225q0 266 147.5 418.5t383.5 152.5q208 0 299 -96zM805 324q64 0 87 55.5t23 171.5q0 108 -22.5 160.5t-83.5 52.5
q-57 0 -85 -57.5t-28 -157.5q0 -225 109 -225z" />
    <glyph glyph-name="e" unicode="e" horiz-adv-x="1544" 
d="M901 344h578q-19 -57 -42.5 -101.5t-75.5 -98t-123 -89t-188.5 -60t-267.5 -24.5q-164 0 -291.5 33.5t-207 88t-131 131.5t-71.5 157t-20 172t24 173.5t78.5 155t136 126t204.5 83.5t276 31t276 -34t202 -90.5t132 -132.5t75 -155.5t22 -164.5v-113h-809q0 -158 110 -158
q50 0 74 18t39 52zM793 836q-59 0 -87 -37t-28 -115h225q0 74 -25.5 113t-84.5 39z" />
    <glyph glyph-name="f" unicode="f" horiz-adv-x="995" 
d="M797 0h-625v750h-145v344h145v2q0 99 26 173t71 121t113 76t144 40.5t172 11.5q106 0 209 -19v-295q-23 2 -45 2q-65 0 -65 -67v-45h172v-344h-172v-750z" />
    <glyph glyph-name="g" unicode="g" horiz-adv-x="1607" 
d="M66 -53h598q10 -38 35.5 -58t76.5 -20q113 0 113 164v106q-53 -63 -127 -96t-211 -33q-152 0 -265 72t-169 192t-56 271q0 261 146 419t373 158q240 0 311 -127q1 9 3 47.5t3 51.5h619q0 -2 -2.5 -125.5t-2.5 -216.5v-629q0 -155 -43 -261t-137 -171.5t-231 -94
t-336 -28.5q-167 0 -294.5 26.5t-199.5 64.5t-119 92.5t-63 99.5t-22 96zM805 371q63 0 85.5 48t22.5 152q0 102 -21 148.5t-85 46.5q-50 0 -80.5 -50t-30.5 -155q0 -190 109 -190z" />
    <glyph glyph-name="h" unicode="h" horiz-adv-x="1624" 
d="M109 0v1497h622v-502q142 127 369 127q203 0 310.5 -114t107.5 -326v-682h-625v653q0 113 -76 113q-50 0 -68 -39.5t-18 -114.5v-612h-622z" />
    <glyph glyph-name="i" unicode="i" horiz-adv-x="839" 
d="M733 1176h-622v321h622v-321zM733 0h-622v1094h622v-1094z" />
    <glyph glyph-name="j" unicode="j" horiz-adv-x="843" 
d="M735 1176h-622v321h622v-321zM-16 -418v379h16q68 0 91.5 31t23.5 112v990h618v-957q0 -85 -5.5 -148.5t-20.5 -125t-41 -104.5t-67 -80t-98.5 -59t-136 -34t-178.5 -12q-116 0 -202 8z" />
    <glyph glyph-name="k" unicode="k" horiz-adv-x="1636" 
d="M109 0v1497h622v-766q96 164 205 363h696l-356 -398q254 -453 383 -696h-729q-59 224 -99 350l-100 -106v-244h-622z" />
    <glyph glyph-name="l" unicode="l" horiz-adv-x="837" 
d="M731 0h-622v1497h622v-1497z" />
    <glyph glyph-name="m" unicode="m" horiz-adv-x="2367" 
d="M721 0h-612v764q0 37 0.5 109.5t0.5 127.5t-1 93h602q5 -26 10 -111q58 59 156 99t219 40q74 0 132 -10.5t96.5 -31t62.5 -42.5t45 -51q167 135 391 135q217 0 327.5 -112t110.5 -332v-678h-610v623q0 65 -14.5 99t-57.5 34q-44 0 -65 -32.5t-21 -102.5v-621h-614v645
q0 72 -20 98q-20 23 -54 23q-43 0 -63.5 -31.5t-20.5 -111.5v-623z" />
    <glyph glyph-name="n" unicode="n" horiz-adv-x="1624" 
d="M731 0h-622v795q0 210 -3 299h615q3 -14 5 -35.5t3 -43.5t2 -28q125 135 359 135q210 0 319 -116.5t109 -333.5v-672h-625v653q0 113 -74 113q-43 0 -65.5 -32t-22.5 -124v-610z" />
    <glyph glyph-name="o" unicode="o" horiz-adv-x="1576" 
d="M61 543q0 125 43.5 229t130 183t228 123t325.5 44q147 0 269.5 -32.5t206 -88t141.5 -129.5t84.5 -155.5t26.5 -167.5q0 -132 -45.5 -237.5t-135 -182t-231.5 -117.5t-328 -41q-156 0 -281.5 35.5t-204.5 92.5t-132.5 133.5t-75 153.5t-21.5 157zM786 283q52 0 72.5 59
t20.5 199q0 154 -19 212t-76 58q-48 0 -71 -57t-23 -203q0 -144 22 -206t74 -62z" />
    <glyph glyph-name="p" unicode="p" horiz-adv-x="1622" 
d="M727 -406h-618v1141q0 236 -5 359h611q3 -14 10 -115q32 32 58.5 53t69 44t99.5 34.5t127 11.5q96 0 182.5 -37.5t153.5 -106.5t106.5 -175.5t39.5 -235.5q0 -119 -32 -219.5t-85 -169t-124 -116t-147.5 -69.5t-156.5 -22q-114 0 -178 24.5t-111 67.5v-469zM813 326
q113 0 113 221q0 114 -26.5 166.5t-82.5 52.5q-57 0 -80.5 -51.5t-23.5 -167.5q0 -113 21 -167t79 -54z" />
    <glyph glyph-name="q" unicode="q" horiz-adv-x="1619" 
d="M1513 -406h-618v488q-111 -111 -320 -111q-240 0 -377 158t-137 412q0 270 142 425.5t370 155.5q238 0 320 -137q5 78 10 109h613q-3 -169 -3 -336v-1164zM807 326q57 0 79.5 56t22.5 165q0 114 -20.5 166.5t-79.5 52.5t-86 -53t-27 -168q0 -219 111 -219z" />
    <glyph glyph-name="r" unicode="r" horiz-adv-x="1142" 
d="M731 0h-622v748q0 235 -3 346h603q16 -98 16 -201q15 32 27 54t42.5 58.5t66.5 59t96 40t133 17.5v-516q-78 5 -138 1t-102 -19.5t-68.5 -50t-38.5 -90t-12 -140.5v-307z" />
    <glyph glyph-name="s" unicode="s" horiz-adv-x="1423" 
d="M1333 762h-502q-10 69 -104 69q-80 0 -80 -45q0 -22 36.5 -33t133.5 -24q129 -18 225.5 -45.5t157.5 -61t98 -76.5t51.5 -88t14.5 -100q0 -50 -11.5 -94t-38 -89t-75 -80.5t-116.5 -64t-169.5 -44t-228.5 -15.5q-307 0 -471.5 100.5t-192.5 264.5h537q10 -35 37.5 -52.5
t62.5 -17.5q78 0 78 45q0 27 -35.5 41t-122.5 25q-137 18 -236.5 48t-156 63.5t-89.5 80t-42.5 87.5t-9.5 94q0 75 33 140t101 118t186.5 83.5t275.5 30.5q141 0 252.5 -22t182.5 -56.5t119.5 -83t70.5 -97t28 -101.5z" />
    <glyph glyph-name="t" unicode="t" horiz-adv-x="1077" 
d="M199 360v388h-162v346h164v286h620v-286h183v-346h-183v-324q0 -47 22.5 -69.5t78.5 -22.5q13 0 45 4v-328q-88 -31 -334 -31q-111 0 -190.5 20t-126 52.5t-73.5 84.5t-35.5 103.5t-8.5 122.5z" />
    <glyph glyph-name="u" unicode="u" horiz-adv-x="1617" 
d="M100 395v699h625v-639q0 -131 74 -131q47 0 67.5 37.5t20.5 121.5v611h622v-686q0 -371 2 -408h-612q-3 16 -10 113q-32 -34 -61.5 -56.5t-73 -43.5t-103 -31.5t-135.5 -10.5q-193 0 -304.5 112.5t-111.5 311.5z" />
    <glyph glyph-name="v" unicode="v" horiz-adv-x="1476" 
d="M360 0l-387 1094h666q85 -399 127 -686h12q39 283 105 686h620l-387 -1094h-756z" />
    <glyph glyph-name="w" unicode="w" horiz-adv-x="2179" 
d="M317 0l-327 1094h663q22 -190 35.5 -328.5t21.5 -237t11 -125.5h12q11 56 25 142.5t38.5 247.5t47.5 301h549q26 -186 57 -394.5t41 -285.5h12q16 206 72 680h612l-344 -1094h-663q-20 116 -35.5 217.5t-29.5 200.5t-19 133h-13q-33 -249 -96 -551h-670z" />
    <glyph glyph-name="x" unicode="x" horiz-adv-x="1458" 
d="M-45 0l381 535l-379 559h690q55 -147 92 -297h13q12 40 33 107.5t36 116.5t23 73h651l-367 -519l373 -575h-678q-29 76 -104 276h-8q-36 -123 -97 -276h-659z" />
    <glyph glyph-name="y" unicode="y" horiz-adv-x="1484" 
d="M201 -416v375q3 0 36.5 -1t49.5 -1q108 0 127 31l-445 1106h666q85 -371 127 -691h16q5 36 25 179.5t40.5 281t37.5 230.5h620l-364 -1043q-66 -187 -146 -288.5t-202.5 -147t-319.5 -45.5q-158 0 -268 14z" />
    <glyph glyph-name="z" unicode="z" horiz-adv-x="1370" 
d="M90 723v371h1174v-338q-87 -82 -218 -195t-231 -192h508l-63 -369h-1186v326q60 48 205.5 171t271.5 226h-461z" />
    <glyph glyph-name="braceleft" unicode="{" horiz-adv-x="901" 
d="M260 6l6 225q1 57 -14.5 94t-47.5 54t-65 23t-80 6v327q37 0 63.5 2.5t56 12t47.5 26.5t29.5 47t10.5 72l-6 217q-2 94 26.5 164.5t76.5 112t119.5 66.5t142.5 33.5t159 8.5h52v-276h-25q-47 0 -75.5 -9t-41.5 -29.5t-16.5 -43.5t-1.5 -62l6 -164q5 -142 -47 -228.5
t-180 -117.5q114 -22 172 -97.5t55 -193.5l-6 -215q1 -22 0 -44t7 -42t21.5 -35.5t43.5 -24.5t73 -9h15v-271h-54q-116 0 -209.5 20t-166 63t-111 116t-35.5 172z" />
    <glyph glyph-name="bar" unicode="|" horiz-adv-x="581" 
d="M113 -539v2153h360v-2153h-360z" />
    <glyph glyph-name="braceright" unicode="}" horiz-adv-x="901" 
d="M66 -365v277h24q47 0 75.5 8.5t41.5 29t16.5 43.5t1.5 62l-6 164q-5 142 47 228.5t180 117.5q-114 22 -172 97.5t-55 193.5l6 215q-1 22 0 44t-7 42t-21.5 35.5t-43.5 25t-73 9.5h-14v270h53q116 0 209.5 -20t166 -63t111 -116t35.5 -172l-6 -225q-1 -46 10 -79t29 -51.5
t47.5 -29t56.5 -13.5t64 -3v-328q-47 0 -79 -5t-64.5 -20t-48.5 -48.5t-15 -85.5l6 -218q2 -94 -26.5 -164.5t-76.5 -112t-119.5 -66.5t-142.5 -33.5t-159 -8.5h-51z" />
    <glyph glyph-name="asciitilde" unicode="~" horiz-adv-x="1277" 
d="M412 317h-312v101q0 94 18.5 163.5t47 109t71 63.5t82.5 31.5t89 7.5q59 0 128 -21t118.5 -46t96.5 -46t68 -21q26 0 36.5 13.5t10.5 60.5v39h314v-63q4 -222 -71.5 -319t-219.5 -97q-81 0 -171.5 32.5t-160.5 64.5t-102 32q-22 0 -32.5 -14t-10.5 -48v-43z" />
    <glyph glyph-name="uni00A0" unicode="&#xa0;" horiz-adv-x="471" 
 />
    <glyph glyph-name="exclamdown" unicode="&#xa1;" horiz-adv-x="862" 
d="M88 -348v299l66 553h487l72 -570v-282h-625zM125 606v488h559v-488h-559z" />
    <glyph glyph-name="cent" unicode="&#xa2;" horiz-adv-x="1480" 
d="M578 -20v161q-106 18 -191 57t-141 90.5t-93 116t-53 131t-16 138.5q0 214 124 357.5t370 185.5v131h395v-134q102 -19 182 -58t127.5 -83.5t78.5 -97.5t43 -94.5t13 -79.5h-532q-7 59 -24.5 86.5t-67.5 27.5q-45 0 -68 -53t-23 -182q0 -140 24.5 -193t74.5 -53
q37 0 55.5 26.5t26.5 82.5h534q-8 -48 -25 -93t-51 -94.5t-81.5 -89.5t-121.5 -73.5t-165 -49.5v-163h-395z" />
    <glyph glyph-name="sterling" unicode="&#xa3;" horiz-adv-x="1558" 
d="M1454 0h-1364v301q48 14 78.5 38t44.5 58t18.5 65.5t4.5 76.5v18h-168v238h141q-4 62 -4 98q0 104 34.5 193t105.5 161t192.5 113t283.5 41q138 0 249 -29t179.5 -74.5t115 -106t65.5 -117t22 -113.5h-496q-8 52 -28.5 75t-65.5 23q-71 0 -71 -117q0 -65 10 -147h272
v-238h-274q-16 -119 -78 -178h792z" />
    <glyph glyph-name="currency" unicode="&#xa4;" horiz-adv-x="1349" 
d="M256 111l-233 262l182 166q-21 79 -21 151q0 83 23 156l-184 170l229 258l180 -166q108 51 262 51q132 0 242 -49l178 164l234 -258l-183 -168q19 -68 19 -148q0 -73 -23 -155l187 -176l-236 -258l-176 168q-106 -50 -252 -50q-139 0 -248 50zM686 532q21 0 37 5t34.5 20
t29 50t10.5 87q0 53 -11 87.5t-30.5 48.5t-34.5 18t-35 4q-16 0 -32 -6.5t-34.5 -22.5t-30 -50t-11.5 -81q0 -49 11 -83t29.5 -49.5t34.5 -21.5t33 -6z" />
    <glyph glyph-name="yen" unicode="&#xa5;" horiz-adv-x="1507" 
d="M195 203v207h258v110h-258v209h200l-432 643h682q95 -295 119 -393h10q24 93 113 393h653l-438 -643h207v-209h-267v-110h267v-207h-267v-203h-589v203h-258z" />
    <glyph glyph-name="brokenbar" unicode="&#xa6;" horiz-adv-x="583" 
d="M113 696v754h360v-754h-360zM113 -379v754h360v-754h-360z" />
    <glyph glyph-name="section" unicode="&#xa7;" horiz-adv-x="1589" 
d="M109 109h512q21 -101 165 -101q95 0 95 58q0 39 -43.5 63.5t-175.5 52.5q-220 45 -350 105t-183 133.5t-53 175.5q0 169 166 276q-70 78 -70 205q0 80 33.5 149.5t101.5 127t185.5 91t271.5 34.5q292 1 456.5 -107.5t184.5 -271.5h-492q-24 90 -143 90q-84 0 -84 -57
q0 -21 16.5 -35t65.5 -30.5t145 -37.5q157 -35 268 -79.5t176 -98t95.5 -111.5t32.5 -129q3 -86 -31.5 -158t-116.5 -139q45 -50 58.5 -95t13.5 -103q0 -120 -83 -209t-223 -133.5t-317 -44.5q-133 0 -247 22t-207 66.5t-151.5 118.5t-71.5 172zM518 688q0 -43 42 -63.5
t188 -55.5q13 -3 286 -77q13 17 13 38q0 34 -58 63.5t-221 70.5q-44 10 -123 33t-113 32q-14 -21 -14 -41z" />
    <glyph glyph-name="dieresis" unicode="&#xa8;" 
d="M358 1196h-469v342h469v-342zM928 1196h-469v342h469v-342z" />
    <glyph glyph-name="copyright" unicode="&#xa9;" horiz-adv-x="1734" 
d="M102 723q0 220 103 392t277 263.5t388 91.5q157 0 296.5 -53.5t242.5 -149.5t163 -237t60 -307q0 -168 -60 -310.5t-163 -239t-242 -150.5t-297 -54q-161 0 -301 52t-243.5 147t-163.5 238.5t-60 316.5zM866 143q162 0 291.5 71.5t204 204t74.5 302.5q0 172 -76 304.5
t-205 202.5t-289 70q-249 0 -409 -160.5t-160 -412.5q0 -264 158.5 -423t410.5 -159zM1260 840h-293q-9 40 -29.5 56.5t-60.5 16.5q-91 0 -91 -168q0 -101 25.5 -148.5t67.5 -47.5q25 0 41 4.5t25.5 16t14 22.5t9.5 31h295q-29 -135 -130 -206t-266 -71q-102 0 -180 32.5
t-123.5 88t-68.5 122.5t-23 144q0 105 44.5 189t137.5 136t222 52q81 0 148 -19.5t108.5 -49t70.5 -67t41.5 -71t14.5 -63.5z" />
    <glyph glyph-name="ordfeminine" unicode="&#xaa;" horiz-adv-x="1007" 
d="M389 997h150v21q0 51 -56 51q-54 0 -63 -41h-340q3 32 14 60t39 59.5t70.5 53.5t115.5 37t168 15t169 -11.5t121 -33t78.5 -46.5t47 -59t21.5 -63t6 -65v-162q0 -20 -0.5 -73t0 -75t2.5 -54t6 -54h-381q-10 16 -16 72q-79 -84 -236 -84q-119 0 -190.5 62t-71.5 163
q0 227 346 227zM539 829v25h-33q-70 0 -70 -49q0 -21 15.5 -30t31.5 -9q23 0 39.5 16t16.5 47z" />
    <glyph glyph-name="guillemotleft" unicode="&#xab;" horiz-adv-x="1280" 
d="M352 127l-291 418l291 418h361l-287 -418l287 -418h-361zM860 127l-291 418l291 418h361l-287 -418l287 -418h-361z" />
    <glyph glyph-name="logicalnot" unicode="&#xac;" horiz-adv-x="1452" 
d="M96 592v356h1217v-792h-371v436h-846z" />
    <glyph glyph-name="uni00AD" unicode="&#xad;" horiz-adv-x="915" 
d="M70 326v430h776v-430h-776z" />
    <glyph glyph-name="registered" unicode="&#xae;" horiz-adv-x="757" 
d="M20 1139q0 140 100.5 239t256.5 99q155 0 257.5 -99t102.5 -239q0 -162 -99.5 -251t-260.5 -89q-154 0 -255.5 94.5t-101.5 245.5zM375 883q124 0 194 72.5t70 183.5q0 109 -73.5 181.5t-190.5 72.5q-107 0 -179.5 -67.5t-72.5 -190.5q0 -104 72.5 -178t179.5 -74z
M356 999h-129v291h205q53 0 83 -21.5t30 -54.5q0 -57 -58 -71q54 -12 54 -74q0 -55 6 -70h-133q-6 18 -6 64q0 21 -6.5 27t-22.5 6h-23v-97zM362 1212v-38h23q27 0 27 18q0 20 -25 20h-25z" />
    <glyph glyph-name="macron" unicode="&#xaf;" 
d="M23 1206v332h774v-332h-774z" />
    <glyph glyph-name="degree" unicode="&#xb0;" horiz-adv-x="823" 
d="M51 1151q0 138 100.5 227.5t262.5 89.5q171 0 264.5 -88.5t93.5 -222.5q0 -145 -101 -230t-261 -85q-168 0 -263.5 87t-95.5 222zM279 1153q0 -57 36.5 -94t96.5 -37q57 0 93 36.5t36 94.5q0 60 -34 99.5t-97 39.5q-57 0 -94 -40t-37 -99z" />
    <glyph glyph-name="plusminus" unicode="&#xb1;" horiz-adv-x="1404" 
d="M96 797v358h420v356h373v-356h418v-358h-418v-338h-373v338h-420zM1307 0h-1211v358h1211v-358z" />
    <glyph glyph-name="two.sups" unicode="&#xb2;" horiz-adv-x="1003" 
d="M922 901h-848v31q0 120 65.5 212.5t214.5 168.5q98 51 128 75.5t30 53.5q0 55 -47 55q-30 0 -42.5 -19.5t-12.5 -60.5h-361q4 51 19.5 94.5t49 85t83 70t126 45.5t173.5 17q222 0 332 -80.5t110 -208.5q0 -86 -46 -135t-146 -91q-74 -29 -105 -53h330z" />
    <glyph glyph-name="three.sups" unicode="&#xb3;" horiz-adv-x="1001" 
d="M31 1171h381q10 -53 63 -53q57 0 57 49q0 66 -88 66h-75v172h65q44 0 61 9t17 34q0 47 -51 47q-30 0 -43.5 -14.5t-18.5 -40.5h-360q3 30 12 58.5t28.5 63t54.5 63t82.5 53t120.5 38t163 13.5q209 0 322.5 -66t113.5 -176q0 -40 -16.5 -71t-43 -48t-51.5 -26.5t-51 -12.5
q25 -3 55.5 -13.5t64 -30t55.5 -55.5t22 -81q0 -37 -12 -71t-44.5 -69.5t-83 -62t-134.5 -43t-191 -16.5q-108 0 -193.5 20t-135.5 50t-84 70t-46.5 74.5t-15.5 69.5z" />
    <glyph glyph-name="acute" unicode="&#xb4;" 
d="M152 1184l276 354h559l-420 -354h-415z" />
    <glyph glyph-name="uni00B5" unicode="&#xb5;" horiz-adv-x="1617" 
d="M100 -406v1500h625v-631q0 -68 17.5 -98.5t60.5 -30.5q30 0 46.5 10t27 45.5t10.5 102.5v602h622v-750q0 -202 9 -344h-584q-12 37 -16 92q-42 -61 -92.5 -93t-141.5 -32q-23 0 -39 2q7 -47 16 -197.5t9 -177.5h-570z" />
    <glyph glyph-name="paragraph" unicode="&#xb6;" horiz-adv-x="1546" 
d="M1350 -326h-355v553h-360q-87 0 -169 22t-155.5 68t-128.5 112t-87 160.5t-32 205.5q0 113 35 208t93 159.5t134 109.5t157 65.5t163 20.5h356q0 19 5.5 59t11.5 53h336q-4 -118 -4 -299v-1497zM961 522h34v541h-55q-77 0 -110 -58.5t-33 -199.5q0 -157 36 -220t128 -63z
" />
    <glyph glyph-name="periodcentered" unicode="&#xb7;" horiz-adv-x="698" 
d="M608 410h-518v530h518v-530z" />
    <glyph glyph-name="cedilla" unicode="&#xb8;" 
d="M172 -449v211q60 -14 123 -14q47 0 47 23v1q0 5 -0.5 8t-7.5 10t-19.5 12t-40 11.5t-65.5 10.5v45l84 143h307l-45 -78q186 -46 186 -190q0 -61 -29.5 -105.5t-81 -68t-109.5 -34.5t-126 -11q-122 0 -223 26z" />
    <glyph glyph-name="one.sups" unicode="&#xb9;" horiz-adv-x="716" 
d="M616 901h-444v463q-59 4 -113 18v236q79 3 158.5 31t118.5 65h280v-813z" />
    <glyph glyph-name="ordmasculine" unicode="&#xba;" horiz-adv-x="1052" 
d="M53 901q0 167 121 259.5t352 92.5q227 0 349 -96.5t122 -257.5q0 -169 -126.5 -259.5t-350.5 -90.5q-220 0 -343.5 95.5t-123.5 256.5zM526 770q32 0 44 27.5t12 95.5q1 73 -11.5 102t-46.5 29q-29 0 -41 -28.5t-12 -96.5q0 -71 12.5 -100t42.5 -29z" />
    <glyph glyph-name="guillemotright" unicode="&#xbb;" horiz-adv-x="1280" 
d="M422 127h-361l287 418l-287 418h361l291 -418zM928 127h-361l287 418l-287 418h361l291 -418z" />
    <glyph glyph-name="onequarter" unicode="&#xbc;" horiz-adv-x="1982" 
d="M573 0h-264l908 1391h262zM1016 150v253l280 412h549v-420h123l-26 -245h-97v-150h-389v150h-440zM1352 395h104v23q0 62 8 176q-17 -28 -55.5 -98.5t-56.5 -100.5zM602 559h-444v463q-59 4 -113 18v236q79 3 158.5 31t118.5 65h280v-813z" />
    <glyph glyph-name="onehalf" unicode="&#xbd;" horiz-adv-x="2019" 
d="M541 0h-265l908 1391h262zM1925 -51h-848v31q0 120 66 212t215 168q98 51 128 75.5t30 53.5q0 56 -48 56q-30 0 -42.5 -19.5t-12.5 -60.5h-360q27 311 450 311q223 0 333 -81t110 -208q0 -86 -46.5 -134.5t-146.5 -90.5q-71 -29 -104 -53h329zM616 559h-444v463
q-59 4 -113 18v236q79 3 158.5 31t118.5 65h280v-813z" />
    <glyph glyph-name="threequarters" unicode="&#xbe;" horiz-adv-x="2314" 
d="M1346 150v253l280 412h549v-420h123l-27 -245h-96v-150h-389v150h-440zM1681 395h105v23q0 62 8 176q-17 -29 -56.5 -99t-56.5 -100zM59 829h381q10 -53 64 -53q57 0 57 49q0 66 -88 66h-76v172h66q44 0 61 9t17 34q0 47 -52 47q-30 0 -43 -14t-18 -41h-360q3 37 15 71.5
t44 75.5t80 71t131 50t190 20q209 0 323 -65.5t114 -175.5q0 -40 -16.5 -71t-43 -48t-51.5 -26.5t-51 -12.5q25 -3 55 -13.5t63.5 -30t55.5 -55.5t22 -81q0 -47 -21 -89.5t-69.5 -83t-144.5 -65t-229 -24.5q-108 0 -193.5 20t-136 50t-84 70t-46.5 74.5t-16 69.5zM899 0
h-264l907 1391h262z" />
    <glyph glyph-name="questiondown" unicode="&#xbf;" horiz-adv-x="1232" 
d="M737 141h506q0 -116 -33 -204t-89.5 -144t-141.5 -91t-179 -48.5t-212 -13.5q-297 0 -459 109.5t-162 309.5q0 112 57 190.5t171 153.5q118 77 118 140q0 27 -4 43h578q28 -61 28 -135q0 -73 -55 -140t-176 -147q-88 -58 -88 -115q0 -34 13 -50.5t44 -16.5
q38 0 59.5 32.5t24.5 126.5zM309 688v406h602v-406h-602z" />
    <glyph glyph-name="Agrave" unicode="&#xc0;" horiz-adv-x="1812" 
d="M-27 0l496 1442h829l541 -1442h-672l-55 205h-473l-51 -205h-615zM879 1049h-17q-27 -125 -110 -455h243q-71 299 -116 455zM698 1548l-465 285h629l312 -285h-476z" />
    <glyph glyph-name="Aacute" unicode="&#xc1;" horiz-adv-x="1812" 
d="M-27 0l496 1442h829l541 -1442h-672l-55 205h-473l-51 -205h-615zM879 1049h-17q-27 -125 -110 -455h243q-71 299 -116 455zM627 1548l301 285h643l-479 -285h-465z" />
    <glyph glyph-name="Acircumflex" unicode="&#xc2;" horiz-adv-x="1812" 
d="M-27 0l496 1442h829l541 -1442h-672l-55 205h-473l-51 -205h-615zM879 1049h-17q-27 -125 -110 -455h243q-71 299 -116 455zM348 1548l213 264h637l213 -264h-455l-79 115l-76 -115h-453z" />
    <glyph glyph-name="Atilde" unicode="&#xc3;" horiz-adv-x="1812" 
d="M-27 0l496 1442h829l541 -1442h-672l-55 205h-473l-51 -205h-615zM879 1049h-17q-27 -125 -110 -455h243q-71 299 -116 455zM707 1542h-289v47q0 97 18 162.5t54.5 101t82.5 50t111 14.5q77 0 154 -19t132.5 -38t80.5 -19q41 0 41 43v35h290v-33q0 -83 -17.5 -146
t-44.5 -100.5t-65 -61t-74.5 -32t-78.5 -8.5q-67 0 -139 18.5t-127 37t-82 18.5q-20 0 -33.5 -11t-13.5 -32v-27z" />
    <glyph glyph-name="Adieresis" unicode="&#xc4;" horiz-adv-x="1812" 
d="M831 1550h-469v342h469v-342zM1436 1550h-469v342h469v-342zM-27 0l496 1442h829l541 -1442h-672l-55 205h-473l-51 -205h-615zM879 1049h-17q-27 -125 -110 -455h243q-71 299 -116 455z" />
    <glyph glyph-name="Aring" unicode="&#xc5;" horiz-adv-x="1812" 
d="M-27 0l496 1442h829l541 -1442h-672l-55 205h-473l-51 -205h-615zM879 1049h-17q-27 -125 -110 -455h243q-71 299 -116 455zM567 1755q0 103 89 165t257 62q160 0 245 -59t85 -164q0 -107 -88 -167t-248 -60q-164 0 -252 60.5t-88 162.5zM829 1753q0 -29 18 -48t56 -19
q78 0 78 71q0 70 -76 70t-76 -74z" />
    <glyph glyph-name="AE" unicode="&#xc6;" horiz-adv-x="2557" 
d="M-61 0l813 1442h1722v-379h-770v-150h731v-378h-731v-158h823l-73 -377h-1358v195h-414l-90 -195h-653zM889 592h207v450h-9z" />
    <glyph glyph-name="Ccedilla" unicode="&#xc7;" horiz-adv-x="1847" 
d="M700 -449v211q60 -14 123 -14q47 0 47 23v1q0 5 -0.5 8t-7.5 10t-19.5 12t-40 11.5t-65.5 10.5v45l60 100q-348 35 -538.5 237t-190.5 519q0 124 30.5 233.5t98.5 206t169 165.5t250.5 109t333.5 40q165 0 300.5 -30t229.5 -81.5t161.5 -124t102.5 -153t46 -172.5h-633
q-7 42 -19 74t-34 61.5t-60.5 45t-91.5 15.5q-112 0 -166.5 -95t-54.5 -292q0 -79 9 -140.5t31.5 -120t68 -90.5t112.5 -32q100 0 146.5 49.5t66.5 138.5h619q-45 -252 -218.5 -390.5t-459.5 -170.5l-23 -37q187 -47 187 -190q0 -61 -29.5 -105.5t-81 -68t-109.5 -34.5
t-126 -11q-123 0 -224 26z" />
    <glyph glyph-name="Egrave" unicode="&#xc8;" horiz-adv-x="1605" 
d="M141 0v1442h1379v-389h-768v-129h731v-389h-731v-148h823l-74 -387h-1360zM672 1546l-465 285h629l311 -285h-475z" />
    <glyph glyph-name="Eacute" unicode="&#xc9;" horiz-adv-x="1605" 
d="M141 0v1442h1379v-389h-768v-129h731v-389h-731v-148h823l-74 -387h-1360zM559 1548l301 285h643l-479 -285h-465z" />
    <glyph glyph-name="Ecircumflex" unicode="&#xca;" horiz-adv-x="1605" 
d="M141 0v1442h1379v-389h-768v-129h731v-389h-731v-148h823l-74 -387h-1360zM299 1548l213 264h637l213 -264h-455l-80 115l-75 -115h-453z" />
    <glyph glyph-name="Edieresis" unicode="&#xcb;" horiz-adv-x="1605" 
d="M760 1561h-469v342h469v-342zM1364 1561h-469v342h469v-342zM141 0v1442h1379v-389h-768v-129h731v-389h-731v-148h823l-74 -387h-1360z" />
    <glyph glyph-name="Igrave" unicode="&#xcc;" horiz-adv-x="913" 
d="M141 0v1442h631v-1442h-631zM225 1548l-465 285h629l311 -285h-475z" />
    <glyph glyph-name="Iacute" unicode="&#xcd;" horiz-adv-x="913" 
d="M141 0v1442h631v-1442h-631zM217 1548l301 285h643l-479 -285h-465z" />
    <glyph glyph-name="Icircumflex" unicode="&#xce;" horiz-adv-x="913" 
d="M141 0v1442h631v-1442h-631zM-80 1548l213 264h637l213 -264h-455l-79 115l-76 -115h-453z" />
    <glyph glyph-name="Idieresis" unicode="&#xcf;" horiz-adv-x="913" 
d="M383 1550h-469v342h469v-342zM987 1550h-469v342h469v-342zM141 0v1442h631v-1442h-631z" />
    <glyph glyph-name="Eth" unicode="&#xd0;" horiz-adv-x="1925" 
d="M168 0v602h-143v270h143v570h852q168 0 307.5 -36.5t236.5 -100.5t164 -153t98.5 -192.5t31.5 -220.5q0 -157 -55.5 -291t-159 -234t-263.5 -157t-358 -57h-854zM799 381h155q129 0 185.5 90t56.5 256q0 54 -5 98t-21 90t-42 76.5t-71 50t-105 19.5h-153v-189h202v-270
h-202v-221z" />
    <glyph glyph-name="Ntilde" unicode="&#xd1;" horiz-adv-x="1914" 
d="M700 0h-559v1442h721q242 -492 352 -729h15q-12 145 -12 587v142h557v-1442h-689q-59 119 -215 462.5t-176 385.5h-12q18 -161 18 -641v-207zM801 1552h-289v47q0 97 18 162.5t54.5 101t82.5 50t111 14.5q77 0 154 -19t132.5 -38t80.5 -19q41 0 41 43v35h291v-33
q0 -83 -17.5 -146t-44.5 -100.5t-65.5 -61t-75 -32t-78.5 -8.5q-67 0 -139 18.5t-127 37t-82 18.5q-20 0 -33.5 -11t-13.5 -32v-27z" />
    <glyph glyph-name="Ograve" unicode="&#xd2;" horiz-adv-x="1914" 
d="M68 719q0 102 22 195t66.5 179t117.5 156t170.5 121.5t231.5 80t293 28.5q197 0 362 -57t278 -157t175.5 -240t62.5 -304q0 -129 -33.5 -241.5t-104.5 -208t-176 -163.5t-255.5 -106.5t-335.5 -38.5q-208 0 -375 58t-275.5 160t-166 239.5t-57.5 298.5zM965 344
q65 0 109.5 27.5t67.5 81t32.5 117t9.5 149.5q0 205 -49.5 300t-180.5 95q-119 0 -171 -95.5t-52 -287.5q0 -89 11 -156t36.5 -121t72.5 -82t114 -28zM750 1569l-465 284h628l312 -284h-475z" />
    <glyph glyph-name="Oacute" unicode="&#xd3;" horiz-adv-x="1914" 
d="M68 719q0 102 22 195t66.5 179t117.5 156t170.5 121.5t231.5 80t293 28.5q197 0 362 -57t278 -157t175.5 -240t62.5 -304q0 -129 -33.5 -241.5t-104.5 -208t-176 -163.5t-255.5 -106.5t-335.5 -38.5q-208 0 -375 58t-275.5 160t-166 239.5t-57.5 298.5zM965 344
q65 0 109.5 27.5t67.5 81t32.5 117t9.5 149.5q0 205 -49.5 300t-180.5 95q-119 0 -171 -95.5t-52 -287.5q0 -89 11 -156t36.5 -121t72.5 -82t114 -28zM696 1569l301 284h643l-479 -284h-465z" />
    <glyph glyph-name="Ocircumflex" unicode="&#xd4;" horiz-adv-x="1914" 
d="M68 719q0 102 22 195t66.5 179t117.5 156t170.5 121.5t231.5 80t293 28.5q197 0 362 -57t278 -157t175.5 -240t62.5 -304q0 -129 -33.5 -241.5t-104.5 -208t-176 -163.5t-255.5 -106.5t-335.5 -38.5q-208 0 -375 58t-275.5 160t-166 239.5t-57.5 298.5zM965 344
q65 0 109.5 27.5t67.5 81t32.5 117t9.5 149.5q0 205 -49.5 300t-180.5 95q-119 0 -171 -95.5t-52 -287.5q0 -89 11 -156t36.5 -121t72.5 -82t114 -28zM420 1569l213 264h637l213 -264h-455l-80 114l-76 -114h-452z" />
    <glyph glyph-name="Otilde" unicode="&#xd5;" horiz-adv-x="1914" 
d="M68 719q0 102 22 195t66.5 179t117.5 156t170.5 121.5t231.5 80t293 28.5q197 0 362 -57t278 -157t175.5 -240t62.5 -304q0 -129 -33.5 -241.5t-104.5 -208t-176 -163.5t-255.5 -106.5t-335.5 -38.5q-208 0 -375 58t-275.5 160t-166 239.5t-57.5 298.5zM965 344
q65 0 109.5 27.5t67.5 81t32.5 117t9.5 149.5q0 205 -49.5 300t-180.5 95q-119 0 -171 -95.5t-52 -287.5q0 -89 11 -156t36.5 -121t72.5 -82t114 -28zM758 1563h-289v47q0 78 12.5 135.5t34 94t56 58.5t73.5 30.5t90 8.5q77 0 154 -18.5t132.5 -37.5t80.5 -19q41 0 41 43v34
h291v-32q0 -83 -17.5 -146t-44.5 -100.5t-65.5 -61t-75 -32t-78.5 -8.5q-67 0 -139 18.5t-127 36.5t-82 18q-20 0 -33.5 -11t-13.5 -32v-26z" />
    <glyph glyph-name="Odieresis" unicode="&#xd6;" horiz-adv-x="1914" 
d="M883 1571h-469v342h469v-342zM1487 1571h-469v342h469v-342zM68 719q0 102 22 195t66.5 179t117.5 156t170.5 121.5t231.5 80t293 28.5q197 0 362 -57t278 -157t175.5 -240t62.5 -304q0 -129 -33.5 -241.5t-104.5 -208t-176 -163.5t-255.5 -106.5t-335.5 -38.5
q-208 0 -375 58t-275.5 160t-166 239.5t-57.5 298.5zM965 344q65 0 109.5 27.5t67.5 81t32.5 117t9.5 149.5q0 205 -49.5 300t-180.5 95q-119 0 -171 -95.5t-52 -287.5q0 -89 11 -156t36.5 -121t72.5 -82t114 -28z" />
    <glyph glyph-name="multiply" unicode="&#xd7;" horiz-adv-x="1345" 
d="M317 0l-221 231l357 365l-357 369l217 223l361 -367l358 367l219 -223l-356 -369l356 -365l-221 -231l-356 369z" />
    <glyph glyph-name="Oslash" unicode="&#xd8;" horiz-adv-x="1914" 
d="M188 -29l152 179q-132 102 -202 250.5t-70 320.5q0 122 30.5 231t99.5 206.5t171.5 168t256 111.5t343.5 41q245 0 438 -88l68 79h227l-143 -167q139 -102 213.5 -251.5t74.5 -328.5q0 -125 -33 -236t-105 -207.5t-176.5 -166.5t-255.5 -110t-335 -40q-255 0 -455 96
l-75 -88h-224zM1192 877l-391 -453q60 -57 164 -57q118 0 178.5 85.5t60.5 268.5q0 91 -12 156zM721 594l387 450q-57 48 -154 48q-110 0 -176.5 -85.5t-66.5 -273.5q0 -71 10 -139z" />
    <glyph glyph-name="Ugrave" unicode="&#xd9;" horiz-adv-x="1839" 
d="M121 602v840h631v-873q0 -198 170 -198q51 0 85.5 17t51 48t22.5 62t6 71v873h631v-852q0 -153 -42.5 -266t-136.5 -195.5t-252 -124t-380 -41.5q-172 0 -305 28.5t-223.5 81t-148.5 132t-83.5 177t-25.5 220.5zM713 1540l-465 285h629l311 -285h-475z" />
    <glyph glyph-name="Uacute" unicode="&#xda;" horiz-adv-x="1839" 
d="M121 602v840h631v-873q0 -198 170 -198q51 0 85.5 17t51 48t22.5 62t6 71v873h631v-852q0 -153 -42.5 -266t-136.5 -195.5t-252 -124t-380 -41.5q-172 0 -305 28.5t-223.5 81t-148.5 132t-83.5 177t-25.5 220.5zM659 1542l302 285h643l-480 -285h-465z" />
    <glyph glyph-name="Ucircumflex" unicode="&#xdb;" horiz-adv-x="1839" 
d="M121 602v840h631v-873q0 -198 170 -198q51 0 85.5 17t51 48t22.5 62t6 71v873h631v-852q0 -153 -42.5 -266t-136.5 -195.5t-252 -124t-380 -41.5q-172 0 -305 28.5t-223.5 81t-148.5 132t-83.5 177t-25.5 220.5zM383 1548l213 264h637l213 -264h-455l-80 115l-75 -115
h-453z" />
    <glyph glyph-name="Udieresis" unicode="&#xdc;" horiz-adv-x="1839" 
d="M846 1550h-469v342h469v-342zM1450 1550h-469v342h469v-342zM121 602v840h631v-873q0 -198 170 -198q51 0 85.5 17t51 48t22.5 62t6 71v873h631v-852q0 -153 -42.5 -266t-136.5 -195.5t-252 -124t-380 -41.5q-172 0 -305 28.5t-223.5 81t-148.5 132t-83.5 177
t-25.5 220.5z" />
    <glyph glyph-name="Yacute" unicode="&#xdd;" horiz-adv-x="1660" 
d="M1145 0h-631v483q0 30 -25 70l-552 889h729q47 -106 112.5 -281t83.5 -221q73 206 195 502h667l-563 -899q-16 -28 -16 -70v-473zM584 1536l301 285h643l-479 -285h-465z" />
    <glyph glyph-name="Thorn" unicode="&#xde;" horiz-adv-x="1744" 
d="M758 0h-611v1442h611v-240h309q174 0 309.5 -53t216 -161.5t80.5 -258.5q0 -165 -81 -278.5t-219.5 -166.5t-325.5 -53h-289v-231zM758 840v-248h168q66 0 104.5 34t38.5 93q0 57 -38.5 89t-104.5 32h-168z" />
    <glyph glyph-name="germandbls" unicode="&#xdf;" horiz-adv-x="1816" 
d="M109 0v1014q0 262 181.5 381.5t588.5 122.5q182 1 323 -26t227.5 -71t142 -106t76.5 -124t21 -132q0 -38 -8 -74l-260 -111v-6l26 -14q181 -97 258.5 -198.5t77.5 -243.5q0 -97 -32 -176t-98 -139.5t-177 -94t-260 -33.5q-231 0 -389 62v340q119 -68 246 -68
q54 0 78 15.5t24 48.5q0 31 -21.5 52.5t-72.5 51.5l-119 70q-78 45 -119.5 109t-41 127.5t44 123.5t124.5 98l119 56q0 77 -36 114t-130 37q-172 0 -172 -153v-1053h-622z" />
    <glyph glyph-name="agrave" unicode="&#xe0;" horiz-adv-x="1525" 
d="M649 752h-536q1 47 14.5 91.5t55.5 97.5t109 91t185.5 64t274.5 26q663 0 663 -407v-320q0 -88 3 -181t6.5 -149t5.5 -65h-562q-4 25 -16 104q-61 -69 -153 -101t-226 -32q-188 0 -304 92t-116 256q0 373 629 373q109 0 154 -2v47q0 50 -20 74.5t-75 24.5
q-46 0 -66.5 -23t-25.5 -61zM633 375q0 -36 22.5 -57t61.5 -21q59 0 89 31.5t30 115.5v19q-3 0 -29 1t-51 1q-123 0 -123 -90zM612 1208l-428 355h566l268 -355h-406z" />
    <glyph glyph-name="aacute" unicode="&#xe1;" horiz-adv-x="1525" 
d="M649 752h-536q1 47 14.5 91.5t55.5 97.5t109 91t185.5 64t274.5 26q663 0 663 -407v-320q0 -88 3 -181t6.5 -149t5.5 -65h-562q-4 25 -16 104q-61 -69 -153 -101t-226 -32q-188 0 -304 92t-116 256q0 373 629 373q109 0 154 -2v47q0 50 -20 74.5t-75 24.5
q-46 0 -66.5 -23t-25.5 -61zM633 375q0 -36 22.5 -57t61.5 -21q59 0 89 31.5t30 115.5v19q-3 0 -29 1t-51 1q-123 0 -123 -90zM506 1204l276 355h559l-419 -355h-416z" />
    <glyph glyph-name="acircumflex" unicode="&#xe2;" horiz-adv-x="1525" 
d="M649 752h-536q1 47 14.5 91.5t55.5 97.5t109 91t185.5 64t274.5 26q663 0 663 -407v-320q0 -88 3 -181t6.5 -149t5.5 -65h-562q-4 25 -16 104q-61 -69 -153 -101t-226 -32q-188 0 -304 92t-116 256q0 373 629 373q109 0 154 -2v47q0 50 -20 74.5t-75 24.5
q-46 0 -66.5 -23t-25.5 -61zM633 375q0 -36 22.5 -57t61.5 -21q59 0 89 31.5t30 115.5v19q-3 0 -29 1t-51 1q-123 0 -123 -90zM264 1202l221 293h562l215 -293h-418l-78 123l-78 -123h-424z" />
    <glyph glyph-name="atilde" unicode="&#xe3;" horiz-adv-x="1525" 
d="M649 752h-536q1 47 14.5 91.5t55.5 97.5t109 91t185.5 64t274.5 26q663 0 663 -407v-320q0 -88 3 -181t6.5 -149t5.5 -65h-562q-4 25 -16 104q-61 -69 -153 -101t-226 -32q-188 0 -304 92t-116 256q0 373 629 373q109 0 154 -2v47q0 50 -20 74.5t-75 24.5
q-46 0 -66.5 -23t-25.5 -61zM633 375q0 -36 22.5 -57t61.5 -21q59 0 89 31.5t30 115.5v19q-3 0 -29 1t-51 1q-123 0 -123 -90zM580 1200h-258v80q0 158 71.5 227.5t188.5 69.5q74 0 141 -17t114.5 -34t73.5 -17q13 0 23 9t10 26v33h262v-61q0 -91 -21.5 -156t-59.5 -99.5
t-81 -49.5t-94 -15q-79 0 -197 30.5t-135 30.5q-38 0 -38 -38v-19z" />
    <glyph glyph-name="adieresis" unicode="&#xe4;" horiz-adv-x="1525" 
d="M713 1196h-469v342h469v-342zM1282 1196h-469v342h469v-342zM649 752h-536q1 47 14.5 91.5t55.5 97.5t109 91t185.5 64t274.5 26q663 0 663 -407v-320q0 -88 3 -181t6.5 -149t5.5 -65h-562q-4 25 -16 104q-61 -69 -153 -101t-226 -32q-188 0 -304 92t-116 256
q0 373 629 373q109 0 154 -2v47q0 50 -20 74.5t-75 24.5q-46 0 -66.5 -23t-25.5 -61zM633 375q0 -36 22.5 -57t61.5 -21q59 0 89 31.5t30 115.5v19q-3 0 -29 1t-51 1q-123 0 -123 -90z" />
    <glyph glyph-name="aring" unicode="&#xe5;" horiz-adv-x="1525" 
d="M649 752h-536q1 47 14.5 91.5t55.5 97.5t109 91t185.5 64t274.5 26q663 0 663 -407v-320q0 -88 3 -181t6.5 -149t5.5 -65h-562q-4 25 -16 104q-61 -69 -153 -101t-226 -32q-188 0 -304 92t-116 256q0 373 629 373q109 0 154 -2v47q0 50 -20 74.5t-75 24.5
q-46 0 -66.5 -23t-25.5 -61zM633 375q0 -36 22.5 -57t61.5 -21q59 0 89 31.5t30 115.5v19q-3 0 -29 1t-51 1q-123 0 -123 -90zM451 1409q0 103 89 165t257 62q160 0 244.5 -59t84.5 -164q0 -107 -87.5 -167t-247.5 -60q-164 0 -252 60.5t-88 162.5zM713 1407q0 -30 17.5 -49
t55.5 -19q78 0 78 72q0 70 -76 70q-75 0 -75 -74z" />
    <glyph glyph-name="ae" unicode="&#xe6;" horiz-adv-x="2277" 
d="M651 756h-540q3 53 18.5 100.5t57 97.5t104 86t167.5 59t240 23q164 0 273 -32t147 -86q69 57 185 87.5t249 30.5q139 0 252 -30.5t189.5 -83t128.5 -125t75 -153.5t23 -171q0 -86 -10 -127h-801q0 -76 33 -117t90 -41q47 0 70.5 18t35.5 52h572q-93 -373 -686 -373
q-358 0 -508 144q-160 -144 -461 -144q-232 0 -367 99t-135 262q0 78 26.5 137t73 99t120.5 67.5t157.5 43t196.5 26.5q90 9 209 12v20q0 99 -93 99q-83 0 -92 -80zM633 369q0 -34 23.5 -53t56.5 -19q123 0 123 145v25q-52 0 -72 -2q-69 -5 -100 -26.5t-31 -69.5zM1520 836
q-55 0 -83 -41t-28 -111h225q0 72 -25 112t-89 40z" />
    <glyph glyph-name="ccedilla" unicode="&#xe7;" horiz-adv-x="1495" 
d="M512 -449v211q60 -14 123 -14q47 0 47 23v1q0 5 -0.5 8t-7.5 10t-19.5 12t-40 11.5t-65.5 10.5v45l65 111q-128 14 -227 55.5t-159 97t-99 128.5t-53.5 143.5t-14.5 148.5q0 124 44 227t129 179.5t220 119.5t308 43q120 0 221 -18.5t169 -48.5t121 -71t83.5 -81.5
t50.5 -85.5t27 -77.5t8 -61.5h-559q-5 71 -24 108t-68 37q-53 0 -76 -64t-23 -206q0 -154 22.5 -220.5t76.5 -66.5q45 0 66.5 33t29.5 113h559q-10 -62 -31.5 -116.5t-62.5 -108t-98 -94t-142 -70.5t-190 -43l-27 -46q186 -46 186 -190q0 -61 -29.5 -105.5t-81 -68
t-109.5 -34.5t-126 -11q-122 0 -223 26z" />
    <glyph glyph-name="egrave" unicode="&#xe8;" horiz-adv-x="1544" 
d="M901 344h578q-19 -57 -42.5 -101.5t-75.5 -98t-123 -89t-188.5 -60t-267.5 -24.5q-164 0 -291.5 33.5t-207 88t-131 131.5t-71.5 157t-20 172t24 173.5t78.5 155t136 126t204.5 83.5t276 31t276 -34t202 -90.5t132 -132.5t75 -155.5t22 -164.5v-113h-809q0 -158 110 -158
q50 0 74 18t39 52zM793 836q-59 0 -87 -37t-28 -115h225q0 74 -25.5 113t-84.5 39zM633 1210l-428 355h565l268 -355h-405z" />
    <glyph glyph-name="eacute" unicode="&#xe9;" horiz-adv-x="1544" 
d="M901 344h578q-19 -57 -42.5 -101.5t-75.5 -98t-123 -89t-188.5 -60t-267.5 -24.5q-164 0 -291.5 33.5t-207 88t-131 131.5t-71.5 157t-20 172t24 173.5t78.5 155t136 126t204.5 83.5t276 31t276 -34t202 -90.5t132 -132.5t75 -155.5t22 -164.5v-113h-809q0 -158 110 -158
q50 0 74 18t39 52zM793 836q-59 0 -87 -37t-28 -115h225q0 74 -25.5 113t-84.5 39zM532 1210l277 355h559l-420 -355h-416z" />
    <glyph glyph-name="ecircumflex" unicode="&#xea;" horiz-adv-x="1544" 
d="M901 344h578q-19 -57 -42.5 -101.5t-75.5 -98t-123 -89t-188.5 -60t-267.5 -24.5q-164 0 -291.5 33.5t-207 88t-131 131.5t-71.5 157t-20 172t24 173.5t78.5 155t136 126t204.5 83.5t276 31t276 -34t202 -90.5t132 -132.5t75 -155.5t22 -164.5v-113h-809q0 -158 110 -158
q50 0 74 18t39 52zM793 836q-59 0 -87 -37t-28 -115h225q0 74 -25.5 113t-84.5 39zM272 1202l222 293h561l215 -293h-418l-78 123l-78 -123h-424z" />
    <glyph glyph-name="edieresis" unicode="&#xeb;" horiz-adv-x="1544" 
d="M721 1196h-469v342h469v-342zM1290 1196h-469v342h469v-342zM901 344h578q-19 -57 -42.5 -101.5t-75.5 -98t-123 -89t-188.5 -60t-267.5 -24.5q-164 0 -291.5 33.5t-207 88t-131 131.5t-71.5 157t-20 172t24 173.5t78.5 155t136 126t204.5 83.5t276 31t276 -34t202 -90.5
t132 -132.5t75 -155.5t22 -164.5v-113h-809q0 -158 110 -158q50 0 74 18t39 52zM793 836q-59 0 -87 -37t-28 -115h225q0 74 -25.5 113t-84.5 39z" />
    <glyph glyph-name="igrave" unicode="&#xec;" horiz-adv-x="839" 
d="M733 0h-622v1094h622v-1094zM236 1184l-429 354h566l268 -354h-405z" />
    <glyph glyph-name="iacute" unicode="&#xed;" horiz-adv-x="839" 
d="M733 0h-622v1094h622v-1094zM199 1184l276 354h559l-420 -354h-415z" />
    <glyph glyph-name="icircumflex" unicode="&#xee;" horiz-adv-x="839" 
d="M733 0h-622v1094h622v-1094zM-80 1202l221 293h561l216 -293h-418l-78 123l-78 -123h-424z" />
    <glyph glyph-name="idieresis" unicode="&#xef;" horiz-adv-x="839" 
d="M369 1196h-469v342h469v-342zM938 1196h-469v342h469v-342zM733 0h-622v1094h622v-1094z" />
    <glyph glyph-name="eth" unicode="&#xf0;" horiz-adv-x="1585" 
d="M307 944l-78 156l150 76q-81 10 -186 14v326q365 -4 661 -99l291 148l80 -154l-160 -80q451 -234 451 -704q0 -139 -36.5 -249.5t-102 -186t-159 -125.5t-203 -72.5t-239.5 -22.5q-219 0 -379 59.5t-248 178.5t-88 287q0 126 56.5 221t154 149.5t222 78.5t268.5 16h20
q-39 92 -155 145zM784 285q95 0 95 188q0 109 -20.5 154t-72.5 45q-96 0 -96 -189q0 -198 94 -198z" />
    <glyph glyph-name="ntilde" unicode="&#xf1;" horiz-adv-x="1624" 
d="M731 0h-622v795q0 210 -3 299h615q3 -14 5 -35.5t3 -43.5t2 -28q125 135 359 135q210 0 319 -116.5t109 -333.5v-672h-625v653q0 113 -74 113q-43 0 -65.5 -32t-22.5 -124v-610zM627 1200h-258v80q0 158 71.5 227.5t188.5 69.5q74 0 141 -17t114.5 -34t73.5 -17
q13 0 23 9t10 26v33h262v-61q0 -91 -21.5 -156t-59.5 -99.5t-81 -49.5t-94 -15q-79 0 -196.5 30.5t-134.5 30.5q-39 0 -39 -38v-19z" />
    <glyph glyph-name="ograve" unicode="&#xf2;" horiz-adv-x="1576" 
d="M61 543q0 125 43.5 229t130 183t228 123t325.5 44q147 0 269.5 -32.5t206 -88t141.5 -129.5t84.5 -155.5t26.5 -167.5q0 -132 -45.5 -237.5t-135 -182t-231.5 -117.5t-328 -41q-156 0 -281.5 35.5t-204.5 92.5t-132.5 133.5t-75 153.5t-21.5 157zM786 283q52 0 72.5 59
t20.5 199q0 154 -19 212t-76 58q-48 0 -71 -57t-23 -203q0 -144 22 -206t74 -62zM623 1214l-428 355h565l268 -355h-405z" />
    <glyph glyph-name="oacute" unicode="&#xf3;" horiz-adv-x="1576" 
d="M61 543q0 125 43.5 229t130 183t228 123t325.5 44q147 0 269.5 -32.5t206 -88t141.5 -129.5t84.5 -155.5t26.5 -167.5q0 -132 -45.5 -237.5t-135 -182t-231.5 -117.5t-328 -41q-156 0 -281.5 35.5t-204.5 92.5t-132.5 133.5t-75 153.5t-21.5 157zM786 283q52 0 72.5 59
t20.5 199q0 154 -19 212t-76 58q-48 0 -71 -57t-23 -203q0 -144 22 -206t74 -62zM530 1210l277 355h559l-420 -355h-416z" />
    <glyph glyph-name="ocircumflex" unicode="&#xf4;" horiz-adv-x="1576" 
d="M61 543q0 125 43.5 229t130 183t228 123t325.5 44q147 0 269.5 -32.5t206 -88t141.5 -129.5t84.5 -155.5t26.5 -167.5q0 -132 -45.5 -237.5t-135 -182t-231.5 -117.5t-328 -41q-156 0 -281.5 35.5t-204.5 92.5t-132.5 133.5t-75 153.5t-21.5 157zM786 283q52 0 72.5 59
t20.5 199q0 154 -19 212t-76 58q-48 0 -71 -57t-23 -203q0 -144 22 -206t74 -62zM289 1202l221 293h561l215 -293h-418l-77 123l-78 -123h-424z" />
    <glyph glyph-name="otilde" unicode="&#xf5;" horiz-adv-x="1576" 
d="M61 543q0 125 43.5 229t130 183t228 123t325.5 44q147 0 269.5 -32.5t206 -88t141.5 -129.5t84.5 -155.5t26.5 -167.5q0 -132 -45.5 -237.5t-135 -182t-231.5 -117.5t-328 -41q-156 0 -281.5 35.5t-204.5 92.5t-132.5 133.5t-75 153.5t-21.5 157zM786 283q52 0 72.5 59
t20.5 199q0 154 -19 212t-76 58q-48 0 -71 -57t-23 -203q0 -144 22 -206t74 -62zM604 1200h-258v80q0 158 71.5 227.5t188.5 69.5q74 0 141 -17t115 -34t74 -17q13 0 23 9t10 26v33h262v-61q0 -91 -21.5 -156t-59.5 -99.5t-81 -49.5t-94 -15q-79 0 -197 30.5t-135 30.5
q-39 0 -39 -38v-19z" />
    <glyph glyph-name="odieresis" unicode="&#xf6;" horiz-adv-x="1576" 
d="M737 1196h-469v342h469v-342zM1307 1196h-469v342h469v-342zM61 543q0 125 43.5 229t130 183t228 123t325.5 44q147 0 269.5 -32.5t206 -88t141.5 -129.5t84.5 -155.5t26.5 -167.5q0 -132 -45.5 -237.5t-135 -182t-231.5 -117.5t-328 -41q-156 0 -281.5 35.5t-204.5 92.5
t-132.5 133.5t-75 153.5t-21.5 157zM786 283q52 0 72.5 59t20.5 199q0 154 -19 212t-76 58q-48 0 -71 -57t-23 -203q0 -144 22 -206t74 -62z" />
    <glyph glyph-name="divide" unicode="&#xf7;" horiz-adv-x="1406" 
d="M901 -20h-391v327h391v-327zM901 862h-391v328h391v-328zM1307 401h-1211v359h1211v-359z" />
    <glyph glyph-name="oslash" unicode="&#xf8;" horiz-adv-x="1576" 
d="M186 -31l115 127q-120 80 -180 198.5t-60 248.5q0 123 48.5 228t139 183.5t230.5 123t314 44.5q211 0 370 -67l64 69h188l-129 -139q113 -80 171.5 -193.5t58.5 -242.5q0 -271 -195 -424.5t-545 -153.5q-206 0 -364 66l-62 -68h-164zM948 618l-243 -264q41 -53 108 -53
q66 0 101.5 61.5t35.5 178.5q0 52 -2 77zM662 498l239 266q-33 33 -94 33q-148 0 -148 -246q0 -29 3 -53z" />
    <glyph glyph-name="ugrave" unicode="&#xf9;" horiz-adv-x="1617" 
d="M100 395v699h625v-639q0 -131 74 -131q47 0 67.5 37.5t20.5 121.5v611h622v-686q0 -371 2 -408h-612q-3 16 -10 113q-32 -34 -61.5 -56.5t-73 -43.5t-103 -31.5t-135.5 -10.5q-193 0 -304.5 112.5t-111.5 311.5zM621 1184l-428 354h565l268 -354h-405z" />
    <glyph glyph-name="uacute" unicode="&#xfa;" horiz-adv-x="1617" 
d="M100 395v699h625v-639q0 -131 74 -131q47 0 67.5 37.5t20.5 121.5v611h622v-686q0 -371 2 -408h-612q-3 16 -10 113q-32 -34 -61.5 -56.5t-73 -43.5t-103 -31.5t-135.5 -10.5q-193 0 -304.5 112.5t-111.5 311.5zM580 1184l276 354h559l-420 -354h-415z" />
    <glyph glyph-name="ucircumflex" unicode="&#xfb;" horiz-adv-x="1617" 
d="M100 395v699h625v-639q0 -131 74 -131q47 0 67.5 37.5t20.5 121.5v611h622v-686q0 -371 2 -408h-612q-3 16 -10 113q-32 -34 -61.5 -56.5t-73 -43.5t-103 -31.5t-135.5 -10.5q-193 0 -304.5 112.5t-111.5 311.5zM309 1202l221 293h562l215 -293h-418l-78 123l-78 -123
h-424z" />
    <glyph glyph-name="udieresis" unicode="&#xfc;" horiz-adv-x="1617" 
d="M774 1196h-469v342h469v-342zM1343 1196h-469v342h469v-342zM100 395v699h625v-639q0 -131 74 -131q47 0 67.5 37.5t20.5 121.5v611h622v-686q0 -371 2 -408h-612q-3 16 -10 113q-32 -34 -61.5 -56.5t-73 -43.5t-103 -31.5t-135.5 -10.5q-193 0 -304.5 112.5
t-111.5 311.5z" />
    <glyph glyph-name="yacute" unicode="&#xfd;" horiz-adv-x="1484" 
d="M201 -416v375q3 0 36.5 -1t49.5 -1q108 0 127 31l-445 1106h666q85 -371 127 -691h16q5 36 25 179.5t40.5 281t37.5 230.5h620l-364 -1043q-66 -187 -146 -288.5t-202.5 -147t-319.5 -45.5q-158 0 -268 14zM508 1184l276 354h559l-419 -354h-416z" />
    <glyph glyph-name="thorn" unicode="&#xfe;" horiz-adv-x="1622" 
d="M727 -406h-618v1903h616v-483q132 106 346 106q97 0 184 -36.5t156 -105t109.5 -177t40.5 -242.5q0 -123 -32.5 -223.5t-86.5 -167t-127.5 -112t-151.5 -65.5t-162 -20q-172 0 -274 88v-465zM813 326q113 0 113 221q0 120 -28.5 169.5t-82.5 49.5q-57 0 -79.5 -51
t-22.5 -168q0 -221 100 -221z" />
    <glyph glyph-name="ydieresis" unicode="&#xff;" horiz-adv-x="1484" 
d="M690 1196h-469v342h469v-342zM1260 1196h-469v342h469v-342zM201 -416v375q3 0 36.5 -1t49.5 -1q108 0 127 31l-445 1106h666q85 -371 127 -691h16q5 36 25 179.5t40.5 281t37.5 230.5h620l-364 -1043q-66 -187 -146 -288.5t-202.5 -147t-319.5 -45.5q-158 0 -268 14z
" />
    <glyph glyph-name="Amacron" unicode="&#x100;" horiz-adv-x="1812" 
d="M-27 0l496 1442h829l541 -1442h-672l-55 205h-473l-51 -205h-615zM879 1049h-17q-27 -125 -110 -455h243q-71 299 -116 455zM473 1559v311h817v-311h-817z" />
    <glyph glyph-name="amacron" unicode="&#x101;" horiz-adv-x="1525" 
d="M649 752h-536q1 47 14.5 91.5t55.5 97.5t109 91t185.5 64t274.5 26q663 0 663 -407v-320q0 -88 3 -181t6.5 -149t5.5 -65h-562q-4 25 -16 104q-61 -69 -153 -101t-226 -32q-188 0 -304 92t-116 256q0 373 629 373q109 0 154 -2v47q0 50 -20 74.5t-75 24.5
q-46 0 -66.5 -23t-25.5 -61zM633 375q0 -36 22.5 -57t61.5 -21q59 0 89 31.5t30 115.5v19q-3 0 -29 1t-51 1q-123 0 -123 -90zM377 1206v332h774v-332h-774z" />
    <glyph glyph-name="Abreve" unicode="&#x102;" horiz-adv-x="1812" 
d="M-27 0l496 1442h829l541 -1442h-672l-55 205h-473l-51 -205h-615zM879 1049h-17q-27 -125 -110 -455h243q-71 299 -116 455zM977 1874h350q-8 -69 -33.5 -127.5t-74 -111.5t-133.5 -84t-199 -31q-104 0 -186 29.5t-132 80.5t-77.5 112.5t-32.5 131.5h346q20 -70 90 -70
q68 0 82 70z" />
    <glyph glyph-name="abreve" unicode="&#x103;" horiz-adv-x="1525" 
d="M649 752h-536q1 47 14.5 91.5t55.5 97.5t109 91t185.5 64t274.5 26q663 0 663 -407v-320q0 -88 3 -181t6.5 -149t5.5 -65h-562q-4 25 -16 104q-61 -69 -153 -101t-226 -32q-188 0 -304 92t-116 256q0 373 629 373q109 0 154 -2v47q0 50 -20 74.5t-75 24.5
q-46 0 -66.5 -23t-25.5 -61zM633 375q0 -36 22.5 -57t61.5 -21q59 0 89 31.5t30 115.5v19q-3 0 -29 1t-51 1q-123 0 -123 -90zM858 1538h309q-3 -67 -26 -127t-69 -112.5t-126 -83.5t-186 -31q-99 0 -177.5 29.5t-125.5 80t-71.5 113t-23.5 131.5h310q5 -34 29.5 -56
t64.5 -22q38 0 62.5 22t29.5 56z" />
    <glyph glyph-name="Aogonek" unicode="&#x104;" horiz-adv-x="1812" 
d="M-27 0l496 1442h829l541 -1442h-178q-40 -25 -58 -53t-18 -49q0 -50 76 -50q51 0 96 11v-289q-113 -55 -295 -55q-63 0 -118.5 11.5t-106.5 37.5t-81 77t-30 121q0 62 39.5 126.5t114.5 111.5h-113l-55 205h-473l-51 -205h-615zM879 1049h-17q-27 -125 -110 -455h243
q-71 299 -116 455z" />
    <glyph glyph-name="aogonek" unicode="&#x105;" horiz-adv-x="1529" 
d="M961 0h-93q-4 25 -16 104q-61 -69 -153 -101t-226 -32q-188 0 -304 92t-116 256q0 373 629 373q109 0 154 -2v47q0 50 -20 74.5t-75 24.5q-46 0 -66.5 -23t-25.5 -61h-536q1 47 14.5 91.5t55.5 97.5t109 91t185.5 64t274.5 26q663 0 663 -407v-320q0 -88 3 -181t6.5 -149
t5.5 -65h-89q-59 -29 -85.5 -63t-26.5 -60q0 -49 76 -49q55 0 96 10v-289q-113 -55 -295 -55q-63 0 -118.5 11.5t-106.5 38t-81 77.5t-30 121q0 71 49 142t142 116zM633 375q0 -36 22.5 -57t61.5 -21q59 0 89 31.5t30 115.5v19q-3 0 -29 1t-51 1q-123 0 -123 -90z" />
    <glyph glyph-name="Cacute" unicode="&#x106;" horiz-adv-x="1847" 
d="M1790 918h-633q-7 42 -19 74t-34 61.5t-60.5 45t-91.5 15.5q-112 0 -166.5 -95t-54.5 -292q0 -79 9 -140.5t31.5 -120t68 -90.5t112.5 -32q100 0 146.5 49.5t66.5 138.5h619q-34 -194 -148.5 -322.5t-290 -187.5t-413.5 -59q-205 0 -368.5 55t-272 155t-166 240.5
t-57.5 311.5q0 124 30.5 233.5t98.5 206t169 165.5t250.5 109t333.5 40q165 0 300.5 -30t229.5 -81.5t161.5 -124t102.5 -153t46 -172.5zM664 1548l301 285h643l-480 -285h-464z" />
    <glyph glyph-name="cacute" unicode="&#x107;" horiz-adv-x="1495" 
d="M1442 678h-559q-5 71 -24 108t-68 37q-53 0 -76 -64t-23 -206q0 -154 22.5 -220.5t76.5 -66.5q45 0 66.5 33t29.5 113h559q-11 -71 -37.5 -132t-79 -119t-127 -99t-188 -66t-254.5 -25q-117 0 -215.5 18.5t-169.5 50t-126.5 77t-90 95.5t-57 109.5t-31.5 115.5t-9 116
q0 124 44 227t129 179.5t220 119.5t308 43q120 0 221 -18.5t169 -48.5t121 -71t83.5 -81.5t50.5 -85.5t27 -77.5t8 -61.5zM522 1204l277 355h559l-420 -355h-416z" />
    <glyph glyph-name="Ccircumflex" unicode="&#x108;" horiz-adv-x="1847" 
d="M1790 918h-633q-7 42 -19 74t-34 61.5t-60.5 45t-91.5 15.5q-112 0 -166.5 -95t-54.5 -292q0 -79 9 -140.5t31.5 -120t68 -90.5t112.5 -32q100 0 146.5 49.5t66.5 138.5h619q-34 -194 -148.5 -322.5t-290 -187.5t-413.5 -59q-205 0 -368.5 55t-272 155t-166 240.5
t-57.5 311.5q0 124 30.5 233.5t98.5 206t169 165.5t250.5 109t333.5 40q165 0 300.5 -30t229.5 -81.5t161.5 -124t102.5 -153t46 -172.5zM408 1548l213 264h636l213 -264h-454l-80 115l-76 -115h-452z" />
    <glyph glyph-name="ccircumflex" unicode="&#x109;" horiz-adv-x="1495" 
d="M1442 678h-559q-5 71 -24 108t-68 37q-53 0 -76 -64t-23 -206q0 -154 22.5 -220.5t76.5 -66.5q45 0 66.5 33t29.5 113h559q-11 -71 -37.5 -132t-79 -119t-127 -99t-188 -66t-254.5 -25q-117 0 -215.5 18.5t-169.5 50t-126.5 77t-90 95.5t-57 109.5t-31.5 115.5t-9 116
q0 124 44 227t129 179.5t220 119.5t308 43q120 0 221 -18.5t169 -48.5t121 -71t83.5 -81.5t50.5 -85.5t27 -77.5t8 -61.5zM248 1202l221 293h561l215 -293h-418l-77 123l-78 -123h-424z" />
    <glyph glyph-name="Cdotaccent" unicode="&#x10a;" horiz-adv-x="1847" 
d="M1790 918h-633q-7 42 -19 74t-34 61.5t-60.5 45t-91.5 15.5q-112 0 -166.5 -95t-54.5 -292q0 -79 9 -140.5t31.5 -120t68 -90.5t112.5 -32q100 0 146.5 49.5t66.5 138.5h619q-34 -194 -148.5 -322.5t-290 -187.5t-413.5 -59q-205 0 -368.5 55t-272 155t-166 240.5
t-57.5 311.5q0 124 30.5 233.5t98.5 206t169 165.5t250.5 109t333.5 40q165 0 300.5 -30t229.5 -81.5t161.5 -124t102.5 -153t46 -172.5zM1198 1550h-522v340h522v-340z" />
    <glyph glyph-name="cdotaccent" unicode="&#x10b;" horiz-adv-x="1495" 
d="M1442 678h-559q-5 71 -24 108t-68 37q-53 0 -76 -64t-23 -206q0 -154 22.5 -220.5t76.5 -66.5q45 0 66.5 33t29.5 113h559q-11 -71 -37.5 -132t-79 -119t-127 -99t-188 -66t-254.5 -25q-117 0 -215.5 18.5t-169.5 50t-126.5 77t-90 95.5t-57 109.5t-31.5 115.5t-9 116
q0 124 44 227t129 179.5t220 119.5t308 43q120 0 221 -18.5t169 -48.5t121 -71t83.5 -81.5t50.5 -85.5t27 -77.5t8 -61.5zM1020 1196h-504v342h504v-342z" />
    <glyph glyph-name="Ccaron" unicode="&#x10c;" horiz-adv-x="1847" 
d="M1790 918h-633q-7 42 -19 74t-34 61.5t-60.5 45t-91.5 15.5q-112 0 -166.5 -95t-54.5 -292q0 -79 9 -140.5t31.5 -120t68 -90.5t112.5 -32q100 0 146.5 49.5t66.5 138.5h619q-34 -194 -148.5 -322.5t-290 -187.5t-413.5 -59q-205 0 -368.5 55t-272 155t-166 240.5
t-57.5 311.5q0 124 30.5 233.5t98.5 206t169 165.5t250.5 109t333.5 40q165 0 300.5 -30t229.5 -81.5t161.5 -124t102.5 -153t46 -172.5zM1260 1552h-637l-215 265h456l80 -115l76 115h450z" />
    <glyph glyph-name="ccaron" unicode="&#x10d;" horiz-adv-x="1495" 
d="M1442 678h-559q-5 71 -24 108t-68 37q-53 0 -76 -64t-23 -206q0 -154 22.5 -220.5t76.5 -66.5q45 0 66.5 33t29.5 113h559q-11 -71 -37.5 -132t-79 -119t-127 -99t-188 -66t-254.5 -25q-117 0 -215.5 18.5t-169.5 50t-126.5 77t-90 95.5t-57 109.5t-31.5 115.5t-9 116
q0 124 44 227t129 179.5t220 119.5t308 43q120 0 221 -18.5t169 -48.5t121 -71t83.5 -81.5t50.5 -85.5t27 -77.5t8 -61.5zM1001 1202h-520l-233 293h416l81 -123l74 123h426z" />
    <glyph glyph-name="Dcaron" unicode="&#x10e;" horiz-adv-x="1898" 
d="M995 0h-854v1442h852q168 0 307.5 -36.5t236.5 -100.5t164 -153t98.5 -192.5t31.5 -220.5q0 -157 -55.5 -291t-159 -234t-263.5 -157t-358 -57zM772 1061v-680h156q129 0 185 89.5t56 256.5q0 70 -9 123t-33.5 104t-75 79t-125.5 28h-154zM1196 1552h-637l-215 265h457
l80 -115l75 115h451z" />
    <glyph glyph-name="dcaron" unicode="&#x10f;" horiz-adv-x="1847" 
d="M891 1024v473h625v-1104q0 -253 4 -393h-613q-8 43 -12 100q-68 -72 -142 -101.5t-192 -29.5q-122 0 -218.5 46t-157.5 125.5t-92.5 183.5t-31.5 225q0 266 147.5 418.5t383.5 152.5q208 0 299 -96zM805 324q64 0 87 55.5t23 171.5q0 108 -22.5 160.5t-83.5 52.5
q-57 0 -85 -57.5t-28 -157.5q0 -225 109 -225zM1872 877h-268l-17 620h328z" />
    <glyph glyph-name="Dcroat" unicode="&#x110;" horiz-adv-x="1925" 
d="M168 0v602h-143v270h143v570h852q168 0 307.5 -36.5t236.5 -100.5t164 -153t98.5 -192.5t31.5 -220.5q0 -157 -55.5 -291t-159 -234t-263.5 -157t-358 -57h-854zM799 381h155q129 0 185.5 90t56.5 256q0 54 -5 98t-21 90t-42 76.5t-71 50t-105 19.5h-153v-189h202v-270
h-202v-221z" />
    <glyph glyph-name="dcroat" unicode="&#x111;" horiz-adv-x="1622" 
d="M506 1182v219h385v96h625v-96h116v-219h-116v-840q0 -240 4 -342h-613q-8 43 -12 100q-67 -70 -148.5 -99.5t-201.5 -29.5q-153 0 -263.5 72t-165.5 195t-55 282q0 274 148 428t395 154q110 0 183 -28.5t104 -67.5v176h-385zM805 326q63 0 86.5 55.5t23.5 161.5
q0 50 -3.5 82.5t-14 62t-32.5 43.5t-56 14q-56 0 -84.5 -55.5t-28.5 -148.5q0 -215 109 -215z" />
    <glyph glyph-name="Emacron" unicode="&#x112;" horiz-adv-x="1605" 
d="M141 0v1442h1379v-389h-768v-129h731v-389h-731v-148h823l-74 -387h-1360zM432 1571v311h817v-311h-817z" />
    <glyph glyph-name="emacron" unicode="&#x113;" horiz-adv-x="1544" 
d="M901 344h578q-19 -57 -42.5 -101.5t-75.5 -98t-123 -89t-188.5 -60t-267.5 -24.5q-164 0 -291.5 33.5t-207 88t-131 131.5t-71.5 157t-20 172t24 173.5t78.5 155t136 126t204.5 83.5t276 31t276 -34t202 -90.5t132 -132.5t75 -155.5t22 -164.5v-113h-809q0 -158 110 -158
q50 0 74 18t39 52zM793 836q-59 0 -87 -37t-28 -115h225q0 74 -25.5 113t-84.5 39zM385 1206v332h774v-332h-774z" />
    <glyph glyph-name="Ebreve" unicode="&#x114;" horiz-adv-x="1605" 
d="M141 0v1442h1379v-389h-768v-129h731v-389h-731v-148h823l-74 -387h-1360zM924 1880h350q-8 -69 -33.5 -127.5t-74 -111.5t-133.5 -84t-199 -31q-104 0 -186 29.5t-132 80.5t-77.5 112.5t-32.5 131.5h346q20 -70 90 -70q68 0 82 70z" />
    <glyph glyph-name="ebreve" unicode="&#x115;" horiz-adv-x="1544" 
d="M901 344h578q-19 -57 -42.5 -101.5t-75.5 -98t-123 -89t-188.5 -60t-267.5 -24.5q-164 0 -291.5 33.5t-207 88t-131 131.5t-71.5 157t-20 172t24 173.5t78.5 155t136 126t204.5 83.5t276 31t276 -34t202 -90.5t132 -132.5t75 -155.5t22 -164.5v-113h-809q0 -158 110 -158
q50 0 74 18t39 52zM793 836q-59 0 -87 -37t-28 -115h225q0 74 -25.5 113t-84.5 39zM887 1538h309q-3 -53 -17 -101.5t-45.5 -95.5t-76.5 -81t-114.5 -55t-154.5 -21q-99 0 -177 29.5t-125.5 80t-71.5 113t-23 131.5h309q5 -34 30 -56t65 -22q38 0 62.5 22t29.5 56z" />
    <glyph glyph-name="Edotaccent" unicode="&#x116;" horiz-adv-x="1605" 
d="M141 0v1442h1379v-389h-768v-129h731v-389h-731v-148h823l-74 -387h-1360zM1118 1559h-522v339h522v-339z" />
    <glyph glyph-name="edotaccent" unicode="&#x117;" horiz-adv-x="1544" 
d="M901 344h578q-19 -57 -42.5 -101.5t-75.5 -98t-123 -89t-188.5 -60t-267.5 -24.5q-164 0 -291.5 33.5t-207 88t-131 131.5t-71.5 157t-20 172t24 173.5t78.5 155t136 126t204.5 83.5t276 31t276 -34t202 -90.5t132 -132.5t75 -155.5t22 -164.5v-113h-809q0 -158 110 -158
q50 0 74 18t39 52zM793 836q-59 0 -87 -37t-28 -115h225q0 74 -25.5 113t-84.5 39zM1024 1196h-504v342h504v-342z" />
    <glyph glyph-name="Eogonek" unicode="&#x118;" horiz-adv-x="1605" 
d="M141 0v1442h1379v-389h-768v-129h731v-389h-731v-148h823l-74 -387h-168q-40 -25 -58 -53t-18 -49q0 -50 76 -50q52 0 97 11v-289q-113 -55 -295 -55q-63 0 -118.5 11.5t-106.5 37.5t-81 77t-30 121q0 62 39 126.5t114 111.5h-811z" />
    <glyph glyph-name="eogonek" unicode="&#x119;" horiz-adv-x="1544" 
d="M901 344h578q-16 -48 -36 -86.5t-55 -83.5t-91 -83t-130 -64h2q-67 -29 -97 -65t-30 -64q0 -50 76 -50q51 0 96 11v-289q-113 -55 -294 -55q-63 0 -118.5 11.5t-106.5 37.5t-81 77t-30 121q0 54 29 110.5t85 100.5q-145 8 -257 45.5t-182.5 92t-116 128.5t-63.5 150.5
t-18 163.5q0 92 24 173.5t78.5 155t136 126t204.5 83.5t276 31t276 -34t202 -90.5t132 -132.5t75 -155.5t22 -164.5v-113h-809q0 -158 110 -158q50 0 74 18t39 52zM793 836q-59 0 -87 -37t-28 -115h225q0 74 -25.5 113t-84.5 39z" />
    <glyph glyph-name="Ecaron" unicode="&#x11a;" horiz-adv-x="1605" 
d="M141 0v1442h1379v-389h-768v-129h731v-389h-731v-148h823l-74 -387h-1360zM1159 1552h-637l-215 265h457l80 -115l76 115h450z" />
    <glyph glyph-name="ecaron" unicode="&#x11b;" horiz-adv-x="1544" 
d="M901 344h578q-19 -57 -42.5 -101.5t-75.5 -98t-123 -89t-188.5 -60t-267.5 -24.5q-164 0 -291.5 33.5t-207 88t-131 131.5t-71.5 157t-20 172t24 173.5t78.5 155t136 126t204.5 83.5t276 31t276 -34t202 -90.5t132 -132.5t75 -155.5t22 -164.5v-113h-809q0 -158 110 -158
q50 0 74 18t39 52zM793 836q-59 0 -87 -37t-28 -115h225q0 74 -25.5 113t-84.5 39zM1026 1202h-520l-234 293h416l82 -123l74 123h426z" />
    <glyph glyph-name="Gcircumflex" unicode="&#x11c;" horiz-adv-x="1861" 
d="M944 492v358h805v-850h-410q-18 39 -32 127q-74 -86 -184 -125t-298 -39q-179 0 -323 54.5t-238.5 152.5t-145 233t-50.5 297q0 122 28.5 231.5t95.5 211t166.5 175t251 117.5t340.5 44q329 0 544 -130t255 -356h-629q-16 65 -55 99t-117 34q-217 0 -217 -391
q0 -87 12.5 -158.5t39.5 -128t72.5 -87.5t107.5 -31q44 0 78.5 12t53.5 29t31 39t15.5 39.5t3.5 33.5v9h-201zM399 1561l213 264h637l213 -264h-454l-80 114l-76 -114h-453z" />
    <glyph glyph-name="gcircumflex" unicode="&#x11d;" horiz-adv-x="1607" 
d="M66 -53h598q10 -38 35.5 -58t76.5 -20q113 0 113 164v106q-53 -63 -127 -96t-211 -33q-152 0 -265 72t-169 192t-56 271q0 261 146 419t373 158q240 0 311 -127q1 9 3 47.5t3 51.5h619q0 -2 -2.5 -125.5t-2.5 -216.5v-629q0 -155 -43 -261t-137 -171.5t-231 -94
t-336 -28.5q-167 0 -294.5 26.5t-199.5 64.5t-119 92.5t-63 99.5t-22 96zM805 371q63 0 85.5 48t22.5 152q0 102 -21 148.5t-85 46.5q-50 0 -80.5 -50t-30.5 -155q0 -190 109 -190zM344 1202l221 293h561l215 -293h-417l-78 123l-78 -123h-424z" />
    <glyph glyph-name="Gbreve" unicode="&#x11e;" horiz-adv-x="1861" 
d="M944 492v358h805v-850h-410q-18 39 -32 127q-74 -86 -184 -125t-298 -39q-179 0 -323 54.5t-238.5 152.5t-145 233t-50.5 297q0 122 28.5 231.5t95.5 211t166.5 175t251 117.5t340.5 44q329 0 544 -130t255 -356h-629q-16 65 -55 99t-117 34q-217 0 -217 -391
q0 -87 12.5 -158.5t39.5 -128t72.5 -87.5t107.5 -31q44 0 78.5 12t53.5 29t31 39t15.5 39.5t3.5 33.5v9h-201zM1010 1905h350q-6 -54 -22.5 -102t-50 -95.5t-81 -81.5t-121 -55t-165.5 -21q-104 0 -186 29.5t-132 81t-77.5 113t-32.5 131.5h346q20 -70 90 -70q68 0 82 70z
" />
    <glyph glyph-name="gbreve" unicode="&#x11f;" horiz-adv-x="1607" 
d="M66 -53h598q10 -38 35.5 -58t76.5 -20q113 0 113 164v106q-53 -63 -127 -96t-211 -33q-152 0 -265 72t-169 192t-56 271q0 261 146 419t373 158q240 0 311 -127q1 9 3 47.5t3 51.5h619q0 -2 -2.5 -125.5t-2.5 -216.5v-629q0 -155 -43 -261t-137 -171.5t-231 -94
t-336 -28.5q-167 0 -294.5 26.5t-199.5 64.5t-119 92.5t-63 99.5t-22 96zM805 371q63 0 85.5 48t22.5 152q0 102 -21 148.5t-85 46.5q-50 0 -80.5 -50t-30.5 -155q0 -190 109 -190zM938 1538h309q-3 -67 -26 -127t-69 -112.5t-126 -83.5t-186 -31q-99 0 -177.5 29.5
t-125.5 80t-71.5 113t-23.5 131.5h310q5 -34 29.5 -56t64.5 -22q38 0 62.5 22t29.5 56z" />
    <glyph glyph-name="Gdotaccent" unicode="&#x120;" horiz-adv-x="1861" 
d="M944 492v358h805v-850h-410q-18 39 -32 127q-74 -86 -184 -125t-298 -39q-179 0 -323 54.5t-238.5 152.5t-145 233t-50.5 297q0 122 28.5 231.5t95.5 211t166.5 175t251 117.5t340.5 44q329 0 544 -130t255 -356h-629q-16 65 -55 99t-117 34q-217 0 -217 -391
q0 -87 12.5 -158.5t39.5 -128t72.5 -87.5t107.5 -31q44 0 78.5 12t53.5 29t31 39t15.5 39.5t3.5 33.5v9h-201zM1204 1585h-522v340h522v-340z" />
    <glyph glyph-name="gdotaccent" unicode="&#x121;" horiz-adv-x="1607" 
d="M66 -53h598q10 -38 35.5 -58t76.5 -20q113 0 113 164v106q-53 -63 -127 -96t-211 -33q-152 0 -265 72t-169 192t-56 271q0 261 146 419t373 158q240 0 311 -127q1 9 3 47.5t3 51.5h619q0 -2 -2.5 -125.5t-2.5 -216.5v-629q0 -155 -43 -261t-137 -171.5t-231 -94
t-336 -28.5q-167 0 -294.5 26.5t-199.5 64.5t-119 92.5t-63 99.5t-22 96zM805 371q63 0 85.5 48t22.5 152q0 102 -21 148.5t-85 46.5q-50 0 -80.5 -50t-30.5 -155q0 -190 109 -190zM1096 1196h-504v342h504v-342z" />
    <glyph glyph-name="uni0122" unicode="&#x122;" horiz-adv-x="1861" 
d="M944 492v358h805v-850h-410q-18 39 -32 127q-74 -86 -184 -125t-298 -39q-179 0 -323 54.5t-238.5 152.5t-145 233t-50.5 297q0 122 28.5 231.5t95.5 211t166.5 175t251 117.5t340.5 44q329 0 544 -130t255 -356h-629q-16 65 -55 99t-117 34q-217 0 -217 -391
q0 -87 12.5 -158.5t39.5 -128t72.5 -87.5t107.5 -31q44 0 78.5 12t53.5 29t31 39t15.5 39.5t3.5 33.5v9h-201zM764 -141h444q-16 -112 -77.5 -248.5t-139.5 -210.5h-387q65 102 109 236t51 223z" />
    <glyph glyph-name="uni0123" unicode="&#x123;" horiz-adv-x="1607" 
d="M1092 1204h-512q26 112 110 242.5t162 200.5h434q-68 -103 -122 -224.5t-72 -218.5zM66 -53h598q10 -38 35.5 -58t76.5 -20q113 0 113 164v106q-53 -63 -127 -96t-211 -33q-152 0 -265 72t-169 192t-56 271q0 261 146 419t373 158q240 0 311 -127q1 9 3 47.5t3 51.5h619
q0 -2 -2.5 -125.5t-2.5 -216.5v-629q0 -155 -43 -261t-137 -171.5t-231 -94t-336 -28.5q-167 0 -294.5 26.5t-199.5 64.5t-119 92.5t-63 99.5t-22 96zM805 371q63 0 85.5 48t22.5 152q0 102 -21 148.5t-85 46.5q-50 0 -80.5 -50t-30.5 -155q0 -190 109 -190z" />
    <glyph glyph-name="Hcircumflex" unicode="&#x124;" horiz-adv-x="1880" 
d="M772 0h-631v1442h631v-498h336v498h631v-1442h-631v555h-336v-555zM408 1565l213 264h636l213 -264h-454l-80 114l-76 -114h-452z" />
    <glyph glyph-name="hcircumflex" unicode="&#x125;" horiz-adv-x="1624" 
d="M-170 1573l258 258h664l245 -258h-497l-84 92l-76 -92h-510zM109 0v1497h622v-502q142 127 369 127q203 0 310.5 -114t107.5 -326v-682h-625v653q0 113 -76 113q-50 0 -68 -39.5t-18 -114.5v-612h-622z" />
    <glyph glyph-name="Hbar" unicode="&#x126;" horiz-adv-x="1880" 
d="M141 0v1036h-141v271h141v135h631v-135h336v135h631v-135h141v-271h-141v-1036h-631v537h-336v-537h-631zM772 1036v-110h336v110h-336z" />
    <glyph glyph-name="hbar" unicode="&#x127;" horiz-adv-x="1624" 
d="M109 0v1182h-164v219h164v96h622v-96h406v-219h-406v-213q58 56 143 91.5t234 35.5q410 0 410 -441v-655h-625v627q0 112 -76 112q-50 0 -68 -39t-18 -114v-586h-622z" />
    <glyph glyph-name="Itilde" unicode="&#x128;" horiz-adv-x="913" 
d="M141 0v1442h631v-1442h-631zM258 1542h-289v47q0 97 18.5 162.5t55 101t82.5 50t111 14.5q77 0 153.5 -19t132 -38t80.5 -19q41 0 41 43v35h291v-33q0 -83 -17.5 -146t-44.5 -100.5t-65.5 -61t-75 -32t-78.5 -8.5q-67 0 -139 18.5t-127 37t-82 18.5q-20 0 -33.5 -11
t-13.5 -32v-27z" />
    <glyph glyph-name="itilde" unicode="&#x129;" horiz-adv-x="839" 
d="M733 0h-622v1094h622v-1094zM236 1200h-259v80q0 158 72 227.5t189 69.5q74 0 141 -17t114.5 -34t73.5 -17q13 0 23 9t10 26v33h262v-61q0 -91 -21.5 -156t-59.5 -99.5t-81 -49.5t-94 -15q-79 0 -197 30.5t-135 30.5q-38 0 -38 -38v-19z" />
    <glyph glyph-name="Imacron" unicode="&#x12a;" horiz-adv-x="913" 
d="M141 0v1442h631v-1442h-631zM43 1548v312h817v-312h-817z" />
    <glyph glyph-name="imacron" unicode="&#x12b;" horiz-adv-x="839" 
d="M733 0h-622v1094h622v-1094zM33 1206v332h774v-332h-774z" />
    <glyph glyph-name="Iogonek" unicode="&#x12e;" horiz-adv-x="913" 
d="M141 0v1442h631v-1442h-104q-40 -25 -58 -53t-18 -49q0 -50 76 -50q51 0 96 11v-289q-113 -55 -295 -55q-63 0 -118.5 11.5t-106.5 37.5t-81 77t-30 121q0 62 39.5 126.5t114.5 111.5h-146z" />
    <glyph glyph-name="iogonek" unicode="&#x12f;" horiz-adv-x="839" 
d="M246 0h-135v1094h622v-1094h-106q-40 -25 -58 -53t-18 -49q0 -50 76 -50q51 0 96 11v-289q-113 -55 -295 -55q-63 0 -118.5 11.5t-106.5 37.5t-81 77t-30 121q0 62 39.5 126.5t114.5 111.5zM733 1176h-622v321h622v-321z" />
    <glyph glyph-name="Idotaccent" unicode="&#x130;" horiz-adv-x="913" 
d="M141 0v1442h631v-1442h-631zM711 1550h-523v340h523v-340z" />
    <glyph glyph-name="dotlessi" unicode="&#x131;" horiz-adv-x="839" 
d="M733 0h-622v1094h622v-1094z" />
    <glyph glyph-name="Jcircumflex" unicode="&#x134;" horiz-adv-x="1114" 
d="M51 -6v387q71 -8 142 -8q57 0 91.5 9.5t52 33.5t23 53.5t5.5 81.5v891h628v-838q0 -71 -2.5 -122.5t-9.5 -110.5t-20.5 -101t-37 -86.5t-56.5 -74.5t-80 -58t-107.5 -44.5t-139.5 -26t-175 -9.5q-186 0 -314 23zM150 1544l212 264h637l213 -264h-454l-80 115l-76 -115
h-452z" />
    <glyph glyph-name="jcircumflex" unicode="&#x135;" horiz-adv-x="843" 
d="M-16 -418v379h16q68 0 91.5 31t23.5 112v990h618v-957q0 -85 -5.5 -148.5t-20.5 -125t-41 -104.5t-67 -80t-98.5 -59t-136 -34t-178.5 -12q-116 0 -202 8zM-78 1202l221 293h562l215 -293h-418l-78 123l-78 -123h-424z" />
    <glyph glyph-name="uni0136" unicode="&#x136;" horiz-adv-x="1867" 
d="M770 0h-629v1442h629v-559q293 453 365 559h757l-544 -582l573 -860h-733l-268 500l-150 -158v-342zM768 -96h444q-16 -112 -77.5 -248.5t-139.5 -210.5h-387q65 102 109 236t51 223z" />
    <glyph glyph-name="uni0137" unicode="&#x137;" horiz-adv-x="1636" 
d="M109 0v1497h622v-766q96 164 205 363h696l-356 -398q254 -453 383 -696h-729q-59 224 -99 350l-100 -106v-244h-622zM651 -141h445q-16 -112 -77.5 -248.5t-139.5 -210.5h-387q65 102 108.5 235.5t50.5 223.5z" />
    <glyph glyph-name="kgreenlandic" unicode="&#x138;" horiz-adv-x="1636" 
d="M109 0v1094h622v-363q96 164 205 363h696l-356 -398q254 -453 383 -696h-729q-59 224 -99 350l-100 -106v-244h-622z" />
    <glyph glyph-name="Lacute" unicode="&#x139;" horiz-adv-x="1523" 
d="M774 389h737l-65 -389h-1305v1442h633v-1053zM225 1548l301 285h643l-479 -285h-465z" />
    <glyph glyph-name="lacute" unicode="&#x13a;" horiz-adv-x="837" 
d="M160 1571l303 268h629l-455 -268h-477zM731 0h-622v1497h622v-1497z" />
    <glyph glyph-name="uni013B" unicode="&#x13b;" horiz-adv-x="1523" 
d="M774 389h737l-65 -389h-1305v1442h633v-1053zM596 -141h444q-16 -112 -77.5 -248.5t-139.5 -210.5h-387q65 102 109 236t51 223z" />
    <glyph glyph-name="uni013C" unicode="&#x13c;" horiz-adv-x="837" 
d="M731 0h-622v1497h622v-1497zM209 -92h444q-16 -112 -77.5 -248.5t-139.5 -210.5h-387q65 102 109 236t51 223z" />
    <glyph glyph-name="Lcaron" unicode="&#x13d;" horiz-adv-x="1523" 
d="M774 389h737l-65 -389h-1305v1442h633v-1053zM1303 821h-269l-16 621h328z" />
    <glyph glyph-name="lcaron" unicode="&#x13e;" horiz-adv-x="1067" 
d="M731 0h-622v1497h622v-1497zM1087 877h-268l-16 620h327z" />
    <glyph glyph-name="Ldot" unicode="&#x13f;" horiz-adv-x="1523" 
d="M1434 639h-465v477h465v-477zM774 389h737l-65 -389h-1305v1442h633v-1053z" />
    <glyph glyph-name="ldot" unicode="&#x140;" horiz-adv-x="1193" 
d="M1235 604h-438v490h438v-490zM731 0h-622v1497h622v-1497z" />
    <glyph glyph-name="Lslash" unicode="&#x141;" horiz-adv-x="1554" 
d="M172 0v516l-162 -59v303l162 59v623h633v-389l299 110v-303l-299 -110v-361h737l-65 -389h-1305z" />
    <glyph glyph-name="lslash" unicode="&#x142;" horiz-adv-x="892" 
d="M758 0h-623v551l-108 -39v317l108 39v629h623v-401l121 45v-318l-121 -45v-778z" />
    <glyph glyph-name="Nacute" unicode="&#x143;" horiz-adv-x="1914" 
d="M700 0h-559v1442h721q242 -492 352 -729h15q-12 145 -12 587v142h557v-1442h-689q-59 119 -215 462.5t-176 385.5h-12q18 -161 18 -641v-207zM696 1548l301 285h643l-479 -285h-465z" />
    <glyph glyph-name="nacute" unicode="&#x144;" horiz-adv-x="1624" 
d="M731 0h-622v795q0 210 -3 299h615q3 -14 5 -35.5t3 -43.5t2 -28q125 135 359 135q210 0 319 -116.5t109 -333.5v-672h-625v653q0 113 -74 113q-43 0 -65.5 -32t-22.5 -124v-610zM563 1208l277 355h559l-420 -355h-416z" />
    <glyph glyph-name="uni0145" unicode="&#x145;" horiz-adv-x="1914" 
d="M700 0h-559v1442h721q242 -492 352 -729h15q-12 145 -12 587v142h557v-1442h-689q-59 119 -215 462.5t-176 385.5h-12q18 -161 18 -641v-207zM770 -115h444q-16 -112 -77.5 -248t-139.5 -210h-387q65 102 109 235.5t51 222.5z" />
    <glyph glyph-name="uni0146" unicode="&#x146;" horiz-adv-x="1624" 
d="M731 0h-622v795q0 210 -3 299h615q3 -14 5 -35.5t3 -43.5t2 -28q125 135 359 135q210 0 319 -116.5t109 -333.5v-672h-625v653q0 113 -74 113q-43 0 -65.5 -32t-22.5 -124v-610zM604 -100h445q-16 -112 -78 -248.5t-140 -210.5h-387q65 102 109 236t51 223z" />
    <glyph glyph-name="Ncaron" unicode="&#x147;" horiz-adv-x="1914" 
d="M700 0h-559v1442h721q242 -492 352 -729h15q-12 145 -12 587v142h557v-1442h-689q-59 119 -215 462.5t-176 385.5h-12q18 -161 18 -641v-207zM1272 1552h-637l-215 265h457l79 -115l76 115h451z" />
    <glyph glyph-name="ncaron" unicode="&#x148;" horiz-adv-x="1624" 
d="M731 0h-622v795q0 210 -3 299h615q3 -14 5 -35.5t3 -43.5t2 -28q125 135 359 135q210 0 319 -116.5t109 -333.5v-672h-625v653q0 113 -74 113q-43 0 -65.5 -32t-22.5 -124v-610zM1065 1202h-520l-234 293h416l82 -123l74 123h426z" />
    <glyph glyph-name="napostrophe" unicode="&#x149;" horiz-adv-x="1624" 
d="M131 1575h459q-24 -103 -80 -216t-143 -188h-396q123 183 160 404zM731 0h-622v795q0 210 -3 299h615q3 -14 5 -35.5t3 -43.5t2 -28q125 135 359 135q210 0 319 -116.5t109 -333.5v-672h-625v653q0 113 -74 113q-43 0 -65.5 -32t-22.5 -124v-610z" />
    <glyph glyph-name="Omacron" unicode="&#x14c;" horiz-adv-x="1914" 
d="M68 719q0 102 22 195t66.5 179t117.5 156t170.5 121.5t231.5 80t293 28.5q197 0 362 -57t278 -157t175.5 -240t62.5 -304q0 -129 -33.5 -241.5t-104.5 -208t-176 -163.5t-255.5 -106.5t-335.5 -38.5q-208 0 -375 58t-275.5 160t-166 239.5t-57.5 298.5zM965 344
q65 0 109.5 27.5t67.5 81t32.5 117t9.5 149.5q0 205 -49.5 300t-180.5 95q-119 0 -171 -95.5t-52 -287.5q0 -89 11 -156t36.5 -121t72.5 -82t114 -28zM543 1569v311h817v-311h-817z" />
    <glyph glyph-name="omacron" unicode="&#x14d;" horiz-adv-x="1576" 
d="M61 543q0 125 43.5 229t130 183t228 123t325.5 44q147 0 269.5 -32.5t206 -88t141.5 -129.5t84.5 -155.5t26.5 -167.5q0 -132 -45.5 -237.5t-135 -182t-231.5 -117.5t-328 -41q-156 0 -281.5 35.5t-204.5 92.5t-132.5 133.5t-75 153.5t-21.5 157zM786 283q52 0 72.5 59
t20.5 199q0 154 -19 212t-76 58q-48 0 -71 -57t-23 -203q0 -144 22 -206t74 -62zM401 1206v332h775v-332h-775z" />
    <glyph glyph-name="Ohungarumlaut" unicode="&#x150;" horiz-adv-x="1914" 
d="M381 1559l244 264h530l-350 -264h-424zM1022 1559l244 264h530l-350 -264h-424zM68 719q0 102 22 195t66.5 179t117.5 156t170.5 121.5t231.5 80t293 28.5q197 0 362 -57t278 -157t175.5 -240t62.5 -304q0 -129 -33.5 -241.5t-104.5 -208t-176 -163.5t-255.5 -106.5
t-335.5 -38.5q-208 0 -375 58t-275.5 160t-166 239.5t-57.5 298.5zM965 344q65 0 109.5 27.5t67.5 81t32.5 117t9.5 149.5q0 205 -49.5 300t-180.5 95q-119 0 -171 -95.5t-52 -287.5q0 -89 11 -156t36.5 -121t72.5 -82t114 -28z" />
    <glyph glyph-name="ohungarumlaut" unicode="&#x151;" horiz-adv-x="1576" 
d="M608 1202h-368l215 295h489zM1206 1202h-368l215 295h489zM61 543q0 125 43.5 229t130 183t228 123t325.5 44q147 0 269.5 -32.5t206 -88t141.5 -129.5t84.5 -155.5t26.5 -167.5q0 -132 -45.5 -237.5t-135 -182t-231.5 -117.5t-328 -41q-156 0 -281.5 35.5t-204.5 92.5
t-132.5 133.5t-75 153.5t-21.5 157zM786 283q52 0 72.5 59t20.5 199q0 154 -19 212t-76 58q-48 0 -71 -57t-23 -203q0 -144 22 -206t74 -62z" />
    <glyph glyph-name="OE" unicode="&#x152;" horiz-adv-x="2566" 
d="M1733 377h802l-75 -377h-1129q-12 0 -67.5 -3.5t-150.5 -7t-202 -3.5q-138 0 -255 23.5t-202 64.5t-152.5 98t-110.5 121t-71.5 138t-40 144.5t-11.5 143.5q0 71 12 140t42 142.5t75 138t115.5 123t159.5 99.5t211.5 65.5t266.5 24.5q58 0 123.5 -1t117.5 -2.5t95.5 -3
t69.5 -2.5t28 -1h1094v-379h-745v-150h710v-378h-710v-158zM1001 362q69 0 119 9v708q-35 6 -116 6q-129 0 -202.5 -87.5t-74.5 -262.5q-1 -109 25 -190t89.5 -132t159.5 -51z" />
    <glyph glyph-name="oe" unicode="&#x153;" horiz-adv-x="2377" 
d="M1735 344h577q-17 -57 -46 -106t-83.5 -100t-126.5 -86.5t-182 -58t-244 -22.5q-246 0 -416 82q-175 -82 -438 -82q-156 0 -281.5 35.5t-204.5 92.5t-132.5 133.5t-75 153.5t-21.5 157q0 125 43.5 229t130 183t228 123t325.5 44q234 0 404 -82q169 82 422 82
q152 -1 274 -34.5t201.5 -88.5t132.5 -129.5t75.5 -153.5t22.5 -165v-119h-809q0 -158 111 -158q50 0 74 18t39 52zM786 283q52 0 72.5 59t20.5 199q0 154 -19 212t-76 58q-48 0 -71 -57t-23 -203q0 -144 22 -206t74 -62zM1626 836q-59 0 -87 -37t-28 -115h226
q0 152 -111 152z" />
    <glyph glyph-name="Racute" unicode="&#x154;" horiz-adv-x="1777" 
d="M141 0v1442h994q143 0 254.5 -32t180.5 -88.5t104.5 -130t35.5 -159.5q0 -131 -66 -221t-184 -133q102 -43 155.5 -128.5t53.5 -238.5v-86q0 -133 23 -225h-605q-30 72 -30 289v51q0 104 -35.5 137t-144.5 33h-123v-510h-613zM754 1079v-239h180q64 0 108.5 27.5
t44.5 90.5q0 59 -42 90t-115 31h-176zM629 1548l301 285h643l-479 -285h-465z" />
    <glyph glyph-name="racute" unicode="&#x155;" horiz-adv-x="1142" 
d="M731 0h-622v748q0 235 -3 346h603q16 -98 16 -201q15 32 27 54t42.5 58.5t66.5 59t96 40t133 17.5v-516q-78 5 -138 1t-102 -19.5t-68.5 -50t-38.5 -90t-12 -140.5v-307zM305 1178l277 354h559l-420 -354h-416z" />
    <glyph glyph-name="uni0156" unicode="&#x156;" horiz-adv-x="1777" 
d="M141 0v1442h994q143 0 254.5 -32t180.5 -88.5t104.5 -130t35.5 -159.5q0 -131 -66 -221t-184 -133q102 -43 155.5 -128.5t53.5 -238.5v-86q0 -133 23 -225h-605q-30 72 -30 289v51q0 104 -35.5 137t-144.5 33h-123v-510h-613zM754 1079v-239h180q64 0 108.5 27.5
t44.5 90.5q0 59 -42 90t-115 31h-176zM723 -106h444q-16 -112 -77.5 -248.5t-139.5 -210.5h-387q65 102 109 236t51 223z" />
    <glyph glyph-name="uni0157" unicode="&#x157;" horiz-adv-x="1142" 
d="M731 0h-622v748q0 235 -3 346h603q16 -98 16 -201q15 32 27 54t42.5 58.5t66.5 59t96 40t133 17.5v-516q-78 5 -138 1t-102 -19.5t-68.5 -50t-38.5 -90t-12 -140.5v-307zM199 -100h444q-16 -112 -77.5 -248.5t-139.5 -210.5h-387q65 102 109 236t51 223z" />
    <glyph glyph-name="Rcaron" unicode="&#x158;" horiz-adv-x="1777" 
d="M141 0v1442h994q143 0 254.5 -32t180.5 -88.5t104.5 -130t35.5 -159.5q0 -131 -66 -221t-184 -133q102 -43 155.5 -128.5t53.5 -238.5v-86q0 -133 23 -225h-605q-30 72 -30 289v51q0 104 -35.5 137t-144.5 33h-123v-510h-613zM754 1079v-239h180q64 0 108.5 27.5
t44.5 90.5q0 59 -42 90t-115 31h-176zM1204 1552h-637l-215 265h457l80 -115l76 115h450z" />
    <glyph glyph-name="rcaron" unicode="&#x159;" horiz-adv-x="1142" 
d="M731 0h-622v748q0 235 -3 346h603q16 -98 16 -201q15 32 27 54t42.5 58.5t66.5 59t96 40t133 17.5v-516q-78 5 -138 1t-102 -19.5t-68.5 -50t-38.5 -90t-12 -140.5v-307zM825 1202h-520l-233 293h415l82 -123l74 123h426z" />
    <glyph glyph-name="Sacute" unicode="&#x15a;" horiz-adv-x="1669" 
d="M1556 1032h-591q-21 109 -142 109q-51 0 -77.5 -18t-26.5 -50q0 -36 49 -58t172 -44q155 -27 272 -66t192 -84t122 -102.5t65.5 -117t18.5 -130.5q0 -235 -206 -371.5t-566 -136.5q-154 0 -280.5 23.5t-217 65.5t-156 101t-102 128.5t-49.5 150.5h631q30 -127 161 -127
q62 0 95.5 22t33.5 60q0 23 -6 37t-29.5 31t-75.5 32t-138 31q-118 21 -212 50t-158.5 60t-111 69.5t-73 74.5t-42 80t-20 79.5t-4.5 80.5q0 208 185.5 337.5t533.5 129.5q334 0 535 -116.5t218 -330.5zM573 1585l301 285h644l-480 -285h-465z" />
    <glyph glyph-name="sacute" unicode="&#x15b;" horiz-adv-x="1423" 
d="M1333 762h-502q-10 69 -104 69q-80 0 -80 -45q0 -22 36.5 -33t133.5 -24q129 -18 225.5 -45.5t157.5 -61t98 -76.5t51.5 -88t14.5 -100q0 -50 -11.5 -94t-38 -89t-75 -80.5t-116.5 -64t-169.5 -44t-228.5 -15.5q-307 0 -471.5 100.5t-192.5 264.5h537q10 -35 37.5 -52.5
t62.5 -17.5q78 0 78 45q0 27 -35.5 41t-122.5 25q-137 18 -236.5 48t-156 63.5t-89.5 80t-42.5 87.5t-9.5 94q0 75 33 140t101 118t186.5 83.5t275.5 30.5q141 0 252.5 -22t182.5 -56.5t119.5 -83t70.5 -97t28 -101.5zM453 1200l276 354h559l-420 -354h-415z" />
    <glyph glyph-name="Scircumflex" unicode="&#x15c;" horiz-adv-x="1669" 
d="M1556 1032h-591q-21 109 -142 109q-51 0 -77.5 -18t-26.5 -50q0 -36 49 -58t172 -44q155 -27 272 -66t192 -84t122 -102.5t65.5 -117t18.5 -130.5q0 -235 -206 -371.5t-566 -136.5q-154 0 -280.5 23.5t-217 65.5t-156 101t-102 128.5t-49.5 150.5h631q30 -127 161 -127
q62 0 95.5 22t33.5 60q0 23 -6 37t-29.5 31t-75.5 32t-138 31q-118 21 -212 50t-158.5 60t-111 69.5t-73 74.5t-42 80t-20 79.5t-4.5 80.5q0 208 185.5 337.5t533.5 129.5q334 0 535 -116.5t218 -330.5zM297 1559l213 264h637l213 -264h-455l-80 114l-75 -114h-453z" />
    <glyph glyph-name="scircumflex" unicode="&#x15d;" horiz-adv-x="1423" 
d="M1333 762h-502q-10 69 -104 69q-80 0 -80 -45q0 -22 36.5 -33t133.5 -24q129 -18 225.5 -45.5t157.5 -61t98 -76.5t51.5 -88t14.5 -100q0 -50 -11.5 -94t-38 -89t-75 -80.5t-116.5 -64t-169.5 -44t-228.5 -15.5q-307 0 -471.5 100.5t-192.5 264.5h537q10 -35 37.5 -52.5
t62.5 -17.5q78 0 78 45q0 27 -35.5 41t-122.5 25q-137 18 -236.5 48t-156 63.5t-89.5 80t-42.5 87.5t-9.5 94q0 75 33 140t101 118t186.5 83.5t275.5 30.5q141 0 252.5 -22t182.5 -56.5t119.5 -83t70.5 -97t28 -101.5zM211 1202l221 293h561l215 -293h-417l-78 123l-78 -123
h-424z" />
    <glyph glyph-name="uni015E" unicode="&#x15e;" horiz-adv-x="1669" 
d="M596 -449v211q60 -14 123 -14q47 0 47 23v1q0 5 -0.5 8t-7.5 10t-19.5 12t-40 11.5t-65.5 10.5v45l59 100q-303 25 -465.5 149t-193.5 314h631q30 -127 161 -127q62 0 95.5 22t33.5 60q0 23 -6 37t-29.5 31t-75.5 32t-138 31q-118 21 -212 50t-158.5 60t-111 69.5
t-73 74.5t-42 80t-20 79.5t-4.5 80.5q0 208 185.5 337.5t533.5 129.5q334 0 535 -116.5t218 -330.5h-591q-21 109 -142 109q-51 0 -77.5 -18t-26.5 -50q0 -36 49 -58t172 -44q155 -27 272 -66t192 -84t122 -102.5t65.5 -117t18.5 -130.5q0 -207 -161 -339t-450 -161l-20 -37
q186 -46 186 -190q0 -61 -29.5 -105.5t-81 -68t-109.5 -34.5t-126 -11q-122 0 -223 26z" />
    <glyph glyph-name="uni015F" unicode="&#x15f;" horiz-adv-x="1423" 
d="M455 -449v211q60 -14 123 -14q47 0 47 23v1q0 5 -0.5 8t-7.5 10t-19.5 12t-40 11.5t-65.5 10.5v45l65 113q-226 27 -348.5 121.5t-147.5 232.5h537q10 -35 37.5 -52.5t62.5 -17.5q78 0 78 45q0 27 -35.5 41t-122.5 25q-137 18 -236.5 48t-156 63.5t-89.5 80t-42.5 87.5
t-9.5 94q0 75 33 140t101 118t186.5 83.5t275.5 30.5q141 0 252.5 -22t182.5 -56.5t119.5 -83t70.5 -97t28 -101.5h-502q-10 69 -104 69q-80 0 -80 -45q0 -22 36.5 -33t133.5 -24q129 -18 225.5 -45.5t157.5 -61t98 -76.5t51.5 -88t14.5 -100q0 -54 -13 -101.5t-47.5 -96
t-89 -84.5t-144.5 -63t-208 -36l-24 -43q186 -46 186 -190q0 -61 -29.5 -105.5t-81 -68t-109.5 -34.5t-126 -11q-122 0 -223 26z" />
    <glyph glyph-name="Scaron" unicode="&#x160;" horiz-adv-x="1669" 
d="M1556 1032h-591q-21 109 -142 109q-51 0 -77.5 -18t-26.5 -50q0 -36 49 -58t172 -44q155 -27 272 -66t192 -84t122 -102.5t65.5 -117t18.5 -130.5q0 -235 -206 -371.5t-566 -136.5q-154 0 -280.5 23.5t-217 65.5t-156 101t-102 128.5t-49.5 150.5h631q30 -127 161 -127
q62 0 95.5 22t33.5 60q0 23 -6 37t-29.5 31t-75.5 32t-138 31q-118 21 -212 50t-158.5 60t-111 69.5t-73 74.5t-42 80t-20 79.5t-4.5 80.5q0 208 185.5 337.5t533.5 129.5q334 0 535 -116.5t218 -330.5zM1149 1565h-637l-215 264h457l80 -115l75 115h451z" />
    <glyph glyph-name="scaron" unicode="&#x161;" horiz-adv-x="1423" 
d="M1333 762h-502q-10 69 -104 69q-80 0 -80 -45q0 -22 36.5 -33t133.5 -24q129 -18 225.5 -45.5t157.5 -61t98 -76.5t51.5 -88t14.5 -100q0 -50 -11.5 -94t-38 -89t-75 -80.5t-116.5 -64t-169.5 -44t-228.5 -15.5q-307 0 -471.5 100.5t-192.5 264.5h537q10 -35 37.5 -52.5
t62.5 -17.5q78 0 78 45q0 27 -35.5 41t-122.5 25q-137 18 -236.5 48t-156 63.5t-89.5 80t-42.5 87.5t-9.5 94q0 75 33 140t101 118t186.5 83.5t275.5 30.5q141 0 252.5 -22t182.5 -56.5t119.5 -83t70.5 -97t28 -101.5zM965 1202h-521l-233 293h416l82 -123l73 123h426z" />
    <glyph glyph-name="uni0162" unicode="&#x162;" horiz-adv-x="1538" 
d="M498 -449v211q60 -14 123 -14q47 0 47 23v1q0 5 -0.5 8t-7.5 10t-19.5 12t-40 11.5t-65.5 10.5v45l75 131h-153v1053h-434v389h1493v-389h-431v-1053h-165l-39 -66q186 -46 186 -190q0 -61 -29.5 -105.5t-81 -68t-109.5 -34.5t-126 -11q-122 0 -223 26z" />
    <glyph glyph-name="uni0163" unicode="&#x163;" horiz-adv-x="1077" 
d="M301 -449v211q60 -14 123 -14q47 0 47 23v1q0 5 -0.5 8t-7.5 10t-19.5 12t-40 11.5t-65.5 10.5v45l80 135q-67 20 -112 54.5t-67.5 83.5t-31 99.5t-8.5 118.5v388h-162v346h164v286h620v-286h183v-346h-183v-324q0 -47 22.5 -69.5t78.5 -22.5q13 0 45 4v-328
q-69 -24 -258 -28l-25 -46q186 -46 186 -190q0 -61 -29.5 -105.5t-81 -68t-109.5 -34.5t-126 -11q-122 0 -223 26z" />
    <glyph glyph-name="Tcaron" unicode="&#x164;" horiz-adv-x="1538" 
d="M23 1053v389h1493v-389h-431v-1053h-628v1053h-434zM1083 1552h-637l-215 265h457l80 -115l76 115h450z" />
    <glyph glyph-name="tcaron" unicode="&#x165;" horiz-adv-x="1077" 
d="M1233 1204h-289l-22 539h348zM199 360v388h-162v346h164v286h620v-286h183v-346h-183v-324q0 -47 22.5 -69.5t78.5 -22.5q13 0 45 4v-328q-88 -31 -334 -31q-111 0 -190.5 20t-126 52.5t-73.5 84.5t-35.5 103.5t-8.5 122.5z" />
    <glyph glyph-name="Utilde" unicode="&#x168;" horiz-adv-x="1839" 
d="M121 602v840h631v-873q0 -198 170 -198q51 0 85.5 17t51 48t22.5 62t6 71v873h631v-852q0 -153 -42.5 -266t-136.5 -195.5t-252 -124t-380 -41.5q-172 0 -305 28.5t-223.5 81t-148.5 132t-83.5 177t-25.5 220.5zM745 1548h-288v47q0 97 18 162.5t54.5 101t82.5 50
t111 14.5q77 0 154 -19t132.5 -38t80.5 -19q40 0 40 43v35h291v-33q0 -83 -17.5 -146t-44.5 -100.5t-65 -61t-74.5 -32t-78.5 -8.5q-67 0 -139 18.5t-127 37t-82 18.5q-20 0 -34 -11t-14 -32v-27z" />
    <glyph glyph-name="utilde" unicode="&#x169;" horiz-adv-x="1617" 
d="M100 395v699h625v-639q0 -131 74 -131q47 0 67.5 37.5t20.5 121.5v611h622v-686q0 -371 2 -408h-612q-3 16 -10 113q-32 -34 -61.5 -56.5t-73 -43.5t-103 -31.5t-135.5 -10.5q-193 0 -304.5 112.5t-111.5 311.5zM647 1196h-258v80q0 158 71.5 227.5t188.5 69.5
q74 0 141 -17t115 -34t74 -17q13 0 23 9t10 26v33h262v-62q0 -91 -21.5 -155.5t-59.5 -99t-81 -49.5t-94 -15q-79 0 -197 30.5t-135 30.5q-39 0 -39 -39v-18z" />
    <glyph glyph-name="Umacron" unicode="&#x16a;" horiz-adv-x="1839" 
d="M121 602v840h631v-873q0 -198 170 -198q51 0 85.5 17t51 48t22.5 62t6 71v873h631v-852q0 -153 -42.5 -266t-136.5 -195.5t-252 -124t-380 -41.5q-172 0 -305 28.5t-223.5 81t-148.5 132t-83.5 177t-25.5 220.5zM506 1548v312h817v-312h-817z" />
    <glyph glyph-name="umacron" unicode="&#x16b;" horiz-adv-x="1617" 
d="M100 395v699h625v-639q0 -131 74 -131q47 0 67.5 37.5t20.5 121.5v611h622v-686q0 -371 2 -408h-612q-3 16 -10 113q-32 -34 -61.5 -56.5t-73 -43.5t-103 -31.5t-135.5 -10.5q-193 0 -304.5 112.5t-111.5 311.5zM422 1206v332h774v-332h-774z" />
    <glyph glyph-name="Ubreve" unicode="&#x16c;" horiz-adv-x="1839" 
d="M121 602v840h631v-873q0 -198 170 -198q51 0 85.5 17t51 48t22.5 62t6 71v873h631v-852q0 -153 -42.5 -266t-136.5 -195.5t-252 -124t-380 -41.5q-172 0 -305 28.5t-223.5 81t-148.5 132t-83.5 177t-25.5 220.5zM999 1864h351q-8 -69 -33.5 -127.5t-74.5 -112t-134 -84.5
t-199 -31q-104 0 -186 29.5t-132 81t-77.5 113t-32.5 131.5h346q20 -70 91 -70q67 0 81 70z" />
    <glyph glyph-name="ubreve" unicode="&#x16d;" horiz-adv-x="1617" 
d="M100 395v699h625v-639q0 -131 74 -131q47 0 67.5 37.5t20.5 121.5v611h622v-686q0 -371 2 -408h-612q-3 16 -10 113q-32 -34 -61.5 -56.5t-73 -43.5t-103 -31.5t-135.5 -10.5q-193 0 -304.5 112.5t-111.5 311.5zM903 1538h309q-3 -67 -26 -127t-69 -112.5t-126 -83.5
t-186 -31q-99 0 -177 29.5t-125.5 80t-71.5 113t-23 131.5h309q5 -34 29.5 -56t64.5 -22q38 0 62.5 22t29.5 56z" />
    <glyph glyph-name="Uring" unicode="&#x16e;" horiz-adv-x="1839" 
d="M121 602v840h631v-873q0 -198 170 -198q51 0 85.5 17t51 48t22.5 62t6 71v873h631v-852q0 -153 -42.5 -266t-136.5 -195.5t-252 -124t-380 -41.5q-172 0 -305 28.5t-223.5 81t-148.5 132t-83.5 177t-25.5 220.5zM582 1755q0 103 89 165t257 62q160 0 244.5 -59t84.5 -164
q0 -107 -87.5 -167t-247.5 -60q-164 0 -252 60.5t-88 162.5zM844 1753q0 -29 18 -48t56 -19q77 0 77 71q0 70 -75 70q-76 0 -76 -74z" />
    <glyph glyph-name="uring" unicode="&#x16f;" horiz-adv-x="1617" 
d="M100 395v699h625v-639q0 -131 74 -131q47 0 67.5 37.5t20.5 121.5v611h622v-686q0 -371 2 -408h-612q-3 16 -10 113q-32 -34 -61.5 -56.5t-73 -43.5t-103 -31.5t-135.5 -10.5q-193 0 -304.5 112.5t-111.5 311.5zM471 1395q0 103 89 165t257 62q160 0 245 -59t85 -164
q0 -107 -88 -167.5t-248 -60.5q-163 0 -251.5 61t-88.5 163zM733 1393q0 -29 18 -48.5t56 -19.5q78 0 78 72q0 69 -76 69t-76 -73z" />
    <glyph glyph-name="Uhungarumlaut" unicode="&#x170;" horiz-adv-x="1839" 
d="M362 1542l244 264h531l-351 -264h-424zM1004 1542l243 264h531l-351 -264h-423zM121 602v840h631v-873q0 -198 170 -198q51 0 85.5 17t51 48t22.5 62t6 71v873h631v-852q0 -153 -42.5 -266t-136.5 -195.5t-252 -124t-380 -41.5q-172 0 -305 28.5t-223.5 81t-148.5 132
t-83.5 177t-25.5 220.5z" />
    <glyph glyph-name="uhungarumlaut" unicode="&#x171;" horiz-adv-x="1617" 
d="M629 1202h-369l215 295h490zM1227 1202h-369l215 295h490zM100 395v699h625v-639q0 -131 74 -131q47 0 67.5 37.5t20.5 121.5v611h622v-686q0 -371 2 -408h-612q-3 16 -10 113q-32 -34 -61.5 -56.5t-73 -43.5t-103 -31.5t-135.5 -10.5q-193 0 -304.5 112.5t-111.5 311.5z
" />
    <glyph glyph-name="Uogonek" unicode="&#x172;" horiz-adv-x="1839" 
d="M121 602v840h631v-873q0 -198 170 -198q51 0 85.5 17t51 48t22.5 62t6 71v873h631v-852q0 -245 -113.5 -394.5t-369.5 -203.5q-72 -48 -72 -98t76 -50q51 0 96 11v-289q-113 -55 -295 -55q-63 0 -118 11.5t-106 37.5t-81 77t-30 121q0 54 27.5 108.5t82.5 98.5
q-189 9 -324 56t-215.5 130.5t-117.5 194t-37 256.5z" />
    <glyph glyph-name="uogonek" unicode="&#x173;" horiz-adv-x="1617" 
d="M100 395v699h625v-639q0 -131 74 -131q47 0 67.5 37.5t20.5 121.5v611h622v-686q0 -371 2 -408h-112q-40 -25 -58 -53t-18 -49q0 -50 76 -50q51 0 96 11v-289q-113 -55 -295 -55q-63 0 -118.5 11.5t-106.5 37.5t-81 77t-30 121q0 62 39.5 126.5t114.5 111.5h-119
q-3 16 -10 113q-32 -34 -61.5 -56.5t-73 -43.5t-103 -31.5t-135.5 -10.5q-193 0 -304.5 112.5t-111.5 311.5z" />
    <glyph glyph-name="Wcircumflex" unicode="&#x174;" horiz-adv-x="2387" 
d="M1018 0h-633l-375 1442h654q19 -152 53 -455.5t53 -460.5h8q26 134 83 442.5t89 473.5h529q28 -131 52.5 -259t58.5 -316t61 -330h8q24 216 62.5 530.5t45.5 374.5h611l-400 -1442h-635q-29 136 -76 388.5t-85 434.5h-8q-30 -151 -82.5 -433t-73.5 -390zM686 1544
l213 264h637l213 -264h-455l-80 115l-75 -115h-453z" />
    <glyph glyph-name="wcircumflex" unicode="&#x175;" horiz-adv-x="2179" 
d="M317 0l-327 1094h663q22 -190 35.5 -328.5t21.5 -237t11 -125.5h12q11 56 25 142.5t38.5 247.5t47.5 301h549q26 -186 57 -394.5t41 -285.5h12q16 206 72 680h612l-344 -1094h-663q-20 116 -35.5 217.5t-29.5 200.5t-19 133h-13q-33 -249 -96 -551h-670zM600 1194
l221 293h561l215 -293h-417l-78 123l-78 -123h-424z" />
    <glyph glyph-name="Ycircumflex" unicode="&#x176;" horiz-adv-x="1660" 
d="M1145 0h-631v483q0 30 -25 70l-552 889h729q47 -106 112.5 -281t83.5 -221q73 206 195 502h667l-563 -899q-16 -28 -16 -70v-473zM293 1548l213 264h637l213 -264h-455l-80 115l-76 -115h-452z" />
    <glyph glyph-name="ycircumflex" unicode="&#x177;" horiz-adv-x="1484" 
d="M201 -416v375q3 0 36.5 -1t49.5 -1q108 0 127 31l-445 1106h666q85 -371 127 -691h16q5 36 25 179.5t40.5 281t37.5 230.5h620l-364 -1043q-66 -187 -146 -288.5t-202.5 -147t-319.5 -45.5q-158 0 -268 14zM242 1202l221 293h561l215 -293h-418l-78 123l-77 -123h-424z
" />
    <glyph glyph-name="Ydieresis" unicode="&#x178;" horiz-adv-x="1660" 
d="M782 1561h-469v342h469v-342zM1386 1561h-468v342h468v-342zM1145 0h-631v483q0 30 -25 70l-552 889h729q47 -106 112.5 -281t83.5 -221q73 206 195 502h667l-563 -899q-16 -28 -16 -70v-473z" />
    <glyph glyph-name="Zacute" unicode="&#x179;" horiz-adv-x="1669" 
d="M59 0v305l727 748h-692v389h1469v-350l-717 -703h801l-68 -389h-1520zM573 1552l301 285h644l-480 -285h-465z" />
    <glyph glyph-name="zacute" unicode="&#x17a;" horiz-adv-x="1370" 
d="M90 723v371h1174v-338q-87 -82 -218 -195t-231 -192h508l-63 -369h-1186v326q60 48 205.5 171t271.5 226h-461zM426 1184l276 354h560l-420 -354h-416z" />
    <glyph glyph-name="Zdotaccent" unicode="&#x17b;" horiz-adv-x="1669" 
d="M59 0v305l727 748h-692v389h1469v-350l-717 -703h801l-68 -389h-1520zM1087 1550h-522v340h522v-340z" />
    <glyph glyph-name="zdotaccent" unicode="&#x17c;" horiz-adv-x="1370" 
d="M90 723v371h1174v-338q-87 -82 -218 -195t-231 -192h508l-63 -369h-1186v326q60 48 205.5 171t271.5 226h-461zM936 1196h-504v342h504v-342z" />
    <glyph glyph-name="Zcaron" unicode="&#x17d;" horiz-adv-x="1669" 
d="M59 0v305l727 748h-692v389h1469v-350l-717 -703h801l-68 -389h-1520zM1149 1552h-637l-215 265h457l80 -115l75 115h451z" />
    <glyph glyph-name="zcaron" unicode="&#x17e;" horiz-adv-x="1370" 
d="M90 723v371h1174v-338q-87 -82 -218 -195t-231 -192h508l-63 -369h-1186v326q60 48 205.5 171t271.5 226h-461zM938 1202h-520l-234 293h416l82 -123l74 123h426z" />
    <glyph glyph-name="uni018F" unicode="&#x18f;" horiz-adv-x="1837" 
d="M57 856h1059q2 105 -59.5 174.5t-184.5 69.5q-177 0 -227 -117h-588q16 66 52 130t104 130.5t159 116.5t226.5 81.5t296.5 31.5q216 0 387.5 -60.5t278 -164.5t162 -237.5t55.5 -285.5q0 -357 -230.5 -556.5t-654.5 -199.5q-145 0 -268.5 29t-214.5 81t-161 122
t-113.5 154t-65 174t-21.5 186q0 84 8 141zM1102 551h-443q7 -97 66 -147t158 -50q59 0 102 17t67 46t36 62t14 72z" />
    <glyph glyph-name="florin" unicode="&#x192;" horiz-adv-x="1388" 
d="M39 -131l80 356q70 -16 112 -16q32 0 48 19.5t22 58.5l55 286h-145v320h209l6 33q13 65 24.5 110t34 103.5t49.5 98.5t71 82t99 67t133 41t173 16q208 0 307 -45l-72 -322q-61 15 -104 15q-41 0 -61 -25.5t-29 -83.5l-17 -90h203v-320h-260l-66 -356q-7 -39 -13 -65.5
t-17 -64.5t-24 -64t-34.5 -58.5t-48 -54t-64 -44t-82.5 -35.5t-105 -21.5t-130 -8.5q-98 0 -199.5 22t-154.5 46z" />
    <glyph glyph-name="Ohorn" unicode="&#x1a0;" horiz-adv-x="1914" 
d="M1475 1585h440q20 -61 20 -155q0 -93 -49.5 -178.5t-154.5 -127.5q116 -176 116 -403q0 -129 -33.5 -241.5t-104.5 -208t-176 -163.5t-255.5 -106.5t-335.5 -38.5q-208 0 -375 58t-275.5 160t-166 239.5t-57.5 298.5q0 102 22 195t66.5 179t117.5 156t170.5 121.5
t231.5 80t293 28.5q281 0 493 -113q41 25 41 84q0 61 -28 135zM965 344q65 0 109.5 27.5t67.5 81t32.5 117t9.5 149.5q0 205 -49.5 300t-180.5 95q-119 0 -171 -95.5t-52 -287.5q0 -89 11 -156t36.5 -121t72.5 -82t114 -28z" />
    <glyph glyph-name="ohorn" unicode="&#x1a1;" horiz-adv-x="1576" 
d="M1174 1257h440q20 -61 20 -155q0 -88 -45.5 -169.5t-140.5 -125.5q68 -124 68 -258q0 -132 -45.5 -237.5t-135 -182t-231.5 -117.5t-328 -41q-156 0 -281.5 35.5t-204.5 92.5t-132.5 133.5t-75 153.5t-21.5 157q0 125 43.5 229t130 183t228 123t325.5 44q226 0 388 -73
q26 30 26 73q0 61 -28 135zM786 283q52 0 72.5 59t20.5 199q0 154 -19 212t-76 58q-48 0 -71 -57t-23 -203q0 -144 22 -206t74 -62z" />
    <glyph glyph-name="Uhorn" unicode="&#x1af;" horiz-adv-x="1839" 
d="M121 602v840h631v-873q0 -198 170 -198q51 0 85.5 17t51 48t22.5 62t6 71v873h404q37 30 37 82q0 58 -29 135h440q21 -65 21 -156q0 -47 -13 -93t-40 -90t-75.5 -79.5t-113.5 -54.5v-596q0 -153 -42.5 -266t-136.5 -195.5t-252 -124t-380 -41.5q-172 0 -305 28.5
t-223.5 81t-148.5 132t-83.5 177t-25.5 220.5z" />
    <glyph glyph-name="uhorn" unicode="&#x1b0;" horiz-adv-x="1617" 
d="M100 395v699h625v-639q0 -131 74 -131q47 0 67.5 37.5t20.5 121.5v611h334q63 28 63 98q0 58 -29 135h441q20 -61 20 -156q0 -60 -18.5 -115.5t-67 -108.5t-121.5 -81v-458q0 -371 2 -408h-612q-3 16 -10 113q-32 -34 -61.5 -56.5t-73 -43.5t-103 -31.5t-135.5 -10.5
q-193 0 -304.5 112.5t-111.5 311.5z" />
    <glyph glyph-name="uni01CD" unicode="&#x1cd;" horiz-adv-x="1812" 
d="M-27 0l496 1442h829l541 -1442h-672l-55 205h-473l-51 -205h-615zM879 1049h-17q-27 -125 -110 -455h243q-71 299 -116 455zM1200 1552h-637l-215 265h457l80 -115l76 115h450z" />
    <glyph glyph-name="uni01CE" unicode="&#x1ce;" horiz-adv-x="1525" 
d="M649 752h-536q1 47 14.5 91.5t55.5 97.5t109 91t185.5 64t274.5 26q663 0 663 -407v-320q0 -88 3 -181t6.5 -149t5.5 -65h-562q-4 25 -16 104q-61 -69 -153 -101t-226 -32q-188 0 -304 92t-116 256q0 373 629 373q109 0 154 -2v47q0 50 -20 74.5t-75 24.5
q-46 0 -66.5 -23t-25.5 -61zM633 375q0 -36 22.5 -57t61.5 -21q59 0 89 31.5t30 115.5v19q-3 0 -29 1t-51 1q-123 0 -123 -90zM1018 1202h-520l-234 293h416l82 -123l74 123h426z" />
    <glyph glyph-name="uni01CF" unicode="&#x1cf;" horiz-adv-x="913" 
d="M141 0v1442h631v-1442h-631zM772 1552h-637l-215 265h457l80 -115l75 115h451z" />
    <glyph glyph-name="uni01D0" unicode="&#x1d0;" horiz-adv-x="839" 
d="M733 0h-622v1094h622v-1094zM674 1202h-520l-234 293h416l82 -123l74 123h426z" />
    <glyph glyph-name="uni01D1" unicode="&#x1d1;" horiz-adv-x="1914" 
d="M68 719q0 102 22 195t66.5 179t117.5 156t170.5 121.5t231.5 80t293 28.5q197 0 362 -57t278 -157t175.5 -240t62.5 -304q0 -129 -33.5 -241.5t-104.5 -208t-176 -163.5t-255.5 -106.5t-335.5 -38.5q-208 0 -375 58t-275.5 160t-166 239.5t-57.5 298.5zM965 344
q65 0 109.5 27.5t67.5 81t32.5 117t9.5 149.5q0 205 -49.5 300t-180.5 95q-119 0 -171 -95.5t-52 -287.5q0 -89 11 -156t36.5 -121t72.5 -82t114 -28zM1272 1573h-637l-215 264h457l79 -115l76 115h451z" />
    <glyph glyph-name="uni01D2" unicode="&#x1d2;" horiz-adv-x="1576" 
d="M61 543q0 125 43.5 229t130 183t228 123t325.5 44q147 0 269.5 -32.5t206 -88t141.5 -129.5t84.5 -155.5t26.5 -167.5q0 -132 -45.5 -237.5t-135 -182t-231.5 -117.5t-328 -41q-156 0 -281.5 35.5t-204.5 92.5t-132.5 133.5t-75 153.5t-21.5 157zM786 283q52 0 72.5 59
t20.5 199q0 154 -19 212t-76 58q-48 0 -71 -57t-23 -203q0 -144 22 -206t74 -62zM1042 1202h-520l-233 293h416l81 -123l74 123h426z" />
    <glyph glyph-name="uni01D3" unicode="&#x1d3;" horiz-adv-x="1839" 
d="M121 602v840h631v-873q0 -198 170 -198q51 0 85.5 17t51 48t22.5 62t6 71v873h631v-852q0 -153 -42.5 -266t-136.5 -195.5t-252 -124t-380 -41.5q-172 0 -305 28.5t-223.5 81t-148.5 132t-83.5 177t-25.5 220.5zM1235 1552h-637l-215 265h457l80 -115l75 115h451z" />
    <glyph glyph-name="uni01D4" unicode="&#x1d4;" horiz-adv-x="1617" 
d="M100 395v699h625v-639q0 -131 74 -131q47 0 67.5 37.5t20.5 121.5v611h622v-686q0 -371 2 -408h-612q-3 16 -10 113q-32 -34 -61.5 -56.5t-73 -43.5t-103 -31.5t-135.5 -10.5q-193 0 -304.5 112.5t-111.5 311.5zM1063 1202h-520l-234 293h416l82 -123l74 123h426z" />
    <glyph glyph-name="uni01D5" unicode="&#x1d5;" horiz-adv-x="1839" 
d="M860 1530h-446v319h446v-319zM1290 1921h-735v291h735v-291zM1425 1530h-446v319h446v-319zM121 602v840h631v-873q0 -198 170 -198q51 0 85.5 17t51 48t22.5 62t6 71v873h631v-852q0 -153 -42.5 -266t-136.5 -195.5t-252 -124t-380 -41.5q-172 0 -305 28.5t-223.5 81
t-148.5 132t-83.5 177t-25.5 220.5z" />
    <glyph glyph-name="uni01D6" unicode="&#x1d6;" horiz-adv-x="1617" 
d="M721 1186h-428v321h428v-321zM1186 1579h-748v272h748v-272zM1325 1186h-428v321h428v-321zM100 395v699h625v-639q0 -131 74 -131q47 0 67.5 37.5t20.5 121.5v611h622v-686q0 -371 2 -408h-612q-3 16 -10 113q-32 -34 -61.5 -56.5t-73 -43.5t-103 -31.5t-135.5 -10.5
q-193 0 -304.5 112.5t-111.5 311.5z" />
    <glyph glyph-name="uni01D7" unicode="&#x1d7;" horiz-adv-x="1839" 
d="M414 1530v319h446v-319h-446zM702 1925l244 264h531l-351 -264h-424zM1425 1530h-446v319h446v-319zM121 602v840h631v-873q0 -198 170 -198q51 0 85.5 17t51 48t22.5 62t6 71v873h631v-852q0 -153 -42.5 -266t-136.5 -195.5t-252 -124t-380 -41.5q-172 0 -305 28.5
t-223.5 81t-148.5 132t-83.5 177t-25.5 220.5z" />
    <glyph glyph-name="uni01D8" unicode="&#x1d8;" horiz-adv-x="1617" 
d="M291 1186v319h446v-319h-446zM1001 1602h-426l246 243h584zM1327 1186h-446v319h446v-319zM100 395v699h625v-639q0 -131 74 -131q47 0 67.5 37.5t20.5 121.5v611h622v-686q0 -371 2 -408h-612q-3 16 -10 113q-32 -34 -61.5 -56.5t-73 -43.5t-103 -31.5t-135.5 -10.5
q-193 0 -304.5 112.5t-111.5 311.5z" />
    <glyph glyph-name="uni01D9" unicode="&#x1d9;" horiz-adv-x="1839" 
d="M860 1530h-446v319h446v-319zM379 2169h469l72 -90l71 90h467l-274 -258h-529zM1425 1530h-446v319h446v-319zM121 602v840h631v-873q0 -198 170 -198q51 0 85.5 17t51 48t22.5 62t6 71v873h631v-852q0 -153 -42.5 -266t-136.5 -195.5t-252 -124t-380 -41.5
q-172 0 -305 28.5t-223.5 81t-148.5 132t-83.5 177t-25.5 220.5z" />
    <glyph glyph-name="uni01DA" unicode="&#x1da;" horiz-adv-x="1617" 
d="M737 1186h-446v319h446v-319zM1059 1559h-500l-248 286h453l47 -73l43 73h457zM1327 1186h-446v319h446v-319zM100 395v699h625v-639q0 -131 74 -131q47 0 67.5 37.5t20.5 121.5v611h622v-686q0 -371 2 -408h-612q-3 16 -10 113q-32 -34 -61.5 -56.5t-73 -43.5
t-103 -31.5t-135.5 -10.5q-193 0 -304.5 112.5t-111.5 311.5z" />
    <glyph glyph-name="uni01DB" unicode="&#x1db;" horiz-adv-x="1839" 
d="M414 1530v319h446v-319h-446zM352 2179h533l256 -254h-404zM1425 1530h-446v319h446v-319zM121 602v840h631v-873q0 -198 170 -198q51 0 85.5 17t51 48t22.5 62t6 71v873h631v-852q0 -153 -42.5 -266t-136.5 -195.5t-252 -124t-380 -41.5q-172 0 -305 28.5t-223.5 81
t-148.5 132t-83.5 177t-25.5 220.5z" />
    <glyph glyph-name="uni01DC" unicode="&#x1dc;" horiz-adv-x="1617" 
d="M291 1186v319h446v-319h-446zM618 1602l-409 243h569l260 -243h-420zM1327 1186h-446v319h446v-319zM100 395v699h625v-639q0 -131 74 -131q47 0 67.5 37.5t20.5 121.5v611h622v-686q0 -371 2 -408h-612q-3 16 -10 113q-32 -34 -61.5 -56.5t-73 -43.5t-103 -31.5
t-135.5 -10.5q-193 0 -304.5 112.5t-111.5 311.5z" />
    <glyph glyph-name="Gcaron" unicode="&#x1e6;" horiz-adv-x="1861" 
d="M944 492v358h805v-850h-410q-18 39 -32 127q-74 -86 -184 -125t-298 -39q-179 0 -323 54.5t-238.5 152.5t-145 233t-50.5 297q0 122 28.5 231.5t95.5 211t166.5 175t251 117.5t340.5 44q329 0 544 -130t255 -356h-629q-16 65 -55 99t-117 34q-217 0 -217 -391
q0 -87 12.5 -158.5t39.5 -128t72.5 -87.5t107.5 -31q44 0 78.5 12t53.5 29t31 39t15.5 39.5t3.5 33.5v9h-201zM1282 1577h-637l-215 264h457l80 -115l75 115h451z" />
    <glyph glyph-name="gcaron" unicode="&#x1e7;" horiz-adv-x="1607" 
d="M66 -53h598q10 -38 35.5 -58t76.5 -20q113 0 113 164v106q-53 -63 -127 -96t-211 -33q-152 0 -265 72t-169 192t-56 271q0 261 146 419t373 158q240 0 311 -127q1 9 3 47.5t3 51.5h619q0 -2 -2.5 -125.5t-2.5 -216.5v-629q0 -155 -43 -261t-137 -171.5t-231 -94
t-336 -28.5q-167 0 -294.5 26.5t-199.5 64.5t-119 92.5t-63 99.5t-22 96zM805 371q63 0 85.5 48t22.5 152q0 102 -21 148.5t-85 46.5q-50 0 -80.5 -50t-30.5 -155q0 -190 109 -190zM1098 1202h-520l-234 293h416l82 -123l73 123h426z" />
    <glyph glyph-name="uni0218" unicode="&#x218;" horiz-adv-x="1669" 
d="M1556 1032h-591q-21 109 -142 109q-51 0 -77.5 -18t-26.5 -50q0 -36 49 -58t172 -44q155 -27 272 -66t192 -84t122 -102.5t65.5 -117t18.5 -130.5q0 -235 -206 -371.5t-566 -136.5q-154 0 -280.5 23.5t-217 65.5t-156 101t-102 128.5t-49.5 150.5h631q30 -127 161 -127
q62 0 95.5 22t33.5 60q0 23 -6 37t-29.5 31t-75.5 32t-138 31q-118 21 -212 50t-158.5 60t-111 69.5t-73 74.5t-42 80t-20 79.5t-4.5 80.5q0 208 185.5 337.5t533.5 129.5q334 0 535 -116.5t218 -330.5zM651 -121h445q-16 -112 -77.5 -248.5t-139.5 -210.5h-387
q65 102 108.5 235.5t50.5 223.5z" />
    <glyph glyph-name="uni0219" unicode="&#x219;" horiz-adv-x="1423" 
d="M1333 762h-502q-10 69 -104 69q-80 0 -80 -45q0 -22 36.5 -33t133.5 -24q129 -18 225.5 -45.5t157.5 -61t98 -76.5t51.5 -88t14.5 -100q0 -50 -11.5 -94t-38 -89t-75 -80.5t-116.5 -64t-169.5 -44t-228.5 -15.5q-307 0 -471.5 100.5t-192.5 264.5h537q10 -35 37.5 -52.5
t62.5 -17.5q78 0 78 45q0 27 -35.5 41t-122.5 25q-137 18 -236.5 48t-156 63.5t-89.5 80t-42.5 87.5t-9.5 94q0 75 33 140t101 118t186.5 83.5t275.5 30.5q141 0 252.5 -22t182.5 -56.5t119.5 -83t70.5 -97t28 -101.5zM504 -109h444q-16 -112 -77.5 -248t-139.5 -210h-387
q65 102 109 235.5t51 222.5z" />
    <glyph glyph-name="uni021A" unicode="&#x21a;" horiz-adv-x="1538" 
d="M23 1053v389h1493v-389h-431v-1053h-628v1053h-434zM555 -106h444q-16 -112 -77.5 -248.5t-139.5 -210.5h-387q65 102 109 236t51 223z" />
    <glyph glyph-name="uni021B" unicode="&#x21b;" horiz-adv-x="1077" 
d="M199 360v388h-162v346h164v286h620v-286h183v-346h-183v-324q0 -47 22.5 -69.5t78.5 -22.5q13 0 45 4v-328q-88 -31 -334 -31q-111 0 -190.5 20t-126 52.5t-73.5 84.5t-35.5 103.5t-8.5 122.5zM373 -104h444q-16 -112 -77.5 -248.5t-139.5 -210.5h-387q65 102 109 236
t51 223z" />
    <glyph glyph-name="uni0237" unicode="&#x237;" horiz-adv-x="843" 
d="M-16 -418v379h16q68 0 91.5 31t23.5 112v990h618v-957q0 -85 -5.5 -148.5t-20.5 -125t-41 -104.5t-67 -80t-98.5 -59t-136 -34t-178.5 -12q-116 0 -202 8z" />
    <glyph glyph-name="uni0251" unicode="&#x251;" horiz-adv-x="1628" 
d="M922 1004l12 90h582v-699q0 -254 16 -395h-551q-3 12 -20 115q-117 -144 -392 -144q-230 0 -369 158t-139 401q0 272 149 432t394 160q125 0 206 -35.5t112 -82.5zM805 326q63 0 86.5 56.5t23.5 170.5q0 110 -21.5 161.5t-84.5 51.5q-57 0 -85 -57.5t-28 -157.5
q0 -225 109 -225z" />
    <glyph glyph-name="uni0259" unicode="&#x259;" horiz-adv-x="1529" 
d="M39 549v113h809q0 157 -111 157q-50 0 -74 -18t-38 -51h-578q13 39 28 71.5t42 72t61.5 70.5t88 61.5t119 51t157.5 33t200 12.5q164 0 291.5 -33t207 -87.5t131 -131.5t71.5 -157t20 -172q0 -76 -17 -145.5t-52 -134t-93.5 -117t-136 -91.5t-185 -60.5t-235.5 -21.5
q-153 0 -275.5 34.5t-201.5 90.5t-132 132.5t-75 156t-22 164.5zM733 258q59 0 87 37t28 115h-225q0 -74 25.5 -113t84.5 -39z" />
    <glyph glyph-name="uni0261" unicode="&#x261;" horiz-adv-x="1607" 
d="M66 -53h598q10 -38 35.5 -58t76.5 -20q113 0 113 164v106q-53 -63 -127 -96t-211 -33q-152 0 -265 72t-169 192t-56 271q0 261 146 419t373 158q240 0 311 -127q1 9 3 47.5t3 51.5h619q0 -2 -2.5 -125.5t-2.5 -216.5v-629q0 -155 -43 -261t-137 -171.5t-231 -94
t-336 -28.5q-167 0 -294.5 26.5t-199.5 64.5t-119 92.5t-63 99.5t-22 96zM805 371q63 0 85.5 48t22.5 152q0 102 -21 148.5t-85 46.5q-50 0 -80.5 -50t-30.5 -155q0 -190 109 -190z" />
    <glyph glyph-name="uni02BB" unicode="&#x2bb;" horiz-adv-x="946" 
d="M629 836h-424q13 205 63 376.5t117 284.5h315q-20 -97 -32 -163.5t-26 -210t-13 -287.5z" />
    <glyph glyph-name="uni02BC" unicode="&#x2bc;" horiz-adv-x="946" 
d="M276 1497h424q-13 -205 -63 -376.5t-117 -284.5h-315q20 97 32 163.5t26 210t13 287.5z" />
    <glyph glyph-name="uni02BE" unicode="&#x2be;" horiz-adv-x="770" 
d="M205 1163v164q76 0 76 57q0 54 -74 58v172q178 6 268 -57t90 -171q0 -106 -90.5 -167.5t-269.5 -55.5z" />
    <glyph glyph-name="uni02BF" unicode="&#x2bf;" horiz-adv-x="770" 
d="M565 1614v-164q-76 0 -76 -57q0 -54 74 -58v-172q-178 -6 -268 57t-90 171q0 106 90.5 167.5t269.5 55.5z" />
    <glyph glyph-name="circumflex" unicode="&#x2c6;" 
d="M-90 1202l221 293h561l215 -293h-418l-77 123l-78 -123h-424z" />
    <glyph glyph-name="caron" unicode="&#x2c7;" 
d="M664 1202h-521l-233 293h416l82 -123l73 123h426z" />
    <glyph glyph-name="uni02C8" unicode="&#x2c8;" horiz-adv-x="729" 
d="M524 1102h-319v436h319v-436z" />
    <glyph glyph-name="uni02C9" unicode="&#x2c9;" horiz-adv-x="1183" 
d="M205 1206v332h774v-332h-774z" />
    <glyph glyph-name="uni02CA" unicode="&#x2ca;" horiz-adv-x="1265" 
d="M266 1184l277 354h559l-420 -354h-416z" />
    <glyph glyph-name="uni02CB" unicode="&#x2cb;" horiz-adv-x="1263" 
d="M592 1184l-428 354h565l268 -354h-405z" />
    <glyph glyph-name="uni02CC" unicode="&#x2cc;" horiz-adv-x="729" 
d="M524 -537h-319v437h319v-437z" />
    <glyph glyph-name="breve" unicode="&#x2d8;" 
d="M504 1538h309q-3 -67 -26 -127t-69 -112.5t-126 -83.5t-186 -31q-99 0 -177.5 29.5t-125.5 80t-71.5 113t-23.5 131.5h309q5 -34 30 -56t65 -22q38 0 62.5 22t29.5 56z" />
    <glyph glyph-name="dotaccent" unicode="&#x2d9;" 
d="M662 1196h-504v342h504v-342z" />
    <glyph glyph-name="ring" unicode="&#x2da;" 
d="M72 1395q0 103 89 165t257 62q160 0 245 -59t85 -164q0 -107 -88 -167.5t-248 -60.5q-163 0 -251.5 61t-88.5 163zM334 1393q0 -29 18 -48.5t56 -19.5q77 0 77 72q0 69 -75 69q-76 0 -76 -73z" />
    <glyph glyph-name="ogonek" unicode="&#x2db;" 
d="M727 -141v-289q-113 -55 -295 -55q-63 0 -118.5 11.5t-106.5 37.5t-81 77t-30 121q0 73 52 146.5t151 118.5h383q-67 -29 -97 -65t-30 -64q0 -50 76 -50q51 0 96 11z" />
    <glyph glyph-name="tilde" unicode="&#x2dc;" 
d="M225 1200h-258v80q0 158 71.5 227.5t188.5 69.5q74 0 141 -17t115 -34t74 -17q13 0 23 9t10 26v33h262v-61q0 -91 -21.5 -156t-59.5 -99.5t-81 -49.5t-94 -15q-79 0 -197 30.5t-135 30.5q-39 0 -39 -38v-19z" />
    <glyph glyph-name="hungarumlaut" unicode="&#x2dd;" 
d="M229 1202h-368l215 295h489zM827 1202h-368l215 295h489z" />
    <glyph glyph-name="uni0300" unicode="&#x300;" horiz-adv-x="0" 
d="M-31 1184l-428 354h565l269 -354h-406z" />
    <glyph glyph-name="uni0301" unicode="&#x301;" horiz-adv-x="0" 
d="M-381 1184l277 354h559l-420 -354h-416z" />
    <glyph glyph-name="uni0302" unicode="&#x302;" horiz-adv-x="0" 
d="M-500 1202l221 293h562l215 -293h-418l-78 123l-78 -123h-424z" />
    <glyph glyph-name="uni0303" unicode="&#x303;" horiz-adv-x="0" 
d="M-184 1200h-258v80q0 158 71.5 227.5t188.5 69.5q74 0 141 -17t114.5 -34t73.5 -17q13 0 23 9t10 26v33h262v-61q0 -91 -21.5 -156t-59.5 -99.5t-81 -49.5t-94 -15q-79 0 -196.5 30.5t-134.5 30.5q-39 0 -39 -38v-19z" />
    <glyph glyph-name="uni0304" unicode="&#x304;" horiz-adv-x="0" 
d="M-387 1206v332h774v-332h-774z" />
    <glyph glyph-name="uni0306" unicode="&#x306;" horiz-adv-x="0" 
d="M94 1538h309q-3 -67 -26 -127t-69 -112.5t-126 -83.5t-186 -31q-99 0 -177 29.5t-125.5 80t-71.5 113t-23 131.5h309q5 -34 29.5 -56t64.5 -22q38 0 62.5 22t29.5 56z" />
    <glyph glyph-name="uni0307" unicode="&#x307;" horiz-adv-x="0" 
d="M252 1196h-504v342h504v-342z" />
    <glyph glyph-name="uni0308" unicode="&#x308;" horiz-adv-x="0" 
d="M-51 1196h-469v342h469v-342zM518 1196h-469v342h469v-342z" />
    <glyph glyph-name="uni0309" unicode="&#x309;" horiz-adv-x="0" 
d="M-285 1348l-84 215q142 92 357 92q88 0 153 -20.5t100 -55t51.5 -73t16.5 -81.5q0 -134 -129 -235h-364q98 92 98 143q0 47 -70 47q-64 0 -129 -32z" />
    <glyph glyph-name="uni030A" unicode="&#x30a;" horiz-adv-x="0" 
d="M-338 1395q0 103 89 165t257 62q160 0 245 -59t85 -164q0 -107 -88 -167.5t-248 -60.5q-163 0 -251.5 61t-88.5 163zM-76 1393q0 -29 18 -48.5t56 -19.5q78 0 78 72q0 69 -76 69t-76 -73z" />
    <glyph glyph-name="uni030B" unicode="&#x30b;" horiz-adv-x="0" 
d="M-242 1202h-368l215 295h489zM356 1202h-368l215 295h489z" />
    <glyph glyph-name="uni030C" unicode="&#x30c;" horiz-adv-x="0" 
d="M254 1202h-520l-234 293h416l82 -123l74 123h426z" />
    <glyph glyph-name="uni031B" unicode="&#x31b;" horiz-adv-x="0" 
d="M-203 1401h441q20 -61 20 -156q0 -53 -16.5 -104.5t-51.5 -100t-99 -83t-150 -44.5l-179 254q64 29 64 99q0 58 -29 135z" />
    <glyph glyph-name="uni0323" unicode="&#x323;" horiz-adv-x="0" 
d="M244 -526h-490v393h490v-393z" />
    <glyph glyph-name="uni0324" unicode="&#x324;" horiz-adv-x="0" 
d="M-51 -483h-469v342h469v-342zM518 -483h-469v342h469v-342z" />
    <glyph glyph-name="uni0326" unicode="&#x326;" horiz-adv-x="0" 
d="M-166 -141h445q-16 -112 -78 -248.5t-140 -210.5h-387q65 102 109 236t51 223z" />
    <glyph glyph-name="uni0327" unicode="&#x327;" horiz-adv-x="0" 
d="M-258 -449v211q60 -14 123 -14q47 0 47 23v1q0 5 -0.5 8t-7.5 10t-19.5 12t-40 11.5t-65.5 10.5v45l84 143h307l-45 -78q186 -46 186 -190q0 -61 -29.5 -105.5t-81 -68t-109.5 -34.5t-126 -11q-122 0 -223 26z" />
    <glyph glyph-name="uni0328" unicode="&#x328;" horiz-adv-x="0" 
d="M297 -141v-289q-113 -55 -295 -55q-63 0 -118.5 11.5t-106.5 37.5t-81 77t-30 121q0 73 52 146.5t151 118.5h383q-67 -29 -97 -65t-30 -64q0 -50 76 -50q51 0 96 11z" />
    <glyph glyph-name="uni032E" unicode="&#x32e;" horiz-adv-x="0" 
d="M94 -125h309q-3 -67 -26 -127t-69 -112.5t-126 -83.5t-186 -31q-99 0 -177 29.5t-125.5 80t-71.5 113t-23 131.5h309q5 -34 29.5 -56t64.5 -22q38 0 62.5 22t29.5 56z" />
    <glyph glyph-name="uni0331" unicode="&#x331;" horiz-adv-x="0" 
d="M-387 -461v332h774v-332h-774z" />
    <glyph glyph-name="pi" unicode="&#x3c0;" horiz-adv-x="1660" 
d="M154 0v723q-94 0 -131 -2v364q88 9 301 9h1310v-371h-123v-723h-598v723h-161v-723h-598z" />
    <glyph glyph-name="uni1E0C" unicode="&#x1e0c;" horiz-adv-x="1898" 
d="M995 0h-854v1442h852q168 0 307.5 -36.5t236.5 -100.5t164 -153t98.5 -192.5t31.5 -220.5q0 -157 -55.5 -291t-159 -234t-263.5 -157t-358 -57zM772 1061v-680h156q129 0 185 89.5t56 256.5q0 70 -9 123t-33.5 104t-75 79t-125.5 28h-154zM1139 -506h-490v393h490v-393z
" />
    <glyph glyph-name="uni1E0D" unicode="&#x1e0d;" horiz-adv-x="1622" 
d="M891 1024v473h625v-1104q0 -253 4 -393h-613q-8 43 -12 100q-68 -72 -142 -101.5t-192 -29.5q-122 0 -218.5 46t-157.5 125.5t-92.5 183.5t-31.5 225q0 266 147.5 418.5t383.5 152.5q208 0 299 -96zM805 324q64 0 87 55.5t23 171.5q0 108 -22.5 160.5t-83.5 52.5
q-57 0 -85 -57.5t-28 -157.5q0 -225 109 -225zM1077 -487h-489v393h489v-393z" />
    <glyph glyph-name="uni1E0E" unicode="&#x1e0e;" horiz-adv-x="1898" 
d="M995 0h-854v1442h852q168 0 307.5 -36.5t236.5 -100.5t164 -153t98.5 -192.5t31.5 -220.5q0 -157 -55.5 -291t-159 -234t-263.5 -157t-358 -57zM772 1061v-680h156q129 0 185 89.5t56 256.5q0 70 -9 123t-33.5 104t-75 79t-125.5 28h-154zM500 -461v332h774v-332h-774z
" />
    <glyph glyph-name="uni1E0F" unicode="&#x1e0f;" horiz-adv-x="1622" 
d="M891 1024v473h625v-1104q0 -253 4 -393h-613q-8 43 -12 100q-68 -72 -142 -101.5t-192 -29.5q-122 0 -218.5 46t-157.5 125.5t-92.5 183.5t-31.5 225q0 266 147.5 418.5t383.5 152.5q208 0 299 -96zM805 324q64 0 87 55.5t23 171.5q0 108 -22.5 160.5t-83.5 52.5
q-57 0 -85 -57.5t-28 -157.5q0 -225 109 -225zM465 -440v331h774v-331h-774z" />
    <glyph glyph-name="uni1E20" unicode="&#x1e20;" horiz-adv-x="1861" 
d="M944 492v358h805v-850h-410q-18 39 -32 127q-74 -86 -184 -125t-298 -39q-179 0 -323 54.5t-238.5 152.5t-145 233t-50.5 297q0 122 28.5 231.5t95.5 211t166.5 175t251 117.5t340.5 44q329 0 544 -130t255 -356h-629q-16 65 -55 99t-117 34q-217 0 -217 -391
q0 -87 12.5 -158.5t39.5 -128t72.5 -87.5t107.5 -31q44 0 78.5 12t53.5 29t31 39t15.5 39.5t3.5 33.5v9h-201zM541 1581v311h817v-311h-817z" />
    <glyph glyph-name="uni1E21" unicode="&#x1e21;" horiz-adv-x="1607" 
d="M66 -53h598q10 -38 35.5 -58t76.5 -20q113 0 113 164v106q-53 -63 -127 -96t-211 -33q-152 0 -265 72t-169 192t-56 271q0 261 146 419t373 158q240 0 311 -127q1 9 3 47.5t3 51.5h619q0 -2 -2.5 -125.5t-2.5 -216.5v-629q0 -155 -43 -261t-137 -171.5t-231 -94
t-336 -28.5q-167 0 -294.5 26.5t-199.5 64.5t-119 92.5t-63 99.5t-22 96zM805 371q63 0 85.5 48t22.5 152q0 102 -21 148.5t-85 46.5q-50 0 -80.5 -50t-30.5 -155q0 -190 109 -190zM436 1206v332h774v-332h-774z" />
    <glyph glyph-name="uni1E24" unicode="&#x1e24;" horiz-adv-x="1880" 
d="M772 0h-631v1442h631v-498h336v498h631v-1442h-631v555h-336v-555zM1184 -526h-490v393h490v-393z" />
    <glyph glyph-name="uni1E25" unicode="&#x1e25;" horiz-adv-x="1624" 
d="M109 0v1497h622v-502q142 127 369 127q203 0 310.5 -114t107.5 -326v-682h-625v653q0 113 -76 113q-50 0 -68 -39.5t-18 -114.5v-612h-622zM1055 -489h-490v393h490v-393z" />
    <glyph glyph-name="uni1E2A" unicode="&#x1e2a;" horiz-adv-x="1880" 
d="M772 0h-631v1442h631v-498h336v498h631v-1442h-631v555h-336v-555zM1034 -102h309q-3 -53 -17 -101.5t-45 -95.5t-76 -81.5t-114.5 -55.5t-154.5 -21q-99 0 -177 30t-125.5 80.5t-71.5 113t-23 131.5h309q5 -34 29.5 -56t64.5 -22q38 0 62.5 22t29.5 56z" />
    <glyph glyph-name="uni1E2B" unicode="&#x1e2b;" horiz-adv-x="1624" 
d="M109 0v1497h622v-502q142 127 369 127q203 0 310.5 -114t107.5 -326v-682h-625v653q0 113 -76 113q-50 0 -68 -39.5t-18 -114.5v-612h-622zM905 -90h309q-3 -67 -26 -127t-69 -112.5t-126 -83.5t-186 -31q-99 0 -177 29.5t-125.5 80t-71.5 113t-23 131.5h309
q5 -34 29.5 -56t64.5 -22q38 0 62.5 22t29.5 56z" />
    <glyph glyph-name="uni1E36" unicode="&#x1e36;" horiz-adv-x="1523" 
d="M774 389h737l-65 -389h-1305v1442h633v-1053zM1065 -510h-490v393h490v-393z" />
    <glyph glyph-name="uni1E37" unicode="&#x1e37;" horiz-adv-x="837" 
d="M731 0h-622v1497h622v-1497zM657 -494h-489v394h489v-394z" />
    <glyph glyph-name="uni1E38" unicode="&#x1e38;" horiz-adv-x="1523" 
d="M774 389h737l-65 -389h-1305v1442h633v-1053zM61 1548v312h818v-312h-818zM1053 -506h-490v393h490v-393z" />
    <glyph glyph-name="uni1E39" unicode="&#x1e39;" horiz-adv-x="837" 
d="M731 0h-622v1497h622v-1497zM31 1595v332h774v-332h-774zM659 -485h-489v393h489v-393z" />
    <glyph glyph-name="uni1E3A" unicode="&#x1e3a;" horiz-adv-x="1523" 
d="M774 389h737l-65 -389h-1305v1442h633v-1053zM375 -461v332h774v-332h-774z" />
    <glyph glyph-name="uni1E3B" unicode="&#x1e3b;" horiz-adv-x="837" 
d="M731 0h-622v1497h622v-1497zM31 -432v332h774v-332h-774z" />
    <glyph glyph-name="uni1E42" unicode="&#x1e42;" horiz-adv-x="2322" 
d="M141 0v1442h891q81 -500 115 -776h4q60 365 149 776h881v-1442h-622v391q0 408 22 694h-8q-24 -103 -97.5 -464t-136.5 -621h-475q-46 242 -100.5 594.5t-83.5 499.5h-6q2 -51 9 -189t12 -270.5t5 -243.5v-391h-559zM1350 -526h-490v393h490v-393z" />
    <glyph glyph-name="uni1E43" unicode="&#x1e43;" horiz-adv-x="2367" 
d="M721 0h-612v764q0 37 0.5 109.5t0.5 127.5t-1 93h602q5 -26 10 -111q58 59 156 99t219 40q74 0 132 -10.5t96.5 -31t62.5 -42.5t45 -51q167 135 391 135q217 0 327.5 -112t110.5 -332v-678h-610v623q0 65 -14.5 99t-57.5 34q-44 0 -65 -32.5t-21 -102.5v-621h-614v645
q0 72 -20 98q-20 23 -54 23q-43 0 -63.5 -31.5t-20.5 -111.5v-623zM1427 -504h-489v393h489v-393z" />
    <glyph glyph-name="uni1E44" unicode="&#x1e44;" horiz-adv-x="1914" 
d="M700 0h-559v1442h721q242 -492 352 -729h15q-12 145 -12 587v142h557v-1442h-689q-59 119 -215 462.5t-176 385.5h-12q18 -161 18 -641v-207zM1210 1550h-522v340h522v-340z" />
    <glyph glyph-name="uni1E45" unicode="&#x1e45;" horiz-adv-x="1624" 
d="M731 0h-622v795q0 210 -3 299h615q3 -14 5 -35.5t3 -43.5t2 -28q125 135 359 135q210 0 319 -116.5t109 -333.5v-672h-625v653q0 113 -74 113q-43 0 -65.5 -32t-22.5 -124v-610zM1063 1196h-504v342h504v-342z" />
    <glyph glyph-name="uni1E46" unicode="&#x1e46;" horiz-adv-x="1914" 
d="M700 0h-559v1442h721q242 -492 352 -729h15q-12 145 -12 587v142h557v-1442h-689q-59 119 -215 462.5t-176 385.5h-12q18 -161 18 -641v-207zM1200 -510h-489v393h489v-393z" />
    <glyph glyph-name="uni1E47" unicode="&#x1e47;" horiz-adv-x="1624" 
d="M731 0h-622v795q0 210 -3 299h615q3 -14 5 -35.5t3 -43.5t2 -28q125 135 359 135q210 0 319 -116.5t109 -333.5v-672h-625v653q0 113 -74 113q-43 0 -65.5 -32t-22.5 -124v-610zM1061 -485h-490v393h490v-393z" />
    <glyph glyph-name="uni1E48" unicode="&#x1e48;" horiz-adv-x="1914" 
d="M700 0h-559v1442h721q242 -492 352 -729h15q-12 145 -12 587v142h557v-1442h-689q-59 119 -215 462.5t-176 385.5h-12q18 -161 18 -641v-207zM590 -461v332h774v-332h-774z" />
    <glyph glyph-name="uni1E49" unicode="&#x1e49;" horiz-adv-x="1624" 
d="M731 0h-622v795q0 210 -3 299h615q3 -14 5 -35.5t3 -43.5t2 -28q125 135 359 135q210 0 319 -116.5t109 -333.5v-672h-625v653q0 113 -74 113q-43 0 -65.5 -32t-22.5 -124v-610zM424 -436v332h774v-332h-774z" />
    <glyph glyph-name="uni1E5A" unicode="&#x1e5a;" horiz-adv-x="1777" 
d="M141 0v1442h994q143 0 254.5 -32t180.5 -88.5t104.5 -130t35.5 -159.5q0 -131 -66 -221t-184 -133q102 -43 155.5 -128.5t53.5 -238.5v-86q0 -133 23 -225h-605q-30 72 -30 289v51q0 104 -35.5 137t-144.5 33h-123v-510h-613zM754 1079v-239h180q64 0 108.5 27.5
t44.5 90.5q0 59 -42 90t-115 31h-176zM1133 -498h-490v394h490v-394z" />
    <glyph glyph-name="uni1E5B" unicode="&#x1e5b;" horiz-adv-x="1142" 
d="M731 0h-622v748q0 235 -3 346h603q16 -98 16 -201q15 32 27 54t42.5 58.5t66.5 59t96 40t133 17.5v-516q-78 5 -138 1t-102 -19.5t-68.5 -50t-38.5 -90t-12 -140.5v-307zM662 -496h-490v394h490v-394z" />
    <glyph glyph-name="uni1E5C" unicode="&#x1e5c;" horiz-adv-x="1777" 
d="M141 0v1442h994q143 0 254.5 -32t180.5 -88.5t104.5 -130t35.5 -159.5q0 -131 -66 -221t-184 -133q102 -43 155.5 -128.5t53.5 -238.5v-86q0 -133 23 -225h-605q-30 72 -30 289v51q0 104 -35.5 137t-144.5 33h-123v-510h-613zM754 1079v-239h180q64 0 108.5 27.5
t44.5 90.5q0 59 -42 90t-115 31h-176zM475 1548v312h817v-312h-817zM1133 -500h-490v394h490v-394z" />
    <glyph glyph-name="uni1E5D" unicode="&#x1e5d;" horiz-adv-x="1142" 
d="M731 0h-622v748q0 235 -3 346h603q16 -98 16 -201q15 32 27 54t42.5 58.5t66.5 59t96 40t133 17.5v-516q-78 5 -138 1t-102 -19.5t-68.5 -50t-38.5 -90t-12 -140.5v-307zM184 1206v332h774v-332h-774zM662 -489h-490v393h490v-393z" />
    <glyph glyph-name="uni1E5E" unicode="&#x1e5e;" horiz-adv-x="1777" 
d="M141 0v1442h994q143 0 254.5 -32t180.5 -88.5t104.5 -130t35.5 -159.5q0 -131 -66 -221t-184 -133q102 -43 155.5 -128.5t53.5 -238.5v-86q0 -133 23 -225h-605q-30 72 -30 289v51q0 104 -35.5 137t-144.5 33h-123v-510h-613zM754 1079v-239h180q64 0 108.5 27.5
t44.5 90.5q0 59 -42 90t-115 31h-176zM502 -461v332h774v-332h-774z" />
    <glyph glyph-name="uni1E5F" unicode="&#x1e5f;" horiz-adv-x="1142" 
d="M731 0h-622v748q0 235 -3 346h603q16 -98 16 -201q15 32 27 54t42.5 58.5t66.5 59t96 40t133 17.5v-516q-78 5 -138 1t-102 -19.5t-68.5 -50t-38.5 -90t-12 -140.5v-307zM37 -430v332h774v-332h-774z" />
    <glyph glyph-name="uni1E60" unicode="&#x1e60;" horiz-adv-x="1669" 
d="M1556 1032h-591q-21 109 -142 109q-51 0 -77.5 -18t-26.5 -50q0 -36 49 -58t172 -44q155 -27 272 -66t192 -84t122 -102.5t65.5 -117t18.5 -130.5q0 -235 -206 -371.5t-566 -136.5q-154 0 -280.5 23.5t-217 65.5t-156 101t-102 128.5t-49.5 150.5h631q30 -127 161 -127
q62 0 95.5 22t33.5 60q0 23 -6 37t-29.5 31t-75.5 32t-138 31q-118 21 -212 50t-158.5 60t-111 69.5t-73 74.5t-42 80t-20 79.5t-4.5 80.5q0 208 185.5 337.5t533.5 129.5q334 0 535 -116.5t218 -330.5zM1087 1567h-522v340h522v-340z" />
    <glyph glyph-name="uni1E61" unicode="&#x1e61;" horiz-adv-x="1423" 
d="M1333 762h-502q-10 69 -104 69q-80 0 -80 -45q0 -22 36.5 -33t133.5 -24q129 -18 225.5 -45.5t157.5 -61t98 -76.5t51.5 -88t14.5 -100q0 -50 -11.5 -94t-38 -89t-75 -80.5t-116.5 -64t-169.5 -44t-228.5 -15.5q-307 0 -471.5 100.5t-192.5 264.5h537q10 -35 37.5 -52.5
t62.5 -17.5q78 0 78 45q0 27 -35.5 41t-122.5 25q-137 18 -236.5 48t-156 63.5t-89.5 80t-42.5 87.5t-9.5 94q0 75 33 140t101 118t186.5 83.5t275.5 30.5q141 0 252.5 -22t182.5 -56.5t119.5 -83t70.5 -97t28 -101.5zM963 1196h-504v342h504v-342z" />
    <glyph glyph-name="uni1E62" unicode="&#x1e62;" horiz-adv-x="1669" 
d="M1556 1032h-591q-21 109 -142 109q-51 0 -77.5 -18t-26.5 -50q0 -36 49 -58t172 -44q155 -27 272 -66t192 -84t122 -102.5t65.5 -117t18.5 -130.5q0 -235 -206 -371.5t-566 -136.5q-154 0 -280.5 23.5t-217 65.5t-156 101t-102 128.5t-49.5 150.5h631q30 -127 161 -127
q62 0 95.5 22t33.5 60q0 23 -6 37t-29.5 31t-75.5 32t-138 31q-118 21 -212 50t-158.5 60t-111 69.5t-73 74.5t-42 80t-20 79.5t-4.5 80.5q0 208 185.5 337.5t533.5 129.5q334 0 535 -116.5t218 -330.5zM1077 -526h-489v393h489v-393z" />
    <glyph glyph-name="uni1E63" unicode="&#x1e63;" horiz-adv-x="1423" 
d="M1333 762h-502q-10 69 -104 69q-80 0 -80 -45q0 -22 36.5 -33t133.5 -24q129 -18 225.5 -45.5t157.5 -61t98 -76.5t51.5 -88t14.5 -100q0 -50 -11.5 -94t-38 -89t-75 -80.5t-116.5 -64t-169.5 -44t-228.5 -15.5q-307 0 -471.5 100.5t-192.5 264.5h537q10 -35 37.5 -52.5
t62.5 -17.5q78 0 78 45q0 27 -35.5 41t-122.5 25q-137 18 -236.5 48t-156 63.5t-89.5 80t-42.5 87.5t-9.5 94q0 75 33 140t101 118t186.5 83.5t275.5 30.5q141 0 252.5 -22t182.5 -56.5t119.5 -83t70.5 -97t28 -101.5zM954 -498h-489v394h489v-394z" />
    <glyph glyph-name="uni1E6C" unicode="&#x1e6c;" horiz-adv-x="1538" 
d="M23 1053v389h1493v-389h-431v-1053h-628v1053h-434zM1014 -498h-490v394h490v-394z" />
    <glyph glyph-name="uni1E6D" unicode="&#x1e6d;" horiz-adv-x="1077" 
d="M199 360v388h-162v346h164v286h620v-286h183v-346h-183v-324q0 -47 22.5 -69.5t78.5 -22.5q13 0 45 4v-328q-88 -31 -334 -31q-111 0 -190.5 20t-126 52.5t-73.5 84.5t-35.5 103.5t-8.5 122.5zM782 -526h-489v393h489v-393z" />
    <glyph glyph-name="uni1E6E" unicode="&#x1e6e;" horiz-adv-x="1538" 
d="M23 1053v389h1493v-389h-431v-1053h-628v1053h-434zM381 -442v331h774v-331h-774z" />
    <glyph glyph-name="uni1E6F" unicode="&#x1e6f;" horiz-adv-x="1077" 
d="M199 360v388h-162v346h164v286h620v-286h183v-346h-183v-324q0 -47 22.5 -69.5t78.5 -22.5q13 0 45 4v-328q-88 -31 -334 -31q-111 0 -190.5 20t-126 52.5t-73.5 84.5t-35.5 103.5t-8.5 122.5zM172 -440v331h774v-331h-774z" />
    <glyph glyph-name="Wgrave" unicode="&#x1e80;" horiz-adv-x="2387" 
d="M1018 0h-633l-375 1442h654q19 -152 53 -455.5t53 -460.5h8q26 134 83 442.5t89 473.5h529q28 -131 52.5 -259t58.5 -316t61 -330h8q24 216 62.5 530.5t45.5 374.5h611l-400 -1442h-635q-29 136 -76 388.5t-85 434.5h-8q-30 -151 -82.5 -433t-73.5 -390zM987 1548
l-465 285h629l311 -285h-475z" />
    <glyph glyph-name="wgrave" unicode="&#x1e81;" horiz-adv-x="2179" 
d="M317 0l-327 1094h663q22 -190 35.5 -328.5t21.5 -237t11 -125.5h12q11 56 25 142.5t38.5 247.5t47.5 301h549q26 -186 57 -394.5t41 -285.5h12q16 206 72 680h612l-344 -1094h-663q-20 116 -35.5 217.5t-29.5 200.5t-19 133h-13q-33 -249 -96 -551h-670zM922 1184
l-428 354h565l268 -354h-405z" />
    <glyph glyph-name="Wacute" unicode="&#x1e82;" horiz-adv-x="2387" 
d="M1018 0h-633l-375 1442h654q19 -152 53 -455.5t53 -460.5h8q26 134 83 442.5t89 473.5h529q28 -131 52.5 -259t58.5 -316t61 -330h8q24 216 62.5 530.5t45.5 374.5h611l-400 -1442h-635q-29 136 -76 388.5t-85 434.5h-8q-30 -151 -82.5 -433t-73.5 -390zM948 1548
l301 285h643l-479 -285h-465z" />
    <glyph glyph-name="wacute" unicode="&#x1e83;" horiz-adv-x="2179" 
d="M317 0l-327 1094h663q22 -190 35.5 -328.5t21.5 -237t11 -125.5h12q11 56 25 142.5t38.5 247.5t47.5 301h549q26 -186 57 -394.5t41 -285.5h12q16 206 72 680h612l-344 -1094h-663q-20 116 -35.5 217.5t-29.5 200.5t-19 133h-13q-33 -249 -96 -551h-670zM891 1184
l276 354h559l-419 -354h-416z" />
    <glyph glyph-name="Wdieresis" unicode="&#x1e84;" horiz-adv-x="2387" 
d="M1141 1550h-469v342h469v-342zM1745 1550h-469v342h469v-342zM1018 0h-633l-375 1442h654q19 -152 53 -455.5t53 -460.5h8q26 134 83 442.5t89 473.5h529q28 -131 52.5 -259t58.5 -316t61 -330h8q24 216 62.5 530.5t45.5 374.5h611l-400 -1442h-635q-29 136 -76 388.5
t-85 434.5h-8q-30 -151 -82.5 -433t-73.5 -390z" />
    <glyph glyph-name="wdieresis" unicode="&#x1e85;" horiz-adv-x="2179" 
d="M1067 1192h-469v342h469v-342zM1636 1192h-469v342h469v-342zM317 0l-327 1094h663q22 -190 35.5 -328.5t21.5 -237t11 -125.5h12q11 56 25 142.5t38.5 247.5t47.5 301h549q26 -186 57 -394.5t41 -285.5h12q16 206 72 680h612l-344 -1094h-663q-20 116 -35.5 217.5
t-29.5 200.5t-19 133h-13q-33 -249 -96 -551h-670z" />
    <glyph glyph-name="uni1E8E" unicode="&#x1e8e;" horiz-adv-x="1660" 
d="M1145 0h-631v483q0 30 -25 70l-552 889h729q47 -106 112.5 -281t83.5 -221q73 206 195 502h667l-563 -899q-16 -28 -16 -70v-473zM1112 1554h-522v340h522v-340z" />
    <glyph glyph-name="uni1E8F" unicode="&#x1e8f;" horiz-adv-x="1484" 
d="M201 -416v375q3 0 36.5 -1t49.5 -1q108 0 127 31l-445 1106h666q85 -371 127 -691h16q5 36 25 179.5t40.5 281t37.5 230.5h620l-364 -1043q-66 -187 -146 -288.5t-202.5 -147t-319.5 -45.5q-158 0 -268 14zM993 1196h-504v342h504v-342z" />
    <glyph glyph-name="uni1E92" unicode="&#x1e92;" horiz-adv-x="1669" 
d="M59 0v305l727 748h-692v389h1469v-350l-717 -703h801l-68 -389h-1520zM1077 -506h-489v393h489v-393z" />
    <glyph glyph-name="uni1E93" unicode="&#x1e93;" horiz-adv-x="1370" 
d="M90 723v371h1174v-338q-87 -82 -218 -195t-231 -192h508l-63 -369h-1186v326q60 48 205.5 171t271.5 226h-461zM928 -526h-490v393h490v-393z" />
    <glyph glyph-name="uni1E97" unicode="&#x1e97;" horiz-adv-x="1077" 
d="M471 1462h-469v342h469v-342zM1040 1462h-469v342h469v-342zM199 360v388h-162v346h164v286h620v-286h183v-346h-183v-324q0 -47 22.5 -69.5t78.5 -22.5q13 0 45 4v-328q-88 -31 -334 -31q-111 0 -190.5 20t-126 52.5t-73.5 84.5t-35.5 103.5t-8.5 122.5z" />
    <glyph glyph-name="uni1E9E" unicode="&#x1e9e;" horiz-adv-x="1892" 
d="M147 0v981q0 498 766 498q142 0 259.5 -16t199.5 -42t145.5 -64t101.5 -79t62 -89t32.5 -91t8.5 -90q0 -22 -4 -45l-282 -134v-4l116 -67q129 -75 187.5 -161t58.5 -200q0 -94 -32 -170t-98 -135t-177.5 -91t-261.5 -32q-196 0 -350 56v346q137 -74 272 -74q106 0 106 65
q0 31 -30 55.5t-133 80.5l-107 57q-84 45 -114.5 114t-1 141t113.5 124l137 84q0 57 -46 90t-124 33q-97 0 -134.5 -45.5t-37.5 -163.5v-932h-633z" />
    <glyph glyph-name="uni1EA0" unicode="&#x1ea0;" horiz-adv-x="1812" 
d="M-27 0l496 1442h829l541 -1442h-672l-55 205h-473l-51 -205h-615zM879 1049h-17q-27 -125 -110 -455h243q-71 299 -116 455zM1149 -526h-490v393h490v-393z" />
    <glyph glyph-name="uni1EA1" unicode="&#x1ea1;" horiz-adv-x="1525" 
d="M649 752h-536q1 47 14.5 91.5t55.5 97.5t109 91t185.5 64t274.5 26q663 0 663 -407v-320q0 -88 3 -181t6.5 -149t5.5 -65h-562q-4 25 -16 104q-61 -69 -153 -101t-226 -32q-188 0 -304 92t-116 256q0 373 629 373q109 0 154 -2v47q0 50 -20 74.5t-75 24.5
q-46 0 -66.5 -23t-25.5 -61zM633 375q0 -36 22.5 -57t61.5 -21q59 0 89 31.5t30 115.5v19q-3 0 -29 1t-51 1q-123 0 -123 -90zM1008 -502h-490v393h490v-393z" />
    <glyph glyph-name="uni1EA2" unicode="&#x1ea2;" horiz-adv-x="1812" 
d="M-27 0l496 1442h829l541 -1442h-672l-55 205h-473l-51 -205h-615zM879 1049h-17q-27 -125 -110 -455h243q-71 299 -116 455zM621 1696l-84 215q142 92 356 92q71 0 127.5 -14t92 -36t59 -52.5t33 -61.5t9.5 -65q0 -135 -129 -236h-364q98 92 98 143q0 48 -69 48
q-62 0 -129 -33z" />
    <glyph glyph-name="uni1EA3" unicode="&#x1ea3;" horiz-adv-x="1525" 
d="M649 752h-536q1 47 14.5 91.5t55.5 97.5t109 91t185.5 64t274.5 26q663 0 663 -407v-320q0 -88 3 -181t6.5 -149t5.5 -65h-562q-4 25 -16 104q-61 -69 -153 -101t-226 -32q-188 0 -304 92t-116 256q0 373 629 373q109 0 154 -2v47q0 50 -20 74.5t-75 24.5
q-46 0 -66.5 -23t-25.5 -61zM633 375q0 -36 22.5 -57t61.5 -21q59 0 89 31.5t30 115.5v19q-3 0 -29 1t-51 1q-123 0 -123 -90zM479 1348l-84 215q142 92 357 92q88 0 153 -20.5t100 -55t51.5 -73t16.5 -81.5q0 -134 -129 -235h-364q98 92 98 143q0 47 -70 47q-64 0 -129 -32
z" />
    <glyph glyph-name="uni1EA4" unicode="&#x1ea4;" horiz-adv-x="1812" 
d="M348 1544l281 318h518l274 -318h-438l-96 121l-90 -121h-449zM1300 1763l246 291h541l-395 -291h-392zM-27 0l496 1442h829l541 -1442h-672l-55 205h-473l-51 -205h-615zM879 1049h-17q-27 -125 -110 -455h243q-71 299 -116 455z" />
    <glyph glyph-name="uni1EA5" unicode="&#x1ea5;" horiz-adv-x="1525" 
d="M283 1202l270 293h428l262 -293h-393l-84 109l-84 -109h-399zM1069 1425l231 285h459l-366 -285h-324zM649 752h-536q1 47 14.5 91.5t55.5 97.5t109 91t185.5 64t274.5 26q663 0 663 -407v-320q0 -88 3 -181t6.5 -149t5.5 -65h-562q-4 25 -16 104q-61 -69 -153 -101
t-226 -32q-188 0 -304 92t-116 256q0 373 629 373q109 0 154 -2v47q0 50 -20 74.5t-75 24.5q-46 0 -66.5 -23t-25.5 -61zM633 375q0 -36 22.5 -57t61.5 -21q59 0 89 31.5t30 115.5v19q-3 0 -29 1t-51 1q-123 0 -123 -90z" />
    <glyph glyph-name="uni1EA6" unicode="&#x1ea6;" horiz-adv-x="1812" 
d="M348 1544l281 318h518l274 -318h-438l-96 121l-90 -121h-449zM1444 1767l-350 295h460l226 -295h-336zM-27 0l496 1442h829l541 -1442h-672l-55 205h-473l-51 -205h-615zM879 1049h-17q-27 -125 -110 -455h243q-71 299 -116 455z" />
    <glyph glyph-name="uni1EA7" unicode="&#x1ea7;" horiz-adv-x="1525" 
d="M283 1202l270 293h428l262 -293h-393l-84 109l-84 -109h-399zM1219 1440l-359 293h459l248 -293h-348zM649 752h-536q1 47 14.5 91.5t55.5 97.5t109 91t185.5 64t274.5 26q663 0 663 -407v-320q0 -88 3 -181t6.5 -149t5.5 -65h-562q-4 25 -16 104q-61 -69 -153 -101
t-226 -32q-188 0 -304 92t-116 256q0 373 629 373q109 0 154 -2v47q0 50 -20 74.5t-75 24.5q-46 0 -66.5 -23t-25.5 -61zM633 375q0 -36 22.5 -57t61.5 -21q59 0 89 31.5t30 115.5v19q-3 0 -29 1t-51 1q-123 0 -123 -90z" />
    <glyph glyph-name="uni1EA8" unicode="&#x1ea8;" horiz-adv-x="1812" 
d="M348 1544l281 318h518l274 -318h-440l-94 135l-92 -135h-447zM1249 1898l-71 199q43 37 125 61.5t188 24.5q132 0 206.5 -61t74.5 -142q0 -125 -113 -223h-320q82 79 82 137q0 41 -49 41q-60 0 -123 -37zM-27 0l496 1442h829l541 -1442h-672l-55 205h-473l-51 -205h-615z
M879 1049h-17q-27 -125 -110 -455h243q-71 299 -116 455z" />
    <glyph glyph-name="uni1EA9" unicode="&#x1ea9;" horiz-adv-x="1525" 
d="M283 1202l270 293h428l262 -293h-393l-84 109l-84 -109h-399zM1012 1591l-72 199q43 37 125 61.5t188 24.5q132 0 206.5 -61t74.5 -142q0 -125 -113 -223h-319q82 79 82 137q0 41 -49 41q-60 0 -123 -37zM649 752h-536q1 47 14.5 91.5t55.5 97.5t109 91t185.5 64
t274.5 26q663 0 663 -407v-320q0 -88 3 -181t6.5 -149t5.5 -65h-562q-4 25 -16 104q-61 -69 -153 -101t-226 -32q-188 0 -304 92t-116 256q0 373 629 373q109 0 154 -2v47q0 50 -20 74.5t-75 24.5q-46 0 -66.5 -23t-25.5 -61zM633 375q0 -36 22.5 -57t61.5 -21q59 0 89 31.5
t30 115.5v19q-3 0 -29 1t-51 1q-123 0 -123 -90z" />
    <glyph glyph-name="uni1EAA" unicode="&#x1eaa;" horiz-adv-x="1812" 
d="M373 1528l252 262h526l246 -262h-418l-96 106l-90 -106h-420zM731 1866h-282v43q0 78 18.5 131.5t53 81.5t75 39.5t94.5 11.5q80 0 193 -27.5t133 -27.5t28.5 8.5t8.5 32.5v16h282v-59q0 -80 -19 -133t-55 -78t-73.5 -34t-89.5 -9q-77 0 -189 26.5t-137 26.5
q-17 0 -29 -11.5t-12 -25.5v-12zM-27 0l496 1442h829l541 -1442h-672l-55 205h-473l-51 -205h-615zM879 1049h-17q-27 -125 -110 -455h243q-71 299 -116 455z" />
    <glyph glyph-name="uni1EAB" unicode="&#x1eab;" horiz-adv-x="1525" 
d="M252 1198l252 262h526l246 -262h-418l-96 107l-90 -107h-420zM612 1520h-284v34q0 77 18 129.5t52.5 80.5t76 39.5t98.5 11.5q71 0 138 -14t114 -28t70 -14q39 0 39 35v23h283v-27q0 -71 -16.5 -123t-40.5 -80t-61 -45t-68.5 -21.5t-72.5 -4.5q-77 0 -179.5 26.5
t-127.5 26.5q-39 0 -39 -35v-14zM649 752h-536q1 47 14.5 91.5t55.5 97.5t109 91t185.5 64t274.5 26q663 0 663 -407v-320q0 -88 3 -181t6.5 -149t5.5 -65h-562q-4 25 -16 104q-61 -69 -153 -101t-226 -32q-188 0 -304 92t-116 256q0 373 629 373q109 0 154 -2v47
q0 50 -20 74.5t-75 24.5q-46 0 -66.5 -23t-25.5 -61zM633 375q0 -36 22.5 -57t61.5 -21q59 0 89 31.5t30 115.5v19q-3 0 -29 1t-51 1q-123 0 -123 -90z" />
    <glyph glyph-name="uni1EAC" unicode="&#x1eac;" horiz-adv-x="1812" 
d="M-27 0l496 1442h829l541 -1442h-672l-55 205h-473l-51 -205h-615zM879 1049h-17q-27 -125 -110 -455h243q-71 299 -116 455zM348 1548l213 264h637l213 -264h-455l-79 115l-76 -115h-453zM1149 -526h-490v393h490v-393z" />
    <glyph glyph-name="uni1EAD" unicode="&#x1ead;" horiz-adv-x="1525" 
d="M649 752h-536q1 47 14.5 91.5t55.5 97.5t109 91t185.5 64t274.5 26q663 0 663 -407v-320q0 -88 3 -181t6.5 -149t5.5 -65h-562q-4 25 -16 104q-61 -69 -153 -101t-226 -32q-188 0 -304 92t-116 256q0 373 629 373q109 0 154 -2v47q0 50 -20 74.5t-75 24.5
q-46 0 -66.5 -23t-25.5 -61zM633 375q0 -36 22.5 -57t61.5 -21q59 0 89 31.5t30 115.5v19q-3 0 -29 1t-51 1q-123 0 -123 -90zM264 1202l221 293h562l215 -293h-418l-78 123l-78 -123h-424zM1008 -526h-490v393h490v-393z" />
    <glyph glyph-name="uni1EAE" unicode="&#x1eae;" horiz-adv-x="1812" 
d="M977 1843h387q-10 -46 -28.5 -87.5t-55.5 -86.5t-86 -77t-125.5 -53t-169.5 -21q-110 0 -197.5 32.5t-139.5 84t-81 104t-37 104.5h387q11 -28 28 -40.5t48 -12.5q53 0 70 53zM682 1903l246 213h577l-407 -213h-416zM-27 0l496 1442h829l541 -1442h-672l-55 205h-473
l-51 -205h-615zM879 1049h-17q-27 -125 -110 -455h243q-71 299 -116 455z" />
    <glyph glyph-name="uni1EAF" unicode="&#x1eaf;" horiz-adv-x="1525" 
d="M860 1548l340 -2q-10 -70 -37 -130t-76 -114.5t-132.5 -86t-192.5 -31.5q-103 0 -185 30.5t-132.5 82t-78 115t-30.5 134.5l334 2q18 -46 40 -65t62 -19q69 0 88 84zM571 1608l242 229h530l-399 -229h-373zM649 752h-536q1 47 14.5 91.5t55.5 97.5t109 91t185.5 64
t274.5 26q663 0 663 -407v-320q0 -88 3 -181t6.5 -149t5.5 -65h-562q-4 25 -16 104q-61 -69 -153 -101t-226 -32q-188 0 -304 92t-116 256q0 373 629 373q109 0 154 -2v47q0 50 -20 74.5t-75 24.5q-46 0 -66.5 -23t-25.5 -61zM633 375q0 -36 22.5 -57t61.5 -21q59 0 89 31.5
t30 115.5v19q-3 0 -29 1t-51 1q-123 0 -123 -90z" />
    <glyph glyph-name="uni1EB0" unicode="&#x1eb0;" horiz-adv-x="1812" 
d="M705 1903l-390 213h578l244 -213h-432zM977 1843h387q-10 -46 -28.5 -87.5t-55.5 -86.5t-86 -77t-125.5 -53t-169.5 -21q-110 0 -197.5 32.5t-139.5 84t-81 104t-37 104.5h387q11 -28 28 -40.5t48 -12.5q53 0 70 53zM-27 0l496 1442h829l541 -1442h-672l-55 205h-473
l-51 -205h-615zM879 1049h-17q-27 -125 -110 -455h243q-71 299 -116 455z" />
    <glyph glyph-name="uni1EB1" unicode="&#x1eb1;" horiz-adv-x="1525" 
d="M606 1608l-403 229h530l242 -229h-369zM860 1548l340 -2q-10 -70 -37 -130t-76 -114.5t-132.5 -86t-192.5 -31.5q-103 0 -185 30.5t-132.5 82t-78 115t-30.5 134.5l334 2q18 -46 40 -65t62 -19q69 0 88 84zM649 752h-536q1 47 14.5 91.5t55.5 97.5t109 91t185.5 64
t274.5 26q663 0 663 -407v-320q0 -88 3 -181t6.5 -149t5.5 -65h-562q-4 25 -16 104q-61 -69 -153 -101t-226 -32q-188 0 -304 92t-116 256q0 373 629 373q109 0 154 -2v47q0 50 -20 74.5t-75 24.5q-46 0 -66.5 -23t-25.5 -61zM633 375q0 -36 22.5 -57t61.5 -21q59 0 89 31.5
t30 115.5v19q-3 0 -29 1t-51 1q-123 0 -123 -90z" />
    <glyph glyph-name="uni1EB2" unicode="&#x1eb2;" horiz-adv-x="1812" 
d="M977 1843h387q-10 -46 -28.5 -87.5t-55.5 -86.5t-86 -77t-125.5 -53t-169.5 -21q-110 0 -197.5 32.5t-139.5 84t-81 104t-37 104.5h387q11 -28 28 -40.5t48 -12.5q53 0 70 53zM664 2036l-72 186q115 80 295 80q132 0 205 -62t73 -143q0 -65 -24.5 -107.5t-75.5 -86.5
h-305q53 55 65.5 76.5t12.5 43.5q0 19 -16.5 33.5t-41.5 14.5q-41 0 -116 -35zM-27 0l496 1442h829l541 -1442h-672l-55 205h-473l-51 -205h-615zM879 1049h-17q-27 -125 -110 -455h243q-71 299 -116 455z" />
    <glyph glyph-name="uni1EB3" unicode="&#x1eb3;" horiz-adv-x="1525" 
d="M860 1548l340 -2q-10 -70 -37 -130t-76 -114.5t-132.5 -86t-192.5 -31.5q-103 0 -185 30.5t-132.5 82t-78 115t-30.5 134.5l334 2q18 -46 40 -65t62 -19q69 0 88 84zM532 1757l-73 180q105 86 309 86q130 0 204.5 -60t74.5 -140q0 -22 -4.5 -43t-8.5 -35.5t-17 -33
t-18.5 -27t-24 -25.5t-22.5 -20.5t-26 -21t-23 -18.5h-307q75 75 97 102t22 52q0 43 -56 43q-64 0 -127 -39zM649 752h-536q1 47 14.5 91.5t55.5 97.5t109 91t185.5 64t274.5 26q663 0 663 -407v-320q0 -88 3 -181t6.5 -149t5.5 -65h-562q-4 25 -16 104q-61 -69 -153 -101
t-226 -32q-188 0 -304 92t-116 256q0 373 629 373q109 0 154 -2v47q0 50 -20 74.5t-75 24.5q-46 0 -66.5 -23t-25.5 -61zM633 375q0 -36 22.5 -57t61.5 -21q59 0 89 31.5t30 115.5v19q-3 0 -29 1t-51 1q-123 0 -123 -90z" />
    <glyph glyph-name="uni1EB4" unicode="&#x1eb4;" horiz-adv-x="1812" 
d="M981 1831h356q-76 -305 -440 -305q-98 0 -178 27t-131 72t-81 97.5t-38 108.5h354q4 -23 23.5 -41t58.5 -18q37 0 52.5 15.5t23.5 43.5zM750 1911h-283v43q0 78 18.5 131.5t53.5 81.5t75.5 39.5t94.5 11.5q81 0 193 -27.5t132 -27.5t28.5 8.5t8.5 32.5v16h283v-59
q0 -80 -19 -133t-55.5 -78t-74 -34t-89.5 -9q-77 0 -188.5 26.5t-136.5 26.5q-17 0 -29 -11.5t-12 -25.5v-12zM-27 0l496 1442h829l541 -1442h-672l-55 205h-473l-51 -205h-615zM879 1049h-17q-27 -125 -110 -455h243q-71 299 -116 455z" />
    <glyph glyph-name="uni1EB5" unicode="&#x1eb5;" horiz-adv-x="1525" 
d="M870 1513h326q-11 -53 -28 -96t-50 -87t-79.5 -74t-118.5 -49t-164 -19q-189 0 -300.5 94t-127.5 231h323q6 -35 34.5 -57t76.5 -22q85 0 108 79zM590 1581h-264v47q0 258 237 258q71 0 145 -16.5t128 -32.5t77 -16q39 0 39 34v33h262v-39q0 -71 -16 -122.5t-40 -79.5
t-61 -44.5t-68.5 -21t-72.5 -4.5q-77 0 -189.5 32.5t-137.5 32.5q-39 0 -39 -34v-27zM649 752h-536q1 47 14.5 91.5t55.5 97.5t109 91t185.5 64t274.5 26q663 0 663 -407v-320q0 -88 3 -181t6.5 -149t5.5 -65h-562q-4 25 -16 104q-61 -69 -153 -101t-226 -32q-188 0 -304 92
t-116 256q0 373 629 373q109 0 154 -2v47q0 50 -20 74.5t-75 24.5q-46 0 -66.5 -23t-25.5 -61zM633 375q0 -36 22.5 -57t61.5 -21q59 0 89 31.5t30 115.5v19q-3 0 -29 1t-51 1q-123 0 -123 -90z" />
    <glyph glyph-name="uni1EB6" unicode="&#x1eb6;" horiz-adv-x="1812" 
d="M-27 0l496 1442h829l541 -1442h-672l-55 205h-473l-51 -205h-615zM879 1049h-17q-27 -125 -110 -455h243q-71 299 -116 455zM985 1864h350q-6 -54 -22.5 -102t-50 -95.5t-81 -81.5t-121 -55t-165.5 -21q-104 0 -186 29.5t-132 81t-77.5 113t-32.5 131.5h346
q20 -70 90 -70q68 0 82 70zM1149 -526h-490v393h490v-393z" />
    <glyph glyph-name="uni1EB7" unicode="&#x1eb7;" horiz-adv-x="1525" 
d="M649 752h-536q1 47 14.5 91.5t55.5 97.5t109 91t185.5 64t274.5 26q663 0 663 -407v-320q0 -88 3 -181t6.5 -149t5.5 -65h-562q-4 25 -16 104q-61 -69 -153 -101t-226 -32q-188 0 -304 92t-116 256q0 373 629 373q109 0 154 -2v47q0 50 -20 74.5t-75 24.5
q-46 0 -66.5 -23t-25.5 -61zM633 375q0 -36 22.5 -57t61.5 -21q59 0 89 31.5t30 115.5v19q-3 0 -29 1t-51 1q-123 0 -123 -90zM858 1538h309q-3 -67 -26 -127t-69 -112.5t-126 -83.5t-186 -31q-99 0 -177.5 29.5t-125.5 80t-71.5 113t-23.5 131.5h310q5 -34 29.5 -56
t64.5 -22q38 0 62.5 22t29.5 56zM1008 -526h-490v393h490v-393z" />
    <glyph glyph-name="uni1EB8" unicode="&#x1eb8;" horiz-adv-x="1605" 
d="M141 0v1442h1379v-389h-768v-129h731v-389h-731v-148h823l-74 -387h-1360zM1047 -526h-490v393h490v-393z" />
    <glyph glyph-name="uni1EB9" unicode="&#x1eb9;" horiz-adv-x="1544" 
d="M901 344h578q-19 -57 -42.5 -101.5t-75.5 -98t-123 -89t-188.5 -60t-267.5 -24.5q-164 0 -291.5 33.5t-207 88t-131 131.5t-71.5 157t-20 172t24 173.5t78.5 155t136 126t204.5 83.5t276 31t276 -34t202 -90.5t132 -132.5t75 -155.5t22 -164.5v-113h-809q0 -158 110 -158
q50 0 74 18t39 52zM793 836q-59 0 -87 -37t-28 -115h225q0 74 -25.5 113t-84.5 39zM1016 -526h-490v393h490v-393z" />
    <glyph glyph-name="uni1EBA" unicode="&#x1eba;" horiz-adv-x="1605" 
d="M141 0v1442h1379v-389h-768v-129h731v-389h-731v-148h823l-74 -387h-1360zM575 1706l-83 215q142 92 356 92q71 0 127.5 -14t92 -36t59 -52.5t33 -61.5t9.5 -65q0 -135 -129 -236h-364q98 92 98 144q0 47 -69 47q-63 0 -130 -33z" />
    <glyph glyph-name="uni1EBB" unicode="&#x1ebb;" horiz-adv-x="1544" 
d="M901 344h578q-19 -57 -42.5 -101.5t-75.5 -98t-123 -89t-188.5 -60t-267.5 -24.5q-164 0 -291.5 33.5t-207 88t-131 131.5t-71.5 157t-20 172t24 173.5t78.5 155t136 126t204.5 83.5t276 31t276 -34t202 -90.5t132 -132.5t75 -155.5t22 -164.5v-113h-809q0 -158 110 -158
q50 0 74 18t39 52zM793 836q-59 0 -87 -37t-28 -115h225q0 74 -25.5 113t-84.5 39zM508 1348l-84 215q142 92 356 92q88 0 153.5 -20.5t100.5 -55t51.5 -73t16.5 -81.5q0 -134 -129 -235h-365q99 93 99 143q0 47 -70 47q-64 0 -129 -32z" />
    <glyph glyph-name="uni1EBC" unicode="&#x1ebc;" horiz-adv-x="1605" 
d="M141 0v1442h1379v-389h-768v-129h731v-389h-731v-148h823l-74 -387h-1360zM659 1554h-288v48q0 78 12.5 135.5t34 94t56 58.5t73.5 30.5t90 8.5q77 0 154 -19t132.5 -38t80.5 -19q40 0 40 43v35h291v-33q0 -83 -17.5 -146t-44.5 -100.5t-65 -61t-74.5 -32t-78.5 -8.5
q-67 0 -139 18.5t-127 37t-82 18.5q-20 0 -34 -11t-14 -32v-27z" />
    <glyph glyph-name="uni1EBD" unicode="&#x1ebd;" horiz-adv-x="1544" 
d="M901 344h578q-19 -57 -42.5 -101.5t-75.5 -98t-123 -89t-188.5 -60t-267.5 -24.5q-164 0 -291.5 33.5t-207 88t-131 131.5t-71.5 157t-20 172t24 173.5t78.5 155t136 126t204.5 83.5t276 31t276 -34t202 -90.5t132 -132.5t75 -155.5t22 -164.5v-113h-809q0 -158 110 -158
q50 0 74 18t39 52zM793 836q-59 0 -87 -37t-28 -115h225q0 74 -25.5 113t-84.5 39zM588 1200h-258v80q0 158 71.5 227.5t188.5 69.5q74 0 141 -17t115 -34t74 -17q13 0 22.5 8.5t9.5 26.5v33h262v-61q0 -91 -21.5 -156t-59.5 -99.5t-81 -49.5t-94 -15q-79 0 -196.5 30.5
t-134.5 30.5q-39 0 -39 -38v-19z" />
    <glyph glyph-name="uni1EBE" unicode="&#x1ebe;" horiz-adv-x="1605" 
d="M279 1544l280 318h518l275 -318h-439l-96 121l-90 -121h-448zM1231 1763l246 291h540l-395 -291h-391zM141 0v1442h1379v-389h-768v-129h731v-389h-731v-148h823l-74 -387h-1360z" />
    <glyph glyph-name="uni1EBF" unicode="&#x1ebf;" horiz-adv-x="1544" 
d="M291 1202l270 293h428l262 -293h-393l-84 109l-84 -109h-399zM1077 1425l232 285h458l-366 -285h-324zM901 344h578q-19 -57 -42.5 -101.5t-75.5 -98t-123 -89t-188.5 -60t-267.5 -24.5q-164 0 -291.5 33.5t-207 88t-131 131.5t-71.5 157t-20 172t24 173.5t78.5 155
t136 126t204.5 83.5t276 31t276 -34t202 -90.5t132 -132.5t75 -155.5t22 -164.5v-113h-809q0 -158 110 -158q50 0 74 18t39 52zM793 836q-59 0 -87 -37t-28 -115h225q0 74 -25.5 113t-84.5 39z" />
    <glyph glyph-name="uni1EC0" unicode="&#x1ec0;" horiz-adv-x="1605" 
d="M285 1544l280 318h518l275 -318h-438l-97 121l-90 -121h-448zM1380 1767l-350 295h461l225 -295h-336zM141 0v1442h1379v-389h-768v-129h731v-389h-731v-148h823l-74 -387h-1360z" />
    <glyph glyph-name="uni1EC1" unicode="&#x1ec1;" horiz-adv-x="1544" 
d="M291 1202l270 293h428l262 -293h-393l-84 109l-84 -109h-399zM1227 1440l-359 293h459l248 -293h-348zM901 344h578q-19 -57 -42.5 -101.5t-75.5 -98t-123 -89t-188.5 -60t-267.5 -24.5q-164 0 -291.5 33.5t-207 88t-131 131.5t-71.5 157t-20 172t24 173.5t78.5 155
t136 126t204.5 83.5t276 31t276 -34t202 -90.5t132 -132.5t75 -155.5t22 -164.5v-113h-809q0 -158 110 -158q50 0 74 18t39 52zM793 836q-59 0 -87 -37t-28 -115h225q0 74 -25.5 113t-84.5 39z" />
    <glyph glyph-name="uni1EC2" unicode="&#x1ec2;" horiz-adv-x="1605" 
d="M281 1544l280 318h518l275 -318h-441l-94 135l-92 -135h-446zM1182 1898l-72 199q43 37 125 61.5t188 24.5q132 0 206.5 -61t74.5 -142q0 -125 -113 -223h-319q82 79 82 137q0 41 -49 41q-60 0 -123 -37zM141 0v1442h1379v-389h-768v-129h731v-389h-731v-148h823
l-74 -387h-1360z" />
    <glyph glyph-name="uni1EC3" unicode="&#x1ec3;" horiz-adv-x="1544" 
d="M291 1202l270 293h428l262 -293h-393l-84 109l-84 -109h-399zM1020 1591l-72 199q43 37 125.5 61.5t188.5 24.5q132 0 206 -61t74 -142q0 -126 -112 -223h-320q82 79 82 137q0 41 -49 41q-60 0 -123 -37zM901 344h578q-19 -57 -42.5 -101.5t-75.5 -98t-123 -89
t-188.5 -60t-267.5 -24.5q-164 0 -291.5 33.5t-207 88t-131 131.5t-71.5 157t-20 172t24 173.5t78.5 155t136 126t204.5 83.5t276 31t276 -34t202 -90.5t132 -132.5t75 -155.5t22 -164.5v-113h-809q0 -158 110 -158q50 0 74 18t39 52zM793 836q-59 0 -87 -37t-28 -115h225
q0 74 -25.5 113t-84.5 39z" />
    <glyph glyph-name="uni1EC4" unicode="&#x1ec4;" horiz-adv-x="1605" 
d="M311 1538l252 262h527l245 -262h-417l-97 107l-90 -107h-420zM670 1876h-283v43q0 78 18.5 131.5t53.5 81.5t75.5 39.5t94.5 11.5q81 0 193 -27.5t132 -27.5t28.5 8.5t8.5 32.5v16h283v-59q0 -80 -19 -133t-55.5 -78t-74 -34t-89.5 -9q-77 0 -188.5 26.5t-136.5 26.5
q-17 0 -29 -11.5t-12 -25.5v-12zM141 0v1442h1379v-389h-768v-129h731v-389h-731v-148h823l-74 -387h-1360z" />
    <glyph glyph-name="uni1EC5" unicode="&#x1ec5;" horiz-adv-x="1544" 
d="M268 1198l252 262h527l245 -262h-418l-96 107l-90 -107h-420zM629 1520h-285v34q0 77 18 129.5t53 80.5t76.5 39.5t98.5 11.5q71 0 138 -14t113.5 -28t69.5 -14q39 0 39 35v23h283v-27q0 -71 -16 -123t-40.5 -80t-61 -45t-68 -21.5t-72.5 -4.5q-77 0 -179.5 26.5
t-127.5 26.5q-39 0 -39 -35v-14zM901 344h578q-19 -57 -42.5 -101.5t-75.5 -98t-123 -89t-188.5 -60t-267.5 -24.5q-164 0 -291.5 33.5t-207 88t-131 131.5t-71.5 157t-20 172t24 173.5t78.5 155t136 126t204.5 83.5t276 31t276 -34t202 -90.5t132 -132.5t75 -155.5
t22 -164.5v-113h-809q0 -158 110 -158q50 0 74 18t39 52zM793 836q-59 0 -87 -37t-28 -115h225q0 74 -25.5 113t-84.5 39z" />
    <glyph glyph-name="uni1EC6" unicode="&#x1ec6;" horiz-adv-x="1605" 
d="M141 0v1442h1379v-389h-768v-129h731v-389h-731v-148h823l-74 -387h-1360zM266 1548l213 264h637l213 -264h-455l-79 115l-76 -115h-453zM1047 -526h-490v393h490v-393z" />
    <glyph glyph-name="uni1EC7" unicode="&#x1ec7;" horiz-adv-x="1544" 
d="M901 344h578q-19 -57 -42.5 -101.5t-75.5 -98t-123 -89t-188.5 -60t-267.5 -24.5q-164 0 -291.5 33.5t-207 88t-131 131.5t-71.5 157t-20 172t24 173.5t78.5 155t136 126t204.5 83.5t276 31t276 -34t202 -90.5t132 -132.5t75 -155.5t22 -164.5v-113h-809q0 -158 110 -158
q50 0 74 18t39 52zM793 836q-59 0 -87 -37t-28 -115h225q0 74 -25.5 113t-84.5 39zM272 1202l222 293h561l215 -293h-418l-78 123l-78 -123h-424zM1016 -526h-490v393h490v-393z" />
    <glyph glyph-name="uni1EC8" unicode="&#x1ec8;" horiz-adv-x="913" 
d="M141 0v1442h631v-1442h-631zM172 1696l-84 215q142 92 356 92q88 0 153.5 -20.5t100.5 -55t51.5 -72.5t16.5 -81q0 -135 -129 -236h-365q99 93 99 143q0 48 -70 48q-62 0 -129 -33z" />
    <glyph glyph-name="uni1EC9" unicode="&#x1ec9;" horiz-adv-x="839" 
d="M733 0h-622v1094h622v-1094zM135 1348l-84 215q142 92 357 92q88 0 153 -20.5t100 -55t51.5 -73t16.5 -81.5q0 -134 -129 -235h-364q98 92 98 143q0 47 -70 47q-64 0 -129 -32z" />
    <glyph glyph-name="uni1ECA" unicode="&#x1eca;" horiz-adv-x="913" 
d="M141 0v1442h631v-1442h-631zM700 -526h-489v393h489v-393z" />
    <glyph glyph-name="uni1ECB" unicode="&#x1ecb;" horiz-adv-x="839" 
d="M733 1176h-622v321h622v-321zM733 0h-622v1094h622v-1094zM664 -526h-490v393h490v-393z" />
    <glyph glyph-name="uni1ECC" unicode="&#x1ecc;" horiz-adv-x="1914" 
d="M68 719q0 102 22 195t66.5 179t117.5 156t170.5 121.5t231.5 80t293 28.5q197 0 362 -57t278 -157t175.5 -240t62.5 -304q0 -129 -33.5 -241.5t-104.5 -208t-176 -163.5t-255.5 -106.5t-335.5 -38.5q-208 0 -375 58t-275.5 160t-166 239.5t-57.5 298.5zM965 344
q65 0 109.5 27.5t67.5 81t32.5 117t9.5 149.5q0 205 -49.5 300t-180.5 95q-119 0 -171 -95.5t-52 -287.5q0 -89 11 -156t36.5 -121t72.5 -82t114 -28zM1200 -526h-489v393h489v-393z" />
    <glyph glyph-name="uni1ECD" unicode="&#x1ecd;" horiz-adv-x="1576" 
d="M61 543q0 125 43.5 229t130 183t228 123t325.5 44q147 0 269.5 -32.5t206 -88t141.5 -129.5t84.5 -155.5t26.5 -167.5q0 -132 -45.5 -237.5t-135 -182t-231.5 -117.5t-328 -41q-156 0 -281.5 35.5t-204.5 92.5t-132.5 133.5t-75 153.5t-21.5 157zM786 283q52 0 72.5 59
t20.5 199q0 154 -19 212t-76 58q-48 0 -71 -57t-23 -203q0 -144 22 -206t74 -62zM1032 -526h-489v393h489v-393z" />
    <glyph glyph-name="uni1ECE" unicode="&#x1ece;" horiz-adv-x="1914" 
d="M68 719q0 102 22 195t66.5 179t117.5 156t170.5 121.5t231.5 80t293 28.5q197 0 362 -57t278 -157t175.5 -240t62.5 -304q0 -129 -33.5 -241.5t-104.5 -208t-176 -163.5t-255.5 -106.5t-335.5 -38.5q-208 0 -375 58t-275.5 160t-166 239.5t-57.5 298.5zM965 344
q65 0 109.5 27.5t67.5 81t32.5 117t9.5 149.5q0 205 -49.5 300t-180.5 95q-119 0 -171 -95.5t-52 -287.5q0 -89 11 -156t36.5 -121t72.5 -82t114 -28zM672 1716l-84 215q142 92 356 92q88 0 153.5 -20.5t100.5 -55t51.5 -72.5t16.5 -81q0 -134 -129 -235h-365q98 92 98 143
q0 47 -69 47q-62 0 -129 -33z" />
    <glyph glyph-name="uni1ECF" unicode="&#x1ecf;" horiz-adv-x="1576" 
d="M61 543q0 125 43.5 229t130 183t228 123t325.5 44q147 0 269.5 -32.5t206 -88t141.5 -129.5t84.5 -155.5t26.5 -167.5q0 -132 -45.5 -237.5t-135 -182t-231.5 -117.5t-328 -41q-156 0 -281.5 35.5t-204.5 92.5t-132.5 133.5t-75 153.5t-21.5 157zM786 283q52 0 72.5 59
t20.5 199q0 154 -19 212t-76 58q-48 0 -71 -57t-23 -203q0 -144 22 -206t74 -62zM504 1348l-84 215q142 92 356 92q88 0 153.5 -20.5t100.5 -55t51.5 -73t16.5 -81.5q0 -134 -129 -235h-365q98 92 98 143q0 47 -69 47q-64 0 -129 -32z" />
    <glyph glyph-name="uni1ED0" unicode="&#x1ed0;" horiz-adv-x="1914" 
d="M420 1565l280 317h519l274 -317h-438l-97 121l-90 -121h-448zM1372 1784l246 291h541l-396 -291h-391zM68 719q0 102 22 195t66.5 179t117.5 156t170.5 121.5t231.5 80t293 28.5q197 0 362 -57t278 -157t175.5 -240t62.5 -304q0 -129 -33.5 -241.5t-104.5 -208
t-176 -163.5t-255.5 -106.5t-335.5 -38.5q-208 0 -375 58t-275.5 160t-166 239.5t-57.5 298.5zM965 344q65 0 109.5 27.5t67.5 81t32.5 117t9.5 149.5q0 205 -49.5 300t-180.5 95q-119 0 -171 -95.5t-52 -287.5q0 -89 11 -156t36.5 -121t72.5 -82t114 -28z" />
    <glyph glyph-name="uni1ED1" unicode="&#x1ed1;" horiz-adv-x="1576" 
d="M307 1202l271 293h428l262 -293h-394l-83 109l-84 -109h-400zM1094 1425l231 285h459l-367 -285h-323zM61 543q0 125 43.5 229t130 183t228 123t325.5 44q147 0 269.5 -32.5t206 -88t141.5 -129.5t84.5 -155.5t26.5 -167.5q0 -132 -45.5 -237.5t-135 -182t-231.5 -117.5
t-328 -41q-156 0 -281.5 35.5t-204.5 92.5t-132.5 133.5t-75 153.5t-21.5 157zM786 283q52 0 72.5 59t20.5 199q0 154 -19 212t-76 58q-48 0 -71 -57t-23 -203q0 -144 22 -206t74 -62z" />
    <glyph glyph-name="uni1ED2" unicode="&#x1ed2;" horiz-adv-x="1914" 
d="M420 1565l280 317h519l274 -317h-438l-97 121l-90 -121h-448zM1516 1788l-351 295h461l225 -295h-335zM68 719q0 102 22 195t66.5 179t117.5 156t170.5 121.5t231.5 80t293 28.5q197 0 362 -57t278 -157t175.5 -240t62.5 -304q0 -129 -33.5 -241.5t-104.5 -208
t-176 -163.5t-255.5 -106.5t-335.5 -38.5q-208 0 -375 58t-275.5 160t-166 239.5t-57.5 298.5zM965 344q65 0 109.5 27.5t67.5 81t32.5 117t9.5 149.5q0 205 -49.5 300t-180.5 95q-119 0 -171 -95.5t-52 -287.5q0 -89 11 -156t36.5 -121t72.5 -82t114 -28z" />
    <glyph glyph-name="uni1ED3" unicode="&#x1ed3;" horiz-adv-x="1576" 
d="M307 1202l271 293h428l262 -293h-394l-83 109l-84 -109h-400zM1243 1440l-358 293h458l248 -293h-348zM61 543q0 125 43.5 229t130 183t228 123t325.5 44q147 0 269.5 -32.5t206 -88t141.5 -129.5t84.5 -155.5t26.5 -167.5q0 -132 -45.5 -237.5t-135 -182t-231.5 -117.5
t-328 -41q-156 0 -281.5 35.5t-204.5 92.5t-132.5 133.5t-75 153.5t-21.5 157zM786 283q52 0 72.5 59t20.5 199q0 154 -19 212t-76 58q-48 0 -71 -57t-23 -203q0 -144 22 -206t74 -62z" />
    <glyph glyph-name="uni1ED4" unicode="&#x1ed4;" horiz-adv-x="1914" 
d="M420 1565l280 317h519l274 -317h-440l-95 135l-92 -135h-446zM1321 1919l-72 199q43 37 125.5 61.5t188.5 24.5q132 0 206 -61t74 -142q0 -126 -112 -223h-320q82 79 82 137q0 41 -49 41q-60 0 -123 -37zM68 719q0 102 22 195t66.5 179t117.5 156t170.5 121.5t231.5 80
t293 28.5q197 0 362 -57t278 -157t175.5 -240t62.5 -304q0 -129 -33.5 -241.5t-104.5 -208t-176 -163.5t-255.5 -106.5t-335.5 -38.5q-208 0 -375 58t-275.5 160t-166 239.5t-57.5 298.5zM965 344q65 0 109.5 27.5t67.5 81t32.5 117t9.5 149.5q0 205 -49.5 300t-180.5 95
q-119 0 -171 -95.5t-52 -287.5q0 -89 11 -156t36.5 -121t72.5 -82t114 -28z" />
    <glyph glyph-name="uni1ED5" unicode="&#x1ed5;" horiz-adv-x="1576" 
d="M307 1202l271 293h428l262 -293h-394l-83 109l-84 -109h-400zM1036 1591l-71 199q43 37 125 61.5t188 24.5q132 0 206.5 -61t74.5 -142q0 -125 -113 -223h-320q82 79 82 137q0 41 -49 41q-60 0 -123 -37zM61 543q0 125 43.5 229t130 183t228 123t325.5 44
q147 0 269.5 -32.5t206 -88t141.5 -129.5t84.5 -155.5t26.5 -167.5q0 -132 -45.5 -237.5t-135 -182t-231.5 -117.5t-328 -41q-156 0 -281.5 35.5t-204.5 92.5t-132.5 133.5t-75 153.5t-21.5 157zM786 283q52 0 72.5 59t20.5 199q0 154 -19 212t-76 58q-48 0 -71 -57
t-23 -203q0 -144 22 -206t74 -62z" />
    <glyph glyph-name="uni1ED6" unicode="&#x1ed6;" horiz-adv-x="1914" 
d="M444 1548l252 262h527l245 -262h-417l-97 107l-90 -107h-420zM803 1886h-283v43q0 78 18.5 131.5t53.5 81.5t75.5 39.5t94.5 11.5q80 0 192 -27.5t133 -27.5q20 0 28.5 8.5t8.5 32.5v16h283v-59q0 -80 -19 -133t-55.5 -78t-74 -34t-89.5 -9q-77 0 -188.5 26.5
t-136.5 26.5q-17 0 -29 -11.5t-12 -25.5v-12zM68 719q0 102 22 195t66.5 179t117.5 156t170.5 121.5t231.5 80t293 28.5q197 0 362 -57t278 -157t175.5 -240t62.5 -304q0 -129 -33.5 -241.5t-104.5 -208t-176 -163.5t-255.5 -106.5t-335.5 -38.5q-208 0 -375 58t-275.5 160
t-166 239.5t-57.5 298.5zM965 344q65 0 109.5 27.5t67.5 81t32.5 117t9.5 149.5q0 205 -49.5 300t-180.5 95q-119 0 -171 -95.5t-52 -287.5q0 -89 11 -156t36.5 -121t72.5 -82t114 -28z" />
    <glyph glyph-name="uni1ED7" unicode="&#x1ed7;" horiz-adv-x="1576" 
d="M276 1198l252 262h527l245 -262h-417l-97 107l-90 -107h-420zM637 1520h-285v34q0 77 18 129.5t53 80.5t76.5 39.5t98.5 11.5q71 0 138 -14t114 -28t70 -14q38 0 38 35v23h283v-27q0 -71 -16 -123t-40.5 -80t-61 -45t-68 -21.5t-72.5 -4.5q-77 0 -179.5 26.5t-127.5 26.5
q-39 0 -39 -35v-14zM61 543q0 125 43.5 229t130 183t228 123t325.5 44q147 0 269.5 -32.5t206 -88t141.5 -129.5t84.5 -155.5t26.5 -167.5q0 -132 -45.5 -237.5t-135 -182t-231.5 -117.5t-328 -41q-156 0 -281.5 35.5t-204.5 92.5t-132.5 133.5t-75 153.5t-21.5 157z
M786 283q52 0 72.5 59t20.5 199q0 154 -19 212t-76 58q-48 0 -71 -57t-23 -203q0 -144 22 -206t74 -62z" />
    <glyph glyph-name="uni1ED8" unicode="&#x1ed8;" horiz-adv-x="1914" 
d="M68 719q0 102 22 195t66.5 179t117.5 156t170.5 121.5t231.5 80t293 28.5q197 0 362 -57t278 -157t175.5 -240t62.5 -304q0 -129 -33.5 -241.5t-104.5 -208t-176 -163.5t-255.5 -106.5t-335.5 -38.5q-208 0 -375 58t-275.5 160t-166 239.5t-57.5 298.5zM965 344
q65 0 109.5 27.5t67.5 81t32.5 117t9.5 149.5q0 205 -49.5 300t-180.5 95q-119 0 -171 -95.5t-52 -287.5q0 -89 11 -156t36.5 -121t72.5 -82t114 -28zM420 1548l213 264h637l213 -264h-455l-80 115l-76 -115h-452zM1200 -526h-489v393h489v-393z" />
    <glyph glyph-name="uni1ED9" unicode="&#x1ed9;" horiz-adv-x="1576" 
d="M61 543q0 125 43.5 229t130 183t228 123t325.5 44q147 0 269.5 -32.5t206 -88t141.5 -129.5t84.5 -155.5t26.5 -167.5q0 -132 -45.5 -237.5t-135 -182t-231.5 -117.5t-328 -41q-156 0 -281.5 35.5t-204.5 92.5t-132.5 133.5t-75 153.5t-21.5 157zM786 283q52 0 72.5 59
t20.5 199q0 154 -19 212t-76 58q-48 0 -71 -57t-23 -203q0 -144 22 -206t74 -62zM289 1202l221 293h561l215 -293h-418l-77 123l-78 -123h-424zM1032 -526h-489v393h489v-393z" />
    <glyph glyph-name="uni1EDA" unicode="&#x1eda;" horiz-adv-x="1914" 
d="M1475 1585h440q20 -61 20 -155q0 -93 -49.5 -178.5t-154.5 -127.5q116 -176 116 -403q0 -129 -33.5 -241.5t-104.5 -208t-176 -163.5t-255.5 -106.5t-335.5 -38.5q-208 0 -375 58t-275.5 160t-166 239.5t-57.5 298.5q0 102 22 195t66.5 179t117.5 156t170.5 121.5
t231.5 80t293 28.5q281 0 493 -113q41 25 41 84q0 61 -28 135zM965 344q65 0 109.5 27.5t67.5 81t32.5 117t9.5 149.5q0 205 -49.5 300t-180.5 95q-119 0 -171 -95.5t-52 -287.5q0 -89 11 -156t36.5 -121t72.5 -82t114 -28zM696 1569l301 284h643l-479 -284h-465z" />
    <glyph glyph-name="uni1EDB" unicode="&#x1edb;" horiz-adv-x="1576" 
d="M1174 1257h440q20 -61 20 -155q0 -88 -45.5 -169.5t-140.5 -125.5q68 -124 68 -258q0 -132 -45.5 -237.5t-135 -182t-231.5 -117.5t-328 -41q-156 0 -281.5 35.5t-204.5 92.5t-132.5 133.5t-75 153.5t-21.5 157q0 125 43.5 229t130 183t228 123t325.5 44q226 0 388 -73
q26 30 26 73q0 61 -28 135zM786 283q52 0 72.5 59t20.5 199q0 154 -19 212t-76 58q-48 0 -71 -57t-23 -203q0 -144 22 -206t74 -62zM549 1214l276 355h559l-419 -355h-416z" />
    <glyph glyph-name="uni1EDC" unicode="&#x1edc;" horiz-adv-x="1914" 
d="M1475 1585h440q20 -61 20 -155q0 -93 -49.5 -178.5t-154.5 -127.5q116 -176 116 -403q0 -129 -33.5 -241.5t-104.5 -208t-176 -163.5t-255.5 -106.5t-335.5 -38.5q-208 0 -375 58t-275.5 160t-166 239.5t-57.5 298.5q0 102 22 195t66.5 179t117.5 156t170.5 121.5
t231.5 80t293 28.5q281 0 493 -113q41 25 41 84q0 61 -28 135zM965 344q65 0 109.5 27.5t67.5 81t32.5 117t9.5 149.5q0 205 -49.5 300t-180.5 95q-119 0 -171 -95.5t-52 -287.5q0 -89 11 -156t36.5 -121t72.5 -82t114 -28zM750 1569l-465 284h628l312 -284h-475z" />
    <glyph glyph-name="uni1EDD" unicode="&#x1edd;" horiz-adv-x="1576" 
d="M1174 1257h440q20 -61 20 -155q0 -88 -45.5 -169.5t-140.5 -125.5q68 -124 68 -258q0 -132 -45.5 -237.5t-135 -182t-231.5 -117.5t-328 -41q-156 0 -281.5 35.5t-204.5 92.5t-132.5 133.5t-75 153.5t-21.5 157q0 125 43.5 229t130 183t228 123t325.5 44q226 0 388 -73
q26 30 26 73q0 61 -28 135zM786 283q52 0 72.5 59t20.5 199q0 154 -19 212t-76 58q-48 0 -71 -57t-23 -203q0 -144 22 -206t74 -62zM635 1214l-428 355h565l268 -355h-405z" />
    <glyph glyph-name="uni1EDE" unicode="&#x1ede;" horiz-adv-x="1914" 
d="M1475 1585h440q20 -61 20 -155q0 -93 -49.5 -178.5t-154.5 -127.5q116 -176 116 -403q0 -129 -33.5 -241.5t-104.5 -208t-176 -163.5t-255.5 -106.5t-335.5 -38.5q-208 0 -375 58t-275.5 160t-166 239.5t-57.5 298.5q0 102 22 195t66.5 179t117.5 156t170.5 121.5
t231.5 80t293 28.5q281 0 493 -113q41 25 41 84q0 61 -28 135zM965 344q65 0 109.5 27.5t67.5 81t32.5 117t9.5 149.5q0 205 -49.5 300t-180.5 95q-119 0 -171 -95.5t-52 -287.5q0 -89 11 -156t36.5 -121t72.5 -82t114 -28zM672 1716l-84 215q142 92 356 92
q88 0 153.5 -20.5t100.5 -55t51.5 -72.5t16.5 -81q0 -134 -129 -235h-365q98 92 98 143q0 47 -69 47q-62 0 -129 -33z" />
    <glyph glyph-name="uni1EDF" unicode="&#x1edf;" horiz-adv-x="1576" 
d="M1174 1257h440q20 -61 20 -155q0 -88 -45.5 -169.5t-140.5 -125.5q68 -124 68 -258q0 -132 -45.5 -237.5t-135 -182t-231.5 -117.5t-328 -41q-156 0 -281.5 35.5t-204.5 92.5t-132.5 133.5t-75 153.5t-21.5 157q0 125 43.5 229t130 183t228 123t325.5 44q226 0 388 -73
q26 30 26 73q0 61 -28 135zM786 283q52 0 72.5 59t20.5 199q0 154 -19 212t-76 58q-48 0 -71 -57t-23 -203q0 -144 22 -206t74 -62zM504 1372l-84 215q142 92 356 92q88 0 153.5 -20.5t100.5 -55t51.5 -72.5t16.5 -81q0 -135 -129 -236h-365q98 92 98 144q0 47 -69 47
q-62 0 -129 -33z" />
    <glyph glyph-name="uni1EE0" unicode="&#x1ee0;" horiz-adv-x="1914" 
d="M1475 1585h440q20 -61 20 -155q0 -93 -49.5 -178.5t-154.5 -127.5q116 -176 116 -403q0 -129 -33.5 -241.5t-104.5 -208t-176 -163.5t-255.5 -106.5t-335.5 -38.5q-208 0 -375 58t-275.5 160t-166 239.5t-57.5 298.5q0 102 22 195t66.5 179t117.5 156t170.5 121.5
t231.5 80t293 28.5q281 0 493 -113q41 25 41 84q0 61 -28 135zM965 344q65 0 109.5 27.5t67.5 81t32.5 117t9.5 149.5q0 205 -49.5 300t-180.5 95q-119 0 -171 -95.5t-52 -287.5q0 -89 11 -156t36.5 -121t72.5 -82t114 -28zM758 1563h-289v47q0 78 12.5 135.5t34 94t56 58.5
t73.5 30.5t90 8.5q77 0 154 -18.5t132.5 -37.5t80.5 -19q41 0 41 43v34h291v-32q0 -83 -17.5 -146t-44.5 -100.5t-65.5 -61t-75 -32t-78.5 -8.5q-67 0 -139 18.5t-127 36.5t-82 18q-20 0 -33.5 -11t-13.5 -32v-26z" />
    <glyph glyph-name="uni1EE1" unicode="&#x1ee1;" horiz-adv-x="1576" 
d="M1174 1257h440q20 -61 20 -155q0 -88 -45.5 -169.5t-140.5 -125.5q68 -124 68 -258q0 -132 -45.5 -237.5t-135 -182t-231.5 -117.5t-328 -41q-156 0 -281.5 35.5t-204.5 92.5t-132.5 133.5t-75 153.5t-21.5 157q0 125 43.5 229t130 183t228 123t325.5 44q226 0 388 -73
q26 30 26 73q0 61 -28 135zM786 283q52 0 72.5 59t20.5 199q0 154 -19 212t-76 58q-48 0 -71 -57t-23 -203q0 -144 22 -206t74 -62zM604 1217h-258v79q0 158 71.5 227.5t188.5 69.5q74 0 141 -16.5t115 -33.5t74 -17q13 0 23 9t10 26v32h262v-61q0 -91 -21.5 -156
t-59.5 -99.5t-81 -49.5t-94 -15q-79 0 -197 31t-135 31q-39 0 -39 -39v-18z" />
    <glyph glyph-name="uni1EE2" unicode="&#x1ee2;" horiz-adv-x="1914" 
d="M1475 1585h440q20 -61 20 -155q0 -93 -49.5 -178.5t-154.5 -127.5q116 -176 116 -403q0 -129 -33.5 -241.5t-104.5 -208t-176 -163.5t-255.5 -106.5t-335.5 -38.5q-208 0 -375 58t-275.5 160t-166 239.5t-57.5 298.5q0 102 22 195t66.5 179t117.5 156t170.5 121.5
t231.5 80t293 28.5q281 0 493 -113q41 25 41 84q0 61 -28 135zM965 344q65 0 109.5 27.5t67.5 81t32.5 117t9.5 149.5q0 205 -49.5 300t-180.5 95q-119 0 -171 -95.5t-52 -287.5q0 -89 11 -156t36.5 -121t72.5 -82t114 -28zM1200 -526h-489v393h489v-393z" />
    <glyph glyph-name="uni1EE3" unicode="&#x1ee3;" horiz-adv-x="1576" 
d="M1174 1257h440q20 -61 20 -155q0 -88 -45.5 -169.5t-140.5 -125.5q68 -124 68 -258q0 -132 -45.5 -237.5t-135 -182t-231.5 -117.5t-328 -41q-156 0 -281.5 35.5t-204.5 92.5t-132.5 133.5t-75 153.5t-21.5 157q0 125 43.5 229t130 183t228 123t325.5 44q226 0 388 -73
q26 30 26 73q0 61 -28 135zM786 283q52 0 72.5 59t20.5 199q0 154 -19 212t-76 58q-48 0 -71 -57t-23 -203q0 -144 22 -206t74 -62zM1032 -504h-489v393h489v-393z" />
    <glyph glyph-name="uni1EE4" unicode="&#x1ee4;" horiz-adv-x="1839" 
d="M121 602v840h631v-873q0 -198 170 -198q51 0 85.5 17t51 48t22.5 62t6 71v873h631v-852q0 -153 -42.5 -266t-136.5 -195.5t-252 -124t-380 -41.5q-172 0 -305 28.5t-223.5 81t-148.5 132t-83.5 177t-25.5 220.5zM1163 -526h-489v393h489v-393z" />
    <glyph glyph-name="uni1EE5" unicode="&#x1ee5;" horiz-adv-x="1617" 
d="M100 395v699h625v-639q0 -131 74 -131q47 0 67.5 37.5t20.5 121.5v611h622v-686q0 -371 2 -408h-612q-3 16 -10 113q-32 -34 -61.5 -56.5t-73 -43.5t-103 -31.5t-135.5 -10.5q-193 0 -304.5 112.5t-111.5 311.5zM1053 -498h-490v394h490v-394z" />
    <glyph glyph-name="uni1EE6" unicode="&#x1ee6;" horiz-adv-x="1839" 
d="M121 602v840h631v-873q0 -198 170 -198q51 0 85.5 17t51 48t22.5 62t6 71v873h631v-852q0 -153 -42.5 -266t-136.5 -195.5t-252 -124t-380 -41.5q-172 0 -305 28.5t-223.5 81t-148.5 132t-83.5 177t-25.5 220.5zM635 1696l-84 215q142 92 356 92q88 0 153.5 -20.5
t100.5 -55t51.5 -72.5t16.5 -81q0 -135 -129 -236h-365q99 93 99 143q0 48 -70 48q-62 0 -129 -33z" />
    <glyph glyph-name="uni1EE7" unicode="&#x1ee7;" horiz-adv-x="1617" 
d="M100 395v699h625v-639q0 -131 74 -131q47 0 67.5 37.5t20.5 121.5v611h622v-686q0 -371 2 -408h-612q-3 16 -10 113q-32 -34 -61.5 -56.5t-73 -43.5t-103 -31.5t-135.5 -10.5q-193 0 -304.5 112.5t-111.5 311.5zM524 1348l-84 215q142 92 357 92q88 0 153 -20.5t100 -55
t51.5 -73t16.5 -81.5q0 -134 -129 -235h-364q98 92 98 143q0 47 -70 47q-64 0 -129 -32z" />
    <glyph glyph-name="uni1EE8" unicode="&#x1ee8;" horiz-adv-x="1839" 
d="M121 602v840h631v-873q0 -198 170 -198q51 0 85.5 17t51 48t22.5 62t6 71v873h404q37 30 37 82q0 58 -29 135h440q21 -65 21 -156q0 -47 -13 -93t-40 -90t-75.5 -79.5t-113.5 -54.5v-596q0 -153 -42.5 -266t-136.5 -195.5t-252 -124t-380 -41.5q-172 0 -305 28.5
t-223.5 81t-148.5 132t-83.5 177t-25.5 220.5zM668 1548l301 285h643l-479 -285h-465z" />
    <glyph glyph-name="uni1EE9" unicode="&#x1ee9;" horiz-adv-x="1617" 
d="M100 395v699h625v-639q0 -131 74 -131q47 0 67.5 37.5t20.5 121.5v611h334q63 28 63 98q0 58 -29 135h441q20 -61 20 -156q0 -60 -18.5 -115.5t-67 -108.5t-121.5 -81v-458q0 -371 2 -408h-612q-3 16 -10 113q-32 -34 -61.5 -56.5t-73 -43.5t-103 -31.5t-135.5 -10.5
q-193 0 -304.5 112.5t-111.5 311.5zM551 1184l276 354h559l-419 -354h-416z" />
    <glyph glyph-name="uni1EEA" unicode="&#x1eea;" horiz-adv-x="1839" 
d="M121 602v840h631v-873q0 -198 170 -198q51 0 85.5 17t51 48t22.5 62t6 71v873h404q37 30 37 82q0 58 -29 135h440q21 -65 21 -156q0 -47 -13 -93t-40 -90t-75.5 -79.5t-113.5 -54.5v-596q0 -153 -42.5 -266t-136.5 -195.5t-252 -124t-380 -41.5q-172 0 -305 28.5
t-223.5 81t-148.5 132t-83.5 177t-25.5 220.5zM713 1548l-465 285h629l311 -285h-475z" />
    <glyph glyph-name="uni1EEB" unicode="&#x1eeb;" horiz-adv-x="1617" 
d="M100 395v699h625v-639q0 -131 74 -131q47 0 67.5 37.5t20.5 121.5v611h334q63 28 63 98q0 58 -29 135h441q20 -61 20 -156q0 -60 -18.5 -115.5t-67 -108.5t-121.5 -81v-458q0 -371 2 -408h-612q-3 16 -10 113q-32 -34 -61.5 -56.5t-73 -43.5t-103 -31.5t-135.5 -10.5
q-193 0 -304.5 112.5t-111.5 311.5zM655 1184l-428 354h566l268 -354h-406z" />
    <glyph glyph-name="uni1EEC" unicode="&#x1eec;" horiz-adv-x="1839" 
d="M121 602v840h631v-873q0 -198 170 -198q51 0 85.5 17t51 48t22.5 62t6 71v873h404q37 30 37 82q0 58 -29 135h440q21 -65 21 -156q0 -47 -13 -93t-40 -90t-75.5 -79.5t-113.5 -54.5v-596q0 -153 -42.5 -266t-136.5 -195.5t-252 -124t-380 -41.5q-172 0 -305 28.5
t-223.5 81t-148.5 132t-83.5 177t-25.5 220.5zM635 1696l-84 215q142 92 356 92q88 0 153.5 -20.5t100.5 -55t51.5 -72.5t16.5 -81q0 -135 -129 -236h-365q99 93 99 143q0 48 -70 48q-62 0 -129 -33z" />
    <glyph glyph-name="uni1EED" unicode="&#x1eed;" horiz-adv-x="1617" 
d="M100 395v699h625v-639q0 -131 74 -131q47 0 67.5 37.5t20.5 121.5v611h334q63 28 63 98q0 58 -29 135h441q20 -61 20 -156q0 -60 -18.5 -115.5t-67 -108.5t-121.5 -81v-458q0 -371 2 -408h-612q-3 16 -10 113q-32 -34 -61.5 -56.5t-73 -43.5t-103 -31.5t-135.5 -10.5
q-193 0 -304.5 112.5t-111.5 311.5zM524 1348l-84 215q142 92 357 92q88 0 153 -20.5t100 -55t51.5 -73t16.5 -81.5q0 -134 -129 -235h-364q98 92 98 143q0 47 -70 47q-64 0 -129 -32z" />
    <glyph glyph-name="uni1EEE" unicode="&#x1eee;" horiz-adv-x="1839" 
d="M121 602v840h631v-873q0 -198 170 -198q51 0 85.5 17t51 48t22.5 62t6 71v873h404q37 30 37 82q0 58 -29 135h440q21 -65 21 -156q0 -47 -13 -93t-40 -90t-75.5 -79.5t-113.5 -54.5v-596q0 -153 -42.5 -266t-136.5 -195.5t-252 -124t-380 -41.5q-172 0 -305 28.5
t-223.5 81t-148.5 132t-83.5 177t-25.5 220.5zM721 1542h-289v47q0 97 18 162.5t54.5 101t82.5 50t111 14.5q77 0 154 -19t132.5 -38t80.5 -19q41 0 41 43v35h291v-33q0 -83 -17.5 -146t-44.5 -100.5t-65.5 -61t-75 -32t-78.5 -8.5q-67 0 -139 18.5t-127 37t-82 18.5
q-20 0 -33.5 -11t-13.5 -32v-27z" />
    <glyph glyph-name="uni1EEF" unicode="&#x1eef;" horiz-adv-x="1617" 
d="M100 395v699h625v-639q0 -131 74 -131q47 0 67.5 37.5t20.5 121.5v611h334q63 28 63 98q0 58 -29 135h441q20 -61 20 -156q0 -60 -18.5 -115.5t-67 -108.5t-121.5 -81v-458q0 -371 2 -408h-612q-3 16 -10 113q-32 -34 -61.5 -56.5t-73 -43.5t-103 -31.5t-135.5 -10.5
q-193 0 -304.5 112.5t-111.5 311.5zM625 1200h-258v80q0 158 71.5 227.5t188.5 69.5q74 0 141 -17t114.5 -34t73.5 -17q13 0 23 9t10 26v33h262v-61q0 -91 -21.5 -156t-59.5 -99.5t-81 -49.5t-94 -15q-79 0 -196.5 30.5t-134.5 30.5q-39 0 -39 -38v-19z" />
    <glyph glyph-name="uni1EF0" unicode="&#x1ef0;" horiz-adv-x="1839" 
d="M121 602v840h631v-873q0 -198 170 -198q51 0 85.5 17t51 48t22.5 62t6 71v873h404q37 30 37 82q0 58 -29 135h440q21 -65 21 -156q0 -47 -13 -93t-40 -90t-75.5 -79.5t-113.5 -54.5v-596q0 -153 -42.5 -266t-136.5 -195.5t-252 -124t-380 -41.5q-172 0 -305 28.5
t-223.5 81t-148.5 132t-83.5 177t-25.5 220.5zM1163 -526h-489v393h489v-393z" />
    <glyph glyph-name="uni1EF1" unicode="&#x1ef1;" horiz-adv-x="1617" 
d="M100 395v699h625v-639q0 -131 74 -131q47 0 67.5 37.5t20.5 121.5v611h334q63 28 63 98q0 58 -29 135h441q20 -61 20 -156q0 -60 -18.5 -115.5t-67 -108.5t-121.5 -81v-458q0 -371 2 -408h-612q-3 16 -10 113q-32 -34 -61.5 -56.5t-73 -43.5t-103 -31.5t-135.5 -10.5
q-193 0 -304.5 112.5t-111.5 311.5zM1053 -526h-490v393h490v-393z" />
    <glyph glyph-name="Ygrave" unicode="&#x1ef2;" horiz-adv-x="1660" 
d="M1145 0h-631v483q0 30 -25 70l-552 889h729q47 -106 112.5 -281t83.5 -221q73 206 195 502h667l-563 -899q-16 -28 -16 -70v-473zM635 1532l-465 285h629l311 -285h-475z" />
    <glyph glyph-name="ygrave" unicode="&#x1ef3;" horiz-adv-x="1484" 
d="M201 -416v375q3 0 36.5 -1t49.5 -1q108 0 127 31l-445 1106h666q85 -371 127 -691h16q5 36 25 179.5t40.5 281t37.5 230.5h620l-364 -1043q-66 -187 -146 -288.5t-202.5 -147t-319.5 -45.5q-158 0 -268 14zM588 1184l-428 354h565l268 -354h-405z" />
    <glyph glyph-name="uni1EF4" unicode="&#x1ef4;" horiz-adv-x="1660" 
d="M1145 0h-631v483q0 30 -25 70l-552 889h729q47 -106 112.5 -281t83.5 -221q73 206 195 502h667l-563 -899q-16 -28 -16 -70v-473zM1073 -526h-489v393h489v-393z" />
    <glyph glyph-name="uni1EF5" unicode="&#x1ef5;" horiz-adv-x="1484" 
d="M201 -416v375q3 0 36.5 -1t49.5 -1q108 0 127 31l-445 1106h666q85 -371 127 -691h16q5 36 25 179.5t40.5 281t37.5 230.5h620l-364 -1043q-66 -187 -146 -288.5t-202.5 -147t-319.5 -45.5q-158 0 -268 14zM1599 -526h-489v393h489v-393z" />
    <glyph glyph-name="uni1EF6" unicode="&#x1ef6;" horiz-adv-x="1660" 
d="M1145 0h-631v483q0 30 -25 70l-552 889h729q47 -106 112.5 -281t83.5 -221q73 206 195 502h667l-563 -899q-16 -28 -16 -70v-473zM559 1694l-84 215q142 92 356 92q88 0 153.5 -20.5t100.5 -55t51.5 -72.5t16.5 -81q0 -135 -129 -236h-365q99 93 99 143q0 47 -70 47
q-64 0 -129 -32z" />
    <glyph glyph-name="uni1EF7" unicode="&#x1ef7;" horiz-adv-x="1484" 
d="M201 -416v375q3 0 36.5 -1t49.5 -1q108 0 127 31l-445 1106h666q85 -371 127 -691h16q5 36 25 179.5t40.5 281t37.5 230.5h620l-364 -1043q-66 -187 -146 -288.5t-202.5 -147t-319.5 -45.5q-158 0 -268 14zM457 1348l-84 215q142 92 356 92q88 0 153.5 -20.5t100.5 -55
t51.5 -73t16.5 -81.5q0 -134 -129 -235h-365q98 92 98 143q0 47 -69 47q-64 0 -129 -32z" />
    <glyph glyph-name="uni1EF8" unicode="&#x1ef8;" horiz-adv-x="1660" 
d="M1145 0h-631v483q0 30 -25 70l-552 889h729q47 -106 112.5 -281t83.5 -221q73 206 195 502h667l-563 -899q-16 -28 -16 -70v-473zM672 1556h-289v48q0 78 12.5 135.5t34 94t56 58.5t73.5 30.5t90 8.5q77 0 154 -19t132.5 -38t80.5 -19q41 0 41 43v35h291v-32
q0 -83 -17.5 -146.5t-44.5 -101t-65.5 -61t-75 -32t-78.5 -8.5q-67 0 -139 18.5t-127 37t-82 18.5q-20 0 -33.5 -11t-13.5 -32v-27z" />
    <glyph glyph-name="uni1EF9" unicode="&#x1ef9;" horiz-adv-x="1484" 
d="M201 -416v375q3 0 36.5 -1t49.5 -1q108 0 127 31l-445 1106h666q85 -371 127 -691h16q5 36 25 179.5t40.5 281t37.5 230.5h620l-364 -1043q-66 -187 -146 -288.5t-202.5 -147t-319.5 -45.5q-158 0 -268 14zM578 1200h-259v80q0 158 72 227.5t189 69.5q74 0 141 -17
t114.5 -34t73.5 -17q13 0 23 9t10 26v33h262v-61q0 -91 -21.5 -156t-59.5 -99.5t-81 -49.5t-94 -15q-79 0 -197 30.5t-135 30.5q-38 0 -38 -38v-19z" />
    <glyph glyph-name="uni2007" unicode="&#x2007;" horiz-adv-x="1613" 
 />
    <glyph glyph-name="uni2010" unicode="&#x2010;" horiz-adv-x="915" 
d="M70 326v430h776v-430h-776z" />
    <glyph glyph-name="figuredash" unicode="&#x2012;" horiz-adv-x="1613" 
d="M303 479v430h1008v-430h-1008z" />
    <glyph glyph-name="endash" unicode="&#x2013;" horiz-adv-x="1292" 
d="M117 326v430h993v-430h-993z" />
    <glyph glyph-name="emdash" unicode="&#x2014;" horiz-adv-x="2234" 
d="M117 328v426h2001v-426h-2001z" />
    <glyph glyph-name="uni2015" unicode="&#x2015;" horiz-adv-x="2234" 
d="M117 328v426h2001v-426h-2001z" />
    <glyph glyph-name="quoteleft" unicode="&#x2018;" horiz-adv-x="608" 
d="M479 836h-424q13 205 63 376.5t118 284.5h315q-21 -101 -32.5 -164.5t-26 -208t-13.5 -288.5z" />
    <glyph glyph-name="quoteright" unicode="&#x2019;" horiz-adv-x="608" 
d="M129 1497h424q-13 -205 -63 -376.5t-117 -284.5h-316q21 101 32.5 164.5t26 208t13.5 288.5z" />
    <glyph glyph-name="quotesinglbase" unicode="&#x201a;" horiz-adv-x="649" 
d="M129 489h424q-13 -205 -63 -376.5t-117 -284.5h-316q21 101 32.5 164.5t26 208t13.5 288.5z" />
    <glyph glyph-name="quotedblleft" unicode="&#x201c;" horiz-adv-x="1054" 
d="M440 836h-383q13 193 64.5 372.5t116.5 288.5h274q-21 -101 -32.5 -164.5t-26 -208t-13.5 -288.5zM928 836h-383q13 194 64 373t116 288h274q-20 -97 -32 -163.5t-26 -210t-13 -287.5z" />
    <glyph glyph-name="quotedblright" unicode="&#x201d;" horiz-adv-x="1054" 
d="M129 1497h383q-13 -194 -64 -373t-116 -288h-275q21 101 32.5 164.5t26 208t13.5 288.5zM616 1497h383q-13 -194 -64 -373t-116 -288h-274q20 97 32 163.5t26 210t13 287.5z" />
    <glyph glyph-name="quotedblbase" unicode="&#x201e;" horiz-adv-x="1136" 
d="M129 492h383q-13 -194 -64 -373.5t-116 -288.5h-275q21 100 32.5 164.5t26 209t13.5 288.5zM616 492h383q-13 -194 -64 -373.5t-116 -288.5h-274q20 97 32 164t26 210.5t13 287.5z" />
    <glyph glyph-name="dagger" unicode="&#x2020;" horiz-adv-x="1247" 
d="M385 -168l25 885l-338 -21v367l338 -21l-25 377h430l-20 -377l335 21v-367l-335 21l20 -885h-430z" />
    <glyph glyph-name="daggerdbl" unicode="&#x2021;" horiz-adv-x="1247" 
d="M385 -168l25 363l-338 -21v365l338 -21v234l-338 -21v367l338 -23l-25 344h430l-20 -344l335 23v-367l-335 21v-234l335 21v-365l-335 21l20 -363h-430z" />
    <glyph glyph-name="bullet" unicode="&#x2022;" horiz-adv-x="888" 
d="M100 258v647h686v-647h-686z" />
    <glyph glyph-name="ellipsis" unicode="&#x2026;" horiz-adv-x="2504" 
d="M606 0h-518v530h518v-530zM1438 0h-518v530h518v-530zM2281 0h-518v530h518v-530z" />
    <glyph glyph-name="perthousand" unicode="&#x2030;" horiz-adv-x="3340" 
d="M1296 387q0 201 123 317.5t365 116.5q123 0 216.5 -35t147 -95t79.5 -130.5t26 -150.5q0 -112 -36.5 -198t-101.5 -138.5t-150 -78.5t-187 -26q-235 0 -358.5 113.5t-123.5 304.5zM1780 242q39 0 59.5 31.5t20.5 117.5q0 93 -20 128.5t-64 35.5q-84 0 -84 -158
q0 -90 21.5 -122.5t66.5 -32.5zM2324 387q0 201 123 317.5t365 116.5q123 0 216.5 -35t147 -95t79.5 -130.5t26 -150.5q0 -112 -36.5 -198t-101.5 -138.5t-150 -78.5t-187 -26q-235 0 -358.5 113.5t-123.5 304.5zM2808 242q39 0 59.5 31.5t20.5 117.5q0 93 -20 128.5
t-64 35.5q-84 0 -84 -158q0 -90 21.5 -122.5t66.5 -32.5zM59 965q0 201 123 317.5t365 116.5q99 0 179.5 -23.5t133.5 -63t89 -93t51.5 -111.5t15.5 -121q0 -112 -36.5 -197.5t-101.5 -138t-150 -78.5t-187 -26q-235 0 -358.5 113.5t-123.5 304.5zM543 819q39 0 59.5 32
t20.5 118q0 93 -20 128.5t-64 35.5q-84 0 -84 -158q0 -90 21.5 -123t66.5 -33zM825 -20h-264l907 1390h263z" />
    <glyph glyph-name="uni2032" unicode="&#x2032;" horiz-adv-x="718" 
d="M451 768h-349l86 729h428z" />
    <glyph glyph-name="uni2033" unicode="&#x2033;" horiz-adv-x="1218" 
d="M426 768h-324l86 729h408zM946 768h-323l86 729h407z" />
    <glyph glyph-name="guilsinglleft" unicode="&#x2039;" horiz-adv-x="1028" 
d="M479 127l-344 418l344 418h414l-332 -418l332 -418h-414z" />
    <glyph glyph-name="guilsinglright" unicode="&#x203a;" horiz-adv-x="1028" 
d="M549 127h-414l332 418l-332 418h414l344 -418z" />
    <glyph glyph-name="fraction" unicode="&#x2044;" horiz-adv-x="339" 
d="M-154 0h-264l907 1391h263z" />
    <glyph glyph-name="zero.sups" unicode="&#x2070;" horiz-adv-x="1077" 
d="M41 1305q0 85 28 159t85 134.5t156 95.5t229 35q109 0 197 -27.5t142.5 -70.5t91 -99.5t51.5 -110t15 -106.5q0 -203 -129.5 -315.5t-369.5 -112.5q-106 0 -191.5 24.5t-141 65t-93.5 95.5t-54 113t-16 120zM541 1133q53 0 53 176q0 98 -10.5 136t-44.5 38
q-33 0 -45.5 -40t-12.5 -132q0 -93 13 -135.5t47 -42.5z" />
    <glyph glyph-name="four.sups" unicode="&#x2074;" horiz-adv-x="1054" 
d="M63 1049v254l281 411h549v-420h123l-27 -245h-96v-150h-389v150h-441zM399 1294h105v23q0 62 8 176q-17 -29 -56.5 -99t-56.5 -100z" />
    <glyph glyph-name="five.sups" unicode="&#x2075;" horiz-adv-x="1026" 
d="M45 1159h389q12 -39 49 -39q23 0 35 18t12 42q0 65 -47 65q-9 0 -16.5 -2t-13 -6t-8.5 -6.5t-7.5 -9t-5.5 -7.5l-381 23q60 236 94 477h793l-49 -237h-414l-10 -66q63 25 172 25q158 0 251 -65.5t93 -186.5q0 -137 -111 -217t-350 -80q-123 0 -215.5 23t-146 63t-80.5 86
t-33 100z" />
    <glyph glyph-name="six.sups" unicode="&#x2076;" horiz-adv-x="1058" 
d="M41 1311q0 59 14.5 115.5t50 112.5t89 97.5t138 67t189.5 25.5q106 0 188.5 -19.5t130 -47.5t80.5 -67t45 -68t19 -61h-399q-3 12 -5.5 18t-7.5 13.5t-14.5 10.5t-23.5 3q-29 0 -44.5 -27t-13.5 -77q80 35 197 35q164 0 257 -72t93 -190q0 -131 -123.5 -212t-351.5 -81
q-132 0 -231.5 32t-159 90.5t-88.5 134t-29 167.5zM535 1108q29 0 47 20t18 58q0 80 -65 80q-66 0 -66 -80q0 -34 16 -56t50 -22z" />
    <glyph glyph-name="seven.sups" unicode="&#x2077;" horiz-adv-x="940" 
d="M51 1423v291h836v-278q-108 -94 -179 -244t-96 -293h-471q24 135 113 287.5t197 236.5h-400z" />
    <glyph glyph-name="eight.sups" unicode="&#x2078;" horiz-adv-x="1050" 
d="M39 1143q0 116 162 172q-72 34 -96.5 76.5t-24.5 99.5q0 105 114.5 171.5t344.5 66.5q109 0 196 -21t137.5 -55.5t76.5 -74.5t26 -81q0 -64 -34 -103.5t-101 -62.5q74 -22 123 -66.5t49 -115.5q0 -129 -127.5 -195.5t-364.5 -66.5q-234 0 -357.5 71t-123.5 185zM469 1159
q0 -65 68 -65q29 0 46 16t17 45q0 66 -68 66q-29 0 -46 -16t-17 -46zM461 1456q0 -57 63 -57q28 0 47 15t19 44q0 28 -18 44t-50 16q-26 0 -43.5 -17t-17.5 -45z" />
    <glyph glyph-name="nine.sups" unicode="&#x2079;" horiz-adv-x="1056" 
d="M508 887q-108 0 -194 23t-140 61t-84.5 84t-38.5 96h412q14 -41 55 -41q33 0 50.5 21.5t17.5 76.5q-42 -32 -168 -32q-75 0 -140 13t-120 40.5t-87 76.5t-32 115q0 45 15.5 87t51 83t88 71t133 48.5t179.5 18.5q105 0 191 -23.5t144.5 -63.5t98.5 -94t58 -113t18 -122
q0 -203 -123.5 -314.5t-384.5 -111.5zM535 1352q24 0 40.5 18.5t16.5 54.5q0 46 -17.5 64t-50.5 18q-26 0 -43.5 -19.5t-17.5 -57.5q0 -78 72 -78z" />
    <glyph glyph-name="parenleft.sups" unicode="&#x207d;" horiz-adv-x="663" 
d="M600 768h-317q-72 64 -131.5 199.5t-59.5 306.5q0 294 191 508h317q-38 -60 -59.5 -99.5t-48.5 -104t-39.5 -140t-12.5 -164.5q0 -169 42.5 -285t117.5 -221z" />
    <glyph glyph-name="parenright.sups" unicode="&#x207e;" horiz-adv-x="663" 
d="M66 1782h315q72 -63 131 -198.5t59 -307.5q0 -295 -190 -508h-315q37 60 58 99t47.5 104t39 140.5t12.5 164.5q0 168 -42 284.5t-115 221.5z" />
    <glyph glyph-name="n.sups" unicode="&#x207f;" horiz-adv-x="1042" 
d="M473 557h-403v471q0 76 -0.5 122.5t-1 65.5t-0.5 27h397q6 -36 6 -63q92 73 227 73q138 0 207.5 -78t69.5 -202v-416h-404v389q0 55 -47 55q-51 0 -51 -65v-379z" />
    <glyph glyph-name="zero.subs" unicode="&#x2080;" horiz-adv-x="1077" 
d="M41 74q0 85 28 159t85 134.5t156 95.5t229 35q109 0 197 -27.5t142.5 -70.5t91 -99.5t51.5 -110t15 -106.5q0 -203 -129.5 -315.5t-369.5 -112.5q-106 0 -191.5 24.5t-141 65t-93.5 95.5t-54 113t-16 120zM541 -98q53 0 53 176q0 98 -10.5 136t-44.5 38q-33 0 -45.5 -40
t-12.5 -132q0 -93 13 -135.5t47 -42.5z" />
    <glyph glyph-name="one.subs" unicode="&#x2081;" horiz-adv-x="716" 
d="M616 -330h-444v463q-54 4 -113 19v235q79 3 158.5 31t118.5 65h280v-813z" />
    <glyph glyph-name="two.subs" unicode="&#x2082;" horiz-adv-x="1003" 
d="M922 -330h-848v31q0 120 65.5 212.5t214.5 168.5q98 51 128 75.5t30 53.5q0 55 -47 55q-30 0 -42.5 -19.5t-12.5 -60.5h-361q4 51 19.5 94.5t49 85t83 70t126 45.5t173.5 17q222 0 332 -80.5t110 -208.5q0 -86 -46 -134.5t-146 -90.5q-71 -28 -105 -54h330z" />
    <glyph glyph-name="three.subs" unicode="&#x2083;" horiz-adv-x="1001" 
d="M31 -59h381q10 -54 63 -54q57 0 57 50q0 65 -88 65h-75v172h65q44 0 61 9t17 34q0 47 -51 47q-30 0 -43.5 -14.5t-18.5 -40.5h-360q3 30 12 58.5t28.5 63t54.5 63t82.5 53t120.5 38t163 13.5q209 0 322.5 -66t113.5 -176q0 -40 -16.5 -71t-43 -48t-51.5 -26.5t-51 -12.5
q25 -3 55.5 -13.5t64 -30t55.5 -55.5t22 -81q0 -37 -12 -71t-44.5 -69.5t-83 -62t-134.5 -43t-191 -16.5q-108 0 -193.5 20t-135.5 50.5t-84 70.5t-46.5 74.5t-15.5 69.5z" />
    <glyph glyph-name="four.subs" unicode="&#x2084;" horiz-adv-x="1054" 
d="M63 -182v254l281 411h549v-420h123l-27 -245h-96v-150h-389v150h-441zM399 63h105v23q0 62 8 176q-17 -29 -56.5 -99t-56.5 -100z" />
    <glyph glyph-name="five.subs" unicode="&#x2085;" horiz-adv-x="1026" 
d="M45 -72h389q12 -39 49 -39q23 0 35 18t12 42q0 65 -47 65q-9 0 -16.5 -1.5t-13 -6t-8 -6.5t-7.5 -8.5t-6 -7.5l-381 22q60 236 94 477h793l-49 -237h-414l-10 -66q63 25 172 25q158 0 251 -65.5t93 -186.5q0 -137 -111 -217t-350 -80q-123 0 -215.5 23t-146 63t-80.5 86
t-33 100z" />
    <glyph glyph-name="six.subs" unicode="&#x2086;" horiz-adv-x="1058" 
d="M41 80q0 59 14.5 115.5t50 112.5t89 97.5t138 67t189.5 25.5q106 0 188.5 -19.5t130 -47t80.5 -66.5t45 -68t19 -61h-399q-3 12 -5.5 18t-7.5 13.5t-14.5 10.5t-23.5 3q-29 0 -44.5 -27.5t-13.5 -77.5q80 35 197 35q164 0 257 -72t93 -190q0 -131 -123.5 -212t-351.5 -81
q-132 0 -231.5 32t-159 90.5t-88.5 134t-29 167.5zM535 -123q29 0 47 20t18 58q0 80 -65 80q-66 0 -66 -80q0 -34 16 -56t50 -22z" />
    <glyph glyph-name="seven.subs" unicode="&#x2087;" horiz-adv-x="940" 
d="M51 193v290h836v-278q-108 -94 -179 -244t-96 -293h-471q24 135 113.5 288t196.5 237h-400z" />
    <glyph glyph-name="eight.subs" unicode="&#x2088;" horiz-adv-x="1050" 
d="M39 -88q0 116 162 172q-72 34 -96.5 76.5t-24.5 99.5q0 105 114.5 171.5t344.5 66.5q109 0 196 -21t137.5 -55.5t76.5 -74.5t26 -81q0 -64 -34 -103.5t-101 -62.5q74 -22 123 -66.5t49 -115.5q0 -129 -127.5 -195.5t-364.5 -66.5q-234 0 -357.5 71t-123.5 185zM469 -72
q0 -65 68 -65q29 0 46 16t17 45q0 66 -68 66q-29 0 -46 -16t-17 -46zM461 225q0 -57 63 -57q28 0 47 15t19 44q0 28 -18 44t-50 16q-26 0 -43.5 -17.5t-17.5 -44.5z" />
    <glyph glyph-name="nine.subs" unicode="&#x2089;" horiz-adv-x="1056" 
d="M508 -344q-108 0 -194 23t-140 61t-84.5 84t-38.5 96h412q14 -41 55 -41q33 0 50.5 21.5t17.5 76.5q-42 -32 -168 -32q-75 0 -140 13t-120 40.5t-87 76.5t-32 115q0 45 15.5 87t51 83t88 71t133 48.5t179.5 18.5q105 0 191 -23.5t144.5 -63.5t98.5 -94t58 -113t18 -122
q0 -203 -123.5 -314.5t-384.5 -111.5zM535 121q24 0 40.5 19t16.5 55q0 46 -17.5 63.5t-50.5 17.5q-26 0 -43.5 -19.5t-17.5 -57.5q0 -78 72 -78z" />
    <glyph glyph-name="parenleft.subs" unicode="&#x208d;" horiz-adv-x="663" 
d="M600 -463h-317q-72 64 -131.5 199.5t-59.5 306.5q0 294 191 508h317q-38 -60 -59.5 -99.5t-48.5 -104t-39.5 -140t-12.5 -164.5q0 -169 42.5 -285t117.5 -221z" />
    <glyph glyph-name="parenright.subs" unicode="&#x208e;" horiz-adv-x="663" 
d="M66 551h315q72 -63 131 -198.5t59 -307.5q0 -295 -190 -508h-315q37 60 58 99t47.5 104t39 140.5t12.5 164.5q0 168 -42 284.5t-115 221.5z" />
    <glyph glyph-name="colonmonetary" unicode="&#x20a1;" horiz-adv-x="1626" 
d="M551 -190v208q-224 70 -344.5 248t-120.5 434q0 260 125.5 422.5t339.5 227.5v172h254v-129q20 2 61 2h19v127h252v-166q176 -53 292 -169.5t136 -279.5h-566q-11 60 -44 95.5t-89 35.5q-78 0 -117.5 -80.5t-39.5 -267.5q0 -356 155 -356q120 0 137 131h564
q-29 -186 -141.5 -297.5t-284.5 -157.5v-200h-254v165h-39h-43v-165h-252z" />
    <glyph glyph-name="franc" unicode="&#x20a3;" horiz-adv-x="1513" 
d="M29 172v225h149v975h1252v-366h-656v-150h617v-352h-617v-107h234v-225h-234v-172h-596v172h-149z" />
    <glyph glyph-name="lira" unicode="&#x20a4;" horiz-adv-x="1583" 
d="M1475 0h-1362v301q71 22 102.5 67t38.5 111h-170v178h164q-1 8 -4 27.5t-4 30.5h-156v178h143v8q0 76 19.5 145t66.5 135t117.5 114t181 77t248.5 29q127 0 231 -25.5t172.5 -67t116.5 -98t70 -115.5t25 -122h-496q-8 50 -28 75t-64 25q-76 0 -76 -123q0 -39 2 -57h258
v-178h-246v-29v-29h246v-178h-272q-18 -61 -49 -100h782z" />
    <glyph glyph-name="uni20A6" unicode="&#x20a6;" horiz-adv-x="1665" 
d="M639 0h-457v526h-125v164h125v58h-125v165h125v459h733l41 -459h66q-6 173 -6 289v170h452v-459h142v-165h-142v-58h142v-164h-142v-526h-706l-55 526h-70q2 -125 2 -348v-178zM991 526l8 -80h41q-4 46 -4 80h-45zM633 690h57l-6 58h-51v-58zM977 690h51q0 9 -1 29t-1 29
h-53zM625 913h41l-7 68h-38q4 -36 4 -68z" />
    <glyph glyph-name="peseta" unicode="&#x20a7;" horiz-adv-x="1665" 
d="M768 0h-557v748h-135v215h135v409h645q92 0 175.5 -14t159.5 -45.5t135 -78.5t100 -116t55 -155h110v-215h-112q-36 -198 -196 -302t-419 -104h-96v-342zM768 1083v-120h162q-18 120 -115 120h-47zM768 748v-117h45q92 0 115 117h-160z" />
    <glyph glyph-name="dong" unicode="&#x20ab;" horiz-adv-x="1593" 
d="M145 -377v258h1285v-258h-1285zM535 1087v240h319v88h573v-88h158v-240h-158v-784q0 -229 9 -303h-553q-6 9 -15 92q-51 -64 -122 -89.5t-168 -25.5q-150 0 -263 68.5t-171 184t-58 259.5q0 122 44.5 222.5t119.5 164.5t169.5 99t196.5 35q183 0 238 -47v124h-319z
M772 305q100 0 100 184q0 85 -13.5 130.5t-33.5 59t-55 13.5q-52 0 -75 -48t-23 -148q0 -191 100 -191z" />
    <glyph glyph-name="Euro" unicode="&#x20ac;" horiz-adv-x="1703" 
d="M61 504v164h121v22v33h-121v160h142q38 171 146 289.5t258 173.5t333 55q289 0 477 -125.5t221 -317.5h-563q-16 44 -45 69.5t-84 25.5q-60 0 -93 -36.5t-46 -133.5h428v-160h-440v-47v-8h440v-164h-432q14 -103 49.5 -150t99.5 -47q60 0 87.5 26.5t39.5 76.5h559
q-58 -218 -238.5 -329.5t-463.5 -111.5q-168 0 -300.5 40t-220 113t-140.5 168t-76 214h-138z" />
    <glyph glyph-name="uni20B1" unicode="&#x20b1;" horiz-adv-x="1628" 
d="M758 0h-557v686h-125v129h125v41h-125v127h125v389h596q126 0 231.5 -22t193.5 -67.5t149 -121.5t87 -178h111v-127h-90v-39v-2h90v-129h-105q-48 -198 -228 -298.5t-443 -100.5h-35v-287zM758 686v-108h39q47 0 75 23t41 85h-155zM758 1081v-98h153q-22 98 -104 98h-49z
M758 815h166v10v31h-166v-41z" />
    <glyph glyph-name="uni20B2" unicode="&#x20b2;" horiz-adv-x="1652" 
d="M674 -152v154q-293 35 -444.5 215.5t-151.5 484.5q0 290 159.5 460t436.5 210v119h375v-127q217 -40 350 -155.5t151 -266.5h-581q-8 65 -36 94t-85 29q-148 0 -148 -391q0 -346 146 -346q42 0 80 10v401h608v-647q-267 -70 -485 -90v-154h-375z" />
    <glyph glyph-name="uni20B4" unicode="&#x20b4;" horiz-adv-x="1619" 
d="M70 522v152h200q50 32 109 61h-270v154h604q75 34 100 61t25 56q0 77 -72 77q-79 0 -86 -90h-567q2 39 16 81t43.5 89.5t82 89t123.5 76t177 54.5t233 20q158 0 288.5 -35.5t213 -95t127.5 -133t45 -152.5q0 -59 -8 -98h94v-154h-200q-11 -9 -95 -61h265v-152h-564
q-102 -53 -140 -89t-38 -71q0 -34 18 -51.5t44 -17.5q42 0 65.5 23t30.5 77h582q-18 -108 -80.5 -190.5t-160.5 -133t-220.5 -75.5t-268.5 -25q-191 0 -342.5 48t-243 146t-91.5 232q0 74 20 127h-59z" />
    <glyph glyph-name="uni20B5" unicode="&#x20b5;" horiz-adv-x="1644" 
d="M676 -152v140q-281 45 -435.5 234t-154.5 478q0 149 45 269.5t126 202.5t186.5 133.5t232.5 72.5v113h375v-113q207 -37 346.5 -156t167.5 -309h-566q-6 57 -40.5 91t-92.5 34q-83 0 -120 -83t-37 -265q0 -356 155 -356q113 0 137 139h564q-27 -192 -157 -317t-357 -164
v-144h-375z" />
    <glyph glyph-name="uni20B9" unicode="&#x20b9;" horiz-adv-x="1499" 
d="M164 397v324h317q119 0 174 78h-491v227h477q-56 59 -164 59h-313v287h1323v-229h-273q37 -51 58 -117h215v-227h-201q-35 -223 -287 -326l400 -473h-752l-285 397h-198z" />
    <glyph glyph-name="uni20BA" unicode="&#x20ba;" horiz-adv-x="1574" 
d="M874 0h-622v410l-180 -66v207l180 65v111l-180 -65v208l180 66v436h622v-213l279 101v-209l-279 -101v-110l279 100v-207l-279 -100v-285q98 0 152 73.5t59 176.5h424q-3 -54 -11.5 -105t-28.5 -112.5t-50 -113.5t-80 -102.5t-113 -86t-153.5 -57t-198.5 -21.5z" />
    <glyph glyph-name="uni20BD" unicode="&#x20bd;" horiz-adv-x="1740" 
d="M51 229v207h193v111h-193v260h193v565h860q266 0 413.5 -110.5t147.5 -296.5q0 -110 -42 -192t-119 -131t-177.5 -73t-224.5 -24h-250v-109h387v-207h-387v-229h-608v229h-193zM852 1085v-278h68q72 0 108.5 38.5t36.5 102.5q0 137 -145 137h-68z" />
    <glyph glyph-name="uni2113" unicode="&#x2113;" horiz-adv-x="1499" 
d="M139 260v344q68 33 101 51v336q0 134 44.5 232.5t127.5 157.5t191.5 87.5t244.5 28.5q165 0 288 -47.5t195 -148t72 -244.5q0 -358 -557 -565v-54q0 -72 16 -103.5t56 -31.5q45 0 65 35.5t23 118.5h460q-6 -86 -26.5 -155.5t-66.5 -133t-116 -106.5t-179.5 -68
t-252.5 -25q-136 0 -239 24.5t-168.5 70t-104 99.5t-61.5 124q0 1 -1 3t-1 3q-51 -18 -111 -33zM846 1120v-209q46 46 65 92t19 109q0 72 -41 72q-20 0 -31.5 -17.5t-11.5 -46.5z" />
    <glyph glyph-name="uni2116" unicode="&#x2116;" horiz-adv-x="2484" 
d="M635 0h-512v1370h704q71 -326 140 -768h18q-22 295 -22 647v121h518v-1370h-682q-37 171 -101 502.5t-69 355.5h-17q23 -263 23 -729v-129zM1610 168v225h768v-225h-768zM1542 887q0 202 125 309t328 107q90 0 168 -25.5t139 -75.5t96 -131t35 -184q0 -188 -115 -300
t-325 -112q-98 0 -179.5 25.5t-142.5 75t-95 129t-34 182.5zM1993 741q38 0 54.5 34t16.5 112q0 81 -17.5 113t-53.5 32q-72 0 -72 -145q0 -146 72 -146z" />
    <glyph glyph-name="uni2117" unicode="&#x2117;" horiz-adv-x="1734" 
d="M102 723q0 220 103 392t277 263.5t388 91.5q157 0 296.5 -53.5t242.5 -149.5t163 -237t60 -307q0 -168 -60 -310.5t-163 -239t-242 -150.5t-297 -54q-161 0 -301 52t-243.5 147t-163.5 238.5t-60 316.5zM866 143q162 0 291.5 71.5t204 204t74.5 302.5q0 172 -76 304.5
t-205 202.5t-289 70q-249 0 -409 -160.5t-160 -412.5q0 -264 158.5 -423t410.5 -159zM858 365h-301v725h397q81 0 152.5 -28.5t120.5 -90.5t49 -146q0 -122 -84.5 -192t-216.5 -70h-117v-198zM856 905v-162h45q80 0 80 80q0 82 -76 82h-49z" />
    <glyph glyph-name="uni2120" unicode="&#x2120;" horiz-adv-x="1656" 
d="M684 1272h-242q-5 35 -51 35q-12 0 -22.5 -5.5t-10.5 -13.5q0 -21 74 -31q91 -13 149.5 -32.5t85 -45t34.5 -49t8 -57.5q0 -88 -80 -140t-254 -52q-134 0 -216 49.5t-91 140.5h256q12 -29 57 -29q39 0 39 19t-78 29q-84 11 -138 29.5t-79 44.5t-33 49.5t-8 56.5
q0 86 78 136t221 50q141 0 219.5 -51.5t81.5 -132.5zM756 899v543h395l41 -240h2l45 240h367v-543h-254l4 152q2 58 4.5 98t6.5 76.5t5 42.5h-14l-82 -361h-201l-76 361h-12q1 -13 2.5 -24t2.5 -19t3 -40t4 -89l2 -197h-245z" />
    <glyph glyph-name="trademark" unicode="&#x2122;" horiz-adv-x="1593" 
d="M197 899v342h-152v201h588v-201h-160v-342h-276zM692 899v543h395l41 -240h2l46 240h366v-543h-254l4 152q2 58 5 99t7 75t5 43h-15l-82 -361h-200l-76 361h-12q1 -13 2.5 -24t2.5 -19t3 -40t4 -89l2 -197h-246z" />
    <glyph glyph-name="uni2126" unicode="&#x2126;" horiz-adv-x="1814" 
d="M47 0v381h291q-264 165 -264 467q0 132 57 246t161 198.5t262 132.5t349 48q129 0 240.5 -20.5t195.5 -55.5t152 -84t113.5 -104.5t76.5 -118t44.5 -123.5t13.5 -123q0 -89 -26 -175t-88.5 -166t-151.5 -122h294v-381h-821v414q155 67 158 366q1 176 -49 253t-148 77
q-194 0 -194 -322q0 -88 15 -158t40 -112.5t50 -67.5t52 -36v-414h-823z" />
    <glyph glyph-name="estimated" unicode="&#x212e;" horiz-adv-x="1957" 
d="M612 602v-227q0 -25 23 -45q66 -60 144.5 -94.5t205.5 -34.5q100 0 166 18t104 48.5t80 86.5h426q-128 -194 -332 -286.5t-450 -92.5q-196 0 -364 56t-282 151.5t-178.5 225t-64.5 274.5q0 146 64.5 276t179 225t282 150.5t363.5 55.5q198 0 365.5 -55.5t281.5 -150.5
t178 -224.5t64 -276.5v-72h-1241q-15 0 -15 -8zM627 840h708q15 0 15 10v162q0 22 -25 47q-107 104 -340 104q-117 0 -211 -33.5t-137 -76.5q-25 -25 -25 -49v-154q0 -10 15 -10z" />
    <glyph glyph-name="onethird" unicode="&#x2153;" horiz-adv-x="2127" 
d="M618 0h-264l908 1391h262zM1143 268h381q10 -53 63 -53q58 0 58 49q0 66 -89 66h-75v172h65q44 0 61 9t17 34q0 47 -51 47q-30 0 -43.5 -14.5t-18.5 -40.5h-360q3 37 15.5 71.5t44.5 75.5t80 71t131 50t190 20q209 0 322.5 -65.5t113.5 -175.5q0 -40 -16.5 -71t-43 -48
t-51.5 -26.5t-51 -12.5q25 -3 55.5 -13.5t64 -30t55.5 -55.5t22 -81q0 -37 -12 -71t-44.5 -69.5t-83 -62t-134.5 -43t-191 -16.5q-108 0 -193.5 20t-135.5 50t-84 70t-46.5 74.5t-15.5 69.5zM629 559h-445v463q-58 4 -112 18v236q79 3 158 31t118 65h281v-813z" />
    <glyph glyph-name="twothirds" unicode="&#x2154;" horiz-adv-x="2486" 
d="M928 0h-264l907 1391h262zM1464 268h381q10 -53 64 -53q57 0 57 49q0 66 -88 66h-76v172h66q44 0 61 9t17 34q0 47 -52 47q-30 0 -43 -14t-18 -41h-360q3 37 15 71.5t44 75.5t80 71t131 50t190 20q209 0 323 -65.5t114 -175.5q0 -40 -16.5 -71t-43 -48t-51.5 -26.5
t-51 -12.5q25 -3 55 -13.5t63.5 -30t55.5 -55.5t22 -81q0 -37 -12 -71t-44.5 -69.5t-83 -62t-134.5 -43t-191 -16.5q-108 0 -193.5 20t-135.5 50t-84 70t-46.5 74.5t-15.5 69.5zM940 559h-848v31q0 120 66 212.5t215 168.5q98 51 127.5 75.5t29.5 53.5q0 55 -47 55
q-30 0 -42.5 -19.5t-12.5 -60.5h-360q27 311 450 311q223 0 333 -80.5t110 -207.5q0 -86 -46.5 -135t-146.5 -91q-71 -29 -104 -53h329z" />
    <glyph glyph-name="oneeighth" unicode="&#x215b;" horiz-adv-x="2207" 
d="M627 0h-265l908 1391h262zM1169 240q0 116 162 172q-72 34 -96.5 76.5t-24.5 99.5q0 105 114.5 171t344.5 66q109 0 196 -21t137.5 -55t76.5 -74t26 -81q0 -64 -34 -103.5t-101 -62.5q74 -22 123 -66.5t49 -115.5q0 -129 -127 -195.5t-364 -66.5q-234 0 -358 71t-124 185
zM1599 256q0 -66 68 -66q29 0 46.5 16.5t17.5 45.5q0 65 -68 65q-29 0 -46.5 -15.5t-17.5 -45.5zM1591 553q0 -28 17.5 -42.5t46.5 -14.5q28 0 46.5 15t18.5 44q0 28 -17.5 43.5t-49.5 15.5q-27 0 -44.5 -17t-17.5 -44zM616 559h-444v463q-59 4 -113 18v236q79 3 158.5 31
t118.5 65h280v-813z" />
    <glyph glyph-name="threeeighths" unicode="&#x215c;" horiz-adv-x="2416" 
d="M885 0h-264l907 1391h262zM1395 229q0 117 161 172q-71 34 -95.5 76.5t-24.5 100.5q0 105 114 171t344 66q109 0 196 -21t138 -55t77 -74t26 -81q0 -120 -136 -166q74 -22 123 -66.5t49 -115.5q0 -129 -127 -196t-364 -67q-234 0 -357.5 71t-123.5 185zM1825 246
q0 -66 67 -66q29 0 46.5 16.5t17.5 45.5q0 65 -68 65q-29 0 -46 -15.5t-17 -45.5zM1817 543q0 -28 17 -43t46 -15q28 0 47 15.5t19 44.5q0 28 -18 43.5t-50 15.5q-27 0 -44 -17t-17 -44zM51 829h381q10 -53 64 -53q57 0 57 49q0 66 -88 66h-76v172h66q44 0 60.5 9t16.5 34
q0 47 -51 47q-30 0 -43 -14t-18 -41h-361q3 37 15.5 71.5t44.5 75.5t80 71t131 50t190 20q209 0 322.5 -65.5t113.5 -175.5q0 -40 -16.5 -71t-42.5 -48t-51 -26.5t-51 -12.5q25 -3 55 -13.5t63.5 -30t55.5 -55.5t22 -81q0 -37 -12 -71t-44.5 -69.5t-83 -62t-134.5 -43
t-191 -16.5q-108 0 -193.5 20t-135.5 50t-84 70t-46.5 74.5t-15.5 69.5z" />
    </font>
</defs>
</svg>
