<?xml version="1.0" standalone="no"?>
<!DOCTYPE svg PUBLIC "-//W3C//DTD SVG 1.1//EN" "http://www.w3.org/Graphics/SVG/1.1/DTD/svg11.dtd" >
<svg xmlns="http://www.w3.org/2000/svg" xmlns:xlink="http://www.w3.org/1999/xlink" version="1.1">
<metadata>
Created by FontForge 20170731 at Wed Dec 29 09:54:41 2021
 By Aleksey,,,
(c) 2014 Adobe Systems Incorporated. All Rights Reserved.
</metadata>
<defs>
<font id="AcuminProWide-Semibold" horiz-adv-x="819" >
  <font-face 
    font-family="Acumin Pro Wide"
    font-weight="600"
    font-stretch="expanded"
    units-per-em="2048"
    panose-1="2 11 7 5 2 2 2 2 2 4"
    ascent="1505"
    descent="-543"
    x-height="1051"
    cap-height="1446"
    bbox="-438 -541 2724 2206"
    underline-thickness="102"
    underline-position="-307"
    unicode-range="U+000D-FB02"
  />
<missing-glyph horiz-adv-x="1024" 
d="M1024 0h-1024v1434h1024v-1434zM512 625l-348 -523h696zM164 1331l348 -522l348 522h-696zM102 1239v-1044l349 522zM573 717l349 -522v1044z" />
    <glyph glyph-name="f_f" unicode="ff" horiz-adv-x="1427" 
d="M217 0v838h-184v213h184v96q0 189 94.5 293t290.5 104q84 0 123 -10v-213q-30 6 -70 6q-79 0 -113 -42.5t-34 -137.5v-96h391v96q0 190 94 293.5t293 103.5q82 0 123 -10v-213q-35 6 -72 6q-79 0 -113 -42.5t-34 -137.5v-96h227v-213h-227v-838h-291v838h-391v-838h-291z
" />
    <glyph glyph-name=".notdef" horiz-adv-x="1024" 
d="M1024 0h-1024v1434h1024v-1434zM512 625l-348 -523h696zM164 1331l348 -522l348 522h-696zM102 1239v-1044l349 522zM573 717l349 -522v1044z" />
    <glyph glyph-name=".null" horiz-adv-x="0" 
 />
    <glyph glyph-name="nonmarkingreturn" horiz-adv-x="682" 
 />
    <glyph glyph-name="NULL" horiz-adv-x="0" 
 />
    <glyph glyph-name="NULL" horiz-adv-x="0" 
 />
    <glyph glyph-name="CR" unicode="&#xd;" horiz-adv-x="583" 
 />
    <glyph glyph-name="space" unicode=" " horiz-adv-x="583" 
 />
    <glyph glyph-name="exclam" unicode="!" horiz-adv-x="727" 
d="M545 0h-281v346h281v-346zM532 526h-256l-28 682v238h313v-240z" />
    <glyph glyph-name="quotedbl" unicode="&#x22;" horiz-adv-x="888" 
d="M334 881h-211l-35 452v197h274v-199zM772 881h-211l-35 452v197h275v-199z" />
    <glyph glyph-name="numbersign" unicode="#" horiz-adv-x="1503" 
d="M172 0l107 350h-166v219h231l90 299h-198v215h264l96 322h205l-96 -322h311l98 322h203l-96 -322h151v-215h-215l-90 -299h184v-219h-250l-104 -350h-209l107 350h-312l-106 -350h-205zM549 569h311l92 299h-313z" />
    <glyph glyph-name="dollar" unicode="$" horiz-adv-x="1318" 
d="M791 -199h-250v183q-214 27 -340 142.5t-142 274.5h293q58 -202 332 -202q121 0 183.5 44.5t62.5 116.5q0 36 -12 62t-46 53t-103 49.5t-177 44.5q-266 56 -380 159t-114 257q0 70 24.5 134t73.5 119.5t131.5 94t190.5 51.5v154h250v-154q111 -15 196.5 -55t134.5 -94.5
t74.5 -112.5t28.5 -118h-291q-11 35 -25 60t-44.5 53.5t-86 43.5t-134.5 15q-124 0 -175 -43.5t-51 -102.5q0 -46 24.5 -77.5t93 -59t192.5 -51.5q130 -26 226.5 -62.5t154.5 -77t93 -92.5t47.5 -102t12.5 -111q0 -159 -113 -271t-335 -140v-185z" />
    <glyph glyph-name="percent" unicode="%" horiz-adv-x="1945" 
d="M1489 -27q-179 0 -278 108t-99 290q0 168 100.5 280.5t280.5 112.5q176 0 279.5 -103.5t103.5 -289.5q0 -174 -101.5 -286t-285.5 -112zM1495 152q81 0 124.5 59t43.5 160q0 215 -172 215q-75 0 -118.5 -57t-43.5 -156q0 -102 43 -161.5t123 -59.5zM446 614
q-178 0 -277 108t-99 290q0 168 100.5 280.5t280.5 112.5q176 0 279.5 -103.5t103.5 -289.5q0 -174 -102 -286t-286 -112zM453 793q81 0 124.5 59t43.5 160q0 215 -172 215q-75 0 -118.5 -57t-43.5 -156q0 -102 43 -161.5t123 -59.5zM614 0h-208l909 1376h211z" />
    <glyph glyph-name="ampersand" unicode="&#x26;" horiz-adv-x="1796" 
d="M825 772l250 -215l297 377h328l-445 -533l465 -401h-411l-228 195q-68 -73 -129.5 -118.5t-151.5 -75.5t-200 -30q-124 0 -221.5 37t-154.5 98.5t-86 133.5t-29 149q0 123 67 214t232 185q-146 137 -146 310q0 74 29 141.5t83 121t138.5 85t187.5 31.5q107 0 191.5 -31.5
t133.5 -83.5t74 -113t25 -127q0 -115 -71 -194t-228 -156zM903 348l-350 303q-158 -85 -158 -229q0 -91 64 -153t168 -62q83 0 142.5 30t133.5 111zM678 905q98 48 142 100.5t44 114.5q0 67 -41 115.5t-125 48.5q-75 0 -117 -48t-42 -116q0 -108 139 -215z" />
    <glyph glyph-name="quotesingle" unicode="'" horiz-adv-x="462" 
d="M348 881h-227l-33 405v244h289v-244z" />
    <glyph glyph-name="parenleft" unicode="(" horiz-adv-x="811" 
d="M758 -334h-281q-155 163 -255.5 413t-100.5 533q0 189 55 373t131.5 314t169.5 231h281q-377 -410 -377 -920q0 -270 95.5 -502t281.5 -442z" />
    <glyph glyph-name="parenright" unicode=")" horiz-adv-x="811" 
d="M53 1530h283q154 -166 255 -416t101 -530q0 -143 -31 -284t-83.5 -257.5t-113 -210t-128.5 -166.5h-283q377 410 377 920q0 270 -95 501.5t-282 442.5z" />
    <glyph glyph-name="asterisk" unicode="*" horiz-adv-x="987" 
d="M152 645l-115 193l340 143l-340 147l110 195l283 -221l-47 346h221l-47 -348l279 223l114 -195l-329 -145l329 -145l-114 -193l-269 221l37 -346h-221l45 348z" />
    <glyph glyph-name="plus" unicode="+" horiz-adv-x="1691" 
d="M723 0v539h-516v239h516v512h248v-512h512v-239h-512v-539h-248z" />
    <glyph glyph-name="comma" unicode="," horiz-adv-x="598" 
d="M195 399h297q-23 -170 -84.5 -350.5t-135.5 -296.5h-245q72 172 108.5 325t59.5 322z" />
    <glyph glyph-name="hyphen" unicode="-" horiz-adv-x="890" 
d="M109 401v244h673v-244h-673z" />
    <glyph glyph-name="period" unicode="." horiz-adv-x="563" 
d="M446 0h-329v399h329v-399z" />
    <glyph glyph-name="slash" unicode="/" horiz-adv-x="1101" 
d="M346 -104h-258l666 1550h260z" />
    <glyph glyph-name="zero" unicode="0" horiz-adv-x="1366" 
d="M682 -29q-142 0 -254.5 55.5t-183 153t-107.5 227t-37 281.5q0 120 22.5 226.5t70 196.5t116 155.5t165 102t212.5 36.5q112 0 206.5 -36.5t162.5 -101t115.5 -152.5t70.5 -192.5t23 -220.5q0 -126 -20.5 -234t-65.5 -200.5t-112 -157.5t-165 -102t-219 -37zM684 201
q67 0 118 27.5t81.5 73t50 112t26.5 135t7 151.5q0 71 -7 135t-26.5 128.5t-50 110.5t-80.5 75t-115 29q-79 0 -137 -37.5t-91 -106.5t-48 -153.5t-15 -188.5q0 -74 8 -140.5t28.5 -132t52 -112.5t82.5 -76.5t116 -29.5z" />
    <glyph glyph-name="one" unicode="1" horiz-adv-x="833" 
d="M649 0h-284v1040q-51 -29 -142.5 -55t-142.5 -29v213q116 28 208.5 86.5t147.5 120.5h213v-1376z" />
    <glyph glyph-name="two" unicode="2" horiz-adv-x="1255" 
d="M1167 0h-1077v12q0 194 107.5 349.5t361.5 314.5q69 42 105 65t76.5 52t57.5 47t34 42.5t21.5 48t4.5 54.5q0 84 -54.5 139.5t-174.5 55.5q-212 0 -250 -236h-281q15 207 159.5 334t381.5 127q234 0 371 -117.5t137 -300.5q0 -81 -18.5 -141t-66.5 -115t-113.5 -102
t-176.5 -111q-141 -83 -223.5 -152t-110.5 -135h766z" />
    <glyph glyph-name="three" unicode="3" horiz-adv-x="1314" 
d="M84 393h289q48 -194 293 -194q118 0 187 54t69 161q0 204 -271 204h-112v228h86q132 0 186.5 39t54.5 121q0 78 -55 127t-168 49q-202 0 -242 -170h-284q8 54 28.5 105.5t62 105t99.5 93t147 64.5t197 25q248 0 379 -109.5t131 -273.5q0 -64 -20.5 -116t-53 -83
t-62.5 -48.5t-60 -26.5v-5q43 -14 82 -36t80.5 -60.5t66.5 -101.5t25 -142q0 -193 -148.5 -312.5t-421.5 -119.5q-134 0 -238.5 34t-171 94t-104.5 133.5t-51 160.5z" />
    <glyph glyph-name="four" unicode="4" horiz-adv-x="1323" 
d="M86 317v240l653 819h328v-825h197l-27 -234h-170v-317h-272v317h-709zM375 551h420v256q0 199 6 307q-87 -131 -426 -563z" />
    <glyph glyph-name="five" unicode="5" horiz-adv-x="1335" 
d="M115 383h282q55 -184 283 -184q127 0 198.5 69.5t71.5 192.5q0 112 -66.5 184t-207.5 72q-63 0 -112 -12.5t-82 -36.5t-53.5 -49.5t-37.5 -59.5l-252 29q30 149 71 405t54 383h922l-33 -231h-657q-30 -195 -47 -295q107 88 307 88q213 0 347 -125t134 -336
q0 -231 -147.5 -368.5t-417.5 -137.5q-242 0 -386.5 116t-170.5 296z" />
    <glyph glyph-name="six" unicode="6" horiz-adv-x="1325" 
d="M682 -29q-274 0 -428 180t-154 523q0 113 18.5 214.5t62.5 197.5t111 165.5t171 111.5t235 42q116 0 208.5 -30.5t150.5 -82.5t91.5 -112.5t43.5 -128.5h-281q-51 135 -227 135q-75 0 -131 -30.5t-89.5 -87t-50.5 -128t-20 -160.5q129 158 375 158q209 0 342 -124
t133 -327q0 -121 -44 -220t-120 -163t-178 -98.5t-219 -34.5zM684 199q122 0 194 71.5t72 194.5q0 115 -66.5 183.5t-201.5 68.5q-129 0 -200.5 -69t-71.5 -167q0 -31 7.5 -65t27 -73.5t49 -71t79 -52t111.5 -20.5z" />
    <glyph glyph-name="seven" unicode="7" horiz-adv-x="1138" 
d="M551 0h-315q54 299 214.5 621.5t335.5 523.5h-753v231h1054v-223q-183 -234 -325 -536t-211 -617z" />
    <glyph glyph-name="eight" unicode="8" horiz-adv-x="1329" 
d="M92 391q0 124 68 207t178 129q-84 44 -132 120t-48 173q0 173 139 279t375 106q139 0 251 -43t181.5 -132.5t69.5 -213.5q0 -101 -53 -172.5t-136 -104.5q116 -39 183 -129t67 -217q0 -84 -32 -154.5t-87 -119t-129 -82.5t-157.5 -50t-172.5 -16q-157 0 -283 46.5
t-204 143.5t-78 230zM381 403q0 -107 83 -164t200 -57q55 0 103 12t88.5 36t64.5 67t24 100q0 99 -67 160t-213 61q-150 0 -216.5 -58.5t-66.5 -156.5zM440 1018q0 -81 55.5 -132.5t176.5 -51.5q219 0 219 182q0 85 -62.5 134.5t-162.5 49.5q-98 0 -162 -46.5t-64 -135.5z
" />
    <glyph glyph-name="nine" unicode="9" horiz-adv-x="1316" 
d="M106 336h289q56 -146 236 -146q69 0 121.5 28t82.5 69.5t50 103t28 115t11 119.5q-114 -140 -344 -140q-227 0 -358.5 122.5t-131.5 314.5q0 211 147 347t402 136q274 0 424.5 -171t150.5 -495q0 -120 -15.5 -224.5t-56.5 -206.5t-105 -174t-168.5 -116.5t-239.5 -44.5
q-127 0 -226 34t-158 90t-92 115t-47 124zM385 938q0 -105 67.5 -169t192.5 -64q118 0 186 58t68 155q0 46 -13.5 89t-42 83.5t-82.5 65t-126 24.5q-123 0 -186.5 -69.5t-63.5 -172.5z" />
    <glyph glyph-name="colon" unicode=":" horiz-adv-x="643" 
d="M473 0h-303v367h303v-367zM473 688h-303v367h303v-367z" />
    <glyph glyph-name="semicolon" unicode=";" horiz-adv-x="706" 
d="M213 367h311q-20 -165 -77.5 -340.5t-129.5 -292.5h-260q132 314 156 633zM537 688h-332v367h332v-367z" />
    <glyph glyph-name="less" unicode="&#x3c;" horiz-adv-x="1595" 
d="M481 657l908 -397v-258l-1182 537v233l1182 518v-258z" />
    <glyph glyph-name="equal" unicode="=" horiz-adv-x="1691" 
d="M207 268v238h1276v-238h-1276zM207 864v238h1276v-238h-1276z" />
    <glyph glyph-name="greater" unicode="&#x3e;" horiz-adv-x="1595" 
d="M207 2v258l907 377l-907 397v256l1182 -534v-236z" />
    <glyph glyph-name="question" unicode="?" horiz-adv-x="1277" 
d="M791 0h-302v319h302v-319zM791 451h-302v36q0 100 49.5 181.5t188.5 183.5q97 69 131.5 114.5t34.5 108.5q0 80 -59.5 134.5t-178.5 54.5q-108 0 -174.5 -55t-83.5 -154h-288q3 37 12 73t28.5 79t47 80.5t71.5 73.5t99 61.5t132.5 41t168.5 15.5q110 0 200.5 -25t149 -65
t98.5 -92.5t57 -106t17 -107.5q0 -117 -47 -199t-187 -182q-92 -66 -128.5 -117.5t-36.5 -115.5v-18z" />
    <glyph glyph-name="at" unicode="@" horiz-adv-x="2152" 
d="M1317 887l29 125h237l-119 -586q-19 -101 3 -142.5t81 -41.5q124 0 196.5 125.5t72.5 328.5q0 269 -185 432.5t-495 163.5q-231 0 -405.5 -102t-267.5 -285t-93 -420q0 -221 93 -383.5t255 -245.5t373 -83q310 0 528 112l49 -174q-239 -143 -604 -143q-193 0 -363 63.5
t-297.5 179.5t-201.5 292.5t-74 390.5q0 206 73.5 388t205 316t324 211.5t419.5 77.5q186 0 349.5 -56.5t284 -157.5t190 -249.5t69.5 -323.5q0 -302 -159 -478.5t-402 -176.5q-103 0 -166.5 42t-73.5 118q-60 -81 -132 -120.5t-183 -39.5q-145 0 -233.5 103.5t-88.5 283.5
q0 168 63.5 307t171 217t234.5 78q192 0 242 -147zM1004 238q89 0 151.5 80.5t87.5 222.5q57 303 -131 303q-78 0 -136.5 -63.5t-86 -155t-27.5 -191.5q0 -97 37 -146.5t105 -49.5z" />
    <glyph glyph-name="A" unicode="A" horiz-adv-x="1615" 
d="M6 0l596 1446h383l625 -1446h-330l-154 365h-661l-146 -365h-313zM784 1245h-2q-59 -195 -235 -635h491q-216 521 -254 635z" />
    <glyph glyph-name="B" unicode="B" horiz-adv-x="1591" 
d="M956 0h-761v1446h766q241 0 365 -101.5t124 -267.5q0 -120 -64 -198t-159 -111q55 -16 101.5 -43t87 -67.5t64 -99.5t23.5 -130q0 -204 -147.5 -316t-399.5 -112zM494 641v-412h415q275 0 275 209q0 99 -71.5 151t-205.5 52h-413zM494 1214v-344h401q240 0 240 170
q0 174 -236 174h-405z" />
    <glyph glyph-name="C" unicode="C" horiz-adv-x="1660" 
d="M1573 997h-307q-95 240 -392 240q-211 0 -330.5 -141t-119.5 -363q0 -109 29 -203.5t84 -167t142.5 -114t197.5 -41.5t187.5 30.5t121.5 81t78 130.5h307q-23 -79 -59.5 -147t-95.5 -130.5t-135 -106.5t-183.5 -70t-235.5 -26q-147 0 -271.5 39.5t-213.5 109.5t-151 165
t-92 206t-30 232q0 152 52 287.5t148.5 240.5t245 166.5t329.5 61.5q126 0 234 -27t185 -72.5t135 -108t91.5 -130.5t48.5 -142z" />
    <glyph glyph-name="D" unicode="D" horiz-adv-x="1681" 
d="M821 0h-626v1446h632q176 0 319.5 -54.5t236.5 -149.5t143.5 -221.5t50.5 -272.5q0 -170 -59 -311.5t-161.5 -236.5t-240.5 -147.5t-295 -52.5zM498 1208v-968h280q234 0 355.5 130t121.5 369q0 219 -121.5 343.5t-347.5 125.5h-288z" />
    <glyph glyph-name="E" unicode="E" horiz-adv-x="1486" 
d="M195 0v1446h1173v-246h-870v-323h825v-246h-825v-385h915l-35 -246h-1183z" />
    <glyph glyph-name="F" unicode="F" horiz-adv-x="1429" 
d="M498 0h-303v1446h1161v-244h-858v-375h800v-247h-800v-580z" />
    <glyph glyph-name="G" unicode="G" horiz-adv-x="1732" 
d="M897 578v239h684v-817h-223q-18 73 -21 170q-76 -101 -190.5 -151t-310.5 -50q-227 0 -394.5 97.5t-252.5 265.5t-85 385q0 160 53 298t151 241t248 162t335 59q132 0 242.5 -27t186.5 -71.5t133 -104.5t87.5 -121.5t44.5 -128.5h-307q-12 31 -30 58.5t-50 58t-72.5 52
t-101.5 36t-133 14.5q-116 0 -206.5 -39.5t-146.5 -109.5t-85 -162t-29 -201q0 -154 50.5 -270.5t158 -186t260.5 -69.5q192 0 292.5 91.5t100.5 252.5v29h-389z" />
    <glyph glyph-name="H" unicode="H" horiz-adv-x="1726" 
d="M498 0h-303v1446h303v-557h731v557h303v-1446h-303v645h-731v-645z" />
    <glyph glyph-name="I" unicode="I" horiz-adv-x="690" 
d="M195 0v1446h303v-1446h-303z" />
    <glyph glyph-name="J" unicode="J" horiz-adv-x="942" 
d="M57 -14v241q75 -10 162 -10q125 0 183.5 68t58.5 209v952h305v-936q0 -286 -122.5 -413.5t-381.5 -127.5q-101 0 -205 17z" />
    <glyph glyph-name="K" unicode="K" horiz-adv-x="1581" 
d="M498 0h-303v1446h303v-658q693 618 737 658h377l-699 -621l738 -825h-381l-576 659l-196 -161v-498z" />
    <glyph glyph-name="L" unicode="L" horiz-adv-x="1357" 
d="M496 246h831l-41 -246h-1091v1446h301v-1200z" />
    <glyph glyph-name="M" unicode="M" horiz-adv-x="2029" 
d="M195 0v1446h436q20 -56 94.5 -261t100.5 -279t74 -210.5t72 -212.5t36 -127h2q28 95 83.5 251.5t158 438.5t145.5 400h440v-1446h-293v578q0 513 8 671h-2q-21 -72 -52 -169.5t-79 -236.5t-84.5 -244t-105.5 -300.5t-105 -298.5h-266q-69 217 -219 666.5t-190 582.5h-3
q23 -386 23 -702v-547h-274z" />
    <glyph glyph-name="N" unicode="N" horiz-adv-x="1746" 
d="M473 0h-278v1446h358q147 -218 326.5 -475t271.5 -392.5t131 -207.5h4q-12 141 -12 657v418h280v-1446h-337q-656 972 -752 1145h-4q12 -182 12 -643v-502z" />
    <glyph glyph-name="O" unicode="O" horiz-adv-x="1757" 
d="M104 727q0 150 55 285.5t153.5 239t247 164.5t323.5 61q179 0 327 -61t244 -165t148.5 -238.5t52.5 -283.5q0 -153 -51.5 -289t-147.5 -241.5t-247.5 -167.5t-338.5 -62q-141 0 -263.5 38t-214 107.5t-157 163.5t-98.5 208.5t-33 240.5zM887 211q112 0 200 43
t140.5 116.5t79 163.5t26.5 191q0 104 -28.5 194.5t-83.5 162.5t-145 113.5t-204 41.5q-87 0 -161 -27.5t-126 -75t-89 -111.5t-54.5 -138t-17.5 -154q0 -108 29.5 -201.5t86 -165t146 -112.5t201.5 -41z" />
    <glyph glyph-name="P" unicode="P" horiz-adv-x="1542" 
d="M498 0h-303v1446h725q256 0 402 -120.5t146 -324.5q0 -219 -145.5 -340.5t-404.5 -121.5h-420v-539zM498 1208v-430h393q131 0 201.5 50.5t70.5 168.5q0 101 -67 156t-205 55h-393z" />
    <glyph glyph-name="Q" unicode="Q" horiz-adv-x="1757" 
d="M1395 141l352 -245l-164 -199l-446 309q-118 -37 -267 -37q-141 0 -263.5 38t-214 107.5t-157 163.5t-98.5 208.5t-33 240.5q0 150 55 285.5t153.5 239t247 164.5t323.5 61q179 0 327 -61t244 -165t148.5 -238.5t52.5 -283.5q0 -176 -66.5 -330t-193.5 -258zM887 211
q112 0 200 43t140.5 116.5t79 163.5t26.5 191q0 104 -28.5 194.5t-83.5 162.5t-145 113.5t-204 41.5q-87 0 -161 -27.5t-126 -75t-89 -111.5t-54.5 -138t-17.5 -154q0 -108 29.5 -201.5t86 -165t146 -112.5t201.5 -41z" />
    <glyph glyph-name="R" unicode="R" horiz-adv-x="1579" 
d="M195 0v1446h757q241 0 377.5 -108.5t136.5 -297.5q0 -133 -68 -220.5t-188 -123.5q29 -10 51.5 -20.5t56.5 -37t56 -61t39 -93.5t17 -132v-67v-34.5v-36.5v-34t0.5 -35.5t1.5 -32t2 -33t2.5 -28t4 -28t5.5 -23.5h-311q-16 43 -20.5 110t-4.5 191v47q0 129 -61 180.5
t-226 51.5h-327v-580h-301zM496 1214v-403h385q140 0 207 51t67 154q0 198 -268 198h-391z" />
    <glyph glyph-name="S" unicode="S" horiz-adv-x="1515" 
d="M1352 1063h-303q-9 29 -19.5 50.5t-35 49t-58 44.5t-91 29.5t-132.5 12.5q-136 0 -209.5 -43t-73.5 -125q0 -51 26.5 -83.5t103 -61t220.5 -53.5q158 -28 272.5 -66t182.5 -79.5t107 -96t52 -106t13 -119.5q0 -94 -38.5 -173t-116 -140.5t-207 -96.5t-300.5 -35
q-160 0 -285 34.5t-206.5 97.5t-129.5 144.5t-65 182.5h306q36 -112 131.5 -172.5t275.5 -60.5q324 0 324 188q0 60 -31 100t-119 74.5t-248 61.5q-141 24 -244.5 58t-166.5 72.5t-101 88t-51.5 99t-13.5 112.5q0 135 81 233t215 145.5t304 47.5q140 0 250.5 -28t178 -71
t113.5 -100.5t65 -109.5t24 -105z" />
    <glyph glyph-name="T" unicode="T" horiz-adv-x="1382" 
d="M844 0h-303v1202h-525v244h1350v-244h-522v-1202z" />
    <glyph glyph-name="U" unicode="U" horiz-adv-x="1685" 
d="M178 610v836h303v-819q0 -416 373 -416q84 0 145.5 20t109 66.5t71.5 129t24 200.5v819h303v-825q0 -330 -171 -491t-492 -161q-317 0 -491.5 157t-174.5 484z" />
    <glyph glyph-name="V" unicode="V" horiz-adv-x="1593" 
d="M971 0h-359l-604 1446h336l279 -715q112 -290 174 -495h4q23 79 180 501l279 709h325z" />
    <glyph glyph-name="W" unicode="W" horiz-adv-x="2211" 
d="M776 0h-325l-424 1446h319q16 -58 61.5 -223t74.5 -273t65.5 -250t59.5 -249t32 -175h2q49 272 324 1170h292q275 -935 318 -1159h2q12 70 37 175.5t65 253.5t66 243.5t76.5 272.5t60.5 214h305l-452 -1446h-328q-258 867 -315 1126h-2q-41 -223 -314 -1126z" />
    <glyph glyph-name="X" unicode="X" horiz-adv-x="1439" 
d="M-25 0l562 739l-543 707h358l373 -498h2l375 498h332l-547 -694l577 -752h-352l-401 537h-6l-390 -537h-340z" />
    <glyph glyph-name="Y" unicode="Y" horiz-adv-x="1413" 
d="M858 0h-305v528q0 22 -16 43l-600 875h360q25 -39 92.5 -142t104 -159t87.5 -135.5t84.5 -135t53.5 -92.5q32 59 98.5 163.5t174.5 269.5t151 231h334l-609 -885q-10 -15 -10 -37v-524z" />
    <glyph glyph-name="Z" unicode="Z" horiz-adv-x="1447" 
d="M55 0v221l918 985h-873v240h1258v-236l-903 -970h966l-37 -240h-1329z" />
    <glyph glyph-name="bracketleft" unicode="[" horiz-adv-x="854" 
d="M766 -334h-576v1864h576v-199h-330v-1466h330v-199z" />
    <glyph glyph-name="backslash" unicode="\" horiz-adv-x="1101" 
d="M1014 -104h-258l-668 1550h258z" />
    <glyph glyph-name="bracketright" unicode="]" horiz-adv-x="854" 
d="M88 -334v199h330v1466h-330v199h576v-1864h-576z" />
    <glyph glyph-name="asciicircum" unicode="^" horiz-adv-x="1243" 
d="M43 539l467 866h223l467 -866l-254 2l-330 635l-333 -637h-240z" />
    <glyph glyph-name="underscore" unicode="_" horiz-adv-x="1341" 
d="M-2 -268v106h1343v-106h-1343z" />
    <glyph glyph-name="grave" unicode="`" 
d="M332 1233l-371 319h336l291 -319h-256z" />
    <glyph glyph-name="a" unicode="a" horiz-adv-x="1300" 
d="M436 741h-291q3 45 17 87t49.5 89t88.5 81.5t143 57.5t204 23q125 0 218 -23.5t146.5 -59.5t86 -88.5t43 -101.5t10.5 -108v-413q0 -193 8 -285h-272q-13 47 -13 129q-94 -158 -382 -158q-105 0 -185.5 29.5t-127 79.5t-70 109t-23.5 124q0 351 551 351h231v38
q0 81 -47.5 129t-169.5 48q-110 0 -155.5 -36.5t-59.5 -101.5zM868 449v26h-227q-142 0 -207 -35.5t-65 -111.5q0 -64 50.5 -105t149.5 -41q153 0 226 71t73 196z" />
    <glyph glyph-name="b" unicode="b" horiz-adv-x="1392" 
d="M424 0h-277q3 218 3 354v1176h288v-608q119 157 363 157q217 0 363.5 -151.5t146.5 -382.5q0 -131 -41 -239.5t-112.5 -181.5t-168.5 -113t-209 -40q-249 0 -352 162q0 -75 -4 -133zM723 203q142 0 215.5 94t73.5 238q0 83 -28.5 152.5t-95.5 117t-163 47.5
q-147 0 -221 -88.5t-74 -237.5q0 -145 77.5 -234t215.5 -89z" />
    <glyph glyph-name="c" unicode="c" horiz-adv-x="1271" 
d="M1196 698h-291q-56 162 -246 162q-137 0 -208.5 -91t-71.5 -241q0 -148 71 -241.5t207 -93.5q99 0 159 38t95 115h291q-18 -76 -59.5 -141.5t-106.5 -119t-162.5 -84t-216.5 -30.5q-144 0 -256 44t-180.5 121t-103.5 176t-35 214q0 109 38.5 208.5t109.5 176.5
t181.5 122.5t245.5 45.5q113 0 206.5 -28t151 -69.5t98.5 -95.5t59.5 -100t23.5 -88z" />
    <glyph glyph-name="d" unicode="d" horiz-adv-x="1394" 
d="M1247 0h-284q-5 42 -9 133q-20 -28 -38 -48.5t-48.5 -43.5t-66.5 -37t-89.5 -23.5t-119.5 -9.5q-223 0 -366.5 152t-143.5 393q0 127 47.5 235.5t124.5 179t173 109.5t196 39q241 0 331 -125v576h291v-1231q0 -201 2 -299zM672 201q145 0 218 86t73 239q0 157 -67 241.5
t-220 84.5q-141 0 -218 -96.5t-77 -233.5t77.5 -229t213.5 -92z" />
    <glyph glyph-name="e" unicode="e" horiz-adv-x="1292" 
d="M913 315h289q-19 -56 -48 -104.5t-75.5 -93.5t-104.5 -76.5t-139.5 -50.5t-177.5 -19q-120 0 -218 32t-163.5 85t-110 125t-64 149.5t-19.5 161.5q0 114 38 214.5t109 176.5t180.5 120t243.5 44q118 0 214 -32t160 -85.5t108 -125.5t63 -149.5t19 -160.5q0 -25 -3 -69
h-843q8 -117 86 -192t205 -75q99 0 157 31.5t94 93.5zM653 872q-132 0 -199 -65t-79 -168h547q-3 40 -16.5 76.5t-42 74t-82.5 60t-128 22.5z" />
    <glyph glyph-name="f" unicode="f" horiz-adv-x="745" 
d="M508 0h-291v838h-184v213h184v106q0 387 385 387q92 0 131 -10v-219q-30 6 -74 6q-87 0 -119 -36.5t-32 -129.5v-104h225v-213h-225v-838z" />
    <glyph glyph-name="g" unicode="g" horiz-adv-x="1388" 
d="M92 -109h293q24 -69 86 -110t188 -41q71 0 124 18.5t85.5 49.5t52 78.5t26.5 98.5t7 117v50q-52 -81 -135.5 -123.5t-228.5 -42.5q-148 0 -265 71t-180 191t-63 264q0 162 71.5 292.5t193 202.5t267.5 72q81 0 144 -15t101.5 -40.5t60.5 -50.5t34 -53q0 84 7 131h280
q-2 -102 -2 -308v-618q0 -148 -31.5 -257t-101 -187.5t-185 -118t-278.5 -39.5q-93 0 -171.5 14.5t-132 37.5t-96.5 56t-68.5 65.5t-44 70.5t-26 66t-12.5 58zM668 213q139 0 214.5 82.5t75.5 239.5q0 148 -72.5 232.5t-207.5 84.5q-143 0 -221 -94.5t-78 -235.5
q0 -132 78 -220.5t211 -88.5z" />
    <glyph glyph-name="h" unicode="h" horiz-adv-x="1355" 
d="M150 0v1530h286v-629q105 178 363 178q193 0 300 -113t107 -333v-633h-293v598q0 121 -46.5 187.5t-161.5 66.5q-130 0 -198.5 -92.5t-68.5 -251.5v-508h-288z" />
    <glyph glyph-name="i" unicode="i" horiz-adv-x="587" 
d="M440 0h-290v1051h290v-1051zM440 1274h-290v256h290v-256z" />
    <glyph glyph-name="j" unicode="j" horiz-adv-x="593" 
d="M-37 -475v225h21q93 0 132.5 45.5t39.5 155.5v1100h288v-1026q0 -95 -9 -165t-36.5 -136.5t-74.5 -108.5t-126 -67t-188 -25q-12 0 -29 1t-18 1zM444 1274h-290v256h290v-256z" />
    <glyph glyph-name="k" unicode="k" horiz-adv-x="1308" 
d="M150 0v1530h288v-948q60 61 249 239t243 230h346l-457 -404l504 -647h-352l-357 485l-176 -147v-338h-288z" />
    <glyph glyph-name="l" unicode="l" horiz-adv-x="587" 
d="M438 0h-288v1530h288v-1530z" />
    <glyph glyph-name="m" unicode="m" horiz-adv-x="1970" 
d="M436 0h-286v780q0 136 -3 271h277q8 -55 8 -133q111 161 328 161q238 0 317 -180q121 180 357 180q174 0 281.5 -108.5t107.5 -331.5v-639h-287v633q0 42 -8 78t-27 70.5t-57.5 54.5t-93.5 20q-104 0 -162 -68.5t-58 -207.5v-580h-286v635q0 221 -189 221
q-112 0 -165.5 -75t-53.5 -208v-573z" />
    <glyph glyph-name="n" unicode="n" horiz-adv-x="1355" 
d="M440 0h-290v786q0 151 -3 265h283q3 -22 8 -154q20 34 47.5 63.5t69.5 57.5t104.5 44.5t137.5 16.5q193 0 302 -114t109 -320v-645h-293v598q0 114 -51 184t-166 70q-129 0 -193.5 -87.5t-64.5 -246.5v-518z" />
    <glyph glyph-name="o" unicode="o" horiz-adv-x="1343" 
d="M82 526q0 111 39.5 210t112.5 176t187.5 122t254.5 45q115 0 212.5 -32t165 -86t115.5 -125.5t70.5 -150t22.5 -159.5q0 -118 -40 -219t-114 -176t-188.5 -117.5t-255.5 -42.5q-138 0 -250.5 45.5t-184 123t-109.5 176.5t-38 210zM672 195q142 0 216.5 93t74.5 234
t-76 238.5t-217 97.5q-96 0 -163 -47t-97.5 -120.5t-30.5 -164.5q0 -139 78 -235t215 -96z" />
    <glyph glyph-name="p" unicode="p" horiz-adv-x="1392" 
d="M440 -449h-290v1242q0 129 -3 258h285q8 -46 8 -150q112 178 379 178q136 0 248.5 -69t178 -191.5t65.5 -273.5q0 -130 -44 -240t-118 -182t-170 -112t-201 -40q-233 0 -338 148v-568zM723 203q138 0 213.5 91t75.5 236q0 134 -74 228t-211 94q-151 0 -223 -89.5
t-72 -240.5q0 -148 74.5 -233.5t216.5 -85.5z" />
    <glyph glyph-name="q" unicode="q" horiz-adv-x="1394" 
d="M1247 -449h-291v576q-50 -74 -133 -115t-227 -41q-143 0 -260.5 69t-185.5 192.5t-68 275.5q0 108 31.5 202t84 160.5t121.5 114.5t144.5 71t152.5 23q78 0 142 -15t103 -39.5t61.5 -46.5t33.5 -44q3 74 9 117h284q-2 -90 -2 -293v-1207zM666 203q147 0 222 82.5
t75 240.5q0 70 -15 126.5t-47 102.5t-89 71.5t-134 25.5q-98 0 -167 -48t-99.5 -120.5t-30.5 -161.5q0 -139 78 -229t207 -90z" />
    <glyph glyph-name="r" unicode="r" horiz-adv-x="890" 
d="M440 0h-290v766q0 144 -3 285h283q10 -58 10 -217q48 115 152.5 181.5t259.5 63.5v-266q-192 2 -302 -97t-110 -315v-401z" />
    <glyph glyph-name="s" unicode="s" horiz-adv-x="1191" 
d="M1081 758h-286q-33 125 -230 125q-99 0 -137.5 -31t-38.5 -74t49.5 -68.5t198.5 -47.5q122 -18 210 -45.5t139.5 -59t81 -73.5t39 -80.5t9.5 -88.5q0 -73 -29 -134t-89 -109t-161 -74.5t-235 -26.5q-223 0 -368 92.5t-171 258.5h289q48 -148 269 -148q210 0 210 117
q0 36 -21 59.5t-82 42.5t-173 33q-113 15 -196.5 42t-131.5 58t-76.5 71.5t-37.5 76t-9 78.5q0 48 14.5 92.5t50 88t88.5 75.5t135.5 51.5t185.5 19.5q106 0 192 -20t141 -51.5t93 -75t55.5 -86t21.5 -88.5z" />
    <glyph glyph-name="t" unicode="t" horiz-adv-x="829" 
d="M227 305v533h-194v213h194v319h291v-319h254v-213h-254v-486q0 -79 26.5 -112t102.5 -33q55 0 94 8v-201q-65 -22 -194 -22q-178 0 -249 75.5t-71 237.5z" />
    <glyph glyph-name="u" unicode="u" horiz-adv-x="1337" 
d="M147 406v645h289v-596q0 -117 50 -185.5t159 -68.5q136 0 195 85.5t59 282.5v482h291v-744v-307h-283q-1 9 -6 141q-22 -39 -48 -67t-67.5 -52.5t-102.5 -37.5t-142 -13q-177 0 -285.5 108t-108.5 327z" />
    <glyph glyph-name="v" unicode="v" horiz-adv-x="1230" 
d="M453 0l-443 1051h314q51 -140 122 -323.5t116 -301.5t61 -172h4q49 166 297 797h295l-445 -1051h-321z" />
    <glyph glyph-name="w" unicode="w" horiz-adv-x="1792" 
d="M350 0l-321 1051h299q172 -643 202 -818h2q58 229 236 818h274q201 -669 228 -809h2q36 190 207 809h284l-340 -1051h-309q-193 630 -219 729h-2q-76 -287 -225 -729h-318z" />
    <glyph glyph-name="x" unicode="x" horiz-adv-x="1206" 
d="M-2 0l436 532l-440 519h338q221 -265 282 -346h4q85 113 275 346h311l-428 -504l449 -547h-332q-143 180 -291 360h-4q-76 -92 -287 -360h-313z" />
    <glyph glyph-name="y" unicode="y" horiz-adv-x="1247" 
d="M131 -465v238q47 -6 109 -6q54 0 89.5 9t64.5 34t49 56.5t49 90.5l-476 1094h318q227 -552 311 -822h4q101 339 283 822h295l-371 -932q-41 -104 -63.5 -159.5t-55.5 -127.5t-55 -106t-55.5 -77t-64 -60.5t-73.5 -36t-91 -24t-111 -5.5q-101 0 -156 12z" />
    <glyph glyph-name="z" unicode="z" horiz-adv-x="1163" 
d="M68 0v209l643 618h-607v224h973v-215l-626 -611h675l-36 -225h-1022z" />
    <glyph glyph-name="braceleft" unicode="{" horiz-adv-x="892" 
d="M285 49v217q0 128 -48 174.5t-184 46.5v226q133 0 182.5 46t49.5 177v203q0 194 102 292.5t295 98.5h111v-201h-29q-125 0 -172 -52.5t-47 -174.5v-178q0 -64 -11 -115.5t-28 -84.5t-42.5 -58t-49.5 -38.5t-54 -23.5q62 -20 99.5 -51t61.5 -99.5t24 -177.5v-184
q0 -114 46.5 -170.5t160.5 -56.5h41v-199h-111q-397 0 -397 383z" />
    <glyph glyph-name="bar" unicode="|" horiz-adv-x="657" 
d="M197 -539v2153h264v-2153h-264z" />
    <glyph glyph-name="braceright" unicode="}" horiz-adv-x="892" 
d="M53 -334v201h29q125 0 172 53t47 176v178q0 78 15.5 137t43.5 94t57.5 55t67.5 32q-46 15 -77 35.5t-57 57t-38 95t-12 142.5v182q0 114 -46.5 170.5t-160.5 56.5h-41v199h111q397 0 397 -383v-217q0 -128 48 -174.5t184 -46.5v-226q-133 0 -182.5 -46t-49.5 -175v-205
q0 -192 -102 -291.5t-295 -99.5h-111z" />
    <glyph glyph-name="asciitilde" unicode="~" horiz-adv-x="1646" 
d="M414 379h-221v94q0 97 24.5 168.5t67.5 111.5t94 59t110 19q77 0 157.5 -22.5t146.5 -54.5t126 -63.5t115 -54t94 -22.5q59 0 82 31t23 121v53h219v-78q0 -110 -21.5 -185.5t-63.5 -116t-93.5 -57.5t-120.5 -17q-82 0 -180.5 34.5t-173 76t-155 76t-130.5 34.5
q-48 0 -74 -32.5t-26 -115.5v-59z" />
    <glyph glyph-name="uni00A0" unicode="&#xa0;" horiz-adv-x="583" 
 />
    <glyph glyph-name="exclamdown" unicode="&#xa1;" horiz-adv-x="702" 
d="M178 -389v239l29 680h254l28 -682v-237h-311zM195 713v344h280v-344h-280z" />
    <glyph glyph-name="cent" unicode="&#xa2;" horiz-adv-x="1286" 
d="M561 -29v168q-112 16 -200.5 66.5t-143.5 123.5t-84 162t-29 187q0 206 124 352.5t333 181.5v136h248v-138q79 -14 144.5 -43.5t109 -67.5t75 -84t47.5 -89.5t21 -87.5h-288q-11 35 -27.5 61.5t-44.5 51t-72.5 37.5t-103.5 13q-128 0 -197.5 -87.5t-69.5 -231.5
q0 -148 73 -238t198 -90q100 0 158 40t88 116h286q-33 -148 -134 -243t-263 -124v-172h-248z" />
    <glyph glyph-name="sterling" unicode="&#xa3;" horiz-adv-x="1300" 
d="M1249 0h-1149v199q92 40 129 128.5t37 219.5v43h-192v207h178q-4 74 -4 121q0 103 28 189.5t85 154t152 105.5t220 38q113 0 203 -33t145 -89t85 -123.5t34 -143.5h-280q-28 168 -197 168q-99 0 -142.5 -62t-43.5 -180q0 -47 4 -145h329v-207h-321q0 -231 -96 -350h829z
" />
    <glyph glyph-name="currency" unicode="&#xa4;" horiz-adv-x="1314" 
d="M223 68l-149 165l164 175q-70 118 -70 274q0 151 72 274l-166 174l149 164l170 -178q121 78 279 78q151 0 276 -80l166 180l150 -164l-164 -176q65 -120 65 -268q0 -155 -65 -276l164 -177l-150 -165l-166 176q-124 -78 -282 -78q-155 0 -277 80zM668 373
q115 0 185.5 73.5t70.5 237.5q0 143 -66.5 221t-189.5 78q-122 0 -191 -80t-69 -219q0 -83 22.5 -145.5t61 -97.5t82.5 -51.5t94 -16.5z" />
    <glyph glyph-name="yen" unicode="&#xa5;" horiz-adv-x="1226" 
d="M160 262v172h297v121h-297v172h256l-461 649h330q62 -94 123 -186t90.5 -137t56.5 -86.5t39.5 -61.5t21.5 -35h2q14 26 43.5 70t118.5 174t178 262h302l-476 -649h263v-172h-306v-121h306v-172h-306v-262h-284v262h-297z" />
    <glyph glyph-name="brokenbar" unicode="&#xa6;" horiz-adv-x="530" 
d="M156 698v754h252v-754h-252zM156 -377v754h252v-754h-252z" />
    <glyph glyph-name="section" unicode="&#xa7;" horiz-adv-x="1396" 
d="M90 -8h287q23 -88 102.5 -136.5t204.5 -48.5q113 0 176.5 39t63.5 103q0 50 -24.5 81.5t-101 64t-231.5 73.5q-262 66 -370.5 168t-108.5 248q0 88 54.5 164.5t138.5 128.5q-86 68 -86 206q0 75 30.5 140t90 116.5t156 81t220.5 29.5q117 0 211.5 -24.5t154 -62.5
t101 -88.5t59.5 -99t21 -96.5h-285q-14 67 -82 116.5t-188 49.5q-116 0 -162.5 -39t-46.5 -96q0 -59 70 -97.5t254 -90.5q258 -77 374.5 -174.5t116.5 -264.5q0 -91 -44 -172t-124 -137q38 -29 63 -82t25 -123q0 -168 -141 -272.5t-389 -104.5q-254 0 -406 103.5t-184 296.5
zM639 408q210 -63 311 -111q74 58 74 141q0 86 -58 132.5t-235 109.5q-40 14 -102.5 34t-101 33.5t-70.5 28.5q-48 -24 -75.5 -65.5t-27.5 -81.5q0 -37 10 -63.5t39.5 -54t87.5 -52.5t148 -51z" />
    <glyph glyph-name="dieresis" unicode="&#xa8;" 
d="M309 1274h-252v256h252v-256zM760 1274h-252v256h252v-256z" />
    <glyph glyph-name="copyright" unicode="&#xa9;" horiz-adv-x="1693" 
d="M850 -27q-158 0 -295.5 55t-236.5 153t-155.5 240t-56.5 308q0 159 57.5 298.5t156 238.5t236.5 156t294 57t292.5 -56.5t234.5 -155t154 -238t56 -300.5q0 -162 -56.5 -302.5t-154 -240t-234.5 -156.5t-292 -57zM848 98q128 0 239 43.5t192.5 122.5t128 198.5
t46.5 264.5q0 137 -46.5 254t-127 199t-192.5 128t-240 46q-172 0 -309 -73t-218 -217.5t-81 -338.5q0 -178 79.5 -322t218.5 -224.5t310 -80.5zM1217 874h-179q-11 29 -21.5 47.5t-30.5 41.5t-53 35t-77 12q-97 0 -153 -72.5t-56 -200.5q0 -129 57 -204.5t152 -75.5
q73 0 116.5 32t65.5 97h176q-30 -128 -121.5 -200.5t-240.5 -72.5q-173 0 -278 113t-105 303q0 186 108 305t283 119q71 0 129.5 -18t97.5 -46.5t67.5 -66.5t42.5 -74.5t20 -73.5z" />
    <glyph glyph-name="ordfeminine" unicode="&#xaa;" horiz-adv-x="868" 
d="M297 1044h-201q29 218 332 218q78 0 138.5 -15t98 -39t61.5 -57.5t33 -67t9 -71.5v-283q0 -119 2 -168l-207 -2q-6 40 -6 90q-73 -98 -238 -98q-125 0 -195.5 64t-70.5 163q0 67 31 113.5t87.5 70.5t120.5 34t146 10h115v16q0 100 -127 100q-116 0 -129 -78zM559 868v15
h-121q-36 0 -63 -3.5t-52.5 -12t-39 -27.5t-13.5 -47q0 -35 29.5 -59.5t87.5 -24.5q76 0 124 36.5t48 122.5z" />
    <glyph glyph-name="guillemotleft" unicode="&#xab;" horiz-adv-x="1292" 
d="M424 111l-328 428l328 424h264l-326 -424l326 -428h-264zM932 111l-328 428l328 424h264l-326 -424l326 -428h-264z" />
    <glyph glyph-name="logicalnot" unicode="&#xac;" horiz-adv-x="1718" 
d="M207 682v238h1278v-773h-250v535h-1028z" />
    <glyph glyph-name="uni00AD" unicode="&#xad;" horiz-adv-x="890" 
d="M109 401v244h673v-244h-673z" />
    <glyph glyph-name="registered" unicode="&#xae;" horiz-adv-x="804" 
d="M41 1120q0 161 105 266t270 105q166 0 269 -108.5t103 -262.5q0 -166 -104 -270.5t-268 -104.5q-160 0 -267.5 106.5t-107.5 268.5zM416 829q135 0 206.5 77.5t71.5 211.5q0 131 -75.5 212t-202.5 81q-136 0 -208.5 -80t-72.5 -211q0 -127 79 -209t202 -82zM365 948h-103
v359h187q59 0 97 -28t38 -79q0 -30 -15 -52t-37 -30q41 -16 41 -90q0 -53 2 -80h-104q-6 10 -6 74q2 31 -9 43t-40 12h-51v-129zM367 1231v-80h59q53 0 53 41q0 39 -55 39h-57z" />
    <glyph glyph-name="macron" unicode="&#xaf;" 
d="M82 1286v195h653v-195h-653z" />
    <glyph glyph-name="degree" unicode="&#xb0;" horiz-adv-x="735" 
d="M53 1116q0 137 90 227.5t224 90.5q145 0 230 -88.5t85 -219.5q0 -146 -90.5 -233.5t-226.5 -87.5q-140 0 -226 87.5t-86 223.5zM365 946q75 0 117 48t42 128q0 70 -41.5 122t-117.5 52q-73 0 -113.5 -49.5t-40.5 -126.5t41.5 -125.5t112.5 -48.5z" />
    <glyph glyph-name="plusminus" unicode="&#xb1;" horiz-adv-x="1691" 
d="M207 858v238h516v465h248v-465h512v-238h-512v-498h-248v498h-516zM1483 0h-1276v238h1276v-238z" />
    <glyph glyph-name="two.sups" unicode="&#xb2;" horiz-adv-x="847" 
d="M782 905h-706v13q0 131 67.5 224.5t221.5 170.5q122 61 147 82q33 28 33 65q0 41 -29.5 71t-97.5 30q-64 0 -97.5 -28.5t-44.5 -86.5h-210q5 57 28.5 106.5t66 90t111.5 63.5t158 23q73 0 133 -16t98.5 -42t64.5 -61t37 -71t11 -73q0 -96 -52.5 -153t-182.5 -115
q-52 -24 -80 -38.5t-57 -37t-42 -45.5h451z" />
    <glyph glyph-name="three.sups" unicode="&#xb3;" horiz-adv-x="862" 
d="M53 1169h219q28 -110 166 -110q73 0 110.5 26t37.5 74q0 50 -39.5 71t-130.5 21h-76v154h74q79 0 108 17.5t29 56.5q0 86 -125 86q-112 0 -139 -88h-205q3 28 12 57t34 65.5t61 64t99 46.5t142 19q159 0 248.5 -64.5t89.5 -171.5q0 -65 -34.5 -105.5t-80.5 -50.5
q57 -11 105.5 -59t48.5 -125q0 -50 -19.5 -93.5t-61.5 -81t-118.5 -59.5t-179.5 -22q-84 0 -151 20t-107 50t-67 68.5t-37.5 71t-12.5 62.5z" />
    <glyph glyph-name="acute" unicode="&#xb4;" 
d="M231 1233l283 319h334l-359 -319h-258z" />
    <glyph glyph-name="uni00B5" unicode="&#xb5;" horiz-adv-x="1339" 
d="M147 -449v1500h289v-621q0 -46 9.5 -84t31 -72t63 -53.5t99.5 -19.5q138 0 200 89t62 263v498h291v-721q0 -277 4 -330h-278q-13 39 -13 147q-46 -93 -112 -134.5t-185 -41.5q-124 0 -186 76q11 -211 14 -496h-289z" />
    <glyph glyph-name="paragraph" unicode="&#xb6;" horiz-adv-x="1452" 
d="M1227 -344h-219v618h-330q-176 0 -308 61t-208 186t-76 302q0 245 156.5 395t427.5 150h336q10 108 16 125h207q-2 -39 -2 -166v-1671zM885 496h121v667h-123q-62 0 -104.5 -22.5t-66 -67.5t-33 -100.5t-9.5 -132.5q0 -42 1.5 -73.5t6.5 -69.5t14 -65t25 -54.5t38.5 -44
t55 -27t74.5 -10.5z" />
    <glyph glyph-name="periodcentered" unicode="&#xb7;" horiz-adv-x="563" 
d="M446 410h-329v399h329v-399z" />
    <glyph glyph-name="cedilla" unicode="&#xb8;" 
d="M174 -498v148q66 -15 135 -15q127 0 127 62q0 45 -57.5 60.5t-171.5 17.5v65l153 183l185 -23l-92 -106q35 -5 68 -17t67.5 -33.5t55 -59t20.5 -85.5q0 -52 -20.5 -91.5t-52 -63t-75 -38t-83.5 -19.5t-83 -5q-110 0 -176 20z" />
    <glyph glyph-name="one.sups" unicode="&#xb9;" horiz-adv-x="536" 
d="M426 905h-225v576q-69 -25 -152 -29v158q51 7 116.5 39.5t104.5 68.5h156v-813z" />
    <glyph glyph-name="ordmasculine" unicode="&#xba;" horiz-adv-x="907" 
d="M59 903q0 164 109.5 261.5t286.5 97.5q181 0 286 -101.5t105 -253.5q0 -163 -110.5 -259.5t-291.5 -96.5q-167 0 -276 100t-109 252zM451 709q170 0 170 198q-4 195 -170 195q-84 0 -125 -54t-41 -143q0 -83 44 -139.5t122 -56.5z" />
    <glyph glyph-name="guillemotright" unicode="&#xbb;" horiz-adv-x="1292" 
d="M358 111h-262l326 424l-326 428h262l330 -428zM866 111h-262l326 424l-326 428h262l330 -428z" />
    <glyph glyph-name="onequarter" unicode="&#xbc;" horiz-adv-x="1763" 
d="M444 0h-176l856 1376h176zM915 184v168l392 461h262v-463h139l-14 -166h-125v-184h-203v184h-451zM1126 350h240v121q0 113 6 186q-17 -25 -56 -74t-102.5 -126.5t-87.5 -106.5zM440 563h-225v576q-69 -25 -152 -29v158q52 7 117.5 39.5t104.5 68.5h155v-813z" />
    <glyph glyph-name="onehalf" unicode="&#xbd;" horiz-adv-x="1796" 
d="M438 0h-176l856 1376h176zM1729 0h-707v12q0 132 67.5 225.5t221.5 170.5q122 61 147 82q33 27 33 65q0 41 -29.5 70.5t-97.5 29.5q-64 0 -97 -28.5t-44 -85.5h-211q5 57 28.5 106t66 89.5t111.5 63.5t158 23q91 0 160 -24t107.5 -63t57.5 -83.5t19 -91.5
q0 -96 -52.5 -153t-182.5 -115q-77 -36 -118.5 -62t-59.5 -59h450zM420 563h-225v576q-69 -25 -152 -29v158q51 7 116.5 39.5t104.5 68.5h156v-813z" />
    <glyph glyph-name="threequarters" unicode="&#xbe;" horiz-adv-x="1970" 
d="M696 0h-176l856 1376h176zM1124 184v168l392 461h262v-463h139l-14 -166h-125v-184h-203v184h-451zM1335 350h240v121q0 113 6 186q-17 -25 -56 -74t-102.5 -126.5t-87.5 -106.5zM63 827h220q28 -110 166 -110q73 0 110 26t37 74q0 50 -39.5 71t-130.5 21h-76v154h74
q79 0 108 17.5t29 56.5q0 86 -125 86q-112 0 -139 -88h-205q3 28 12 57t34 65.5t61 63.5t99 46t142 19q159 0 248.5 -64t89.5 -171q0 -65 -34.5 -105.5t-79.5 -50.5q57 -11 105 -59t48 -125q0 -50 -19.5 -93.5t-61.5 -81t-118.5 -59.5t-179.5 -22q-84 0 -151 20t-107 50
t-67 68.5t-37.5 71t-12.5 62.5z" />
    <glyph glyph-name="questiondown" unicode="&#xbf;" horiz-adv-x="1185" 
d="M879 41h268q-2 -55 -13.5 -106.5t-36 -106t-68 -99.5t-102.5 -81t-146.5 -56t-194.5 -20q-132 0 -234.5 33t-163.5 89.5t-91.5 126.5t-30.5 150q0 108 49.5 192t183.5 181q90 64 128 118.5t38 119.5v18h301v-37q0 -100 -49.5 -181t-188.5 -183q-94 -69 -129.5 -116.5
t-36.5 -111.5q0 -82 63 -133t179 -51q248 0 275 254zM465 731v320h301v-320h-301z" />
    <glyph glyph-name="Agrave" unicode="&#xc0;" horiz-adv-x="1615" 
d="M6 0l596 1446h383l625 -1446h-330l-154 365h-661l-146 -365h-313zM784 1245h-2q-59 -195 -235 -635h491q-216 521 -254 635zM672 1583l-439 285h377l336 -285h-274z" />
    <glyph glyph-name="Aacute" unicode="&#xc1;" horiz-adv-x="1615" 
d="M6 0l596 1446h383l625 -1446h-330l-154 365h-661l-146 -365h-313zM784 1245h-2q-59 -195 -235 -635h491q-216 521 -254 635zM631 1583l344 285h375l-437 -285h-282z" />
    <glyph glyph-name="Acircumflex" unicode="&#xc2;" horiz-adv-x="1615" 
d="M6 0l596 1446h383l625 -1446h-330l-154 365h-661l-146 -365h-313zM784 1245h-2q-59 -195 -235 -635h491q-216 521 -254 635zM365 1569l280 280h313l281 -280h-270l-170 157l-164 -157h-270z" />
    <glyph glyph-name="Atilde" unicode="&#xc3;" horiz-adv-x="1615" 
d="M6 0l596 1446h383l625 -1446h-330l-154 365h-661l-146 -365h-313zM784 1245h-2q-59 -195 -235 -635h491q-216 521 -254 635zM596 1589h-184v56q0 239 206 239q58 0 125 -25t123 -50t88 -25t46 17t14 65v18h180v-45q0 -144 -51.5 -201t-143.5 -57q-46 0 -100 16.5t-94 37
t-84 37t-72 16.5q-53 0 -53 -70v-29z" />
    <glyph glyph-name="Adieresis" unicode="&#xc4;" horiz-adv-x="1615" 
d="M692 1602h-252v256h252v-256zM1155 1602h-252v256h252v-256zM6 0l596 1446h383l625 -1446h-330l-154 365h-661l-146 -365h-313zM784 1245h-2q-59 -195 -235 -635h491q-216 521 -254 635z" />
    <glyph glyph-name="Aring" unicode="&#xc5;" horiz-adv-x="1615" 
d="M6 0l596 1446h383l625 -1446h-330l-154 365h-661l-146 -365h-313zM784 1245h-2q-59 -195 -235 -635h491q-216 521 -254 635zM535 1751q0 96 67 159.5t186 63.5q120 0 187 -61.5t67 -159.5t-68 -160.5t-183 -62.5q-120 0 -188 62t-68 159zM682 1753q0 -43 25.5 -72.5
t78.5 -29.5q54 0 81.5 28.5t27.5 71.5q0 44 -27 74t-80 30t-79.5 -29.5t-26.5 -72.5z" />
    <glyph glyph-name="AE" unicode="&#xc6;" horiz-adv-x="2377" 
d="M-41 0l973 1446h1327v-246h-862v-321h819v-246h-819v-387h907l-35 -246h-1169v416h-537l-284 -416h-320zM700 641h400v602h-6z" />
    <glyph glyph-name="Ccedilla" unicode="&#xc7;" horiz-adv-x="1660" 
d="M627 -498v148q66 -15 135 -15q127 0 127 62q0 45 -57.5 60.5t-172.5 17.5v65l113 133q-162 14 -291 80t-210.5 168t-124 229.5t-42.5 270.5q0 152 52 287.5t148.5 240.5t245 166.5t329.5 61.5q126 0 234 -27t185 -72.5t135 -108t91.5 -130.5t48.5 -142h-307
q-95 240 -392 240q-211 0 -330.5 -141t-119.5 -363q0 -109 29 -203.5t84 -167t142.5 -114t197.5 -41.5t187.5 30.5t121.5 81t78 130.5h307q-27 -91 -72 -166.5t-114.5 -142t-174 -109.5t-235.5 -56l-70 -81q35 -5 68 -17t67.5 -33.5t55 -59t20.5 -85.5q0 -52 -20.5 -91.5
t-51.5 -63t-74.5 -38t-83.5 -19.5t-83 -5q-110 0 -176 20z" />
    <glyph glyph-name="Egrave" unicode="&#xc8;" horiz-adv-x="1486" 
d="M195 0v1446h1173v-246h-870v-323h825v-246h-825v-385h915l-35 -246h-1183zM690 1583l-438 285h377l336 -285h-275z" />
    <glyph glyph-name="Eacute" unicode="&#xc9;" horiz-adv-x="1486" 
d="M195 0v1446h1173v-246h-870v-323h825v-246h-825v-385h915l-35 -246h-1183zM592 1583l344 285h375l-437 -285h-282z" />
    <glyph glyph-name="Ecircumflex" unicode="&#xca;" horiz-adv-x="1486" 
d="M195 0v1446h1173v-246h-870v-323h825v-246h-825v-385h915l-35 -246h-1183zM346 1573l281 280h313l281 -280h-271l-170 158l-164 -158h-270z" />
    <glyph glyph-name="Edieresis" unicode="&#xcb;" horiz-adv-x="1486" 
d="M672 1602h-252v256h252v-256zM1135 1602h-252v256h252v-256zM195 0v1446h1173v-246h-870v-323h825v-246h-825v-385h915l-35 -246h-1183z" />
    <glyph glyph-name="Igrave" unicode="&#xcc;" horiz-adv-x="690" 
d="M195 0v1446h303v-1446h-303zM219 1583l-438 285h377l336 -285h-275z" />
    <glyph glyph-name="Iacute" unicode="&#xcd;" horiz-adv-x="690" 
d="M195 0v1446h303v-1446h-303zM197 1583l344 285h374l-436 -285h-282z" />
    <glyph glyph-name="Icircumflex" unicode="&#xce;" horiz-adv-x="690" 
d="M195 0v1446h303v-1446h-303zM-92 1569l280 280h314l280 -280h-270l-170 157l-164 -157h-270z" />
    <glyph glyph-name="Idieresis" unicode="&#xcf;" horiz-adv-x="690" 
d="M238 1602h-252v256h252v-256zM700 1602h-251v256h251v-256zM195 0v1446h303v-1446h-303z" />
    <glyph glyph-name="Eth" unicode="&#xd0;" horiz-adv-x="1703" 
d="M217 0v639h-166v213h166v594h633q176 0 319 -54.5t236.5 -149.5t143.5 -221.5t50 -272.5q0 -170 -59 -311.5t-161 -236.5t-240 -147.5t-295 -52.5h-627zM520 240h281q234 0 355.5 130t121.5 369q0 219 -121.5 343.5t-347.5 125.5h-289v-356h363v-213h-363v-399z" />
    <glyph glyph-name="Ntilde" unicode="&#xd1;" horiz-adv-x="1746" 
d="M473 0h-278v1446h358q147 -218 326.5 -475t271.5 -392.5t131 -207.5h4q-12 141 -12 657v418h280v-1446h-337q-656 972 -752 1145h-4q12 -182 12 -643v-502zM666 1589h-185v56q0 239 207 239q58 0 125 -25t123 -50t88 -25q31 0 45 17t14 65v18h181v-45q0 -144 -51.5 -201
t-143.5 -57q-46 0 -100 16.5t-94 37t-84 37t-72 16.5q-53 0 -53 -70v-29z" />
    <glyph glyph-name="Ograve" unicode="&#xd2;" horiz-adv-x="1757" 
d="M104 727q0 150 55 285.5t153.5 239t247 164.5t323.5 61q179 0 327 -61t244 -165t148.5 -238.5t52.5 -283.5q0 -153 -51.5 -289t-147.5 -241.5t-247.5 -167.5t-338.5 -62q-141 0 -263.5 38t-214 107.5t-157 163.5t-98.5 208.5t-33 240.5zM887 211q112 0 200 43
t140.5 116.5t79 163.5t26.5 191q0 104 -28.5 194.5t-83.5 162.5t-145 113.5t-204 41.5q-87 0 -161 -27.5t-126 -75t-89 -111.5t-54.5 -138t-17.5 -154q0 -108 29.5 -201.5t86 -165t146 -112.5t201.5 -41zM778 1591l-438 285h377l336 -285h-275z" />
    <glyph glyph-name="Oacute" unicode="&#xd3;" horiz-adv-x="1757" 
d="M104 727q0 150 55 285.5t153.5 239t247 164.5t323.5 61q179 0 327 -61t244 -165t148.5 -238.5t52.5 -283.5q0 -153 -51.5 -289t-147.5 -241.5t-247.5 -167.5t-338.5 -62q-141 0 -263.5 38t-214 107.5t-157 163.5t-98.5 208.5t-33 240.5zM887 211q112 0 200 43
t140.5 116.5t79 163.5t26.5 191q0 104 -28.5 194.5t-83.5 162.5t-145 113.5t-204 41.5q-87 0 -161 -27.5t-126 -75t-89 -111.5t-54.5 -138t-17.5 -154q0 -108 29.5 -201.5t86 -165t146 -112.5t201.5 -41zM700 1597l344 285h375l-436 -285h-283z" />
    <glyph glyph-name="Ocircumflex" unicode="&#xd4;" horiz-adv-x="1757" 
d="M104 727q0 150 55 285.5t153.5 239t247 164.5t323.5 61q179 0 327 -61t244 -165t148.5 -238.5t52.5 -283.5q0 -153 -51.5 -289t-147.5 -241.5t-247.5 -167.5t-338.5 -62q-141 0 -263.5 38t-214 107.5t-157 163.5t-98.5 208.5t-33 240.5zM887 211q112 0 200 43
t140.5 116.5t79 163.5t26.5 191q0 104 -28.5 194.5t-83.5 162.5t-145 113.5t-204 41.5q-87 0 -161 -27.5t-126 -75t-89 -111.5t-54.5 -138t-17.5 -154q0 -108 29.5 -201.5t86 -165t146 -112.5t201.5 -41zM434 1575l281 280h313l281 -280h-271l-170 158l-163 -158h-271z" />
    <glyph glyph-name="Otilde" unicode="&#xd5;" horiz-adv-x="1757" 
d="M104 727q0 150 55 285.5t153.5 239t247 164.5t323.5 61q179 0 327 -61t244 -165t148.5 -238.5t52.5 -283.5q0 -153 -51.5 -289t-147.5 -241.5t-247.5 -167.5t-338.5 -62q-141 0 -263.5 38t-214 107.5t-157 163.5t-98.5 208.5t-33 240.5zM887 211q112 0 200 43
t140.5 116.5t79 163.5t26.5 191q0 104 -28.5 194.5t-83.5 162.5t-145 113.5t-204 41.5q-87 0 -161 -27.5t-126 -75t-89 -111.5t-54.5 -138t-17.5 -154q0 -108 29.5 -201.5t86 -165t146 -112.5t201.5 -41zM664 1595h-185v56q0 239 207 239q58 0 125 -25t123 -50t88 -25
q31 0 45 17t14 65v18h181v-45q0 -144 -51.5 -201t-143.5 -57q-46 0 -100 16.5t-94 37t-84 37t-72 16.5q-53 0 -53 -70v-29z" />
    <glyph glyph-name="Odieresis" unicode="&#xd6;" horiz-adv-x="1757" 
d="M764 1602h-252v256h252v-256zM1227 1602h-252v256h252v-256zM104 727q0 150 55 285.5t153.5 239t247 164.5t323.5 61q179 0 327 -61t244 -165t148.5 -238.5t52.5 -283.5q0 -153 -51.5 -289t-147.5 -241.5t-247.5 -167.5t-338.5 -62q-141 0 -263.5 38t-214 107.5
t-157 163.5t-98.5 208.5t-33 240.5zM887 211q112 0 200 43t140.5 116.5t79 163.5t26.5 191q0 104 -28.5 194.5t-83.5 162.5t-145 113.5t-204 41.5q-87 0 -161 -27.5t-126 -75t-89 -111.5t-54.5 -138t-17.5 -154q0 -108 29.5 -201.5t86 -165t146 -112.5t201.5 -41z" />
    <glyph glyph-name="multiply" unicode="&#xd7;" horiz-adv-x="1658" 
d="M373 10l-162 168l459 465l-459 471l160 160l458 -467l459 467l160 -160l-459 -471l459 -465l-162 -168l-457 469z" />
    <glyph glyph-name="Oslash" unicode="&#xd8;" horiz-adv-x="1757" 
d="M176 0l150 182q-107 105 -164.5 247.5t-57.5 297.5t54 292t152.5 238.5t245.5 160.5t323 59q236 0 424 -109l65 78h199l-142 -172q110 -103 170 -245t60 -300q0 -157 -51 -294t-147.5 -241t-247.5 -164.5t-339 -60.5q-237 0 -421 115l-70 -84h-203zM1247 1057l-633 -770
q114 -84 273 -84q114 0 202 40.5t142.5 112t82 165t27.5 204.5q0 198 -94 332zM508 401l631 766q-113 76 -267 76q-109 0 -196.5 -40.5t-143 -111t-85 -162t-29.5 -196.5q0 -192 90 -332z" />
    <glyph glyph-name="Ugrave" unicode="&#xd9;" horiz-adv-x="1685" 
d="M178 610v836h303v-819q0 -416 373 -416q84 0 145.5 20t109 66.5t71.5 129t24 200.5v819h303v-825q0 -330 -171 -491t-492 -161q-317 0 -491.5 157t-174.5 484zM733 1583l-438 285h377l336 -285h-275z" />
    <glyph glyph-name="Uacute" unicode="&#xda;" horiz-adv-x="1685" 
d="M178 610v836h303v-819q0 -416 373 -416q84 0 145.5 20t109 66.5t71.5 129t24 200.5v819h303v-825q0 -330 -171 -491t-492 -161q-317 0 -491.5 157t-174.5 484zM670 1583l344 285h375l-437 -285h-282z" />
    <glyph glyph-name="Ucircumflex" unicode="&#xdb;" horiz-adv-x="1685" 
d="M178 610v836h303v-819q0 -416 373 -416q84 0 145.5 20t109 66.5t71.5 129t24 200.5v819h303v-825q0 -330 -171 -491t-492 -161q-317 0 -491.5 157t-174.5 484zM403 1569l281 280h313l281 -280h-270l-170 157l-164 -157h-271z" />
    <glyph glyph-name="Udieresis" unicode="&#xdc;" horiz-adv-x="1685" 
d="M733 1602h-252v256h252v-256zM1196 1602h-252v256h252v-256zM178 610v836h303v-819q0 -416 373 -416q84 0 145.5 20t109 66.5t71.5 129t24 200.5v819h303v-825q0 -330 -171 -491t-492 -161q-317 0 -491.5 157t-174.5 484z" />
    <glyph glyph-name="Yacute" unicode="&#xdd;" horiz-adv-x="1413" 
d="M858 0h-305v528q0 22 -16 43l-600 875h360q25 -39 92.5 -142t104 -159t87.5 -135.5t84.5 -135t53.5 -92.5q32 59 98.5 163.5t174.5 269.5t151 231h334l-609 -885q-10 -15 -10 -37v-524zM535 1583l344 285h374l-436 -285h-282z" />
    <glyph glyph-name="Thorn" unicode="&#xde;" horiz-adv-x="1548" 
d="M498 0h-303v1446h303v-256h372q273 0 425.5 -120.5t152.5 -340.5q0 -120 -46.5 -212t-129.5 -149t-192 -85.5t-240 -28.5h-342v-254zM498 952v-456h348q301 0 301 231q0 104 -77 164.5t-218 60.5h-354z" />
    <glyph glyph-name="germandbls" unicode="&#xdf;" horiz-adv-x="1507" 
d="M154 0v1049q0 247 148 371t458 124q106 0 194.5 -16.5t148 -42.5t106 -63t73 -74.5t43 -80t22 -75.5t5.5 -66q0 -44 -9 -82l-378 -170v-4l147 -84q169 -93 238 -188.5t69 -222.5q0 -185 -123 -294.5t-348 -109.5q-222 0 -364 92v259q66 -60 160.5 -98t183.5 -38
q103 0 152.5 45t49.5 113q0 64 -41.5 115t-140.5 106l-174 97q-132 74 -131 172.5t133 166.5l273 142q1 32 -14 63t-47.5 59t-92 45t-139.5 17q-163 0 -236.5 -72.5t-73.5 -238.5v-1016h-292z" />
    <glyph glyph-name="agrave" unicode="&#xe0;" horiz-adv-x="1300" 
d="M436 741h-291q3 45 17 87t49.5 89t88.5 81.5t143 57.5t204 23q125 0 218 -23.5t146.5 -59.5t86 -88.5t43 -101.5t10.5 -108v-413q0 -193 8 -285h-272q-13 47 -13 129q-94 -158 -382 -158q-105 0 -185.5 29.5t-127 79.5t-70 109t-23.5 124q0 351 551 351h231v38
q0 81 -47.5 129t-169.5 48q-110 0 -155.5 -36.5t-59.5 -101.5zM868 449v26h-227q-142 0 -207 -35.5t-65 -111.5q0 -64 50.5 -105t149.5 -41q153 0 226 71t73 196zM571 1233l-370 319h336l290 -319h-256z" />
    <glyph glyph-name="aacute" unicode="&#xe1;" horiz-adv-x="1300" 
d="M436 741h-291q3 45 17 87t49.5 89t88.5 81.5t143 57.5t204 23q125 0 218 -23.5t146.5 -59.5t86 -88.5t43 -101.5t10.5 -108v-413q0 -193 8 -285h-272q-13 47 -13 129q-94 -158 -382 -158q-105 0 -185.5 29.5t-127 79.5t-70 109t-23.5 124q0 351 551 351h231v38
q0 81 -47.5 129t-169.5 48q-110 0 -155.5 -36.5t-59.5 -101.5zM868 449v26h-227q-142 0 -207 -35.5t-65 -111.5q0 -64 50.5 -105t149.5 -41q153 0 226 71t73 196zM473 1233l283 319h334l-359 -319h-258z" />
    <glyph glyph-name="acircumflex" unicode="&#xe2;" horiz-adv-x="1300" 
d="M436 741h-291q3 45 17 87t49.5 89t88.5 81.5t143 57.5t204 23q125 0 218 -23.5t146.5 -59.5t86 -88.5t43 -101.5t10.5 -108v-413q0 -193 8 -285h-272q-13 47 -13 129q-94 -158 -382 -158q-105 0 -185.5 29.5t-127 79.5t-70 109t-23.5 124q0 351 551 351h231v38
q0 81 -47.5 129t-169.5 48q-110 0 -155.5 -36.5t-59.5 -101.5zM868 449v26h-227q-142 0 -207 -35.5t-65 -111.5q0 -64 50.5 -105t149.5 -41q153 0 226 71t73 196zM242 1219l270 321h276l271 -321h-252l-160 184l-149 -184h-256z" />
    <glyph glyph-name="atilde" unicode="&#xe3;" horiz-adv-x="1300" 
d="M436 741h-291q3 45 17 87t49.5 89t88.5 81.5t143 57.5t204 23q125 0 218 -23.5t146.5 -59.5t86 -88.5t43 -101.5t10.5 -108v-413q0 -193 8 -285h-272q-13 47 -13 129q-94 -158 -382 -158q-105 0 -185.5 29.5t-127 79.5t-70 109t-23.5 124q0 351 551 351h231v38
q0 81 -47.5 129t-169.5 48q-110 0 -155.5 -36.5t-59.5 -101.5zM868 449v26h-227q-142 0 -207 -35.5t-65 -111.5q0 -64 50.5 -105t149.5 -41q153 0 226 71t73 196zM446 1227h-174v67q0 129 52.5 181.5t146.5 52.5q57 0 116.5 -26t109 -51.5t81.5 -25.5q64 0 64 86v21h172v-53
q0 -75 -14 -126t-42 -78.5t-62.5 -38.5t-82.5 -11q-59 0 -117.5 25.5t-106.5 51t-81 25.5q-62 0 -62 -65v-35z" />
    <glyph glyph-name="adieresis" unicode="&#xe4;" horiz-adv-x="1300" 
d="M545 1274h-252v256h252v-256zM995 1274h-252v256h252v-256zM436 741h-291q3 45 17 87t49.5 89t88.5 81.5t143 57.5t204 23q125 0 218 -23.5t146.5 -59.5t86 -88.5t43 -101.5t10.5 -108v-413q0 -193 8 -285h-272q-13 47 -13 129q-94 -158 -382 -158q-105 0 -185.5 29.5
t-127 79.5t-70 109t-23.5 124q0 351 551 351h231v38q0 81 -47.5 129t-169.5 48q-110 0 -155.5 -36.5t-59.5 -101.5zM868 449v26h-227q-142 0 -207 -35.5t-65 -111.5q0 -64 50.5 -105t149.5 -41q153 0 226 71t73 196z" />
    <glyph glyph-name="aring" unicode="&#xe5;" horiz-adv-x="1300" 
d="M436 741h-291q3 45 17 87t49.5 89t88.5 81.5t143 57.5t204 23q125 0 218 -23.5t146.5 -59.5t86 -88.5t43 -101.5t10.5 -108v-413q0 -193 8 -285h-272q-13 47 -13 129q-94 -158 -382 -158q-105 0 -185.5 29.5t-127 79.5t-70 109t-23.5 124q0 351 551 351h231v38
q0 81 -47.5 129t-169.5 48q-110 0 -155.5 -36.5t-59.5 -101.5zM868 449v26h-227q-142 0 -207 -35.5t-65 -111.5q0 -64 50.5 -105t149.5 -41q153 0 226 71t73 196zM395 1401q0 96 67.5 159.5t186.5 63.5q120 0 187 -61.5t67 -159.5t-68.5 -160.5t-183.5 -62.5q-120 0 -188 62
t-68 159zM543 1403q0 -43 25.5 -73t78.5 -30q54 0 81.5 29t27.5 72q0 44 -27 74t-80 30t-79.5 -29.5t-26.5 -72.5z" />
    <glyph glyph-name="ae" unicode="&#xe6;" horiz-adv-x="2070" 
d="M436 731h-291q6 68 34.5 127t84.5 110t154 81t227 30q308 0 402 -145q60 61 159 103t234 42q146 0 256 -45t173.5 -122t94.5 -170.5t31 -200.5v-78h-846q6 -122 84 -197.5t219 -75.5q94 0 149.5 31t92.5 101h293q-21 -71 -64.5 -132t-109.5 -111t-163.5 -79t-215.5 -29
q-165 0 -278 57t-175 148q-144 -205 -453 -205q-114 0 -201.5 29t-138.5 78.5t-76.5 110t-25.5 128.5q0 73 29.5 130.5t78.5 94.5t118.5 61t144 34t159.5 10h252v47q0 185 -209 185q-198 0 -223 -148zM870 453v12h-229q-141 0 -206.5 -32.5t-65.5 -102.5q0 -64 52.5 -103
t149.5 -39q299 0 299 265zM1430 874q-125 0 -193 -60t-84 -167h549q-3 44 -18.5 82t-45.5 72t-83.5 53.5t-124.5 19.5z" />
    <glyph glyph-name="ccedilla" unicode="&#xe7;" horiz-adv-x="1271" 
d="M436 -492v148q61 -14 135 -14q127 0 127 61q0 45 -57.5 60.5t-171.5 17.5v65l109 129q-124 12 -220.5 60t-156 123t-89.5 168t-30 200q0 109 38.5 208.5t109.5 176.5t181.5 122.5t245.5 45.5q113 0 206.5 -28t151 -69.5t98.5 -95.5t59.5 -100t23.5 -88h-291
q-56 162 -246 162q-137 0 -208.5 -91t-71.5 -241q0 -148 71 -241.5t207 -93.5q99 0 159 38t95 115h291q-33 -136 -137.5 -235.5t-278.5 -128.5l-71 -82q35 -5 68 -17t67.5 -33.5t55 -59t20.5 -85.5q0 -52 -20.5 -91.5t-52 -63t-75 -38t-83.5 -19.5t-83 -5q-110 0 -176 20z
" />
    <glyph glyph-name="egrave" unicode="&#xe8;" horiz-adv-x="1292" 
d="M913 315h289q-19 -56 -48 -104.5t-75.5 -93.5t-104.5 -76.5t-139.5 -50.5t-177.5 -19q-120 0 -218 32t-163.5 85t-110 125t-64 149.5t-19.5 161.5q0 114 38 214.5t109 176.5t180.5 120t243.5 44q118 0 214 -32t160 -85.5t108 -125.5t63 -149.5t19 -160.5q0 -25 -3 -69
h-843q8 -117 86 -192t205 -75q99 0 157 31.5t94 93.5zM653 872q-132 0 -199 -65t-79 -168h547q-3 40 -16.5 76.5t-42 74t-82.5 60t-128 22.5zM567 1233l-370 319h335l291 -319h-256z" />
    <glyph glyph-name="eacute" unicode="&#xe9;" horiz-adv-x="1292" 
d="M913 315h289q-19 -56 -48 -104.5t-75.5 -93.5t-104.5 -76.5t-139.5 -50.5t-177.5 -19q-120 0 -218 32t-163.5 85t-110 125t-64 149.5t-19.5 161.5q0 114 38 214.5t109 176.5t180.5 120t243.5 44q118 0 214 -32t160 -85.5t108 -125.5t63 -149.5t19 -160.5q0 -25 -3 -69
h-843q8 -117 86 -192t205 -75q99 0 157 31.5t94 93.5zM653 872q-132 0 -199 -65t-79 -168h547q-3 40 -16.5 76.5t-42 74t-82.5 60t-128 22.5zM467 1233l283 319h333l-358 -319h-258z" />
    <glyph glyph-name="ecircumflex" unicode="&#xea;" horiz-adv-x="1292" 
d="M913 315h289q-19 -56 -48 -104.5t-75.5 -93.5t-104.5 -76.5t-139.5 -50.5t-177.5 -19q-120 0 -218 32t-163.5 85t-110 125t-64 149.5t-19.5 161.5q0 114 38 214.5t109 176.5t180.5 120t243.5 44q118 0 214 -32t160 -85.5t108 -125.5t63 -149.5t19 -160.5q0 -25 -3 -69
h-843q8 -117 86 -192t205 -75q99 0 157 31.5t94 93.5zM653 872q-132 0 -199 -65t-79 -168h547q-3 40 -16.5 76.5t-42 74t-82.5 60t-128 22.5zM236 1219l270 321h276l271 -321h-252l-160 184l-149 -184h-256z" />
    <glyph glyph-name="edieresis" unicode="&#xeb;" horiz-adv-x="1292" 
d="M545 1274h-252v256h252v-256zM995 1274h-252v256h252v-256zM913 315h289q-19 -56 -48 -104.5t-75.5 -93.5t-104.5 -76.5t-139.5 -50.5t-177.5 -19q-120 0 -218 32t-163.5 85t-110 125t-64 149.5t-19.5 161.5q0 114 38 214.5t109 176.5t180.5 120t243.5 44q118 0 214 -32
t160 -85.5t108 -125.5t63 -149.5t19 -160.5q0 -25 -3 -69h-843q8 -117 86 -192t205 -75q99 0 157 31.5t94 93.5zM653 872q-132 0 -199 -65t-79 -168h547q-3 40 -16.5 76.5t-42 74t-82.5 60t-128 22.5z" />
    <glyph glyph-name="igrave" unicode="&#xec;" horiz-adv-x="587" 
d="M440 0h-290v1051h290v-1051zM176 1233l-371 319h336l291 -319h-256z" />
    <glyph glyph-name="iacute" unicode="&#xed;" horiz-adv-x="587" 
d="M440 0h-290v1051h290v-1051zM156 1233l282 319h334l-358 -319h-258z" />
    <glyph glyph-name="icircumflex" unicode="&#xee;" horiz-adv-x="587" 
d="M440 0h-290v1051h290v-1051zM-117 1219l271 321h276l270 -321h-251l-160 184l-150 -184h-256z" />
    <glyph glyph-name="idieresis" unicode="&#xef;" horiz-adv-x="587" 
d="M193 1274h-252v256h252v-256zM643 1274h-252v256h252v-256zM440 0h-290v1051h290v-1051z" />
    <glyph glyph-name="eth" unicode="&#xf0;" horiz-adv-x="1323" 
d="M358 1032l-65 115l217 131q-112 47 -256 68v198q271 -6 491 -123l263 160l65 -117l-201 -121q163 -123 254 -307.5t91 -421.5q0 -313 -152.5 -479t-419.5 -166q-130 0 -236 45.5t-173.5 121t-103.5 170.5t-36 198q0 225 151 367.5t402 142.5q62 0 120 -14.5t87 -41.5
q-61 147 -209 248zM655 190q133 0 198 88t65 254q0 138 -64 201.5t-190 63.5q-132 0 -201.5 -84t-69.5 -217q0 -123 68.5 -214.5t193.5 -91.5z" />
    <glyph glyph-name="ntilde" unicode="&#xf1;" horiz-adv-x="1355" 
d="M440 0h-290v786q0 151 -3 265h283q3 -22 8 -154q20 34 47.5 63.5t69.5 57.5t104.5 44.5t137.5 16.5q193 0 302 -114t109 -320v-645h-293v598q0 114 -51 184t-166 70q-129 0 -193.5 -87.5t-64.5 -246.5v-518zM483 1227h-174v67q0 129 52.5 181.5t146.5 52.5
q57 0 116.5 -26t109 -51.5t81.5 -25.5q64 0 64 86v21h172v-53q0 -75 -14 -126t-42 -78.5t-62.5 -38.5t-82.5 -11q-59 0 -117.5 25.5t-106.5 51t-81 25.5q-62 0 -62 -65v-35z" />
    <glyph glyph-name="ograve" unicode="&#xf2;" horiz-adv-x="1343" 
d="M82 526q0 111 39.5 210t112.5 176t187.5 122t254.5 45q115 0 212.5 -32t165 -86t115.5 -125.5t70.5 -150t22.5 -159.5q0 -118 -40 -219t-114 -176t-188.5 -117.5t-255.5 -42.5q-138 0 -250.5 45.5t-184 123t-109.5 176.5t-38 210zM672 195q142 0 216.5 93t74.5 234
t-76 238.5t-217 97.5q-96 0 -163 -47t-97.5 -120.5t-30.5 -164.5q0 -139 78 -235t215 -96zM590 1225l-371 319h336l291 -319h-256z" />
    <glyph glyph-name="oacute" unicode="&#xf3;" horiz-adv-x="1343" 
d="M82 526q0 111 39.5 210t112.5 176t187.5 122t254.5 45q115 0 212.5 -32t165 -86t115.5 -125.5t70.5 -150t22.5 -159.5q0 -118 -40 -219t-114 -176t-188.5 -117.5t-255.5 -42.5q-138 0 -250.5 45.5t-184 123t-109.5 176.5t-38 210zM672 195q142 0 216.5 93t74.5 234
t-76 238.5t-217 97.5q-96 0 -163 -47t-97.5 -120.5t-30.5 -164.5q0 -139 78 -235t215 -96zM504 1225l282 319h334l-358 -319h-258z" />
    <glyph glyph-name="ocircumflex" unicode="&#xf4;" horiz-adv-x="1343" 
d="M82 526q0 111 39.5 210t112.5 176t187.5 122t254.5 45q115 0 212.5 -32t165 -86t115.5 -125.5t70.5 -150t22.5 -159.5q0 -118 -40 -219t-114 -176t-188.5 -117.5t-255.5 -42.5q-138 0 -250.5 45.5t-184 123t-109.5 176.5t-38 210zM672 195q142 0 216.5 93t74.5 234
t-76 238.5t-217 97.5q-96 0 -163 -47t-97.5 -120.5t-30.5 -164.5q0 -139 78 -235t215 -96zM262 1219l270 321h277l270 -321h-252l-159 184l-150 -184h-256z" />
    <glyph glyph-name="otilde" unicode="&#xf5;" horiz-adv-x="1343" 
d="M82 526q0 111 39.5 210t112.5 176t187.5 122t254.5 45q115 0 212.5 -32t165 -86t115.5 -125.5t70.5 -150t22.5 -159.5q0 -118 -40 -219t-114 -176t-188.5 -117.5t-255.5 -42.5q-138 0 -250.5 45.5t-184 123t-109.5 176.5t-38 210zM672 195q142 0 216.5 93t74.5 234
t-76 238.5t-217 97.5q-96 0 -163 -47t-97.5 -120.5t-30.5 -164.5q0 -139 78 -235t215 -96zM475 1227h-174v67q0 129 52.5 181.5t146.5 52.5q57 0 116.5 -26t109 -51.5t81.5 -25.5q30 0 46.5 19t16.5 67v21h172v-53q0 -75 -14 -126t-42 -78.5t-62 -38.5t-82 -11
q-59 0 -117.5 25.5t-106.5 51t-81 25.5q-62 0 -62 -65v-35z" />
    <glyph glyph-name="odieresis" unicode="&#xf6;" horiz-adv-x="1343" 
d="M571 1274h-252v256h252v-256zM1022 1274h-252v256h252v-256zM82 526q0 111 39.5 210t112.5 176t187.5 122t254.5 45q115 0 212.5 -32t165 -86t115.5 -125.5t70.5 -150t22.5 -159.5q0 -118 -40 -219t-114 -176t-188.5 -117.5t-255.5 -42.5q-138 0 -250.5 45.5t-184 123
t-109.5 176.5t-38 210zM672 195q142 0 216.5 93t74.5 234t-76 238.5t-217 97.5q-96 0 -163 -47t-97.5 -120.5t-30.5 -164.5q0 -139 78 -235t215 -96z" />
    <glyph glyph-name="divide" unicode="&#xf7;" horiz-adv-x="1677" 
d="M971 10h-248v299h248v-299zM969 995h-248v299h248v-299zM1483 541h-1276v237h1276v-237z" />
    <glyph glyph-name="oslash" unicode="&#xf8;" horiz-adv-x="1343" 
d="M137 -25l117 146q-84 78 -128 183t-44 218q0 241 163.5 399t434.5 158q164 0 287 -63l49 61h162l-105 -131q92 -78 140.5 -188.5t48.5 -231.5q0 -249 -162.5 -402t-437.5 -153q-168 0 -306 74l-55 -70h-164zM913 745l-405 -509q67 -48 164 -48q146 0 222.5 94t76.5 240
q0 135 -58 223zM420 330l399 501q-62 35 -149 35q-147 0 -223 -95t-76 -245q0 -111 49 -196z" />
    <glyph glyph-name="ugrave" unicode="&#xf9;" horiz-adv-x="1337" 
d="M147 406v645h289v-596q0 -117 50 -185.5t159 -68.5q136 0 195 85.5t59 282.5v482h291v-744v-307h-283q-1 9 -6 141q-22 -39 -48 -67t-67.5 -52.5t-102.5 -37.5t-142 -13q-177 0 -285.5 108t-108.5 327zM590 1233l-371 319h336l291 -319h-256z" />
    <glyph glyph-name="uacute" unicode="&#xfa;" horiz-adv-x="1337" 
d="M147 406v645h289v-596q0 -117 50 -185.5t159 -68.5q136 0 195 85.5t59 282.5v482h291v-744v-307h-283q-1 9 -6 141q-22 -39 -48 -67t-67.5 -52.5t-102.5 -37.5t-142 -13q-177 0 -285.5 108t-108.5 327zM489 1233l283 319h334l-358 -319h-259z" />
    <glyph glyph-name="ucircumflex" unicode="&#xfb;" horiz-adv-x="1337" 
d="M147 406v645h289v-596q0 -117 50 -185.5t159 -68.5q136 0 195 85.5t59 282.5v482h291v-744v-307h-283q-1 9 -6 141q-22 -39 -48 -67t-67.5 -52.5t-102.5 -37.5t-142 -13q-177 0 -285.5 108t-108.5 327zM258 1219l270 321h277l270 -321h-252l-159 184l-150 -184h-256z" />
    <glyph glyph-name="udieresis" unicode="&#xfc;" horiz-adv-x="1337" 
d="M567 1274h-252v256h252v-256zM1018 1274h-252v256h252v-256zM147 406v645h289v-596q0 -117 50 -185.5t159 -68.5q136 0 195 85.5t59 282.5v482h291v-744v-307h-283q-1 9 -6 141q-22 -39 -48 -67t-67.5 -52.5t-102.5 -37.5t-142 -13q-177 0 -285.5 108t-108.5 327z" />
    <glyph glyph-name="yacute" unicode="&#xfd;" horiz-adv-x="1247" 
d="M131 -465v238q47 -6 109 -6q54 0 89.5 9t64.5 34t49 56.5t49 90.5l-476 1094h318q227 -552 311 -822h4q101 339 283 822h295l-371 -932q-41 -104 -63.5 -159.5t-55.5 -127.5t-55 -106t-55.5 -77t-64 -60.5t-73.5 -36t-91 -24t-111 -5.5q-101 0 -156 12zM444 1233l283 319
h334l-359 -319h-258z" />
    <glyph glyph-name="thorn" unicode="&#xfe;" horiz-adv-x="1392" 
d="M440 -449h-290v1979h290v-629q25 37 54 65.5t73.5 55.5t109 42t144.5 15q97 0 186 -38.5t156.5 -106.5t107.5 -169.5t40 -219.5q0 -132 -44.5 -242.5t-118.5 -182t-167.5 -110.5t-194.5 -39q-124 0 -212.5 42t-133.5 106v-568zM719 203q142 0 217.5 90t75.5 242
q0 136 -74.5 226.5t-216.5 90.5q-136 0 -212.5 -90.5t-76.5 -235.5q0 -138 72.5 -230.5t214.5 -92.5z" />
    <glyph glyph-name="ydieresis" unicode="&#xff;" horiz-adv-x="1247" 
d="M522 1274h-252v256h252v-256zM973 1274h-252v256h252v-256zM131 -465v238q47 -6 109 -6q54 0 89.5 9t64.5 34t49 56.5t49 90.5l-476 1094h318q227 -552 311 -822h4q101 339 283 822h295l-371 -932q-41 -104 -63.5 -159.5t-55.5 -127.5t-55 -106t-55.5 -77t-64 -60.5
t-73.5 -36t-91 -24t-111 -5.5q-101 0 -156 12z" />
    <glyph glyph-name="Amacron" unicode="&#x100;" horiz-adv-x="1615" 
d="M6 0l596 1446h383l625 -1446h-330l-154 365h-661l-146 -365h-313zM784 1245h-2q-59 -195 -235 -635h491q-216 521 -254 635zM457 1626v193h694v-193h-694z" />
    <glyph glyph-name="amacron" unicode="&#x101;" horiz-adv-x="1300" 
d="M436 741h-291q3 45 17 87t49.5 89t88.5 81.5t143 57.5t204 23q125 0 218 -23.5t146.5 -59.5t86 -88.5t43 -101.5t10.5 -108v-413q0 -193 8 -285h-272q-13 47 -13 129q-94 -158 -382 -158q-105 0 -185.5 29.5t-127 79.5t-70 109t-23.5 124q0 351 551 351h231v38
q0 81 -47.5 129t-169.5 48q-110 0 -155.5 -36.5t-59.5 -101.5zM868 449v26h-227q-142 0 -207 -35.5t-65 -111.5q0 -64 50.5 -105t149.5 -41q153 0 226 71t73 196zM317 1286v195h654v-195h-654z" />
    <glyph glyph-name="Abreve" unicode="&#x102;" horiz-adv-x="1615" 
d="M6 0l596 1446h383l625 -1446h-330l-154 365h-661l-146 -365h-313zM784 1245h-2q-59 -195 -235 -635h491q-216 521 -254 635zM987 1872h197q-10 -60 -36.5 -111.5t-71.5 -95.5t-116.5 -69t-160.5 -25q-94 0 -167.5 28t-116.5 74t-66 96t-29 103h198q15 -54 63.5 -85.5
t119.5 -31.5q83 0 124.5 31.5t61.5 85.5z" />
    <glyph glyph-name="abreve" unicode="&#x103;" horiz-adv-x="1300" 
d="M436 741h-291q3 45 17 87t49.5 89t88.5 81.5t143 57.5t204 23q125 0 218 -23.5t146.5 -59.5t86 -88.5t43 -101.5t10.5 -108v-413q0 -193 8 -285h-272q-13 47 -13 129q-94 -158 -382 -158q-105 0 -185.5 29.5t-127 79.5t-70 109t-23.5 124q0 351 551 351h231v38
q0 81 -47.5 129t-169.5 48q-110 0 -155.5 -36.5t-59.5 -101.5zM868 449v26h-227q-142 0 -207 -35.5t-65 -111.5q0 -64 50.5 -105t149.5 -41q153 0 226 71t73 196zM811 1544h197q-10 -69 -36 -126.5t-69 -104t-110.5 -73t-151.5 -26.5q-72 0 -131 18.5t-99.5 49.5t-69 74
t-42.5 89.5t-18 98.5h198q32 -141 166 -141q42 0 72.5 11t48.5 33t27.5 44t17.5 53z" />
    <glyph glyph-name="Aogonek" unicode="&#x104;" horiz-adv-x="1615" 
d="M6 0l596 1446h383l625 -1446h-49q-113 -87 -113 -184q0 -101 115 -101q57 0 112 17v-189q-68 -37 -194 -37q-130 0 -202.5 64t-72.5 180q0 133 117 250h-43l-154 365h-661l-146 -365h-313zM784 1245h-2q-59 -195 -235 -635h491q-216 521 -254 635z" />
    <glyph glyph-name="aogonek" unicode="&#x105;" horiz-adv-x="1300" 
d="M903 0h-16q-13 47 -13 129q-94 -158 -382 -158q-105 0 -185.5 29.5t-127 79.5t-70 109t-23.5 124q0 351 551 351h231v38q0 81 -47.5 129t-169.5 48q-110 0 -155.5 -36.5t-59.5 -101.5h-291q3 45 17 87t49.5 89t88.5 81.5t143 57.5t204 23q125 0 218 -23.5t146.5 -59.5
t86 -88.5t43 -101.5t10.5 -108v-413q0 -193 8 -285h-18q-113 -87 -113 -184q0 -101 115 -101q57 0 112 17v-189q-68 -37 -194 -37q-130 0 -202.5 64t-72.5 180q0 133 117 250zM868 449v26h-227q-142 0 -207 -35.5t-65 -111.5q0 -64 50.5 -105t149.5 -41q153 0 226 71t73 196
z" />
    <glyph glyph-name="Cacute" unicode="&#x106;" horiz-adv-x="1660" 
d="M1573 997h-307q-95 240 -392 240q-211 0 -330.5 -141t-119.5 -363q0 -109 29 -203.5t84 -167t142.5 -114t197.5 -41.5t187.5 30.5t121.5 81t78 130.5h307q-23 -79 -59.5 -147t-95.5 -130.5t-135 -106.5t-183.5 -70t-235.5 -26q-147 0 -271.5 39.5t-213.5 109.5t-151 165
t-92 206t-30 232q0 152 52 287.5t148.5 240.5t245 166.5t329.5 61.5q126 0 234 -27t185 -72.5t135 -108t91.5 -130.5t48.5 -142zM682 1591l344 285h375l-436 -285h-283z" />
    <glyph glyph-name="cacute" unicode="&#x107;" horiz-adv-x="1271" 
d="M1196 698h-291q-56 162 -246 162q-137 0 -208.5 -91t-71.5 -241q0 -148 71 -241.5t207 -93.5q99 0 159 38t95 115h291q-18 -76 -59.5 -141.5t-106.5 -119t-162.5 -84t-216.5 -30.5q-144 0 -256 44t-180.5 121t-103.5 176t-35 214q0 109 38.5 208.5t109.5 176.5
t181.5 122.5t245.5 45.5q113 0 206.5 -28t151 -69.5t98.5 -95.5t59.5 -100t23.5 -88zM487 1233l283 319h334l-359 -319h-258z" />
    <glyph glyph-name="Ccircumflex" unicode="&#x108;" horiz-adv-x="1660" 
d="M1573 997h-307q-95 240 -392 240q-211 0 -330.5 -141t-119.5 -363q0 -109 29 -203.5t84 -167t142.5 -114t197.5 -41.5t187.5 30.5t121.5 81t78 130.5h307q-23 -79 -59.5 -147t-95.5 -130.5t-135 -106.5t-183.5 -70t-235.5 -26q-147 0 -271.5 39.5t-213.5 109.5t-151 165
t-92 206t-30 232q0 152 52 287.5t148.5 240.5t245 166.5t329.5 61.5q126 0 234 -27t185 -72.5t135 -108t91.5 -130.5t48.5 -142zM418 1575l280 280h314l280 -280h-270l-170 158l-164 -158h-270z" />
    <glyph glyph-name="ccircumflex" unicode="&#x109;" horiz-adv-x="1271" 
d="M1196 698h-291q-56 162 -246 162q-137 0 -208.5 -91t-71.5 -241q0 -148 71 -241.5t207 -93.5q99 0 159 38t95 115h291q-18 -76 -59.5 -141.5t-106.5 -119t-162.5 -84t-216.5 -30.5q-144 0 -256 44t-180.5 121t-103.5 176t-35 214q0 109 38.5 208.5t109.5 176.5
t181.5 122.5t245.5 45.5q113 0 206.5 -28t151 -69.5t98.5 -95.5t59.5 -100t23.5 -88zM244 1219l270 321h277l270 -321h-252l-160 184l-149 -184h-256z" />
    <glyph glyph-name="Cdotaccent" unicode="&#x10a;" horiz-adv-x="1660" 
d="M1573 997h-307q-95 240 -392 240q-211 0 -330.5 -141t-119.5 -363q0 -109 29 -203.5t84 -167t142.5 -114t197.5 -41.5t187.5 30.5t121.5 81t78 130.5h307q-23 -79 -59.5 -147t-95.5 -130.5t-135 -106.5t-183.5 -70t-235.5 -26q-147 0 -271.5 39.5t-213.5 109.5t-151 165
t-92 206t-30 232q0 152 52 287.5t148.5 240.5t245 166.5t329.5 61.5q126 0 234 -27t185 -72.5t135 -108t91.5 -130.5t48.5 -142zM1004 1608h-291v256h291v-256z" />
    <glyph glyph-name="cdotaccent" unicode="&#x10b;" horiz-adv-x="1271" 
d="M1196 698h-291q-56 162 -246 162q-137 0 -208.5 -91t-71.5 -241q0 -148 71 -241.5t207 -93.5q99 0 159 38t95 115h291q-18 -76 -59.5 -141.5t-106.5 -119t-162.5 -84t-216.5 -30.5q-144 0 -256 44t-180.5 121t-103.5 176t-35 214q0 109 38.5 208.5t109.5 176.5
t181.5 122.5t245.5 45.5q113 0 206.5 -28t151 -69.5t98.5 -95.5t59.5 -100t23.5 -88zM793 1274h-291v256h291v-256z" />
    <glyph glyph-name="Ccaron" unicode="&#x10c;" horiz-adv-x="1660" 
d="M1573 997h-307q-95 240 -392 240q-211 0 -330.5 -141t-119.5 -363q0 -109 29 -203.5t84 -167t142.5 -114t197.5 -41.5t187.5 30.5t121.5 81t78 130.5h307q-23 -79 -59.5 -147t-95.5 -130.5t-135 -106.5t-183.5 -70t-235.5 -26q-147 0 -271.5 39.5t-213.5 109.5t-151 165
t-92 206t-30 232q0 152 52 287.5t148.5 240.5t245 166.5t329.5 61.5q126 0 234 -27t185 -72.5t135 -108t91.5 -130.5t48.5 -142zM1012 1575h-316l-278 280h270l170 -157l164 157h270z" />
    <glyph glyph-name="ccaron" unicode="&#x10d;" horiz-adv-x="1271" 
d="M1196 698h-291q-56 162 -246 162q-137 0 -208.5 -91t-71.5 -241q0 -148 71 -241.5t207 -93.5q99 0 159 38t95 115h291q-18 -76 -59.5 -141.5t-106.5 -119t-162.5 -84t-216.5 -30.5q-144 0 -256 44t-180.5 121t-103.5 176t-35 214q0 109 38.5 208.5t109.5 176.5
t181.5 122.5t245.5 45.5q113 0 206.5 -28t151 -69.5t98.5 -95.5t59.5 -100t23.5 -88zM791 1212h-277l-270 322h254l157 -184l150 184h256z" />
    <glyph glyph-name="Dcaron" unicode="&#x10e;" horiz-adv-x="1681" 
d="M821 0h-626v1446h632q176 0 319.5 -54.5t236.5 -149.5t143.5 -221.5t50.5 -272.5q0 -170 -59 -311.5t-161.5 -236.5t-240.5 -147.5t-295 -52.5zM498 1208v-968h280q234 0 355.5 130t121.5 369q0 219 -121.5 343.5t-347.5 125.5h-288zM928 1569h-316l-278 280h270
l170 -157l164 157h270z" />
    <glyph glyph-name="dcaron" unicode="&#x10f;" horiz-adv-x="1556" 
d="M1247 0h-284q-5 42 -9 133q-20 -28 -38 -48.5t-48.5 -43.5t-66.5 -37t-89.5 -23.5t-119.5 -9.5q-223 0 -366.5 152t-143.5 393q0 127 47.5 235.5t124.5 179t173 109.5t196 39q241 0 331 -125v576h291v-1231q0 -201 2 -299zM672 201q145 0 218 86t73 239q0 157 -67 241.5
t-220 84.5q-141 0 -218 -96.5t-77 -233.5t77.5 -229t213.5 -92zM1593 944h-209l-14 586h234z" />
    <glyph glyph-name="Dcroat" unicode="&#x110;" horiz-adv-x="1703" 
d="M217 0v639h-166v213h166v594h633q176 0 319 -54.5t236.5 -149.5t143.5 -221.5t50 -272.5q0 -170 -59 -311.5t-161 -236.5t-240 -147.5t-295 -52.5h-627zM520 240h281q234 0 355.5 130t121.5 369q0 219 -121.5 343.5t-347.5 125.5h-289v-356h363v-213h-363v-399z" />
    <glyph glyph-name="dcroat" unicode="&#x111;" horiz-adv-x="1394" 
d="M1247 0h-284q-5 42 -9 137q-45 -77 -127 -121.5t-237 -44.5q-221 0 -364.5 151t-143.5 382q0 129 47 236.5t124.5 176t173.5 106.5t196 38q244 0 331 -127v283h-469v172h469v141h291v-141h137v-172h-137v-918q0 -201 2 -299zM672 201q145 0 218 87t73 226q0 146 -69 233
t-214 87q-144 0 -221.5 -90.5t-77.5 -233.5q0 -131 77.5 -220t213.5 -89z" />
    <glyph glyph-name="Emacron" unicode="&#x112;" horiz-adv-x="1486" 
d="M195 0v1446h1173v-246h-870v-323h825v-246h-825v-385h915l-35 -246h-1183zM440 1636v193h695v-193h-695z" />
    <glyph glyph-name="emacron" unicode="&#x113;" horiz-adv-x="1292" 
d="M913 315h289q-19 -56 -48 -104.5t-75.5 -93.5t-104.5 -76.5t-139.5 -50.5t-177.5 -19q-120 0 -218 32t-163.5 85t-110 125t-64 149.5t-19.5 161.5q0 114 38 214.5t109 176.5t180.5 120t243.5 44q118 0 214 -32t160 -85.5t108 -125.5t63 -149.5t19 -160.5q0 -25 -3 -69
h-843q8 -117 86 -192t205 -75q99 0 157 31.5t94 93.5zM653 872q-132 0 -199 -65t-79 -168h547q-3 40 -16.5 76.5t-42 74t-82.5 60t-128 22.5zM317 1286v195h654v-195h-654z" />
    <glyph glyph-name="Ebreve" unicode="&#x114;" horiz-adv-x="1486" 
d="M195 0v1446h1173v-246h-870v-323h825v-246h-825v-385h915l-35 -246h-1183zM975 1878h196q-10 -60 -36.5 -111.5t-71.5 -95.5t-116.5 -69t-160.5 -25q-94 0 -167.5 28t-116 74t-65.5 96t-29 103h198q15 -55 63 -86t119 -31q83 0 125 31.5t62 85.5z" />
    <glyph glyph-name="ebreve" unicode="&#x115;" horiz-adv-x="1292" 
d="M913 315h289q-19 -56 -48 -104.5t-75.5 -93.5t-104.5 -76.5t-139.5 -50.5t-177.5 -19q-120 0 -218 32t-163.5 85t-110 125t-64 149.5t-19.5 161.5q0 114 38 214.5t109 176.5t180.5 120t243.5 44q118 0 214 -32t160 -85.5t108 -125.5t63 -149.5t19 -160.5q0 -25 -3 -69
h-843q8 -117 86 -192t205 -75q99 0 157 31.5t94 93.5zM653 872q-132 0 -199 -65t-79 -168h547q-3 40 -16.5 76.5t-42 74t-82.5 60t-128 22.5zM811 1544h197q-10 -69 -36 -126.5t-69 -104t-110.5 -73t-151.5 -26.5q-72 0 -131 18.5t-99.5 49.5t-69 74t-42.5 89.5t-18 98.5
h198q32 -141 166 -141q42 0 72.5 11t48.5 33t27.5 44t17.5 53z" />
    <glyph glyph-name="Edotaccent" unicode="&#x116;" horiz-adv-x="1486" 
d="M195 0v1446h1173v-246h-870v-323h825v-246h-825v-385h915l-35 -246h-1183zM944 1608h-291v256h291v-256z" />
    <glyph glyph-name="edotaccent" unicode="&#x117;" horiz-adv-x="1292" 
d="M913 315h289q-19 -56 -48 -104.5t-75.5 -93.5t-104.5 -76.5t-139.5 -50.5t-177.5 -19q-120 0 -218 32t-163.5 85t-110 125t-64 149.5t-19.5 161.5q0 114 38 214.5t109 176.5t180.5 120t243.5 44q118 0 214 -32t160 -85.5t108 -125.5t63 -149.5t19 -160.5q0 -25 -3 -69
h-843q8 -117 86 -192t205 -75q99 0 157 31.5t94 93.5zM653 872q-132 0 -199 -65t-79 -168h547q-3 40 -16.5 76.5t-42 74t-82.5 60t-128 22.5zM791 1274h-291v256h291v-256z" />
    <glyph glyph-name="Eogonek" unicode="&#x118;" horiz-adv-x="1486" 
d="M195 0v1446h1173v-246h-870v-323h825v-246h-825v-385h915l-35 -246h-98q-113 -87 -113 -184q0 -101 115 -101q58 0 113 17v-189q-68 -37 -195 -37q-130 0 -202 64t-72 180q0 134 116 250h-847z" />
    <glyph glyph-name="eogonek" unicode="&#x119;" horiz-adv-x="1292" 
d="M985 -254v-188q-68 -37 -194 -37q-131 0 -203 64t-72 179q0 105 80 209q-133 10 -235 61t-161 129.5t-88.5 169.5t-29.5 191q0 114 38 214.5t109 176.5t180.5 120t243.5 44q118 0 214 -32t160 -85.5t108 -125.5t63 -149.5t19 -160.5q0 -25 -3 -69h-843q8 -117 86 -192
t205 -75q99 0 157 31.5t94 93.5h289q-89 -256 -358 -323q-86 -80 -86 -162q0 -100 114 -100q62 0 113 16zM653 872q-132 0 -199 -65t-79 -168h547q-3 40 -16.5 76.5t-42 74t-82.5 60t-128 22.5z" />
    <glyph glyph-name="Ecaron" unicode="&#x11a;" horiz-adv-x="1486" 
d="M195 0v1446h1173v-246h-870v-323h825v-246h-825v-385h915l-35 -246h-1183zM942 1569h-315l-279 280h270l170 -157l164 157h271z" />
    <glyph glyph-name="ecaron" unicode="&#x11b;" horiz-adv-x="1292" 
d="M913 315h289q-19 -56 -48 -104.5t-75.5 -93.5t-104.5 -76.5t-139.5 -50.5t-177.5 -19q-120 0 -218 32t-163.5 85t-110 125t-64 149.5t-19.5 161.5q0 114 38 214.5t109 176.5t180.5 120t243.5 44q118 0 214 -32t160 -85.5t108 -125.5t63 -149.5t19 -160.5q0 -25 -3 -69
h-843q8 -117 86 -192t205 -75q99 0 157 31.5t94 93.5zM653 872q-132 0 -199 -65t-79 -168h547q-3 40 -16.5 76.5t-42 74t-82.5 60t-128 22.5zM782 1212h-276l-270 322h253l158 -184l150 184h256z" />
    <glyph glyph-name="Gcircumflex" unicode="&#x11c;" horiz-adv-x="1732" 
d="M897 578v239h684v-817h-223q-18 73 -21 170q-76 -101 -190.5 -151t-310.5 -50q-227 0 -394.5 97.5t-252.5 265.5t-85 385q0 160 53 298t151 241t248 162t335 59q132 0 242.5 -27t186.5 -71.5t133 -104.5t87.5 -121.5t44.5 -128.5h-307q-12 31 -30 58.5t-50 58t-72.5 52
t-101.5 36t-133 14.5q-116 0 -206.5 -39.5t-146.5 -109.5t-85 -162t-29 -201q0 -154 50.5 -270.5t158 -186t260.5 -69.5q192 0 292.5 91.5t100.5 252.5v29h-389zM426 1577l281 281h313l280 -281h-270l-170 158l-164 -158h-270z" />
    <glyph glyph-name="gcircumflex" unicode="&#x11d;" horiz-adv-x="1388" 
d="M92 -109h293q24 -69 86 -110t188 -41q71 0 124 18.5t85.5 49.5t52 78.5t26.5 98.5t7 117v50q-52 -81 -135.5 -123.5t-228.5 -42.5q-148 0 -265 71t-180 191t-63 264q0 162 71.5 292.5t193 202.5t267.5 72q81 0 144 -15t101.5 -40.5t60.5 -50.5t34 -53q0 84 7 131h280
q-2 -102 -2 -308v-618q0 -148 -31.5 -257t-101 -187.5t-185 -118t-278.5 -39.5q-93 0 -171.5 14.5t-132 37.5t-96.5 56t-68.5 65.5t-44 70.5t-26 66t-12.5 58zM668 213q139 0 214.5 82.5t75.5 239.5q0 148 -72.5 232.5t-207.5 84.5q-143 0 -221 -94.5t-78 -235.5
q0 -132 78 -220.5t211 -88.5zM285 1219l270 321h276l271 -321h-252l-160 184l-149 -184h-256z" />
    <glyph glyph-name="Gbreve" unicode="&#x11e;" horiz-adv-x="1732" 
d="M897 578v239h684v-817h-223q-18 73 -21 170q-76 -101 -190.5 -151t-310.5 -50q-227 0 -394.5 97.5t-252.5 265.5t-85 385q0 160 53 298t151 241t248 162t335 59q132 0 242.5 -27t186.5 -71.5t133 -104.5t87.5 -121.5t44.5 -128.5h-307q-12 31 -30 58.5t-50 58t-72.5 52
t-101.5 36t-133 14.5q-116 0 -206.5 -39.5t-146.5 -109.5t-85 -162t-29 -201q0 -154 50.5 -270.5t158 -186t260.5 -69.5q192 0 292.5 91.5t100.5 252.5v29h-389zM1051 1882h196q-10 -60 -36.5 -111.5t-71.5 -95.5t-116.5 -69t-160.5 -25q-94 0 -167.5 28t-116.5 74t-66 96
t-29 103h199q15 -55 63 -86t119 -31q83 0 125 31.5t62 85.5z" />
    <glyph glyph-name="gbreve" unicode="&#x11f;" horiz-adv-x="1388" 
d="M92 -109h293q24 -69 86 -110t188 -41q71 0 124 18.5t85.5 49.5t52 78.5t26.5 98.5t7 117v50q-52 -81 -135.5 -123.5t-228.5 -42.5q-148 0 -265 71t-180 191t-63 264q0 162 71.5 292.5t193 202.5t267.5 72q81 0 144 -15t101.5 -40.5t60.5 -50.5t34 -53q0 84 7 131h280
q-2 -102 -2 -308v-618q0 -148 -31.5 -257t-101 -187.5t-185 -118t-278.5 -39.5q-93 0 -171.5 14.5t-132 37.5t-96.5 56t-68.5 65.5t-44 70.5t-26 66t-12.5 58zM668 213q139 0 214.5 82.5t75.5 239.5q0 148 -72.5 232.5t-207.5 84.5q-143 0 -221 -94.5t-78 -235.5
q0 -132 78 -220.5t211 -88.5zM860 1544h197q-10 -69 -36 -126.5t-69 -104t-110.5 -73t-151.5 -26.5q-72 0 -131 18.5t-99.5 49.5t-69 74t-42.5 89.5t-18 98.5h198q32 -141 166 -141q42 0 72.5 11t48.5 33t27.5 44t17.5 53z" />
    <glyph glyph-name="Gdotaccent" unicode="&#x120;" horiz-adv-x="1732" 
d="M897 578v239h684v-817h-223q-18 73 -21 170q-76 -101 -190.5 -151t-310.5 -50q-227 0 -394.5 97.5t-252.5 265.5t-85 385q0 160 53 298t151 241t248 162t335 59q132 0 242.5 -27t186.5 -71.5t133 -104.5t87.5 -121.5t44.5 -128.5h-307q-12 31 -30 58.5t-50 58t-72.5 52
t-101.5 36t-133 14.5q-116 0 -206.5 -39.5t-146.5 -109.5t-85 -162t-29 -201q0 -154 50.5 -270.5t158 -186t260.5 -69.5q192 0 292.5 91.5t100.5 252.5v29h-389zM1012 1610h-291v256h291v-256z" />
    <glyph glyph-name="gdotaccent" unicode="&#x121;" horiz-adv-x="1388" 
d="M92 -109h293q24 -69 86 -110t188 -41q71 0 124 18.5t85.5 49.5t52 78.5t26.5 98.5t7 117v50q-52 -81 -135.5 -123.5t-228.5 -42.5q-148 0 -265 71t-180 191t-63 264q0 162 71.5 292.5t193 202.5t267.5 72q81 0 144 -15t101.5 -40.5t60.5 -50.5t34 -53q0 84 7 131h280
q-2 -102 -2 -308v-618q0 -148 -31.5 -257t-101 -187.5t-185 -118t-278.5 -39.5q-93 0 -171.5 14.5t-132 37.5t-96.5 56t-68.5 65.5t-44 70.5t-26 66t-12.5 58zM668 213q139 0 214.5 82.5t75.5 239.5q0 148 -72.5 232.5t-207.5 84.5q-143 0 -221 -94.5t-78 -235.5
q0 -132 78 -220.5t211 -88.5zM840 1274h-291v256h291v-256z" />
    <glyph glyph-name="uni0122" unicode="&#x122;" horiz-adv-x="1732" 
d="M897 578v239h684v-817h-223q-18 73 -21 170q-76 -101 -190.5 -151t-310.5 -50q-227 0 -394.5 97.5t-252.5 265.5t-85 385q0 160 53 298t151 241t248 162t335 59q132 0 242.5 -27t186.5 -71.5t133 -104.5t87.5 -121.5t44.5 -128.5h-307q-12 31 -30 58.5t-50 58t-72.5 52
t-101.5 36t-133 14.5q-116 0 -206.5 -39.5t-146.5 -109.5t-85 -162t-29 -201q0 -154 50.5 -270.5t158 -186t260.5 -69.5q192 0 292.5 91.5t100.5 252.5v29h-389zM797 -147h239q0 -100 -29.5 -211.5t-86.5 -182.5h-230q107 203 107 394z" />
    <glyph glyph-name="uni0123" unicode="&#x123;" horiz-adv-x="1388" 
d="M807 1212h-262q21 123 78.5 246t121.5 197h230q-133 -200 -168 -443zM92 -109h293q24 -69 86 -110t188 -41q71 0 124 18.5t85.5 49.5t52 78.5t26.5 98.5t7 117v50q-52 -81 -135.5 -123.5t-228.5 -42.5q-148 0 -265 71t-180 191t-63 264q0 162 71.5 292.5t193 202.5
t267.5 72q81 0 144 -15t101.5 -40.5t60.5 -50.5t34 -53q0 84 7 131h280q-2 -102 -2 -308v-618q0 -148 -31.5 -257t-101 -187.5t-185 -118t-278.5 -39.5q-93 0 -171.5 14.5t-132 37.5t-96.5 56t-68.5 65.5t-44 70.5t-26 66t-12.5 58zM668 213q139 0 214.5 82.5t75.5 239.5
q0 148 -72.5 232.5t-207.5 84.5q-143 0 -221 -94.5t-78 -235.5q0 -132 78 -220.5t211 -88.5z" />
    <glyph glyph-name="Hcircumflex" unicode="&#x124;" horiz-adv-x="1726" 
d="M498 0h-303v1446h303v-557h731v557h303v-1446h-303v645h-731v-645zM424 1575l281 280h313l280 -280h-270l-170 158l-164 -158h-270z" />
    <glyph glyph-name="hcircumflex" unicode="&#x125;" horiz-adv-x="1355" 
d="M-119 1632l236 236h352l231 -236h-282l-127 121l-123 -121h-287zM150 0v1530h286v-629q105 178 363 178q193 0 300 -113t107 -333v-633h-293v598q0 121 -46.5 187.5t-161.5 66.5q-130 0 -198.5 -92.5t-68.5 -251.5v-508h-288z" />
    <glyph glyph-name="Hbar" unicode="&#x126;" horiz-adv-x="1726" 
d="M195 0v1057h-154v190h154v199h303v-199h731v199h303v-199h154v-190h-154v-1057h-303v631h-731v-631h-303zM498 1057v-180h731v180h-731z" />
    <glyph glyph-name="hbar" unicode="&#x127;" horiz-adv-x="1355" 
d="M150 0v1217h-156v172h156v141h286v-141h455v-172h-455v-336q103 180 363 180q194 0 300.5 -112.5t106.5 -336.5v-612h-293v578q0 123 -46 188t-162 65q-131 0 -199 -91.5t-68 -250.5v-489h-288z" />
    <glyph glyph-name="Itilde" unicode="&#x128;" horiz-adv-x="690" 
d="M195 0v1446h303v-1446h-303zM137 1589h-184v56q0 239 207 239q58 0 125 -25t123 -50t88 -25q31 0 45 17t14 65v18h180v-45q0 -144 -51 -201t-143 -57q-59 0 -128 26.5t-129 53.5t-94 27q-53 0 -53 -70v-29z" />
    <glyph glyph-name="itilde" unicode="&#x129;" horiz-adv-x="587" 
d="M440 0h-290v1051h290v-1051zM96 1227h-174v67q0 129 52.5 181.5t146.5 52.5q57 0 116.5 -26t109 -51.5t81.5 -25.5q64 0 64 86v21h172v-53q0 -75 -14 -126t-42 -78.5t-62.5 -38.5t-82.5 -11q-59 0 -117.5 25.5t-106.5 51t-81 25.5q-62 0 -62 -65v-35z" />
    <glyph glyph-name="Imacron" unicode="&#x12a;" horiz-adv-x="690" 
d="M195 0v1446h303v-1446h-303zM-4 1626v193h694v-193h-694z" />
    <glyph glyph-name="imacron" unicode="&#x12b;" horiz-adv-x="587" 
d="M440 0h-290v1051h290v-1051zM-35 1286v195h653v-195h-653z" />
    <glyph glyph-name="Iogonek" unicode="&#x12e;" horiz-adv-x="690" 
d="M195 0v1446h303v-1446h-29q-113 -87 -113 -184q0 -101 115 -101q58 0 113 17v-189q-68 -37 -195 -37q-130 0 -202 64t-72 180q0 134 116 250h-36z" />
    <glyph glyph-name="iogonek" unicode="&#x12f;" horiz-adv-x="587" 
d="M174 0h-24v1051h290v-1051h-28q-113 -87 -113 -184q0 -101 115 -101q57 0 112 17v-189q-68 -37 -194 -37q-130 0 -202.5 64t-72.5 180q0 133 117 250zM440 1274h-290v256h290v-256z" />
    <glyph glyph-name="Idotaccent" unicode="&#x130;" horiz-adv-x="690" 
d="M195 0v1446h303v-1446h-303zM494 1602h-291v256h291v-256z" />
    <glyph glyph-name="dotlessi" unicode="&#x131;" horiz-adv-x="587" 
d="M440 0h-290v1051h290v-1051z" />
    <glyph glyph-name="Jcircumflex" unicode="&#x134;" horiz-adv-x="942" 
d="M57 -14v241q75 -10 162 -10q125 0 183.5 68t58.5 209v952h305v-936q0 -286 -122.5 -413.5t-381.5 -127.5q-101 0 -205 17zM172 1569l281 280h313l281 -280h-271l-170 157l-164 -157h-270z" />
    <glyph glyph-name="jcircumflex" unicode="&#x135;" horiz-adv-x="593" 
d="M-37 -475v225h21q93 0 132.5 45.5t39.5 155.5v1100h288v-1026q0 -95 -9 -165t-36.5 -136.5t-74.5 -108.5t-126 -67t-188 -25q-12 0 -29 1t-18 1zM-115 1219l271 321h276l270 -321h-251l-160 184l-150 -184h-256z" />
    <glyph glyph-name="uni0136" unicode="&#x136;" horiz-adv-x="1581" 
d="M498 0h-303v1446h303v-658q693 618 737 658h377l-699 -621l738 -825h-381l-576 659l-196 -161v-498zM723 -147h240q0 -100 -30 -211.5t-87 -182.5h-230q107 203 107 394z" />
    <glyph glyph-name="uni0137" unicode="&#x137;" horiz-adv-x="1308" 
d="M150 0v1530h288v-948q60 61 249 239t243 230h346l-457 -404l504 -647h-352l-357 485l-176 -147v-338h-288zM588 -147h239q0 -100 -29.5 -211.5t-86.5 -182.5h-230q107 203 107 394z" />
    <glyph glyph-name="kgreenlandic" unicode="&#x138;" horiz-adv-x="1296" 
d="M150 0v1051h288v-473q47 47 233 222t261 251h346q-253 -216 -471 -418q13 -16 231 -284t289 -349h-354q-31 43 -183.5 235t-189.5 246l-162 -131v-350h-288z" />
    <glyph glyph-name="Lacute" unicode="&#x139;" horiz-adv-x="1357" 
d="M496 246h831l-41 -246h-1091v1446h301v-1200zM195 1583l344 285h374l-436 -285h-282z" />
    <glyph glyph-name="lacute" unicode="&#x13a;" horiz-adv-x="587" 
d="M147 1640l273 244h340l-342 -244h-271zM438 0h-288v1530h288v-1530z" />
    <glyph glyph-name="uni013B" unicode="&#x13b;" horiz-adv-x="1357" 
d="M496 246h831l-41 -246h-1091v1446h301v-1200zM629 -147h239q0 -100 -29.5 -211.5t-86.5 -182.5h-230q107 203 107 394z" />
    <glyph glyph-name="uni013C" unicode="&#x13c;" horiz-adv-x="587" 
d="M438 0h-288v1530h288v-1530zM176 -147h240q0 -100 -30 -211.5t-87 -182.5h-229q106 201 106 394z" />
    <glyph glyph-name="Lcaron" unicode="&#x13d;" horiz-adv-x="1357" 
d="M496 246h831l-41 -246h-1091v1446h301v-1200zM1036 860h-209l-14 586h234z" />
    <glyph glyph-name="lcaron" unicode="&#x13e;" horiz-adv-x="747" 
d="M438 0h-288v1530h288v-1530zM778 944h-209l-14 586h233z" />
    <glyph glyph-name="Ldot" unicode="&#x13f;" horiz-adv-x="1357" 
d="M1059 641h-289v356h289v-356zM496 246h831l-41 -246h-1091v1446h301v-1200z" />
    <glyph glyph-name="ldot" unicode="&#x140;" horiz-adv-x="729" 
d="M780 688h-243v363h243v-363zM438 0h-288v1530h288v-1530z" />
    <glyph glyph-name="Lslash" unicode="&#x141;" horiz-adv-x="1357" 
d="M195 0v604l-209 -92v207l209 92v635h301v-502l374 164v-209l-374 -164v-489h831l-41 -246h-1091z" />
    <glyph glyph-name="lslash" unicode="&#x142;" horiz-adv-x="643" 
d="M467 0h-289v657l-155 -82v213l155 82v660h289v-506l176 94v-213l-176 -94v-811z" />
    <glyph glyph-name="Nacute" unicode="&#x143;" horiz-adv-x="1746" 
d="M473 0h-278v1446h358q147 -218 326.5 -475t271.5 -392.5t131 -207.5h4q-12 141 -12 657v418h280v-1446h-337q-656 972 -752 1145h-4q12 -182 12 -643v-502zM702 1583l345 285h374l-436 -285h-283z" />
    <glyph glyph-name="nacute" unicode="&#x144;" horiz-adv-x="1355" 
d="M440 0h-290v786q0 151 -3 265h283q3 -22 8 -154q20 34 47.5 63.5t69.5 57.5t104.5 44.5t137.5 16.5q193 0 302 -114t109 -320v-645h-293v598q0 114 -51 184t-166 70q-129 0 -193.5 -87.5t-64.5 -246.5v-518zM502 1233l282 319h334l-358 -319h-258z" />
    <glyph glyph-name="uni0145" unicode="&#x145;" horiz-adv-x="1746" 
d="M473 0h-278v1446h358q147 -218 326.5 -475t271.5 -392.5t131 -207.5h4q-12 141 -12 657v418h280v-1446h-337q-656 972 -752 1145h-4q12 -182 12 -643v-502zM774 -133h240q0 -100 -30 -211t-87 -182h-229q106 201 106 393z" />
    <glyph glyph-name="uni0146" unicode="&#x146;" horiz-adv-x="1355" 
d="M440 0h-290v786q0 151 -3 265h283q3 -22 8 -154q20 34 47.5 63.5t69.5 57.5t104.5 44.5t137.5 16.5q193 0 302 -114t109 -320v-645h-293v598q0 114 -51 184t-166 70q-129 0 -193.5 -87.5t-64.5 -246.5v-518zM575 -147h240q0 -100 -30 -211.5t-87 -182.5h-229
q106 201 106 394z" />
    <glyph glyph-name="Ncaron" unicode="&#x147;" horiz-adv-x="1746" 
d="M473 0h-278v1446h358q147 -218 326.5 -475t271.5 -392.5t131 -207.5h4q-12 141 -12 657v418h280v-1446h-337q-656 972 -752 1145h-4q12 -182 12 -643v-502zM1030 1569h-315l-279 280h271l170 -157l163 157h271z" />
    <glyph glyph-name="ncaron" unicode="&#x148;" horiz-adv-x="1355" 
d="M440 0h-290v786q0 151 -3 265h283q3 -22 8 -154q20 34 47.5 63.5t69.5 57.5t104.5 44.5t137.5 16.5q193 0 302 -114t109 -320v-645h-293v598q0 114 -51 184t-166 70q-129 0 -193.5 -87.5t-64.5 -246.5v-518zM817 1212h-276l-271 322h254l158 -184l149 184h256z" />
    <glyph glyph-name="napostrophe" unicode="&#x149;" horiz-adv-x="1355" 
d="M133 1630h244q-12 -108 -55 -230.5t-93 -199.5h-215q42 95 73.5 211.5t45.5 218.5zM440 0h-290v786q0 151 -3 265h283q3 -22 8 -154q20 34 47.5 63.5t69.5 57.5t104.5 44.5t137.5 16.5q193 0 302 -114t109 -320v-645h-293v598q0 114 -51 184t-166 70q-129 0 -193.5 -87.5
t-64.5 -246.5v-518z" />
    <glyph glyph-name="Omacron" unicode="&#x14c;" horiz-adv-x="1757" 
d="M104 727q0 150 55 285.5t153.5 239t247 164.5t323.5 61q179 0 327 -61t244 -165t148.5 -238.5t52.5 -283.5q0 -153 -51.5 -289t-147.5 -241.5t-247.5 -167.5t-338.5 -62q-141 0 -263.5 38t-214 107.5t-157 163.5t-98.5 208.5t-33 240.5zM887 211q112 0 200 43
t140.5 116.5t79 163.5t26.5 191q0 104 -28.5 194.5t-83.5 162.5t-145 113.5t-204 41.5q-87 0 -161 -27.5t-126 -75t-89 -111.5t-54.5 -138t-17.5 -154q0 -108 29.5 -201.5t86 -165t146 -112.5t201.5 -41zM522 1636v193h695v-193h-695z" />
    <glyph glyph-name="omacron" unicode="&#x14d;" horiz-adv-x="1343" 
d="M82 526q0 111 39.5 210t112.5 176t187.5 122t254.5 45q115 0 212.5 -32t165 -86t115.5 -125.5t70.5 -150t22.5 -159.5q0 -118 -40 -219t-114 -176t-188.5 -117.5t-255.5 -42.5q-138 0 -250.5 45.5t-184 123t-109.5 176.5t-38 210zM672 195q142 0 216.5 93t74.5 234
t-76 238.5t-217 97.5q-96 0 -163 -47t-97.5 -120.5t-30.5 -164.5q0 -139 78 -235t215 -96zM344 1286v195h653v-195h-653z" />
    <glyph glyph-name="Ohungarumlaut" unicode="&#x150;" horiz-adv-x="1757" 
d="M494 1589l249 285h283l-301 -285h-231zM952 1589l250 285h283l-301 -285h-232zM104 727q0 150 55 285.5t153.5 239t247 164.5t323.5 61q179 0 327 -61t244 -165t148.5 -238.5t52.5 -283.5q0 -153 -51.5 -289t-147.5 -241.5t-247.5 -167.5t-338.5 -62q-141 0 -263.5 38
t-214 107.5t-157 163.5t-98.5 208.5t-33 240.5zM887 211q112 0 200 43t140.5 116.5t79 163.5t26.5 191q0 104 -28.5 194.5t-83.5 162.5t-145 113.5t-204 41.5q-87 0 -161 -27.5t-126 -75t-89 -111.5t-54.5 -138t-17.5 -154q0 -108 29.5 -201.5t86 -165t146 -112.5t201.5 -41
z" />
    <glyph glyph-name="ohungarumlaut" unicode="&#x151;" horiz-adv-x="1343" 
d="M547 1202h-211l227 328h260zM969 1202h-211l227 328h260zM82 526q0 111 39.5 210t112.5 176t187.5 122t254.5 45q115 0 212.5 -32t165 -86t115.5 -125.5t70.5 -150t22.5 -159.5q0 -118 -40 -219t-114 -176t-188.5 -117.5t-255.5 -42.5q-138 0 -250.5 45.5t-184 123
t-109.5 176.5t-38 210zM672 195q142 0 216.5 93t74.5 234t-76 238.5t-217 97.5q-96 0 -163 -47t-97.5 -120.5t-30.5 -164.5q0 -139 78 -235t215 -96z" />
    <glyph glyph-name="OE" unicode="&#x152;" horiz-adv-x="2402" 
d="M1487 246h842l-37 -246h-1063q-120 -18 -301 -18q-167 0 -305 40t-232.5 109.5t-159.5 164.5t-95 202t-30 225q0 154 56.5 288t160.5 234.5t265 158.5t358 58q142 0 289 -16h1046v-246h-794v-323h751v-246h-751v-385zM428 727q0 -234 141.5 -370t370.5 -136q155 0 242 23
v958q-94 23 -228 23q-155 0 -271.5 -53t-185.5 -167t-69 -278z" />
    <glyph glyph-name="oe" unicode="&#x153;" horiz-adv-x="2179" 
d="M1800 315h291q-24 -71 -65.5 -129.5t-106 -108.5t-160.5 -78t-215 -28q-143 0 -251.5 49.5t-178.5 133.5q-75 -85 -189.5 -134t-260.5 -49q-138 0 -250.5 45.5t-183.5 123t-109 176.5t-39 210q0 111 39.5 210t112.5 176t187.5 122t254.5 45q276 0 434 -186q72 88 182 137
t248 49q118 0 214 -32t160 -85.5t107.5 -126t62.5 -150t19 -159.5v-69h-843q6 -117 84 -192t206 -75q98 0 157 31.5t93 93.5zM672 195q142 0 216.5 93t74.5 234t-76 238.5t-217 97.5q-96 0 -163 -47t-97.5 -120.5t-30.5 -164.5q0 -139 78 -235t215 -96zM1540 872
q-127 0 -196 -65.5t-80 -167.5h544q-3 39 -18 76.5t-44 74.5t-82 59.5t-124 22.5z" />
    <glyph glyph-name="Racute" unicode="&#x154;" horiz-adv-x="1579" 
d="M195 0v1446h757q241 0 377.5 -108.5t136.5 -297.5q0 -133 -68 -220.5t-188 -123.5q29 -10 51.5 -20.5t56.5 -37t56 -61t39 -93.5t17 -132v-67v-34.5v-36.5v-34t0.5 -35.5t1.5 -32t2 -33t2.5 -28t4 -28t5.5 -23.5h-311q-16 43 -20.5 110t-4.5 191v47q0 129 -61 180.5
t-226 51.5h-327v-580h-301zM496 1214v-403h385q140 0 207 51t67 154q0 198 -268 198h-391zM616 1583l345 285h374l-436 -285h-283z" />
    <glyph glyph-name="racute" unicode="&#x155;" horiz-adv-x="890" 
d="M440 0h-290v766q0 144 -3 285h283q10 -58 10 -217q48 115 152.5 181.5t259.5 63.5v-266q-192 2 -302 -97t-110 -315v-401zM283 1233l282 319h334l-358 -319h-258z" />
    <glyph glyph-name="uni0156" unicode="&#x156;" horiz-adv-x="1579" 
d="M195 0v1446h757q241 0 377.5 -108.5t136.5 -297.5q0 -133 -68 -220.5t-188 -123.5q29 -10 51.5 -20.5t56.5 -37t56 -61t39 -93.5t17 -132v-67v-34.5v-36.5v-34t0.5 -35.5t1.5 -32t2 -33t2.5 -28t4 -28t5.5 -23.5h-311q-16 43 -20.5 110t-4.5 191v47q0 129 -61 180.5
t-226 51.5h-327v-580h-301zM496 1214v-403h385q140 0 207 51t67 154q0 198 -268 198h-391zM707 -113h239q0 -100 -30 -211t-87 -182h-229q107 203 107 393z" />
    <glyph glyph-name="uni0157" unicode="&#x157;" horiz-adv-x="890" 
d="M440 0h-290v766q0 144 -3 285h283q10 -58 10 -217q48 115 152.5 181.5t259.5 63.5v-266q-192 2 -302 -97t-110 -315v-401zM176 -147h240q0 -100 -30 -211.5t-87 -182.5h-229q106 201 106 394z" />
    <glyph glyph-name="Rcaron" unicode="&#x158;" horiz-adv-x="1579" 
d="M195 0v1446h757q241 0 377.5 -108.5t136.5 -297.5q0 -133 -68 -220.5t-188 -123.5q29 -10 51.5 -20.5t56.5 -37t56 -61t39 -93.5t17 -132v-67v-34.5v-36.5v-34t0.5 -35.5t1.5 -32t2 -33t2.5 -28t4 -28t5.5 -23.5h-311q-16 43 -20.5 110t-4.5 191v47q0 129 -61 180.5
t-226 51.5h-327v-580h-301zM496 1214v-403h385q140 0 207 51t67 154q0 198 -268 198h-391zM938 1569h-315l-279 280h270l170 -157l164 157h271z" />
    <glyph glyph-name="rcaron" unicode="&#x159;" horiz-adv-x="890" 
d="M440 0h-290v766q0 144 -3 285h283q10 -58 10 -217q48 115 152.5 181.5t259.5 63.5v-266q-192 2 -302 -97t-110 -315v-401zM604 1212h-276l-271 322h254l158 -184l149 184h256z" />
    <glyph glyph-name="Sacute" unicode="&#x15a;" horiz-adv-x="1515" 
d="M1352 1063h-303q-9 29 -19.5 50.5t-35 49t-58 44.5t-91 29.5t-132.5 12.5q-136 0 -209.5 -43t-73.5 -125q0 -51 26.5 -83.5t103 -61t220.5 -53.5q158 -28 272.5 -66t182.5 -79.5t107 -96t52 -106t13 -119.5q0 -94 -38.5 -173t-116 -140.5t-207 -96.5t-300.5 -35
q-160 0 -285 34.5t-206.5 97.5t-129.5 144.5t-65 182.5h306q36 -112 131.5 -172.5t275.5 -60.5q324 0 324 188q0 60 -31 100t-119 74.5t-248 61.5q-141 24 -244.5 58t-166.5 72.5t-101 88t-51.5 99t-13.5 112.5q0 135 81 233t215 145.5t304 47.5q140 0 250.5 -28t178 -71
t113.5 -100.5t65 -109.5t24 -105zM567 1589l344 285h375l-436 -285h-283z" />
    <glyph glyph-name="sacute" unicode="&#x15b;" horiz-adv-x="1191" 
d="M1081 758h-286q-33 125 -230 125q-99 0 -137.5 -31t-38.5 -74t49.5 -68.5t198.5 -47.5q122 -18 210 -45.5t139.5 -59t81 -73.5t39 -80.5t9.5 -88.5q0 -73 -29 -134t-89 -109t-161 -74.5t-235 -26.5q-223 0 -368 92.5t-171 258.5h289q48 -148 269 -148q210 0 210 117
q0 36 -21 59.5t-82 42.5t-173 33q-113 15 -196.5 42t-131.5 58t-76.5 71.5t-37.5 76t-9 78.5q0 48 14.5 92.5t50 88t88.5 75.5t135.5 51.5t185.5 19.5q106 0 192 -20t141 -51.5t93 -75t55.5 -86t21.5 -88.5zM418 1233l282 319h334l-358 -319h-258z" />
    <glyph glyph-name="Scircumflex" unicode="&#x15c;" horiz-adv-x="1515" 
d="M1352 1063h-303q-9 29 -19.5 50.5t-35 49t-58 44.5t-91 29.5t-132.5 12.5q-136 0 -209.5 -43t-73.5 -125q0 -51 26.5 -83.5t103 -61t220.5 -53.5q158 -28 272.5 -66t182.5 -79.5t107 -96t52 -106t13 -119.5q0 -94 -38.5 -173t-116 -140.5t-207 -96.5t-300.5 -35
q-160 0 -285 34.5t-206.5 97.5t-129.5 144.5t-65 182.5h306q36 -112 131.5 -172.5t275.5 -60.5q324 0 324 188q0 60 -31 100t-119 74.5t-248 61.5q-141 24 -244.5 58t-166.5 72.5t-101 88t-51.5 99t-13.5 112.5q0 135 81 233t215 145.5t304 47.5q140 0 250.5 -28t178 -71
t113.5 -100.5t65 -109.5t24 -105zM319 1575l281 280h313l281 -280h-270l-170 158l-164 -158h-271z" />
    <glyph glyph-name="scircumflex" unicode="&#x15d;" horiz-adv-x="1191" 
d="M1081 758h-286q-33 125 -230 125q-99 0 -137.5 -31t-38.5 -74t49.5 -68.5t198.5 -47.5q122 -18 210 -45.5t139.5 -59t81 -73.5t39 -80.5t9.5 -88.5q0 -73 -29 -134t-89 -109t-161 -74.5t-235 -26.5q-223 0 -368 92.5t-171 258.5h289q48 -148 269 -148q210 0 210 117
q0 36 -21 59.5t-82 42.5t-173 33q-113 15 -196.5 42t-131.5 58t-76.5 71.5t-37.5 76t-9 78.5q0 48 14.5 92.5t50 88t88.5 75.5t135.5 51.5t185.5 19.5q106 0 192 -20t141 -51.5t93 -75t55.5 -86t21.5 -88.5zM186 1219l271 321h276l271 -321h-252l-160 184l-150 -184h-256z
" />
    <glyph glyph-name="uni015E" unicode="&#x15e;" horiz-adv-x="1515" 
d="M537 -498v148q66 -15 135 -15q127 0 127 62q0 45 -57.5 60.5t-172.5 17.5v65l113 133q-283 13 -436 135.5t-187 321.5h306q36 -112 131.5 -172.5t275.5 -60.5q324 0 324 188q0 60 -31 100t-119 74.5t-248 61.5q-141 24 -244.5 58t-166.5 72.5t-101 88t-51.5 99
t-13.5 112.5q0 135 81 233t215 145.5t304 47.5q140 0 250.5 -28t178 -71t113.5 -100.5t65 -109.5t24 -105h-303q-9 29 -19.5 50.5t-35 49t-58 44.5t-91 29.5t-132.5 12.5q-136 0 -209.5 -43t-73.5 -125q0 -51 26.5 -83.5t103 -61t220.5 -53.5q158 -28 272.5 -66t182.5 -79.5
t107 -96t52 -106t13 -119.5q0 -173 -128.5 -292t-389.5 -147l-74 -83q35 -5 68 -17t67.5 -33.5t55 -59t20.5 -85.5q0 -52 -20.5 -91.5t-51.5 -63t-74.5 -38t-83.5 -19.5t-83 -5q-110 0 -176 20z" />
    <glyph glyph-name="uni015F" unicode="&#x15f;" horiz-adv-x="1191" 
d="M373 -498v148q66 -15 135 -15q127 0 127 62q0 45 -57.5 60.5t-171.5 17.5v65l112 135q-189 15 -310.5 106t-144.5 241h289q48 -148 269 -148q210 0 210 117q0 36 -21 59.5t-82 42.5t-173 33q-113 15 -196.5 42t-131.5 58t-76.5 71.5t-37.5 76t-9 78.5q0 48 14.5 92.5
t50 88t88.5 75.5t135.5 51.5t185.5 19.5q106 0 192 -20t141 -51.5t93 -75t55.5 -86t21.5 -88.5h-286q-33 125 -230 125q-99 0 -137.5 -31t-38.5 -74t49.5 -68.5t198.5 -47.5q122 -18 210 -45.5t139.5 -59t81 -73.5t39 -80.5t9.5 -88.5q0 -134 -96 -225t-295 -113l-74 -83
q35 -5 68 -17t67.5 -33.5t55 -59t20.5 -85.5q0 -52 -20.5 -91.5t-51.5 -63t-74.5 -38t-83.5 -19.5t-83 -5q-110 0 -176 20z" />
    <glyph glyph-name="Scaron" unicode="&#x160;" horiz-adv-x="1515" 
d="M1352 1063h-303q-9 29 -19.5 50.5t-35 49t-58 44.5t-91 29.5t-132.5 12.5q-136 0 -209.5 -43t-73.5 -125q0 -51 26.5 -83.5t103 -61t220.5 -53.5q158 -28 272.5 -66t182.5 -79.5t107 -96t52 -106t13 -119.5q0 -94 -38.5 -173t-116 -140.5t-207 -96.5t-300.5 -35
q-160 0 -285 34.5t-206.5 97.5t-129.5 144.5t-65 182.5h306q36 -112 131.5 -172.5t275.5 -60.5q324 0 324 188q0 60 -31 100t-119 74.5t-248 61.5q-141 24 -244.5 58t-166.5 72.5t-101 88t-51.5 99t-13.5 112.5q0 135 81 233t215 145.5t304 47.5q140 0 250.5 -28t178 -71
t113.5 -100.5t65 -109.5t24 -105zM913 1583h-315l-279 281h271l170 -158l164 158h270z" />
    <glyph glyph-name="scaron" unicode="&#x161;" horiz-adv-x="1191" 
d="M1081 758h-286q-33 125 -230 125q-99 0 -137.5 -31t-38.5 -74t49.5 -68.5t198.5 -47.5q122 -18 210 -45.5t139.5 -59t81 -73.5t39 -80.5t9.5 -88.5q0 -73 -29 -134t-89 -109t-161 -74.5t-235 -26.5q-223 0 -368 92.5t-171 258.5h289q48 -148 269 -148q210 0 210 117
q0 36 -21 59.5t-82 42.5t-173 33q-113 15 -196.5 42t-131.5 58t-76.5 71.5t-37.5 76t-9 78.5q0 48 14.5 92.5t50 88t88.5 75.5t135.5 51.5t185.5 19.5q106 0 192 -20t141 -51.5t93 -75t55.5 -86t21.5 -88.5zM733 1212h-276l-271 322h254l158 -184l150 184h256z" />
    <glyph glyph-name="uni0162" unicode="&#x162;" horiz-adv-x="1382" 
d="M449 -498v148q66 -15 135 -15q127 0 127 62q0 45 -57.5 60.5t-172.5 17.5v65l135 160h-75v1202h-525v244h1350v-244h-522v-1202h-25l-92 -106q35 -5 68 -17t67.5 -33.5t55 -59t20.5 -85.5q0 -52 -20.5 -91.5t-51.5 -63t-74.5 -38t-83.5 -19.5t-83 -5q-110 0 -176 20z" />
    <glyph glyph-name="uni0163" unicode="&#x163;" horiz-adv-x="829" 
d="M236 -471v147q61 -14 135 -14q127 0 127 62q0 45 -57.5 60t-172.5 17v66l123 145q-89 30 -126.5 101.5t-37.5 191.5v533h-194v213h194v319h291v-319h254v-213h-254v-486q0 -79 26.5 -112t102.5 -33q55 0 94 8v-201q-51 -18 -166 -22l-61 -72q36 -5 68.5 -16.5t67 -33
t55 -59t20.5 -85.5q0 -64 -29.5 -109.5t-79 -67.5t-99.5 -31.5t-105 -9.5q-107 0 -176 21z" />
    <glyph glyph-name="Tcaron" unicode="&#x164;" horiz-adv-x="1382" 
d="M844 0h-303v1202h-525v244h1350v-244h-522v-1202zM846 1569h-316l-278 280h270l170 -157l164 157h270z" />
    <glyph glyph-name="tcaron" unicode="&#x165;" horiz-adv-x="829" 
d="M852 1214h-162l-14 461h203zM227 305v533h-194v213h194v319h291v-319h254v-213h-254v-486q0 -79 26.5 -112t102.5 -33q55 0 94 8v-201q-65 -22 -194 -22q-178 0 -249 75.5t-71 237.5z" />
    <glyph glyph-name="Utilde" unicode="&#x168;" horiz-adv-x="1685" 
d="M178 610v836h303v-819q0 -416 373 -416q84 0 145.5 20t109 66.5t71.5 129t24 200.5v819h303v-825q0 -330 -171 -491t-492 -161q-317 0 -491.5 157t-174.5 484zM633 1589h-184v56q0 239 206 239q58 0 125 -25t123 -50t88 -25t46 17t14 65v18h180v-45q0 -144 -51.5 -201
t-143.5 -57q-46 0 -100 16.5t-94 37t-84 37t-72 16.5q-53 0 -53 -70v-29z" />
    <glyph glyph-name="utilde" unicode="&#x169;" horiz-adv-x="1337" 
d="M147 406v645h289v-596q0 -117 50 -185.5t159 -68.5q136 0 195 85.5t59 282.5v482h291v-744v-307h-283q-1 9 -6 141q-22 -39 -48 -67t-67.5 -52.5t-102.5 -37.5t-142 -13q-177 0 -285.5 108t-108.5 327zM471 1227h-174v67q0 129 52.5 181.5t146.5 52.5q57 0 116.5 -26
t109 -51.5t81.5 -25.5q30 0 46.5 19t16.5 67v21h172v-53q0 -75 -14 -126t-42 -78.5t-62 -38.5t-82 -11q-47 0 -94.5 16t-79.5 35t-68.5 35t-63.5 16q-61 0 -61 -65v-35z" />
    <glyph glyph-name="Umacron" unicode="&#x16a;" horiz-adv-x="1685" 
d="M178 610v836h303v-819q0 -416 373 -416q84 0 145.5 20t109 66.5t71.5 129t24 200.5v819h303v-825q0 -330 -171 -491t-492 -161q-317 0 -491.5 157t-174.5 484zM492 1626v193h694v-193h-694z" />
    <glyph glyph-name="umacron" unicode="&#x16b;" horiz-adv-x="1337" 
d="M147 406v645h289v-596q0 -117 50 -185.5t159 -68.5q136 0 195 85.5t59 282.5v482h291v-744v-307h-283q-1 9 -6 141q-22 -39 -48 -67t-67.5 -52.5t-102.5 -37.5t-142 -13q-177 0 -285.5 108t-108.5 327zM340 1286v195h653v-195h-653z" />
    <glyph glyph-name="Ubreve" unicode="&#x16c;" horiz-adv-x="1685" 
d="M178 610v836h303v-819q0 -416 373 -416q84 0 145.5 20t109 66.5t71.5 129t24 200.5v819h303v-825q0 -330 -171 -491t-492 -161q-317 0 -491.5 157t-174.5 484zM1026 1872h197q-10 -60 -36.5 -111.5t-71.5 -95.5t-116.5 -69t-160.5 -25q-94 0 -167.5 28t-116.5 74t-66 96
t-29 103h198q15 -54 63.5 -85.5t119.5 -31.5q83 0 124.5 31.5t61.5 85.5z" />
    <glyph glyph-name="ubreve" unicode="&#x16d;" horiz-adv-x="1337" 
d="M147 406v645h289v-596q0 -117 50 -185.5t159 -68.5q136 0 195 85.5t59 282.5v482h291v-744v-307h-283q-1 9 -6 141q-22 -39 -48 -67t-67.5 -52.5t-102.5 -37.5t-142 -13q-177 0 -285.5 108t-108.5 327zM834 1544h196q-10 -69 -35.5 -126.5t-69 -104t-110.5 -73
t-151 -26.5q-89 0 -158.5 27.5t-111 75.5t-64 105t-27.5 122h199q32 -141 166 -141q42 0 72.5 11t48.5 33t27.5 44t17.5 53z" />
    <glyph glyph-name="Uring" unicode="&#x16e;" horiz-adv-x="1685" 
d="M178 610v836h303v-819q0 -416 373 -416q84 0 145.5 20t109 66.5t71.5 129t24 200.5v819h303v-825q0 -330 -171 -491t-492 -161q-317 0 -491.5 157t-174.5 484zM588 1763q0 96 67.5 160t186.5 64q120 0 187 -62t67 -160t-68.5 -160.5t-183.5 -62.5q-120 0 -188 62t-68 159
zM735 1765q0 -43 26 -72.5t79 -29.5q54 0 81 28.5t27 71.5q0 44 -26.5 74.5t-79.5 30.5t-80 -30t-27 -73z" />
    <glyph glyph-name="uring" unicode="&#x16f;" horiz-adv-x="1337" 
d="M147 406v645h289v-596q0 -117 50 -185.5t159 -68.5q136 0 195 85.5t59 282.5v482h291v-744v-307h-283q-1 9 -6 141q-22 -39 -48 -67t-67.5 -52.5t-102.5 -37.5t-142 -13q-177 0 -285.5 108t-108.5 327zM414 1384q0 96 67.5 160t186.5 64q120 0 187 -62t67 -160
t-68.5 -160.5t-183.5 -62.5q-120 0 -188 62t-68 159zM561 1386q0 -43 26 -72.5t79 -29.5q54 0 81 28.5t27 71.5q0 44 -26.5 74.5t-79.5 30.5t-80 -30t-27 -73z" />
    <glyph glyph-name="Uhungarumlaut" unicode="&#x170;" horiz-adv-x="1685" 
d="M465 1583l250 285h282l-301 -285h-231zM924 1583l250 285h282l-301 -285h-231zM178 610v836h303v-819q0 -416 373 -416q84 0 145.5 20t109 66.5t71.5 129t24 200.5v819h303v-825q0 -330 -171 -491t-492 -161q-317 0 -491.5 157t-174.5 484z" />
    <glyph glyph-name="uhungarumlaut" unicode="&#x171;" horiz-adv-x="1337" 
d="M543 1202h-211l227 328h260zM965 1202h-211l227 328h260zM147 406v645h289v-596q0 -117 50 -185.5t159 -68.5q136 0 195 85.5t59 282.5v482h291v-744v-307h-283q-1 9 -6 141q-22 -39 -48 -67t-67.5 -52.5t-102.5 -37.5t-142 -13q-177 0 -285.5 108t-108.5 327z" />
    <glyph glyph-name="Uogonek" unicode="&#x172;" horiz-adv-x="1685" 
d="M848 -31h-4q-317 0 -491.5 157t-174.5 484v836h303v-819q0 -416 373 -416q84 0 145.5 20t109 66.5t71.5 129t24 200.5v819h303v-825q0 -255 -104 -409.5t-301 -209.5l12 -2q-113 -87 -113 -184q0 -101 115 -101q58 0 113 17v-189q-68 -37 -195 -37q-130 0 -202 64
t-72 180q0 110 88 219z" />
    <glyph glyph-name="uogonek" unicode="&#x173;" horiz-adv-x="1337" 
d="M147 406v645h289v-596q0 -117 50 -185.5t159 -68.5q136 0 195 85.5t59 282.5v482h291v-744v-307h-25q-112 -86 -112 -184q0 -101 114 -101q58 0 113 17v-189q-68 -37 -195 -37q-130 0 -202 64t-72 180q0 133 117 250h-21q-1 9 -6 141q-22 -39 -48 -67t-67.5 -52.5
t-102.5 -37.5t-142 -13q-177 0 -285.5 108t-108.5 327z" />
    <glyph glyph-name="Wcircumflex" unicode="&#x174;" horiz-adv-x="2211" 
d="M776 0h-325l-424 1446h319q16 -58 61.5 -223t74.5 -273t65.5 -250t59.5 -249t32 -175h2q49 272 324 1170h292q275 -935 318 -1159h2q12 70 37 175.5t65 253.5t66 243.5t76.5 272.5t60.5 214h305l-452 -1446h-328q-258 867 -315 1126h-2q-41 -223 -314 -1126zM668 1569
l280 280h314l280 -280h-270l-170 157l-164 -157h-270z" />
    <glyph glyph-name="wcircumflex" unicode="&#x175;" horiz-adv-x="1792" 
d="M350 0l-321 1051h299q172 -643 202 -818h2q58 229 236 818h274q201 -669 228 -809h2q36 190 207 809h284l-340 -1051h-309q-193 630 -219 729h-2q-76 -287 -225 -729h-318zM485 1219l271 321h276l271 -321h-252l-160 184l-150 -184h-256z" />
    <glyph glyph-name="Ycircumflex" unicode="&#x176;" horiz-adv-x="1413" 
d="M858 0h-305v528q0 22 -16 43l-600 875h360q25 -39 92.5 -142t104 -159t87.5 -135.5t84.5 -135t53.5 -92.5q32 59 98.5 163.5t174.5 269.5t151 231h334l-609 -885q-10 -15 -10 -37v-524zM268 1569l281 280h313l281 -280h-271l-170 157l-163 -157h-271z" />
    <glyph glyph-name="ycircumflex" unicode="&#x177;" horiz-adv-x="1247" 
d="M131 -465v238q47 -6 109 -6q54 0 89.5 9t64.5 34t49 56.5t49 90.5l-476 1094h318q227 -552 311 -822h4q101 339 283 822h295l-371 -932q-41 -104 -63.5 -159.5t-55.5 -127.5t-55 -106t-55.5 -77t-64 -60.5t-73.5 -36t-91 -24t-111 -5.5q-101 0 -156 12zM213 1219l270 321
h277l270 -321h-252l-160 184l-149 -184h-256z" />
    <glyph glyph-name="Ydieresis" unicode="&#x178;" horiz-adv-x="1413" 
d="M598 1602h-252v256h252v-256zM1061 1602h-252v256h252v-256zM858 0h-305v528q0 22 -16 43l-600 875h360q25 -39 92.5 -142t104 -159t87.5 -135.5t84.5 -135t53.5 -92.5q32 59 98.5 163.5t174.5 269.5t151 231h334l-609 -885q-10 -15 -10 -37v-524z" />
    <glyph glyph-name="Zacute" unicode="&#x179;" horiz-adv-x="1447" 
d="M55 0v221l918 985h-873v240h1258v-236l-903 -970h966l-37 -240h-1329zM551 1583l344 285h375l-436 -285h-283z" />
    <glyph glyph-name="zacute" unicode="&#x17a;" horiz-adv-x="1163" 
d="M68 0v209l643 618h-607v224h973v-215l-626 -611h675l-36 -225h-1022zM416 1233l282 319h334l-358 -319h-258z" />
    <glyph glyph-name="Zdotaccent" unicode="&#x17b;" horiz-adv-x="1447" 
d="M55 0v221l918 985h-873v240h1258v-236l-903 -970h966l-37 -240h-1329zM870 1602h-290v256h290v-256z" />
    <glyph glyph-name="zdotaccent" unicode="&#x17c;" horiz-adv-x="1163" 
d="M68 0v209l643 618h-607v224h973v-215l-626 -611h675l-36 -225h-1022zM725 1274h-291v256h291v-256z" />
    <glyph glyph-name="Zcaron" unicode="&#x17d;" horiz-adv-x="1447" 
d="M55 0v221l918 985h-873v240h1258v-236l-903 -970h966l-37 -240h-1329zM879 1569h-316l-278 280h270l170 -157l164 157h270z" />
    <glyph glyph-name="zcaron" unicode="&#x17e;" horiz-adv-x="1163" 
d="M68 0v209l643 618h-607v224h973v-215l-626 -611h675l-36 -225h-1022zM723 1212h-277l-270 322h254l158 -184l149 184h256z" />
    <glyph glyph-name="uni018F" unicode="&#x18f;" horiz-adv-x="1665" 
d="M104 811h1135q-10 198 -129 313t-309 115q-283 0 -381 -201h-299q24 68 64 130t101.5 119t137.5 98.5t176.5 66.5t214.5 25q151 0 275 -41.5t208.5 -112.5t142.5 -167t84.5 -202.5t26.5 -222.5q0 -156 -46 -292t-134.5 -242t-231.5 -167t-323 -61q-223 0 -386.5 93.5
t-247 257t-83.5 378.5q0 43 4 113zM1229 596h-809q3 -176 111 -285.5t288 -109.5q184 0 287.5 102.5t122.5 292.5z" />
    <glyph glyph-name="florin" unicode="&#x192;" horiz-adv-x="1306" 
d="M94 -152l51 215q72 -28 148 -28q45 0 72.5 19.5t49.5 74.5t40 160l61 362h-197v207h230l14 82q7 46 16 86.5t25.5 89t37.5 88t53.5 77.5t72 64t94.5 42t119 16q146 0 223 -45l-47 -205q-75 23 -137 23q-72 0 -107.5 -54t-54.5 -164l-16 -100h241v-207h-276l-70 -409
q-13 -80 -31 -141.5t-48.5 -120t-72 -96.5t-103.5 -60.5t-140 -22.5q-145 0 -248 47z" />
    <glyph glyph-name="Ohorn" unicode="&#x1a0;" horiz-adv-x="1757" 
d="M1391 1632h258q14 -52 14 -129q0 -97 -46 -171t-136 -111q85 -100 129.5 -227t44.5 -265q0 -153 -51.5 -289t-147.5 -241.5t-247.5 -167.5t-338.5 -62q-141 0 -263.5 38t-214 107.5t-157 163.5t-98.5 208.5t-33 240.5q0 150 55 285.5t153.5 239t247 164.5t323.5 61
q243 0 422 -109q106 19 106 137q0 65 -20 127zM887 211q112 0 200 43t140.5 116.5t79 163.5t26.5 191q0 104 -28.5 194.5t-83.5 162.5t-145 113.5t-204 41.5q-87 0 -161 -27.5t-126 -75t-89 -111.5t-54.5 -138t-17.5 -154q0 -108 29.5 -201.5t86 -165t146 -112.5t201.5 -41z
" />
    <glyph glyph-name="ohorn" unicode="&#x1a1;" horiz-adv-x="1343" 
d="M1075 1237h258q15 -55 15 -129q0 -95 -43.5 -168.5t-130.5 -112.5q88 -134 88 -301q0 -118 -40 -219t-114 -176t-188.5 -117.5t-255.5 -42.5q-138 0 -250.5 45.5t-184 123t-109.5 176.5t-38 210t39.5 210t112.5 176t187.5 122t254.5 45q203 0 346 -96q74 28 74 127
q0 62 -21 127zM672 195q142 0 216.5 93t74.5 234t-76 238.5t-217 97.5q-96 0 -163 -47t-97.5 -120.5t-30.5 -164.5q0 -139 78 -235t215 -96z" />
    <glyph glyph-name="Uhorn" unicode="&#x1af;" horiz-adv-x="1685" 
d="M178 610v836h303v-819q0 -416 373 -416q84 0 145.5 20t109 66.5t71.5 129t24 200.5v819h170q111 17 111 137q0 62 -21 127h258q15 -56 15 -129q0 -109 -58.5 -189t-171.5 -110v-661q0 -330 -171 -491t-492 -161q-317 0 -491.5 157t-174.5 484z" />
    <glyph glyph-name="uhorn" unicode="&#x1b0;" horiz-adv-x="1337" 
d="M147 406v645h289v-596q0 -117 50 -185.5t159 -68.5q136 0 195 85.5t59 282.5v482h135q125 12 125 139q0 65 -20 127h258q14 -52 14 -129q0 -107 -56 -186.5t-165 -110.5v-584v-307h-283q-1 9 -6 141q-22 -39 -48 -67t-67.5 -52.5t-102.5 -37.5t-142 -13
q-177 0 -285.5 108t-108.5 327z" />
    <glyph glyph-name="uni01CD" unicode="&#x1cd;" horiz-adv-x="1615" 
d="M6 0l596 1446h383l625 -1446h-330l-154 365h-661l-146 -365h-313zM784 1245h-2q-59 -195 -235 -635h491q-216 521 -254 635zM952 1569h-315l-279 280h271l170 -157l164 157h270z" />
    <glyph glyph-name="uni01CE" unicode="&#x1ce;" horiz-adv-x="1300" 
d="M436 741h-291q3 45 17 87t49.5 89t88.5 81.5t143 57.5t204 23q125 0 218 -23.5t146.5 -59.5t86 -88.5t43 -101.5t10.5 -108v-413q0 -193 8 -285h-272q-13 47 -13 129q-94 -158 -382 -158q-105 0 -185.5 29.5t-127 79.5t-70 109t-23.5 124q0 351 551 351h231v38
q0 81 -47.5 129t-169.5 48q-110 0 -155.5 -36.5t-59.5 -101.5zM868 449v26h-227q-142 0 -207 -35.5t-65 -111.5q0 -64 50.5 -105t149.5 -41q153 0 226 71t73 196zM782 1212h-276l-270 322h253l158 -184l150 184h256z" />
    <glyph glyph-name="uni01CF" unicode="&#x1cf;" horiz-adv-x="690" 
d="M195 0v1446h303v-1446h-303zM502 1569h-316l-278 280h270l170 -157l164 157h270z" />
    <glyph glyph-name="uni01D0" unicode="&#x1d0;" horiz-adv-x="587" 
d="M440 0h-290v1051h290v-1051zM430 1212h-276l-271 322h254l158 -184l149 184h256z" />
    <glyph glyph-name="uni01D1" unicode="&#x1d1;" horiz-adv-x="1757" 
d="M104 727q0 150 55 285.5t153.5 239t247 164.5t323.5 61q179 0 327 -61t244 -165t148.5 -238.5t52.5 -283.5q0 -153 -51.5 -289t-147.5 -241.5t-247.5 -167.5t-338.5 -62q-141 0 -263.5 38t-214 107.5t-157 163.5t-98.5 208.5t-33 240.5zM887 211q112 0 200 43
t140.5 116.5t79 163.5t26.5 191q0 104 -28.5 194.5t-83.5 162.5t-145 113.5t-204 41.5q-87 0 -161 -27.5t-126 -75t-89 -111.5t-54.5 -138t-17.5 -154q0 -108 29.5 -201.5t86 -165t146 -112.5t201.5 -41zM1026 1579h-315l-279 281h270l170 -158l164 158h271z" />
    <glyph glyph-name="uni01D2" unicode="&#x1d2;" horiz-adv-x="1343" 
d="M82 526q0 111 39.5 210t112.5 176t187.5 122t254.5 45q115 0 212.5 -32t165 -86t115.5 -125.5t70.5 -150t22.5 -159.5q0 -118 -40 -219t-114 -176t-188.5 -117.5t-255.5 -42.5q-138 0 -250.5 45.5t-184 123t-109.5 176.5t-38 210zM672 195q142 0 216.5 93t74.5 234
t-76 238.5t-217 97.5q-96 0 -163 -47t-97.5 -120.5t-30.5 -164.5q0 -139 78 -235t215 -96zM809 1212h-277l-270 322h254l158 -184l149 184h256z" />
    <glyph glyph-name="uni01D3" unicode="&#x1d3;" horiz-adv-x="1685" 
d="M178 610v836h303v-819q0 -416 373 -416q84 0 145.5 20t109 66.5t71.5 129t24 200.5v819h303v-825q0 -330 -171 -491t-492 -161q-317 0 -491.5 157t-174.5 484zM997 1569h-315l-279 280h271l170 -157l164 157h270z" />
    <glyph glyph-name="uni01D4" unicode="&#x1d4;" horiz-adv-x="1337" 
d="M147 406v645h289v-596q0 -117 50 -185.5t159 -68.5q136 0 195 85.5t59 282.5v482h291v-744v-307h-283q-1 9 -6 141q-22 -39 -48 -67t-67.5 -52.5t-102.5 -37.5t-142 -13q-177 0 -285.5 108t-108.5 327zM805 1212h-277l-270 322h254l158 -184l149 184h256z" />
    <glyph glyph-name="uni01D5" unicode="&#x1d5;" horiz-adv-x="1685" 
d="M721 1571h-227v215h227v-215zM1190 1907h-696v166h696v-166zM1190 1571h-227v215h227v-215zM178 610v836h303v-819q0 -416 373 -416q84 0 145.5 20t109 66.5t71.5 129t24 200.5v819h303v-825q0 -330 -171 -491t-492 -161q-317 0 -491.5 157t-174.5 484z" />
    <glyph glyph-name="uni01D6" unicode="&#x1d6;" horiz-adv-x="1337" 
d="M567 1167h-227v219h227v-219zM967 1503h-607v176h607v-176zM995 1167h-227v219h227v-219zM147 406v645h289v-596q0 -117 50 -185.5t159 -68.5q136 0 195 85.5t59 282.5v482h291v-744v-307h-283q-1 9 -6 141q-22 -39 -48 -67t-67.5 -52.5t-102.5 -37.5t-142 -13
q-177 0 -285.5 108t-108.5 327z" />
    <glyph glyph-name="uni01D7" unicode="&#x1d7;" horiz-adv-x="1685" 
d="M494 1571v215h227v-215h-227zM954 1868h-247l286 243h318zM1190 1571h-227v215h227v-215zM178 610v836h303v-819q0 -416 373 -416q84 0 145.5 20t109 66.5t71.5 129t24 200.5v819h303v-825q0 -330 -171 -491t-492 -161q-317 0 -491.5 157t-174.5 484z" />
    <glyph glyph-name="uni01D8" unicode="&#x1d8;" horiz-adv-x="1337" 
d="M340 1167v230h227v-230h-227zM768 1489h-244l240 258h311zM995 1167h-227v230h227v-230zM147 406v645h289v-596q0 -117 50 -185.5t159 -68.5q136 0 195 85.5t59 282.5v482h291v-744v-307h-283q-1 9 -6 141q-22 -39 -48 -67t-67.5 -52.5t-102.5 -37.5t-142 -13
q-177 0 -285.5 108t-108.5 327z" />
    <glyph glyph-name="uni01D9" unicode="&#x1d9;" horiz-adv-x="1685" 
d="M721 1571h-227v215h227v-215zM463 2089h242l137 -131l139 131h240l-244 -236h-270zM1190 1571h-227v215h227v-215zM178 610v836h303v-819q0 -416 373 -416q84 0 145.5 20t109 66.5t71.5 129t24 200.5v819h303v-825q0 -330 -171 -491t-492 -161q-317 0 -491.5 157
t-174.5 484z" />
    <glyph glyph-name="uni01DA" unicode="&#x1da;" horiz-adv-x="1337" 
d="M565 1174h-227v215h227v-215zM807 1466h-279l-215 242h234l121 -139l123 139h233zM995 1174h-225v212h225v-212zM147 406v645h289v-596q0 -117 50 -185.5t159 -68.5q136 0 195 85.5t59 282.5v482h291v-744v-307h-283q-1 9 -6 141q-22 -39 -48 -67t-67.5 -52.5
t-102.5 -37.5t-142 -13q-177 0 -285.5 108t-108.5 327z" />
    <glyph glyph-name="uni01DB" unicode="&#x1db;" horiz-adv-x="1685" 
d="M494 1571v215h227v-215h-227zM395 2111h316l286 -243h-252zM1190 1571h-227v215h227v-215zM178 610v836h303v-819q0 -416 373 -416q84 0 145.5 20t109 66.5t71.5 129t24 200.5v819h303v-825q0 -330 -171 -491t-492 -161q-317 0 -491.5 157t-174.5 484z" />
    <glyph glyph-name="uni01DC" unicode="&#x1dc;" horiz-adv-x="1337" 
d="M340 1167v215h227v-215h-227zM565 1473l-305 260h307l242 -260h-244zM995 1167h-227v215h227v-215zM147 406v645h289v-596q0 -117 50 -185.5t159 -68.5q136 0 195 85.5t59 282.5v482h291v-744v-307h-283q-1 9 -6 141q-22 -39 -48 -67t-67.5 -52.5t-102.5 -37.5t-142 -13
q-177 0 -285.5 108t-108.5 327z" />
    <glyph glyph-name="Gcaron" unicode="&#x1e6;" horiz-adv-x="1732" 
d="M897 578v239h684v-817h-223q-18 73 -21 170q-76 -101 -190.5 -151t-310.5 -50q-227 0 -394.5 97.5t-252.5 265.5t-85 385q0 160 53 298t151 241t248 162t335 59q132 0 242.5 -27t186.5 -71.5t133 -104.5t87.5 -121.5t44.5 -128.5h-307q-12 31 -30 58.5t-50 58t-72.5 52
t-101.5 36t-133 14.5q-116 0 -206.5 -39.5t-146.5 -109.5t-85 -162t-29 -201q0 -154 50.5 -270.5t158 -186t260.5 -69.5q192 0 292.5 91.5t100.5 252.5v29h-389zM1020 1575h-315l-279 280h270l170 -157l164 157h270z" />
    <glyph glyph-name="gcaron" unicode="&#x1e7;" horiz-adv-x="1388" 
d="M92 -109h293q24 -69 86 -110t188 -41q71 0 124 18.5t85.5 49.5t52 78.5t26.5 98.5t7 117v50q-52 -81 -135.5 -123.5t-228.5 -42.5q-148 0 -265 71t-180 191t-63 264q0 162 71.5 292.5t193 202.5t267.5 72q81 0 144 -15t101.5 -40.5t60.5 -50.5t34 -53q0 84 7 131h280
q-2 -102 -2 -308v-618q0 -148 -31.5 -257t-101 -187.5t-185 -118t-278.5 -39.5q-93 0 -171.5 14.5t-132 37.5t-96.5 56t-68.5 65.5t-44 70.5t-26 66t-12.5 58zM668 213q139 0 214.5 82.5t75.5 239.5q0 148 -72.5 232.5t-207.5 84.5q-143 0 -221 -94.5t-78 -235.5
q0 -132 78 -220.5t211 -88.5zM831 1212h-276l-270 322h254l157 -184l150 184h256z" />
    <glyph glyph-name="uni0218" unicode="&#x218;" horiz-adv-x="1515" 
d="M1352 1063h-303q-9 29 -19.5 50.5t-35 49t-58 44.5t-91 29.5t-132.5 12.5q-136 0 -209.5 -43t-73.5 -125q0 -51 26.5 -83.5t103 -61t220.5 -53.5q158 -28 272.5 -66t182.5 -79.5t107 -96t52 -106t13 -119.5q0 -94 -38.5 -173t-116 -140.5t-207 -96.5t-300.5 -35
q-160 0 -285 34.5t-206.5 97.5t-129.5 144.5t-65 182.5h306q36 -112 131.5 -172.5t275.5 -60.5q324 0 324 188q0 60 -31 100t-119 74.5t-248 61.5q-141 24 -244.5 58t-166.5 72.5t-101 88t-51.5 99t-13.5 112.5q0 135 81 233t215 145.5t304 47.5q140 0 250.5 -28t178 -71
t113.5 -100.5t65 -109.5t24 -105zM690 -147h240q0 -100 -30 -211.5t-87 -182.5h-229q106 201 106 394z" />
    <glyph glyph-name="uni0219" unicode="&#x219;" horiz-adv-x="1191" 
d="M1081 758h-286q-33 125 -230 125q-99 0 -137.5 -31t-38.5 -74t49.5 -68.5t198.5 -47.5q122 -18 210 -45.5t139.5 -59t81 -73.5t39 -80.5t9.5 -88.5q0 -73 -29 -134t-89 -109t-161 -74.5t-235 -26.5q-223 0 -368 92.5t-171 258.5h289q48 -148 269 -148q210 0 210 117
q0 36 -21 59.5t-82 42.5t-173 33q-113 15 -196.5 42t-131.5 58t-76.5 71.5t-37.5 76t-9 78.5q0 48 14.5 92.5t50 88t88.5 75.5t135.5 51.5t185.5 19.5q106 0 192 -20t141 -51.5t93 -75t55.5 -86t21.5 -88.5zM516 -147h240q0 -100 -30 -211.5t-87 -182.5h-229
q106 201 106 394z" />
    <glyph glyph-name="uni021A" unicode="&#x21a;" horiz-adv-x="1382" 
d="M844 0h-303v1202h-525v244h1350v-244h-522v-1202zM575 -147h240q0 -100 -30 -211.5t-87 -182.5h-229q106 201 106 394z" />
    <glyph glyph-name="uni021B" unicode="&#x21b;" horiz-adv-x="829" 
d="M227 305v533h-194v213h194v319h291v-319h254v-213h-254v-486q0 -79 26.5 -112t102.5 -33q55 0 94 8v-201q-65 -22 -194 -22q-178 0 -249 75.5t-71 237.5zM346 -147h240q0 -100 -30 -211.5t-87 -182.5h-229q106 201 106 394z" />
    <glyph glyph-name="uni0237" unicode="&#x237;" horiz-adv-x="593" 
d="M-37 -475v225h21q93 0 132.5 45.5t39.5 155.5v1100h288v-1026q0 -95 -9 -165t-36.5 -136.5t-74.5 -108.5t-126 -67t-188 -25q-12 0 -29 1t-18 1z" />
    <glyph glyph-name="uni0251" unicode="&#x251;" horiz-adv-x="1390" 
d="M1257 0h-262q-4 14 -7.5 38.5t-6 56t-4.5 46.5q-110 -170 -383 -170q-222 0 -367 151t-145 394q0 134 47 243.5t125 178t173 105t196 36.5q225 0 331 -125v97h291v-760q0 -201 12 -291zM672 201q145 0 218 87t73 238q0 147 -69.5 236.5t-213.5 89.5q-97 0 -166.5 -47
t-101 -120t-31.5 -163q0 -138 77.5 -229.5t213.5 -91.5z" />
    <glyph glyph-name="uni0259" unicode="&#x259;" horiz-adv-x="1275" 
d="M354 735h-288q24 71 65 129.5t105 108.5t159.5 78t214.5 28q120 0 218.5 -32t163.5 -85t110 -125t64.5 -149.5t19.5 -161.5q0 -114 -38.5 -214.5t-109.5 -176.5t-180.5 -120t-243.5 -44q-118 0 -214 32t-160 85.5t-107.5 125.5t-62.5 149.5t-19 160.5q0 41 2 70h844
q-8 117 -86 191.5t-205 74.5q-99 0 -157.5 -31.5t-94.5 -93.5zM893 412h-547q3 -41 16.5 -77.5t41.5 -74t82 -60t128 -22.5q132 0 199.5 65t79.5 169z" />
    <glyph glyph-name="uni0261" unicode="&#x261;" horiz-adv-x="1388" 
d="M92 -109h293q24 -69 86 -110t188 -41q71 0 124 18.5t85.5 49.5t52 78.5t26.5 98.5t7 117v50q-52 -81 -135.5 -123.5t-228.5 -42.5q-148 0 -265 71t-180 191t-63 264q0 162 71.5 292.5t193 202.5t267.5 72q81 0 144 -15t101.5 -40.5t60.5 -50.5t34 -53q0 84 7 131h280
q-2 -102 -2 -308v-618q0 -148 -31.5 -257t-101 -187.5t-185 -118t-278.5 -39.5q-93 0 -171.5 14.5t-132 37.5t-96.5 56t-68.5 65.5t-44 70.5t-26 66t-12.5 58zM668 213q139 0 214.5 82.5t75.5 239.5q0 148 -72.5 232.5t-207.5 84.5q-143 0 -221 -94.5t-78 -235.5
q0 -132 78 -220.5t211 -88.5z" />
    <glyph glyph-name="uni02BB" unicode="&#x2bb;" horiz-adv-x="821" 
d="M502 887h-295q16 158 69.5 342t110.5 299h231q-96 -314 -116 -641z" />
    <glyph glyph-name="uni02BC" unicode="&#x2bc;" horiz-adv-x="821" 
d="M322 1530h296q-18 -159 -71.5 -342.5t-110.5 -298.5h-229q95 325 115 641z" />
    <glyph glyph-name="uni02BE" unicode="&#x2be;" horiz-adv-x="692" 
d="M207 1102v139q49 3 76.5 27t27.5 67q0 40 -29 63.5t-77 28.5v140q121 0 201.5 -61t80.5 -169q0 -113 -82 -174t-198 -61z" />
    <glyph glyph-name="uni02BF" unicode="&#x2bf;" horiz-adv-x="692" 
d="M483 1563v-140q-48 -3 -75 -27.5t-27 -68.5q0 -40 29 -63.5t77 -28.5v-139q-121 0 -201.5 60.5t-80.5 168.5q0 77 40.5 132t102 80.5t135.5 25.5z" />
    <glyph glyph-name="circumflex" unicode="&#x2c6;" 
d="M0 1219l270 321h277l270 -321h-252l-159 184l-150 -184h-256z" />
    <glyph glyph-name="caron" unicode="&#x2c7;" 
d="M547 1212h-277l-270 322h254l158 -184l149 184h256z" />
    <glyph glyph-name="uni02C8" unicode="&#x2c8;" horiz-adv-x="649" 
d="M444 1122h-239v414h239v-414z" />
    <glyph glyph-name="uni02C9" unicode="&#x2c9;" horiz-adv-x="1062" 
d="M205 1286v195h653v-195h-653z" />
    <glyph glyph-name="uni02CA" unicode="&#x2ca;" horiz-adv-x="997" 
d="M221 1233l283 319h334l-359 -319h-258z" />
    <glyph glyph-name="uni02CB" unicode="&#x2cb;" horiz-adv-x="999" 
d="M522 1233l-370 319h335l291 -319h-256z" />
    <glyph glyph-name="uni02CC" unicode="&#x2cc;" horiz-adv-x="649" 
d="M444 -516h-239v414h239v-414z" />
    <glyph glyph-name="breve" unicode="&#x2d8;" 
d="M575 1544h197q-10 -69 -35.5 -126.5t-69 -104t-110.5 -73t-151 -26.5q-89 0 -158.5 27.5t-111 75.5t-64 105t-27.5 122h199q32 -141 166 -141q79 0 113.5 37t51.5 104z" />
    <glyph glyph-name="dotaccent" unicode="&#x2d9;" 
d="M555 1274h-291v256h291v-256z" />
    <glyph glyph-name="ring" unicode="&#x2da;" 
d="M156 1384q0 96 67.5 160t186.5 64q120 0 187 -62t67 -160t-68.5 -160.5t-183.5 -62.5q-120 0 -188 62t-68 159zM303 1386q0 -43 26 -72.5t79 -29.5q54 0 81 28.5t27 71.5q0 44 -26.5 74.5t-79.5 30.5t-80 -30t-27 -73z" />
    <glyph glyph-name="ogonek" unicode="&#x2db;" 
d="M686 -268v-189q-68 -37 -194 -37q-130 0 -202.5 64t-72.5 180q0 74 39 147t102 126l213 -23q-112 -86 -112 -184q0 -101 114 -101q58 0 113 17z" />
    <glyph glyph-name="tilde" unicode="&#x2dc;" 
d="M213 1227h-174v67q0 129 52.5 181.5t146.5 52.5q57 0 116.5 -26t109 -51.5t81.5 -25.5q30 0 46.5 19t16.5 67v21h172v-53q0 -75 -14 -126t-42 -78.5t-62 -38.5t-82 -11q-47 0 -94.5 16t-79.5 35t-68.5 35t-63.5 16q-61 0 -61 -65v-35z" />
    <glyph glyph-name="hungarumlaut" unicode="&#x2dd;" 
d="M285 1202h-211l227 328h260zM707 1202h-211l227 328h260z" />
    <glyph glyph-name="uni0300" unicode="&#x300;" horiz-adv-x="0" 
d="M25 1233l-371 319h336l291 -319h-256z" />
    <glyph glyph-name="uni0301" unicode="&#x301;" horiz-adv-x="0" 
d="M-281 1233l283 319h334l-359 -319h-258z" />
    <glyph glyph-name="uni0302" unicode="&#x302;" horiz-adv-x="0" 
d="M-410 1219l271 321h276l271 -321h-252l-160 184l-150 -184h-256z" />
    <glyph glyph-name="uni0303" unicode="&#x303;" horiz-adv-x="0" 
d="M-197 1227h-174v67q0 129 52.5 181.5t146.5 52.5q57 0 116.5 -26t109 -51.5t81.5 -25.5q64 0 64 86v21h172v-53q0 -75 -14 -126t-42 -78.5t-62.5 -38.5t-82.5 -11q-59 0 -117.5 25.5t-106.5 51t-81 25.5q-62 0 -62 -65v-35z" />
    <glyph glyph-name="uni0304" unicode="&#x304;" horiz-adv-x="0" 
d="M-328 1286v195h654v-195h-654z" />
    <glyph glyph-name="uni0306" unicode="&#x306;" horiz-adv-x="0" 
d="M166 1544h196q-10 -69 -35.5 -126.5t-69 -104t-110.5 -73t-151 -26.5q-89 0 -158.5 27.5t-111 75.5t-64 105t-27.5 122h199q32 -141 166 -141q42 0 72.5 11t48.5 33t27.5 44t17.5 53z" />
    <glyph glyph-name="uni0307" unicode="&#x307;" horiz-adv-x="0" 
d="M145 1274h-290v256h290v-256z" />
    <glyph glyph-name="uni0308" unicode="&#x308;" horiz-adv-x="0" 
d="M-100 1274h-252v256h252v-256zM350 1274h-252v256h252v-256z" />
    <glyph glyph-name="uni0309" unicode="&#x309;" horiz-adv-x="0" 
d="M-197 1395l-49 137q96 61 230 61q116 0 176.5 -51t60.5 -137q0 -110 -115 -211h-217q59 59 82 91.5t23 66.5q0 31 -19 51t-57 20q-57 0 -115 -28z" />
    <glyph glyph-name="uni030A" unicode="&#x30a;" horiz-adv-x="0" 
d="M-254 1384q0 96 67.5 160t186.5 64q120 0 187 -62t67 -160t-68.5 -160.5t-183.5 -62.5q-120 0 -188 62t-68 159zM-106 1386q0 -43 25.5 -72.5t78.5 -29.5q54 0 81 28.5t27 71.5q0 44 -26.5 74.5t-79.5 30.5t-79.5 -30t-26.5 -73z" />
    <glyph glyph-name="uni030B" unicode="&#x30b;" horiz-adv-x="0" 
d="M-227 1202h-211l227 328h260zM195 1202h-211l227 328h260z" />
    <glyph glyph-name="uni030C" unicode="&#x30c;" horiz-adv-x="0" 
d="M137 1212h-276l-271 322h254l158 -184l150 184h256z" />
    <glyph glyph-name="uni031B" unicode="&#x31b;" horiz-adv-x="0" 
d="M-63 1321h258q14 -52 14 -129q0 -127 -78 -213t-229 -100l-70 176q125 12 125 139q0 65 -20 127z" />
    <glyph glyph-name="uni0323" unicode="&#x323;" horiz-adv-x="0" 
d="M145 -420h-290v270h290v-270z" />
    <glyph glyph-name="uni0324" unicode="&#x324;" horiz-adv-x="0" 
d="M-100 -397h-252v256h252v-256zM350 -397h-252v256h252v-256z" />
    <glyph glyph-name="uni0326" unicode="&#x326;" horiz-adv-x="0" 
d="M-68 -147h240q0 -100 -30 -211.5t-87 -182.5h-229q106 201 106 394z" />
    <glyph glyph-name="uni0327" unicode="&#x327;" horiz-adv-x="0" 
d="M-236 -498v148q66 -15 136 -15q127 0 127 62q0 45 -57.5 60.5t-172.5 17.5v65l154 183l184 -23l-92 -106q35 -5 68 -17t67.5 -33.5t55 -59t20.5 -85.5q0 -52 -20.5 -91.5t-51.5 -63t-74.5 -38t-83.5 -19.5t-83 -5q-111 0 -177 20z" />
    <glyph glyph-name="uni0328" unicode="&#x328;" horiz-adv-x="0" 
d="M236 -268v-189q-68 -37 -195 -37q-130 0 -202 64t-72 180q0 74 39 147t102 126l213 -23q-113 -87 -113 -184q0 -101 115 -101q58 0 113 17z" />
    <glyph glyph-name="uni032E" unicode="&#x32e;" horiz-adv-x="0" 
d="M166 -121h196q-10 -69 -35.5 -126.5t-69 -104t-110.5 -73t-151 -26.5q-89 0 -158.5 27.5t-111 75.5t-64 105t-27.5 122h199q32 -141 166 -141q42 0 72.5 11t48.5 33t27.5 44t17.5 53z" />
    <glyph glyph-name="uni0331" unicode="&#x331;" horiz-adv-x="0" 
d="M-328 -367v195h654v-195h-654z" />
    <glyph glyph-name="pi" unicode="&#x3c0;" horiz-adv-x="1314" 
d="M174 0v838q-133 0 -176 -7l2 205q74 15 336 15h950v-215h-160v-836h-292v838h-373v-838h-287z" />
    <glyph glyph-name="uni1E0C" unicode="&#x1e0c;" horiz-adv-x="1681" 
d="M821 0h-626v1446h632q176 0 319.5 -54.5t236.5 -149.5t143.5 -221.5t50.5 -272.5q0 -170 -59 -311.5t-161.5 -236.5t-240.5 -147.5t-295 -52.5zM498 1208v-968h280q234 0 355.5 130t121.5 369q0 219 -121.5 343.5t-347.5 125.5h-288zM918 -420h-291v270h291v-270z" />
    <glyph glyph-name="uni1E0D" unicode="&#x1e0d;" horiz-adv-x="1394" 
d="M1247 0h-284q-5 42 -9 133q-20 -28 -38 -48.5t-48.5 -43.5t-66.5 -37t-89.5 -23.5t-119.5 -9.5q-223 0 -366.5 152t-143.5 393q0 127 47.5 235.5t124.5 179t173 109.5t196 39q241 0 331 -125v576h291v-1231q0 -201 2 -299zM672 201q145 0 218 86t73 239q0 157 -67 241.5
t-220 84.5q-141 0 -218 -96.5t-77 -233.5t77.5 -229t213.5 -92zM842 -420h-291v270h291v-270z" />
    <glyph glyph-name="uni1E0E" unicode="&#x1e0e;" horiz-adv-x="1681" 
d="M821 0h-626v1446h632q176 0 319.5 -54.5t236.5 -149.5t143.5 -221.5t50.5 -272.5q0 -170 -59 -311.5t-161.5 -236.5t-240.5 -147.5t-295 -52.5zM498 1208v-968h280q234 0 355.5 130t121.5 369q0 219 -121.5 343.5t-347.5 125.5h-288zM451 -367v195h653v-195h-653z" />
    <glyph glyph-name="uni1E0F" unicode="&#x1e0f;" horiz-adv-x="1394" 
d="M1247 0h-284q-5 42 -9 133q-20 -28 -38 -48.5t-48.5 -43.5t-66.5 -37t-89.5 -23.5t-119.5 -9.5q-223 0 -366.5 152t-143.5 393q0 127 47.5 235.5t124.5 179t173 109.5t196 39q241 0 331 -125v576h291v-1231q0 -201 2 -299zM672 201q145 0 218 86t73 239q0 157 -67 241.5
t-220 84.5q-141 0 -218 -96.5t-77 -233.5t77.5 -229t213.5 -92zM369 -367v195h653v-195h-653z" />
    <glyph glyph-name="uni1E20" unicode="&#x1e20;" horiz-adv-x="1732" 
d="M897 578v239h684v-817h-223q-18 73 -21 170q-76 -101 -190.5 -151t-310.5 -50q-227 0 -394.5 97.5t-252.5 265.5t-85 385q0 160 53 298t151 241t248 162t335 59q132 0 242.5 -27t186.5 -71.5t133 -104.5t87.5 -121.5t44.5 -128.5h-307q-12 31 -30 58.5t-50 58t-72.5 52
t-101.5 36t-133 14.5q-116 0 -206.5 -39.5t-146.5 -109.5t-85 -162t-29 -201q0 -154 50.5 -270.5t158 -186t260.5 -69.5q192 0 292.5 91.5t100.5 252.5v29h-389zM520 1636v193h694v-193h-694z" />
    <glyph glyph-name="uni1E21" unicode="&#x1e21;" horiz-adv-x="1388" 
d="M92 -109h293q24 -69 86 -110t188 -41q71 0 124 18.5t85.5 49.5t52 78.5t26.5 98.5t7 117v50q-52 -81 -135.5 -123.5t-228.5 -42.5q-148 0 -265 71t-180 191t-63 264q0 162 71.5 292.5t193 202.5t267.5 72q81 0 144 -15t101.5 -40.5t60.5 -50.5t34 -53q0 84 7 131h280
q-2 -102 -2 -308v-618q0 -148 -31.5 -257t-101 -187.5t-185 -118t-278.5 -39.5q-93 0 -171.5 14.5t-132 37.5t-96.5 56t-68.5 65.5t-44 70.5t-26 66t-12.5 58zM668 213q139 0 214.5 82.5t75.5 239.5q0 148 -72.5 232.5t-207.5 84.5q-143 0 -221 -94.5t-78 -235.5
q0 -132 78 -220.5t211 -88.5zM367 1286v195h653v-195h-653z" />
    <glyph glyph-name="uni1E24" unicode="&#x1e24;" horiz-adv-x="1726" 
d="M498 0h-303v1446h303v-557h731v557h303v-1446h-303v645h-731v-645zM1008 -420h-291v270h291v-270z" />
    <glyph glyph-name="uni1E25" unicode="&#x1e25;" horiz-adv-x="1355" 
d="M150 0v1530h286v-629q105 178 363 178q193 0 300 -113t107 -333v-633h-293v598q0 121 -46.5 187.5t-161.5 66.5q-130 0 -198.5 -92.5t-68.5 -251.5v-508h-288zM823 -420h-291v270h291v-270z" />
    <glyph glyph-name="uni1E2A" unicode="&#x1e2a;" horiz-adv-x="1726" 
d="M498 0h-303v1446h303v-557h731v557h303v-1446h-303v645h-731v-645zM1028 -121h197q-10 -69 -36 -126.5t-69 -104t-110.5 -73t-151.5 -26.5q-72 0 -131 18.5t-99.5 49.5t-69 74t-42.5 89.5t-18 98.5h198q32 -141 166 -141q42 0 72.5 11t48.5 33t27.5 44t17.5 53z" />
    <glyph glyph-name="uni1E2B" unicode="&#x1e2b;" horiz-adv-x="1355" 
d="M150 0v1530h286v-629q105 178 363 178q193 0 300 -113t107 -333v-633h-293v598q0 121 -46.5 187.5t-161.5 66.5q-130 0 -198.5 -92.5t-68.5 -251.5v-508h-288zM844 -121h196q-10 -69 -35.5 -126.5t-69 -104t-110.5 -73t-151 -26.5q-89 0 -158.5 27.5t-111 75.5t-64 105
t-27.5 122h199q32 -141 166 -141q42 0 72.5 11t48.5 33t27.5 44t17.5 53z" />
    <glyph glyph-name="uni1E36" unicode="&#x1e36;" horiz-adv-x="1357" 
d="M496 246h831l-41 -246h-1091v1446h301v-1200zM889 -420h-291v270h291v-270z" />
    <glyph glyph-name="uni1E37" unicode="&#x1e37;" horiz-adv-x="587" 
d="M438 0h-288v1530h288v-1530zM438 -420h-291v270h291v-270z" />
    <glyph glyph-name="uni1E38" unicode="&#x1e38;" horiz-adv-x="1357" 
d="M496 246h831l-41 -246h-1091v1446h301v-1200zM2 1612v192h694v-192h-694zM889 -420h-291v270h291v-270z" />
    <glyph glyph-name="uni1E39" unicode="&#x1e39;" horiz-adv-x="587" 
d="M438 0h-288v1530h288v-1530zM-35 1671v195h653v-195h-653zM438 -420h-291v270h291v-270z" />
    <glyph glyph-name="uni1E3A" unicode="&#x1e3a;" horiz-adv-x="1357" 
d="M496 246h831l-41 -246h-1091v1446h301v-1200zM410 -367v195h653v-195h-653z" />
    <glyph glyph-name="uni1E3B" unicode="&#x1e3b;" horiz-adv-x="587" 
d="M438 0h-288v1530h288v-1530zM-35 -367v195h653v-195h-653z" />
    <glyph glyph-name="uni1E42" unicode="&#x1e42;" horiz-adv-x="2029" 
d="M195 0v1446h436q20 -56 94.5 -261t100.5 -279t74 -210.5t72 -212.5t36 -127h2q28 95 83.5 251.5t158 438.5t145.5 400h440v-1446h-293v578q0 513 8 671h-2q-21 -72 -52 -169.5t-79 -236.5t-84.5 -244t-105.5 -300.5t-105 -298.5h-266q-69 217 -219 666.5t-190 582.5h-3
q23 -386 23 -702v-547h-274zM1139 -420h-291v270h291v-270z" />
    <glyph glyph-name="uni1E43" unicode="&#x1e43;" horiz-adv-x="1970" 
d="M436 0h-286v780q0 136 -3 271h277q8 -55 8 -133q111 161 328 161q238 0 317 -180q121 180 357 180q174 0 281.5 -108.5t107.5 -331.5v-639h-287v633q0 42 -8 78t-27 70.5t-57.5 54.5t-93.5 20q-104 0 -162 -68.5t-58 -207.5v-580h-286v635q0 221 -189 221
q-112 0 -165.5 -75t-53.5 -208v-573zM1130 -420h-290v270h290v-270z" />
    <glyph glyph-name="uni1E44" unicode="&#x1e44;" horiz-adv-x="1746" 
d="M473 0h-278v1446h358q147 -218 326.5 -475t271.5 -392.5t131 -207.5h4q-12 141 -12 657v418h280v-1446h-337q-656 972 -752 1145h-4q12 -182 12 -643v-502zM1022 1602h-291v256h291v-256z" />
    <glyph glyph-name="uni1E45" unicode="&#x1e45;" horiz-adv-x="1355" 
d="M440 0h-290v786q0 151 -3 265h283q3 -22 8 -154q20 34 47.5 63.5t69.5 57.5t104.5 44.5t137.5 16.5q193 0 302 -114t109 -320v-645h-293v598q0 114 -51 184t-166 70q-129 0 -193.5 -87.5t-64.5 -246.5v-518zM825 1274h-290v256h290v-256z" />
    <glyph glyph-name="uni1E46" unicode="&#x1e46;" horiz-adv-x="1746" 
d="M473 0h-278v1446h358q147 -218 326.5 -475t271.5 -392.5t131 -207.5h4q-12 141 -12 657v418h280v-1446h-337q-656 972 -752 1145h-4q12 -182 12 -643v-502zM1020 -420h-291v270h291v-270z" />
    <glyph glyph-name="uni1E47" unicode="&#x1e47;" horiz-adv-x="1355" 
d="M440 0h-290v786q0 151 -3 265h283q3 -22 8 -154q20 34 47.5 63.5t69.5 57.5t104.5 44.5t137.5 16.5q193 0 302 -114t109 -320v-645h-293v598q0 114 -51 184t-166 70q-129 0 -193.5 -87.5t-64.5 -246.5v-518zM823 -420h-291v270h291v-270z" />
    <glyph glyph-name="uni1E48" unicode="&#x1e48;" horiz-adv-x="1746" 
d="M473 0h-278v1446h358q147 -218 326.5 -475t271.5 -392.5t131 -207.5h4q-12 141 -12 657v418h280v-1446h-337q-656 972 -752 1145h-4q12 -182 12 -643v-502zM547 -367v195h653v-195h-653z" />
    <glyph glyph-name="uni1E49" unicode="&#x1e49;" horiz-adv-x="1355" 
d="M440 0h-290v786q0 151 -3 265h283q3 -22 8 -154q20 34 47.5 63.5t69.5 57.5t104.5 44.5t137.5 16.5q193 0 302 -114t109 -320v-645h-293v598q0 114 -51 184t-166 70q-129 0 -193.5 -87.5t-64.5 -246.5v-518zM350 -367v195h654v-195h-654z" />
    <glyph glyph-name="uni1E5A" unicode="&#x1e5a;" horiz-adv-x="1579" 
d="M195 0v1446h757q241 0 377.5 -108.5t136.5 -297.5q0 -133 -68 -220.5t-188 -123.5q29 -10 51.5 -20.5t56.5 -37t56 -61t39 -93.5t17 -132v-67v-34.5v-36.5v-34t0.5 -35.5t1.5 -32t2 -33t2.5 -28t4 -28t5.5 -23.5h-311q-16 43 -20.5 110t-4.5 191v47q0 129 -61 180.5
t-226 51.5h-327v-580h-301zM496 1214v-403h385q140 0 207 51t67 154q0 198 -268 198h-391zM934 -420h-291v270h291v-270z" />
    <glyph glyph-name="uni1E5B" unicode="&#x1e5b;" horiz-adv-x="890" 
d="M440 0h-290v766q0 144 -3 285h283q10 -58 10 -217q48 115 152.5 181.5t259.5 63.5v-266q-192 2 -302 -97t-110 -315v-401zM442 -420h-290v270h290v-270z" />
    <glyph glyph-name="uni1E5C" unicode="&#x1e5c;" horiz-adv-x="1579" 
d="M195 0v1446h757q241 0 377.5 -108.5t136.5 -297.5q0 -133 -68 -220.5t-188 -123.5q29 -10 51.5 -20.5t56.5 -37t56 -61t39 -93.5t17 -132v-67v-34.5v-36.5v-34t0.5 -35.5t1.5 -32t2 -33t2.5 -28t4 -28t5.5 -23.5h-311q-16 43 -20.5 110t-4.5 191v47q0 129 -61 180.5
t-226 51.5h-327v-580h-301zM496 1214v-403h385q140 0 207 51t67 154q0 198 -268 198h-391zM438 1610v192h695v-192h-695zM930 -420h-291v270h291v-270z" />
    <glyph glyph-name="uni1E5D" unicode="&#x1e5d;" horiz-adv-x="890" 
d="M440 0h-290v766q0 144 -3 285h283q10 -58 10 -217q48 115 152.5 181.5t259.5 63.5v-266q-192 2 -302 -97t-110 -315v-401zM164 1286v195h653v-195h-653zM442 -420h-290v270h290v-270z" />
    <glyph glyph-name="uni1E5E" unicode="&#x1e5e;" horiz-adv-x="1579" 
d="M195 0v1446h757q241 0 377.5 -108.5t136.5 -297.5q0 -133 -68 -220.5t-188 -123.5q29 -10 51.5 -20.5t56.5 -37t56 -61t39 -93.5t17 -132v-67v-34.5v-36.5v-34t0.5 -35.5t1.5 -32t2 -33t2.5 -28t4 -28t5.5 -23.5h-311q-16 43 -20.5 110t-4.5 191v47q0 129 -61 180.5
t-226 51.5h-327v-580h-301zM496 1214v-403h385q140 0 207 51t67 154q0 198 -268 198h-391zM475 -367v195h653v-195h-653z" />
    <glyph glyph-name="uni1E5F" unicode="&#x1e5f;" horiz-adv-x="890" 
d="M440 0h-290v766q0 144 -3 285h283q10 -58 10 -217q48 115 152.5 181.5t259.5 63.5v-266q-192 2 -302 -97t-110 -315v-401zM-20 -367v195h653v-195h-653z" />
    <glyph glyph-name="uni1E60" unicode="&#x1e60;" horiz-adv-x="1515" 
d="M1352 1063h-303q-9 29 -19.5 50.5t-35 49t-58 44.5t-91 29.5t-132.5 12.5q-136 0 -209.5 -43t-73.5 -125q0 -51 26.5 -83.5t103 -61t220.5 -53.5q158 -28 272.5 -66t182.5 -79.5t107 -96t52 -106t13 -119.5q0 -94 -38.5 -173t-116 -140.5t-207 -96.5t-300.5 -35
q-160 0 -285 34.5t-206.5 97.5t-129.5 144.5t-65 182.5h306q36 -112 131.5 -172.5t275.5 -60.5q324 0 324 188q0 60 -31 100t-119 74.5t-248 61.5q-141 24 -244.5 58t-166.5 72.5t-101 88t-51.5 99t-13.5 112.5q0 135 81 233t215 145.5t304 47.5q140 0 250.5 -28t178 -71
t113.5 -100.5t65 -109.5t24 -105zM905 1602h-291v256h291v-256z" />
    <glyph glyph-name="uni1E61" unicode="&#x1e61;" horiz-adv-x="1191" 
d="M1081 758h-286q-33 125 -230 125q-99 0 -137.5 -31t-38.5 -74t49.5 -68.5t198.5 -47.5q122 -18 210 -45.5t139.5 -59t81 -73.5t39 -80.5t9.5 -88.5q0 -73 -29 -134t-89 -109t-161 -74.5t-235 -26.5q-223 0 -368 92.5t-171 258.5h289q48 -148 269 -148q210 0 210 117
q0 36 -21 59.5t-82 42.5t-173 33q-113 15 -196.5 42t-131.5 58t-76.5 71.5t-37.5 76t-9 78.5q0 48 14.5 92.5t50 88t88.5 75.5t135.5 51.5t185.5 19.5q106 0 192 -20t141 -51.5t93 -75t55.5 -86t21.5 -88.5zM741 1274h-290v256h290v-256z" />
    <glyph glyph-name="uni1E62" unicode="&#x1e62;" horiz-adv-x="1515" 
d="M1352 1063h-303q-9 29 -19.5 50.5t-35 49t-58 44.5t-91 29.5t-132.5 12.5q-136 0 -209.5 -43t-73.5 -125q0 -51 26.5 -83.5t103 -61t220.5 -53.5q158 -28 272.5 -66t182.5 -79.5t107 -96t52 -106t13 -119.5q0 -94 -38.5 -173t-116 -140.5t-207 -96.5t-300.5 -35
q-160 0 -285 34.5t-206.5 97.5t-129.5 144.5t-65 182.5h306q36 -112 131.5 -172.5t275.5 -60.5q324 0 324 188q0 60 -31 100t-119 74.5t-248 61.5q-141 24 -244.5 58t-166.5 72.5t-101 88t-51.5 99t-13.5 112.5q0 135 81 233t215 145.5t304 47.5q140 0 250.5 -28t178 -71
t113.5 -100.5t65 -109.5t24 -105zM903 -420h-291v270h291v-270z" />
    <glyph glyph-name="uni1E63" unicode="&#x1e63;" horiz-adv-x="1191" 
d="M1081 758h-286q-33 125 -230 125q-99 0 -137.5 -31t-38.5 -74t49.5 -68.5t198.5 -47.5q122 -18 210 -45.5t139.5 -59t81 -73.5t39 -80.5t9.5 -88.5q0 -73 -29 -134t-89 -109t-161 -74.5t-235 -26.5q-223 0 -368 92.5t-171 258.5h289q48 -148 269 -148q210 0 210 117
q0 36 -21 59.5t-82 42.5t-173 33q-113 15 -196.5 42t-131.5 58t-76.5 71.5t-37.5 76t-9 78.5q0 48 14.5 92.5t50 88t88.5 75.5t135.5 51.5t185.5 19.5q106 0 192 -20t141 -51.5t93 -75t55.5 -86t21.5 -88.5zM741 -420h-290v270h290v-270z" />
    <glyph glyph-name="uni1E6C" unicode="&#x1e6c;" horiz-adv-x="1382" 
d="M844 0h-303v1202h-525v244h1350v-244h-522v-1202zM836 -420h-291v270h291v-270z" />
    <glyph glyph-name="uni1E6D" unicode="&#x1e6d;" horiz-adv-x="829" 
d="M227 305v533h-194v213h194v319h291v-319h254v-213h-254v-486q0 -79 26.5 -112t102.5 -33q55 0 94 8v-201q-65 -22 -194 -22q-178 0 -249 75.5t-71 237.5zM586 -420h-291v270h291v-270z" />
    <glyph glyph-name="uni1E6E" unicode="&#x1e6e;" horiz-adv-x="1382" 
d="M844 0h-303v1202h-525v244h1350v-244h-522v-1202zM362 -367v195h654v-195h-654z" />
    <glyph glyph-name="uni1E6F" unicode="&#x1e6f;" horiz-adv-x="829" 
d="M227 305v533h-194v213h194v319h291v-319h254v-213h-254v-486q0 -79 26.5 -112t102.5 -33q55 0 94 8v-201q-65 -22 -194 -22q-178 0 -249 75.5t-71 237.5zM127 -367v195h653v-195h-653z" />
    <glyph glyph-name="Wgrave" unicode="&#x1e80;" horiz-adv-x="2211" 
d="M776 0h-325l-424 1446h319q16 -58 61.5 -223t74.5 -273t65.5 -250t59.5 -249t32 -175h2q49 272 324 1170h292q275 -935 318 -1159h2q12 70 37 175.5t65 253.5t66 243.5t76.5 272.5t60.5 214h305l-452 -1446h-328q-258 867 -315 1126h-2q-41 -223 -314 -1126zM991 1583
l-438 285h377l336 -285h-275z" />
    <glyph glyph-name="wgrave" unicode="&#x1e81;" horiz-adv-x="1792" 
d="M350 0l-321 1051h299q172 -643 202 -818h2q58 229 236 818h274q201 -669 228 -809h2q36 190 207 809h284l-340 -1051h-309q-193 630 -219 729h-2q-76 -287 -225 -729h-318zM791 1233l-371 319h336l291 -319h-256z" />
    <glyph glyph-name="Wacute" unicode="&#x1e82;" horiz-adv-x="2211" 
d="M776 0h-325l-424 1446h319q16 -58 61.5 -223t74.5 -273t65.5 -250t59.5 -249t32 -175h2q49 272 324 1170h292q275 -935 318 -1159h2q12 70 37 175.5t65 253.5t66 243.5t76.5 272.5t60.5 214h305l-452 -1446h-328q-258 867 -315 1126h-2q-41 -223 -314 -1126zM940 1583
l344 285h375l-436 -285h-283z" />
    <glyph glyph-name="wacute" unicode="&#x1e83;" horiz-adv-x="1792" 
d="M350 0l-321 1051h299q172 -643 202 -818h2q58 229 236 818h274q201 -669 228 -809h2q36 190 207 809h284l-340 -1051h-309q-193 630 -219 729h-2q-76 -287 -225 -729h-318zM758 1233l282 319h334l-358 -319h-258z" />
    <glyph glyph-name="Wdieresis" unicode="&#x1e84;" horiz-adv-x="2211" 
d="M997 1589h-252v256h252v-256zM1460 1589h-252v256h252v-256zM776 0h-325l-424 1446h319q16 -58 61.5 -223t74.5 -273t65.5 -250t59.5 -249t32 -175h2q49 272 324 1170h292q275 -935 318 -1159h2q12 70 37 175.5t65 253.5t66 243.5t76.5 272.5t60.5 214h305l-452 -1446
h-328q-258 867 -315 1126h-2q-41 -223 -314 -1126z" />
    <glyph glyph-name="wdieresis" unicode="&#x1e85;" horiz-adv-x="1792" 
d="M795 1274h-252v256h252v-256zM1245 1274h-252v256h252v-256zM350 0l-321 1051h299q172 -643 202 -818h2q58 229 236 818h274q201 -669 228 -809h2q36 190 207 809h284l-340 -1051h-309q-193 630 -219 729h-2q-76 -287 -225 -729h-318z" />
    <glyph glyph-name="uni1E8E" unicode="&#x1e8e;" horiz-adv-x="1413" 
d="M858 0h-305v528q0 22 -16 43l-600 875h360q25 -39 92.5 -142t104 -159t87.5 -135.5t84.5 -135t53.5 -92.5q32 59 98.5 163.5t174.5 269.5t151 231h334l-609 -885q-10 -15 -10 -37v-524zM854 1573h-291v256h291v-256z" />
    <glyph glyph-name="uni1E8F" unicode="&#x1e8f;" horiz-adv-x="1247" 
d="M131 -465v238q47 -6 109 -6q54 0 89.5 9t64.5 34t49 56.5t49 90.5l-476 1094h318q227 -552 311 -822h4q101 339 283 822h295l-371 -932q-41 -104 -63.5 -159.5t-55.5 -127.5t-55 -106t-55.5 -77t-64 -60.5t-73.5 -36t-91 -24t-111 -5.5q-101 0 -156 12zM768 1274h-291
v256h291v-256z" />
    <glyph glyph-name="uni1E92" unicode="&#x1e92;" horiz-adv-x="1447" 
d="M55 0v221l918 985h-873v240h1258v-236l-903 -970h966l-37 -240h-1329zM868 -420h-290v270h290v-270z" />
    <glyph glyph-name="uni1E93" unicode="&#x1e93;" horiz-adv-x="1163" 
d="M68 0v209l643 618h-607v224h973v-215l-626 -611h675l-36 -225h-1022zM731 -420h-291v270h291v-270z" />
    <glyph glyph-name="uni1E97" unicode="&#x1e97;" horiz-adv-x="829" 
d="M270 1473h-252v256h252v-256zM721 1473h-252v256h252v-256zM227 305v533h-194v213h194v319h291v-319h254v-213h-254v-486q0 -79 26.5 -112t102.5 -33q55 0 94 8v-201q-65 -22 -194 -22q-178 0 -249 75.5t-71 237.5z" />
    <glyph glyph-name="uni1E9E" unicode="&#x1e9e;" horiz-adv-x="1648" 
d="M201 0v1026q0 222 163 336.5t463 114.5q147 0 263 -27.5t185.5 -70.5t114.5 -100t61.5 -110.5t16.5 -107.5q0 -35 -6 -70l-364 -168v-4l133 -61q187 -85 263.5 -177t76.5 -223q0 -179 -129.5 -283t-382.5 -104q-124 0 -234.5 32t-177.5 85v270q78 -76 186.5 -123
t223.5 -47q109 0 164 37.5t55 104.5q0 60 -47 106t-174 103l-250 112q-59 27 -81.5 73.5t-2.5 95.5t78 81l360 186q0 64 -86.5 116t-236.5 52q-87 0 -146 -13.5t-102.5 -47t-63.5 -92t-20 -146.5v-956h-303z" />
    <glyph glyph-name="uni1EA0" unicode="&#x1ea0;" horiz-adv-x="1615" 
d="M6 0l596 1446h383l625 -1446h-330l-154 365h-661l-146 -365h-313zM784 1245h-2q-59 -195 -235 -635h491q-216 521 -254 635zM948 -420h-291v270h291v-270z" />
    <glyph glyph-name="uni1EA1" unicode="&#x1ea1;" horiz-adv-x="1300" 
d="M436 741h-291q3 45 17 87t49.5 89t88.5 81.5t143 57.5t204 23q125 0 218 -23.5t146.5 -59.5t86 -88.5t43 -101.5t10.5 -108v-413q0 -193 8 -285h-272q-13 47 -13 129q-94 -158 -382 -158q-105 0 -185.5 29.5t-127 79.5t-70 109t-23.5 124q0 351 551 351h231v38
q0 81 -47.5 129t-169.5 48q-110 0 -155.5 -36.5t-59.5 -101.5zM868 449v26h-227q-142 0 -207 -35.5t-65 -111.5q0 -64 50.5 -105t149.5 -41q153 0 226 71t73 196zM797 -420h-291v270h291v-270z" />
    <glyph glyph-name="uni1EA2" unicode="&#x1ea2;" horiz-adv-x="1615" 
d="M6 0l596 1446h383l625 -1446h-330l-154 365h-661l-146 -365h-313zM784 1245h-2q-59 -195 -235 -635h491q-216 521 -254 635zM604 1755l-49 137q98 62 229 62q116 0 177 -51.5t61 -137.5q0 -110 -115 -211h-217q59 59 82 91.5t23 66.5q0 31 -19 51.5t-57 20.5
q-55 0 -115 -29z" />
    <glyph glyph-name="uni1EA3" unicode="&#x1ea3;" horiz-adv-x="1300" 
d="M436 741h-291q3 45 17 87t49.5 89t88.5 81.5t143 57.5t204 23q125 0 218 -23.5t146.5 -59.5t86 -88.5t43 -101.5t10.5 -108v-413q0 -193 8 -285h-272q-13 47 -13 129q-94 -158 -382 -158q-105 0 -185.5 29.5t-127 79.5t-70 109t-23.5 124q0 351 551 351h231v38
q0 81 -47.5 129t-169.5 48q-110 0 -155.5 -36.5t-59.5 -101.5zM868 449v26h-227q-142 0 -207 -35.5t-65 -111.5q0 -64 50.5 -105t149.5 -41q153 0 226 71t73 196zM449 1395l-50 137q96 61 230 61q116 0 176.5 -51t60.5 -137q0 -111 -114 -211h-217q58 58 81 91t23 67
q0 31 -19 51t-57 20q-56 0 -114 -28z" />
    <glyph glyph-name="uni1EA4" unicode="&#x1ea4;" horiz-adv-x="1615" 
d="M344 1565l285 270h338l282 -270h-280l-174 149l-164 -149h-287zM1108 1796l223 244h301l-289 -244h-235zM6 0l596 1446h383l625 -1446h-330l-154 365h-661l-146 -365h-313zM784 1245h-2q-59 -195 -235 -635h491q-216 521 -254 635z" />
    <glyph glyph-name="uni1EA5" unicode="&#x1ea5;" horiz-adv-x="1300" 
d="M258 1204l252 283h264l264 -283h-250l-145 156l-141 -156h-244zM899 1442l229 270h281l-289 -270h-221zM436 741h-291q3 45 17 87t49.5 89t88.5 81.5t143 57.5t204 23q125 0 218 -23.5t146.5 -59.5t86 -88.5t43 -101.5t10.5 -108v-413q0 -193 8 -285h-272q-13 47 -13 129
q-94 -158 -382 -158q-105 0 -185.5 29.5t-127 79.5t-70 109t-23.5 124q0 351 551 351h231v38q0 81 -47.5 129t-169.5 48q-110 0 -155.5 -36.5t-59.5 -101.5zM868 449v26h-227q-142 0 -207 -35.5t-65 -111.5q0 -64 50.5 -105t149.5 -41q153 0 226 71t73 196z" />
    <glyph glyph-name="uni1EA6" unicode="&#x1ea6;" horiz-adv-x="1615" 
d="M344 1563l285 270h338l282 -270h-280l-174 149l-164 -149h-287zM1300 1749l-311 248l305 -4l238 -248zM6 0l596 1446h383l625 -1446h-330l-154 365h-661l-146 -365h-313zM784 1245h-2q-59 -195 -235 -635h491q-216 521 -254 635z" />
    <glyph glyph-name="uni1EA7" unicode="&#x1ea7;" horiz-adv-x="1300" 
d="M258 1206l252 283h264l264 -283h-250l-145 156l-141 -156h-244zM1065 1417l-289 279h273l221 -279h-205zM436 741h-291q3 45 17 87t49.5 89t88.5 81.5t143 57.5t204 23q125 0 218 -23.5t146.5 -59.5t86 -88.5t43 -101.5t10.5 -108v-413q0 -193 8 -285h-272
q-13 47 -13 129q-94 -158 -382 -158q-105 0 -185.5 29.5t-127 79.5t-70 109t-23.5 124q0 351 551 351h231v38q0 81 -47.5 129t-169.5 48q-110 0 -155.5 -36.5t-59.5 -101.5zM868 449v26h-227q-142 0 -207 -35.5t-65 -111.5q0 -64 50.5 -105t149.5 -41q153 0 226 71t73 196z
" />
    <glyph glyph-name="uni1EA8" unicode="&#x1ea8;" horiz-adv-x="1615" 
d="M344 1563l285 270h338l282 -270h-280l-174 149l-164 -149h-287zM1075 1948l-37 135q86 57 213 57q100 0 156.5 -47.5t56.5 -130.5q0 -59 -32 -110t-80 -85h-203q106 81 106 152q0 59 -69 59q-62 0 -111 -30zM6 0l596 1446h383l625 -1446h-330l-154 365h-661l-146 -365
h-313zM784 1245h-2q-59 -195 -235 -635h491q-216 521 -254 635z" />
    <glyph glyph-name="uni1EA9" unicode="&#x1ea9;" horiz-adv-x="1300" 
d="M256 1204l252 283h264l264 -283h-250l-145 156l-141 -156h-244zM852 1597l-45 115q82 66 205 66q97 0 147.5 -44t50.5 -124q0 -113 -100 -187h-188q112 84 112 150q0 59 -69 59q-66 0 -113 -35zM436 741h-291q3 45 17 87t49.5 89t88.5 81.5t143 57.5t204 23
q125 0 218 -23.5t146.5 -59.5t86 -88.5t43 -101.5t10.5 -108v-413q0 -193 8 -285h-272q-13 47 -13 129q-94 -158 -382 -158q-105 0 -185.5 29.5t-127 79.5t-70 109t-23.5 124q0 351 551 351h231v38q0 81 -47.5 129t-169.5 48q-110 0 -155.5 -36.5t-59.5 -101.5zM868 449v26
h-227q-142 0 -207 -35.5t-65 -111.5q0 -64 50.5 -105t149.5 -41q153 0 226 71t73 196z" />
    <glyph glyph-name="uni1EAA" unicode="&#x1eaa;" horiz-adv-x="1615" 
d="M592 1870h-156v33q0 115 51.5 161.5t139.5 46.5q56 0 118.5 -19.5t114 -39.5t80.5 -20q32 0 48 13t16 48v16h151v-22q0 -111 -51 -165t-139 -54q-63 0 -167.5 40t-142.5 40q-63 0 -63 -66v-12zM387 1563l264 225h287l268 -225h-274l-137 104l-133 -104h-275zM6 0
l596 1446h383l625 -1446h-330l-154 365h-661l-146 -365h-313zM784 1245h-2q-59 -195 -235 -635h491q-216 521 -254 635z" />
    <glyph glyph-name="uni1EAB" unicode="&#x1eab;" horiz-adv-x="1300" 
d="M463 1489h-150v22q0 110 49.5 160.5t129.5 50.5q55 0 110 -19t99 -37.5t71 -18.5q29 0 44 12t15 45v14h146v-28q0 -201 -182 -201q-60 0 -150.5 37t-124.5 37q-57 0 -57 -60v-14zM264 1186l228 221h305l231 -221h-254l-135 119l-125 -119h-250zM436 741h-291q3 45 17 87
t49.5 89t88.5 81.5t143 57.5t204 23q125 0 218 -23.5t146.5 -59.5t86 -88.5t43 -101.5t10.5 -108v-413q0 -193 8 -285h-272q-13 47 -13 129q-94 -158 -382 -158q-105 0 -185.5 29.5t-127 79.5t-70 109t-23.5 124q0 351 551 351h231v38q0 81 -47.5 129t-169.5 48
q-110 0 -155.5 -36.5t-59.5 -101.5zM868 449v26h-227q-142 0 -207 -35.5t-65 -111.5q0 -64 50.5 -105t149.5 -41q153 0 226 71t73 196z" />
    <glyph glyph-name="uni1EAC" unicode="&#x1eac;" horiz-adv-x="1615" 
d="M6 0l596 1446h383l625 -1446h-330l-154 365h-661l-146 -365h-313zM784 1245h-2q-59 -195 -235 -635h491q-216 521 -254 635zM358 1569l281 280h313l281 -280h-270l-170 157l-164 -157h-271zM948 -420h-291v270h291v-270z" />
    <glyph glyph-name="uni1EAD" unicode="&#x1ead;" horiz-adv-x="1300" 
d="M436 741h-291q3 45 17 87t49.5 89t88.5 81.5t143 57.5t204 23q125 0 218 -23.5t146.5 -59.5t86 -88.5t43 -101.5t10.5 -108v-413q0 -193 8 -285h-272q-13 47 -13 129q-94 -158 -382 -158q-105 0 -185.5 29.5t-127 79.5t-70 109t-23.5 124q0 351 551 351h231v38
q0 81 -47.5 129t-169.5 48q-110 0 -155.5 -36.5t-59.5 -101.5zM868 449v26h-227q-142 0 -207 -35.5t-65 -111.5q0 -64 50.5 -105t149.5 -41q153 0 226 71t73 196zM242 1219l270 321h276l271 -321h-252l-160 184l-149 -184h-256zM807 -420h-291v270h291v-270z" />
    <glyph glyph-name="uni1EAE" unicode="&#x1eae;" horiz-adv-x="1615" 
d="M969 1829h200q-30 -123 -123 -198t-253 -75q-85 0 -153.5 23.5t-111.5 64t-69 87t-37 98.5h201q44 -105 174 -105q134 0 172 105zM672 1888l223 232h299l-295 -232h-227zM6 0l596 1446h383l625 -1446h-330l-154 365h-661l-146 -365h-313zM784 1245h-2q-59 -195 -235 -635
h491q-216 521 -254 635z" />
    <glyph glyph-name="uni1EAF" unicode="&#x1eaf;" horiz-adv-x="1300" 
d="M809 1452h188q-26 -122 -110 -197t-238 -75q-81 0 -145 24t-104 64.5t-63.5 86t-33.5 97.5h193q15 -47 53.5 -76.5t101.5 -29.5q122 0 158 106zM528 1507l222 232h266l-271 -232h-217zM436 741h-291q3 45 17 87t49.5 89t88.5 81.5t143 57.5t204 23q125 0 218 -23.5
t146.5 -59.5t86 -88.5t43 -101.5t10.5 -108v-413q0 -193 8 -285h-272q-13 47 -13 129q-94 -158 -382 -158q-105 0 -185.5 29.5t-127 79.5t-70 109t-23.5 124q0 351 551 351h231v38q0 81 -47.5 129t-169.5 48q-110 0 -155.5 -36.5t-59.5 -101.5zM868 449v26h-227
q-142 0 -207 -35.5t-65 -111.5q0 -64 50.5 -105t149.5 -41q153 0 226 71t73 196z" />
    <glyph glyph-name="uni1EB0" unicode="&#x1eb0;" horiz-adv-x="1615" 
d="M702 1888l-301 232h297l226 -232h-222zM969 1829h200q-30 -123 -123 -198t-253 -75q-85 0 -153.5 23.5t-111.5 64t-69 87t-37 98.5h201q44 -105 174 -105q134 0 172 105zM6 0l596 1446h383l625 -1446h-330l-154 365h-661l-146 -365h-313zM784 1245h-2q-59 -195 -235 -635
h491q-216 521 -254 635z" />
    <glyph glyph-name="uni1EB1" unicode="&#x1eb1;" horiz-adv-x="1300" 
d="M559 1509l-276 232h272l221 -232h-217zM807 1454h188q-26 -122 -110 -197t-238 -75q-81 0 -145 24t-104 64.5t-63.5 86t-33.5 97.5h193q15 -47 53.5 -76.5t101.5 -29.5q122 0 158 106zM436 741h-291q3 45 17 87t49.5 89t88.5 81.5t143 57.5t204 23q125 0 218 -23.5
t146.5 -59.5t86 -88.5t43 -101.5t10.5 -108v-413q0 -193 8 -285h-272q-13 47 -13 129q-94 -158 -382 -158q-105 0 -185.5 29.5t-127 79.5t-70 109t-23.5 124q0 351 551 351h231v38q0 81 -47.5 129t-169.5 48q-110 0 -155.5 -36.5t-59.5 -101.5zM868 449v26h-227
q-142 0 -207 -35.5t-65 -111.5q0 -64 50.5 -105t149.5 -41q153 0 226 71t73 196z" />
    <glyph glyph-name="uni1EB2" unicode="&#x1eb2;" horiz-adv-x="1615" 
d="M627 2021l-49 111q82 66 208 66q90 0 143.5 -45.5t53.5 -118.5q0 -96 -96 -172h-187q56 43 81.5 75.5t25.5 63.5q0 24 -18.5 39.5t-53.5 15.5q-44 0 -108 -35zM983 1817h191q-11 -50 -37 -94.5t-69.5 -85.5t-113.5 -65t-157 -24q-75 0 -138 19t-103 47.5t-70 66t-44 70.5
t-20 66h201q18 -45 63.5 -74t110.5 -29q144 0 186 103zM6 0l596 1446h383l625 -1446h-330l-154 365h-661l-146 -365h-313zM784 1245h-2q-59 -195 -235 -635h491q-216 521 -254 635z" />
    <glyph glyph-name="uni1EB3" unicode="&#x1eb3;" horiz-adv-x="1300" 
d="M479 1649l-37 123q88 57 199 57q94 0 146.5 -43.5t52.5 -120.5q0 -105 -105 -176h-190q102 74 102 135q0 55 -65 55q-51 0 -103 -30zM807 1452h188q-26 -122 -110 -197t-238 -75q-81 0 -145 24t-104 64.5t-63.5 86t-33.5 97.5h193q15 -47 53.5 -76.5t101.5 -29.5
q122 0 158 106zM436 741h-291q3 45 17 87t49.5 89t88.5 81.5t143 57.5t204 23q125 0 218 -23.5t146.5 -59.5t86 -88.5t43 -101.5t10.5 -108v-413q0 -193 8 -285h-272q-13 47 -13 129q-94 -158 -382 -158q-105 0 -185.5 29.5t-127 79.5t-70 109t-23.5 124q0 351 551 351h231
v38q0 81 -47.5 129t-169.5 48q-110 0 -155.5 -36.5t-59.5 -101.5zM868 449v26h-227q-142 0 -207 -35.5t-65 -111.5q0 -64 50.5 -105t149.5 -41q153 0 226 71t73 196z" />
    <glyph glyph-name="uni1EB4" unicode="&#x1eb4;" horiz-adv-x="1615" 
d="M967 1776h178q-13 -43 -37 -80t-64 -70.5t-104 -52.5t-145 -19t-146 21t-105 55.5t-63.5 70.5t-34.5 75h181q17 -34 61 -58t109 -24q137 0 170 82zM598 1862h-147v22q0 189 180 189q70 0 177 -38t134 -38q30 0 44.5 12t14.5 45v14h146v-18q0 -190 -182 -190
q-60 0 -167 37.5t-141 37.5q-59 0 -59 -61v-12zM6 0l596 1446h383l625 -1446h-330l-154 365h-661l-146 -365h-313zM784 1245h-2q-59 -195 -235 -635h491q-216 521 -254 635z" />
    <glyph glyph-name="uni1EB5" unicode="&#x1eb5;" horiz-adv-x="1300" 
d="M811 1427h186q-26 -108 -111 -177.5t-237 -69.5q-80 0 -143.5 22t-103.5 59t-64 78.5t-35 87.5h193q34 -88 155 -88q122 0 160 88zM469 1518h-150v22q0 110 49.5 160.5t129.5 50.5q55 0 110 -19t99 -38t71 -19q29 0 44.5 12.5t15.5 45.5v14h145v-29q0 -200 -182 -200
q-60 0 -150.5 36.5t-124.5 36.5q-57 0 -57 -59v-14zM436 741h-291q3 45 17 87t49.5 89t88.5 81.5t143 57.5t204 23q125 0 218 -23.5t146.5 -59.5t86 -88.5t43 -101.5t10.5 -108v-413q0 -193 8 -285h-272q-13 47 -13 129q-94 -158 -382 -158q-105 0 -185.5 29.5t-127 79.5
t-70 109t-23.5 124q0 351 551 351h231v38q0 81 -47.5 129t-169.5 48q-110 0 -155.5 -36.5t-59.5 -101.5zM868 449v26h-227q-142 0 -207 -35.5t-65 -111.5q0 -64 50.5 -105t149.5 -41q153 0 226 71t73 196z" />
    <glyph glyph-name="uni1EB6" unicode="&#x1eb6;" horiz-adv-x="1615" 
d="M6 0l596 1446h383l625 -1446h-330l-154 365h-661l-146 -365h-313zM784 1245h-2q-59 -195 -235 -635h491q-216 521 -254 635zM983 1872h197q-10 -60 -36.5 -111.5t-71.5 -95.5t-116.5 -69t-160.5 -25q-94 0 -167.5 28t-116.5 74t-66 96t-29 103h198q15 -54 63.5 -85.5
t119.5 -31.5q83 0 124.5 31.5t61.5 85.5zM948 -420h-291v270h291v-270z" />
    <glyph glyph-name="uni1EB7" unicode="&#x1eb7;" horiz-adv-x="1300" 
d="M436 741h-291q3 45 17 87t49.5 89t88.5 81.5t143 57.5t204 23q125 0 218 -23.5t146.5 -59.5t86 -88.5t43 -101.5t10.5 -108v-413q0 -193 8 -285h-272q-13 47 -13 129q-94 -158 -382 -158q-105 0 -185.5 29.5t-127 79.5t-70 109t-23.5 124q0 351 551 351h231v38
q0 81 -47.5 129t-169.5 48q-110 0 -155.5 -36.5t-59.5 -101.5zM868 449v26h-227q-142 0 -207 -35.5t-65 -111.5q0 -64 50.5 -105t149.5 -41q153 0 226 71t73 196zM817 1544h197q-10 -69 -36 -126.5t-69 -104t-110.5 -73t-151.5 -26.5q-72 0 -131 18.5t-99.5 49.5t-69 74
t-42.5 89.5t-18 98.5h198q32 -141 166 -141q42 0 72.5 11t48.5 33t27.5 44t17.5 53zM797 -420h-291v270h291v-270z" />
    <glyph glyph-name="uni1EB8" unicode="&#x1eb8;" horiz-adv-x="1486" 
d="M195 0v1446h1173v-246h-870v-323h825v-246h-825v-385h915l-35 -246h-1183zM936 -420h-291v270h291v-270z" />
    <glyph glyph-name="uni1EB9" unicode="&#x1eb9;" horiz-adv-x="1292" 
d="M913 315h289q-19 -56 -48 -104.5t-75.5 -93.5t-104.5 -76.5t-139.5 -50.5t-177.5 -19q-120 0 -218 32t-163.5 85t-110 125t-64 149.5t-19.5 161.5q0 114 38 214.5t109 176.5t180.5 120t243.5 44q118 0 214 -32t160 -85.5t108 -125.5t63 -149.5t19 -160.5q0 -25 -3 -69
h-843q8 -117 86 -192t205 -75q99 0 157 31.5t94 93.5zM653 872q-132 0 -199 -65t-79 -168h547q-3 40 -16.5 76.5t-42 74t-82.5 60t-128 22.5zM791 -420h-291v270h291v-270z" />
    <glyph glyph-name="uni1EBA" unicode="&#x1eba;" horiz-adv-x="1486" 
d="M195 0v1446h1173v-246h-870v-323h825v-246h-825v-385h915l-35 -246h-1183zM598 1761l-49 137q98 62 229 62q117 0 177.5 -51t60.5 -137q0 -110 -115 -211h-217q59 59 81.5 91t22.5 66q0 32 -18.5 52t-56.5 20q-55 0 -115 -29z" />
    <glyph glyph-name="uni1EBB" unicode="&#x1ebb;" horiz-adv-x="1292" 
d="M913 315h289q-19 -56 -48 -104.5t-75.5 -93.5t-104.5 -76.5t-139.5 -50.5t-177.5 -19q-120 0 -218 32t-163.5 85t-110 125t-64 149.5t-19.5 161.5q0 114 38 214.5t109 176.5t180.5 120t243.5 44q118 0 214 -32t160 -85.5t108 -125.5t63 -149.5t19 -160.5q0 -25 -3 -69
h-843q8 -117 86 -192t205 -75q99 0 157 31.5t94 93.5zM653 872q-132 0 -199 -65t-79 -168h547q-3 40 -16.5 76.5t-42 74t-82.5 60t-128 22.5zM459 1395l-49 137q96 61 229 61q117 0 177.5 -51t60.5 -137q0 -110 -115 -211h-217q58 58 81 91t23 67q0 31 -19 51t-57 20
q-56 0 -114 -28z" />
    <glyph glyph-name="uni1EBC" unicode="&#x1ebc;" horiz-adv-x="1486" 
d="M195 0v1446h1173v-246h-870v-323h825v-246h-825v-385h915l-35 -246h-1183zM586 1599h-185v56q0 239 207 239q58 0 125 -25t123 -50t88 -25t46 17t14 65v18h180v-45q0 -144 -51.5 -201t-143.5 -57q-46 0 -100 16.5t-94 37t-84 37t-72 16.5q-53 0 -53 -70v-29z" />
    <glyph glyph-name="uni1EBD" unicode="&#x1ebd;" horiz-adv-x="1292" 
d="M913 315h289q-19 -56 -48 -104.5t-75.5 -93.5t-104.5 -76.5t-139.5 -50.5t-177.5 -19q-120 0 -218 32t-163.5 85t-110 125t-64 149.5t-19.5 161.5q0 114 38 214.5t109 176.5t180.5 120t243.5 44q118 0 214 -32t160 -85.5t108 -125.5t63 -149.5t19 -160.5q0 -25 -3 -69
h-843q8 -117 86 -192t205 -75q99 0 157 31.5t94 93.5zM653 872q-132 0 -199 -65t-79 -168h547q-3 40 -16.5 76.5t-42 74t-82.5 60t-128 22.5zM449 1227h-175v67q0 129 52.5 181.5t146.5 52.5q57 0 116.5 -26t109 -51.5t81.5 -25.5q64 0 64 86v21h172v-53q0 -75 -14 -126
t-42 -78.5t-62.5 -38.5t-82.5 -11q-59 0 -117.5 25.5t-106.5 51t-81 25.5q-61 0 -61 -65v-35z" />
    <glyph glyph-name="uni1EBE" unicode="&#x1ebe;" horiz-adv-x="1486" 
d="M317 1571l285 270h338l283 -270h-281l-174 149l-164 -149h-287zM1081 1802l224 244h301l-289 -244h-236zM195 0v1446h1173v-246h-870v-323h825v-246h-825v-385h915l-35 -246h-1183z" />
    <glyph glyph-name="uni1EBF" unicode="&#x1ebf;" horiz-adv-x="1292" 
d="M266 1204l252 283h264l265 -283h-250l-146 156l-141 -156h-244zM907 1442l230 270h280l-289 -270h-221zM913 315h289q-19 -56 -48 -104.5t-75.5 -93.5t-104.5 -76.5t-139.5 -50.5t-177.5 -19q-120 0 -218 32t-163.5 85t-110 125t-64 149.5t-19.5 161.5q0 114 38 214.5
t109 176.5t180.5 120t243.5 44q118 0 214 -32t160 -85.5t108 -125.5t63 -149.5t19 -160.5q0 -25 -3 -69h-843q8 -117 86 -192t205 -75q99 0 157 31.5t94 93.5zM653 872q-132 0 -199 -65t-79 -168h547q-3 40 -16.5 76.5t-42 74t-82.5 60t-128 22.5z" />
    <glyph glyph-name="uni1EC0" unicode="&#x1ec0;" horiz-adv-x="1486" 
d="M317 1571l285 270h338l283 -270h-281l-174 149l-164 -149h-287zM1274 1757l-311 248l305 -4l237 -248zM195 0v1446h1173v-246h-870v-323h825v-246h-825v-385h915l-35 -246h-1183z" />
    <glyph glyph-name="uni1EC1" unicode="&#x1ec1;" horiz-adv-x="1292" 
d="M266 1204l252 283h264l265 -283h-250l-146 156l-141 -156h-244zM1073 1415l-289 279h273l221 -279h-205zM913 315h289q-19 -56 -48 -104.5t-75.5 -93.5t-104.5 -76.5t-139.5 -50.5t-177.5 -19q-120 0 -218 32t-163.5 85t-110 125t-64 149.5t-19.5 161.5q0 114 38 214.5
t109 176.5t180.5 120t243.5 44q118 0 214 -32t160 -85.5t108 -125.5t63 -149.5t19 -160.5q0 -25 -3 -69h-843q8 -117 86 -192t205 -75q99 0 157 31.5t94 93.5zM653 872q-132 0 -199 -65t-79 -168h547q-3 40 -16.5 76.5t-42 74t-82.5 60t-128 22.5z" />
    <glyph glyph-name="uni1EC2" unicode="&#x1ec2;" horiz-adv-x="1486" 
d="M317 1569l285 270h338l283 -270h-281l-174 149l-164 -149h-287zM1049 1954l-37 135q86 57 213 57q100 0 156.5 -47.5t56.5 -130.5q0 -59 -32 -109.5t-81 -84.5h-203q107 82 107 151q0 60 -70 60q-59 0 -110 -31zM195 0v1446h1173v-246h-870v-323h825v-246h-825v-385h915
l-35 -246h-1183z" />
    <glyph glyph-name="uni1EC3" unicode="&#x1ec3;" horiz-adv-x="1292" 
d="M268 1204l252 283h264l265 -283h-250l-146 156l-141 -156h-244zM864 1597l-45 115q82 66 205 66q97 0 148 -44t51 -124q0 -113 -101 -187h-188q113 85 113 150q0 59 -70 59q-66 0 -113 -35zM913 315h289q-19 -56 -48 -104.5t-75.5 -93.5t-104.5 -76.5t-139.5 -50.5
t-177.5 -19q-120 0 -218 32t-163.5 85t-110 125t-64 149.5t-19.5 161.5q0 114 38 214.5t109 176.5t180.5 120t243.5 44q118 0 214 -32t160 -85.5t108 -125.5t63 -149.5t19 -160.5q0 -25 -3 -69h-843q8 -117 86 -192t205 -75q99 0 157 31.5t94 93.5zM653 872q-132 0 -199 -65
t-79 -168h547q-3 40 -16.5 76.5t-42 74t-82.5 60t-128 22.5z" />
    <glyph glyph-name="uni1EC4" unicode="&#x1ec4;" horiz-adv-x="1486" 
d="M580 1874h-156v33q0 116 51 162.5t139 46.5q56 0 119 -20t114.5 -40t80.5 -20q32 0 47.5 13t15.5 48v17h152v-23q0 -111 -51.5 -165t-139.5 -54q-63 0 -167 40t-142 40q-63 0 -63 -66v-12zM375 1567l264 225h287l268 -225h-274l-138 104l-133 -104h-274zM195 0v1446h1173
v-246h-870v-323h825v-246h-825v-385h915l-35 -246h-1183z" />
    <glyph glyph-name="uni1EC5" unicode="&#x1ec5;" horiz-adv-x="1292" 
d="M469 1489h-150v22q0 110 49.5 160.5t129.5 50.5q55 0 110 -19t99 -37.5t71 -18.5q29 0 44.5 12t15.5 45v14h145v-28q0 -201 -182 -201q-60 0 -150.5 37t-124.5 37q-57 0 -57 -60v-14zM270 1186l228 221h305l231 -221h-254l-135 119l-125 -119h-250zM913 315h289
q-19 -56 -48 -104.5t-75.5 -93.5t-104.5 -76.5t-139.5 -50.5t-177.5 -19q-120 0 -218 32t-163.5 85t-110 125t-64 149.5t-19.5 161.5q0 114 38 214.5t109 176.5t180.5 120t243.5 44q118 0 214 -32t160 -85.5t108 -125.5t63 -149.5t19 -160.5q0 -25 -3 -69h-843
q8 -117 86 -192t205 -75q99 0 157 31.5t94 93.5zM653 872q-132 0 -199 -65t-79 -168h547q-3 40 -16.5 76.5t-42 74t-82.5 60t-128 22.5z" />
    <glyph glyph-name="uni1EC6" unicode="&#x1ec6;" horiz-adv-x="1486" 
d="M195 0v1446h1173v-246h-870v-323h825v-246h-825v-385h915l-35 -246h-1183zM342 1573l281 280h313l281 -280h-271l-170 158l-164 -158h-270zM952 -420h-290v270h290v-270z" />
    <glyph glyph-name="uni1EC7" unicode="&#x1ec7;" horiz-adv-x="1292" 
d="M913 315h289q-19 -56 -48 -104.5t-75.5 -93.5t-104.5 -76.5t-139.5 -50.5t-177.5 -19q-120 0 -218 32t-163.5 85t-110 125t-64 149.5t-19.5 161.5q0 114 38 214.5t109 176.5t180.5 120t243.5 44q118 0 214 -32t160 -85.5t108 -125.5t63 -149.5t19 -160.5q0 -25 -3 -69
h-843q8 -117 86 -192t205 -75q99 0 157 31.5t94 93.5zM653 872q-132 0 -199 -65t-79 -168h547q-3 40 -16.5 76.5t-42 74t-82.5 60t-128 22.5zM236 1219l270 321h276l271 -321h-252l-160 184l-149 -184h-256zM791 -420h-291v270h291v-270z" />
    <glyph glyph-name="uni1EC8" unicode="&#x1ec8;" horiz-adv-x="690" 
d="M195 0v1446h303v-1446h-303zM150 1755l-50 137q98 62 230 62q116 0 176.5 -51.5t60.5 -137.5q0 -111 -114 -211h-217q58 58 81 91t23 67q0 31 -19 51.5t-57 20.5q-54 0 -114 -29z" />
    <glyph glyph-name="uni1EC9" unicode="&#x1ec9;" horiz-adv-x="587" 
d="M440 0h-290v1051h290v-1051zM96 1395l-49 137q96 61 229 61q117 0 177.5 -51t60.5 -137q0 -110 -115 -211h-217q59 59 82 91.5t23 66.5q0 31 -19 51t-57 20q-57 0 -115 -28z" />
    <glyph glyph-name="uni1ECA" unicode="&#x1eca;" horiz-adv-x="690" 
d="M195 0v1446h303v-1446h-303zM492 -420h-291v270h291v-270z" />
    <glyph glyph-name="uni1ECB" unicode="&#x1ecb;" horiz-adv-x="587" 
d="M440 0h-290v1051h290v-1051zM440 1274h-290v256h290v-256zM438 -420h-291v270h291v-270z" />
    <glyph glyph-name="uni1ECC" unicode="&#x1ecc;" horiz-adv-x="1757" 
d="M104 727q0 150 55 285.5t153.5 239t247 164.5t323.5 61q179 0 327 -61t244 -165t148.5 -238.5t52.5 -283.5q0 -153 -51.5 -289t-147.5 -241.5t-247.5 -167.5t-338.5 -62q-141 0 -263.5 38t-214 107.5t-157 163.5t-98.5 208.5t-33 240.5zM887 211q112 0 200 43
t140.5 116.5t79 163.5t26.5 191q0 104 -28.5 194.5t-83.5 162.5t-145 113.5t-204 41.5q-87 0 -161 -27.5t-126 -75t-89 -111.5t-54.5 -138t-17.5 -154q0 -108 29.5 -201.5t86 -165t146 -112.5t201.5 -41zM1018 -420h-291v270h291v-270z" />
    <glyph glyph-name="uni1ECD" unicode="&#x1ecd;" horiz-adv-x="1343" 
d="M82 526q0 111 39.5 210t112.5 176t187.5 122t254.5 45q115 0 212.5 -32t165 -86t115.5 -125.5t70.5 -150t22.5 -159.5q0 -118 -40 -219t-114 -176t-188.5 -117.5t-255.5 -42.5q-138 0 -250.5 45.5t-184 123t-109.5 176.5t-38 210zM672 195q142 0 216.5 93t74.5 234
t-76 238.5t-217 97.5q-96 0 -163 -47t-97.5 -120.5t-30.5 -164.5q0 -139 78 -235t215 -96zM817 -420h-291v270h291v-270z" />
    <glyph glyph-name="uni1ECE" unicode="&#x1ece;" horiz-adv-x="1757" 
d="M104 727q0 150 55 285.5t153.5 239t247 164.5t323.5 61q179 0 327 -61t244 -165t148.5 -238.5t52.5 -283.5q0 -153 -51.5 -289t-147.5 -241.5t-247.5 -167.5t-338.5 -62q-141 0 -263.5 38t-214 107.5t-157 163.5t-98.5 208.5t-33 240.5zM887 211q112 0 200 43
t140.5 116.5t79 163.5t26.5 191q0 104 -28.5 194.5t-83.5 162.5t-145 113.5t-204 41.5q-87 0 -161 -27.5t-126 -75t-89 -111.5t-54.5 -138t-17.5 -154q0 -108 29.5 -201.5t86 -165t146 -112.5t201.5 -41zM676 1776l-49 137q96 61 229 61q117 0 177.5 -51t60.5 -137
q0 -110 -115 -211h-217q58 58 81 91t23 67q0 31 -18.5 51t-56.5 20q-57 0 -115 -28z" />
    <glyph glyph-name="uni1ECF" unicode="&#x1ecf;" horiz-adv-x="1343" 
d="M82 526q0 111 39.5 210t112.5 176t187.5 122t254.5 45q115 0 212.5 -32t165 -86t115.5 -125.5t70.5 -150t22.5 -159.5q0 -118 -40 -219t-114 -176t-188.5 -117.5t-255.5 -42.5q-138 0 -250.5 45.5t-184 123t-109.5 176.5t-38 210zM672 195q142 0 216.5 93t74.5 234
t-76 238.5t-217 97.5q-96 0 -163 -47t-97.5 -120.5t-30.5 -164.5q0 -139 78 -235t215 -96zM475 1395l-49 137q96 61 229 61q117 0 177.5 -51t60.5 -137q0 -110 -115 -211h-217q59 59 82 91.5t23 66.5q0 31 -19 51t-57 20q-57 0 -115 -28z" />
    <glyph glyph-name="uni1ED0" unicode="&#x1ed0;" horiz-adv-x="1757" 
d="M420 1569l285 270h337l283 -270h-281l-174 149l-163 -149h-287zM1184 1800l223 244h301l-289 -244h-235zM104 727q0 150 55 285.5t153.5 239t247 164.5t323.5 61q179 0 327 -61t244 -165t148.5 -238.5t52.5 -283.5q0 -153 -51.5 -289t-147.5 -241.5t-247.5 -167.5
t-338.5 -62q-141 0 -263.5 38t-214 107.5t-157 163.5t-98.5 208.5t-33 240.5zM887 211q112 0 200 43t140.5 116.5t79 163.5t26.5 191q0 104 -28.5 194.5t-83.5 162.5t-145 113.5t-204 41.5q-87 0 -161 -27.5t-126 -75t-89 -111.5t-54.5 -138t-17.5 -154q0 -108 29.5 -201.5
t86 -165t146 -112.5t201.5 -41z" />
    <glyph glyph-name="uni1ED1" unicode="&#x1ed1;" horiz-adv-x="1343" 
d="M283 1204l252 283h264l264 -283h-250l-145 156l-142 -156h-243zM924 1442l229 270h281l-289 -270h-221zM82 526q0 111 39.5 210t112.5 176t187.5 122t254.5 45q115 0 212.5 -32t165 -86t115.5 -125.5t70.5 -150t22.5 -159.5q0 -118 -40 -219t-114 -176t-188.5 -117.5
t-255.5 -42.5q-138 0 -250.5 45.5t-184 123t-109.5 176.5t-38 210zM672 195q142 0 216.5 93t74.5 234t-76 238.5t-217 97.5q-96 0 -163 -47t-97.5 -120.5t-30.5 -164.5q0 -139 78 -235t215 -96z" />
    <glyph glyph-name="uni1ED2" unicode="&#x1ed2;" horiz-adv-x="1757" 
d="M420 1569l285 270h337l283 -270h-281l-174 149l-163 -149h-287zM1376 1755l-311 248l305 -4l238 -248zM104 727q0 150 55 285.5t153.5 239t247 164.5t323.5 61q179 0 327 -61t244 -165t148.5 -238.5t52.5 -283.5q0 -153 -51.5 -289t-147.5 -241.5t-247.5 -167.5
t-338.5 -62q-141 0 -263.5 38t-214 107.5t-157 163.5t-98.5 208.5t-33 240.5zM887 211q112 0 200 43t140.5 116.5t79 163.5t26.5 191q0 104 -28.5 194.5t-83.5 162.5t-145 113.5t-204 41.5q-87 0 -161 -27.5t-126 -75t-89 -111.5t-54.5 -138t-17.5 -154q0 -108 29.5 -201.5
t86 -165t146 -112.5t201.5 -41z" />
    <glyph glyph-name="uni1ED3" unicode="&#x1ed3;" horiz-adv-x="1343" 
d="M283 1204l252 283h264l264 -283h-250l-145 156l-142 -156h-243zM1090 1415l-289 279h272l221 -279h-204zM82 526q0 111 39.5 210t112.5 176t187.5 122t254.5 45q115 0 212.5 -32t165 -86t115.5 -125.5t70.5 -150t22.5 -159.5q0 -118 -40 -219t-114 -176t-188.5 -117.5
t-255.5 -42.5q-138 0 -250.5 45.5t-184 123t-109.5 176.5t-38 210zM672 195q142 0 216.5 93t74.5 234t-76 238.5t-217 97.5q-96 0 -163 -47t-97.5 -120.5t-30.5 -164.5q0 -139 78 -235t215 -96z" />
    <glyph glyph-name="uni1ED4" unicode="&#x1ed4;" horiz-adv-x="1757" 
d="M420 1571l285 270h337l283 -270h-281l-174 149l-163 -149h-287zM1151 1956l-37 135q86 57 213 57q100 0 156.5 -47.5t56.5 -130.5q0 -59 -32 -109.5t-81 -84.5h-202q106 81 106 151q0 60 -69 60q-60 0 -111 -31zM104 727q0 150 55 285.5t153.5 239t247 164.5t323.5 61
q179 0 327 -61t244 -165t148.5 -238.5t52.5 -283.5q0 -153 -51.5 -289t-147.5 -241.5t-247.5 -167.5t-338.5 -62q-141 0 -263.5 38t-214 107.5t-157 163.5t-98.5 208.5t-33 240.5zM887 211q112 0 200 43t140.5 116.5t79 163.5t26.5 191q0 104 -28.5 194.5t-83.5 162.5
t-145 113.5t-204 41.5q-87 0 -161 -27.5t-126 -75t-89 -111.5t-54.5 -138t-17.5 -154q0 -108 29.5 -201.5t86 -165t146 -112.5t201.5 -41z" />
    <glyph glyph-name="uni1ED5" unicode="&#x1ed5;" horiz-adv-x="1343" 
d="M283 1204l252 283h264l264 -283h-250l-145 156l-142 -156h-243zM879 1597l-45 115q82 66 204 66q97 0 148 -44t51 -124q0 -113 -100 -187h-189q113 85 113 150q0 59 -70 59q-65 0 -112 -35zM82 526q0 111 39.5 210t112.5 176t187.5 122t254.5 45q115 0 212.5 -32t165 -86
t115.5 -125.5t70.5 -150t22.5 -159.5q0 -118 -40 -219t-114 -176t-188.5 -117.5t-255.5 -42.5q-138 0 -250.5 45.5t-184 123t-109.5 176.5t-38 210zM672 195q142 0 216.5 93t74.5 234t-76 238.5t-217 97.5q-96 0 -163 -47t-97.5 -120.5t-30.5 -164.5q0 -139 78 -235t215 -96
z" />
    <glyph glyph-name="uni1ED6" unicode="&#x1ed6;" horiz-adv-x="1757" 
d="M668 1876h-156v33q0 116 51 162.5t139 46.5q56 0 119 -20t114.5 -40t80.5 -20q32 0 47.5 13t15.5 48v17h152v-23q0 -111 -51.5 -165t-139.5 -54q-63 0 -167 40t-142 40q-63 0 -63 -66v-12zM463 1569l264 225h287l268 -225h-274l-138 104l-133 -104h-274zM104 727
q0 150 55 285.5t153.5 239t247 164.5t323.5 61q179 0 327 -61t244 -165t148.5 -238.5t52.5 -283.5q0 -153 -51.5 -289t-147.5 -241.5t-247.5 -167.5t-338.5 -62q-141 0 -263.5 38t-214 107.5t-157 163.5t-98.5 208.5t-33 240.5zM887 211q112 0 200 43t140.5 116.5t79 163.5
t26.5 191q0 104 -28.5 194.5t-83.5 162.5t-145 113.5t-204 41.5q-87 0 -161 -27.5t-126 -75t-89 -111.5t-54.5 -138t-17.5 -154q0 -108 29.5 -201.5t86 -165t146 -112.5t201.5 -41z" />
    <glyph glyph-name="uni1ED7" unicode="&#x1ed7;" horiz-adv-x="1343" 
d="M489 1489h-149v22q0 110 49 160.5t129 50.5q55 0 110.5 -19t99.5 -37.5t71 -18.5q29 0 44 12t15 45v14h146v-28q0 -201 -183 -201q-60 0 -150 37t-124 37q-58 0 -58 -60v-14zM291 1186l227 221h305l232 -221h-254l-135 119l-125 -119h-250zM82 526q0 111 39.5 210
t112.5 176t187.5 122t254.5 45q115 0 212.5 -32t165 -86t115.5 -125.5t70.5 -150t22.5 -159.5q0 -118 -40 -219t-114 -176t-188.5 -117.5t-255.5 -42.5q-138 0 -250.5 45.5t-184 123t-109.5 176.5t-38 210zM672 195q142 0 216.5 93t74.5 234t-76 238.5t-217 97.5
q-96 0 -163 -47t-97.5 -120.5t-30.5 -164.5q0 -139 78 -235t215 -96z" />
    <glyph glyph-name="uni1ED8" unicode="&#x1ed8;" horiz-adv-x="1757" 
d="M104 727q0 150 55 285.5t153.5 239t247 164.5t323.5 61q179 0 327 -61t244 -165t148.5 -238.5t52.5 -283.5q0 -153 -51.5 -289t-147.5 -241.5t-247.5 -167.5t-338.5 -62q-141 0 -263.5 38t-214 107.5t-157 163.5t-98.5 208.5t-33 240.5zM887 211q112 0 200 43
t140.5 116.5t79 163.5t26.5 191q0 104 -28.5 194.5t-83.5 162.5t-145 113.5t-204 41.5q-87 0 -161 -27.5t-126 -75t-89 -111.5t-54.5 -138t-17.5 -154q0 -108 29.5 -201.5t86 -165t146 -112.5t201.5 -41zM434 1569l281 280h313l281 -280h-271l-170 157l-163 -157h-271z
M1018 -420h-291v270h291v-270z" />
    <glyph glyph-name="uni1ED9" unicode="&#x1ed9;" horiz-adv-x="1343" 
d="M82 526q0 111 39.5 210t112.5 176t187.5 122t254.5 45q115 0 212.5 -32t165 -86t115.5 -125.5t70.5 -150t22.5 -159.5q0 -118 -40 -219t-114 -176t-188.5 -117.5t-255.5 -42.5q-138 0 -250.5 45.5t-184 123t-109.5 176.5t-38 210zM672 195q142 0 216.5 93t74.5 234
t-76 238.5t-217 97.5q-96 0 -163 -47t-97.5 -120.5t-30.5 -164.5q0 -139 78 -235t215 -96zM262 1219l270 321h277l270 -321h-252l-159 184l-150 -184h-256zM817 -420h-291v270h291v-270z" />
    <glyph glyph-name="uni1EDA" unicode="&#x1eda;" horiz-adv-x="1757" 
d="M1391 1632h258q14 -52 14 -129q0 -97 -46 -171t-136 -111q85 -100 129.5 -227t44.5 -265q0 -153 -51.5 -289t-147.5 -241.5t-247.5 -167.5t-338.5 -62q-141 0 -263.5 38t-214 107.5t-157 163.5t-98.5 208.5t-33 240.5q0 150 55 285.5t153.5 239t247 164.5t323.5 61
q243 0 422 -109q106 19 106 137q0 65 -20 127zM887 211q112 0 200 43t140.5 116.5t79 163.5t26.5 191q0 104 -28.5 194.5t-83.5 162.5t-145 113.5t-204 41.5q-87 0 -161 -27.5t-126 -75t-89 -111.5t-54.5 -138t-17.5 -154q0 -108 29.5 -201.5t86 -165t146 -112.5t201.5 -41z
M692 1587l344 285h375l-436 -285h-283z" />
    <glyph glyph-name="uni1EDB" unicode="&#x1edb;" horiz-adv-x="1343" 
d="M1075 1237h258q15 -55 15 -129q0 -95 -43.5 -168.5t-130.5 -112.5q88 -134 88 -301q0 -118 -40 -219t-114 -176t-188.5 -117.5t-255.5 -42.5q-138 0 -250.5 45.5t-184 123t-109.5 176.5t-38 210t39.5 210t112.5 176t187.5 122t254.5 45q203 0 346 -96q74 28 74 127
q0 62 -21 127zM672 195q142 0 216.5 93t74.5 234t-76 238.5t-217 97.5q-96 0 -163 -47t-97.5 -120.5t-30.5 -164.5q0 -139 78 -235t215 -96zM510 1233l283 319h333l-358 -319h-258z" />
    <glyph glyph-name="uni1EDC" unicode="&#x1edc;" horiz-adv-x="1757" 
d="M1391 1632h258q14 -52 14 -129q0 -97 -46 -171t-136 -111q85 -100 129.5 -227t44.5 -265q0 -153 -51.5 -289t-147.5 -241.5t-247.5 -167.5t-338.5 -62q-141 0 -263.5 38t-214 107.5t-157 163.5t-98.5 208.5t-33 240.5q0 150 55 285.5t153.5 239t247 164.5t323.5 61
q243 0 422 -109q106 19 106 137q0 65 -20 127zM887 211q112 0 200 43t140.5 116.5t79 163.5t26.5 191q0 104 -28.5 194.5t-83.5 162.5t-145 113.5t-204 41.5q-87 0 -161 -27.5t-126 -75t-89 -111.5t-54.5 -138t-17.5 -154q0 -108 29.5 -201.5t86 -165t146 -112.5t201.5 -41z
M784 1587l-438 285h377l336 -285h-275z" />
    <glyph glyph-name="uni1EDD" unicode="&#x1edd;" horiz-adv-x="1343" 
d="M1075 1237h258q15 -55 15 -129q0 -95 -43.5 -168.5t-130.5 -112.5q88 -134 88 -301q0 -118 -40 -219t-114 -176t-188.5 -117.5t-255.5 -42.5q-138 0 -250.5 45.5t-184 123t-109.5 176.5t-38 210t39.5 210t112.5 176t187.5 122t254.5 45q203 0 346 -96q74 28 74 127
q0 62 -21 127zM672 195q142 0 216.5 93t74.5 234t-76 238.5t-217 97.5q-96 0 -163 -47t-97.5 -120.5t-30.5 -164.5q0 -139 78 -235t215 -96zM600 1233l-371 319h336l291 -319h-256z" />
    <glyph glyph-name="uni1EDE" unicode="&#x1ede;" horiz-adv-x="1757" 
d="M1391 1632h258q14 -52 14 -129q0 -97 -46 -171t-136 -111q85 -100 129.5 -227t44.5 -265q0 -153 -51.5 -289t-147.5 -241.5t-247.5 -167.5t-338.5 -62q-141 0 -263.5 38t-214 107.5t-157 163.5t-98.5 208.5t-33 240.5q0 150 55 285.5t153.5 239t247 164.5t323.5 61
q243 0 422 -109q106 19 106 137q0 65 -20 127zM887 211q112 0 200 43t140.5 116.5t79 163.5t26.5 191q0 104 -28.5 194.5t-83.5 162.5t-145 113.5t-204 41.5q-87 0 -161 -27.5t-126 -75t-89 -111.5t-54.5 -138t-17.5 -154q0 -108 29.5 -201.5t86 -165t146 -112.5t201.5 -41z
M682 1769l-49 138q96 61 229 61q117 0 177.5 -51t60.5 -137q0 -110 -115 -211h-217q59 59 81.5 91t22.5 66q0 32 -18.5 52t-56.5 20q-55 0 -115 -29z" />
    <glyph glyph-name="uni1EDF" unicode="&#x1edf;" horiz-adv-x="1343" 
d="M1075 1237h258q15 -55 15 -129q0 -95 -43.5 -168.5t-130.5 -112.5q88 -134 88 -301q0 -118 -40 -219t-114 -176t-188.5 -117.5t-255.5 -42.5q-138 0 -250.5 45.5t-184 123t-109.5 176.5t-38 210t39.5 210t112.5 176t187.5 122t254.5 45q203 0 346 -96q74 28 74 127
q0 62 -21 127zM672 195q142 0 216.5 93t74.5 234t-76 238.5t-217 97.5q-96 0 -163 -47t-97.5 -120.5t-30.5 -164.5q0 -139 78 -235t215 -96zM481 1395l-49 137q96 61 230 61q116 0 176.5 -51t60.5 -137q0 -110 -115 -211h-217q59 59 82 91.5t23 66.5q0 31 -19 51t-57 20
q-57 0 -115 -28z" />
    <glyph glyph-name="uni1EE0" unicode="&#x1ee0;" horiz-adv-x="1757" 
d="M1391 1632h258q14 -52 14 -129q0 -97 -46 -171t-136 -111q85 -100 129.5 -227t44.5 -265q0 -153 -51.5 -289t-147.5 -241.5t-247.5 -167.5t-338.5 -62q-141 0 -263.5 38t-214 107.5t-157 163.5t-98.5 208.5t-33 240.5q0 150 55 285.5t153.5 239t247 164.5t323.5 61
q243 0 422 -109q106 19 106 137q0 65 -20 127zM887 211q112 0 200 43t140.5 116.5t79 163.5t26.5 191q0 104 -28.5 194.5t-83.5 162.5t-145 113.5t-204 41.5q-87 0 -161 -27.5t-126 -75t-89 -111.5t-54.5 -138t-17.5 -154q0 -108 29.5 -201.5t86 -165t146 -112.5t201.5 -41z
M670 1595h-185v56q0 239 207 239q58 0 125 -25t123 -50t88 -25q31 0 45 17t14 65v18h181v-45q0 -144 -51.5 -201t-143.5 -57q-46 0 -100 16.5t-94 37t-84 37t-72 16.5q-53 0 -53 -70v-29z" />
    <glyph glyph-name="uni1EE1" unicode="&#x1ee1;" horiz-adv-x="1343" 
d="M1075 1237h258q15 -55 15 -129q0 -95 -43.5 -168.5t-130.5 -112.5q88 -134 88 -301q0 -118 -40 -219t-114 -176t-188.5 -117.5t-255.5 -42.5q-138 0 -250.5 45.5t-184 123t-109.5 176.5t-38 210t39.5 210t112.5 176t187.5 122t254.5 45q203 0 346 -96q74 28 74 127
q0 62 -21 127zM672 195q142 0 216.5 93t74.5 234t-76 238.5t-217 97.5q-96 0 -163 -47t-97.5 -120.5t-30.5 -164.5q0 -139 78 -235t215 -96zM481 1227h-174v67q0 129 52.5 181.5t146.5 52.5q57 0 116.5 -26t109 -51.5t81.5 -25.5q64 0 64 86v21h172v-53q0 -75 -14 -126
t-42 -78.5t-62.5 -38.5t-82.5 -11q-59 0 -117.5 25.5t-106.5 51t-81 25.5q-62 0 -62 -65v-35z" />
    <glyph glyph-name="uni1EE2" unicode="&#x1ee2;" horiz-adv-x="1757" 
d="M1391 1632h258q14 -52 14 -129q0 -97 -46 -171t-136 -111q85 -100 129.5 -227t44.5 -265q0 -153 -51.5 -289t-147.5 -241.5t-247.5 -167.5t-338.5 -62q-141 0 -263.5 38t-214 107.5t-157 163.5t-98.5 208.5t-33 240.5q0 150 55 285.5t153.5 239t247 164.5t323.5 61
q243 0 422 -109q106 19 106 137q0 65 -20 127zM887 211q112 0 200 43t140.5 116.5t79 163.5t26.5 191q0 104 -28.5 194.5t-83.5 162.5t-145 113.5t-204 41.5q-87 0 -161 -27.5t-126 -75t-89 -111.5t-54.5 -138t-17.5 -154q0 -108 29.5 -201.5t86 -165t146 -112.5t201.5 -41z
M1024 -420h-291v270h291v-270z" />
    <glyph glyph-name="uni1EE3" unicode="&#x1ee3;" horiz-adv-x="1343" 
d="M1075 1237h258q15 -55 15 -129q0 -95 -43.5 -168.5t-130.5 -112.5q88 -134 88 -301q0 -118 -40 -219t-114 -176t-188.5 -117.5t-255.5 -42.5q-138 0 -250.5 45.5t-184 123t-109.5 176.5t-38 210t39.5 210t112.5 176t187.5 122t254.5 45q203 0 346 -96q74 28 74 127
q0 62 -21 127zM672 195q142 0 216.5 93t74.5 234t-76 238.5t-217 97.5q-96 0 -163 -47t-97.5 -120.5t-30.5 -164.5q0 -139 78 -235t215 -96zM817 -420h-291v270h291v-270z" />
    <glyph glyph-name="uni1EE4" unicode="&#x1ee4;" horiz-adv-x="1685" 
d="M178 610v836h303v-819q0 -416 373 -416q84 0 145.5 20t109 66.5t71.5 129t24 200.5v819h303v-825q0 -330 -171 -491t-492 -161q-317 0 -491.5 157t-174.5 484zM987 -420h-291v270h291v-270z" />
    <glyph glyph-name="uni1EE5" unicode="&#x1ee5;" horiz-adv-x="1337" 
d="M147 406v645h289v-596q0 -117 50 -185.5t159 -68.5q136 0 195 85.5t59 282.5v482h291v-744v-307h-283q-1 9 -6 141q-22 -39 -48 -67t-67.5 -52.5t-102.5 -37.5t-142 -13q-177 0 -285.5 108t-108.5 327zM813 -420h-291v270h291v-270z" />
    <glyph glyph-name="uni1EE6" unicode="&#x1ee6;" horiz-adv-x="1685" 
d="M178 610v836h303v-819q0 -416 373 -416q84 0 145.5 20t109 66.5t71.5 129t24 200.5v819h303v-825q0 -330 -171 -491t-492 -161q-317 0 -491.5 157t-174.5 484zM645 1769l-49 138q96 61 229 61q117 0 177.5 -51t60.5 -137q0 -110 -115 -211h-217q59 59 82 91t23 66
q0 31 -19 51.5t-57 20.5q-55 0 -115 -29z" />
    <glyph glyph-name="uni1EE7" unicode="&#x1ee7;" horiz-adv-x="1337" 
d="M147 406v645h289v-596q0 -117 50 -185.5t159 -68.5q136 0 195 85.5t59 282.5v482h291v-744v-307h-283q-1 9 -6 141q-22 -39 -48 -67t-67.5 -52.5t-102.5 -37.5t-142 -13q-177 0 -285.5 108t-108.5 327zM471 1395l-49 137q96 61 229 61q117 0 177.5 -51t60.5 -137
q0 -110 -115 -211h-217q59 59 82 91.5t23 66.5q0 31 -19 51t-57 20q-57 0 -115 -28z" />
    <glyph glyph-name="uni1EE8" unicode="&#x1ee8;" horiz-adv-x="1685" 
d="M178 610v836h303v-819q0 -416 373 -416q84 0 145.5 20t109 66.5t71.5 129t24 200.5v819h170q111 17 111 137q0 62 -21 127h258q15 -56 15 -129q0 -109 -58.5 -189t-171.5 -110v-661q0 -330 -171 -491t-492 -161q-317 0 -491.5 157t-174.5 484zM670 1583l344 285h375
l-437 -285h-282z" />
    <glyph glyph-name="uni1EE9" unicode="&#x1ee9;" horiz-adv-x="1337" 
d="M147 406v645h289v-596q0 -117 50 -185.5t159 -68.5q136 0 195 85.5t59 282.5v482h135q125 12 125 139q0 65 -20 127h258q14 -52 14 -129q0 -107 -56 -186.5t-165 -110.5v-584v-307h-283q-1 9 -6 141q-22 -39 -48 -67t-67.5 -52.5t-102.5 -37.5t-142 -13
q-177 0 -285.5 108t-108.5 327zM496 1233l282 319h334l-358 -319h-258z" />
    <glyph glyph-name="uni1EEA" unicode="&#x1eea;" horiz-adv-x="1685" 
d="M178 610v836h303v-819q0 -416 373 -416q84 0 145.5 20t109 66.5t71.5 129t24 200.5v819h170q111 17 111 137q0 62 -21 127h258q15 -56 15 -129q0 -109 -58.5 -189t-171.5 -110v-661q0 -330 -171 -491t-492 -161q-317 0 -491.5 157t-174.5 484zM754 1583l-439 285h377
l336 -285h-274z" />
    <glyph glyph-name="uni1EEB" unicode="&#x1eeb;" horiz-adv-x="1337" 
d="M147 406v645h289v-596q0 -117 50 -185.5t159 -68.5q136 0 195 85.5t59 282.5v482h135q125 12 125 139q0 65 -20 127h258q14 -52 14 -129q0 -107 -56 -186.5t-165 -110.5v-584v-307h-283q-1 9 -6 141q-22 -39 -48 -67t-67.5 -52.5t-102.5 -37.5t-142 -13
q-177 0 -285.5 108t-108.5 327zM596 1233l-371 319h336l291 -319h-256z" />
    <glyph glyph-name="uni1EEC" unicode="&#x1eec;" horiz-adv-x="1685" 
d="M178 610v836h303v-819q0 -416 373 -416q84 0 145.5 20t109 66.5t71.5 129t24 200.5v819h170q111 17 111 137q0 62 -21 127h258q15 -56 15 -129q0 -109 -58.5 -189t-171.5 -110v-661q0 -330 -171 -491t-492 -161q-317 0 -491.5 157t-174.5 484zM645 1769l-49 138
q96 61 229 61q117 0 177.5 -51t60.5 -137q0 -110 -115 -211h-217q59 59 82 91t23 66q0 31 -19 51.5t-57 20.5q-55 0 -115 -29z" />
    <glyph glyph-name="uni1EED" unicode="&#x1eed;" horiz-adv-x="1337" 
d="M147 406v645h289v-596q0 -117 50 -185.5t159 -68.5q136 0 195 85.5t59 282.5v482h135q125 12 125 139q0 65 -20 127h258q14 -52 14 -129q0 -107 -56 -186.5t-165 -110.5v-584v-307h-283q-1 9 -6 141q-22 -39 -48 -67t-67.5 -52.5t-102.5 -37.5t-142 -13
q-177 0 -285.5 108t-108.5 327zM477 1395l-49 137q96 61 229 61q117 0 177.5 -51t60.5 -137q0 -110 -115 -211h-217q59 59 82 91.5t23 66.5q0 31 -19 51t-57 20q-57 0 -115 -28z" />
    <glyph glyph-name="uni1EEE" unicode="&#x1eee;" horiz-adv-x="1685" 
d="M178 610v836h303v-819q0 -416 373 -416q84 0 145.5 20t109 66.5t71.5 129t24 200.5v819h170q111 17 111 137q0 62 -21 127h258q15 -56 15 -129q0 -109 -58.5 -189t-171.5 -110v-661q0 -330 -171 -491t-492 -161q-317 0 -491.5 157t-174.5 484zM633 1589h-184v56
q0 239 206 239q58 0 125 -25t123 -50t88 -25t46 17t14 65v18h180v-45q0 -144 -51.5 -201t-143.5 -57q-46 0 -100 16.5t-94 37t-84 37t-72 16.5q-53 0 -53 -70v-29z" />
    <glyph glyph-name="uni1EEF" unicode="&#x1eef;" horiz-adv-x="1337" 
d="M147 406v645h289v-596q0 -117 50 -185.5t159 -68.5q136 0 195 85.5t59 282.5v482h135q125 12 125 139q0 65 -20 127h258q14 -52 14 -129q0 -107 -56 -186.5t-165 -110.5v-584v-307h-283q-1 9 -6 141q-22 -39 -48 -67t-67.5 -52.5t-102.5 -37.5t-142 -13
q-177 0 -285.5 108t-108.5 327zM471 1227h-174v67q0 129 52.5 181.5t146.5 52.5q57 0 116.5 -26t109 -51.5t81.5 -25.5q30 0 46.5 19t16.5 67v21h172v-53q0 -75 -14 -126t-42 -78.5t-62 -38.5t-82 -11q-47 0 -94.5 16t-79.5 35t-68.5 35t-63.5 16q-61 0 -61 -65v-35z" />
    <glyph glyph-name="uni1EF0" unicode="&#x1ef0;" horiz-adv-x="1685" 
d="M178 610v836h303v-819q0 -416 373 -416q84 0 145.5 20t109 66.5t71.5 129t24 200.5v819h170q111 17 111 137q0 62 -21 127h258q15 -56 15 -129q0 -109 -58.5 -189t-171.5 -110v-661q0 -330 -171 -491t-492 -161q-317 0 -491.5 157t-174.5 484zM987 -420h-291v270h291
v-270z" />
    <glyph glyph-name="uni1EF1" unicode="&#x1ef1;" horiz-adv-x="1337" 
d="M147 406v645h289v-596q0 -117 50 -185.5t159 -68.5q136 0 195 85.5t59 282.5v482h135q125 12 125 139q0 65 -20 127h258q14 -52 14 -129q0 -107 -56 -186.5t-165 -110.5v-584v-307h-283q-1 9 -6 141q-22 -39 -48 -67t-67.5 -52.5t-102.5 -37.5t-142 -13
q-177 0 -285.5 108t-108.5 327zM813 -420h-291v270h291v-270z" />
    <glyph glyph-name="Ygrave" unicode="&#x1ef2;" horiz-adv-x="1413" 
d="M858 0h-305v528q0 22 -16 43l-600 875h360q25 -39 92.5 -142t104 -159t87.5 -135.5t84.5 -135t53.5 -92.5q32 59 98.5 163.5t174.5 269.5t151 231h334l-609 -885q-10 -15 -10 -37v-524zM616 1567l-438 284h377l336 -284h-275z" />
    <glyph glyph-name="ygrave" unicode="&#x1ef3;" horiz-adv-x="1247" 
d="M131 -465v238q47 -6 109 -6q54 0 89.5 9t64.5 34t49 56.5t49 90.5l-476 1094h318q227 -552 311 -822h4q101 339 283 822h295l-371 -932q-41 -104 -63.5 -159.5t-55.5 -127.5t-55 -106t-55.5 -77t-64 -60.5t-73.5 -36t-91 -24t-111 -5.5q-101 0 -156 12zM539 1233
l-371 319h336l291 -319h-256z" />
    <glyph glyph-name="uni1EF4" unicode="&#x1ef4;" horiz-adv-x="1413" 
d="M858 0h-305v528q0 22 -16 43l-600 875h360q25 -39 92.5 -142t104 -159t87.5 -135.5t84.5 -135t53.5 -92.5q32 59 98.5 163.5t174.5 269.5t151 231h334l-609 -885q-10 -15 -10 -37v-524zM852 -420h-291v270h291v-270z" />
    <glyph glyph-name="uni1EF5" unicode="&#x1ef5;" horiz-adv-x="1247" 
d="M131 -465v238q47 -6 109 -6q54 0 89.5 9t64.5 34t49 56.5t49 90.5l-476 1094h318q227 -552 311 -822h4q101 339 283 822h295l-371 -932q-41 -104 -63.5 -159.5t-55.5 -127.5t-55 -106t-55.5 -77t-64 -60.5t-73.5 -36t-91 -24t-111 -5.5q-101 0 -156 12zM1217 -420h-291
v270h291v-270z" />
    <glyph glyph-name="uni1EF6" unicode="&#x1ef6;" horiz-adv-x="1413" 
d="M858 0h-305v528q0 22 -16 43l-600 875h360q25 -39 92.5 -142t104 -159t87.5 -135.5t84.5 -135t53.5 -92.5q32 59 98.5 163.5t174.5 269.5t151 231h334l-609 -885q-10 -15 -10 -37v-524zM510 1755l-49 137q98 62 229 62q116 0 177 -51.5t61 -137.5q0 -110 -115 -211h-217
q58 58 81 91t23 67q0 32 -18.5 52t-56.5 20q-55 0 -115 -29z" />
    <glyph glyph-name="uni1EF7" unicode="&#x1ef7;" horiz-adv-x="1247" 
d="M131 -465v238q47 -6 109 -6q54 0 89.5 9t64.5 34t49 56.5t49 90.5l-476 1094h318q227 -552 311 -822h4q101 339 283 822h295l-371 -932q-41 -104 -63.5 -159.5t-55.5 -127.5t-55 -106t-55.5 -77t-64 -60.5t-73.5 -36t-91 -24t-111 -5.5q-101 0 -156 12zM426 1395l-49 137
q96 61 229 61q117 0 177.5 -51t60.5 -137q0 -110 -115 -211h-217q58 58 81 91t23 67q0 31 -18.5 51t-56.5 20q-57 0 -115 -28z" />
    <glyph glyph-name="uni1EF8" unicode="&#x1ef8;" horiz-adv-x="1413" 
d="M858 0h-305v528q0 22 -16 43l-600 875h360q25 -39 92.5 -142t104 -159t87.5 -135.5t84.5 -135t53.5 -92.5q32 59 98.5 163.5t174.5 269.5t151 231h334l-609 -885q-10 -15 -10 -37v-524zM498 1589h-185v56q0 239 207 239q58 0 125 -25t123 -50t88 -25q31 0 45 17t14 65v18
h181v-45q0 -144 -51.5 -201t-143.5 -57q-46 0 -100 16.5t-94 37t-84 37t-72 16.5q-53 0 -53 -70v-29z" />
    <glyph glyph-name="uni1EF9" unicode="&#x1ef9;" horiz-adv-x="1247" 
d="M131 -465v238q47 -6 109 -6q54 0 89.5 9t64.5 34t49 56.5t49 90.5l-476 1094h318q227 -552 311 -822h4q101 339 283 822h295l-371 -932q-41 -104 -63.5 -159.5t-55.5 -127.5t-55 -106t-55.5 -77t-64 -60.5t-73.5 -36t-91 -24t-111 -5.5q-101 0 -156 12zM426 1227h-174v67
q0 129 52.5 181.5t146.5 52.5q57 0 116.5 -26t109 -51.5t81.5 -25.5q30 0 46.5 19t16.5 67v21h172v-53q0 -75 -14 -126t-42 -78.5t-62 -38.5t-82 -11q-47 0 -94.5 16t-79.5 35t-68.5 35t-63.5 16q-61 0 -61 -65v-35z" />
    <glyph glyph-name="uni2007" unicode="&#x2007;" horiz-adv-x="1349" 
 />
    <glyph glyph-name="uni2010" unicode="&#x2010;" horiz-adv-x="890" 
d="M109 401v244h673v-244h-673z" />
    <glyph glyph-name="figuredash" unicode="&#x2012;" horiz-adv-x="1349" 
d="M156 596v242h1038v-242h-1038z" />
    <glyph glyph-name="endash" unicode="&#x2013;" horiz-adv-x="1292" 
d="M109 401v244h1075v-244h-1075z" />
    <glyph glyph-name="emdash" unicode="&#x2014;" horiz-adv-x="2367" 
d="M109 401v244h2150v-244h-2150z" />
    <glyph glyph-name="uni2015" unicode="&#x2015;" horiz-adv-x="2367" 
d="M109 401v244h2150v-244h-2150z" />
    <glyph glyph-name="quoteleft" unicode="&#x2018;" horiz-adv-x="581" 
d="M381 887h-295q16 158 69.5 342t110.5 299h232q-97 -318 -117 -641z" />
    <glyph glyph-name="quoteright" unicode="&#x2019;" horiz-adv-x="581" 
d="M201 1530h297q-18 -158 -72 -342t-111 -299h-229q95 325 115 641z" />
    <glyph glyph-name="quotesinglbase" unicode="&#x201a;" horiz-adv-x="581" 
d="M201 356h297q-18 -158 -72 -342t-111 -299h-229q95 325 115 641z" />
    <glyph glyph-name="quotedblleft" unicode="&#x201c;" horiz-adv-x="1026" 
d="M373 889h-287q19 168 71.5 347.5t108.5 293.5h217q-93 -366 -110 -641zM829 889h-286q19 168 71.5 347.5t108.5 293.5h217q-94 -371 -111 -641z" />
    <glyph glyph-name="quotedblright" unicode="&#x201d;" horiz-adv-x="1026" 
d="M201 1530h297q-18 -158 -72 -342t-111 -299h-229q95 325 115 641zM657 1530h297q-18 -159 -71.5 -342.5t-110.5 -298.5h-229q94 321 114 641z" />
    <glyph glyph-name="quotedblbase" unicode="&#x201e;" horiz-adv-x="1026" 
d="M201 356h297q-18 -158 -72 -342t-111 -299h-229q95 325 115 641zM657 356h297q-18 -159 -71.5 -342.5t-110.5 -298.5h-229q94 321 114 641z" />
    <glyph glyph-name="dagger" unicode="&#x2020;" horiz-adv-x="1140" 
d="M426 -285l16 1024l-383 -14v215l383 -12l-16 452h250l-17 -452l379 12v-215l-379 14l17 -1024h-250z" />
    <glyph glyph-name="daggerdbl" unicode="&#x2021;" horiz-adv-x="1140" 
d="M426 -285l16 451l-383 -14v213l383 -13v441l-383 -15v215l383 -16l-16 403h250l-17 -403l379 16v-215l-379 15v-441l379 13v-213l-379 14l17 -451h-250z" />
    <glyph glyph-name="bullet" unicode="&#x2022;" horiz-adv-x="942" 
d="M205 256v541h532v-541h-532z" />
    <glyph glyph-name="ellipsis" unicode="&#x2026;" horiz-adv-x="1839" 
d="M461 0h-330v399h330v-399zM1081 0h-329v399h329v-399zM1702 0h-330v399h330v-399z" />
    <glyph glyph-name="perthousand" unicode="&#x2030;" horiz-adv-x="2793" 
d="M614 0h-208l909 1376h211zM1489 -27q-179 0 -278 108t-99 290q0 168 100.5 280.5t280.5 112.5q176 0 279.5 -103.5t103.5 -289.5q0 -174 -101.5 -286t-285.5 -112zM1495 152q81 0 124.5 59t43.5 160q0 215 -172 215q-75 0 -118.5 -57t-43.5 -156q0 -102 43 -161.5
t123 -59.5zM2337 -27q-179 0 -278 108t-99 290q0 168 100.5 280.5t280.5 112.5q176 0 279.5 -103.5t103.5 -289.5q0 -174 -101.5 -286t-285.5 -112zM2343 152q81 0 124.5 59t43.5 160q0 215 -172 215q-75 0 -118.5 -57t-43.5 -156q0 -102 43 -161.5t123 -59.5zM446 614
q-178 0 -277 108t-99 290q0 168 100.5 280.5t280.5 112.5q176 0 279.5 -103.5t103.5 -289.5q0 -174 -102 -286t-286 -112zM453 793q81 0 124.5 59t43.5 160q0 215 -172 215q-75 0 -118.5 -57t-43.5 -156q0 -102 43 -161.5t123 -59.5z" />
    <glyph glyph-name="uni2032" unicode="&#x2032;" horiz-adv-x="575" 
d="M330 881h-228l82 649h289z" />
    <glyph glyph-name="uni2033" unicode="&#x2033;" horiz-adv-x="1001" 
d="M315 881h-213l82 649h277zM754 881h-213l82 649h276z" />
    <glyph glyph-name="guilsinglleft" unicode="&#x2039;" horiz-adv-x="823" 
d="M453 111l-357 428l357 424h274l-352 -424l354 -428h-276z" />
    <glyph glyph-name="guilsinglright" unicode="&#x203a;" horiz-adv-x="823" 
d="M371 111h-275l355 424l-355 428h275l358 -428z" />
    <glyph glyph-name="fraction" unicode="&#x2044;" horiz-adv-x="337" 
d="M-170 0h-176l856 1376h176z" />
    <glyph glyph-name="zero.sups" unicode="&#x2070;" horiz-adv-x="921" 
d="M461 895q-125 0 -216 57.5t-135 150t-44 206.5q0 183 107 301.5t294 118.5q96 0 172.5 -34t123.5 -92.5t71 -131t24 -154.5q0 -192 -108 -307t-289 -115zM465 1067q162 0 162 246q0 243 -164 243q-80 0 -123 -62.5t-43 -180.5q0 -116 45.5 -181t122.5 -65z" />
    <glyph glyph-name="four.sups" unicode="&#x2074;" horiz-adv-x="884" 
d="M59 1090v167l392 461h262v-463h139l-14 -165h-125v-185h-203v185h-451zM270 1255h240v121q0 114 6 187q-17 -25 -55 -73t-104.5 -129t-86.5 -106z" />
    <glyph glyph-name="five.sups" unicode="&#x2075;" horiz-adv-x="886" 
d="M82 1161h221q28 -98 154 -98q147 0 147 121q0 119 -162 119q-104 0 -153 -68l-197 35q52 244 80 448h619l-31 -176h-414q-6 -56 -20 -129q62 45 186 45q145 0 234.5 -70.5t89.5 -193.5q0 -133 -101 -215t-282 -82q-169 0 -265 76t-106 188z" />
    <glyph glyph-name="six.sups" unicode="&#x2076;" horiz-adv-x="899" 
d="M467 895q-191 0 -296 111t-105 303q0 62 13 120t43.5 113.5t75 96.5t113 65.5t152.5 24.5q80 0 145.5 -20t106.5 -53.5t65 -72t31 -80.5h-223q-32 70 -133 70q-84 0 -122.5 -53.5t-41.5 -137.5q37 35 100 57t144 21q141 -1 224 -75t83 -191q0 -135 -101.5 -217
t-273.5 -82zM309 1200q0 -57 37.5 -101t118.5 -44q73 0 113.5 32.5t39.5 96.5q-3 125 -157 125q-65 0 -108.5 -31t-43.5 -78z" />
    <glyph glyph-name="seven.sups" unicode="&#x2077;" horiz-adv-x="774" 
d="M393 907h-248q34 167 139.5 352.5t202.5 280.5h-452v178h692v-164q-111 -127 -201.5 -300t-132.5 -347z" />
    <glyph glyph-name="eight.sups" unicode="&#x2078;" horiz-adv-x="899" 
d="M70 1145q0 130 143 186q-104 49 -104 164q0 100 88.5 167t259.5 67q161 0 248.5 -66t87.5 -160q0 -120 -113 -164q149 -59 149 -190q0 -115 -110 -184.5t-273 -69.5q-174 0 -275 73t-101 177zM295 1159q0 -46 42 -76t114 -30q76 0 116.5 27.5t40.5 74.5q0 100 -159 100
q-73 0 -113.5 -26t-40.5 -70zM319 1491q0 -92 138 -92q123 0 123 88q0 40 -32 65t-95 25q-64 0 -99 -24t-35 -62z" />
    <glyph glyph-name="nine.sups" unicode="&#x2079;" horiz-adv-x="901" 
d="M72 1130h225q32 -75 141 -75q155 0 170 200q-76 -76 -231 -73q-151 1 -235.5 75t-84.5 183q0 125 100.5 207t272.5 82q193 0 298.5 -108.5t105.5 -299.5q0 -57 -11 -112.5t-40 -113.5t-72.5 -101.5t-114.5 -71t-160 -27.5q-160 0 -253.5 70t-110.5 165zM281 1452
q0 -54 41.5 -85.5t113.5 -31.5q69 0 113.5 27.5t44.5 79.5q0 53 -39 91t-121 38q-67 0 -110.5 -30.5t-42.5 -88.5z" />
    <glyph glyph-name="parenleft.sups" unicode="&#x207d;" horiz-adv-x="522" 
d="M479 748h-209q-73 80 -130.5 223t-57.5 321q0 179 55.5 317t132.5 232h209q-93 -117 -148 -247.5t-55 -301.5q0 -170 55 -298t148 -246z" />
    <glyph glyph-name="parenright.sups" unicode="&#x207e;" horiz-adv-x="522" 
d="M45 1870h209q73 -83 130.5 -225t57.5 -320q0 -179 -55.5 -317t-132.5 -232h-209q92 114 147.5 245.5t55.5 303.5q0 170 -55 299t-148 246z" />
    <glyph glyph-name="n.sups" unicode="&#x207f;" horiz-adv-x="921" 
d="M315 565h-215v461q0 149 -4 219h209q6 -15 6 -98q37 52 93.5 83.5t150.5 31.5q49 0 93.5 -14t85 -44t65 -87t24.5 -134v-418h-217v377q0 145 -129 145q-73 0 -117.5 -45.5t-44.5 -140.5v-336z" />
    <glyph glyph-name="zero.subs" unicode="&#x2080;" horiz-adv-x="921" 
d="M461 -336q-125 0 -216 57.5t-135 150t-44 206.5q0 183 107 301.5t294 118.5q96 0 172.5 -34t123.5 -92.5t71 -131t24 -154.5q0 -192 -108 -307t-289 -115zM465 -164q162 0 162 246q0 119 -41.5 181.5t-122.5 62.5q-80 0 -123 -63t-43 -181q0 -116 45.5 -181t122.5 -65z
" />
    <glyph glyph-name="one.subs" unicode="&#x2081;" horiz-adv-x="536" 
d="M426 -326h-225v576q-69 -25 -152 -29v158q51 7 116.5 39.5t104.5 68.5h156v-813z" />
    <glyph glyph-name="two.subs" unicode="&#x2082;" horiz-adv-x="847" 
d="M782 -326h-706v13q0 131 67.5 224.5t221.5 170.5q122 61 147 82q33 27 33 65q0 41 -29.5 71t-97.5 30q-64 0 -97.5 -28.5t-44.5 -86.5h-210q5 57 28.5 106.5t66 90t111.5 63.5t158 23q91 0 160 -24t107.5 -63t57.5 -83.5t19 -91.5q0 -96 -52.5 -153.5t-182.5 -115.5
q-52 -24 -80 -38.5t-57 -37t-42 -45.5h451z" />
    <glyph glyph-name="three.subs" unicode="&#x2083;" horiz-adv-x="862" 
d="M53 -61h219q28 -111 166 -111q73 0 110.5 26t37.5 74q0 50 -39.5 71t-130.5 21h-76v154h74q79 0 108 17.5t29 56.5q0 86 -125 86q-112 0 -139 -88h-205q3 28 12 57t34 65.5t61 64t99 46.5t142 19q159 0 248.5 -64.5t89.5 -171.5q0 -65 -34.5 -105.5t-80.5 -50.5
q57 -11 105.5 -59t48.5 -125q0 -50 -19.5 -93.5t-61.5 -81t-118.5 -59.5t-179.5 -22q-84 0 -151 20.5t-107 50t-67 68.5t-37.5 71.5t-12.5 62.5z" />
    <glyph glyph-name="four.subs" unicode="&#x2084;" horiz-adv-x="884" 
d="M59 -141v168l392 460h262v-462h139l-14 -166h-125v-185h-203v185h-451zM270 25h240v120q0 113 6 187q-17 -25 -56 -74t-102.5 -126.5t-87.5 -106.5z" />
    <glyph glyph-name="five.subs" unicode="&#x2085;" horiz-adv-x="886" 
d="M82 -70h221q28 -98 154 -98q147 0 147 121q0 119 -162 119q-104 0 -153 -68l-197 35q52 244 80 448h619l-31 -176h-414q-6 -56 -20 -129q62 45 186 45q145 0 234.5 -70.5t89.5 -193.5q0 -133 -101 -215t-282 -82q-169 0 -265 76t-106 188z" />
    <glyph glyph-name="six.subs" unicode="&#x2086;" horiz-adv-x="899" 
d="M467 -336q-191 0 -296 111t-105 303q0 62 13 120t43.5 113.5t75 96.5t113 65.5t152.5 24.5q80 0 145.5 -20t106.5 -53.5t65 -72t31 -80.5h-223q-32 70 -133 70q-84 0 -122.5 -53t-41.5 -137q84 80 244 77q141 -1 224 -75t83 -191q0 -135 -101.5 -217t-273.5 -82zM309 -31
q0 -57 37.5 -101t118.5 -44q73 0 113.5 32.5t39.5 96.5q-3 125 -157 125q-65 0 -108.5 -31t-43.5 -78z" />
    <glyph glyph-name="seven.subs" unicode="&#x2087;" horiz-adv-x="774" 
d="M393 -324h-248q34 167 139.5 352.5t202.5 280.5h-452v178h692v-163q-111 -127 -201.5 -300.5t-132.5 -347.5z" />
    <glyph glyph-name="eight.subs" unicode="&#x2088;" horiz-adv-x="899" 
d="M70 -86q0 130 143 186q-104 49 -104 164q0 100 88.5 167t259.5 67q161 0 248.5 -66t87.5 -160q0 -119 -113 -163q149 -59 149 -191q0 -115 -110 -184.5t-273 -69.5q-174 0 -275 73t-101 177zM295 -72q0 -46 42 -76t114 -30q76 0 116.5 27.5t40.5 74.5q0 101 -159 101
q-73 0 -113.5 -26.5t-40.5 -70.5zM319 260q0 -92 138 -92q123 0 123 88q0 40 -32 65t-95 25q-64 0 -99 -24t-35 -62z" />
    <glyph glyph-name="nine.subs" unicode="&#x2089;" horiz-adv-x="901" 
d="M72 -100h225q33 -76 141 -76q155 0 170 201q-77 -77 -231 -74q-151 1 -235.5 75t-84.5 183q0 125 100.5 207t272.5 82q193 0 298.5 -108.5t105.5 -299.5q0 -57 -11 -112.5t-40 -113.5t-72.5 -101.5t-114.5 -71t-160 -27.5q-160 0 -253.5 70.5t-110.5 165.5zM281 221
q0 -54 41.5 -85.5t113.5 -31.5q69 0 113.5 27.5t44.5 79.5q0 53 -39 91t-121 38q-67 0 -110.5 -30.5t-42.5 -88.5z" />
    <glyph glyph-name="parenleft.subs" unicode="&#x208d;" horiz-adv-x="522" 
d="M479 -483h-209q-73 80 -130.5 223t-57.5 321q0 179 55.5 317t132.5 232h209q-93 -117 -148 -247.5t-55 -301.5q0 -170 55 -298t148 -246z" />
    <glyph glyph-name="parenright.subs" unicode="&#x208e;" horiz-adv-x="522" 
d="M45 639h209q73 -83 130.5 -225t57.5 -320q0 -179 -55.5 -317t-132.5 -232h-209q92 114 147.5 245.5t55.5 303.5q0 170 -55 299t-148 246z" />
    <glyph glyph-name="colonmonetary" unicode="&#x20a1;" horiz-adv-x="1341" 
d="M469 -197v213q-175 68 -273 241.5t-98 424.5t98.5 427t272.5 247v166h182v-125q16 2 51 2h39v123h183v-158q142 -49 219.5 -154.5t87.5 -222.5h-283q-26 86 -85 133t-173 47q-102 0 -169.5 -64.5t-96.5 -170t-29 -248.5q0 -92 18 -175.5t52.5 -151.5t92 -108t130.5 -40
q105 0 171 44t95 140h281q-25 -131 -102.5 -231.5t-208.5 -147.5v-211h-183v177q-24 -3 -49 -3q-20 0 -41 3v-177h-182z" />
    <glyph glyph-name="franc" unicode="&#x20a3;" horiz-adv-x="1290" 
d="M55 225v191h168v960h953v-241h-670v-314h631v-239h-631v-166h233v-191h-233v-225h-283v225h-168z" />
    <glyph glyph-name="lira" unicode="&#x20a4;" horiz-adv-x="1300" 
d="M1249 0h-1149v199q80 34 116.5 96.5t45.5 165.5h-194v162h194q-2 41 -6 106h-188v164h180v25q0 100 27.5 185.5t84 154.5t153.5 108t226 39q114 0 204.5 -33.5t145 -89.5t83.5 -120.5t34 -133.5h-278q-13 68 -61.5 110t-135.5 42q-99 0 -147.5 -66.5t-48.5 -183.5v-37
h323v-164h-315q1 -18 2 -53.5t2 -52.5h311v-162h-319q-18 -141 -86 -221h829z" />
    <glyph glyph-name="uni20A6" unicode="&#x20a6;" horiz-adv-x="1435" 
d="M442 0h-237v487h-119v164h119v117h-119v164h119v444h385l158 -444h229v16v428h235v-444h121v-164h-121v-117h121v-164h-121v-487h-372l-170 487h-228v-43v-444zM848 651h131q0 20 -1 59t-1 58h-170zM442 651h170l-41 117h-129v-117zM905 487l76 -211h16q-7 68 -14 211
h-78zM440 932h74l-70 201h-16q9 -81 12 -201z" />
    <glyph glyph-name="peseta" unicode="&#x20a7;" horiz-adv-x="1406" 
d="M483 0h-276v805h-135v188h135v383h487q204 0 348.5 -101.5t174.5 -281.5h114v-188h-114q-35 -180 -186 -283.5t-367 -103.5h-181v-418zM483 805v-178h158q129 0 201.5 41.5t93.5 136.5h-453zM483 1171v-178h453q-21 90 -86 134t-186 44h-181z" />
    <glyph glyph-name="dong" unicode="&#x20ab;" horiz-adv-x="1417" 
d="M141 -342v184h1041v-184h-1041zM1196 0h-270q-9 30 -13 131q-51 -77 -129.5 -117.5t-216.5 -40.5q-132 0 -240.5 67t-169.5 181t-61 250q0 122 43.5 222t115.5 162.5t160.5 96t182.5 33.5q222 0 313 -119v224h-438v186h438v108h283v-108h147v-186h-147v-795
q0 -246 2 -295zM643 193q130 0 204.5 73.5t74.5 214.5q0 135 -69.5 212t-197.5 77q-134 0 -202 -83.5t-68 -209.5q0 -76 27.5 -139t87.5 -104t143 -41z" />
    <glyph glyph-name="Euro" unicode="&#x20ac;" horiz-adv-x="1396" 
d="M80 481v162h127v39q0 51 2 76h-129v162h151q52 232 201 358.5t365 126.5q117 0 212 -34t155.5 -91.5t96 -126.5t44.5 -145h-275q-28 86 -86.5 130t-161.5 44q-113 0 -177 -66.5t-91 -195.5h365v-162h-381q-2 -25 -2 -74v-41h383v-162h-367q56 -278 268 -278
q99 0 158 36.5t92 120.5h277q-45 -174 -176.5 -281.5t-350.5 -107.5q-229 0 -372 135t-185 375h-143z" />
    <glyph glyph-name="uni20B1" unicode="&#x20b1;" horiz-adv-x="1411" 
d="M498 0h-281v707h-147v135h147v86h-147v135h147v313h473q183 0 320.5 -81.5t191.5 -231.5h139v-135h-112q2 -14 2 -45q0 -29 -2 -41h112v-135h-141q-55 -151 -196.5 -238.5t-329.5 -87.5h-176v-381zM498 707v-119h161q197 0 256 119h-417zM498 1171v-108h407
q-68 108 -237 108h-170zM498 842h450q2 12 2 37q0 33 -2 49h-450v-86z" />
    <glyph glyph-name="uni20B2" unicode="&#x20b2;" horiz-adv-x="1380" 
d="M573 -199v187q-232 47 -353.5 230t-121.5 468q0 284 127.5 470t349.5 230v152h250v-147q192 -27 299 -133.5t121 -260.5h-291q-38 181 -256 181q-84 0 -146 -43.5t-94.5 -116.5t-47.5 -152.5t-15 -167.5q0 -71 9.5 -138t34.5 -134.5t62 -117t97.5 -80.5t136.5 -31
q110 0 199 39v446h297v-596q-215 -95 -406 -109v-176h-252z" />
    <glyph glyph-name="uni20B4" unicode="&#x20b4;" horiz-adv-x="1316" 
d="M82 489v162h213q85 59 207 107h-396v164h742q33 38 33 100q0 73 -56 124.5t-159 51.5q-185 0 -224 -147h-274q10 72 44 134.5t93 113t151.5 79.5t209.5 29q102 0 184.5 -23t136.5 -61t90.5 -88t52 -101t15.5 -104q0 -58 -12 -108h96v-164h-219q-75 -55 -213 -107h407
v-162h-743q-39 -44 -39 -112q0 -78 65.5 -133.5t167.5 -55.5q122 0 178.5 41t81.5 117h281q-35 -172 -174.5 -271.5t-384.5 -99.5q-136 0 -248 46.5t-180 137t-68 208.5q0 69 19 122h-78z" />
    <glyph glyph-name="uni20B5" unicode="&#x20b5;" horiz-adv-x="1323" 
d="M563 -199v189q-218 43 -341.5 225t-123.5 467t124.5 470.5t340.5 231.5v154h250v-147q101 -15 181.5 -56.5t129.5 -99t75.5 -122t31.5 -132.5h-283q-55 186 -260 186q-76 0 -133.5 -36t-92 -101.5t-51 -152t-16.5 -193.5q0 -137 30 -241t98.5 -169t168.5 -65
q102 0 166 45t96 139h281q-26 -157 -132.5 -267.5t-289.5 -139.5v-185h-250z" />
    <glyph glyph-name="uni20B9" unicode="&#x20b9;" horiz-adv-x="1353" 
d="M133 516v193h305q125 0 204.5 54t92.5 163h-602v168h572q-64 112 -254 112h-318v170h1120v-168h-331q47 -50 71 -114h260v-168h-233q-9 -149 -104.5 -244.5t-245.5 -136.5l497 -545h-346l-475 516h-213z" />
    <glyph glyph-name="uni20BA" unicode="&#x20ba;" horiz-adv-x="1368" 
d="M588 0h-285v510l-205 -80v188l205 80v131l-205 -79v188l205 80v358h291v-246l278 109v-188l-278 -109v-131l278 109v-189l-278 -108v-396q358 2 410 396h272q-11 -103 -38.5 -191t-81 -169.5t-129 -138t-188 -90.5t-251.5 -34z" />
    <glyph glyph-name="uni20BD" unicode="&#x20bd;" horiz-adv-x="1361" 
d="M63 252v172h173v131h-173v199h173v622h522q242 0 374 -111t132 -294q0 -209 -139.5 -312.5t-385.5 -103.5h-198v-131h377v-172h-377v-252h-305v252h-173zM541 1171v-417h174q119 0 181 50t62 159q0 208 -241 208h-176z" />
    <glyph glyph-name="uni2113" unicode="&#x2113;" horiz-adv-x="1013" 
d="M84 328l-61 184q19 11 77.5 42t89.5 50v457q0 96 19 171t51.5 124.5t80 81.5t101 45.5t117.5 13.5q164 0 252 -92t88 -264q0 -190 -95.5 -343.5t-328.5 -301.5v-127q0 -98 25 -135t78 -37q58 0 86 37t41 116h256q-42 -368 -408 -368q-360 0 -360 352v53q-38 -25 -109 -59
zM475 1102v-342q176 166 176 383q0 157 -84 157q-50 0 -71 -40t-21 -158z" />
    <glyph glyph-name="uni2116" unicode="&#x2116;" horiz-adv-x="2445" 
d="M459 0h-279v1405h377q317 -541 439.5 -758.5t150.5 -294.5h2q-16 184 -16 637v416h278v-1405h-344q-76 136 -165.5 295t-138 245t-104.5 185.5t-84.5 151t-58 105.5t-45.5 84.5t-27 53.5h-2q17 -231 17 -704v-416zM1616 217v176h676v-176h-676zM1950 514
q-175 0 -286.5 114t-111.5 302q0 183 113 298t289 115q183 0 293 -113.5t110 -299.5q0 -187 -110 -301.5t-297 -114.5zM1956 698q86 0 134 57.5t48 174.5q0 233 -186 233q-81 0 -129.5 -60.5t-48.5 -172.5q0 -109 48.5 -170.5t133.5 -61.5z" />
    <glyph glyph-name="uni2117" unicode="&#x2117;" horiz-adv-x="1693" 
d="M850 -27q-158 0 -295.5 55t-236.5 153t-155.5 240t-56.5 308q0 159 57.5 298.5t156 238.5t236.5 156t294 57t292.5 -56.5t234.5 -155t154 -238t56 -300.5q0 -162 -56.5 -303t-154 -240.5t-234 -156t-292.5 -56.5zM848 100q128 0 239 43t192.5 122t128 198t46.5 264
q0 137 -46.5 254t-127 199t-192.5 128t-240 46q-172 0 -309 -73t-218 -217.5t-81 -338.5q0 -178 79.5 -321.5t218.5 -223.5t310 -80zM750 330h-177v807h342q129 0 217.5 -73t88.5 -194q0 -131 -87 -202.5t-229 -71.5h-155v-266zM752 989v-250h129q157 0 157 127
q0 58 -38 90.5t-109 32.5h-139z" />
    <glyph glyph-name="uni2120" unicode="&#x2120;" horiz-adv-x="1157" 
d="M520 1296h-131q-5 30 -31 48t-71 18q-39 0 -57.5 -13t-18.5 -30q0 -20 19 -29t77 -20q128 -20 179 -57t51 -107q0 -79 -61.5 -121.5t-172.5 -42.5q-110 0 -172.5 47t-73.5 131h133q8 -37 41.5 -55t77.5 -18q92 0 92 45q0 23 -28 34t-99 23q-62 10 -102.5 25t-60.5 35.5
t-27.5 42t-7.5 51.5q0 70 57.5 112.5t159.5 42.5q111 0 166.5 -45.5t60.5 -116.5zM598 956v490h223q10 -35 28 -98.5t30 -108t22 -88.5h4q73 239 92 295h207v-490h-137v144q0 140 10 248h-4q-20 -64 -59 -191t-62 -199h-114q-94 322 -111 390h-4q5 -59 8 -267v-125h-133z
" />
    <glyph glyph-name="trademark" unicode="&#x2122;" horiz-adv-x="1026" 
d="M115 956v369h-160v121h463v-121h-156v-369h-147zM475 956v490h223q10 -35 28 -98.5t30 -108t22 -88.5h4q73 239 92 295h207v-490h-137v144q0 140 10 248h-4q-20 -64 -59 -191t-62 -199h-114q-94 322 -111 390h-4q5 -59 8 -267v-125h-133z" />
    <glyph glyph-name="uni2126" unicode="&#x2126;" horiz-adv-x="1679" 
d="M55 0v244h346q-70 54 -121 107t-94.5 121.5t-65.5 153t-22 183.5q0 135 51 255.5t144 212.5t235.5 146t315.5 54q174 0 315.5 -53.5t232.5 -145.5t140 -211t49 -252q0 -197 -85.5 -339.5t-227.5 -231.5h354v-244h-659v264q139 74 226.5 209t86.5 309q-2 95 -29 176
t-79.5 144.5t-138 100t-195.5 36.5t-194.5 -38t-133.5 -104t-73.5 -147t-24.5 -174q0 -177 89 -305.5t230 -206.5v-264h-672z" />
    <glyph glyph-name="estimated" unicode="&#x212e;" horiz-adv-x="1744" 
d="M432 643v-266q0 -17 14 -45q141 -213 414 -213q155 0 261 52.5t186 176.5h278q-114 -175 -296.5 -274t-432.5 -99q-179 0 -326.5 57.5t-244 156.5t-149 229.5t-52.5 277.5q0 145 60 276t164 226.5t250.5 152t311.5 56.5q176 0 325.5 -56t251 -152t158 -226t56.5 -277v-45
h-1221q-8 0 -8 -8zM440 801h867q8 0 8 12v213q0 22 -19 49q-130 191 -422 191q-147 0 -254.5 -55t-170.5 -142q-17 -25 -17 -47v-209q0 -12 8 -12z" />
    <glyph glyph-name="onethird" unicode="&#x2153;" horiz-adv-x="1843" 
d="M459 0h-176l856 1376h176zM1014 260h219q28 -110 166 -110q73 0 110 26t37 74q0 50 -39.5 71t-130.5 21h-76v154h74q80 0 108.5 17t28.5 56q0 86 -125 86q-112 0 -139 -88h-205q3 28 12.5 57t34 65.5t61 64t99.5 46.5t142 19q159 0 248.5 -64t89.5 -171
q0 -65 -34.5 -105.5t-80.5 -50.5q57 -11 105 -59t48 -125q0 -50 -19.5 -93.5t-61 -81t-118 -59.5t-179.5 -22q-84 0 -151 20t-107 50t-67 68.5t-37.5 71t-12.5 62.5zM451 563h-226v576q-69 -25 -151 -29v158q51 7 116.5 39.5t104.5 68.5h156v-813z" />
    </font>
</defs>
</svg>
