<?xml version="1.0" standalone="no"?>
<!DOCTYPE svg PUBLIC "-//W3C//DTD SVG 1.1//EN" "http://www.w3.org/Graphics/SVG/1.1/DTD/svg11.dtd" >
<svg xmlns="http://www.w3.org/2000/svg" xmlns:xlink="http://www.w3.org/1999/xlink" version="1.1">
<metadata>
Created by FontForge 20170731 at Wed Dec 29 09:54:40 2021
 By Aleksey,,,
(c) 2014 Adobe Systems Incorporated. All Rights Reserved.
</metadata>
<defs>
<font id="AcuminProWide-Light" horiz-adv-x="819" >
  <font-face 
    font-family="Acumin Pro Wide"
    font-weight="300"
    font-stretch="expanded"
    units-per-em="2048"
    panose-1="2 11 4 5 2 2 2 2 2 4"
    ascent="1505"
    descent="-543"
    x-height="1030"
    cap-height="1458"
    bbox="-369 -545 2666 2177"
    underline-thickness="102"
    underline-position="-307"
    unicode-range="U+000D-FB02"
  />
<missing-glyph horiz-adv-x="1024" 
d="M1024 0h-1024v1434h1024v-1434zM512 625l-348 -523h696zM164 1331l348 -522l348 522h-696zM102 1239v-1044l349 522zM573 717l349 -522v1044z" />
    <glyph glyph-name="f_f" unicode="ff" horiz-adv-x="1251" 
d="M231 0v903h-198v127h198v146q0 80 16 146.5t51.5 121.5t99.5 86t151 31q69 0 110 -13v-131q-36 10 -94 10q-102 0 -140 -62t-38 -196v-139h453v150q0 64 9.5 118t32 103.5t58 84t91 55t126.5 20.5q69 0 113 -13v-131q-39 10 -94 10q-104 0 -142.5 -62t-38.5 -196v-139
h250v-127h-250v-903h-155v903h-453v-903h-156z" />
    <glyph glyph-name=".notdef" horiz-adv-x="1024" 
d="M1024 0h-1024v1434h1024v-1434zM512 625l-348 -523h696zM164 1331l348 -522l348 522h-696zM102 1239v-1044l349 522zM573 717l349 -522v1044z" />
    <glyph glyph-name=".null" horiz-adv-x="0" 
 />
    <glyph glyph-name="nonmarkingreturn" horiz-adv-x="682" 
 />
    <glyph glyph-name="NULL" horiz-adv-x="0" 
 />
    <glyph glyph-name="NULL" horiz-adv-x="0" 
 />
    <glyph glyph-name="CR" unicode="&#xd;" horiz-adv-x="616" 
 />
    <glyph glyph-name="space" unicode=" " horiz-adv-x="616" 
 />
    <glyph glyph-name="exclam" unicode="!" horiz-adv-x="641" 
d="M430 0h-149v295h149v-295zM424 510h-137l-15 715v233h166v-231z" />
    <glyph glyph-name="quotedbl" unicode="&#x22;" horiz-adv-x="696" 
d="M233 969h-116l-19 411v164h150v-162zM584 969h-117l-18 411v164h149v-162z" />
    <glyph glyph-name="numbersign" unicode="#" horiz-adv-x="1417" 
d="M162 0l123 395h-191v135h234l123 394h-238v131h279l112 362h127l-113 -362h369l115 362h127l-113 -362h182v-131h-223l-121 -394h230v-135h-271l-122 -395h-134l125 395h-370l-123 -395h-127zM455 530h368l123 394h-368z" />
    <glyph glyph-name="dollar" unicode="$" horiz-adv-x="1220" 
d="M670 -217h-121v192q-197 12 -326 116.5t-164 289.5h162q30 -119 116.5 -187.5t211.5 -82.5v542q-244 56 -341 144t-97 239q0 67 26.5 129t77.5 114t137.5 85.5t196.5 38.5v158h121v-162q104 -10 184.5 -44t129 -84.5t75.5 -107t35 -119.5h-160q-43 188 -264 222v-478
q109 -25 190.5 -59.5t131.5 -72.5t80 -86t41 -94.5t11 -102.5q0 -167 -120 -275t-334 -123v-192zM670 627v-518q137 11 214 74.5t77 172.5q0 48 -11.5 83.5t-41.5 71.5t-89 64.5t-149 51.5zM549 815v457q-148 -6 -213.5 -69t-65.5 -152q0 -90 61.5 -143.5t217.5 -92.5z" />
    <glyph glyph-name="percent" unicode="%" horiz-adv-x="1927" 
d="M543 0h-148l979 1389h150zM1470 -25q-175 0 -267.5 113t-92.5 291q0 78 23 149t67 128t115.5 90.5t159.5 33.5q172 0 269 -106.5t97 -292.5q0 -82 -23 -154t-67 -129t-116.5 -90t-164.5 -33zM1477 92q110 0 170.5 79t60.5 210q0 132 -60 206.5t-175 74.5
q-102 0 -164 -74.5t-62 -206.5q0 -133 61 -211t169 -78zM446 612q-175 0 -267.5 113t-92.5 291q0 78 23 149t67 128t115.5 90.5t159.5 33.5q172 0 269 -106.5t97 -292.5q0 -82 -23 -154t-67 -129t-116.5 -90t-164.5 -33zM453 729q110 0 170.5 79t60.5 210q0 132 -60 206
t-175 74q-102 0 -164 -74t-62 -206q0 -133 61 -211t169 -78z" />
    <glyph glyph-name="ampersand" unicode="&#x26;" horiz-adv-x="1730" 
d="M709 782l352 -305l350 473h182l-432 -561l447 -389h-232l-307 268q-58 -73 -105.5 -121t-107.5 -90.5t-130 -63t-153 -20.5q-110 0 -197.5 36t-139.5 95t-78.5 127.5t-26.5 139.5q0 133 76 229.5t258 198.5q-89 82 -134.5 158.5t-45.5 177.5q0 148 105 251t280 103
q74 0 135.5 -19t104 -52t72 -76t43 -91t13.5 -98q0 -118 -77 -201.5t-252 -169.5zM969 356l-412 359q-84 -41 -139.5 -84.5t-81.5 -87t-35.5 -80t-9.5 -80.5q0 -112 82.5 -192t206.5 -80q114 0 196 53t193 192zM616 864q148 71 209.5 136t61.5 153q0 38 -11 73.5t-35 68.5
t-68.5 53t-104.5 20q-103 0 -166.5 -63t-63.5 -162q0 -73 41 -138t137 -141z" />
    <glyph glyph-name="quotesingle" unicode="'" horiz-adv-x="352" 
d="M242 969h-125l-19 385v190h158v-186z" />
    <glyph glyph-name="parenleft" unicode="(" horiz-adv-x="735" 
d="M659 -322h-165q-159 169 -264 412.5t-105 536.5q0 151 32 293.5t87 257t116.5 203.5t133.5 163h165q-183 -192 -284 -416.5t-101 -504.5q0 -275 95.5 -502t289.5 -443z" />
    <glyph glyph-name="parenright" unicode=")" horiz-adv-x="735" 
d="M76 1544h166q74 -79 137 -174.5t116.5 -214t84 -263t30.5 -296.5q0 -151 -31.5 -293.5t-86.5 -257.5t-116.5 -204.5t-133.5 -162.5h-166q183 192 285 417t102 505q0 274 -96.5 500.5t-290.5 443.5z" />
    <glyph glyph-name="asterisk" unicode="*" horiz-adv-x="933" 
d="M129 729l-76 125l334 166l-334 168l74 127l293 -209l-29 354h152l-31 -354l291 209l78 -127l-332 -166l332 -168l-78 -125l-287 209l27 -352h-152l29 354z" />
    <glyph glyph-name="plus" unicode="+" horiz-adv-x="1687" 
d="M772 0v590h-557v145h557v555h146v-555h555v-145h-555v-590h-146z" />
    <glyph glyph-name="comma" unicode="," horiz-adv-x="477" 
d="M186 309h160q-10 -130 -61.5 -303.5t-128.5 -298.5h-140q151 315 170 602z" />
    <glyph glyph-name="hyphen" unicode="-" horiz-adv-x="884" 
d="M119 457v137h647v-137h-647z" />
    <glyph glyph-name="period" unicode="." horiz-adv-x="409" 
d="M289 0h-168v309h168v-309z" />
    <glyph glyph-name="slash" unicode="/" horiz-adv-x="1062" 
d="M252 -104h-154l713 1562h152z" />
    <glyph glyph-name="zero" unicode="0" horiz-adv-x="1312" 
d="M655 -29q-131 0 -234 56t-168 154.5t-98.5 228.5t-33.5 282q0 209 59 370t182.5 258t296.5 97q130 0 232.5 -55.5t167 -153t98 -225t33.5 -276.5q0 -120 -18.5 -226.5t-60 -200.5t-102.5 -162t-151.5 -107.5t-202.5 -39.5zM655 111q102 0 176.5 48.5t115.5 134.5t60 188
t19 225q0 109 -19 205.5t-59.5 181.5t-114.5 134.5t-174 49.5q-125 0 -210 -75t-124.5 -203.5t-39.5 -305.5q0 -108 20.5 -207t62 -185.5t115.5 -138.5t172 -52z" />
    <glyph glyph-name="one" unicode="1" horiz-adv-x="776" 
d="M567 0h-155v1188q-59 -46 -168 -93t-168 -57v129q107 34 209 96t164 126h118v-1389z" />
    <glyph glyph-name="two" unicode="2" horiz-adv-x="1193" 
d="M1110 0h-1014v8q0 345 479 635q89 54 138 86.5t94 68.5t64.5 67t30.5 68t11 85q0 49 -17.5 94.5t-53 84t-97 62t-141.5 23.5q-139 0 -225.5 -77t-112.5 -230h-153q15 197 146.5 319.5t346.5 122.5q115 0 206.5 -32.5t147.5 -88t85.5 -126t29.5 -150.5q0 -35 -3.5 -65.5
t-13 -59t-18 -50.5t-27.5 -46.5t-32.5 -41t-42 -39.5t-46 -37t-55.5 -38.5t-59.5 -37.5t-67.5 -41q-6 -4 -9.5 -6t-9 -5t-9.5 -6q-356 -218 -406 -410h861z" />
    <glyph glyph-name="three" unicode="3" horiz-adv-x="1275" 
d="M106 365h160q32 -120 129 -190.5t246 -70.5q155 0 251.5 76.5t96.5 229.5q0 129 -90 201.5t-266 72.5h-107v139h88q172 0 243 57.5t71 166.5q0 100 -75.5 167.5t-225.5 67.5q-76 0 -134 -17.5t-95.5 -50t-60 -71.5t-36.5 -90h-154q8 50 27.5 98t57.5 97.5t90.5 86
t132 59.5t176.5 23t176 -21.5t131.5 -57t88.5 -83t51.5 -98.5t15.5 -104q0 -67 -21.5 -120.5t-56.5 -86t-70.5 -52t-73.5 -30.5v-4q44 -10 89 -33.5t90.5 -64.5t74.5 -107.5t29 -148.5q0 -197 -139.5 -316t-378.5 -119q-125 0 -223 33t-159.5 90t-97.5 124.5t-51 146.5z" />
    <glyph glyph-name="four" unicode="4" horiz-adv-x="1249" 
d="M88 371v141l711 877h174v-877h215l-23 -141h-192v-371h-152v371h-733zM262 512h559v383q0 258 6 334q-42 -63 -224.5 -294.5t-340.5 -422.5z" />
    <glyph glyph-name="five" unicode="5" horiz-adv-x="1282" 
d="M131 350h154q37 -118 128 -181t232 -63q168 0 262 99t94 260q0 61 -16.5 116.5t-53 106t-105 81t-162.5 30.5q-149 0 -233 -53.5t-134 -151.5l-135 27q29 137 69 393t52 375h837l-20 -140h-688q-8 -60 -22 -146t-29 -175.5t-19 -114.5q125 121 348 121q213 0 343 -127
t130 -334q0 -224 -140.5 -363t-379.5 -139q-118 0 -212.5 32t-155 87t-96 120t-48.5 140z" />
    <glyph glyph-name="six" unicode="6" horiz-adv-x="1263" 
d="M653 -27q-255 0 -393.5 181t-138.5 522q0 112 16 213t56.5 199.5t102 169.5t159 115t221.5 44q86 0 158 -20.5t120 -53t84 -76t54.5 -86t27.5 -87.5h-157q-31 83 -102 137.5t-193 54.5q-373 0 -387 -567q57 96 159.5 157.5t251.5 61.5q217 0 345 -126t128 -331
q0 -231 -140 -369.5t-372 -138.5zM655 106q167 0 258 98t91 267q0 149 -86.5 241.5t-247.5 92.5q-87 0 -158.5 -27.5t-116.5 -73t-69.5 -102t-24.5 -117.5q0 -29 6.5 -64t21 -79.5t42 -85t64.5 -75t94 -55t126 -20.5z" />
    <glyph glyph-name="seven" unicode="7" horiz-adv-x="1067" 
d="M418 0h-170q56 297 225.5 648.5t368.5 598.5h-819v142h995v-132q-204 -259 -368.5 -602t-231.5 -655z" />
    <glyph glyph-name="eight" unicode="8" horiz-adv-x="1290" 
d="M117 389q0 131 77 223.5t199 135.5q-91 40 -148 116t-57 183q0 163 125.5 266.5t348.5 103.5q195 0 322.5 -100.5t127.5 -272.5q0 -113 -61.5 -189t-153.5 -105q136 -40 207.5 -135.5t71.5 -219.5q0 -103 -43.5 -185.5t-118.5 -134t-169.5 -78t-201.5 -26.5
q-232 0 -379 114t-147 304zM276 393q0 -135 105.5 -213t263.5 -78q74 0 138.5 17t117.5 50.5t84 90.5t31 131q0 58 -20 107t-61.5 90t-115 64.5t-172.5 23.5q-103 0 -178 -23t-115.5 -64.5t-59 -89.5t-18.5 -106zM346 1049q0 -48 17 -89t52 -76t97 -55t145 -20
q293 0 293 235q0 106 -79 174t-218 68q-142 0 -224.5 -60.5t-82.5 -176.5z" />
    <glyph glyph-name="nine" unicode="9" horiz-adv-x="1263" 
d="M133 317h160q37 -100 111.5 -155.5t205.5 -55.5q88 0 154 36t105.5 92t65.5 140.5t36.5 163t15.5 177.5q-48 -94 -148 -149.5t-243 -55.5q-226 0 -354.5 124t-128.5 314q0 204 137 335.5t360 131.5q260 0 395.5 -165.5t135.5 -477.5q0 -135 -16 -248.5t-54.5 -217
t-98.5 -175.5t-153 -114t-213 -42q-89 0 -163 20t-125 53t-90 78.5t-61 92t-34 98.5zM276 956q0 -147 93 -230t245 -83q157 0 250.5 80t93.5 205q0 46 -9.5 91t-35 93.5t-64 84.5t-102 59.5t-143.5 23.5q-154 0 -241 -90t-87 -234z" />
    <glyph glyph-name="colon" unicode=":" horiz-adv-x="522" 
d="M342 0h-162v301h162v-301zM342 739h-162v301h162v-301z" />
    <glyph glyph-name="semicolon" unicode=";" horiz-adv-x="552" 
d="M373 739h-168v301h168v-301zM211 305h160q-10 -130 -62 -303.5t-129 -298.5h-139q151 315 170 602z" />
    <glyph glyph-name="less" unicode="&#x3c;" horiz-adv-x="1613" 
d="M387 662l1012 -496v-162l-1184 586v139l1184 563v-159z" />
    <glyph glyph-name="equal" unicode="=" horiz-adv-x="1687" 
d="M215 313v144h1258v-144h-1258zM215 877v143h1258v-143h-1258z" />
    <glyph glyph-name="greater" unicode="&#x3e;" horiz-adv-x="1613" 
d="M215 4v160l1012 471l-1012 495v162l1184 -583v-142z" />
    <glyph glyph-name="question" unicode="?" horiz-adv-x="1214" 
d="M688 -2h-160v268h160v-268zM688 436h-160v19q0 43 7 76t29 76t68 91t118 103q121 92 162 150t42 145q2 113 -80.5 189.5t-240.5 76.5q-298 0 -352 -277h-156q4 32 12.5 64.5t27 74t43.5 77.5t65.5 72t90.5 61t120.5 41t152.5 16q119 0 212.5 -33.5t149.5 -89.5
t84.5 -124.5t28.5 -143.5q0 -125 -53.5 -204t-198.5 -189q-97 -71 -134.5 -130.5t-37.5 -132.5v-8z" />
    <glyph glyph-name="at" unicode="@" horiz-adv-x="2140" 
d="M1376 842l41 174h133l-131 -641q-12 -55 -10 -94t9.5 -63.5t25.5 -38t37 -18.5t45 -5q151 0 247.5 149.5t96.5 382.5q0 142 -52.5 265.5t-147.5 214.5t-236.5 143.5t-309.5 52.5q-156 0 -290.5 -46.5t-233.5 -129.5t-169.5 -195t-106 -244.5t-35.5 -277.5
q0 -170 56.5 -316.5t157 -251.5t245.5 -165t315 -60q110 0 198.5 11.5t159 35.5t114.5 45t105 56l46 -119q-127 -84 -274.5 -128t-364.5 -44q-195 0 -364 68t-290.5 189.5t-190.5 297t-69 381.5q0 160 41.5 310.5t126 280.5t202.5 227t281 152.5t351 55.5
q250 0 450.5 -100.5t315 -284t114.5 -416.5q0 -156 -41 -284t-111.5 -212t-165 -129.5t-202.5 -45.5q-106 0 -162.5 51t-52.5 151q-29 -45 -58 -77.5t-70 -62.5t-96.5 -46t-123.5 -16q-150 0 -238 102.5t-88 284.5q0 171 64.5 315t176.5 227.5t245 83.5q71 0 125 -19
t85.5 -50.5t48.5 -62.5t25 -64zM973 154q121 0 213.5 104t120.5 266q33 185 -19 286t-192 101q-79 0 -144.5 -44t-106 -115t-63 -156t-22.5 -172q0 -270 213 -270z" />
    <glyph glyph-name="A" unicode="A" horiz-adv-x="1556" 
d="M31 0l639 1458h192l662 -1458h-178l-216 473h-720l-205 -473h-174zM762 1333h-2q-47 -139 -293 -715h606q-276 612 -311 715z" />
    <glyph glyph-name="B" unicode="B" horiz-adv-x="1511" 
d="M903 0h-692v1458h672q227 0 348 -94.5t121 -269.5q0 -66 -21 -121t-57 -92t-77 -61t-87 -36q43 -11 81.5 -27t80.5 -45.5t72 -67t49.5 -95t19.5 -125.5q0 -107 -42.5 -190.5t-115 -133.5t-162 -75t-190.5 -25zM373 709v-570h483q59 0 110.5 7.5t102.5 27t88 50t59.5 81
t22.5 115.5q0 142 -108 215.5t-302 73.5h-456zM373 1319v-471h465q342 0 342 235q0 236 -332 236h-475z" />
    <glyph glyph-name="C" unicode="C" horiz-adv-x="1632" 
d="M1534 1030h-170q-24 55 -52 99t-70 86t-94 69.5t-124.5 44.5t-159.5 17q-260 0 -415.5 -172t-155.5 -443q0 -174 69 -314t200.5 -222t303.5 -82q107 0 188.5 21.5t139 65t95.5 94t73 122.5h166q-28 -78 -64.5 -142t-92.5 -122t-127 -97.5t-169 -62.5t-217 -23
q-173 0 -314 58.5t-233.5 161t-142 240t-49.5 296.5q0 158 54 298t150 243t237.5 163t307.5 60q150 0 269 -37t197.5 -103t127 -145t72.5 -174z" />
    <glyph glyph-name="D" unicode="D" horiz-adv-x="1652" 
d="M791 0h-580v1458h582q171 0 311.5 -53.5t234 -148t144.5 -224t51 -280.5q0 -228 -98.5 -400.5t-266 -262t-378.5 -89.5zM375 1317v-1176h375q152 0 270 46.5t191.5 129.5t111 192t37.5 239q0 264 -162.5 416.5t-429.5 152.5h-393z" />
    <glyph glyph-name="E" unicode="E" horiz-adv-x="1435" 
d="M211 0v1458h1102v-143h-938v-475h891v-144h-891v-553h981l-23 -143h-1122z" />
    <glyph glyph-name="F" unicode="F" horiz-adv-x="1384" 
d="M377 0h-166v1458h1085v-141h-919v-516h856v-146h-856v-655z" />
    <glyph glyph-name="G" unicode="G" horiz-adv-x="1720" 
d="M885 643v143h663v-786h-129q-14 86 -14 236q-76 -134 -204.5 -200.5t-338.5 -66.5q-342 0 -542.5 205.5t-200.5 552.5q0 161 54 300.5t152 242t244 161t320 58.5q124 0 228 -24t176 -64t127.5 -96.5t87.5 -116t51 -127.5h-173q-117 287 -499 287q-186 0 -322.5 -82.5
t-204 -220t-67.5 -310.5q0 -180 68 -320.5t202.5 -222t317.5 -81.5q243 0 376.5 123.5t133.5 359.5v49h-506z" />
    <glyph glyph-name="H" unicode="H" horiz-adv-x="1685" 
d="M375 0h-164v1458h164v-600h936v600h164v-1458h-164v713h-936v-713z" />
    <glyph glyph-name="I" unicode="I" horiz-adv-x="583" 
d="M211 0v1458h164v-1458h-164z" />
    <glyph glyph-name="J" unicode="J" horiz-adv-x="880" 
d="M51 -10v145q95 -18 195 -18q64 0 112.5 20.5t78 54.5t48 83t25 100t6.5 112v971h164v-962q0 -265 -101.5 -395t-334.5 -130q-108 0 -193 19z" />
    <glyph glyph-name="K" unicode="K" horiz-adv-x="1495" 
d="M375 0h-164v1458h164v-741q118 99 445.5 365.5t459.5 375.5h219l-758 -622l803 -836h-219l-711 745l-239 -188v-557z" />
    <glyph glyph-name="L" unicode="L" horiz-adv-x="1300" 
d="M373 145h897l-27 -145h-1032v1458h162v-1313z" />
    <glyph glyph-name="M" unicode="M" horiz-adv-x="1986" 
d="M211 0v1458h233q164 -370 335.5 -769.5t203.5 -485.5h2q35 82 243.5 553t309.5 702h240v-1458h-162v649q0 541 8 688h-2q-12 -33 -30.5 -80.5t-47.5 -117t-54 -128t-68 -157.5t-69 -158.5t-79 -178.5t-76 -170.5t-80.5 -181t-73.5 -165.5h-141q-55 133 -188.5 449
t-232.5 553t-134 333h-2q19 -263 19 -727v-608h-154z" />
    <glyph glyph-name="N" unicode="N" horiz-adv-x="1708" 
d="M367 0h-156v1458h197q101 -135 344 -451.5t401.5 -529t194.5 -276.5h4q-11 184 -11 655v602h156v-1458h-188q-213 279 -544 724.5t-407 561.5h-4q13 -204 13 -653v-633z" />
    <glyph glyph-name="O" unicode="O" horiz-adv-x="1755" 
d="M879 -31q-170 0 -313.5 59.5t-240.5 163t-151.5 243.5t-54.5 300q0 152 55 289t152.5 240t241.5 164t313 61q166 0 309 -61t240 -164t151.5 -241t54.5 -290q0 -156 -52 -294t-147 -243t-239.5 -166t-318.5 -61zM883 113q137 0 248 48.5t182.5 133t110 195.5t38.5 239
q0 120 -39.5 229.5t-112.5 196.5t-187.5 139t-254.5 52q-129 0 -238.5 -48.5t-182.5 -131.5t-113.5 -193t-40.5 -232q0 -124 39 -236t111.5 -200t186.5 -140t253 -52z" />
    <glyph glyph-name="P" unicode="P" horiz-adv-x="1484" 
d="M375 0h-164v1458h663q135 0 237 -33t162.5 -91.5t90 -132.5t29.5 -163q0 -211 -134 -324.5t-372 -113.5h-512v-600zM375 1315v-570h481q85 0 148.5 13.5t114.5 45.5t77.5 89.5t26.5 140.5q0 137 -92.5 209t-274.5 72h-481z" />
    <glyph glyph-name="Q" unicode="Q" horiz-adv-x="1755" 
d="M1325 100l401 -293l-98 -114l-454 327q-133 -51 -295 -51q-170 0 -313.5 59.5t-240.5 163t-151.5 243.5t-54.5 300q0 152 55 289t152.5 240t241.5 164t313 61q166 0 309 -61t240 -164t151.5 -241t54.5 -290q0 -197 -81 -363.5t-230 -269.5zM883 113q137 0 248 48.5
t182.5 133t110 195.5t38.5 239q0 120 -39.5 229.5t-112.5 196.5t-187.5 139t-254.5 52q-129 0 -238.5 -48.5t-182.5 -131.5t-113.5 -193t-40.5 -232q0 -124 39 -236t111.5 -200t186.5 -140t253 -52z" />
    <glyph glyph-name="R" unicode="R" horiz-adv-x="1513" 
d="M211 0v1458h668q224 0 357.5 -99.5t133.5 -289.5q0 -135 -66.5 -225t-203.5 -123q231 -63 231 -359v-61q0 -238 17 -301h-168q-4 13 -7 29t-5 38t-3 38t-1.5 46.5t-0.5 44.5v51v48v49q0 173 -78.5 238t-279.5 65h-430v-647h-164zM375 1317v-529h461q184 0 274 67t90 206
q0 256 -356 256h-469z" />
    <glyph glyph-name="S" unicode="S" horiz-adv-x="1470" 
d="M1307 1102h-168q-12 39 -25.5 67.5t-44.5 65t-73.5 59.5t-114.5 39.5t-166 16.5q-172 0 -271.5 -60t-99.5 -178q0 -53 15 -89.5t57.5 -71.5t124.5 -61.5t209 -47.5q152 -25 262 -61t175.5 -76t103.5 -93t50.5 -103.5t12.5 -115.5q0 -87 -36 -161.5t-107 -134.5t-190 -94
t-273 -34q-286 0 -449 120t-201 331h170q95 -314 488 -314q216 0 321 76t105 195q0 62 -20 107t-71.5 85.5t-147 71.5t-241.5 55q-155 27 -259.5 64.5t-162.5 88.5t-82 110t-24 137q0 121 71.5 211t194 136t277.5 46q134 0 239.5 -27.5t167 -67.5t103.5 -95.5t58 -101.5
t22 -95z" />
    <glyph glyph-name="T" unicode="T" horiz-adv-x="1343" 
d="M756 0h-166v1315h-570v143h1303v-143h-567v-1315z" />
    <glyph glyph-name="U" unicode="U" horiz-adv-x="1660" 
d="M199 616v842h163v-829q0 -117 27.5 -208t72.5 -148t108 -94t128.5 -51.5t139.5 -14.5q226 0 343 121.5t117 394.5v829h164v-823q0 -666 -631 -666q-146 0 -260.5 37.5t-198.5 114.5t-128.5 202t-44.5 293z" />
    <glyph glyph-name="V" unicode="V" horiz-adv-x="1552" 
d="M860 0h-178l-649 1458h178l352 -801q158 -356 209 -503h4q8 24 28.5 74t41 98.5t58 136l61.5 143.5l381 852h174z" />
    <glyph glyph-name="W" unicode="W" horiz-adv-x="2222" 
d="M690 0h-176l-463 1458h174q20 -66 78.5 -251.5t99 -317t89 -292.5t79 -272t39.5 -161h2q37 192 412 1294h168q98 -294 238 -742.5t161 -547.5h2q31 136 162 535.5t254 754.5h166l-498 -1458h-180q-361 1108 -397 1282h-2q-7 -35 -26 -102t-49 -163.5t-60 -189t-72 -221
t-70.5 -214.5t-71.5 -214t-59 -178z" />
    <glyph glyph-name="X" unicode="X" horiz-adv-x="1382" 
d="M-2 0l584 750l-557 708h200l463 -596l2 2l469 594h193l-570 -708l602 -750h-200l-502 633h-6l-486 -633h-192z" />
    <glyph glyph-name="Y" unicode="Y" horiz-adv-x="1351" 
d="M760 0h-164v565q0 19 -14 33l-613 860h197q60 -86 189 -267t214.5 -303.5t114.5 -174.5q73 121 512 745h186l-612 -862q-10 -17 -10 -35v-561z" />
    <glyph glyph-name="Z" unicode="Z" horiz-adv-x="1396" 
d="M45 0v121l1057 1196h-1006v141h1225v-125l-1049 -1192h1096l-29 -141h-1294z" />
    <glyph glyph-name="bracketleft" unicode="[" horiz-adv-x="808" 
d="M709 -322h-508v1866h508v-119h-367v-1626h367v-121z" />
    <glyph glyph-name="backslash" unicode="\" horiz-adv-x="1062" 
d="M963 -104h-152l-713 1562h154z" />
    <glyph glyph-name="bracketright" unicode="]" horiz-adv-x="808" 
d="M98 -322v121h369v1626h-369v119h510v-1866h-510z" />
    <glyph glyph-name="asciicircum" unicode="^" horiz-adv-x="1183" 
d="M47 555l475 862h140l475 -862l-164 2l-379 717l-397 -719h-150z" />
    <glyph glyph-name="underscore" unicode="_" horiz-adv-x="1343" 
d="M0 -268v106h1343v-106h-1343z" />
    <glyph glyph-name="grave" unicode="`" 
d="M387 1235l-326 330h191l291 -330h-156z" />
    <glyph glyph-name="a" unicode="a" horiz-adv-x="1216" 
d="M309 731h-153q4 46 18 88t46 87t79.5 78t124.5 54t174 21q103 0 181.5 -20t127 -52t79.5 -78t42.5 -93t11.5 -101v-469q0 -177 11 -246h-148q-12 62 -12 162q-93 -191 -395 -191q-85 0 -154.5 20t-114 52.5t-75 76t-43.5 88.5t-13 93q0 334 531 334h262v61q0 50 -12.5 89
t-42.5 74.5t-90 55t-146 19.5q-77 0 -131.5 -16t-85.5 -46.5t-46.5 -63t-25.5 -77.5zM889 465v53h-258q-197 0 -289 -48t-92 -161q0 -91 68 -150t200 -59q371 0 371 365z" />
    <glyph glyph-name="b" unicode="b" horiz-adv-x="1306" 
d="M319 0h-149q2 125 2 358v1186h156v-688q22 37 52.5 69t77 64t114.5 51t149 19q143 0 257 -69t176.5 -189.5t62.5 -268.5q0 -254 -141 -407.5t-363 -153.5q-278 0 -387 201q-6 -158 -7 -172zM694 109q76 0 137.5 23t103 62.5t69.5 93.5t40.5 114t12.5 126q0 57 -13 112
t-41.5 107t-70 91t-103.5 62.5t-137 23.5q-180 0 -276.5 -114.5t-96.5 -293.5q0 -189 102.5 -298t272.5 -109z" />
    <glyph glyph-name="c" unicode="c" horiz-adv-x="1200" 
d="M1116 709h-153q-85 219 -338 219q-171 0 -273 -115t-102 -299q0 -178 101 -295t276 -117q247 0 336 213h155q-28 -96 -88 -171t-165 -124t-240 -49q-130 0 -233 42.5t-167.5 117t-98.5 171.5t-34 208q0 150 62.5 273.5t186.5 199.5t288 76q95 0 174.5 -23t132.5 -59
t92.5 -83.5t59.5 -93t28 -91.5z" />
    <glyph glyph-name="d" unicode="d" horiz-adv-x="1306" 
d="M1137 0h-150q-8 63 -8 168q-21 -39 -48 -69.5t-71.5 -62t-113 -48.5t-156.5 -17q-223 0 -360.5 150.5t-137.5 384.5q0 123 43 228.5t115 175.5t166 109.5t196 39.5q272 0 367 -174v659h156v-1241q0 -203 2 -303zM614 106q192 0 282.5 111t90.5 303q0 95 -17.5 166
t-57.5 126t-112 83.5t-175 28.5q-91 0 -164 -35.5t-117.5 -94.5t-68 -132t-23.5 -152q0 -76 23 -147t66.5 -129t114.5 -93t158 -35z" />
    <glyph glyph-name="e" unicode="e" horiz-adv-x="1216" 
d="M961 287h155q-17 -46 -43 -88.5t-69 -85t-96 -73.5t-128 -50t-162 -19q-128 0 -230.5 45.5t-166 122.5t-96.5 172.5t-33 200.5q0 239 145 393t375 154q112 0 202 -32.5t148 -85t96.5 -123.5t55 -144.5t16.5 -151.5v-43h-882q9 -167 113 -272t270 -105q232 0 330 185z
M610 932q-160 0 -251 -91.5t-107 -240.5h715q-3 45 -13.5 87t-36.5 88t-64 79.5t-101 55.5t-142 22z" />
    <glyph glyph-name="f" unicode="f" horiz-adv-x="641" 
d="M387 0h-156v903h-198v127h198v154q0 179 79.5 278t248.5 99q75 0 119 -13v-135q-52 10 -100 10q-109 0 -150 -55.5t-41 -196.5v-141h248v-127h-248v-903z" />
    <glyph glyph-name="g" unicode="g" horiz-adv-x="1308" 
d="M102 -135h158q13 -47 36 -84t61.5 -69t100.5 -49t144 -17q96 0 165 25t110 66t65 106.5t31.5 132.5t7.5 159v60q-102 -213 -401 -213q-215 0 -352.5 148.5t-137.5 371.5q0 122 42 227.5t113 177t164 112t195 40.5q86 0 155.5 -18.5t112.5 -49.5t69 -63t40 -68
q0 126 6 170h148q-2 -98 -2 -297v-592q0 -123 -15.5 -216.5t-53 -173t-98.5 -130t-154 -78.5t-218 -28q-80 0 -148.5 13t-116.5 34.5t-86.5 52t-62 61t-41 66.5t-25.5 64.5t-12 58.5zM616 119q173 0 271 105t98 298q0 194 -94 298t-264 104q-94 0 -168 -36t-118.5 -96
t-67.5 -132t-23 -150q0 -173 103 -282t263 -109z" />
    <glyph glyph-name="h" unicode="h" horiz-adv-x="1280" 
d="M172 0v1544h156v-715q16 37 41 71t69.5 73t117 62.5t163.5 23.5q179 0 283 -111t104 -325v-623h-154v596q0 151 -65.5 239.5t-210.5 88.5q-86 0 -154 -33.5t-109.5 -91t-63 -131t-21.5 -158.5v-510h-156z" />
    <glyph glyph-name="i" unicode="i" horiz-adv-x="501" 
d="M328 0h-154v1030h154v-1030zM328 1319h-154v225h154v-225z" />
    <glyph glyph-name="j" unicode="j" horiz-adv-x="514" 
d="M-31 -485v131h21q111 0 153.5 64.5t42.5 199.5v1120h156v-1091q0 -78 -7.5 -136.5t-30 -115t-60.5 -92.5t-102 -58t-152 -22h-21zM342 1319h-154v225h154v-225z" />
    <glyph glyph-name="k" unicode="k" horiz-adv-x="1187" 
d="M172 0v1544h156v-1022q152 131 606 508h203l-490 -401l543 -629h-203l-457 539l-202 -158v-381h-156z" />
    <glyph glyph-name="l" unicode="l" horiz-adv-x="499" 
d="M328 0h-156v1544h156v-1544z" />
    <glyph glyph-name="m" unicode="m" horiz-adv-x="1875" 
d="M328 0h-156v764q0 178 -2 266h152q7 -75 4 -164q111 193 340 193q120 0 200 -54.5t117 -150.5q24 40 51 71.5t69.5 64.5t102.5 51t133 18q77 0 141 -23.5t114.5 -71.5t79 -130.5t28.5 -192.5v-641h-154v635q0 42 -5.5 79.5t-21.5 77.5t-41.5 68t-68.5 46t-100 18
q-137 0 -216 -93t-79 -268v-563h-156v645q0 54 -10 99t-35 88t-74.5 67.5t-119.5 24.5q-78 0 -135.5 -29t-91.5 -81.5t-50 -119.5t-16 -149v-545z" />
    <glyph glyph-name="n" unicode="n" horiz-adv-x="1280" 
d="M328 0h-156v770q0 182 -2 260h152q6 -56 6 -207q18 43 47 82t74.5 75t113 57.5t148.5 21.5q183 0 290 -112t107 -322v-625h-156v594q0 151 -65.5 240.5t-210.5 89.5q-168 0 -258 -120t-90 -317v-487z" />
    <glyph glyph-name="o" unicode="o" horiz-adv-x="1257" 
d="M625 -29q-123 0 -225 44.5t-168.5 120t-103 173t-36.5 205.5q0 150 64.5 273.5t189.5 197.5t287 74q125 0 227.5 -46t168 -122.5t101 -173t35.5 -201.5q0 -107 -34 -203.5t-98.5 -173.5t-170 -122.5t-237.5 -45.5zM629 104q92 0 165.5 32.5t119 89.5t69 129.5t23.5 156.5
q0 113 -44 206t-132 150.5t-205 57.5q-180 0 -277.5 -118t-97.5 -294q0 -78 25.5 -151.5t72.5 -131t120 -92.5t161 -35z" />
    <glyph glyph-name="p" unicode="p" horiz-adv-x="1306" 
d="M328 -457h-154v1229q0 172 -2 258h150q6 -49 6 -190q51 97 152 158t255 61q138 0 248 -69.5t170.5 -190t60.5 -267.5q0 -121 -39.5 -226.5t-107.5 -178.5t-161.5 -114.5t-198.5 -41.5q-81 0 -145.5 16.5t-108.5 47t-72.5 61.5t-52.5 72v-625zM688 109q89 0 160.5 34.5
t115.5 93.5t67.5 133t23.5 156q0 75 -22 144t-65 127t-114.5 92.5t-161.5 34.5q-123 0 -207.5 -56.5t-122.5 -148t-38 -209.5q0 -178 94 -289.5t270 -111.5z" />
    <glyph glyph-name="q" unicode="q" horiz-adv-x="1306" 
d="M1139 -457h-156v629q-114 -201 -393 -201q-214 0 -356 150.5t-142 380.5q0 127 44 234t117 176.5t164.5 108t188.5 38.5q73 0 135 -15t101.5 -36t70.5 -49t46 -49.5t24 -41.5q1 29 1.5 65.5t1 59t1.5 37.5h154q0 -38 -1 -139.5t-1 -151.5v-1196zM608 109
q184 0 281.5 104.5t97.5 306.5q0 187 -89.5 295.5t-270.5 108.5q-119 0 -206 -58t-128 -150.5t-41 -205.5q0 -171 98.5 -286t257.5 -115z" />
    <glyph glyph-name="r" unicode="r" horiz-adv-x="786" 
d="M328 0h-154v750q0 188 -2 280h150q6 -87 6 -239q53 125 164.5 196.5t259.5 71.5v-154q-187 3 -305.5 -117t-118.5 -342v-446z" />
    <glyph glyph-name="s" unicode="s" horiz-adv-x="1130" 
d="M1001 754h-155q-6 25 -14.5 45t-30.5 47t-53 45t-86.5 30.5t-126.5 12.5q-75 0 -128.5 -15t-79.5 -40t-37 -50t-11 -53q0 -46 23 -75.5t90 -54t188 -40.5q138 -18 230.5 -47.5t140.5 -71.5t66.5 -88.5t18.5 -109.5q0 -145 -115.5 -231.5t-345.5 -86.5q-223 0 -348.5 88.5
t-154.5 251.5h157q61 -215 355 -215q153 0 224 49.5t71 133.5q0 38 -13 65.5t-48 53.5t-102 44t-169 29q-102 13 -179 35t-123.5 49t-75 62.5t-38.5 70t-10 76.5q0 40 13 79.5t44.5 79t79 69.5t121.5 48.5t166 18.5q102 0 183 -21t129.5 -52.5t81.5 -74t46 -80.5t16 -77z
" />
    <glyph glyph-name="t" unicode="t" horiz-adv-x="731" 
d="M244 285v618h-211v127h211v340h153v-340h279v-127h-279v-602q0 -98 33 -141t117 -43q67 0 106 10v-119q-51 -18 -145 -18q-148 0 -206 69t-58 226z" />
    <glyph glyph-name="u" unicode="u" horiz-adv-x="1265" 
d="M172 389v641h156v-612q0 -50 8 -93.5t27.5 -84t49 -69t75.5 -45.5t104 -17q180 0 263 109.5t83 348.5v463h154v-729q0 -201 2 -301h-148q-8 58 -8 190q-42 -105 -129.5 -162t-247.5 -57q-176 0 -282.5 102t-106.5 316z" />
    <glyph glyph-name="v" unicode="v" horiz-adv-x="1150" 
d="M496 0l-465 1030h170q29 -69 195 -446t188 -437h2q39 120 375 883h159l-458 -1030h-166z" />
    <glyph glyph-name="w" unicode="w" horiz-adv-x="1726" 
d="M393 0l-348 1030h162q244 -749 276 -880h2q19 71 69.5 215t238.5 665h149q183 -513 234.5 -662t64.5 -206h2q41 162 285 868h155l-366 -1030h-158q-46 130 -121 340.5t-118.5 335.5t-59.5 176h-2q-54 -189 -299 -852h-166z" />
    <glyph glyph-name="x" unicode="x" horiz-adv-x="1140" 
d="M20 0l457 522l-450 508h192q290 -324 359 -409h2q179 211 358 409h180l-448 -500l469 -530h-195q-104 120 -235 267.5t-140 158.5h-4q-122 -154 -360 -426h-185z" />
    <glyph glyph-name="y" unicode="y" horiz-adv-x="1169" 
d="M98 -475v143q49 -8 117 -8q102 0 162.5 59t140.5 232l-483 1079h172q366 -835 395 -915h2q186 486 365 915h164l-422 -1005q-48 -115 -83.5 -190.5t-73 -136t-69 -93.5t-73 -54.5t-84 -28.5t-103.5 -7q-69 0 -127 10z" />
    <glyph glyph-name="z" unicode="z" horiz-adv-x="1097" 
d="M72 0v119l751 780h-708v131h911v-123l-745 -776h792l-31 -131h-970z" />
    <glyph glyph-name="braceleft" unicode="{" horiz-adv-x="849" 
d="M307 59v220q0 147 -53 207.5t-197 60.5v133q140 0 195 59.5t55 208.5v215q0 381 377 381h64v-119h-37q-145 0 -203.5 -66t-58.5 -208v-201q0 -281 -189 -336q47 -15 78.5 -35.5t58.5 -58t39.5 -98t12.5 -148.5v-198q0 -149 65 -214t193 -65h41v-119h-64q-377 0 -377 381z
" />
    <glyph glyph-name="bar" unicode="|" horiz-adv-x="575" 
d="M213 -541v2155h147v-2155h-147z" />
    <glyph glyph-name="braceright" unicode="}" horiz-adv-x="849" 
d="M57 -322v119h37q144 0 203 66.5t59 208.5v200q0 281 189 336q-47 15 -78.5 35.5t-58.5 58t-39.5 98t-12.5 148.5v199q0 149 -65 213.5t-193 64.5h-41v119h64q377 0 377 -381v-219q0 -146 53 -207t197 -61v-133q-140 0 -195 -60t-55 -209v-213q0 -189 -95 -286t-282 -97
h-64z" />
    <glyph glyph-name="asciitilde" unicode="~" horiz-adv-x="1593" 
d="M330 418h-135v67q0 150 73.5 225.5t190.5 75.5q86 0 187.5 -36t178 -78.5t163 -78.5t145.5 -36q73 0 103 41t30 135v45h133v-53q0 -93 -21.5 -157.5t-61 -97.5t-84 -46.5t-102.5 -13.5q-63 0 -136.5 23.5t-141 57t-133.5 66.5t-134 56.5t-122 23.5q-62 0 -97.5 -39.5
t-35.5 -136.5v-43z" />
    <glyph glyph-name="uni00A0" unicode="&#xa0;" horiz-adv-x="616" 
 />
    <glyph glyph-name="exclamdown" unicode="&#xa1;" horiz-adv-x="649" 
d="M231 -416v232l17 719h133l16 -717v-234h-166zM240 748v294h149v-294h-149z" />
    <glyph glyph-name="cent" unicode="&#xa2;" horiz-adv-x="1218" 
d="M573 -66v213q-147 14 -253.5 90t-158.5 192t-52 259q0 217 129 363t335 168v165h123v-163q192 -14 302.5 -113t129.5 -231h-157q-63 188 -275 210v-806q197 19 275 202h157q-44 -143 -152 -233t-280 -103v-213h-123zM573 285v802q-138 -21 -220.5 -124.5t-82.5 -270.5
q0 -161 78.5 -272t224.5 -135z" />
    <glyph glyph-name="sterling" unicode="&#xa3;" horiz-adv-x="1226" 
d="M1184 0h-1073v125q89 45 133.5 163.5t44.5 270.5q0 53 -2 78h-205v127h199q-7 93 -7 180q0 220 112.5 346.5t320.5 126.5q191 0 300.5 -100.5t125.5 -261.5h-156q-48 227 -279 227q-136 0 -199 -82.5t-63 -249.5q0 -87 6 -186h375v-127h-371q3 -35 3 -64
q0 -291 -127 -432h882z" />
    <glyph glyph-name="currency" unicode="&#xa4;" horiz-adv-x="1265" 
d="M193 98l-99 107l160 170q-82 129 -82 301q0 171 84 299l-162 172l99 102l155 -170q127 99 291 99q169 0 295 -99l156 170l96 -102l-158 -172q80 -125 80 -297q0 -169 -80 -301l158 -172l-96 -107l-158 170q-124 -100 -295 -100q-167 0 -291 100zM637 299q147 0 235.5 94
t88.5 283q0 161 -81 263.5t-243 102.5q-105 0 -180.5 -51t-110.5 -132t-35 -181q0 -94 28 -168.5t75 -119t104 -68t119 -23.5z" />
    <glyph glyph-name="yen" unicode="&#xa5;" horiz-adv-x="1169" 
d="M182 319v115h314v162h-314v117h279l-473 676h182q79 -118 157.5 -233t114.5 -168t68.5 -101.5t46 -70.5t21.5 -38h2q39 62 424 611h167l-487 -676h287v-117h-322v-162h322v-115h-322v-319h-153v319h-314z" />
    <glyph glyph-name="brokenbar" unicode="&#xa6;" horiz-adv-x="477" 
d="M172 696v754h145v-754h-145zM172 -379v754h145v-754h-145z" />
    <glyph glyph-name="section" unicode="&#xa7;" horiz-adv-x="1335" 
d="M115 -16h153q22 -86 85.5 -144t139 -82t160.5 -24q158 0 244 60t86 151q0 51 -15 85.5t-60.5 69.5t-129.5 66.5t-223 69.5q-130 35 -218 77t-136 92t-68 102t-20 118q0 89 57 164.5t145 125.5q-42 30 -66 84.5t-24 118.5q0 52 16 101t51.5 93.5t87 77t127.5 52t169 18.5
q108 0 195 -24t140.5 -61t90.5 -86t52.5 -93.5t19.5 -89.5h-154q-19 96 -109 162.5t-239 66.5q-82 0 -141.5 -17t-90.5 -47t-45 -64.5t-14 -76.5q0 -38 19 -70.5t50.5 -56t80 -45.5t98 -39.5t115.5 -38.5q7 -2 11 -3t10 -3t11 -4q240 -75 343.5 -166t103.5 -235
q0 -87 -45.5 -168.5t-126.5 -136.5q88 -66 88 -211q0 -156 -133.5 -253t-356.5 -97q-226 0 -365.5 98.5t-168.5 282.5zM614 369q250 -72 334 -123q121 72 121 198q0 104 -72 164t-270 129q-35 12 -95.5 31.5t-86 28.5t-60 23t-59.5 28q-75 -34 -120.5 -91t-45.5 -116
q0 -42 11.5 -73t46.5 -66.5t108.5 -68t187.5 -64.5z" />
    <glyph glyph-name="dieresis" unicode="&#xa8;" 
d="M281 1319h-146v225h146v-225zM684 1319h-145v225h145v-225z" />
    <glyph glyph-name="copyright" unicode="&#xa9;" horiz-adv-x="1730" 
d="M868 -31q-216 0 -387 96.5t-267.5 272.5t-96.5 401q0 215 98.5 388t270 270.5t382.5 97.5q213 0 383 -97.5t265.5 -270.5t95.5 -388q0 -220 -96 -396t-266.5 -275t-381.5 -99zM866 74q135 0 251.5 47t201 132t132.5 210t48 274q0 188 -80.5 337t-225 232t-327.5 83
q-133 0 -249 -44.5t-202.5 -126.5t-136 -208.5t-49.5 -280.5q0 -187 84 -337.5t229.5 -234t323.5 -83.5zM1237 891h-119q-13 37 -29 66t-43 57.5t-70 44.5t-99 16q-124 0 -199.5 -89.5t-75.5 -250.5q0 -152 80.5 -243t200.5 -91q90 0 147.5 41t89.5 131h113
q-29 -130 -118 -202t-236 -72q-175 0 -287.5 118t-112.5 316q0 196 113.5 319.5t288.5 123.5q84 0 151 -25.5t108.5 -67.5t65.5 -90.5t31 -101.5z" />
    <glyph glyph-name="ordfeminine" unicode="&#xaa;" horiz-adv-x="817" 
d="M223 1063h-123q6 39 22.5 73t49.5 67t91.5 52t137.5 19q87 0 149 -20t94.5 -56t46.5 -76.5t14 -89.5v-319q0 -99 2 -142h-121q-6 69 -6 121q-81 -127 -261 -127q-125 0 -192.5 61.5t-67.5 155.5q0 57 22 98t56 65t86.5 38t102 18.5t114.5 4.5h138v28q0 61 -40.5 101.5
t-136.5 40.5q-85 0 -126 -28t-52 -85zM580 901v12h-144q-43 0 -73.5 -2t-65.5 -9t-56.5 -20t-36 -37t-14.5 -57q0 -50 42.5 -84t117.5 -34q100 0 165 54t65 177z" />
    <glyph glyph-name="guillemotleft" unicode="&#xab;" horiz-adv-x="1148" 
d="M451 113l-351 422l351 419h161l-348 -419l350 -422h-163zM885 113l-350 422l350 419h162l-349 -419l351 -422h-164z" />
    <glyph glyph-name="logicalnot" unicode="&#xac;" horiz-adv-x="1714" 
d="M217 748v143h1258v-727h-150v584h-1108z" />
    <glyph glyph-name="uni00AD" unicode="&#xad;" horiz-adv-x="884" 
d="M119 457v137h647v-137h-647z" />
    <glyph glyph-name="registered" unicode="&#xae;" horiz-adv-x="780" 
d="M39 1133q0 161 101 260.5t261 99.5q157 0 256 -103.5t99 -256.5q0 -159 -98.5 -260t-256.5 -101q-157 0 -259.5 100.5t-102.5 260.5zM401 842q134 0 204.5 79t70.5 209q0 131 -75 212t-202 81q-73 0 -129 -23.5t-88.5 -65t-48.5 -92t-16 -109.5q0 -128 79 -209.5
t205 -81.5zM330 958h-78v361h170q59 0 95 -27.5t36 -74.5q0 -30 -13.5 -52.5t-39.5 -29.5q43 -12 43 -97q0 -44 4 -80h-78q-6 16 -6 89q0 32 -14 42.5t-52 10.5h-67v-142zM330 1257v-96h78q65 0 65 47q0 49 -67 49h-76z" />
    <glyph glyph-name="macron" unicode="&#xaf;" 
d="M106 1339v129h605v-129h-605z" />
    <glyph glyph-name="degree" unicode="&#xb0;" horiz-adv-x="708" 
d="M59 1143q0 130 84.5 216.5t210.5 86.5q133 0 214 -85t81 -208q0 -134 -88 -218.5t-209 -84.5q-129 0 -211 83t-82 210zM352 956q83 0 133 53.5t50 141.5q0 75 -48 133.5t-135 58.5q-85 0 -132.5 -55t-47.5 -141q0 -84 50.5 -137.5t129.5 -53.5z" />
    <glyph glyph-name="plusminus" unicode="&#xb1;" horiz-adv-x="1687" 
d="M772 289v571h-557v141h557v519h146v-519h555v-141h-555v-571h-146zM1473 0h-1258v143h1258v-143z" />
    <glyph glyph-name="two.sups" unicode="&#xb2;" horiz-adv-x="796" 
d="M723 918h-647v10q0 216 282 366q131 69 170 102.5t39 94.5q0 57 -41 97t-127 40t-132.5 -36t-61.5 -122h-133q14 125 99.5 198t229.5 73q81 0 143 -22t97 -59t52.5 -79.5t17.5 -87.5q0 -35 -7 -64t-24 -54t-35 -44t-51.5 -40.5t-61 -37t-75.5 -39.5q-102 -54 -146 -90.5
t-65 -89.5h499z" />
    <glyph glyph-name="three.sups" unicode="&#xb3;" horiz-adv-x="790" 
d="M49 1165h129q42 -149 215 -149q197 0 197 141q0 77 -56.5 108t-164.5 31h-68v105h61q113 0 153 24.5t40 85.5q0 50 -38 85.5t-130 35.5q-88 0 -130 -35.5t-58 -95.5h-121q2 24 9.5 49.5t29 61.5t53.5 63t89.5 46.5t131.5 19.5q142 0 220.5 -61.5t78.5 -166.5
q0 -67 -36 -107.5t-91 -51.5q70 -14 117 -65.5t47 -127.5q0 -109 -85 -181.5t-253 -72.5q-74 0 -133.5 18t-96 45t-61.5 63t-35.5 68t-13.5 64z" />
    <glyph glyph-name="acute" unicode="&#xb4;" 
d="M276 1235l285 330h193l-324 -330h-154z" />
    <glyph glyph-name="uni00B5" unicode="&#xb5;" horiz-adv-x="1271" 
d="M172 -457v1487h156v-616q0 -66 12 -117.5t40 -95.5t82 -68t132 -24q174 0 262 118t88 320v483h154v-706q0 -275 4 -324h-146q-8 64 -8 209q-55 -125 -140 -181.5t-239 -56.5q-171 0 -254 125q8 -160 13 -553h-156z" />
    <glyph glyph-name="paragraph" unicode="&#xb6;" horiz-adv-x="1378" 
d="M1133 -334h-144v649h-346q-261 0 -410 142.5t-149 394.5q0 113 35.5 208t104.5 167t179 112.5t250 40.5h338q5 100 10 115h134q-2 -41 -2 -133v-1696zM866 451h123v794h-119q-60 0 -103.5 -19t-70 -51t-42.5 -83.5t-22 -107.5t-7 -132q0 -50 1.5 -86.5t7.5 -81t16 -76
t28 -63t43 -51t61.5 -31.5t83.5 -12z" />
    <glyph glyph-name="periodcentered" unicode="&#xb7;" horiz-adv-x="409" 
d="M289 410h-168v309h168v-309z" />
    <glyph glyph-name="cedilla" unicode="&#xb8;" 
d="M197 -487l2 108q98 -20 153 -20q74 0 114 22t40 62q0 26 -15.5 44t-38.5 28.5t-61.5 16.5t-72.5 8t-82 3v51l155 184l115 -20l-96 -117q41 -5 78 -16.5t74.5 -32.5t60 -57.5t22.5 -83.5q0 -60 -26.5 -102.5t-70.5 -63.5t-88 -30t-93 -9q-88 0 -170 25z" />
    <glyph glyph-name="one.sups" unicode="&#xb9;" horiz-adv-x="491" 
d="M352 918h-135v657q-26 -21 -89 -41.5t-95 -22.5v105q51 10 120 45.5t107 69.5h92v-813z" />
    <glyph glyph-name="ordmasculine" unicode="&#xba;" horiz-adv-x="856" 
d="M63 918q0 165 106 260.5t263 95.5q163 0 262 -101t99 -253q0 -164 -103 -260.5t-268 -96.5q-157 0 -258 103.5t-101 251.5zM426 670q113 0 172 66.5t59 181.5q-3 113 -63 181t-170 68q-111 0 -168 -68.5t-57 -180.5q0 -106 63.5 -177t163.5 -71z" />
    <glyph glyph-name="guillemotright" unicode="&#xbb;" horiz-adv-x="1148" 
d="M264 113h-160l349 419l-353 422h164l350 -422zM700 113h-159l348 419l-352 422h163l351 -422z" />
    <glyph glyph-name="onequarter" unicode="&#xbc;" horiz-adv-x="1642" 
d="M346 0h-131l885 1389h129zM860 205v110l418 498h158v-498h147l-10 -110h-137v-205h-125v205h-451zM1004 315h307v183q0 157 2 204q-39 -59 -309 -387zM340 575h-135v658q-26 -20 -89.5 -41t-95.5 -23v105q51 10 120.5 46t107.5 69h92v-814z" />
    <glyph glyph-name="onehalf" unicode="&#xbd;" horiz-adv-x="1677" 
d="M332 0h-131l884 1389h129zM1597 0h-647v10q0 217 283 367q132 69 170.5 102.5t38.5 93.5q0 58 -41 98t-127 40t-133 -36.5t-62 -121.5h-133q14 124 99.5 197t230.5 73q81 0 143 -22t96.5 -59t52 -79.5t17.5 -87.5q0 -42 -12.5 -76.5t-30 -59t-54.5 -51t-68 -44t-89 -47.5
q-102 -54 -146 -90.5t-65 -89.5h500zM336 575h-135v658q-26 -20 -89.5 -41t-95.5 -23v105q51 10 120.5 46t107.5 69h92v-814z" />
    <glyph glyph-name="threequarters" unicode="&#xbe;" horiz-adv-x="1841" 
d="M598 0h-131l885 1389h129zM1051 205v110l417 498h158v-498h148l-11 -110h-137v-205h-125v205h-450zM1194 315h307v183q0 157 2 204q-39 -59 -309 -387zM76 823h129q42 -149 215 -149q196 0 196 141q0 77 -56.5 108t-164.5 31h-67v105h61q113 0 153 24.5t40 85.5
q0 50 -38 85.5t-130 35.5q-88 0 -130.5 -35.5t-58.5 -95.5h-121q2 24 9.5 49.5t29 61.5t54 63t90 46.5t131.5 19.5q142 0 220.5 -61.5t78.5 -166.5q0 -67 -36 -107.5t-91 -51.5q70 -14 117 -65.5t47 -127.5q0 -109 -85 -181.5t-253 -72.5q-74 0 -133.5 18t-96 45t-61.5 63
t-35.5 68t-13.5 64z" />
    <glyph glyph-name="questiondown" unicode="&#xbf;" horiz-adv-x="1103" 
d="M913 -27h146q-3 -44 -14.5 -88t-33.5 -95.5t-62 -95t-94 -80t-135 -57t-179 -20.5q-113 0 -203.5 30.5t-148.5 83t-88.5 121.5t-30.5 148q0 86 27 151.5t78.5 120t148.5 127.5q96 73 134 133.5t38 131.5v8h159v-19q0 -57 -13 -101t-63.5 -107.5t-144.5 -135.5
q-121 -93 -163 -155.5t-42 -149.5q-2 -109 83.5 -183.5t238.5 -74.5q312 0 362 307zM496 762v268h159v-268h-159z" />
    <glyph glyph-name="Agrave" unicode="&#xc0;" horiz-adv-x="1556" 
d="M31 0l639 1458h192l662 -1458h-178l-216 473h-720l-205 -473h-174zM762 1333h-2q-47 -139 -293 -715h606q-276 612 -311 715zM268 1884h230l356 -285h-170z" />
    <glyph glyph-name="Aacute" unicode="&#xc1;" horiz-adv-x="1556" 
d="M31 0l639 1458h192l662 -1458h-178l-216 473h-720l-205 -473h-174zM762 1333h-2q-47 -139 -293 -715h606q-276 612 -311 715zM659 1599l349 285h219l-396 -285h-172z" />
    <glyph glyph-name="Acircumflex" unicode="&#xc2;" horiz-adv-x="1556" 
d="M31 0l639 1458h192l662 -1458h-178l-216 473h-720l-205 -473h-174zM762 1333h-2q-47 -139 -293 -715h606q-276 612 -311 715zM367 1585l303 281h192l307 -281h-178l-227 197l-223 -197h-174z" />
    <glyph glyph-name="Atilde" unicode="&#xc3;" horiz-adv-x="1556" 
d="M31 0l639 1458h192l662 -1458h-178l-216 473h-720l-205 -473h-174zM762 1333h-2q-47 -139 -293 -715h606q-276 612 -311 715zM522 1610h-119v43q0 211 181 211q46 0 103 -19.5t101 -43t92 -43t78 -19.5q38 0 55 22.5t17 83.5v25h117v-41q0 -119 -45.5 -170t-128.5 -51
q-47 0 -103.5 20t-100.5 44.5t-94 44.5t-85 20q-32 0 -50 -24.5t-18 -70.5v-32z" />
    <glyph glyph-name="Adieresis" unicode="&#xc4;" horiz-adv-x="1556" 
d="M629 1626h-146v225h146v-225zM1067 1626h-145v225h145v-225zM31 0l639 1458h192l662 -1458h-178l-216 473h-720l-205 -473h-174zM762 1333h-2q-47 -139 -293 -715h606q-276 612 -311 715z" />
    <glyph glyph-name="Aring" unicode="&#xc5;" horiz-adv-x="1556" 
d="M31 0l639 1458h192l662 -1458h-178l-216 473h-720l-205 -473h-174zM762 1333h-2q-47 -139 -293 -715h606q-276 612 -311 715zM541 1743q0 90 58.5 151.5t160.5 61.5q104 0 162.5 -59.5t58.5 -149.5q0 -92 -59.5 -151.5t-159.5 -59.5q-102 0 -161.5 59.5t-59.5 147.5z
M762 1626q55 0 86 35t31 84t-30.5 85t-86.5 36t-86.5 -34.5t-30.5 -82.5q0 -52 29.5 -87.5t87.5 -35.5z" />
    <glyph glyph-name="AE" unicode="&#xc6;" horiz-adv-x="2316" 
d="M-23 0l1049 1458h1167v-143h-919v-473h874v-142h-874v-555h962l-24 -145h-1102v510h-590l-370 -510h-173zM612 651h498v682h-4z" />
    <glyph glyph-name="Ccedilla" unicode="&#xc7;" horiz-adv-x="1632" 
d="M637 -487l2 108q98 -20 154 -20q74 0 113.5 22t39.5 62q0 26 -15.5 44t-38.5 28.5t-61.5 16.5t-72.5 8t-82 3v51l115 135q-158 11 -286 74t-212 164t-129 233t-45 283q0 158 54 298t150 243t237.5 163t307.5 60q150 0 269 -37t197.5 -103t127 -145t72.5 -174h-170
q-24 55 -52 99t-70 86t-94 69.5t-124.5 44.5t-159.5 17q-260 0 -415.5 -172t-155.5 -443q0 -174 69 -314t200.5 -222t303.5 -82q107 0 188.5 21.5t139 65t95.5 94t73 122.5h166q-27 -74 -61 -134.5t-85 -117t-115 -96t-152 -65.5t-193 -32l-72 -88q41 -5 78 -16.5
t74.5 -32.5t60 -57.5t22.5 -83.5q0 -60 -26.5 -102.5t-70.5 -63.5t-88 -30t-93 -9q-87 0 -170 25z" />
    <glyph glyph-name="Egrave" unicode="&#xc8;" horiz-adv-x="1435" 
d="M211 0v1458h1102v-143h-938v-475h891v-144h-891v-553h981l-23 -143h-1122zM307 1884h230l356 -285h-170z" />
    <glyph glyph-name="Eacute" unicode="&#xc9;" horiz-adv-x="1435" 
d="M211 0v1458h1102v-143h-938v-475h891v-144h-891v-553h981l-23 -143h-1122zM612 1599l349 285h219l-396 -285h-172z" />
    <glyph glyph-name="Ecircumflex" unicode="&#xca;" horiz-adv-x="1435" 
d="M211 0v1458h1102v-143h-938v-475h891v-144h-891v-553h981l-23 -143h-1122zM358 1599l304 281h192l307 -281h-178l-227 197l-224 -197h-174z" />
    <glyph glyph-name="Edieresis" unicode="&#xcb;" horiz-adv-x="1435" 
d="M610 1626h-145v225h145v-225zM1049 1626h-146v225h146v-225zM211 0v1458h1102v-143h-938v-475h891v-144h-891v-553h981l-23 -143h-1122z" />
    <glyph glyph-name="Igrave" unicode="&#xcc;" horiz-adv-x="583" 
d="M211 0v1458h164v-1458h-164zM-199 1884h230l356 -285h-170z" />
    <glyph glyph-name="Iacute" unicode="&#xcd;" horiz-adv-x="583" 
d="M211 0v1458h164v-1458h-164zM203 1599l348 285h219l-395 -285h-172z" />
    <glyph glyph-name="Icircumflex" unicode="&#xce;" horiz-adv-x="583" 
d="M211 0v1458h164v-1458h-164zM-109 1585l304 281h192l307 -281h-178l-227 197l-223 -197h-175z" />
    <glyph glyph-name="Idieresis" unicode="&#xcf;" horiz-adv-x="583" 
d="M145 1626h-145v225h145v-225zM584 1626h-146v225h146v-225zM211 0v1458h164v-1458h-164z" />
    <glyph glyph-name="Eth" unicode="&#xd0;" horiz-adv-x="1675" 
d="M233 0v692h-192v127h192v639h582q171 0 311.5 -53.5t234 -148t144.5 -224t51 -280.5q0 -228 -98.5 -400.5t-266 -262t-378.5 -89.5h-580zM397 141h375q152 0 270 46.5t191.5 129.5t111 192t37.5 239q0 264 -162 416.5t-429 152.5h-394v-498h469v-127h-469v-551z" />
    <glyph glyph-name="Ntilde" unicode="&#xd1;" horiz-adv-x="1708" 
d="M367 0h-156v1458h197q101 -135 344 -451.5t401.5 -529t194.5 -276.5h4q-11 184 -11 655v602h156v-1458h-188q-213 279 -544 724.5t-407 561.5h-4q13 -204 13 -653v-633zM600 1610h-119v43q0 211 181 211q46 0 103 -19.5t101 -43t92 -43t78 -19.5q38 0 55 22.5t17 83.5v25
h117v-41q0 -119 -45.5 -170t-128.5 -51q-47 0 -103.5 20t-100.5 44.5t-94 44.5t-85 20q-32 0 -50 -24.5t-18 -70.5v-32z" />
    <glyph glyph-name="Ograve" unicode="&#xd2;" horiz-adv-x="1755" 
d="M879 -31q-170 0 -313.5 59.5t-240.5 163t-151.5 243.5t-54.5 300q0 152 55 289t152.5 240t241.5 164t313 61q166 0 309 -61t240 -164t151.5 -241t54.5 -290q0 -156 -52 -294t-147 -243t-239.5 -166t-318.5 -61zM883 113q137 0 248 48.5t182.5 133t110 195.5t38.5 239
q0 120 -39.5 229.5t-112.5 196.5t-187.5 139t-254.5 52q-129 0 -238.5 -48.5t-182.5 -131.5t-113.5 -193t-40.5 -232q0 -124 39 -236t111.5 -200t186.5 -140t253 -52zM395 1886h230l356 -284h-170z" />
    <glyph glyph-name="Oacute" unicode="&#xd3;" horiz-adv-x="1755" 
d="M879 -31q-170 0 -313.5 59.5t-240.5 163t-151.5 243.5t-54.5 300q0 152 55 289t152.5 240t241.5 164t313 61q166 0 309 -61t240 -164t151.5 -241t54.5 -290q0 -156 -52 -294t-147 -243t-239.5 -166t-318.5 -61zM883 113q137 0 248 48.5t182.5 133t110 195.5t38.5 239
q0 120 -39.5 229.5t-112.5 196.5t-187.5 139t-254.5 52q-129 0 -238.5 -48.5t-182.5 -131.5t-113.5 -193t-40.5 -232q0 -124 39 -236t111.5 -200t186.5 -140t253 -52zM735 1618l348 285h220l-396 -285h-172z" />
    <glyph glyph-name="Ocircumflex" unicode="&#xd4;" horiz-adv-x="1755" 
d="M879 -31q-170 0 -313.5 59.5t-240.5 163t-151.5 243.5t-54.5 300q0 152 55 289t152.5 240t241.5 164t313 61q166 0 309 -61t240 -164t151.5 -241t54.5 -290q0 -156 -52 -294t-147 -243t-239.5 -166t-318.5 -61zM883 113q137 0 248 48.5t182.5 133t110 195.5t38.5 239
q0 120 -39.5 229.5t-112.5 196.5t-187.5 139t-254.5 52q-129 0 -238.5 -48.5t-182.5 -131.5t-113.5 -193t-40.5 -232q0 -124 39 -236t111.5 -200t186.5 -140t253 -52zM461 1602l303 280h192l308 -280h-179l-227 196l-223 -196h-174z" />
    <glyph glyph-name="Otilde" unicode="&#xd5;" horiz-adv-x="1755" 
d="M879 -31q-170 0 -313.5 59.5t-240.5 163t-151.5 243.5t-54.5 300q0 152 55 289t152.5 240t241.5 164t313 61q166 0 309 -61t240 -164t151.5 -241t54.5 -290q0 -156 -52 -294t-147 -243t-239.5 -166t-318.5 -61zM883 113q137 0 248 48.5t182.5 133t110 195.5t38.5 239
q0 120 -39.5 229.5t-112.5 196.5t-187.5 139t-254.5 52q-129 0 -238.5 -48.5t-182.5 -131.5t-113.5 -193t-40.5 -232q0 -124 39 -236t111.5 -200t186.5 -140t253 -52zM608 1626h-119v43q0 211 181 211q46 0 103 -19.5t101 -43t92 -43t78 -19.5q38 0 55 23t17 84v24h117v-41
q0 -119 -45.5 -170t-128.5 -51q-47 0 -103.5 20t-100.5 44.5t-94 44.5t-85 20q-32 0 -50 -24.5t-18 -69.5v-33z" />
    <glyph glyph-name="Odieresis" unicode="&#xd6;" horiz-adv-x="1755" 
d="M715 1626h-146v225h146v-225zM1153 1626h-145v225h145v-225zM879 -31q-170 0 -313.5 59.5t-240.5 163t-151.5 243.5t-54.5 300q0 152 55 289t152.5 240t241.5 164t313 61q166 0 309 -61t240 -164t151.5 -241t54.5 -290q0 -156 -52 -294t-147 -243t-239.5 -166t-318.5 -61
zM883 113q137 0 248 48.5t182.5 133t110 195.5t38.5 239q0 120 -39.5 229.5t-112.5 196.5t-187.5 139t-254.5 52q-129 0 -238.5 -48.5t-182.5 -131.5t-113.5 -193t-40.5 -232q0 -124 39 -236t111.5 -200t186.5 -140t253 -52z" />
    <glyph glyph-name="multiply" unicode="&#xd7;" horiz-adv-x="1619" 
d="M313 27l-98 100l498 508l-498 510l94 96l500 -510l500 510l96 -96l-500 -512l498 -506l-94 -100l-498 510z" />
    <glyph glyph-name="Oslash" unicode="&#xd8;" horiz-adv-x="1755" 
d="M205 0l139 174q-108 106 -166.5 251t-58.5 310q0 153 55 290.5t152.5 240t241.5 163t313 60.5q236 0 419 -119l70 88h146l-125 -158q117 -104 181 -252t64 -315q0 -156 -52 -294.5t-147 -243t-239.5 -165.5t-318.5 -61q-257 0 -445 133l-82 -102h-147zM1292 1178
l-762 -955q147 -112 353 -112q182 0 315.5 83t199.5 221.5t66 313.5q0 128 -44 245t-128 204zM446 301l758 950q-148 97 -336 97q-129 0 -238.5 -48.5t-183 -131.5t-114.5 -193.5t-41 -233.5q0 -125 39.5 -239t115.5 -201z" />
    <glyph glyph-name="Ugrave" unicode="&#xd9;" horiz-adv-x="1660" 
d="M199 616v842h163v-829q0 -117 27.5 -208t72.5 -148t108 -94t128.5 -51.5t139.5 -14.5q226 0 343 121.5t117 394.5v829h164v-823q0 -666 -631 -666q-146 0 -260.5 37.5t-198.5 114.5t-128.5 202t-44.5 293zM358 1884h230l356 -285h-170z" />
    <glyph glyph-name="Uacute" unicode="&#xda;" horiz-adv-x="1660" 
d="M199 616v842h163v-829q0 -117 27.5 -208t72.5 -148t108 -94t128.5 -51.5t139.5 -14.5q226 0 343 121.5t117 394.5v829h164v-823q0 -666 -631 -666q-146 0 -260.5 37.5t-198.5 114.5t-128.5 202t-44.5 293zM702 1599l349 285h219l-396 -285h-172z" />
    <glyph glyph-name="Ucircumflex" unicode="&#xdb;" horiz-adv-x="1660" 
d="M199 616v842h163v-829q0 -117 27.5 -208t72.5 -148t108 -94t128.5 -51.5t139.5 -14.5q226 0 343 121.5t117 394.5v829h164v-823q0 -666 -631 -666q-146 0 -260.5 37.5t-198.5 114.5t-128.5 202t-44.5 293zM428 1585l303 281h193l307 -281h-178l-228 197l-223 -197h-174z
" />
    <glyph glyph-name="Udieresis" unicode="&#xdc;" horiz-adv-x="1660" 
d="M682 1626h-145v225h145v-225zM1120 1626h-145v225h145v-225zM199 616v842h163v-829q0 -117 27.5 -208t72.5 -148t108 -94t128.5 -51.5t139.5 -14.5q226 0 343 121.5t117 394.5v829h164v-823q0 -666 -631 -666q-146 0 -260.5 37.5t-198.5 114.5t-128.5 202t-44.5 293z" />
    <glyph glyph-name="Yacute" unicode="&#xdd;" horiz-adv-x="1351" 
d="M760 0h-164v565q0 19 -14 33l-613 860h197q60 -86 189 -267t214.5 -303.5t114.5 -174.5q73 121 512 745h186l-612 -862q-10 -17 -10 -35v-561zM547 1599l348 285h219l-395 -285h-172z" />
    <glyph glyph-name="Thorn" unicode="&#xde;" horiz-adv-x="1437" 
d="M375 0h-164v1458h164v-282h436q239 0 383.5 -115.5t144.5 -327.5q0 -112 -44.5 -199t-122.5 -139.5t-176.5 -79t-213.5 -26.5h-407v-289zM375 1038v-610h411q66 0 122 9.5t106.5 31.5t85.5 56.5t55.5 87.5t20.5 120q0 138 -99 221.5t-270 83.5h-432z" />
    <glyph glyph-name="germandbls" unicode="&#xdf;" horiz-adv-x="1421" 
d="M188 0v1083q0 234 130 356t409 122q121 0 216.5 -27.5t151.5 -69.5t93 -97.5t50 -104.5t13 -97q0 -50 -6 -75l-438 -211v-5l186 -100q180 -98 253 -193t73 -223q0 -182 -118.5 -284.5t-326.5 -102.5q-231 0 -382 121v176q58 -66 161.5 -118t220.5 -52q77 0 135.5 21
t91 57t48.5 78t16 90q0 91 -52.5 156t-197.5 145l-200 113q-87 49 -87.5 107.5t83.5 99.5l381 194q3 31 -6.5 65.5t-36.5 71.5t-68 66.5t-108.5 48.5t-151.5 19q-187 0 -282 -85.5t-95 -275.5v-1069h-156z" />
    <glyph glyph-name="agrave" unicode="&#xe0;" horiz-adv-x="1216" 
d="M309 731h-153q4 46 18 88t46 87t79.5 78t124.5 54t174 21q103 0 181.5 -20t127 -52t79.5 -78t42.5 -93t11.5 -101v-469q0 -177 11 -246h-148q-12 62 -12 162q-93 -191 -395 -191q-85 0 -154.5 20t-114 52.5t-75 76t-43.5 88.5t-13 93q0 334 531 334h262v61q0 50 -12.5 89
t-42.5 74.5t-90 55t-146 19.5q-77 0 -131.5 -16t-85.5 -46.5t-46.5 -63t-25.5 -77.5zM889 465v53h-258q-197 0 -289 -48t-92 -161q0 -91 68 -150t200 -59q371 0 371 365zM569 1235l-325 330h190l291 -330h-156z" />
    <glyph glyph-name="aacute" unicode="&#xe1;" horiz-adv-x="1216" 
d="M309 731h-153q4 46 18 88t46 87t79.5 78t124.5 54t174 21q103 0 181.5 -20t127 -52t79.5 -78t42.5 -93t11.5 -101v-469q0 -177 11 -246h-148q-12 62 -12 162q-93 -191 -395 -191q-85 0 -154.5 20t-114 52.5t-75 76t-43.5 88.5t-13 93q0 334 531 334h262v61q0 50 -12.5 89
t-42.5 74.5t-90 55t-146 19.5q-77 0 -131.5 -16t-85.5 -46.5t-46.5 -63t-25.5 -77.5zM889 465v53h-258q-197 0 -289 -48t-92 -161q0 -91 68 -150t200 -59q371 0 371 365zM479 1235l285 330h192l-323 -330h-154z" />
    <glyph glyph-name="acircumflex" unicode="&#xe2;" horiz-adv-x="1216" 
d="M309 731h-153q4 46 18 88t46 87t79.5 78t124.5 54t174 21q103 0 181.5 -20t127 -52t79.5 -78t42.5 -93t11.5 -101v-469q0 -177 11 -246h-148q-12 62 -12 162q-93 -191 -395 -191q-85 0 -154.5 20t-114 52.5t-75 76t-43.5 88.5t-13 93q0 334 531 334h262v61q0 50 -12.5 89
t-42.5 74.5t-90 55t-146 19.5q-77 0 -131.5 -16t-85.5 -46.5t-46.5 -63t-25.5 -77.5zM889 465v53h-258q-197 0 -289 -48t-92 -161q0 -91 68 -150t200 -59q371 0 371 365zM266 1233l264 332h162l266 -332h-153l-195 242l-190 -242h-154z" />
    <glyph glyph-name="atilde" unicode="&#xe3;" horiz-adv-x="1216" 
d="M309 731h-153q4 46 18 88t46 87t79.5 78t124.5 54t174 21q103 0 181.5 -20t127 -52t79.5 -78t42.5 -93t11.5 -101v-469q0 -177 11 -246h-148q-12 62 -12 162q-93 -191 -395 -191q-85 0 -154.5 20t-114 52.5t-75 76t-43.5 88.5t-13 93q0 334 531 334h262v61q0 50 -12.5 89
t-42.5 74.5t-90 55t-146 19.5q-77 0 -131.5 -16t-85.5 -46.5t-46.5 -63t-25.5 -77.5zM889 465v53h-258q-197 0 -289 -48t-92 -161q0 -91 68 -150t200 -59q371 0 371 365zM369 1262h-113v43q0 206 170 206q44 0 93 -18.5t84.5 -41.5t76 -41.5t70.5 -18.5q36 0 51.5 21.5
t15.5 80.5v27h111v-43q0 -215 -170 -215q-44 0 -91.5 19t-81.5 42t-76.5 42t-76.5 19q-63 0 -63 -84v-38z" />
    <glyph glyph-name="adieresis" unicode="&#xe4;" horiz-adv-x="1216" 
d="M469 1319h-145v225h145v-225zM872 1319h-145v225h145v-225zM309 731h-153q4 46 18 88t46 87t79.5 78t124.5 54t174 21q103 0 181.5 -20t127 -52t79.5 -78t42.5 -93t11.5 -101v-469q0 -177 11 -246h-148q-12 62 -12 162q-93 -191 -395 -191q-85 0 -154.5 20t-114 52.5
t-75 76t-43.5 88.5t-13 93q0 334 531 334h262v61q0 50 -12.5 89t-42.5 74.5t-90 55t-146 19.5q-77 0 -131.5 -16t-85.5 -46.5t-46.5 -63t-25.5 -77.5zM889 465v53h-258q-197 0 -289 -48t-92 -161q0 -91 68 -150t200 -59q371 0 371 365z" />
    <glyph glyph-name="aring" unicode="&#xe5;" horiz-adv-x="1216" 
d="M309 731h-153q4 46 18 88t46 87t79.5 78t124.5 54t174 21q103 0 181.5 -20t127 -52t79.5 -78t42.5 -93t11.5 -101v-469q0 -177 11 -246h-148q-12 62 -12 162q-93 -191 -395 -191q-85 0 -154.5 20t-114 52.5t-75 76t-43.5 88.5t-13 93q0 334 531 334h262v61q0 50 -12.5 89
t-42.5 74.5t-90 55t-146 19.5q-77 0 -131.5 -16t-85.5 -46.5t-46.5 -63t-25.5 -77.5zM889 465v53h-258q-197 0 -289 -48t-92 -161q0 -91 68 -150t200 -59q371 0 371 365zM385 1386q0 90 58.5 151.5t160.5 61.5q104 0 162.5 -59t58.5 -149q0 -92 -59.5 -151.5t-159.5 -59.5
q-102 0 -161.5 59t-59.5 147zM606 1270q55 0 86 35t31 84t-30.5 84.5t-86.5 35.5q-57 0 -87 -34t-30 -82q0 -52 29.5 -87.5t87.5 -35.5z" />
    <glyph glyph-name="ae" unicode="&#xe6;" horiz-adv-x="2015" 
d="M307 729h-151q5 68 33 125.5t80 104.5t138 73.5t199 26.5q93 0 165.5 -17.5t118 -48t72.5 -63.5t42 -72q138 201 415 201q115 0 205.5 -32t146.5 -82.5t93 -120t51 -138t14 -141.5v-49h-882q3 -176 109.5 -284t283.5 -108q116 0 194 45.5t127 143.5h158
q-48 -143 -172.5 -232.5t-325.5 -89.5q-164 0 -282 69t-176 183q-116 -252 -451 -252q-108 0 -191 28.5t-130.5 76.5t-71 103t-23.5 114q0 88 36.5 151.5t105.5 100t157 53.5t203 18h297v56q0 262 -287 262q-145 0 -213.5 -54t-87.5 -151zM897 481v17h-305q-97 0 -164 -13
t-105 -39t-54.5 -61t-16.5 -84q0 -87 75.5 -143t198.5 -56q195 0 283 97t88 282zM1411 932q-156 0 -248.5 -81.5t-111.5 -236.5h718q-3 58 -22.5 110t-59 101t-110.5 78t-166 29z" />
    <glyph glyph-name="ccedilla" unicode="&#xe7;" horiz-adv-x="1200" 
d="M422 -485l2 108q98 -20 154 -20q74 0 113.5 22t39.5 62q0 26 -15.5 44t-38.5 28.5t-61.5 16.5t-72.5 8t-82 3v51l114 135q-233 17 -358 167t-125 370q0 150 62.5 273.5t186.5 199.5t288 76q95 0 174.5 -23t132.5 -59t92.5 -83.5t59.5 -93t28 -91.5h-153q-85 219 -338 219
q-171 0 -273 -115t-102 -299q0 -178 101 -295t276 -117q247 0 336 213h155q-38 -132 -141.5 -224.5t-265.5 -113.5l-76 -92q41 -5 78 -16.5t74.5 -32.5t60 -57.5t22.5 -83.5q0 -60 -26.5 -102.5t-70.5 -63.5t-88 -30t-93 -9q-88 0 -170 25z" />
    <glyph glyph-name="egrave" unicode="&#xe8;" horiz-adv-x="1216" 
d="M961 287h155q-17 -46 -43 -88.5t-69 -85t-96 -73.5t-128 -50t-162 -19q-128 0 -230.5 45.5t-166 122.5t-96.5 172.5t-33 200.5q0 239 145 393t375 154q112 0 202 -32.5t148 -85t96.5 -123.5t55 -144.5t16.5 -151.5v-43h-882q9 -167 113 -272t270 -105q232 0 330 185z
M610 932q-160 0 -251 -91.5t-107 -240.5h715q-3 45 -13.5 87t-36.5 88t-64 79.5t-101 55.5t-142 22zM584 1235l-326 330h191l290 -330h-155z" />
    <glyph glyph-name="eacute" unicode="&#xe9;" horiz-adv-x="1216" 
d="M961 287h155q-17 -46 -43 -88.5t-69 -85t-96 -73.5t-128 -50t-162 -19q-128 0 -230.5 45.5t-166 122.5t-96.5 172.5t-33 200.5q0 239 145 393t375 154q112 0 202 -32.5t148 -85t96.5 -123.5t55 -144.5t16.5 -151.5v-43h-882q9 -167 113 -272t270 -105q232 0 330 185z
M610 932q-160 0 -251 -91.5t-107 -240.5h715q-3 45 -13.5 87t-36.5 88t-64 79.5t-101 55.5t-142 22zM473 1235l285 330h192l-323 -330h-154z" />
    <glyph glyph-name="ecircumflex" unicode="&#xea;" horiz-adv-x="1216" 
d="M961 287h155q-17 -46 -43 -88.5t-69 -85t-96 -73.5t-128 -50t-162 -19q-128 0 -230.5 45.5t-166 122.5t-96.5 172.5t-33 200.5q0 239 145 393t375 154q112 0 202 -32.5t148 -85t96.5 -123.5t55 -144.5t16.5 -151.5v-43h-882q9 -167 113 -272t270 -105q232 0 330 185z
M610 932q-160 0 -251 -91.5t-107 -240.5h715q-3 45 -13.5 87t-36.5 88t-64 79.5t-101 55.5t-142 22zM260 1233l264 332h162l266 -332h-153l-195 242l-190 -242h-154z" />
    <glyph glyph-name="edieresis" unicode="&#xeb;" horiz-adv-x="1216" 
d="M477 1319h-145v225h145v-225zM881 1319h-146v225h146v-225zM961 287h155q-17 -46 -43 -88.5t-69 -85t-96 -73.5t-128 -50t-162 -19q-128 0 -230.5 45.5t-166 122.5t-96.5 172.5t-33 200.5q0 239 145 393t375 154q112 0 202 -32.5t148 -85t96.5 -123.5t55 -144.5
t16.5 -151.5v-43h-882q9 -167 113 -272t270 -105q232 0 330 185zM610 932q-160 0 -251 -91.5t-107 -240.5h715q-3 45 -13.5 87t-36.5 88t-64 79.5t-101 55.5t-142 22z" />
    <glyph glyph-name="igrave" unicode="&#xec;" horiz-adv-x="501" 
d="M328 0h-154v1030h154v-1030zM186 1235l-325 330h190l291 -330h-156z" />
    <glyph glyph-name="iacute" unicode="&#xed;" horiz-adv-x="501" 
d="M328 0h-154v1030h154v-1030zM174 1235l285 330h192l-323 -330h-154z" />
    <glyph glyph-name="icircumflex" unicode="&#xee;" horiz-adv-x="501" 
d="M328 0h-154v1030h154v-1030zM-96 1233l264 332h162l266 -332h-154l-194 242l-191 -242h-153z" />
    <glyph glyph-name="idieresis" unicode="&#xef;" horiz-adv-x="501" 
d="M121 1319h-146v225h146v-225zM524 1319h-145v225h145v-225zM328 0h-154v1030h154v-1030z" />
    <glyph glyph-name="eth" unicode="&#xf0;" horiz-adv-x="1267" 
d="M395 1092l-51 86l250 163q-144 74 -328 99v121q262 -21 457 -136l254 166l51 -88l-215 -139q161 -125 247.5 -317.5t86.5 -442.5q0 -298 -137 -465.5t-394 -167.5q-125 0 -225 49.5t-160 129.5t-91 173t-31 189q0 111 37.5 208.5t104.5 169t166 113t216 41.5
q213 0 315 -124q-78 232 -258 362zM625 104q182 0 273 125t91 349q0 160 -96.5 250t-263.5 90q-90 0 -161 -34.5t-113.5 -92.5t-64.5 -129.5t-22 -151.5q0 -58 13.5 -114.5t42.5 -109.5t70.5 -93.5t101 -64.5t129.5 -24z" />
    <glyph glyph-name="ntilde" unicode="&#xf1;" horiz-adv-x="1280" 
d="M328 0h-156v770q0 182 -2 260h152q6 -56 6 -207q18 43 47 82t74.5 75t113 57.5t148.5 21.5q183 0 290 -112t107 -322v-625h-156v594q0 151 -65.5 240.5t-210.5 89.5q-168 0 -258 -120t-90 -317v-487zM426 1262h-113v43q0 206 170 206q44 0 93 -18.5t84.5 -41.5t76 -41.5
t70.5 -18.5q36 0 51.5 21.5t15.5 80.5v27h111v-43q0 -215 -170 -215q-44 0 -91.5 19t-81.5 42t-76.5 42t-76.5 19q-63 0 -63 -84v-38z" />
    <glyph glyph-name="ograve" unicode="&#xf2;" horiz-adv-x="1257" 
d="M625 -29q-123 0 -225 44.5t-168.5 120t-103 173t-36.5 205.5q0 150 64.5 273.5t189.5 197.5t287 74q125 0 227.5 -46t168 -122.5t101 -173t35.5 -201.5q0 -107 -34 -203.5t-98.5 -173.5t-170 -122.5t-237.5 -45.5zM629 104q92 0 165.5 32.5t119 89.5t69 129.5t23.5 156.5
q0 113 -44 206t-132 150.5t-205 57.5q-180 0 -277.5 -118t-97.5 -294q0 -78 25.5 -151.5t72.5 -131t120 -92.5t161 -35zM594 1233l-326 330h191l291 -330h-156z" />
    <glyph glyph-name="oacute" unicode="&#xf3;" horiz-adv-x="1257" 
d="M625 -29q-123 0 -225 44.5t-168.5 120t-103 173t-36.5 205.5q0 150 64.5 273.5t189.5 197.5t287 74q125 0 227.5 -46t168 -122.5t101 -173t35.5 -201.5q0 -107 -34 -203.5t-98.5 -173.5t-170 -122.5t-237.5 -45.5zM629 104q92 0 165.5 32.5t119 89.5t69 129.5t23.5 156.5
q0 113 -44 206t-132 150.5t-205 57.5q-180 0 -277.5 -118t-97.5 -294q0 -78 25.5 -151.5t72.5 -131t120 -92.5t161 -35zM510 1233l285 330h192l-323 -330h-154z" />
    <glyph glyph-name="ocircumflex" unicode="&#xf4;" horiz-adv-x="1257" 
d="M625 -29q-123 0 -225 44.5t-168.5 120t-103 173t-36.5 205.5q0 150 64.5 273.5t189.5 197.5t287 74q125 0 227.5 -46t168 -122.5t101 -173t35.5 -201.5q0 -107 -34 -203.5t-98.5 -173.5t-170 -122.5t-237.5 -45.5zM629 104q92 0 165.5 32.5t119 89.5t69 129.5t23.5 156.5
q0 113 -44 206t-132 150.5t-205 57.5q-180 0 -277.5 -118t-97.5 -294q0 -78 25.5 -151.5t72.5 -131t120 -92.5t161 -35zM281 1233l264 332h162l266 -332h-154l-194 242l-191 -242h-153z" />
    <glyph glyph-name="otilde" unicode="&#xf5;" horiz-adv-x="1257" 
d="M625 -29q-123 0 -225 44.5t-168.5 120t-103 173t-36.5 205.5q0 150 64.5 273.5t189.5 197.5t287 74q125 0 227.5 -46t168 -122.5t101 -173t35.5 -201.5q0 -107 -34 -203.5t-98.5 -173.5t-170 -122.5t-237.5 -45.5zM629 104q92 0 165.5 32.5t119 89.5t69 129.5t23.5 156.5
q0 113 -44 206t-132 150.5t-205 57.5q-180 0 -277.5 -118t-97.5 -294q0 -78 25.5 -151.5t72.5 -131t120 -92.5t161 -35zM403 1262h-112v43q0 206 170 206q44 0 93 -18.5t84 -41.5t75.5 -41.5t70.5 -18.5q36 0 52 21.5t16 80.5v27h111v-43q0 -215 -170 -215q-44 0 -91.5 19
t-81.5 42t-76.5 42t-76.5 19q-64 0 -64 -84v-38z" />
    <glyph glyph-name="odieresis" unicode="&#xf6;" horiz-adv-x="1257" 
d="M498 1319h-146v225h146v-225zM901 1319h-145v225h145v-225zM625 -29q-123 0 -225 44.5t-168.5 120t-103 173t-36.5 205.5q0 150 64.5 273.5t189.5 197.5t287 74q125 0 227.5 -46t168 -122.5t101 -173t35.5 -201.5q0 -107 -34 -203.5t-98.5 -173.5t-170 -122.5
t-237.5 -45.5zM629 104q92 0 165.5 32.5t119 89.5t69 129.5t23.5 156.5q0 113 -44 206t-132 150.5t-205 57.5q-180 0 -277.5 -118t-97.5 -294q0 -78 25.5 -151.5t72.5 -131t120 -92.5t161 -35z" />
    <glyph glyph-name="divide" unicode="&#xf7;" horiz-adv-x="1652" 
d="M920 2h-148v277h148v-277zM918 1012h-148v276h148v-276zM1475 592h-1258v143h1258v-143z" />
    <glyph glyph-name="oslash" unicode="&#xf8;" horiz-adv-x="1257" 
d="M129 -29l119 150q-75 77 -115.5 180t-40.5 211q0 113 38.5 212.5t107.5 174t172 117.5t225 43q162 0 291 -82l65 82h131l-116 -148q77 -75 118 -179t41 -216q0 -108 -35.5 -205.5t-101.5 -173.5t-171.5 -121t-235.5 -45q-168 0 -295 84l-66 -84h-131zM915 799l-501 -633
q92 -66 213 -66q94 0 168 33.5t120 91t69.5 130.5t23.5 157q0 171 -93 287zM340 238l500 630q-89 64 -215 64q-93 0 -166 -35t-118 -94.5t-68 -133t-23 -155.5q0 -160 90 -276z" />
    <glyph glyph-name="ugrave" unicode="&#xf9;" horiz-adv-x="1265" 
d="M172 389v641h156v-612q0 -50 8 -93.5t27.5 -84t49 -69t75.5 -45.5t104 -17q180 0 263 109.5t83 348.5v463h154v-729q0 -201 2 -301h-148q-8 58 -8 190q-42 -105 -129.5 -162t-247.5 -57q-176 0 -282.5 102t-106.5 316zM608 1235l-325 330h190l291 -330h-156z" />
    <glyph glyph-name="uacute" unicode="&#xfa;" horiz-adv-x="1265" 
d="M172 389v641h156v-612q0 -50 8 -93.5t27.5 -84t49 -69t75.5 -45.5t104 -17q180 0 263 109.5t83 348.5v463h154v-729q0 -201 2 -301h-148q-8 58 -8 190q-42 -105 -129.5 -162t-247.5 -57q-176 0 -282.5 102t-106.5 316zM498 1235l284 330h193l-324 -330h-153z" />
    <glyph glyph-name="ucircumflex" unicode="&#xfb;" horiz-adv-x="1265" 
d="M172 389v641h156v-612q0 -50 8 -93.5t27.5 -84t49 -69t75.5 -45.5t104 -17q180 0 263 109.5t83 348.5v463h154v-729q0 -201 2 -301h-148q-8 58 -8 190q-42 -105 -129.5 -162t-247.5 -57q-176 0 -282.5 102t-106.5 316zM285 1233l264 332h162l266 -332h-154l-194 242
l-191 -242h-153z" />
    <glyph glyph-name="udieresis" unicode="&#xfc;" horiz-adv-x="1265" 
d="M502 1319h-146v225h146v-225zM905 1319h-145v225h145v-225zM172 389v641h156v-612q0 -50 8 -93.5t27.5 -84t49 -69t75.5 -45.5t104 -17q180 0 263 109.5t83 348.5v463h154v-729q0 -201 2 -301h-148q-8 58 -8 190q-42 -105 -129.5 -162t-247.5 -57q-176 0 -282.5 102
t-106.5 316z" />
    <glyph glyph-name="yacute" unicode="&#xfd;" horiz-adv-x="1169" 
d="M98 -475v143q49 -8 117 -8q102 0 162.5 59t140.5 232l-483 1079h172q366 -835 395 -915h2q186 486 365 915h164l-422 -1005q-48 -115 -83.5 -190.5t-73 -136t-69 -93.5t-73 -54.5t-84 -28.5t-103.5 -7q-69 0 -127 10zM451 1235l284 330h193l-324 -330h-153z" />
    <glyph glyph-name="thorn" unicode="&#xfe;" horiz-adv-x="1306" 
d="M328 -457h-154v2001h154v-708q128 223 409 223q204 0 340.5 -148.5t136.5 -378.5q0 -164 -68 -293t-183.5 -198.5t-255.5 -69.5q-261 0 -379 197v-625zM688 109q119 0 204 59t124 152t39 208q0 73 -22 141.5t-64 126.5t-113 93t-160 35q-175 0 -273.5 -115.5
t-98.5 -290.5q0 -80 21.5 -151t64 -130t114.5 -93.5t164 -34.5z" />
    <glyph glyph-name="ydieresis" unicode="&#xff;" horiz-adv-x="1169" 
d="M455 1319h-146v225h146v-225zM858 1319h-145v225h145v-225zM98 -475v143q49 -8 117 -8q102 0 162.5 59t140.5 232l-483 1079h172q366 -835 395 -915h2q186 486 365 915h164l-422 -1005q-48 -115 -83.5 -190.5t-73 -136t-69 -93.5t-73 -54.5t-84 -28.5t-103.5 -7
q-69 0 -127 10z" />
    <glyph glyph-name="Amacron" unicode="&#x100;" horiz-adv-x="1556" 
d="M31 0l639 1458h192l662 -1458h-178l-216 473h-720l-205 -473h-174zM762 1333h-2q-47 -139 -293 -715h606q-276 612 -311 715zM453 1657v125h645v-125h-645z" />
    <glyph glyph-name="amacron" unicode="&#x101;" horiz-adv-x="1216" 
d="M309 731h-153q4 46 18 88t46 87t79.5 78t124.5 54t174 21q103 0 181.5 -20t127 -52t79.5 -78t42.5 -93t11.5 -101v-469q0 -177 11 -246h-148q-12 62 -12 162q-93 -191 -395 -191q-85 0 -154.5 20t-114 52.5t-75 76t-43.5 88.5t-13 93q0 334 531 334h262v61q0 50 -12.5 89
t-42.5 74.5t-90 55t-146 19.5q-77 0 -131.5 -16t-85.5 -46.5t-46.5 -63t-25.5 -77.5zM889 465v53h-258q-197 0 -289 -48t-92 -161q0 -91 68 -150t200 -59q371 0 371 365zM297 1339v129h604v-129h-604z" />
    <glyph glyph-name="Abreve" unicode="&#x102;" horiz-adv-x="1556" 
d="M31 0l639 1458h192l662 -1458h-178l-216 473h-720l-205 -473h-174zM762 1333h-2q-47 -139 -293 -715h606q-276 612 -311 715zM983 1862h121q-20 -119 -107.5 -194t-228.5 -75q-80 0 -144 24t-103.5 63.5t-61.5 85.5t-27 96h125q15 -64 72 -105t139 -41q171 0 215 146z
" />
    <glyph glyph-name="abreve" unicode="&#x103;" horiz-adv-x="1216" 
d="M309 731h-153q4 46 18 88t46 87t79.5 78t124.5 54t174 21q103 0 181.5 -20t127 -52t79.5 -78t42.5 -93t11.5 -101v-469q0 -177 11 -246h-148q-12 62 -12 162q-93 -191 -395 -191q-85 0 -154.5 20t-114 52.5t-75 76t-43.5 88.5t-13 93q0 334 531 334h262v61q0 50 -12.5 89
t-42.5 74.5t-90 55t-146 19.5q-77 0 -131.5 -16t-85.5 -46.5t-46.5 -63t-25.5 -77.5zM889 465v53h-258q-197 0 -289 -48t-92 -161q0 -91 68 -150t200 -59q371 0 371 365zM797 1534h118q-18 -135 -101 -219t-220 -84q-78 0 -139 25.5t-98 69t-57 96t-24 112.5h119
q16 -80 66.5 -128t132.5 -48q51 0 88.5 15t59.5 42.5t34 54.5t21 64z" />
    <glyph glyph-name="Aogonek" unicode="&#x104;" horiz-adv-x="1556" 
d="M31 0l639 1458h192l662 -1458h-11q-139 -115 -139 -236q0 -60 37 -90t98 -30q75 0 129 22v-127q-55 -28 -161 -28q-121 0 -185.5 62t-64.5 165q0 69 34 138t89 124h-4l-216 473h-720l-205 -473h-174zM762 1333h-2q-47 -139 -293 -715h606q-276 612 -311 715z" />
    <glyph glyph-name="aogonek" unicode="&#x105;" horiz-adv-x="1216" 
d="M1051 0h-4q-140 -116 -140 -236q0 -60 37 -90t98 -30q75 0 129 22v-127q-55 -28 -161 -28q-121 0 -185.5 62t-64.5 165q0 75 39 149t102 129q-10 75 -10 146q-93 -191 -395 -191q-85 0 -154.5 20t-114 52.5t-75 76t-43.5 88.5t-13 93q0 334 531 334h262v61q0 50 -12.5 89
t-42.5 74.5t-90 55t-146 19.5q-77 0 -131.5 -16t-85.5 -46.5t-46.5 -63t-25.5 -77.5h-153q4 46 18 88t46 87t79.5 78t124.5 54t174 21q103 0 181.5 -20t127 -52t79.5 -78t42.5 -93t11.5 -101v-469q0 -177 11 -246zM889 465v53h-258q-197 0 -289 -48t-92 -161q0 -91 68 -150
t200 -59q371 0 371 365z" />
    <glyph glyph-name="Cacute" unicode="&#x106;" horiz-adv-x="1632" 
d="M1534 1030h-170q-24 55 -52 99t-70 86t-94 69.5t-124.5 44.5t-159.5 17q-260 0 -415.5 -172t-155.5 -443q0 -174 69 -314t200.5 -222t303.5 -82q107 0 188.5 21.5t139 65t95.5 94t73 122.5h166q-28 -78 -64.5 -142t-92.5 -122t-127 -97.5t-169 -62.5t-217 -23
q-173 0 -314 58.5t-233.5 161t-142 240t-49.5 296.5q0 158 54 298t150 243t237.5 163t307.5 60q150 0 269 -37t197.5 -103t127 -145t72.5 -174zM721 1622l348 285h219l-395 -285h-172z" />
    <glyph glyph-name="cacute" unicode="&#x107;" horiz-adv-x="1200" 
d="M1116 709h-153q-85 219 -338 219q-171 0 -273 -115t-102 -299q0 -178 101 -295t276 -117q247 0 336 213h155q-28 -96 -88 -171t-165 -124t-240 -49q-130 0 -233 42.5t-167.5 117t-98.5 171.5t-34 208q0 150 62.5 273.5t186.5 199.5t288 76q95 0 174.5 -23t132.5 -59
t92.5 -83.5t59.5 -93t28 -91.5zM506 1235l285 330h192l-324 -330h-153z" />
    <glyph glyph-name="Ccircumflex" unicode="&#x108;" horiz-adv-x="1632" 
d="M1534 1030h-170q-24 55 -52 99t-70 86t-94 69.5t-124.5 44.5t-159.5 17q-260 0 -415.5 -172t-155.5 -443q0 -174 69 -314t200.5 -222t303.5 -82q107 0 188.5 21.5t139 65t95.5 94t73 122.5h166q-28 -78 -64.5 -142t-92.5 -122t-127 -97.5t-169 -62.5t-217 -23
q-173 0 -314 58.5t-233.5 161t-142 240t-49.5 296.5q0 158 54 298t150 243t237.5 163t307.5 60q150 0 269 -37t197.5 -103t127 -145t72.5 -174zM451 1602l303 280h192l307 -280h-178l-227 196l-223 -196h-174z" />
    <glyph glyph-name="ccircumflex" unicode="&#x109;" horiz-adv-x="1200" 
d="M1116 709h-153q-85 219 -338 219q-171 0 -273 -115t-102 -299q0 -178 101 -295t276 -117q247 0 336 213h155q-28 -96 -88 -171t-165 -124t-240 -49q-130 0 -233 42.5t-167.5 117t-98.5 171.5t-34 208q0 150 62.5 273.5t186.5 199.5t288 76q95 0 174.5 -23t132.5 -59
t92.5 -83.5t59.5 -93t28 -91.5zM274 1233l265 332h161l267 -332h-154l-195 242l-190 -242h-154z" />
    <glyph glyph-name="Cdotaccent" unicode="&#x10a;" horiz-adv-x="1632" 
d="M1534 1030h-170q-24 55 -52 99t-70 86t-94 69.5t-124.5 44.5t-159.5 17q-260 0 -415.5 -172t-155.5 -443q0 -174 69 -314t200.5 -222t303.5 -82q107 0 188.5 21.5t139 65t95.5 94t73 122.5h166q-28 -78 -64.5 -142t-92.5 -122t-127 -97.5t-169 -62.5t-217 -23
q-173 0 -314 58.5t-233.5 161t-142 240t-49.5 296.5q0 158 54 298t150 243t237.5 163t307.5 60q150 0 269 -37t197.5 -103t127 -145t72.5 -174zM928 1642h-154v226h154v-226z" />
    <glyph glyph-name="cdotaccent" unicode="&#x10b;" horiz-adv-x="1200" 
d="M1116 709h-153q-85 219 -338 219q-171 0 -273 -115t-102 -299q0 -178 101 -295t276 -117q247 0 336 213h155q-28 -96 -88 -171t-165 -124t-240 -49q-130 0 -233 42.5t-167.5 117t-98.5 171.5t-34 208q0 150 62.5 273.5t186.5 199.5t288 76q95 0 174.5 -23t132.5 -59
t92.5 -83.5t59.5 -93t28 -91.5zM711 1319h-154v225h154v-225z" />
    <glyph glyph-name="Ccaron" unicode="&#x10c;" horiz-adv-x="1632" 
d="M1534 1030h-170q-24 55 -52 99t-70 86t-94 69.5t-124.5 44.5t-159.5 17q-260 0 -415.5 -172t-155.5 -443q0 -174 69 -314t200.5 -222t303.5 -82q107 0 188.5 21.5t139 65t95.5 94t73 122.5h166q-28 -78 -64.5 -142t-92.5 -122t-127 -97.5t-169 -62.5t-217 -23
q-173 0 -314 58.5t-233.5 161t-142 240t-49.5 296.5q0 158 54 298t150 243t237.5 163t307.5 60q150 0 269 -37t197.5 -103t127 -145t72.5 -174zM451 1882h178l227 -199l223 199h174l-303 -280h-192z" />
    <glyph glyph-name="ccaron" unicode="&#x10d;" horiz-adv-x="1200" 
d="M1116 709h-153q-85 219 -338 219q-171 0 -273 -115t-102 -299q0 -178 101 -295t276 -117q247 0 336 213h155q-28 -96 -88 -171t-165 -124t-240 -49q-130 0 -233 42.5t-167.5 117t-98.5 171.5t-34 208q0 150 62.5 273.5t186.5 199.5t288 76q95 0 174.5 -23t132.5 -59
t92.5 -83.5t59.5 -93t28 -91.5zM702 1217h-161l-267 331h152l197 -241l190 241h154z" />
    <glyph glyph-name="Dcaron" unicode="&#x10e;" horiz-adv-x="1652" 
d="M791 0h-580v1458h582q171 0 311.5 -53.5t234 -148t144.5 -224t51 -280.5q0 -228 -98.5 -400.5t-266 -262t-378.5 -89.5zM375 1317v-1176h375q152 0 270 46.5t191.5 129.5t111 192t37.5 239q0 264 -162.5 416.5t-429.5 152.5h-393zM348 1866h178l228 -199l223 199h174
l-303 -281h-193z" />
    <glyph glyph-name="dcaron" unicode="&#x10f;" horiz-adv-x="1392" 
d="M1137 0h-150q-8 63 -8 168q-21 -39 -48 -69.5t-71.5 -62t-113 -48.5t-156.5 -17q-223 0 -360.5 150.5t-137.5 384.5q0 123 43 228.5t115 175.5t166 109.5t196 39.5q272 0 367 -174v659h156v-1241q0 -203 2 -303zM614 106q192 0 282.5 111t90.5 303q0 95 -17.5 166
t-57.5 126t-112 83.5t-175 28.5q-91 0 -164 -35.5t-117.5 -94.5t-68 -132t-23.5 -152q0 -76 23 -147t66.5 -129t114.5 -93t158 -35zM1430 999h-125l-9 545h140z" />
    <glyph glyph-name="Dcroat" unicode="&#x110;" horiz-adv-x="1675" 
d="M233 0v692h-192v127h192v639h582q171 0 311.5 -53.5t234 -148t144.5 -224t51 -280.5q0 -228 -98.5 -400.5t-266 -262t-378.5 -89.5h-580zM397 141h375q152 0 270 46.5t191.5 129.5t111 192t37.5 239q0 264 -162 416.5t-429 152.5h-394v-498h469v-127h-469v-551z" />
    <glyph glyph-name="dcroat" unicode="&#x111;" horiz-adv-x="1306" 
d="M1137 0h-150q-8 63 -8 178q-21 -43 -47.5 -75.5t-70.5 -64.5t-113.5 -49.5t-159.5 -17.5q-220 0 -358 151t-138 382q0 125 43 230t115 174.5t166 108t196 38.5q73 0 133 -13t98 -31.5t67.5 -44.5t44 -47.5t24.5 -44.5v375h-496v111h496v184h156v-184h172v-111h-172v-946
q0 -203 2 -303zM612 106q80 0 144 21t106.5 58t71 89.5t41 112.5t12.5 131q0 87 -20 158t-62 127t-113.5 86.5t-166.5 30.5q-176 0 -274.5 -115.5t-98.5 -298.5q0 -77 23.5 -147.5t67 -127.5t113.5 -91t156 -34z" />
    <glyph glyph-name="Emacron" unicode="&#x112;" horiz-adv-x="1435" 
d="M211 0v1458h1102v-143h-938v-475h891v-144h-891v-553h981l-23 -143h-1122zM436 1686v124h645v-124h-645z" />
    <glyph glyph-name="emacron" unicode="&#x113;" horiz-adv-x="1216" 
d="M961 287h155q-17 -46 -43 -88.5t-69 -85t-96 -73.5t-128 -50t-162 -19q-128 0 -230.5 45.5t-166 122.5t-96.5 172.5t-33 200.5q0 239 145 393t375 154q112 0 202 -32.5t148 -85t96.5 -123.5t55 -144.5t16.5 -151.5v-43h-882q9 -167 113 -272t270 -105q232 0 330 185z
M610 932q-160 0 -251 -91.5t-107 -240.5h715q-3 45 -13.5 87t-36.5 88t-64 79.5t-101 55.5t-142 22zM303 1339v129h604v-129h-604z" />
    <glyph glyph-name="Ebreve" unicode="&#x114;" horiz-adv-x="1435" 
d="M211 0v1458h1102v-143h-938v-475h891v-144h-891v-553h981l-23 -143h-1122zM991 1878h121q-20 -119 -107.5 -193.5t-228.5 -74.5q-80 0 -144 23.5t-103.5 63t-61.5 85.5t-27 96h125q15 -64 72 -104.5t139 -40.5q171 0 215 145z" />
    <glyph glyph-name="ebreve" unicode="&#x115;" horiz-adv-x="1216" 
d="M961 287h155q-17 -46 -43 -88.5t-69 -85t-96 -73.5t-128 -50t-162 -19q-128 0 -230.5 45.5t-166 122.5t-96.5 172.5t-33 200.5q0 239 145 393t375 154q112 0 202 -32.5t148 -85t96.5 -123.5t55 -144.5t16.5 -151.5v-43h-882q9 -167 113 -272t270 -105q232 0 330 185z
M610 932q-160 0 -251 -91.5t-107 -240.5h715q-3 45 -13.5 87t-36.5 88t-64 79.5t-101 55.5t-142 22zM807 1534h119q-18 -135 -101.5 -219t-220.5 -84q-78 0 -139 25.5t-97.5 69t-56.5 96t-24 112.5h119q16 -80 66 -128t132 -48q51 0 88.5 15t59.5 42.5t34 54.5t21 64z" />
    <glyph glyph-name="Edotaccent" unicode="&#x116;" horiz-adv-x="1435" 
d="M211 0v1458h1102v-143h-938v-475h891v-144h-891v-553h981l-23 -143h-1122zM838 1645h-154v225h154v-225z" />
    <glyph glyph-name="edotaccent" unicode="&#x117;" horiz-adv-x="1216" 
d="M961 287h155q-17 -46 -43 -88.5t-69 -85t-96 -73.5t-128 -50t-162 -19q-128 0 -230.5 45.5t-166 122.5t-96.5 172.5t-33 200.5q0 239 145 393t375 154q112 0 202 -32.5t148 -85t96.5 -123.5t55 -144.5t16.5 -151.5v-43h-882q9 -167 113 -272t270 -105q232 0 330 185z
M610 932q-160 0 -251 -91.5t-107 -240.5h715q-3 45 -13.5 87t-36.5 88t-64 79.5t-101 55.5t-142 22zM682 1319h-154v225h154v-225z" />
    <glyph glyph-name="Eogonek" unicode="&#x118;" horiz-adv-x="1435" 
d="M211 0v1458h1102v-143h-938v-475h891v-144h-891v-553h981l-23 -143h-100q-139 -115 -139 -236q0 -60 37 -90t98 -30q75 0 129 22v-127q-55 -28 -162 -28q-121 0 -185.5 62t-64.5 165q0 69 34 138t89 124h-858z" />
    <glyph glyph-name="eogonek" unicode="&#x119;" horiz-adv-x="1216" 
d="M621 -29h-3q-128 0 -230.5 45.5t-166 122.5t-96.5 172.5t-33 200.5q0 239 145 393t375 154q112 0 202 -32.5t148 -85t96.5 -123.5t55 -144.5t16.5 -151.5v-43h-882q9 -167 113 -272t270 -105q232 0 330 185h155q-35 -95 -111 -173.5t-198 -115.5q-131 -113 -131 -229
q0 -60 37.5 -90.5t97.5 -30.5q75 0 129 22v-127q-55 -28 -162 -28q-121 0 -185.5 62t-64.5 165q0 113 93 229zM610 932q-160 0 -251 -91.5t-107 -240.5h715q-3 45 -13.5 87t-36.5 88t-64 79.5t-101 55.5t-142 22z" />
    <glyph glyph-name="Ecaron" unicode="&#x11a;" horiz-adv-x="1435" 
d="M211 0v1458h1102v-143h-938v-475h891v-144h-891v-553h981l-23 -143h-1122zM358 1866h179l227 -199l223 199h174l-303 -281h-192z" />
    <glyph glyph-name="ecaron" unicode="&#x11b;" horiz-adv-x="1216" 
d="M961 287h155q-17 -46 -43 -88.5t-69 -85t-96 -73.5t-128 -50t-162 -19q-128 0 -230.5 45.5t-166 122.5t-96.5 172.5t-33 200.5q0 239 145 393t375 154q112 0 202 -32.5t148 -85t96.5 -123.5t55 -144.5t16.5 -151.5v-43h-882q9 -167 113 -272t270 -105q232 0 330 185z
M610 932q-160 0 -251 -91.5t-107 -240.5h715q-3 45 -13.5 87t-36.5 88t-64 79.5t-101 55.5t-142 22zM688 1217h-162l-266 331h152l196 -241l191 241h153z" />
    <glyph glyph-name="Gcircumflex" unicode="&#x11c;" horiz-adv-x="1720" 
d="M885 643v143h663v-786h-129q-14 86 -14 236q-76 -134 -204.5 -200.5t-338.5 -66.5q-342 0 -542.5 205.5t-200.5 552.5q0 161 54 300.5t152 242t244 161t320 58.5q124 0 228 -24t176 -64t127.5 -96.5t87.5 -116t51 -127.5h-173q-117 287 -499 287q-186 0 -322.5 -82.5
t-204 -220t-67.5 -310.5q0 -180 68 -320.5t202.5 -222t317.5 -81.5q243 0 376.5 123.5t133.5 359.5v49h-506zM453 1606l303 280h192l307 -280h-178l-227 196l-223 -196h-174z" />
    <glyph glyph-name="gcircumflex" unicode="&#x11d;" horiz-adv-x="1308" 
d="M102 -135h158q13 -47 36 -84t61.5 -69t100.5 -49t144 -17q96 0 165 25t110 66t65 106.5t31.5 132.5t7.5 159v60q-102 -213 -401 -213q-215 0 -352.5 148.5t-137.5 371.5q0 122 42 227.5t113 177t164 112t195 40.5q86 0 155.5 -18.5t112.5 -49.5t69 -63t40 -68
q0 126 6 170h148q-2 -98 -2 -297v-592q0 -123 -15.5 -216.5t-53 -173t-98.5 -130t-154 -78.5t-218 -28q-80 0 -148.5 13t-116.5 34.5t-86.5 52t-62 61t-41 66.5t-25.5 64.5t-12 58.5zM616 119q173 0 271 105t98 298q0 194 -94 298t-264 104q-94 0 -168 -36t-118.5 -96
t-67.5 -132t-23 -150q0 -173 103 -282t263 -109zM307 1233l264 332h162l266 -332h-153l-195 242l-190 -242h-154z" />
    <glyph glyph-name="Gbreve" unicode="&#x11e;" horiz-adv-x="1720" 
d="M885 643v143h663v-786h-129q-14 86 -14 236q-76 -134 -204.5 -200.5t-338.5 -66.5q-342 0 -542.5 205.5t-200.5 552.5q0 161 54 300.5t152 242t244 161t320 58.5q124 0 228 -24t176 -64t127.5 -96.5t87.5 -116t51 -127.5h-173q-117 287 -499 287q-186 0 -322.5 -82.5
t-204 -220t-67.5 -310.5q0 -180 68 -320.5t202.5 -222t317.5 -81.5q243 0 376.5 123.5t133.5 359.5v49h-506zM1077 1888h121q-20 -119 -107.5 -193.5t-228.5 -74.5q-80 0 -144 23.5t-103.5 63t-61.5 85.5t-27 96h125q15 -64 72 -104.5t139 -40.5q171 0 215 145z" />
    <glyph glyph-name="gbreve" unicode="&#x11f;" horiz-adv-x="1308" 
d="M102 -135h158q13 -47 36 -84t61.5 -69t100.5 -49t144 -17q96 0 165 25t110 66t65 106.5t31.5 132.5t7.5 159v60q-102 -213 -401 -213q-215 0 -352.5 148.5t-137.5 371.5q0 122 42 227.5t113 177t164 112t195 40.5q86 0 155.5 -18.5t112.5 -49.5t69 -63t40 -68
q0 126 6 170h148q-2 -98 -2 -297v-592q0 -123 -15.5 -216.5t-53 -173t-98.5 -130t-154 -78.5t-218 -28q-80 0 -148.5 13t-116.5 34.5t-86.5 52t-62 61t-41 66.5t-25.5 64.5t-12 58.5zM616 119q173 0 271 105t98 298q0 194 -94 298t-264 104q-94 0 -168 -36t-118.5 -96
t-67.5 -132t-23 -150q0 -173 103 -282t263 -109zM854 1534h119q-18 -135 -101.5 -219t-220.5 -84q-78 0 -139 25.5t-97.5 69t-56.5 96t-24 112.5h119q16 -80 66 -128t132 -48q51 0 88.5 15t59.5 42.5t34 54.5t21 64z" />
    <glyph glyph-name="Gdotaccent" unicode="&#x120;" horiz-adv-x="1720" 
d="M885 643v143h663v-786h-129q-14 86 -14 236q-76 -134 -204.5 -200.5t-338.5 -66.5q-342 0 -542.5 205.5t-200.5 552.5q0 161 54 300.5t152 242t244 161t320 58.5q124 0 228 -24t176 -64t127.5 -96.5t87.5 -116t51 -127.5h-173q-117 287 -499 287q-186 0 -322.5 -82.5
t-204 -220t-67.5 -310.5q0 -180 68 -320.5t202.5 -222t317.5 -81.5q243 0 376.5 123.5t133.5 359.5v49h-506zM930 1647h-154v225h154v-225z" />
    <glyph glyph-name="gdotaccent" unicode="&#x121;" horiz-adv-x="1308" 
d="M102 -135h158q13 -47 36 -84t61.5 -69t100.5 -49t144 -17q96 0 165 25t110 66t65 106.5t31.5 132.5t7.5 159v60q-102 -213 -401 -213q-215 0 -352.5 148.5t-137.5 371.5q0 122 42 227.5t113 177t164 112t195 40.5q86 0 155.5 -18.5t112.5 -49.5t69 -63t40 -68
q0 126 6 170h148q-2 -98 -2 -297v-592q0 -123 -15.5 -216.5t-53 -173t-98.5 -130t-154 -78.5t-218 -28q-80 0 -148.5 13t-116.5 34.5t-86.5 52t-62 61t-41 66.5t-25.5 64.5t-12 58.5zM616 119q173 0 271 105t98 298q0 194 -94 298t-264 104q-94 0 -168 -36t-118.5 -96
t-67.5 -132t-23 -150q0 -173 103 -282t263 -109zM729 1319h-154v225h154v-225z" />
    <glyph glyph-name="uni0122" unicode="&#x122;" horiz-adv-x="1720" 
d="M885 643v143h663v-786h-129q-14 86 -14 236q-76 -134 -204.5 -200.5t-338.5 -66.5q-342 0 -542.5 205.5t-200.5 552.5q0 161 54 300.5t152 242t244 161t320 58.5q124 0 228 -24t176 -64t127.5 -96.5t87.5 -116t51 -127.5h-173q-117 287 -499 287q-186 0 -322.5 -82.5
t-204 -220t-67.5 -310.5q0 -180 68 -320.5t202.5 -222t317.5 -81.5q243 0 376.5 123.5t133.5 359.5v49h-506zM831 -154h144q0 -95 -29 -211t-76 -180h-139q100 193 100 391z" />
    <glyph glyph-name="uni0123" unicode="&#x123;" horiz-adv-x="1308" 
d="M702 1208h-147q23 238 145 426h140q-115 -191 -138 -426zM102 -135h158q13 -47 36 -84t61.5 -69t100.5 -49t144 -17q96 0 165 25t110 66t65 106.5t31.5 132.5t7.5 159v60q-102 -213 -401 -213q-215 0 -352.5 148.5t-137.5 371.5q0 122 42 227.5t113 177t164 112t195 40.5
q86 0 155.5 -18.5t112.5 -49.5t69 -63t40 -68q0 126 6 170h148q-2 -98 -2 -297v-592q0 -123 -15.5 -216.5t-53 -173t-98.5 -130t-154 -78.5t-218 -28q-80 0 -148.5 13t-116.5 34.5t-86.5 52t-62 61t-41 66.5t-25.5 64.5t-12 58.5zM616 119q173 0 271 105t98 298
q0 194 -94 298t-264 104q-94 0 -168 -36t-118.5 -96t-67.5 -132t-23 -150q0 -173 103 -282t263 -109z" />
    <glyph glyph-name="Hcircumflex" unicode="&#x124;" horiz-adv-x="1685" 
d="M375 0h-164v1458h164v-600h936v600h164v-1458h-164v713h-936v-713zM440 1602l303 280h193l307 -280h-178l-227 196l-224 -196h-174z" />
    <glyph glyph-name="hcircumflex" unicode="&#x125;" horiz-adv-x="1280" 
d="M-96 1657l241 215h195l246 -215h-174l-170 133l-164 -133h-174zM172 0v1544h156v-715q16 37 41 71t69.5 73t117 62.5t163.5 23.5q179 0 283 -111t104 -325v-623h-154v596q0 151 -65.5 239.5t-210.5 88.5q-86 0 -154 -33.5t-109.5 -91t-63 -131t-21.5 -158.5v-510h-156z
" />
    <glyph glyph-name="Hbar" unicode="&#x126;" horiz-adv-x="1685" 
d="M211 0v1067h-164v125h164v266h164v-266h936v266h164v-266h163v-125h-163v-1067h-164v696h-936v-696h-164zM375 1067v-227h936v227h-936z" />
    <glyph glyph-name="hbar" unicode="&#x127;" horiz-adv-x="1280" 
d="M172 0v1249h-176v111h176v184h156v-184h495v-111h-495v-432q12 31 29 59t49.5 62t73 59t103 41.5t136.5 16.5q181 0 284 -109t103 -330v-616h-154v588q0 332 -276 332q-86 0 -154 -33.5t-109.5 -91t-63 -131t-21.5 -158.5v-506h-156z" />
    <glyph glyph-name="Itilde" unicode="&#x128;" horiz-adv-x="583" 
d="M211 0v1458h164v-1458h-164zM39 1610h-119v43q0 211 180 211q46 0 103 -19.5t101.5 -43t92.5 -43t78 -19.5q38 0 55 22.5t17 83.5v25h117v-41q0 -221 -175 -221q-47 0 -103.5 20t-100.5 44.5t-94 44.5t-85 20q-67 0 -67 -95v-32z" />
    <glyph glyph-name="itilde" unicode="&#x129;" horiz-adv-x="501" 
d="M328 0h-154v1030h154v-1030zM27 1262h-113v43q0 206 170 206q44 0 93 -18.5t84.5 -41.5t76 -41.5t70.5 -18.5q36 0 51.5 21.5t15.5 80.5v27h111v-43q0 -215 -170 -215q-44 0 -91.5 19t-81.5 42t-76.5 42t-76.5 19q-63 0 -63 -84v-38z" />
    <glyph glyph-name="Imacron" unicode="&#x12a;" horiz-adv-x="583" 
d="M211 0v1458h164v-1458h-164zM-31 1657v125h645v-125h-645z" />
    <glyph glyph-name="imacron" unicode="&#x12b;" horiz-adv-x="501" 
d="M328 0h-154v1030h154v-1030zM-53 1339v129h604v-129h-604z" />
    <glyph glyph-name="Iogonek" unicode="&#x12e;" horiz-adv-x="583" 
d="M494 -334v-127q-55 -28 -162 -28q-121 0 -185.5 62t-64.5 165q0 71 35.5 141.5t93.5 126.5v1452h164v-1458h-6q-140 -116 -140 -236q0 -60 37.5 -90t98.5 -30q75 0 129 22z" />
    <glyph glyph-name="iogonek" unicode="&#x12f;" horiz-adv-x="501" 
d="M449 -334v-127q-55 -28 -162 -28q-121 0 -185.5 62t-64.5 165q0 74 38 146t99 130v1016h154v-1030h-4q-140 -116 -140 -236q0 -60 37 -90t98 -30q76 0 130 22zM328 1319h-154v225h154v-225z" />
    <glyph glyph-name="Idotaccent" unicode="&#x130;" horiz-adv-x="583" 
d="M211 0v1458h164v-1458h-164zM369 1626h-154v225h154v-225z" />
    <glyph glyph-name="dotlessi" unicode="&#x131;" horiz-adv-x="501" 
d="M328 0h-154v1030h154v-1030z" />
    <glyph glyph-name="Jcircumflex" unicode="&#x134;" horiz-adv-x="880" 
d="M51 -10v145q95 -18 195 -18q64 0 112.5 20.5t78 54.5t48 83t25 100t6.5 112v971h164v-962q0 -265 -101.5 -395t-334.5 -130q-108 0 -193 19zM197 1585l303 281h192l307 -281h-178l-227 197l-223 -197h-174z" />
    <glyph glyph-name="jcircumflex" unicode="&#x135;" horiz-adv-x="514" 
d="M-31 -485v131h21q111 0 153.5 64.5t42.5 199.5v1120h156v-1091q0 -78 -7.5 -136.5t-30 -115t-60.5 -92.5t-102 -58t-152 -22h-21zM-88 1233l264 332h162l266 -332h-153l-195 242l-190 -242h-154z" />
    <glyph glyph-name="uni0136" unicode="&#x136;" horiz-adv-x="1495" 
d="M375 0h-164v1458h164v-741q118 99 445.5 365.5t459.5 375.5h219l-758 -622l803 -836h-219l-711 745l-239 -188v-557zM725 -154h143q0 -95 -28.5 -211t-75.5 -180h-139q100 193 100 391z" />
    <glyph glyph-name="uni0137" unicode="&#x137;" horiz-adv-x="1187" 
d="M172 0v1544h156v-1022q152 131 606 508h203l-490 -401l543 -629h-203l-457 539l-202 -158v-381h-156zM571 -154h144q0 -95 -29 -211t-76 -180h-139q100 193 100 391z" />
    <glyph glyph-name="kgreenlandic" unicode="&#x138;" horiz-adv-x="1187" 
d="M172 0v1030h156v-506q311 251 612 506h205q-96 -75 -273.5 -220t-224.5 -183q12 -15 141.5 -163t266 -303t141.5 -161h-201q-8 12 -232.5 271t-232.5 270l-202 -150v-391h-156z" />
    <glyph glyph-name="Lacute" unicode="&#x139;" horiz-adv-x="1300" 
d="M373 145h897l-27 -145h-1032v1458h162v-1313zM199 1599l348 285h219l-395 -285h-172z" />
    <glyph glyph-name="lacute" unicode="&#x13a;" horiz-adv-x="499" 
d="M160 1669l291 254h196l-325 -254h-162zM328 0h-156v1544h156v-1544z" />
    <glyph glyph-name="uni013B" unicode="&#x13b;" horiz-adv-x="1300" 
d="M373 145h897l-27 -145h-1032v1458h162v-1313zM678 -154h143q0 -95 -28.5 -211t-75.5 -180h-139q100 193 100 391z" />
    <glyph glyph-name="uni013C" unicode="&#x13c;" horiz-adv-x="499" 
d="M328 0h-156v1544h156v-1544zM178 -154h144q0 -95 -29 -211t-76 -180h-139q100 193 100 391z" />
    <glyph glyph-name="Lcaron" unicode="&#x13d;" horiz-adv-x="1300" 
d="M373 145h897l-27 -145h-1032v1458h162v-1313zM899 918h-125l-8 544h139z" />
    <glyph glyph-name="lcaron" unicode="&#x13e;" horiz-adv-x="565" 
d="M328 0h-156v1544h156v-1544zM600 999h-125l-8 545h139z" />
    <glyph glyph-name="Ldot" unicode="&#x13f;" horiz-adv-x="1300" 
d="M893 651h-158v301h158v-301zM373 145h897l-27 -145h-1032v1458h162v-1313z" />
    <glyph glyph-name="ldot" unicode="&#x140;" horiz-adv-x="565" 
d="M608 729h-147v301h147v-301zM328 0h-156v1544h156v-1544z" />
    <glyph glyph-name="Lslash" unicode="&#x141;" horiz-adv-x="1300" 
d="M211 0v616l-227 -114l-2 131l229 117v708h162v-627l446 226v-135l-446 -226v-551h897l-27 -145h-1032z" />
    <glyph glyph-name="lslash" unicode="&#x142;" horiz-adv-x="544" 
d="M350 0h-155v750l-164 -95v138l164 94v657h155v-567l193 110v-139l-193 -110v-838z" />
    <glyph glyph-name="Nacute" unicode="&#x143;" horiz-adv-x="1708" 
d="M367 0h-156v1458h197q101 -135 344 -451.5t401.5 -529t194.5 -276.5h4q-11 184 -11 655v602h156v-1458h-188q-213 279 -544 724.5t-407 561.5h-4q13 -204 13 -653v-633zM727 1599l348 285h219l-395 -285h-172z" />
    <glyph glyph-name="nacute" unicode="&#x144;" horiz-adv-x="1280" 
d="M328 0h-156v770q0 182 -2 260h152q6 -56 6 -207q18 43 47 82t74.5 75t113 57.5t148.5 21.5q183 0 290 -112t107 -322v-625h-156v594q0 151 -65.5 240.5t-210.5 89.5q-168 0 -258 -120t-90 -317v-487zM516 1235l285 330h192l-323 -330h-154z" />
    <glyph glyph-name="uni0145" unicode="&#x145;" horiz-adv-x="1708" 
d="M367 0h-156v1458h197q101 -135 344 -451.5t401.5 -529t194.5 -276.5h4q-11 184 -11 655v602h156v-1458h-188q-213 279 -544 724.5t-407 561.5h-4q13 -204 13 -653v-633zM823 -150h144q0 -95 -29 -211t-76 -180h-139q100 193 100 391z" />
    <glyph glyph-name="uni0146" unicode="&#x146;" horiz-adv-x="1280" 
d="M328 0h-156v770q0 182 -2 260h152q6 -56 6 -207q18 43 47 82t74.5 75t113 57.5t148.5 21.5q183 0 290 -112t107 -322v-625h-156v594q0 151 -65.5 240.5t-210.5 89.5q-168 0 -258 -120t-90 -317v-487zM594 -154h143q0 -95 -28.5 -211t-75.5 -180h-139q100 193 100 391z
" />
    <glyph glyph-name="Ncaron" unicode="&#x147;" horiz-adv-x="1708" 
d="M367 0h-156v1458h197q101 -135 344 -451.5t401.5 -529t194.5 -276.5h4q-11 184 -11 655v602h156v-1458h-188q-213 279 -544 724.5t-407 561.5h-4q13 -204 13 -653v-633zM453 1866h178l227 -199l223 199h174l-303 -281h-192z" />
    <glyph glyph-name="ncaron" unicode="&#x148;" horiz-adv-x="1280" 
d="M328 0h-156v770q0 182 -2 260h152q6 -56 6 -207q18 43 47 82t74.5 75t113 57.5t148.5 21.5q183 0 290 -112t107 -322v-625h-156v594q0 151 -65.5 240.5t-210.5 89.5q-168 0 -258 -120t-90 -317v-487zM731 1217h-162l-266 331h152l196 -241l191 241h153z" />
    <glyph glyph-name="napostrophe" unicode="&#x149;" horiz-adv-x="1280" 
d="M139 1606h137q-11 -114 -47.5 -224t-78.5 -184h-121q78 202 110 408zM328 0h-156v770q0 182 -2 260h152q6 -56 6 -207q18 43 47 82t74.5 75t113 57.5t148.5 21.5q183 0 290 -112t107 -322v-625h-156v594q0 151 -65.5 240.5t-210.5 89.5q-168 0 -258 -120t-90 -317v-487z
" />
    <glyph glyph-name="Omacron" unicode="&#x14c;" horiz-adv-x="1755" 
d="M879 -31q-170 0 -313.5 59.5t-240.5 163t-151.5 243.5t-54.5 300q0 152 55 289t152.5 240t241.5 164t313 61q166 0 309 -61t240 -164t151.5 -241t54.5 -290q0 -156 -52 -294t-147 -243t-239.5 -166t-318.5 -61zM883 113q137 0 248 48.5t182.5 133t110 195.5t38.5 239
q0 120 -39.5 229.5t-112.5 196.5t-187.5 139t-254.5 52q-129 0 -238.5 -48.5t-182.5 -131.5t-113.5 -193t-40.5 -232q0 -124 39 -236t111.5 -200t186.5 -140t253 -52zM539 1688v124h645v-124h-645z" />
    <glyph glyph-name="omacron" unicode="&#x14d;" horiz-adv-x="1257" 
d="M625 -29q-123 0 -225 44.5t-168.5 120t-103 173t-36.5 205.5q0 150 64.5 273.5t189.5 197.5t287 74q125 0 227.5 -46t168 -122.5t101 -173t35.5 -201.5q0 -107 -34 -203.5t-98.5 -173.5t-170 -122.5t-237.5 -45.5zM629 104q92 0 165.5 32.5t119 89.5t69 129.5t23.5 156.5
q0 113 -44 206t-132 150.5t-205 57.5q-180 0 -277.5 -118t-97.5 -294q0 -78 25.5 -151.5t72.5 -131t120 -92.5t161 -35zM324 1339v129h604v-129h-604z" />
    <glyph glyph-name="Ohungarumlaut" unicode="&#x150;" horiz-adv-x="1755" 
d="M557 1620l252 281h178l-276 -281h-154zM948 1620l252 281h178l-276 -281h-154zM879 -31q-170 0 -313.5 59.5t-240.5 163t-151.5 243.5t-54.5 300q0 152 55 289t152.5 240t241.5 164t313 61q166 0 309 -61t240 -164t151.5 -241t54.5 -290q0 -156 -52 -294t-147 -243
t-239.5 -166t-318.5 -61zM883 113q137 0 248 48.5t182.5 133t110 195.5t38.5 239q0 120 -39.5 229.5t-112.5 196.5t-187.5 139t-254.5 52q-129 0 -238.5 -48.5t-182.5 -131.5t-113.5 -193t-40.5 -232q0 -124 39 -236t111.5 -200t186.5 -140t253 -52z" />
    <glyph glyph-name="ohungarumlaut" unicode="&#x151;" horiz-adv-x="1257" 
d="M492 1196h-132l238 348h158zM852 1196h-131l237 348h158zM625 -29q-123 0 -225 44.5t-168.5 120t-103 173t-36.5 205.5q0 150 64.5 273.5t189.5 197.5t287 74q125 0 227.5 -46t168 -122.5t101 -173t35.5 -201.5q0 -107 -34 -203.5t-98.5 -173.5t-170 -122.5t-237.5 -45.5
zM629 104q92 0 165.5 32.5t119 89.5t69 129.5t23.5 156.5q0 113 -44 206t-132 150.5t-205 57.5q-180 0 -277.5 -118t-97.5 -294q0 -78 25.5 -151.5t72.5 -131t120 -92.5t161 -35z" />
    <glyph glyph-name="OE" unicode="&#x152;" horiz-adv-x="2377" 
d="M1382 145h916l-25 -145h-1042q-151 -23 -313 -23q-154 0 -284 39.5t-223.5 109t-159 164.5t-97 206.5t-31.5 234.5q0 155 55.5 290t158.5 236.5t261 160.5t352 59q136 0 297 -19h1008v-143h-873v-475h826v-144h-826v-551zM299 737q0 -121 33 -223t91 -174.5t137.5 -123
t172.5 -75t197 -24.5q166 0 289 28v1170q-102 22 -269 22q-137 0 -253 -36.5t-206 -108t-141 -188t-51 -267.5z" />
    <glyph glyph-name="oe" unicode="&#x153;" horiz-adv-x="2138" 
d="M1882 287h156q-17 -46 -43 -88.5t-69 -85t-96 -73.5t-128 -50t-162 -19q-159 0 -273.5 70.5t-176.5 189.5q-65 -119 -183 -189.5t-282 -70.5q-123 0 -225 44.5t-168.5 120t-103 173t-36.5 205.5q0 150 64.5 273.5t189.5 197.5t287 74q155 0 271.5 -72t182.5 -192
q62 123 180 193.5t267 70.5q111 0 200.5 -33t147.5 -87t97.5 -125.5t56 -144t16.5 -147.5v-43h-883q9 -167 113 -272t270 -105q232 0 330 185zM629 104q92 0 165.5 32.5t119 89.5t69 129.5t23.5 156.5q0 113 -44 206t-132 150.5t-205 57.5q-180 0 -277.5 -118t-97.5 -294
q0 -78 25.5 -151.5t72.5 -131t120 -92.5t161 -35zM1532 932q-159 0 -250.5 -92.5t-107.5 -239.5h714q-3 44 -15 87t-39 88t-65.5 79t-100 56t-136.5 22z" />
    <glyph glyph-name="Racute" unicode="&#x154;" horiz-adv-x="1513" 
d="M211 0v1458h668q224 0 357.5 -99.5t133.5 -289.5q0 -135 -66.5 -225t-203.5 -123q231 -63 231 -359v-61q0 -238 17 -301h-168q-4 13 -7 29t-5 38t-3 38t-1.5 46.5t-0.5 44.5v51v48v49q0 173 -78.5 238t-279.5 65h-430v-647h-164zM375 1317v-529h461q184 0 274 67t90 206
q0 256 -356 256h-469zM631 1599l348 285h219l-395 -285h-172z" />
    <glyph glyph-name="racute" unicode="&#x155;" horiz-adv-x="786" 
d="M328 0h-154v750q0 188 -2 280h150q6 -87 6 -239q53 125 164.5 196.5t259.5 71.5v-154q-187 3 -305.5 -117t-118.5 -342v-446zM307 1235l285 330h192l-323 -330h-154z" />
    <glyph glyph-name="uni0156" unicode="&#x156;" horiz-adv-x="1513" 
d="M211 0v1458h668q224 0 357.5 -99.5t133.5 -289.5q0 -135 -66.5 -225t-203.5 -123q231 -63 231 -359v-61q0 -238 17 -301h-168q-4 13 -7 29t-5 38t-3 38t-1.5 46.5t-0.5 44.5v51v48v49q0 173 -78.5 238t-279.5 65h-430v-647h-164zM375 1317v-529h461q184 0 274 67t90 206
q0 256 -356 256h-469zM715 -145h143q0 -95 -28.5 -211.5t-75.5 -180.5h-140q101 195 101 392z" />
    <glyph glyph-name="uni0157" unicode="&#x157;" horiz-adv-x="786" 
d="M328 0h-154v750q0 188 -2 280h150q6 -87 6 -239q53 125 164.5 196.5t259.5 71.5v-154q-187 3 -305.5 -117t-118.5 -342v-446zM178 -154h144q0 -95 -29 -211t-76 -180h-139q100 193 100 391z" />
    <glyph glyph-name="Rcaron" unicode="&#x158;" horiz-adv-x="1513" 
d="M211 0v1458h668q224 0 357.5 -99.5t133.5 -289.5q0 -135 -66.5 -225t-203.5 -123q231 -63 231 -359v-61q0 -238 17 -301h-168q-4 13 -7 29t-5 38t-3 38t-1.5 46.5t-0.5 44.5v51v48v49q0 173 -78.5 238t-279.5 65h-430v-647h-164zM375 1317v-529h461q184 0 274 67t90 206
q0 256 -356 256h-469zM338 1866h178l227 -199l224 199h174l-303 -281h-193z" />
    <glyph glyph-name="rcaron" unicode="&#x159;" horiz-adv-x="786" 
d="M328 0h-154v750q0 188 -2 280h150q6 -87 6 -239q53 125 164.5 196.5t259.5 71.5v-154q-187 3 -305.5 -117t-118.5 -342v-446zM504 1217h-162l-266 331h151l197 -241l190 241h154z" />
    <glyph glyph-name="Sacute" unicode="&#x15a;" horiz-adv-x="1470" 
d="M1307 1102h-168q-12 39 -25.5 67.5t-44.5 65t-73.5 59.5t-114.5 39.5t-166 16.5q-172 0 -271.5 -60t-99.5 -178q0 -53 15 -89.5t57.5 -71.5t124.5 -61.5t209 -47.5q152 -25 262 -61t175.5 -76t103.5 -93t50.5 -103.5t12.5 -115.5q0 -87 -36 -161.5t-107 -134.5t-190 -94
t-273 -34q-286 0 -449 120t-201 331h170q95 -314 488 -314q216 0 321 76t105 195q0 62 -20 107t-71.5 85.5t-147 71.5t-241.5 55q-155 27 -259.5 64.5t-162.5 88.5t-82 110t-24 137q0 121 71.5 211t194 136t277.5 46q134 0 239.5 -27.5t167 -67.5t103.5 -95.5t58 -101.5
t22 -95zM602 1616l348 285h219l-395 -285h-172z" />
    <glyph glyph-name="sacute" unicode="&#x15b;" horiz-adv-x="1130" 
d="M1001 754h-155q-6 25 -14.5 45t-30.5 47t-53 45t-86.5 30.5t-126.5 12.5q-75 0 -128.5 -15t-79.5 -40t-37 -50t-11 -53q0 -46 23 -75.5t90 -54t188 -40.5q138 -18 230.5 -47.5t140.5 -71.5t66.5 -88.5t18.5 -109.5q0 -145 -115.5 -231.5t-345.5 -86.5q-223 0 -348.5 88.5
t-154.5 251.5h157q61 -215 355 -215q153 0 224 49.5t71 133.5q0 38 -13 65.5t-48 53.5t-102 44t-169 29q-102 13 -179 35t-123.5 49t-75 62.5t-38.5 70t-10 76.5q0 40 13 79.5t44.5 79t79 69.5t121.5 48.5t166 18.5q102 0 183 -21t129.5 -52.5t81.5 -74t46 -80.5t16 -77z
M430 1235l285 330h192l-323 -330h-154z" />
    <glyph glyph-name="Scircumflex" unicode="&#x15c;" horiz-adv-x="1470" 
d="M1307 1102h-168q-12 39 -25.5 67.5t-44.5 65t-73.5 59.5t-114.5 39.5t-166 16.5q-172 0 -271.5 -60t-99.5 -178q0 -53 15 -89.5t57.5 -71.5t124.5 -61.5t209 -47.5q152 -25 262 -61t175.5 -76t103.5 -93t50.5 -103.5t12.5 -115.5q0 -87 -36 -161.5t-107 -134.5t-190 -94
t-273 -34q-286 0 -449 120t-201 331h170q95 -314 488 -314q216 0 321 76t105 195q0 62 -20 107t-71.5 85.5t-147 71.5t-241.5 55q-155 27 -259.5 64.5t-162.5 88.5t-82 110t-24 137q0 121 71.5 211t194 136t277.5 46q134 0 239.5 -27.5t167 -67.5t103.5 -95.5t58 -101.5
t22 -95zM332 1602l303 280h192l308 -280h-179l-227 196l-223 -196h-174z" />
    <glyph glyph-name="scircumflex" unicode="&#x15d;" horiz-adv-x="1130" 
d="M1001 754h-155q-6 25 -14.5 45t-30.5 47t-53 45t-86.5 30.5t-126.5 12.5q-75 0 -128.5 -15t-79.5 -40t-37 -50t-11 -53q0 -46 23 -75.5t90 -54t188 -40.5q138 -18 230.5 -47.5t140.5 -71.5t66.5 -88.5t18.5 -109.5q0 -145 -115.5 -231.5t-345.5 -86.5q-223 0 -348.5 88.5
t-154.5 251.5h157q61 -215 355 -215q153 0 224 49.5t71 133.5q0 38 -13 65.5t-48 53.5t-102 44t-169 29q-102 13 -179 35t-123.5 49t-75 62.5t-38.5 70t-10 76.5q0 40 13 79.5t44.5 79t79 69.5t121.5 48.5t166 18.5q102 0 183 -21t129.5 -52.5t81.5 -74t46 -80.5t16 -77z
M217 1233l264 332h162l266 -332h-153l-195 242l-190 -242h-154z" />
    <glyph glyph-name="uni015E" unicode="&#x15e;" horiz-adv-x="1470" 
d="M524 -487l2 108q98 -20 154 -20q74 0 114 22t40 62q0 25 -15.5 43.5t-39 29t-62 16.5t-72.5 8t-82 3v51l115 135q-254 15 -398.5 133t-181.5 316h170q95 -314 488 -314q216 0 321 76t105 195q0 62 -20 107t-71.5 85.5t-147 71.5t-241.5 55q-155 27 -259.5 64.5
t-162.5 88.5t-82 110t-24 137q0 121 71.5 211t194 136t277.5 46q134 0 239.5 -27.5t167 -67.5t103.5 -95.5t58 -101.5t22 -95h-168q-12 39 -25.5 67.5t-44.5 65t-73.5 59.5t-114.5 39.5t-166 16.5q-172 0 -271.5 -60t-99.5 -178q0 -53 15 -89.5t57.5 -71.5t124.5 -61.5
t209 -47.5q152 -25 262 -61t175.5 -76t103.5 -93t50.5 -103.5t12.5 -115.5q0 -82 -32.5 -153.5t-96.5 -130t-171 -95t-245 -43.5l-72 -88q41 -5 78 -16.5t75 -32.5t60.5 -57.5t22.5 -83.5q0 -60 -26.5 -102.5t-71 -63.5t-88.5 -30t-93 -9q-88 0 -170 25z" />
    <glyph glyph-name="uni015F" unicode="&#x15f;" horiz-adv-x="1130" 
d="M354 -487l2 108q98 -20 154 -20q74 0 114 22t40 62q0 25 -15.5 43.5t-39 29t-62 16.5t-72.5 8t-82 3v51l117 137q-193 13 -302 100.5t-136 237.5h157q61 -215 355 -215q153 0 224 49.5t71 133.5q0 38 -13 65.5t-48 53.5t-102 44t-169 29q-102 13 -179 35t-123.5 49
t-75 62.5t-38.5 70t-10 76.5q0 40 13 79.5t44.5 79t79 69.5t121.5 48.5t166 18.5q102 0 183 -21t129.5 -52.5t81.5 -74t46 -80.5t16 -77h-155q-6 25 -14.5 45t-30.5 47t-53 45t-86.5 30.5t-126.5 12.5q-75 0 -128.5 -15t-79.5 -40t-37 -50t-11 -53q0 -46 23 -75.5t90 -54
t188 -40.5q138 -18 230.5 -47.5t140.5 -71.5t66.5 -88.5t18.5 -109.5q0 -135 -98.5 -219.5t-296.5 -96.5l-74 -90q41 -5 78 -16.5t75 -32.5t60.5 -57.5t22.5 -83.5q0 -60 -26.5 -102.5t-71 -63.5t-88.5 -30t-93 -9q-88 0 -170 25z" />
    <glyph glyph-name="Scaron" unicode="&#x160;" horiz-adv-x="1470" 
d="M1307 1102h-168q-12 39 -25.5 67.5t-44.5 65t-73.5 59.5t-114.5 39.5t-166 16.5q-172 0 -271.5 -60t-99.5 -178q0 -53 15 -89.5t57.5 -71.5t124.5 -61.5t209 -47.5q152 -25 262 -61t175.5 -76t103.5 -93t50.5 -103.5t12.5 -115.5q0 -87 -36 -161.5t-107 -134.5t-190 -94
t-273 -34q-286 0 -449 120t-201 331h170q95 -314 488 -314q216 0 321 76t105 195q0 62 -20 107t-71.5 85.5t-147 71.5t-241.5 55q-155 27 -259.5 64.5t-162.5 88.5t-82 110t-24 137q0 121 71.5 211t194 136t277.5 46q134 0 239.5 -27.5t167 -67.5t103.5 -95.5t58 -101.5
t22 -95zM332 1907h178l227 -199l224 199h174l-304 -281h-192z" />
    <glyph glyph-name="scaron" unicode="&#x161;" horiz-adv-x="1130" 
d="M1001 754h-155q-6 25 -14.5 45t-30.5 47t-53 45t-86.5 30.5t-126.5 12.5q-75 0 -128.5 -15t-79.5 -40t-37 -50t-11 -53q0 -46 23 -75.5t90 -54t188 -40.5q138 -18 230.5 -47.5t140.5 -71.5t66.5 -88.5t18.5 -109.5q0 -145 -115.5 -231.5t-345.5 -86.5q-223 0 -348.5 88.5
t-154.5 251.5h157q61 -215 355 -215q153 0 224 49.5t71 133.5q0 38 -13 65.5t-48 53.5t-102 44t-169 29q-102 13 -179 35t-123.5 49t-75 62.5t-38.5 70t-10 76.5q0 40 13 79.5t44.5 79t79 69.5t121.5 48.5t166 18.5q102 0 183 -21t129.5 -52.5t81.5 -74t46 -80.5t16 -77z
M645 1217h-162l-266 331h152l196 -241l191 241h153z" />
    <glyph glyph-name="uni0162" unicode="&#x162;" horiz-adv-x="1343" 
d="M438 -487l2 108q98 -20 154 -20q74 0 114 22t40 62q0 25 -15.5 43.5t-39 29t-62 16.5t-72.5 8t-82 3v51l139 164h-26v1315h-570v143h1303v-143h-567v-1315h-8l-97 -117q41 -5 78 -16.5t75 -32.5t60.5 -57.5t22.5 -83.5q0 -60 -26.5 -102.5t-71 -63.5t-88.5 -30t-93 -9
q-88 0 -170 25z" />
    <glyph glyph-name="uni0163" unicode="&#x163;" horiz-adv-x="731" 
d="M219 -475l2 108q98 -20 154 -20q74 0 113.5 22t39.5 62q0 26 -15.5 44t-38.5 28.5t-61.5 16.5t-72.5 8t-82 3v51l131 156q-79 24 -112 92t-33 189v618h-211v127h211v340h153v-340h279v-127h-279v-602q0 -98 33 -141t117 -43q67 0 106 10v-119q-51 -18 -143 -18l-78 -94
q41 -5 78.5 -16.5t75 -33t60 -58t22.5 -83.5q0 -60 -26.5 -102.5t-71 -63.5t-88.5 -30t-93 -9q-87 0 -170 25z" />
    <glyph glyph-name="Tcaron" unicode="&#x164;" horiz-adv-x="1343" 
d="M756 0h-166v1315h-570v143h1303v-143h-567v-1315zM270 1866h179l227 -199l223 199h174l-303 -281h-192z" />
    <glyph glyph-name="tcaron" unicode="&#x165;" horiz-adv-x="731" 
d="M700 1219h-104l-12 426h137zM244 285v618h-211v127h211v340h153v-340h279v-127h-279v-602q0 -98 33 -141t117 -43q67 0 106 10v-119q-51 -18 -145 -18q-148 0 -206 69t-58 226z" />
    <glyph glyph-name="Utilde" unicode="&#x168;" horiz-adv-x="1660" 
d="M199 616v842h163v-829q0 -117 27.5 -208t72.5 -148t108 -94t128.5 -51.5t139.5 -14.5q226 0 343 121.5t117 394.5v829h164v-823q0 -666 -631 -666q-146 0 -260.5 37.5t-198.5 114.5t-128.5 202t-44.5 293zM575 1610h-118v43q0 211 180 211q46 0 103 -19.5t101.5 -43
t92.5 -43t78 -19.5q38 0 54.5 22.5t16.5 83.5v25h117v-41q0 -119 -45.5 -170t-128.5 -51q-47 0 -103.5 20t-100.5 44.5t-94 44.5t-85 20q-32 0 -50 -24.5t-18 -70.5v-32z" />
    <glyph glyph-name="utilde" unicode="&#x169;" horiz-adv-x="1265" 
d="M172 389v641h156v-612q0 -50 8 -93.5t27.5 -84t49 -69t75.5 -45.5t104 -17q180 0 263 109.5t83 348.5v463h154v-729q0 -201 2 -301h-148q-8 58 -8 190q-42 -105 -129.5 -162t-247.5 -57q-176 0 -282.5 102t-106.5 316zM408 1262h-113v43q0 206 170 206q44 0 93 -18.5
t84 -41.5t75.5 -41.5t70.5 -18.5q36 0 52 21.5t16 80.5v27h111v-43q0 -215 -170 -215q-44 0 -91.5 19t-81.5 42t-76.5 42t-76.5 19q-63 0 -63 -84v-38z" />
    <glyph glyph-name="Umacron" unicode="&#x16a;" horiz-adv-x="1660" 
d="M199 616v842h163v-829q0 -117 27.5 -208t72.5 -148t108 -94t128.5 -51.5t139.5 -14.5q226 0 343 121.5t117 394.5v829h164v-823q0 -666 -631 -666q-146 0 -260.5 37.5t-198.5 114.5t-128.5 202t-44.5 293zM506 1657v125h645v-125h-645z" />
    <glyph glyph-name="umacron" unicode="&#x16b;" horiz-adv-x="1265" 
d="M172 389v641h156v-612q0 -50 8 -93.5t27.5 -84t49 -69t75.5 -45.5t104 -17q180 0 263 109.5t83 348.5v463h154v-729q0 -201 2 -301h-148q-8 58 -8 190q-42 -105 -129.5 -162t-247.5 -57q-176 0 -282.5 102t-106.5 316zM328 1339v129h604v-129h-604z" />
    <glyph glyph-name="Ubreve" unicode="&#x16c;" horiz-adv-x="1660" 
d="M199 616v842h163v-829q0 -117 27.5 -208t72.5 -148t108 -94t128.5 -51.5t139.5 -14.5q226 0 343 121.5t117 394.5v829h164v-823q0 -666 -631 -666q-146 0 -260.5 37.5t-198.5 114.5t-128.5 202t-44.5 293zM1044 1862h121q-20 -119 -107.5 -194t-228.5 -75q-80 0 -144 24
t-103 63.5t-61 85.5t-27 96h124q15 -64 72 -105t139 -41q171 0 215 146z" />
    <glyph glyph-name="ubreve" unicode="&#x16d;" horiz-adv-x="1265" 
d="M172 389v641h156v-612q0 -50 8 -93.5t27.5 -84t49 -69t75.5 -45.5t104 -17q180 0 263 109.5t83 348.5v463h154v-729q0 -201 2 -301h-148q-8 58 -8 190q-42 -105 -129.5 -162t-247.5 -57q-176 0 -282.5 102t-106.5 316zM831 1534h119q-18 -135 -101 -219t-220 -84
q-78 0 -139 25.5t-98 69t-57 96t-24 112.5h119q16 -80 66.5 -128t132.5 -48q51 0 88.5 15t59.5 42.5t33.5 54.5t20.5 64z" />
    <glyph glyph-name="Uring" unicode="&#x16e;" horiz-adv-x="1660" 
d="M199 616v842h163v-829q0 -117 27.5 -208t72.5 -148t108 -94t128.5 -51.5t139.5 -14.5q226 0 343 121.5t117 394.5v829h164v-823q0 -666 -631 -666q-146 0 -260.5 37.5t-198.5 114.5t-128.5 202t-44.5 293zM608 1778q0 90 58.5 151.5t160.5 61.5q104 0 163 -59.5
t59 -149.5q0 -92 -59.5 -151.5t-160.5 -59.5q-102 0 -161.5 59.5t-59.5 147.5zM829 1661q55 0 86 35t31 84t-30.5 85t-86.5 36t-86 -34.5t-30 -82.5q0 -52 29 -87.5t87 -35.5z" />
    <glyph glyph-name="uring" unicode="&#x16f;" horiz-adv-x="1265" 
d="M172 389v641h156v-612q0 -50 8 -93.5t27.5 -84t49 -69t75.5 -45.5t104 -17q180 0 263 109.5t83 348.5v463h154v-729q0 -201 2 -301h-148q-8 58 -8 190q-42 -105 -129.5 -162t-247.5 -57q-176 0 -282.5 102t-106.5 316zM410 1382q0 90 58.5 151.5t160.5 61.5
q104 0 162.5 -59.5t58.5 -149.5q0 -92 -59 -151t-160 -59q-102 0 -161.5 59t-59.5 147zM631 1266q56 0 86.5 34.5t30.5 83.5t-30.5 85t-86.5 36q-57 0 -87 -34t-30 -82q0 -52 29.5 -87.5t87.5 -35.5z" />
    <glyph glyph-name="Uhungarumlaut" unicode="&#x170;" horiz-adv-x="1660" 
d="M530 1604l252 280h179l-277 -280h-154zM922 1604l252 280h178l-277 -280h-153zM199 616v842h163v-829q0 -117 27.5 -208t72.5 -148t108 -94t128.5 -51.5t139.5 -14.5q226 0 343 121.5t117 394.5v829h164v-823q0 -666 -631 -666q-146 0 -260.5 37.5t-198.5 114.5
t-128.5 202t-44.5 293z" />
    <glyph glyph-name="uhungarumlaut" unicode="&#x171;" horiz-adv-x="1265" 
d="M496 1196h-131l237 348h158zM856 1196h-131l238 348h157zM172 389v641h156v-612q0 -50 8 -93.5t27.5 -84t49 -69t75.5 -45.5t104 -17q180 0 263 109.5t83 348.5v463h154v-729q0 -201 2 -301h-148q-8 58 -8 190q-42 -105 -129.5 -162t-247.5 -57q-176 0 -282.5 102
t-106.5 316z" />
    <glyph glyph-name="Uogonek" unicode="&#x172;" horiz-adv-x="1660" 
d="M1081 2l4 -2q-139 -115 -139 -236q0 -60 37 -90t98 -30q75 0 129 22v-127q-55 -28 -161 -28q-121 0 -185.5 62t-64.5 165q0 118 96 233q-20 -2 -64 -2q-146 0 -260.5 37.5t-198.5 114.5t-128.5 202t-44.5 293v842h163v-829q0 -117 27.5 -208t72.5 -148t108 -94
t128.5 -51.5t139.5 -14.5q226 0 343 121.5t117 394.5v829h164v-823q0 -518 -381 -633z" />
    <glyph glyph-name="uogonek" unicode="&#x173;" horiz-adv-x="1265" 
d="M172 389v641h156v-612q0 -50 8 -93.5t27.5 -84t49 -69t75.5 -45.5t104 -17q180 0 263 109.5t83 348.5v463h154v-729q0 -201 2 -301h-15q-137 -116 -137 -233q0 -60 37.5 -90.5t97.5 -30.5q75 0 129 22v-127q-55 -28 -162 -28q-121 0 -185 62t-64 165q0 78 41.5 153.5
t107.5 133.5q-6 56 -6 163q-42 -105 -129.5 -162t-247.5 -57q-176 0 -282.5 102t-106.5 316z" />
    <glyph glyph-name="Wcircumflex" unicode="&#x174;" horiz-adv-x="2222" 
d="M690 0h-176l-463 1458h174q20 -66 78.5 -251.5t99 -317t89 -292.5t79 -272t39.5 -161h2q37 192 412 1294h168q98 -294 238 -742.5t161 -547.5h2q31 136 162 535.5t254 754.5h166l-498 -1458h-180q-361 1108 -397 1282h-2q-7 -35 -26 -102t-49 -163.5t-60 -189t-72 -221
t-70.5 -214.5t-71.5 -214t-59 -178zM709 1585l303 281h192l307 -281h-178l-227 197l-223 -197h-174z" />
    <glyph glyph-name="wcircumflex" unicode="&#x175;" horiz-adv-x="1726" 
d="M393 0l-348 1030h162q244 -749 276 -880h2q19 71 69.5 215t238.5 665h149q183 -513 234.5 -662t64.5 -206h2q41 162 285 868h155l-366 -1030h-158q-46 130 -121 340.5t-118.5 335.5t-59.5 176h-2q-54 -189 -299 -852h-166zM518 1233l264 332h162l266 -332h-153l-195 242
l-190 -242h-154z" />
    <glyph glyph-name="Ycircumflex" unicode="&#x176;" horiz-adv-x="1351" 
d="M760 0h-164v565q0 19 -14 33l-613 860h197q60 -86 189 -267t214.5 -303.5t114.5 -174.5q73 121 512 745h186l-612 -862q-10 -17 -10 -35v-561zM272 1585l303 281h193l307 -281h-178l-227 197l-224 -197h-174z" />
    <glyph glyph-name="ycircumflex" unicode="&#x177;" horiz-adv-x="1169" 
d="M98 -475v143q49 -8 117 -8q102 0 162.5 59t140.5 232l-483 1079h172q366 -835 395 -915h2q186 486 365 915h164l-422 -1005q-48 -115 -83.5 -190.5t-73 -136t-69 -93.5t-73 -54.5t-84 -28.5t-103.5 -7q-69 0 -127 10zM238 1233l264 332h162l266 -332h-154l-194 242
l-191 -242h-153z" />
    <glyph glyph-name="Ydieresis" unicode="&#x178;" horiz-adv-x="1351" 
d="M526 1626h-145v225h145v-225zM965 1626h-146v225h146v-225zM760 0h-164v565q0 19 -14 33l-613 860h197q60 -86 189 -267t214.5 -303.5t114.5 -174.5q73 121 512 745h186l-612 -862q-10 -17 -10 -35v-561z" />
    <glyph glyph-name="Zacute" unicode="&#x179;" horiz-adv-x="1396" 
d="M45 0v121l1057 1196h-1006v141h1225v-125l-1049 -1192h1096l-29 -141h-1294zM571 1599l349 285h219l-396 -285h-172z" />
    <glyph glyph-name="zacute" unicode="&#x17a;" horiz-adv-x="1097" 
d="M72 0v119l751 780h-708v131h911v-123l-745 -776h792l-31 -131h-970zM455 1235l284 330h193l-324 -330h-153z" />
    <glyph glyph-name="Zdotaccent" unicode="&#x17b;" horiz-adv-x="1396" 
d="M45 0v121l1057 1196h-1006v141h1225v-125l-1049 -1192h1096l-29 -141h-1294zM774 1626h-153v225h153v-225z" />
    <glyph glyph-name="zdotaccent" unicode="&#x17c;" horiz-adv-x="1097" 
d="M72 0v119l751 780h-708v131h911v-123l-745 -776h792l-31 -131h-970zM625 1319h-154v225h154v-225z" />
    <glyph glyph-name="Zcaron" unicode="&#x17d;" horiz-adv-x="1396" 
d="M45 0v121l1057 1196h-1006v141h1225v-125l-1049 -1192h1096l-29 -141h-1294zM297 1866h178l227 -199l224 199h174l-303 -281h-193z" />
    <glyph glyph-name="zcaron" unicode="&#x17e;" horiz-adv-x="1097" 
d="M72 0v119l751 780h-708v131h911v-123l-745 -776h792l-31 -131h-970zM647 1217h-162l-266 331h152l196 -241l191 241h153z" />
    <glyph glyph-name="uni018F" unicode="&#x18f;" horiz-adv-x="1607" 
d="M109 784h1214q-12 267 -159.5 417.5t-383.5 150.5q-347 0 -481 -277h-168q35 88 92 161t137 130.5t189.5 90t238.5 32.5q138 0 254 -40.5t197 -111t137.5 -166t83.5 -204.5t27 -228q0 -131 -28 -247t-85.5 -212t-140 -165t-196 -107t-249.5 -39q-311 -1 -497.5 198
t-186.5 531q0 14 5 86zM793 104q225 0 364 138t162 411h-1043q1 -134 43 -240.5t113.5 -173t163.5 -101t197 -34.5z" />
    <glyph glyph-name="florin" unicode="&#x192;" horiz-adv-x="1320" 
d="M104 -156l33 127q69 -34 162 -34q86 0 129.5 69.5t75.5 261.5l71 434h-221v129h242l22 134q11 72 25 128t41.5 118.5t64.5 103t95 67.5t131 27q129 0 190 -41l-32 -125q-73 33 -154 33q-48 0 -83 -21.5t-57.5 -64t-35.5 -89t-23 -112.5l-26 -158h276v-129h-297l-76 -446
q-13 -86 -28.5 -150.5t-43 -124.5t-64.5 -98.5t-92 -61t-126 -22.5q-123 0 -199 45z" />
    <glyph glyph-name="Ohorn" unicode="&#x1a0;" horiz-adv-x="1755" 
d="M1448 1649h147q15 -51 15 -113q0 -91 -47.5 -162t-141.5 -102q103 -105 159 -244.5t56 -294.5q0 -156 -52 -294t-147 -243t-239.5 -166t-318.5 -61q-170 0 -313.5 59.5t-240.5 163t-151.5 243.5t-54.5 300q0 152 55 289t152.5 240t241.5 164t313 61q244 0 430 -127
q157 29 157 170q0 65 -20 117zM883 113q137 0 248 48.5t182.5 133t110 195.5t38.5 239q0 120 -39.5 229.5t-112.5 196.5t-187.5 139t-254.5 52q-129 0 -238.5 -48.5t-182.5 -131.5t-113.5 -193t-40.5 -232q0 -124 39 -236t111.5 -200t186.5 -140t253 -52z" />
    <glyph glyph-name="ohorn" unicode="&#x1a1;" horiz-adv-x="1257" 
d="M1102 1225h147q15 -51 15 -113q0 -92 -50 -164.5t-149 -103.5q100 -142 100 -328q0 -107 -34 -203.5t-98.5 -173.5t-170 -122.5t-237.5 -45.5q-123 0 -225 44.5t-168.5 120t-103 173t-36.5 205.5q0 150 64.5 273.5t189.5 197.5t287 74q206 0 344 -119q145 34 145 168
q0 65 -20 117zM629 104q92 0 165.5 32.5t119 89.5t69 129.5t23.5 156.5q0 113 -44 206t-132 150.5t-205 57.5q-180 0 -277.5 -118t-97.5 -294q0 -78 25.5 -151.5t72.5 -131t120 -92.5t161 -35z" />
    <glyph glyph-name="Uhorn" unicode="&#x1af;" horiz-adv-x="1660" 
d="M199 616v842h163v-829q0 -117 27.5 -208t72.5 -148t108 -94t128.5 -51.5t139.5 -14.5q226 0 343 121.5t117 394.5v829h82q160 29 160 170q0 65 -20 117h147q14 -47 14 -113q0 -98 -55 -173t-164 -101v-723q0 -666 -631 -666q-146 0 -260.5 37.5t-198.5 114.5t-128.5 202
t-44.5 293z" />
    <glyph glyph-name="uhorn" unicode="&#x1b0;" horiz-adv-x="1265" 
d="M172 389v641h156v-612q0 -50 8 -93.5t27.5 -84t49 -69t75.5 -45.5t104 -17q180 0 263 109.5t83 348.5v463h68q190 19 190 174q0 65 -20 117h147q14 -47 14 -113q0 -104 -61.5 -181t-183.5 -99v-627q0 -201 2 -301h-148q-8 58 -8 190q-42 -105 -129.5 -162t-247.5 -57
q-176 0 -282.5 102t-106.5 316z" />
    <glyph glyph-name="uni01CD" unicode="&#x1cd;" horiz-adv-x="1556" 
d="M31 0l639 1458h192l662 -1458h-178l-216 473h-720l-205 -473h-174zM762 1333h-2q-47 -139 -293 -715h606q-276 612 -311 715zM365 1866h178l227 -199l223 199h174l-303 -281h-192z" />
    <glyph glyph-name="uni01CE" unicode="&#x1ce;" horiz-adv-x="1216" 
d="M309 731h-153q4 46 18 88t46 87t79.5 78t124.5 54t174 21q103 0 181.5 -20t127 -52t79.5 -78t42.5 -93t11.5 -101v-469q0 -177 11 -246h-148q-12 62 -12 162q-93 -191 -395 -191q-85 0 -154.5 20t-114 52.5t-75 76t-43.5 88.5t-13 93q0 334 531 334h262v61q0 50 -12.5 89
t-42.5 74.5t-90 55t-146 19.5q-77 0 -131.5 -16t-85.5 -46.5t-46.5 -63t-25.5 -77.5zM889 465v53h-258q-197 0 -289 -48t-92 -161q0 -91 68 -150t200 -59q371 0 371 365zM682 1217h-162l-266 331h152l196 -241l191 241h153z" />
    <glyph glyph-name="uni01CF" unicode="&#x1cf;" horiz-adv-x="583" 
d="M211 0v1458h164v-1458h-164zM-109 1866h179l227 -199l223 199h174l-303 -281h-192z" />
    <glyph glyph-name="uni01D0" unicode="&#x1d0;" horiz-adv-x="501" 
d="M328 0h-154v1030h154v-1030zM332 1217h-162l-266 331h151l197 -241l190 241h154z" />
    <glyph glyph-name="uni01D1" unicode="&#x1d1;" horiz-adv-x="1755" 
d="M879 -31q-170 0 -313.5 59.5t-240.5 163t-151.5 243.5t-54.5 300q0 152 55 289t152.5 240t241.5 164t313 61q166 0 309 -61t240 -164t151.5 -241t54.5 -290q0 -156 -52 -294t-147 -243t-239.5 -166t-318.5 -61zM883 113q137 0 248 48.5t182.5 133t110 195.5t38.5 239
q0 120 -39.5 229.5t-112.5 196.5t-187.5 139t-254.5 52q-129 0 -238.5 -48.5t-182.5 -131.5t-113.5 -193t-40.5 -232q0 -124 39 -236t111.5 -200t186.5 -140t253 -52zM457 1896h178l227 -198l223 198h175l-304 -280h-192z" />
    <glyph glyph-name="uni01D2" unicode="&#x1d2;" horiz-adv-x="1257" 
d="M625 -29q-123 0 -225 44.5t-168.5 120t-103 173t-36.5 205.5q0 150 64.5 273.5t189.5 197.5t287 74q125 0 227.5 -46t168 -122.5t101 -173t35.5 -201.5q0 -107 -34 -203.5t-98.5 -173.5t-170 -122.5t-237.5 -45.5zM629 104q92 0 165.5 32.5t119 89.5t69 129.5t23.5 156.5
q0 113 -44 206t-132 150.5t-205 57.5q-180 0 -277.5 -118t-97.5 -294q0 -78 25.5 -151.5t72.5 -131t120 -92.5t161 -35zM709 1217h-162l-266 331h151l197 -241l190 241h154z" />
    <glyph glyph-name="uni01D3" unicode="&#x1d3;" horiz-adv-x="1660" 
d="M199 616v842h163v-829q0 -117 27.5 -208t72.5 -148t108 -94t128.5 -51.5t139.5 -14.5q226 0 343 121.5t117 394.5v829h164v-823q0 -666 -631 -666q-146 0 -260.5 37.5t-198.5 114.5t-128.5 202t-44.5 293zM428 1866h178l228 -199l223 199h174l-303 -281h-193z" />
    <glyph glyph-name="uni01D4" unicode="&#x1d4;" horiz-adv-x="1265" 
d="M172 389v641h156v-612q0 -50 8 -93.5t27.5 -84t49 -69t75.5 -45.5t104 -17q180 0 263 109.5t83 348.5v463h154v-729q0 -201 2 -301h-148q-8 58 -8 190q-42 -105 -129.5 -162t-247.5 -57q-176 0 -282.5 102t-106.5 316zM713 1217h-162l-266 331h151l197 -241l190 241h154z
" />
    <glyph glyph-name="uni01D5" unicode="&#x1d5;" horiz-adv-x="1660" 
d="M670 1595h-142v187h142v-187zM1130 1917h-604v121h604v-121zM1130 1595h-141v187h141v-187zM199 616v842h163v-829q0 -117 27.5 -208t72.5 -148t108 -94t128.5 -51.5t139.5 -14.5q226 0 343 121.5t117 394.5v829h164v-823q0 -666 -631 -666q-146 0 -260.5 37.5
t-198.5 114.5t-128.5 202t-44.5 293z" />
    <glyph glyph-name="uni01D6" unicode="&#x1d6;" horiz-adv-x="1265" 
d="M492 1178h-142v186h142v-186zM895 1485h-539v121h539v-121zM911 1178h-141v186h141v-186zM172 389v641h156v-612q0 -50 8 -93.5t27.5 -84t49 -69t75.5 -45.5t104 -17q180 0 263 109.5t83 348.5v463h154v-729q0 -201 2 -301h-148q-8 58 -8 190q-42 -105 -129.5 -162
t-247.5 -57q-176 0 -282.5 102t-106.5 316z" />
    <glyph glyph-name="uni01D7" unicode="&#x1d7;" horiz-adv-x="1660" 
d="M528 1595v187h142v-187h-142zM899 1870h-166l291 246h201zM1130 1595h-141v187h141v-187zM199 616v842h163v-829q0 -117 27.5 -208t72.5 -148t108 -94t128.5 -51.5t139.5 -14.5q226 0 343 121.5t117 394.5v829h164v-823q0 -666 -631 -666q-146 0 -260.5 37.5
t-198.5 114.5t-128.5 202t-44.5 293z" />
    <glyph glyph-name="uni01D8" unicode="&#x1d8;" horiz-adv-x="1265" 
d="M350 1178v186h142v-186h-142zM684 1456h-149l233 281h184zM911 1178h-141v186h141v-186zM172 389v641h156v-612q0 -50 8 -93.5t27.5 -84t49 -69t75.5 -45.5t104 -17q180 0 263 109.5t83 348.5v463h154v-729q0 -201 2 -301h-148q-8 58 -8 190q-42 -105 -129.5 -162
t-247.5 -57q-176 0 -282.5 102t-106.5 316z" />
    <glyph glyph-name="uni01D9" unicode="&#x1d9;" horiz-adv-x="1660" 
d="M670 1595h-142v187h142v-187zM492 2079h163l176 -150l177 150h157l-258 -230h-153zM1130 1595h-141v187h141v-187zM199 616v842h163v-829q0 -117 27.5 -208t72.5 -148t108 -94t128.5 -51.5t139.5 -14.5q226 0 343 121.5t117 394.5v829h164v-823q0 -666 -631 -666
q-146 0 -260.5 37.5t-198.5 114.5t-128.5 202t-44.5 293z" />
    <glyph glyph-name="uni01DA" unicode="&#x1da;" horiz-adv-x="1265" 
d="M502 1178h-133v170h133v-170zM705 1413h-146l-223 248h145l152 -168l151 168h142zM893 1178h-133v170h133v-170zM172 389v641h156v-612q0 -50 8 -93.5t27.5 -84t49 -69t75.5 -45.5t104 -17q180 0 263 109.5t83 348.5v463h154v-729q0 -201 2 -301h-148q-8 58 -8 190
q-42 -105 -129.5 -162t-247.5 -57q-176 0 -282.5 102t-106.5 316z" />
    <glyph glyph-name="uni01DB" unicode="&#x1db;" horiz-adv-x="1660" 
d="M528 1595v187h142v-187h-142zM451 2116h200l291 -246h-174zM1130 1595h-141v187h141v-187zM199 616v842h163v-829q0 -117 27.5 -208t72.5 -148t108 -94t128.5 -51.5t139.5 -14.5q226 0 343 121.5t117 394.5v829h164v-823q0 -666 -631 -666q-146 0 -260.5 37.5
t-198.5 114.5t-128.5 202t-44.5 293z" />
    <glyph glyph-name="uni01DC" unicode="&#x1dc;" horiz-adv-x="1265" 
d="M350 1178v186h142v-186h-142zM582 1452l-267 283h183l233 -283h-149zM911 1178h-141v186h141v-186zM172 389v641h156v-612q0 -50 8 -93.5t27.5 -84t49 -69t75.5 -45.5t104 -17q180 0 263 109.5t83 348.5v463h154v-729q0 -201 2 -301h-148q-8 58 -8 190
q-42 -105 -129.5 -162t-247.5 -57q-176 0 -282.5 102t-106.5 316z" />
    <glyph glyph-name="Gcaron" unicode="&#x1e6;" horiz-adv-x="1720" 
d="M885 643v143h663v-786h-129q-14 86 -14 236q-76 -134 -204.5 -200.5t-338.5 -66.5q-342 0 -542.5 205.5t-200.5 552.5q0 161 54 300.5t152 242t244 161t320 58.5q124 0 228 -24t176 -64t127.5 -96.5t87.5 -116t51 -127.5h-173q-117 287 -499 287q-186 0 -322.5 -82.5
t-204 -220t-67.5 -310.5q0 -180 68 -320.5t202.5 -222t317.5 -81.5q243 0 376.5 123.5t133.5 359.5v49h-506zM453 1882h178l227 -199l223 199h174l-303 -280h-192z" />
    <glyph glyph-name="gcaron" unicode="&#x1e7;" horiz-adv-x="1308" 
d="M102 -135h158q13 -47 36 -84t61.5 -69t100.5 -49t144 -17q96 0 165 25t110 66t65 106.5t31.5 132.5t7.5 159v60q-102 -213 -401 -213q-215 0 -352.5 148.5t-137.5 371.5q0 122 42 227.5t113 177t164 112t195 40.5q86 0 155.5 -18.5t112.5 -49.5t69 -63t40 -68
q0 126 6 170h148q-2 -98 -2 -297v-592q0 -123 -15.5 -216.5t-53 -173t-98.5 -130t-154 -78.5t-218 -28q-80 0 -148.5 13t-116.5 34.5t-86.5 52t-62 61t-41 66.5t-25.5 64.5t-12 58.5zM616 119q173 0 271 105t98 298q0 194 -94 298t-264 104q-94 0 -168 -36t-118.5 -96
t-67.5 -132t-23 -150q0 -173 103 -282t263 -109zM735 1217h-162l-266 331h152l196 -241l191 241h153z" />
    <glyph glyph-name="uni0218" unicode="&#x218;" horiz-adv-x="1470" 
d="M1307 1102h-168q-12 39 -25.5 67.5t-44.5 65t-73.5 59.5t-114.5 39.5t-166 16.5q-172 0 -271.5 -60t-99.5 -178q0 -53 15 -89.5t57.5 -71.5t124.5 -61.5t209 -47.5q152 -25 262 -61t175.5 -76t103.5 -93t50.5 -103.5t12.5 -115.5q0 -87 -36 -161.5t-107 -134.5t-190 -94
t-273 -34q-286 0 -449 120t-201 331h170q95 -314 488 -314q216 0 321 76t105 195q0 62 -20 107t-71.5 85.5t-147 71.5t-241.5 55q-155 27 -259.5 64.5t-162.5 88.5t-82 110t-24 137q0 121 71.5 211t194 136t277.5 46q134 0 239.5 -27.5t167 -67.5t103.5 -95.5t58 -101.5
t22 -95zM711 -154h143q0 -95 -28.5 -211t-75.5 -180h-140q101 195 101 391z" />
    <glyph glyph-name="uni0219" unicode="&#x219;" horiz-adv-x="1130" 
d="M1001 754h-155q-6 25 -14.5 45t-30.5 47t-53 45t-86.5 30.5t-126.5 12.5q-75 0 -128.5 -15t-79.5 -40t-37 -50t-11 -53q0 -46 23 -75.5t90 -54t188 -40.5q138 -18 230.5 -47.5t140.5 -71.5t66.5 -88.5t18.5 -109.5q0 -145 -115.5 -231.5t-345.5 -86.5q-223 0 -348.5 88.5
t-154.5 251.5h157q61 -215 355 -215q153 0 224 49.5t71 133.5q0 38 -13 65.5t-48 53.5t-102 44t-169 29q-102 13 -179 35t-123.5 49t-75 62.5t-38.5 70t-10 76.5q0 40 13 79.5t44.5 79t79 69.5t121.5 48.5t166 18.5q102 0 183 -21t129.5 -52.5t81.5 -74t46 -80.5t16 -77z
M508 -154h143q0 -95 -28.5 -211t-75.5 -180h-139q100 193 100 391z" />
    <glyph glyph-name="uni021A" unicode="&#x21a;" horiz-adv-x="1343" 
d="M756 0h-166v1315h-570v143h1303v-143h-567v-1315zM600 -154h143q0 -95 -28.5 -211t-75.5 -180h-139q100 193 100 391z" />
    <glyph glyph-name="uni021B" unicode="&#x21b;" horiz-adv-x="731" 
d="M244 285v618h-211v127h211v340h153v-340h279v-127h-279v-602q0 -98 33 -141t117 -43q67 0 106 10v-119q-51 -18 -145 -18q-148 0 -206 69t-58 226zM342 -154h143q0 -95 -28.5 -211t-75.5 -180h-139q100 193 100 391z" />
    <glyph glyph-name="uni0237" unicode="&#x237;" horiz-adv-x="514" 
d="M-31 -485v131h21q111 0 153.5 64.5t42.5 199.5v1120h156v-1091q0 -78 -7.5 -136.5t-30 -115t-60.5 -92.5t-102 -58t-152 -22h-21z" />
    <glyph glyph-name="uni0251" unicode="&#x251;" horiz-adv-x="1306" 
d="M1143 0h-144q-12 44 -12 174q-104 -203 -399 -203q-146 0 -259.5 69.5t-175 191t-61.5 274.5q0 127 43 233t115 175t165.5 107t196.5 38q258 0 367 -174v145h156v-766q0 -190 8 -264zM612 106q194 0 284.5 111t90.5 303q0 86 -20 157t-62 127.5t-113.5 88t-166.5 31.5
q-121 0 -208 -60t-127 -152t-40 -202q0 -60 14.5 -117.5t44.5 -109.5t72.5 -91.5t102 -62.5t128.5 -23z" />
    <glyph glyph-name="uni0259" unicode="&#x259;" horiz-adv-x="1212" 
d="M80 508v43h883q-9 167 -113 272t-270 105q-232 0 -330 -185h-156q17 46 43 88.5t69 85t96 73.5t128 50t162 19q128 0 230.5 -45.5t166 -122.5t96.5 -172.5t33 -200.5q0 -239 -145 -393t-375 -154q-112 0 -202 32.5t-148 85t-96.5 123.5t-55 144.5t-16.5 151.5zM958 430
h-714q3 -45 13.5 -87t36 -88t63.5 -79.5t101 -55.5t142 -22q160 0 251 91.5t107 240.5z" />
    <glyph glyph-name="uni0261" unicode="&#x261;" horiz-adv-x="1308" 
d="M102 -135h158q13 -47 36 -84t61.5 -69t100.5 -49t144 -17q96 0 165 25t110 66t65 106.5t31.5 132.5t7.5 159v60q-102 -213 -401 -213q-215 0 -352.5 148.5t-137.5 371.5q0 122 42 227.5t113 177t164 112t195 40.5q86 0 155.5 -18.5t112.5 -49.5t69 -63t40 -68
q0 126 6 170h148q-2 -98 -2 -297v-592q0 -123 -15.5 -216.5t-53 -173t-98.5 -130t-154 -78.5t-218 -28q-80 0 -148.5 13t-116.5 34.5t-86.5 52t-62 61t-41 66.5t-25.5 64.5t-12 58.5zM616 119q173 0 271 105t98 298q0 194 -94 298t-264 104q-94 0 -168 -36t-118.5 -96
t-67.5 -132t-23 -150q0 -173 103 -282t263 -109z" />
    <glyph glyph-name="uni02BB" unicode="&#x2bb;" horiz-adv-x="677" 
d="M365 958h-160q7 116 50 296.5t87 289.5h131q-41 -132 -71 -290.5t-37 -295.5z" />
    <glyph glyph-name="uni02BC" unicode="&#x2bc;" horiz-adv-x="677" 
d="M313 1544h160q-7 -117 -49.5 -298.5t-87.5 -289.5h-131q41 134 71 292.5t37 295.5z" />
    <glyph glyph-name="uni02BE" unicode="&#x2be;" horiz-adv-x="649" 
d="M205 1128v107q53 3 85 31t32 80q0 49 -32.5 75t-84.5 31v107q102 0 170.5 -59.5t68.5 -151.5q0 -94 -69 -157t-170 -63z" />
    <glyph glyph-name="uni02BF" unicode="&#x2bf;" horiz-adv-x="649" 
d="M444 1556v-106q-53 -3 -84.5 -32t-31.5 -81q0 -91 116 -106v-105q-102 0 -170.5 59.5t-68.5 151.5q0 94 69 156.5t170 62.5z" />
    <glyph glyph-name="circumflex" unicode="&#x2c6;" 
d="M63 1233l265 332h161l267 -332h-154l-194 242l-191 -242h-154z" />
    <glyph glyph-name="caron" unicode="&#x2c7;" 
d="M492 1217h-162l-267 331h152l197 -241l190 241h154z" />
    <glyph glyph-name="uni02C8" unicode="&#x2c8;" horiz-adv-x="552" 
d="M348 1147h-143v385h143v-385z" />
    <glyph glyph-name="uni02C9" unicode="&#x2c9;" horiz-adv-x="1011" 
d="M205 1339v129h604v-129h-604z" />
    <glyph glyph-name="uni02CA" unicode="&#x2ca;" horiz-adv-x="876" 
d="M211 1235l285 330h192l-323 -330h-154z" />
    <glyph glyph-name="uni02CB" unicode="&#x2cb;" horiz-adv-x="876" 
d="M510 1235l-326 330h191l291 -330h-156z" />
    <glyph glyph-name="uni02CC" unicode="&#x2cc;" horiz-adv-x="552" 
d="M348 -492h-143v386h143v-386z" />
    <glyph glyph-name="breve" unicode="&#x2d8;" 
d="M610 1534h119q-18 -135 -101 -219t-220 -84q-78 0 -139 25.5t-98 69t-57 96t-24 112.5h119q16 -80 66.5 -128t132.5 -48q51 0 88.5 15t59.5 42.5t33.5 54.5t20.5 64z" />
    <glyph glyph-name="dotaccent" unicode="&#x2d9;" 
d="M485 1319h-153v225h153v-225z" />
    <glyph glyph-name="ring" unicode="&#x2da;" 
d="M188 1382q0 90 59 151.5t161 61.5q104 0 162.5 -59.5t58.5 -149.5q0 -92 -59.5 -151t-159.5 -59q-102 0 -162 59t-60 147zM410 1266q55 0 85.5 34.5t30.5 83.5t-30 85t-86 36q-57 0 -87 -34t-30 -82q0 -52 29.5 -87.5t87.5 -35.5z" />
    <glyph glyph-name="ogonek" unicode="&#x2db;" 
d="M700 -334v-127q-55 -28 -161 -28q-121 0 -185.5 62t-64.5 165q0 85 49 167t123 138l114 -43q-139 -115 -139 -236q0 -60 37 -90t98 -30q75 0 129 22z" />
    <glyph glyph-name="tilde" unicode="&#x2dc;" 
d="M186 1262h-112v43q0 206 170 206q44 0 93 -18.5t84 -41.5t75.5 -41.5t70.5 -18.5q36 0 52 21.5t16 80.5v27h110v-43q0 -215 -170 -215q-55 0 -114.5 30.5t-113.5 61t-97 30.5q-64 0 -64 -84v-38z" />
    <glyph glyph-name="hungarumlaut" unicode="&#x2dd;" 
d="M274 1196h-131l238 348h158zM635 1196h-131l237 348h158z" />
    <glyph glyph-name="uni0300" unicode="&#x300;" horiz-adv-x="0" 
d="M80 1235l-326 330h191l291 -330h-156z" />
    <glyph glyph-name="uni0301" unicode="&#x301;" horiz-adv-x="0" 
d="M-236 1235l285 330h193l-324 -330h-154z" />
    <glyph glyph-name="uni0302" unicode="&#x302;" horiz-adv-x="0" 
d="M-346 1233l264 332h162l266 -332h-153l-195 242l-191 -242h-153z" />
    <glyph glyph-name="uni0303" unicode="&#x303;" horiz-adv-x="0" 
d="M-223 1262h-113v43q0 206 170 206q44 0 93 -18.5t84.5 -41.5t76 -41.5t70.5 -18.5q36 0 51.5 21.5t15.5 80.5v27h111v-43q0 -215 -170 -215q-44 0 -91.5 19t-81.5 42t-76.5 42t-76.5 19q-63 0 -63 -84v-38z" />
    <glyph glyph-name="uni0304" unicode="&#x304;" horiz-adv-x="0" 
d="M-303 1339v129h604v-129h-604z" />
    <glyph glyph-name="uni0306" unicode="&#x306;" horiz-adv-x="0" 
d="M201 1534h118q-18 -135 -101 -219t-220 -84q-78 0 -139 25.5t-97.5 69t-56.5 96t-24 112.5h118q16 -80 66.5 -128t132.5 -48q51 0 88.5 15t59.5 42.5t34 54.5t21 64z" />
    <glyph glyph-name="uni0307" unicode="&#x307;" horiz-adv-x="0" 
d="M76 1319h-154v225h154v-225z" />
    <glyph glyph-name="uni0308" unicode="&#x308;" horiz-adv-x="0" 
d="M-129 1319h-145v225h145v-225zM274 1319h-145v225h145v-225z" />
    <glyph glyph-name="uni0309" unicode="&#x309;" horiz-adv-x="0" 
d="M-170 1432l-37 94q80 59 199 59q96 0 149.5 -49t53.5 -129q0 -45 -21.5 -88.5t-42 -66t-55.5 -54.5h-152q68 57 100.5 101t32.5 87q0 37 -23 59.5t-71 22.5q-78 0 -133 -36z" />
    <glyph glyph-name="uni030A" unicode="&#x30a;" horiz-adv-x="0" 
d="M-221 1382q0 90 58.5 151.5t160.5 61.5q104 0 162.5 -59.5t58.5 -149.5q0 -92 -59.5 -151t-159.5 -59q-102 0 -161.5 59t-59.5 147zM0 1266q56 0 86.5 34.5t30.5 83.5t-30.5 85t-86.5 36q-57 0 -87 -34t-30 -82q0 -52 29.5 -87.5t87.5 -35.5z" />
    <glyph glyph-name="uni030B" unicode="&#x30b;" horiz-adv-x="0" 
d="M-238 1196h-131l238 348h158zM123 1196h-131l237 348h158z" />
    <glyph glyph-name="uni030C" unicode="&#x30c;" horiz-adv-x="0" 
d="M82 1217h-162l-266 331h151l197 -241l191 241h153z" />
    <glyph glyph-name="uni031B" unicode="&#x31b;" horiz-adv-x="0" 
d="M37 1331h147q15 -51 15 -112q0 -112 -71.5 -192t-211.5 -93l-49 106q190 19 190 174q0 65 -20 117z" />
    <glyph glyph-name="uni0323" unicode="&#x323;" horiz-adv-x="0" 
d="M78 -395h-156v229h156v-229z" />
    <glyph glyph-name="uni0324" unicode="&#x324;" horiz-adv-x="0" 
d="M-129 -369h-145v226h145v-226zM274 -369h-145v226h145v-226z" />
    <glyph glyph-name="uni0326" unicode="&#x326;" horiz-adv-x="0" 
d="M-23 -154h144q0 -95 -29 -211t-76 -180h-139q100 193 100 391z" />
    <glyph glyph-name="uni0327" unicode="&#x327;" horiz-adv-x="0" 
d="M-213 -487l2 108q98 -20 154 -20q74 0 113.5 22t39.5 62q0 26 -15.5 44t-38.5 28.5t-61.5 16.5t-72.5 8t-82 3v51l156 184l114 -20l-96 -117q41 -5 78 -16.5t75 -32.5t60.5 -57.5t22.5 -83.5q0 -60 -26.5 -102.5t-71 -63.5t-88.5 -30t-93 -9q-87 0 -170 25z" />
    <glyph glyph-name="uni0328" unicode="&#x328;" horiz-adv-x="0" 
d="M233 -334v-127q-55 -28 -161 -28q-121 0 -185.5 62t-64.5 165q0 85 49 167t123 138l115 -43q-140 -116 -140 -236q0 -60 37 -90t98 -30q75 0 129 22z" />
    <glyph glyph-name="uni032E" unicode="&#x32e;" horiz-adv-x="0" 
d="M201 -141h118q-18 -135 -101 -219t-220 -84q-78 0 -139 25.5t-97.5 69t-56.5 96t-24 112.5h118q16 -80 66.5 -128t132.5 -48q51 0 88.5 15t59.5 42.5t34 54.5t21 64z" />
    <glyph glyph-name="uni0331" unicode="&#x331;" horiz-adv-x="0" 
d="M-303 -336v129h604v-129h-604z" />
    <glyph glyph-name="pi" unicode="&#x3c0;" horiz-adv-x="1198" 
d="M184 0v903q-140 0 -196 -6l2 121q58 12 336 12h850v-129h-179v-901h-153v903h-514v-903h-146z" />
    <glyph glyph-name="uni1E0C" unicode="&#x1e0c;" horiz-adv-x="1652" 
d="M791 0h-580v1458h582q171 0 311.5 -53.5t234 -148t144.5 -224t51 -280.5q0 -228 -98.5 -400.5t-266 -262t-378.5 -89.5zM375 1317v-1176h375q152 0 270 46.5t191.5 129.5t111 192t37.5 239q0 264 -162.5 416.5t-429.5 152.5h-393zM825 -395h-155v229h155v-229z" />
    <glyph glyph-name="uni1E0D" unicode="&#x1e0d;" horiz-adv-x="1306" 
d="M1137 0h-150q-8 63 -8 168q-21 -39 -48 -69.5t-71.5 -62t-113 -48.5t-156.5 -17q-223 0 -360.5 150.5t-137.5 384.5q0 123 43 228.5t115 175.5t166 109.5t196 39.5q272 0 367 -174v659h156v-1241q0 -203 2 -303zM614 106q192 0 282.5 111t90.5 303q0 95 -17.5 166
t-57.5 126t-112 83.5t-175 28.5q-91 0 -164 -35.5t-117.5 -94.5t-68 -132t-23.5 -152q0 -76 23 -147t66.5 -129t114.5 -93t158 -35zM731 -395h-156v229h156v-229z" />
    <glyph glyph-name="uni1E0E" unicode="&#x1e0e;" horiz-adv-x="1652" 
d="M791 0h-580v1458h582q171 0 311.5 -53.5t234 -148t144.5 -224t51 -280.5q0 -228 -98.5 -400.5t-266 -262t-378.5 -89.5zM375 1317v-1176h375q152 0 270 46.5t191.5 129.5t111 192t37.5 239q0 264 -162.5 416.5t-429.5 152.5h-393zM461 -336v129h604v-129h-604z" />
    <glyph glyph-name="uni1E0F" unicode="&#x1e0f;" horiz-adv-x="1306" 
d="M1137 0h-150q-8 63 -8 168q-21 -39 -48 -69.5t-71.5 -62t-113 -48.5t-156.5 -17q-223 0 -360.5 150.5t-137.5 384.5q0 123 43 228.5t115 175.5t166 109.5t196 39.5q272 0 367 -174v659h156v-1241q0 -203 2 -303zM614 106q192 0 282.5 111t90.5 303q0 95 -17.5 166
t-57.5 126t-112 83.5t-175 28.5q-91 0 -164 -35.5t-117.5 -94.5t-68 -132t-23.5 -152q0 -76 23 -147t66.5 -129t114.5 -93t158 -35zM350 -336v129h604v-129h-604z" />
    <glyph glyph-name="uni1E20" unicode="&#x1e20;" horiz-adv-x="1720" 
d="M885 643v143h663v-786h-129q-14 86 -14 236q-76 -134 -204.5 -200.5t-338.5 -66.5q-342 0 -542.5 205.5t-200.5 552.5q0 161 54 300.5t152 242t244 161t320 58.5q124 0 228 -24t176 -64t127.5 -96.5t87.5 -116t51 -127.5h-173q-117 287 -499 287q-186 0 -322.5 -82.5
t-204 -220t-67.5 -310.5q0 -180 68 -320.5t202.5 -222t317.5 -81.5q243 0 376.5 123.5t133.5 359.5v49h-506zM549 1683v125h645v-125h-645z" />
    <glyph glyph-name="uni1E21" unicode="&#x1e21;" horiz-adv-x="1308" 
d="M102 -135h158q13 -47 36 -84t61.5 -69t100.5 -49t144 -17q96 0 165 25t110 66t65 106.5t31.5 132.5t7.5 159v60q-102 -213 -401 -213q-215 0 -352.5 148.5t-137.5 371.5q0 122 42 227.5t113 177t164 112t195 40.5q86 0 155.5 -18.5t112.5 -49.5t69 -63t40 -68
q0 126 6 170h148q-2 -98 -2 -297v-592q0 -123 -15.5 -216.5t-53 -173t-98.5 -130t-154 -78.5t-218 -28q-80 0 -148.5 13t-116.5 34.5t-86.5 52t-62 61t-41 66.5t-25.5 64.5t-12 58.5zM616 119q173 0 271 105t98 298q0 194 -94 298t-264 104q-94 0 -168 -36t-118.5 -96
t-67.5 -132t-23 -150q0 -173 103 -282t263 -109zM350 1339v129h604v-129h-604z" />
    <glyph glyph-name="uni1E24" unicode="&#x1e24;" horiz-adv-x="1685" 
d="M375 0h-164v1458h164v-600h936v600h164v-1458h-164v713h-936v-713zM920 -395h-156v229h156v-229z" />
    <glyph glyph-name="uni1E25" unicode="&#x1e25;" horiz-adv-x="1280" 
d="M172 0v1544h156v-715q16 37 41 71t69.5 73t117 62.5t163.5 23.5q179 0 283 -111t104 -325v-623h-154v596q0 151 -65.5 239.5t-210.5 88.5q-86 0 -154 -33.5t-109.5 -91t-63 -131t-21.5 -158.5v-510h-156zM717 -395h-156v229h156v-229z" />
    <glyph glyph-name="uni1E2A" unicode="&#x1e2a;" horiz-adv-x="1685" 
d="M375 0h-164v1458h164v-600h936v600h164v-1458h-164v713h-936v-713zM1042 -141h119q-18 -135 -101 -219t-220 -84q-78 0 -139 25.5t-98 69t-57 96t-24 112.5h119q16 -80 66.5 -128t132.5 -48q51 0 88.5 15t59.5 42.5t33.5 54.5t20.5 64z" />
    <glyph glyph-name="uni1E2B" unicode="&#x1e2b;" horiz-adv-x="1280" 
d="M172 0v1544h156v-715q16 37 41 71t69.5 73t117 62.5t163.5 23.5q179 0 283 -111t104 -325v-623h-154v596q0 151 -65.5 239.5t-210.5 88.5q-86 0 -154 -33.5t-109.5 -91t-63 -131t-21.5 -158.5v-510h-156zM840 -141h118q-18 -135 -101 -219t-220 -84q-78 0 -139 25.5
t-98 69t-57 96t-24 112.5h119q16 -80 66.5 -128t132.5 -48q51 0 88.5 15t59.5 42.5t34 54.5t21 64z" />
    <glyph glyph-name="uni1E36" unicode="&#x1e36;" horiz-adv-x="1300" 
d="M373 145h897l-27 -145h-1032v1458h162v-1313zM838 -395h-156v229h156v-229z" />
    <glyph glyph-name="uni1E37" unicode="&#x1e37;" horiz-adv-x="499" 
d="M328 0h-156v1544h156v-1544zM328 -395h-156v229h156v-229z" />
    <glyph glyph-name="uni1E38" unicode="&#x1e38;" horiz-adv-x="1300" 
d="M373 145h897l-27 -145h-1032v1458h162v-1313zM-16 1653v125h645v-125h-645zM838 -395h-156v229h156v-229z" />
    <glyph glyph-name="uni1E39" unicode="&#x1e39;" horiz-adv-x="499" 
d="M328 0h-156v1544h156v-1544zM-53 1679v129h604v-129h-604zM328 -395h-156v229h156v-229z" />
    <glyph glyph-name="uni1E3A" unicode="&#x1e3a;" horiz-adv-x="1300" 
d="M373 145h897l-27 -145h-1032v1458h162v-1313zM438 -336v129h604v-129h-604z" />
    <glyph glyph-name="uni1E3B" unicode="&#x1e3b;" horiz-adv-x="499" 
d="M328 0h-156v1544h156v-1544zM-53 -336v129h604v-129h-604z" />
    <glyph glyph-name="uni1E42" unicode="&#x1e42;" horiz-adv-x="1986" 
d="M211 0v1458h233q164 -370 335.5 -769.5t203.5 -485.5h2q35 82 243.5 553t309.5 702h240v-1458h-162v649q0 541 8 688h-2q-12 -33 -30.5 -80.5t-47.5 -117t-54 -128t-68 -157.5t-69 -158.5t-79 -178.5t-76 -170.5t-80.5 -181t-73.5 -165.5h-141q-55 133 -188.5 449
t-232.5 553t-134 333h-2q19 -263 19 -727v-608h-154zM1053 -395h-156v229h156v-229z" />
    <glyph glyph-name="uni1E43" unicode="&#x1e43;" horiz-adv-x="1875" 
d="M328 0h-156v764q0 178 -2 266h152q7 -75 4 -164q111 193 340 193q120 0 200 -54.5t117 -150.5q24 40 51 71.5t69.5 64.5t102.5 51t133 18q77 0 141 -23.5t114.5 -71.5t79 -130.5t28.5 -192.5v-641h-154v635q0 42 -5.5 79.5t-21.5 77.5t-41.5 68t-68.5 46t-100 18
q-137 0 -216 -93t-79 -268v-563h-156v645q0 54 -10 99t-35 88t-74.5 67.5t-119.5 24.5q-78 0 -135.5 -29t-91.5 -81.5t-50 -119.5t-16 -149v-545zM1018 -395h-156v229h156v-229z" />
    <glyph glyph-name="uni1E44" unicode="&#x1e44;" horiz-adv-x="1708" 
d="M367 0h-156v1458h197q101 -135 344 -451.5t401.5 -529t194.5 -276.5h4q-11 184 -11 655v602h156v-1458h-188q-213 279 -544 724.5t-407 561.5h-4q13 -204 13 -653v-633zM930 1626h-154v225h154v-225z" />
    <glyph glyph-name="uni1E45" unicode="&#x1e45;" horiz-adv-x="1280" 
d="M328 0h-156v770q0 182 -2 260h152q6 -56 6 -207q18 43 47 82t74.5 75t113 57.5t148.5 21.5q183 0 290 -112t107 -322v-625h-156v594q0 151 -65.5 240.5t-210.5 89.5q-168 0 -258 -120t-90 -317v-487zM725 1319h-154v225h154v-225z" />
    <glyph glyph-name="uni1E46" unicode="&#x1e46;" horiz-adv-x="1708" 
d="M367 0h-156v1458h197q101 -135 344 -451.5t401.5 -529t194.5 -276.5h4q-11 184 -11 655v602h156v-1458h-188q-213 279 -544 724.5t-407 561.5h-4q13 -204 13 -653v-633zM932 -395h-156v229h156v-229z" />
    <glyph glyph-name="uni1E47" unicode="&#x1e47;" horiz-adv-x="1280" 
d="M328 0h-156v770q0 182 -2 260h152q6 -56 6 -207q18 43 47 82t74.5 75t113 57.5t148.5 21.5q183 0 290 -112t107 -322v-625h-156v594q0 151 -65.5 240.5t-210.5 89.5q-168 0 -258 -120t-90 -317v-487zM717 -395h-156v229h156v-229z" />
    <glyph glyph-name="uni1E48" unicode="&#x1e48;" horiz-adv-x="1708" 
d="M367 0h-156v1458h197q101 -135 344 -451.5t401.5 -529t194.5 -276.5h4q-11 184 -11 655v602h156v-1458h-188q-213 279 -544 724.5t-407 561.5h-4q13 -204 13 -653v-633zM551 -336v129h604v-129h-604z" />
    <glyph glyph-name="uni1E49" unicode="&#x1e49;" horiz-adv-x="1280" 
d="M328 0h-156v770q0 182 -2 260h152q6 -56 6 -207q18 43 47 82t74.5 75t113 57.5t148.5 21.5q183 0 290 -112t107 -322v-625h-156v594q0 151 -65.5 240.5t-210.5 89.5q-168 0 -258 -120t-90 -317v-487zM336 -336v129h604v-129h-604z" />
    <glyph glyph-name="uni1E5A" unicode="&#x1e5a;" horiz-adv-x="1513" 
d="M211 0v1458h668q224 0 357.5 -99.5t133.5 -289.5q0 -135 -66.5 -225t-203.5 -123q231 -63 231 -359v-61q0 -238 17 -301h-168q-4 13 -7 29t-5 38t-3 38t-1.5 46.5t-0.5 44.5v51v48v49q0 173 -78.5 238t-279.5 65h-430v-647h-164zM375 1317v-529h461q184 0 274 67t90 206
q0 256 -356 256h-469zM836 -395h-156v229h156v-229z" />
    <glyph glyph-name="uni1E5B" unicode="&#x1e5b;" horiz-adv-x="786" 
d="M328 0h-154v750q0 188 -2 280h150q6 -87 6 -239q53 125 164.5 196.5t259.5 71.5v-154q-187 3 -305.5 -117t-118.5 -342v-446zM330 -395h-156v229h156v-229z" />
    <glyph glyph-name="uni1E5C" unicode="&#x1e5c;" horiz-adv-x="1513" 
d="M211 0v1458h668q224 0 357.5 -99.5t133.5 -289.5q0 -135 -66.5 -225t-203.5 -123q231 -63 231 -359v-61q0 -238 17 -301h-168q-4 13 -7 29t-5 38t-3 38t-1.5 46.5t-0.5 44.5v51v48v49q0 173 -78.5 238t-279.5 65h-430v-647h-164zM375 1317v-529h461q184 0 274 67t90 206
q0 256 -356 256h-469zM434 1653v125h645v-125h-645zM834 -395h-156v229h156v-229z" />
    <glyph glyph-name="uni1E5D" unicode="&#x1e5d;" horiz-adv-x="786" 
d="M328 0h-154v750q0 188 -2 280h150q6 -87 6 -239q53 125 164.5 196.5t259.5 71.5v-154q-187 3 -305.5 -117t-118.5 -342v-446zM147 1339v129h605v-129h-605zM330 -395h-156v229h156v-229z" />
    <glyph glyph-name="uni1E5E" unicode="&#x1e5e;" horiz-adv-x="1513" 
d="M211 0v1458h668q224 0 357.5 -99.5t133.5 -289.5q0 -135 -66.5 -225t-203.5 -123q231 -63 231 -359v-61q0 -238 17 -301h-168q-4 13 -7 29t-5 38t-3 38t-1.5 46.5t-0.5 44.5v51v48v49q0 173 -78.5 238t-279.5 65h-430v-647h-164zM375 1317v-529h461q184 0 274 67t90 206
q0 256 -356 256h-469zM457 -336v129h604v-129h-604z" />
    <glyph glyph-name="uni1E5F" unicode="&#x1e5f;" horiz-adv-x="786" 
d="M328 0h-154v750q0 188 -2 280h150q6 -87 6 -239q53 125 164.5 196.5t259.5 71.5v-154q-187 3 -305.5 -117t-118.5 -342v-446zM-37 -336v129h604v-129h-604z" />
    <glyph glyph-name="uni1E60" unicode="&#x1e60;" horiz-adv-x="1470" 
d="M1307 1102h-168q-12 39 -25.5 67.5t-44.5 65t-73.5 59.5t-114.5 39.5t-166 16.5q-172 0 -271.5 -60t-99.5 -178q0 -53 15 -89.5t57.5 -71.5t124.5 -61.5t209 -47.5q152 -25 262 -61t175.5 -76t103.5 -93t50.5 -103.5t12.5 -115.5q0 -87 -36 -161.5t-107 -134.5t-190 -94
t-273 -34q-286 0 -449 120t-201 331h170q95 -314 488 -314q216 0 321 76t105 195q0 62 -20 107t-71.5 85.5t-147 71.5t-241.5 55q-155 27 -259.5 64.5t-162.5 88.5t-82 110t-24 137q0 121 71.5 211t194 136t277.5 46q134 0 239.5 -27.5t167 -67.5t103.5 -95.5t58 -101.5
t22 -95zM809 1626h-154v225h154v-225z" />
    <glyph glyph-name="uni1E61" unicode="&#x1e61;" horiz-adv-x="1130" 
d="M1001 754h-155q-6 25 -14.5 45t-30.5 47t-53 45t-86.5 30.5t-126.5 12.5q-75 0 -128.5 -15t-79.5 -40t-37 -50t-11 -53q0 -46 23 -75.5t90 -54t188 -40.5q138 -18 230.5 -47.5t140.5 -71.5t66.5 -88.5t18.5 -109.5q0 -145 -115.5 -231.5t-345.5 -86.5q-223 0 -348.5 88.5
t-154.5 251.5h157q61 -215 355 -215q153 0 224 49.5t71 133.5q0 38 -13 65.5t-48 53.5t-102 44t-169 29q-102 13 -179 35t-123.5 49t-75 62.5t-38.5 70t-10 76.5q0 40 13 79.5t44.5 79t79 69.5t121.5 48.5t166 18.5q102 0 183 -21t129.5 -52.5t81.5 -74t46 -80.5t16 -77z
M639 1319h-154v225h154v-225z" />
    <glyph glyph-name="uni1E62" unicode="&#x1e62;" horiz-adv-x="1470" 
d="M1307 1102h-168q-12 39 -25.5 67.5t-44.5 65t-73.5 59.5t-114.5 39.5t-166 16.5q-172 0 -271.5 -60t-99.5 -178q0 -53 15 -89.5t57.5 -71.5t124.5 -61.5t209 -47.5q152 -25 262 -61t175.5 -76t103.5 -93t50.5 -103.5t12.5 -115.5q0 -87 -36 -161.5t-107 -134.5t-190 -94
t-273 -34q-286 0 -449 120t-201 331h170q95 -314 488 -314q216 0 321 76t105 195q0 62 -20 107t-71.5 85.5t-147 71.5t-241.5 55q-155 27 -259.5 64.5t-162.5 88.5t-82 110t-24 137q0 121 71.5 211t194 136t277.5 46q134 0 239.5 -27.5t167 -67.5t103.5 -95.5t58 -101.5
t22 -95zM811 -395h-156v229h156v-229z" />
    <glyph glyph-name="uni1E63" unicode="&#x1e63;" horiz-adv-x="1130" 
d="M1001 754h-155q-6 25 -14.5 45t-30.5 47t-53 45t-86.5 30.5t-126.5 12.5q-75 0 -128.5 -15t-79.5 -40t-37 -50t-11 -53q0 -46 23 -75.5t90 -54t188 -40.5q138 -18 230.5 -47.5t140.5 -71.5t66.5 -88.5t18.5 -109.5q0 -145 -115.5 -231.5t-345.5 -86.5q-223 0 -348.5 88.5
t-154.5 251.5h157q61 -215 355 -215q153 0 224 49.5t71 133.5q0 38 -13 65.5t-48 53.5t-102 44t-169 29q-102 13 -179 35t-123.5 49t-75 62.5t-38.5 70t-10 76.5q0 40 13 79.5t44.5 79t79 69.5t121.5 48.5t166 18.5q102 0 183 -21t129.5 -52.5t81.5 -74t46 -80.5t16 -77z
M641 -395h-156v229h156v-229z" />
    <glyph glyph-name="uni1E6C" unicode="&#x1e6c;" horiz-adv-x="1343" 
d="M756 0h-166v1315h-570v143h1303v-143h-567v-1315zM750 -395h-156v229h156v-229z" />
    <glyph glyph-name="uni1E6D" unicode="&#x1e6d;" horiz-adv-x="731" 
d="M244 285v618h-211v127h211v340h153v-340h279v-127h-279v-602q0 -98 33 -141t117 -43q67 0 106 10v-119q-51 -18 -145 -18q-148 0 -206 69t-58 226zM479 -395h-155v229h155v-229z" />
    <glyph glyph-name="uni1E6E" unicode="&#x1e6e;" horiz-adv-x="1343" 
d="M756 0h-166v1315h-570v143h1303v-143h-567v-1315zM369 -336v129h604v-129h-604z" />
    <glyph glyph-name="uni1E6F" unicode="&#x1e6f;" horiz-adv-x="731" 
d="M244 285v618h-211v127h211v340h153v-340h279v-127h-279v-602q0 -98 33 -141t117 -43q67 0 106 10v-119q-51 -18 -145 -18q-148 0 -206 69t-58 226zM102 -336v129h605v-129h-605z" />
    <glyph glyph-name="Wgrave" unicode="&#x1e80;" horiz-adv-x="2222" 
d="M690 0h-176l-463 1458h174q20 -66 78.5 -251.5t99 -317t89 -292.5t79 -272t39.5 -161h2q37 192 412 1294h168q98 -294 238 -742.5t161 -547.5h2q31 136 162 535.5t254 754.5h166l-498 -1458h-180q-361 1108 -397 1282h-2q-7 -35 -26 -102t-49 -163.5t-60 -189t-72 -221
t-70.5 -214.5t-71.5 -214t-59 -178zM623 1884h229l356 -285h-170z" />
    <glyph glyph-name="wgrave" unicode="&#x1e81;" horiz-adv-x="1726" 
d="M393 0l-348 1030h162q244 -749 276 -880h2q19 71 69.5 215t238.5 665h149q183 -513 234.5 -662t64.5 -206h2q41 162 285 868h155l-366 -1030h-158q-46 130 -121 340.5t-118.5 335.5t-59.5 176h-2q-54 -189 -299 -852h-166zM803 1235l-326 330h191l290 -330h-155z" />
    <glyph glyph-name="Wacute" unicode="&#x1e82;" horiz-adv-x="2222" 
d="M690 0h-176l-463 1458h174q20 -66 78.5 -251.5t99 -317t89 -292.5t79 -272t39.5 -161h2q37 192 412 1294h168q98 -294 238 -742.5t161 -547.5h2q31 136 162 535.5t254 754.5h166l-498 -1458h-180q-361 1108 -397 1282h-2q-7 -35 -26 -102t-49 -163.5t-60 -189t-72 -221
t-70.5 -214.5t-71.5 -214t-59 -178zM1001 1599l349 285h219l-395 -285h-173z" />
    <glyph glyph-name="wacute" unicode="&#x1e83;" horiz-adv-x="1726" 
d="M393 0l-348 1030h162q244 -749 276 -880h2q19 71 69.5 215t238.5 665h149q183 -513 234.5 -662t64.5 -206h2q41 162 285 868h155l-366 -1030h-158q-46 130 -121 340.5t-118.5 335.5t-59.5 176h-2q-54 -189 -299 -852h-166zM772 1235l285 330h192l-323 -330h-154z" />
    <glyph glyph-name="Wdieresis" unicode="&#x1e84;" horiz-adv-x="2222" 
d="M963 1624h-146v225h146v-225zM1401 1624h-146v225h146v-225zM690 0h-176l-463 1458h174q20 -66 78.5 -251.5t99 -317t89 -292.5t79 -272t39.5 -161h2q37 192 412 1294h168q98 -294 238 -742.5t161 -547.5h2q31 136 162 535.5t254 754.5h166l-498 -1458h-180
q-361 1108 -397 1282h-2q-7 -35 -26 -102t-49 -163.5t-60 -189t-72 -221t-70.5 -214.5t-71.5 -214t-59 -178z" />
    <glyph glyph-name="wdieresis" unicode="&#x1e85;" horiz-adv-x="1726" 
d="M735 1319h-145v225h145v-225zM1139 1319h-146v225h146v-225zM393 0l-348 1030h162q244 -749 276 -880h2q19 71 69.5 215t238.5 665h149q183 -513 234.5 -662t64.5 -206h2q41 162 285 868h155l-366 -1030h-158q-46 130 -121 340.5t-118.5 335.5t-59.5 176h-2
q-54 -189 -299 -852h-166z" />
    <glyph glyph-name="uni1E8E" unicode="&#x1e8e;" horiz-adv-x="1351" 
d="M760 0h-164v565q0 19 -14 33l-613 860h197q60 -86 189 -267t214.5 -303.5t114.5 -174.5q73 121 512 745h186l-612 -862q-10 -17 -10 -35v-561zM750 1620h-154v225h154v-225z" />
    <glyph glyph-name="uni1E8F" unicode="&#x1e8f;" horiz-adv-x="1169" 
d="M98 -475v143q49 -8 117 -8q102 0 162.5 59t140.5 232l-483 1079h172q366 -835 395 -915h2q186 486 365 915h164l-422 -1005q-48 -115 -83.5 -190.5t-73 -136t-69 -93.5t-73 -54.5t-84 -28.5t-103.5 -7q-69 0 -127 10zM659 1319h-153v225h153v-225z" />
    <glyph glyph-name="uni1E92" unicode="&#x1e92;" horiz-adv-x="1396" 
d="M45 0v121l1057 1196h-1006v141h1225v-125l-1049 -1192h1096l-29 -141h-1294zM776 -395h-155v229h155v-229z" />
    <glyph glyph-name="uni1E93" unicode="&#x1e93;" horiz-adv-x="1097" 
d="M72 0v119l751 780h-708v131h911v-123l-745 -776h792l-31 -131h-970zM643 -395h-156v229h156v-229z" />
    <glyph glyph-name="uni1E97" unicode="&#x1e97;" horiz-adv-x="731" 
d="M190 1466h-145v226h145v-226zM594 1466h-145v226h145v-226zM244 285v618h-211v127h211v340h153v-340h279v-127h-279v-602q0 -98 33 -141t117 -43q67 0 106 10v-119q-51 -18 -145 -18q-148 0 -206 69t-58 226z" />
    <glyph glyph-name="uni1E9E" unicode="&#x1e9e;" horiz-adv-x="1540" 
d="M213 0v1051q0 92 28 166t77.5 124.5t120 84t153.5 48.5t180 15t179.5 -14.5t141 -38.5t105 -57.5t75.5 -69t47.5 -75t26 -73.5t7.5 -67q0 -43 -4 -68l-439 -205v-4l193 -82q193 -86 266.5 -177t73.5 -218q0 -176 -129.5 -273.5t-349.5 -97.5q-144 0 -256.5 40t-180.5 108
v184q77 -92 197 -146.5t240 -54.5q155 0 237 61.5t82 166.5q0 84 -56.5 148.5t-207.5 129.5l-281 123q-51 22 -51.5 72.5t49.5 75.5l455 221q0 48 -25.5 92.5t-75 82.5t-133 60.5t-188.5 22.5q-200 0 -297.5 -77.5t-97.5 -270.5v-1008h-162z" />
    <glyph glyph-name="uni1EA0" unicode="&#x1ea0;" horiz-adv-x="1556" 
d="M31 0l639 1458h192l662 -1458h-178l-216 473h-720l-205 -473h-174zM762 1333h-2q-47 -139 -293 -715h606q-276 612 -311 715zM846 -395h-156v229h156v-229z" />
    <glyph glyph-name="uni1EA1" unicode="&#x1ea1;" horiz-adv-x="1216" 
d="M309 731h-153q4 46 18 88t46 87t79.5 78t124.5 54t174 21q103 0 181.5 -20t127 -52t79.5 -78t42.5 -93t11.5 -101v-469q0 -177 11 -246h-148q-12 62 -12 162q-93 -191 -395 -191q-85 0 -154.5 20t-114 52.5t-75 76t-43.5 88.5t-13 93q0 334 531 334h262v61q0 50 -12.5 89
t-42.5 74.5t-90 55t-146 19.5q-77 0 -131.5 -16t-85.5 -46.5t-46.5 -63t-25.5 -77.5zM889 465v53h-258q-197 0 -289 -48t-92 -161q0 -91 68 -150t200 -59q371 0 371 365zM690 -395h-155v229h155v-229z" />
    <glyph glyph-name="uni1EA2" unicode="&#x1ea2;" horiz-adv-x="1556" 
d="M31 0l639 1458h192l662 -1458h-178l-216 473h-720l-205 -473h-174zM762 1333h-2q-47 -139 -293 -715h606q-276 612 -311 715zM590 1815l-37 94q80 59 199 59q96 0 149 -49t53 -129q0 -45 -21 -88.5t-41.5 -66t-55.5 -54.5h-152q68 57 100.5 101t32.5 87q0 37 -23 59.5
t-71 22.5q-78 0 -133 -36z" />
    <glyph glyph-name="uni1EA3" unicode="&#x1ea3;" horiz-adv-x="1216" 
d="M309 731h-153q4 46 18 88t46 87t79.5 78t124.5 54t174 21q103 0 181.5 -20t127 -52t79.5 -78t42.5 -93t11.5 -101v-469q0 -177 11 -246h-148q-12 62 -12 162q-93 -191 -395 -191q-85 0 -154.5 20t-114 52.5t-75 76t-43.5 88.5t-13 93q0 334 531 334h262v61q0 50 -12.5 89
t-42.5 74.5t-90 55t-146 19.5q-77 0 -131.5 -16t-85.5 -46.5t-46.5 -63t-25.5 -77.5zM889 465v53h-258q-197 0 -289 -48t-92 -161q0 -91 68 -150t200 -59q371 0 371 365zM430 1432l-37 94q80 59 199 59q96 0 149.5 -49t53.5 -129q0 -45 -21.5 -88.5t-42 -66t-55.5 -54.5
h-152q68 57 100.5 101t32.5 87q0 37 -23 59.5t-71 22.5q-78 0 -133 -36z" />
    <glyph glyph-name="uni1EA4" unicode="&#x1ea4;" horiz-adv-x="1556" 
d="M377 1585l293 260h194l295 -260h-188l-207 174l-201 -174h-186zM1040 1815l250 251h193l-289 -251h-154zM31 0l639 1458h192l662 -1458h-178l-216 473h-720l-205 -473h-174zM762 1333h-2q-47 -139 -293 -715h606q-276 612 -311 715z" />
    <glyph glyph-name="uni1EA5" unicode="&#x1ea5;" horiz-adv-x="1216" 
d="M272 1217l246 278h166l248 -278h-158l-176 190l-170 -190h-156zM834 1452l225 264h170l-254 -264h-141zM309 731h-153q4 46 18 88t46 87t79.5 78t124.5 54t174 21q103 0 181.5 -20t127 -52t79.5 -78t42.5 -93t11.5 -101v-469q0 -177 11 -246h-148q-12 62 -12 162
q-93 -191 -395 -191q-85 0 -154.5 20t-114 52.5t-75 76t-43.5 88.5t-13 93q0 334 531 334h262v61q0 50 -12.5 89t-42.5 74.5t-90 55t-146 19.5q-77 0 -131.5 -16t-85.5 -46.5t-46.5 -63t-25.5 -77.5zM889 465v53h-258q-197 0 -289 -48t-92 -161q0 -91 68 -150t200 -59
q371 0 371 365z" />
    <glyph glyph-name="uni1EA6" unicode="&#x1ea6;" horiz-adv-x="1556" 
d="M377 1581l293 260h194l295 -260h-188l-207 174l-201 -174h-186zM1255 1759l-319 258h205l276 -258h-162zM31 0l639 1458h192l662 -1458h-178l-216 473h-720l-205 -473h-174zM762 1333h-2q-47 -139 -293 -715h606q-276 612 -311 715z" />
    <glyph glyph-name="uni1EA7" unicode="&#x1ea7;" horiz-adv-x="1216" 
d="M272 1223l246 278h166l248 -278h-158l-176 190l-170 -190h-156zM985 1438l-264 272h174l229 -272h-139zM309 731h-153q4 46 18 88t46 87t79.5 78t124.5 54t174 21q103 0 181.5 -20t127 -52t79.5 -78t42.5 -93t11.5 -101v-469q0 -177 11 -246h-148q-12 62 -12 162
q-93 -191 -395 -191q-85 0 -154.5 20t-114 52.5t-75 76t-43.5 88.5t-13 93q0 334 531 334h262v61q0 50 -12.5 89t-42.5 74.5t-90 55t-146 19.5q-77 0 -131.5 -16t-85.5 -46.5t-46.5 -63t-25.5 -77.5zM889 465v53h-258q-197 0 -289 -48t-92 -161q0 -91 68 -150t200 -59
q371 0 371 365z" />
    <glyph glyph-name="uni1EA8" unicode="&#x1ea8;" horiz-adv-x="1556" 
d="M377 1581l293 260h194l295 -260h-188l-207 174l-201 -174h-186zM987 1989l-35 94q32 26 86 42.5t111 16.5q93 0 143.5 -46t50.5 -124q0 -57 -33.5 -107.5t-86.5 -86.5h-142q129 102 129 178q0 33 -23 52.5t-65 19.5q-76 0 -135 -39zM31 0l639 1458h192l662 -1458h-178
l-216 473h-720l-205 -473h-174zM762 1333h-2q-47 -139 -293 -715h606q-276 612 -311 715z" />
    <glyph glyph-name="uni1EA9" unicode="&#x1ea9;" horiz-adv-x="1216" 
d="M268 1217l246 278h166l248 -278h-158l-176 190l-170 -190h-156zM760 1636l-41 80q73 66 184 66q89 0 134.5 -42t45.5 -118q0 -52 -30 -100t-74 -82h-137q125 98 125 168q0 69 -82 69q-77 0 -125 -41zM309 731h-153q4 46 18 88t46 87t79.5 78t124.5 54t174 21
q103 0 181.5 -20t127 -52t79.5 -78t42.5 -93t11.5 -101v-469q0 -177 11 -246h-148q-12 62 -12 162q-93 -191 -395 -191q-85 0 -154.5 20t-114 52.5t-75 76t-43.5 88.5t-13 93q0 334 531 334h262v61q0 50 -12.5 89t-42.5 74.5t-90 55t-146 19.5q-77 0 -131.5 -16t-85.5 -46.5
t-46.5 -63t-25.5 -77.5zM889 465v53h-258q-197 0 -289 -48t-92 -161q0 -91 68 -150t200 -59q371 0 371 365z" />
    <glyph glyph-name="uni1EAA" unicode="&#x1eaa;" horiz-adv-x="1556" 
d="M408 1579l270 207h164l278 -207h-184l-176 125l-170 -125h-182zM543 1876h-101v31q0 87 45.5 128.5t118.5 41.5q52 0 110 -22t110 -44t89 -22q68 0 68 69v19h102v-25q0 -84 -42 -130t-125 -46q-55 0 -154.5 44t-149.5 44q-31 0 -51 -18t-20 -56v-14zM31 0l639 1458h192
l662 -1458h-178l-216 473h-720l-205 -473h-174zM762 1333h-2q-47 -139 -293 -715h606q-276 612 -311 715z" />
    <glyph glyph-name="uni1EAB" unicode="&#x1eab;" horiz-adv-x="1216" 
d="M272 1190l230 205h184l236 -205h-168l-162 131l-154 -131h-166zM399 1491h-100v22q0 92 42 134.5t112 42.5q52 0 105.5 -20.5t97 -41t71.5 -20.5q32 0 50 13t18 48v19h102v-27q0 -170 -162 -170q-55 0 -144 42t-126 42q-30 0 -48 -17.5t-18 -52.5v-14zM309 731h-153
q4 46 18 88t46 87t79.5 78t124.5 54t174 21q103 0 181.5 -20t127 -52t79.5 -78t42.5 -93t11.5 -101v-469q0 -177 11 -246h-148q-12 62 -12 162q-93 -191 -395 -191q-85 0 -154.5 20t-114 52.5t-75 76t-43.5 88.5t-13 93q0 334 531 334h262v61q0 50 -12.5 89t-42.5 74.5
t-90 55t-146 19.5q-77 0 -131.5 -16t-85.5 -46.5t-46.5 -63t-25.5 -77.5zM889 465v53h-258q-197 0 -289 -48t-92 -161q0 -91 68 -150t200 -59q371 0 371 365z" />
    <glyph glyph-name="uni1EAC" unicode="&#x1eac;" horiz-adv-x="1556" 
d="M31 0l639 1458h192l662 -1458h-178l-216 473h-720l-205 -473h-174zM762 1333h-2q-47 -139 -293 -715h606q-276 612 -311 715zM365 1585l303 281h192l307 -281h-178l-227 197l-223 -197h-174zM846 -395h-156v229h156v-229z" />
    <glyph glyph-name="uni1EAD" unicode="&#x1ead;" horiz-adv-x="1216" 
d="M309 731h-153q4 46 18 88t46 87t79.5 78t124.5 54t174 21q103 0 181.5 -20t127 -52t79.5 -78t42.5 -93t11.5 -101v-469q0 -177 11 -246h-148q-12 62 -12 162q-93 -191 -395 -191q-85 0 -154.5 20t-114 52.5t-75 76t-43.5 88.5t-13 93q0 334 531 334h262v61q0 50 -12.5 89
t-42.5 74.5t-90 55t-146 19.5q-77 0 -131.5 -16t-85.5 -46.5t-46.5 -63t-25.5 -77.5zM889 465v53h-258q-197 0 -289 -48t-92 -161q0 -91 68 -150t200 -59q371 0 371 365zM266 1233l264 332h162l266 -332h-153l-195 242l-190 -242h-154zM694 -395h-155v229h155v-229z" />
    <glyph glyph-name="uni1EAE" unicode="&#x1eae;" horiz-adv-x="1556" 
d="M975 1823h125q-31 -116 -118.5 -180t-217.5 -64q-143 0 -229 71.5t-105 172.5h127q44 -121 207 -121q159 0 211 121zM676 1878l227 246h184l-264 -246h-147zM31 0l639 1458h192l662 -1458h-178l-216 473h-720l-205 -473h-174zM762 1333h-2q-47 -139 -293 -715h606
q-276 612 -311 715z" />
    <glyph glyph-name="uni1EAF" unicode="&#x1eaf;" horiz-adv-x="1216" 
d="M807 1430h119q-25 -113 -106.5 -179.5t-207.5 -66.5q-134 0 -214 72t-99 174h123q46 -130 190 -130q86 0 129 35t66 95zM524 1485l221 244h173l-250 -244h-144zM309 731h-153q4 46 18 88t46 87t79.5 78t124.5 54t174 21q103 0 181.5 -20t127 -52t79.5 -78t42.5 -93
t11.5 -101v-469q0 -177 11 -246h-148q-12 62 -12 162q-93 -191 -395 -191q-85 0 -154.5 20t-114 52.5t-75 76t-43.5 88.5t-13 93q0 334 531 334h262v61q0 50 -12.5 89t-42.5 74.5t-90 55t-146 19.5q-77 0 -131.5 -16t-85.5 -46.5t-46.5 -63t-25.5 -77.5zM889 465v53h-258
q-197 0 -289 -48t-92 -161q0 -91 68 -150t200 -59q371 0 371 365z" />
    <glyph glyph-name="uni1EB0" unicode="&#x1eb0;" horiz-adv-x="1556" 
d="M715 1878l-266 246h182l229 -246h-145zM975 1823h125q-31 -116 -118.5 -180t-217.5 -64q-143 0 -229 71.5t-105 172.5h127q44 -121 207 -121q159 0 211 121zM31 0l639 1458h192l662 -1458h-178l-216 473h-720l-205 -473h-174zM762 1333h-2q-47 -139 -293 -715h606
q-276 612 -311 715z" />
    <glyph glyph-name="uni1EB1" unicode="&#x1eb1;" horiz-adv-x="1216" 
d="M559 1491l-254 244h172l221 -244h-139zM805 1436h119q-25 -113 -106.5 -179.5t-207.5 -66.5q-134 0 -214 72t-99 174h123q46 -129 190 -129q86 0 129 34.5t66 94.5zM309 731h-153q4 46 18 88t46 87t79.5 78t124.5 54t174 21q103 0 181.5 -20t127 -52t79.5 -78t42.5 -93
t11.5 -101v-469q0 -177 11 -246h-148q-12 62 -12 162q-93 -191 -395 -191q-85 0 -154.5 20t-114 52.5t-75 76t-43.5 88.5t-13 93q0 334 531 334h262v61q0 50 -12.5 89t-42.5 74.5t-90 55t-146 19.5q-77 0 -131.5 -16t-85.5 -46.5t-46.5 -63t-25.5 -77.5zM889 465v53h-258
q-197 0 -289 -48t-92 -161q0 -91 68 -150t200 -59q371 0 371 365z" />
    <glyph glyph-name="uni1EB2" unicode="&#x1eb2;" horiz-adv-x="1556" 
d="M606 2032l-39 77q78 66 183 66q82 0 128 -43t46 -111q0 -93 -103 -174h-133q121 90 121 158q0 30 -20 49t-62 19q-57 0 -121 -41zM989 1810h119q-28 -97 -116 -167t-226 -70q-67 0 -123 17t-92.5 42.5t-64.5 59t-41.5 62t-20.5 56.5h123q22 -49 81.5 -85.5t137.5 -36.5
q89 0 143.5 36t79.5 86zM31 0l639 1458h192l662 -1458h-178l-216 473h-720l-205 -473h-174zM762 1333h-2q-47 -139 -293 -715h606q-276 612 -311 715z" />
    <glyph glyph-name="uni1EB3" unicode="&#x1eb3;" horiz-adv-x="1216" 
d="M455 1628l-33 78q75 68 174 68q84 0 128 -41t44 -113q0 -52 -31.5 -97.5t-81.5 -76.5h-129q127 90 127 160q0 65 -78 65q-67 0 -120 -43zM803 1430h119q-25 -113 -106.5 -179.5t-207.5 -66.5q-134 0 -214 72t-99 174h123q46 -130 190 -130q86 0 129 35t66 95zM309 731
h-153q4 46 18 88t46 87t79.5 78t124.5 54t174 21q103 0 181.5 -20t127 -52t79.5 -78t42.5 -93t11.5 -101v-469q0 -177 11 -246h-148q-12 62 -12 162q-93 -191 -395 -191q-85 0 -154.5 20t-114 52.5t-75 76t-43.5 88.5t-13 93q0 334 531 334h262v61q0 50 -12.5 89t-42.5 74.5
t-90 55t-146 19.5q-77 0 -131.5 -16t-85.5 -46.5t-46.5 -63t-25.5 -77.5zM889 465v53h-258q-197 0 -289 -48t-92 -161q0 -91 68 -150t200 -59q371 0 371 365z" />
    <glyph glyph-name="uni1EB4" unicode="&#x1eb4;" horiz-adv-x="1556" 
d="M981 1778h113q-28 -87 -110.5 -146t-215.5 -59q-139 0 -223.5 64.5t-102.5 140.5h117q19 -38 75.5 -66.5t133.5 -28.5q168 0 213 95zM543 1872h-99v22q0 81 45 121.5t115 40.5q63 0 178.5 -40t147.5 -40q67 0 67 62v18h97v-24q0 -77 -43 -119.5t-117 -42.5q-55 0 -170 43
t-152 43q-30 0 -49.5 -18t-19.5 -54v-12zM31 0l639 1458h192l662 -1458h-178l-216 473h-720l-205 -473h-174zM762 1333h-2q-47 -139 -293 -715h606q-276 612 -311 715z" />
    <glyph glyph-name="uni1EB5" unicode="&#x1eb5;" horiz-adv-x="1216" 
d="M807 1405h119q-26 -101 -107.5 -162t-206.5 -61q-133 0 -212 63.5t-101 159.5h123q43 -109 190 -109q59 0 101.5 19.5t59.5 39.5t34 50zM416 1501h-101v23q0 91 42 133.5t112 42.5q52 0 105.5 -20.5t97 -41t71.5 -20.5q32 0 50 13t18 48v19h102v-27q0 -170 -161 -170
q-55 0 -144.5 42t-126.5 42q-30 0 -47.5 -17t-17.5 -52v-15zM309 731h-153q4 46 18 88t46 87t79.5 78t124.5 54t174 21q103 0 181.5 -20t127 -52t79.5 -78t42.5 -93t11.5 -101v-469q0 -177 11 -246h-148q-12 62 -12 162q-93 -191 -395 -191q-85 0 -154.5 20t-114 52.5
t-75 76t-43.5 88.5t-13 93q0 334 531 334h262v61q0 50 -12.5 89t-42.5 74.5t-90 55t-146 19.5q-77 0 -131.5 -16t-85.5 -46.5t-46.5 -63t-25.5 -77.5zM889 465v53h-258q-197 0 -289 -48t-92 -161q0 -91 68 -150t200 -59q371 0 371 365z" />
    <glyph glyph-name="uni1EB6" unicode="&#x1eb6;" horiz-adv-x="1556" 
d="M31 0l639 1458h192l662 -1458h-178l-216 473h-720l-205 -473h-174zM762 1333h-2q-47 -139 -293 -715h606q-276 612 -311 715zM989 1862h121q-20 -119 -107.5 -194t-228.5 -75q-80 0 -144 24t-103.5 63.5t-61.5 85.5t-27 96h125q15 -64 72 -105t139 -41q171 0 215 146z
M846 -395h-156v229h156v-229z" />
    <glyph glyph-name="uni1EB7" unicode="&#x1eb7;" horiz-adv-x="1216" 
d="M309 731h-153q4 46 18 88t46 87t79.5 78t124.5 54t174 21q103 0 181.5 -20t127 -52t79.5 -78t42.5 -93t11.5 -101v-469q0 -177 11 -246h-148q-12 62 -12 162q-93 -191 -395 -191q-85 0 -154.5 20t-114 52.5t-75 76t-43.5 88.5t-13 93q0 334 531 334h262v61q0 50 -12.5 89
t-42.5 74.5t-90 55t-146 19.5q-77 0 -131.5 -16t-85.5 -46.5t-46.5 -63t-25.5 -77.5zM889 465v53h-258q-197 0 -289 -48t-92 -161q0 -91 68 -150t200 -59q371 0 371 365zM813 1534h119q-18 -135 -101.5 -219t-220.5 -84q-78 0 -139 25.5t-97.5 69t-56.5 96t-24 112.5h119
q16 -80 66 -128t132 -48q51 0 88.5 15t59.5 42.5t34 54.5t21 64zM690 -395h-155v229h155v-229z" />
    <glyph glyph-name="uni1EB8" unicode="&#x1eb8;" horiz-adv-x="1435" 
d="M211 0v1458h1102v-143h-938v-475h891v-144h-891v-553h981l-23 -143h-1122zM854 -395h-156v229h156v-229z" />
    <glyph glyph-name="uni1EB9" unicode="&#x1eb9;" horiz-adv-x="1216" 
d="M961 287h155q-17 -46 -43 -88.5t-69 -85t-96 -73.5t-128 -50t-162 -19q-128 0 -230.5 45.5t-166 122.5t-96.5 172.5t-33 200.5q0 239 145 393t375 154q112 0 202 -32.5t148 -85t96.5 -123.5t55 -144.5t16.5 -151.5v-43h-882q9 -167 113 -272t270 -105q232 0 330 185z
M610 932q-160 0 -251 -91.5t-107 -240.5h715q-3 45 -13.5 87t-36.5 88t-64 79.5t-101 55.5t-142 22zM684 -395h-156v229h156v-229z" />
    <glyph glyph-name="uni1EBA" unicode="&#x1eba;" horiz-adv-x="1435" 
d="M211 0v1458h1102v-143h-938v-475h891v-144h-891v-553h981l-23 -143h-1122zM592 1831l-37 94q82 60 199 60q96 0 149 -49.5t53 -129.5q0 -45 -21 -88.5t-41.5 -66t-55.5 -54.5h-152q133 111 133 189q0 37 -23 59.5t-71 22.5q-77 0 -133 -37z" />
    <glyph glyph-name="uni1EBB" unicode="&#x1ebb;" horiz-adv-x="1216" 
d="M961 287h155q-17 -46 -43 -88.5t-69 -85t-96 -73.5t-128 -50t-162 -19q-128 0 -230.5 45.5t-166 122.5t-96.5 172.5t-33 200.5q0 239 145 393t375 154q112 0 202 -32.5t148 -85t96.5 -123.5t55 -144.5t16.5 -151.5v-43h-882q9 -167 113 -272t270 -105q232 0 330 185z
M610 932q-160 0 -251 -91.5t-107 -240.5h715q-3 45 -13.5 87t-36.5 88t-64 79.5t-101 55.5t-142 22zM440 1432l-37 94q80 59 199 59q96 0 149.5 -49t53.5 -129q0 -45 -21.5 -88.5t-42 -66t-55.5 -54.5h-151q68 57 100.5 101t32.5 87q0 36 -23.5 59t-71.5 23q-78 0 -133 -36z
" />
    <glyph glyph-name="uni1EBC" unicode="&#x1ebc;" horiz-adv-x="1435" 
d="M211 0v1458h1102v-143h-938v-475h891v-144h-891v-553h981l-23 -143h-1122zM504 1636h-119v43q0 211 180 211q46 0 103 -19.5t101.5 -43t92.5 -43t78 -19.5q38 0 55 23t17 84v24h116v-41q0 -119 -45.5 -170t-128.5 -51q-47 0 -103.5 20t-100.5 44.5t-94 44.5t-85 20
q-67 0 -67 -94v-33z" />
    <glyph glyph-name="uni1EBD" unicode="&#x1ebd;" horiz-adv-x="1216" 
d="M961 287h155q-17 -46 -43 -88.5t-69 -85t-96 -73.5t-128 -50t-162 -19q-128 0 -230.5 45.5t-166 122.5t-96.5 172.5t-33 200.5q0 239 145 393t375 154q112 0 202 -32.5t148 -85t96.5 -123.5t55 -144.5t16.5 -151.5v-43h-882q9 -167 113 -272t270 -105q232 0 330 185z
M610 932q-160 0 -251 -91.5t-107 -240.5h715q-3 45 -13.5 87t-36.5 88t-64 79.5t-101 55.5t-142 22zM383 1262h-113v43q0 206 170 206q44 0 93 -18.5t84.5 -41.5t76 -41.5t70.5 -18.5q36 0 51.5 21.5t15.5 80.5v27h111v-43q0 -215 -170 -215q-44 0 -91.5 19t-81.5 42
t-76.5 42t-76.5 19q-63 0 -63 -84v-38z" />
    <glyph glyph-name="uni1EBE" unicode="&#x1ebe;" horiz-adv-x="1435" 
d="M365 1604l292 260h195l295 -260h-189l-206 174l-201 -174h-186zM1028 1833l250 252h192l-288 -252h-154zM211 0v1458h1102v-143h-938v-475h891v-144h-891v-553h981l-23 -143h-1122z" />
    <glyph glyph-name="uni1EBF" unicode="&#x1ebf;" horiz-adv-x="1216" 
d="M281 1217l245 278h166l248 -278h-158l-176 190l-170 -190h-155zM842 1452l225 264h170l-254 -264h-141zM961 287h155q-17 -46 -43 -88.5t-69 -85t-96 -73.5t-128 -50t-162 -19q-128 0 -230.5 45.5t-166 122.5t-96.5 172.5t-33 200.5q0 239 145 393t375 154
q112 0 202 -32.5t148 -85t96.5 -123.5t55 -144.5t16.5 -151.5v-43h-882q9 -167 113 -272t270 -105q232 0 330 185zM610 932q-160 0 -251 -91.5t-107 -240.5h715q-3 45 -13.5 87t-36.5 88t-64 79.5t-101 55.5t-142 22z" />
    <glyph glyph-name="uni1EC0" unicode="&#x1ec0;" horiz-adv-x="1435" 
d="M365 1602l292 260h195l295 -260h-189l-206 174l-201 -174h-186zM1243 1780l-319 258h204l277 -258h-162zM211 0v1458h1102v-143h-938v-475h891v-144h-891v-553h981l-23 -143h-1122z" />
    <glyph glyph-name="uni1EC1" unicode="&#x1ec1;" horiz-adv-x="1216" 
d="M281 1217l245 278h166l248 -278h-158l-176 190l-170 -190h-155zM993 1432l-264 272h174l230 -272h-140zM961 287h155q-17 -46 -43 -88.5t-69 -85t-96 -73.5t-128 -50t-162 -19q-128 0 -230.5 45.5t-166 122.5t-96.5 172.5t-33 200.5q0 239 145 393t375 154
q112 0 202 -32.5t148 -85t96.5 -123.5t55 -144.5t16.5 -151.5v-43h-882q9 -167 113 -272t270 -105q232 0 330 185zM610 932q-160 0 -251 -91.5t-107 -240.5h715q-3 45 -13.5 87t-36.5 88t-64 79.5t-101 55.5t-142 22z" />
    <glyph glyph-name="uni1EC2" unicode="&#x1ec2;" horiz-adv-x="1435" 
d="M365 1597l292 261h195l295 -261h-189l-206 175l-201 -175h-186zM975 2005l-35 94q33 27 87 43.5t110 16.5q93 0 143.5 -46t50.5 -124q0 -57 -34 -108t-87 -87h-141q129 102 129 178q0 33 -23 52.5t-65 19.5q-76 0 -135 -39zM211 0v1458h1102v-143h-938v-475h891v-144
h-891v-553h981l-23 -143h-1122z" />
    <glyph glyph-name="uni1EC3" unicode="&#x1ec3;" horiz-adv-x="1216" 
d="M281 1217l245 278h166l248 -278h-158l-176 190l-170 -190h-155zM772 1636l-41 80q73 66 184 66q89 0 135 -42t46 -118q0 -52 -30 -100t-75 -82h-137q125 98 125 168q0 69 -82 69q-77 0 -125 -41zM961 287h155q-17 -46 -43 -88.5t-69 -85t-96 -73.5t-128 -50t-162 -19
q-128 0 -230.5 45.5t-166 122.5t-96.5 172.5t-33 200.5q0 239 145 393t375 154q112 0 202 -32.5t148 -85t96.5 -123.5t55 -144.5t16.5 -151.5v-43h-882q9 -167 113 -272t270 -105q232 0 330 185zM610 932q-160 0 -251 -91.5t-107 -240.5h715q-3 45 -13.5 87t-36.5 88
t-64 79.5t-101 55.5t-142 22z" />
    <glyph glyph-name="uni1EC4" unicode="&#x1ec4;" horiz-adv-x="1435" 
d="M403 1587l271 207h164l278 -207h-184l-176 125l-170 -125h-183zM539 1884h-101v31q0 87 45.5 128.5t118.5 41.5q52 0 110 -22t110 -44t89 -22q68 0 68 69v19h102v-25q0 -84 -42.5 -130t-125.5 -46q-55 0 -154 44t-149 44q-31 0 -51 -18t-20 -56v-14zM211 0v1458h1102
v-143h-938v-475h891v-144h-891v-553h981l-23 -143h-1122z" />
    <glyph glyph-name="uni1EC5" unicode="&#x1ec5;" horiz-adv-x="1216" 
d="M285 1190l229 205h184l236 -205h-168l-162 131l-153 -131h-166zM412 1491h-101v22q0 92 42 134.5t112 42.5q52 0 105.5 -20.5t97 -41t71.5 -20.5q32 0 50 13t18 48v19h102v-27q0 -170 -161 -170q-55 0 -144.5 42t-126.5 42q-29 0 -47 -17.5t-18 -52.5v-14zM961 287h155
q-17 -46 -43 -88.5t-69 -85t-96 -73.5t-128 -50t-162 -19q-128 0 -230.5 45.5t-166 122.5t-96.5 172.5t-33 200.5q0 239 145 393t375 154q112 0 202 -32.5t148 -85t96.5 -123.5t55 -144.5t16.5 -151.5v-43h-882q9 -167 113 -272t270 -105q232 0 330 185zM610 932
q-160 0 -251 -91.5t-107 -240.5h715q-3 45 -13.5 87t-36.5 88t-64 79.5t-101 55.5t-142 22z" />
    <glyph glyph-name="uni1EC6" unicode="&#x1ec6;" horiz-adv-x="1435" 
d="M211 0v1458h1102v-143h-938v-475h891v-144h-891v-553h981l-23 -143h-1122zM356 1599l303 281h193l307 -281h-178l-227 197l-224 -197h-174zM858 -395h-156v229h156v-229z" />
    <glyph glyph-name="uni1EC7" unicode="&#x1ec7;" horiz-adv-x="1216" 
d="M961 287h155q-17 -46 -43 -88.5t-69 -85t-96 -73.5t-128 -50t-162 -19q-128 0 -230.5 45.5t-166 122.5t-96.5 172.5t-33 200.5q0 239 145 393t375 154q112 0 202 -32.5t148 -85t96.5 -123.5t55 -144.5t16.5 -151.5v-43h-882q9 -167 113 -272t270 -105q232 0 330 185z
M610 932q-160 0 -251 -91.5t-107 -240.5h715q-3 45 -13.5 87t-36.5 88t-64 79.5t-101 55.5t-142 22zM260 1233l264 332h162l266 -332h-153l-195 242l-190 -242h-154zM684 -395h-156v229h156v-229z" />
    <glyph glyph-name="uni1EC8" unicode="&#x1ec8;" horiz-adv-x="583" 
d="M211 0v1458h164v-1458h-164zM123 1815l-37 94q80 59 199 59q96 0 149 -49t53 -129q0 -45 -21 -88.5t-41.5 -66t-55.5 -54.5h-152q68 57 100.5 101t32.5 87q0 37 -23 59.5t-71 22.5q-78 0 -133 -36z" />
    <glyph glyph-name="uni1EC9" unicode="&#x1ec9;" horiz-adv-x="501" 
d="M328 0h-154v1030h154v-1030zM80 1432l-37 94q80 59 199 59q96 0 149 -49t53 -129q0 -45 -21 -88.5t-41.5 -66t-55.5 -54.5h-152q68 57 100.5 101t32.5 87q0 37 -23 59.5t-71 22.5q-78 0 -133 -36z" />
    <glyph glyph-name="uni1ECA" unicode="&#x1eca;" horiz-adv-x="583" 
d="M211 0v1458h164v-1458h-164zM371 -395h-156v229h156v-229z" />
    <glyph glyph-name="uni1ECB" unicode="&#x1ecb;" horiz-adv-x="501" 
d="M328 0h-154v1030h154v-1030zM328 1319h-154v225h154v-225zM328 -395h-156v229h156v-229z" />
    <glyph glyph-name="uni1ECC" unicode="&#x1ecc;" horiz-adv-x="1755" 
d="M879 -31q-170 0 -313.5 59.5t-240.5 163t-151.5 243.5t-54.5 300q0 152 55 289t152.5 240t241.5 164t313 61q166 0 309 -61t240 -164t151.5 -241t54.5 -290q0 -156 -52 -294t-147 -243t-239.5 -166t-318.5 -61zM883 113q137 0 248 48.5t182.5 133t110 195.5t38.5 239
q0 120 -39.5 229.5t-112.5 196.5t-187.5 139t-254.5 52q-129 0 -238.5 -48.5t-182.5 -131.5t-113.5 -193t-40.5 -232q0 -124 39 -236t111.5 -200t186.5 -140t253 -52zM940 -395h-156v229h156v-229z" />
    <glyph glyph-name="uni1ECD" unicode="&#x1ecd;" horiz-adv-x="1257" 
d="M625 -29q-123 0 -225 44.5t-168.5 120t-103 173t-36.5 205.5q0 150 64.5 273.5t189.5 197.5t287 74q125 0 227.5 -46t168 -122.5t101 -173t35.5 -201.5q0 -107 -34 -203.5t-98.5 -173.5t-170 -122.5t-237.5 -45.5zM629 104q92 0 165.5 32.5t119 89.5t69 129.5t23.5 156.5
q0 113 -44 206t-132 150.5t-205 57.5q-180 0 -277.5 -118t-97.5 -294q0 -78 25.5 -151.5t72.5 -131t120 -92.5t161 -35zM705 -395h-156v229h156v-229z" />
    <glyph glyph-name="uni1ECE" unicode="&#x1ece;" horiz-adv-x="1755" 
d="M879 -31q-170 0 -313.5 59.5t-240.5 163t-151.5 243.5t-54.5 300q0 152 55 289t152.5 240t241.5 164t313 61q166 0 309 -61t240 -164t151.5 -241t54.5 -290q0 -156 -52 -294t-147 -243t-239.5 -166t-318.5 -61zM883 113q137 0 248 48.5t182.5 133t110 195.5t38.5 239
q0 120 -39.5 229.5t-112.5 196.5t-187.5 139t-254.5 52q-129 0 -238.5 -48.5t-182.5 -131.5t-113.5 -193t-40.5 -232q0 -124 39 -236t111.5 -200t186.5 -140t253 -52zM692 1835l-37 94q82 60 199 60q96 0 149.5 -49.5t53.5 -129.5q0 -45 -21.5 -88.5t-41.5 -65t-56 -54.5
h-152q68 57 101 101.5t33 86.5q0 36 -23.5 59t-71.5 23q-77 0 -133 -37z" />
    <glyph glyph-name="uni1ECF" unicode="&#x1ecf;" horiz-adv-x="1257" 
d="M625 -29q-123 0 -225 44.5t-168.5 120t-103 173t-36.5 205.5q0 150 64.5 273.5t189.5 197.5t287 74q125 0 227.5 -46t168 -122.5t101 -173t35.5 -201.5q0 -107 -34 -203.5t-98.5 -173.5t-170 -122.5t-237.5 -45.5zM629 104q92 0 165.5 32.5t119 89.5t69 129.5t23.5 156.5
q0 113 -44 206t-132 150.5t-205 57.5q-180 0 -277.5 -118t-97.5 -294q0 -78 25.5 -151.5t72.5 -131t120 -92.5t161 -35zM457 1432l-37 94q80 59 198 59q96 0 149.5 -49t53.5 -129q0 -45 -21.5 -88.5t-42 -66t-55.5 -54.5h-151q68 57 100.5 101t32.5 87q0 37 -23 59.5
t-71 22.5q-78 0 -133 -36z" />
    <glyph glyph-name="uni1ED0" unicode="&#x1ed0;" horiz-adv-x="1755" 
d="M471 1599l293 261h194l295 -261h-188l-207 175l-201 -175h-186zM1135 1829l249 252h193l-289 -252h-153zM879 -31q-170 0 -313.5 59.5t-240.5 163t-151.5 243.5t-54.5 300q0 152 55 289t152.5 240t241.5 164t313 61q166 0 309 -61t240 -164t151.5 -241t54.5 -290
q0 -156 -52 -294t-147 -243t-239.5 -166t-318.5 -61zM883 113q137 0 248 48.5t182.5 133t110 195.5t38.5 239q0 120 -39.5 229.5t-112.5 196.5t-187.5 139t-254.5 52q-129 0 -238.5 -48.5t-182.5 -131.5t-113.5 -193t-40.5 -232q0 -124 39 -236t111.5 -200t186.5 -140
t253 -52z" />
    <glyph glyph-name="uni1ED1" unicode="&#x1ed1;" horiz-adv-x="1257" 
d="M297 1217l246 278h166l247 -278h-157l-176 190l-170 -190h-156zM858 1452l225 264h170l-254 -264h-141zM625 -29q-123 0 -225 44.5t-168.5 120t-103 173t-36.5 205.5q0 150 64.5 273.5t189.5 197.5t287 74q125 0 227.5 -46t168 -122.5t101 -173t35.5 -201.5
q0 -107 -34 -203.5t-98.5 -173.5t-170 -122.5t-237.5 -45.5zM629 104q92 0 165.5 32.5t119 89.5t69 129.5t23.5 156.5q0 113 -44 206t-132 150.5t-205 57.5q-180 0 -277.5 -118t-97.5 -294q0 -78 25.5 -151.5t72.5 -131t120 -92.5t161 -35z" />
    <glyph glyph-name="uni1ED2" unicode="&#x1ed2;" horiz-adv-x="1755" 
d="M471 1597l293 261h194l295 -261h-188l-207 175l-201 -175h-186zM1350 1776l-320 258h205l276 -258h-161zM879 -31q-170 0 -313.5 59.5t-240.5 163t-151.5 243.5t-54.5 300q0 152 55 289t152.5 240t241.5 164t313 61q166 0 309 -61t240 -164t151.5 -241t54.5 -290
q0 -156 -52 -294t-147 -243t-239.5 -166t-318.5 -61zM883 113q137 0 248 48.5t182.5 133t110 195.5t38.5 239q0 120 -39.5 229.5t-112.5 196.5t-187.5 139t-254.5 52q-129 0 -238.5 -48.5t-182.5 -131.5t-113.5 -193t-40.5 -232q0 -124 39 -236t111.5 -200t186.5 -140
t253 -52z" />
    <glyph glyph-name="uni1ED3" unicode="&#x1ed3;" horiz-adv-x="1257" 
d="M297 1217l246 278h166l247 -278h-157l-176 190l-170 -190h-156zM1010 1432l-265 272h175l229 -272h-139zM625 -29q-123 0 -225 44.5t-168.5 120t-103 173t-36.5 205.5q0 150 64.5 273.5t189.5 197.5t287 74q125 0 227.5 -46t168 -122.5t101 -173t35.5 -201.5
q0 -107 -34 -203.5t-98.5 -173.5t-170 -122.5t-237.5 -45.5zM629 104q92 0 165.5 32.5t119 89.5t69 129.5t23.5 156.5q0 113 -44 206t-132 150.5t-205 57.5q-180 0 -277.5 -118t-97.5 -294q0 -78 25.5 -151.5t72.5 -131t120 -92.5t161 -35z" />
    <glyph glyph-name="uni1ED4" unicode="&#x1ed4;" horiz-adv-x="1755" 
d="M471 1602l293 260h194l295 -260h-188l-207 174l-201 -174h-186zM1081 2009l-34 94q33 27 86.5 43.5t109.5 16.5q93 0 144 -46t51 -124q0 -57 -34 -108t-87 -87h-141q129 102 129 178q0 33 -23 52.5t-65 19.5q-77 0 -136 -39zM879 -31q-170 0 -313.5 59.5t-240.5 163
t-151.5 243.5t-54.5 300q0 152 55 289t152.5 240t241.5 164t313 61q166 0 309 -61t240 -164t151.5 -241t54.5 -290q0 -156 -52 -294t-147 -243t-239.5 -166t-318.5 -61zM883 113q137 0 248 48.5t182.5 133t110 195.5t38.5 239q0 120 -39.5 229.5t-112.5 196.5t-187.5 139
t-254.5 52q-129 0 -238.5 -48.5t-182.5 -131.5t-113.5 -193t-40.5 -232q0 -124 39 -236t111.5 -200t186.5 -140t253 -52z" />
    <glyph glyph-name="uni1ED5" unicode="&#x1ed5;" horiz-adv-x="1257" 
d="M297 1217l246 278h166l247 -278h-157l-176 190l-170 -190h-156zM788 1636l-40 80q73 66 184 66q89 0 134.5 -42t45.5 -118q0 -52 -30 -100t-74 -82h-138q125 98 125 168q0 69 -82 69q-77 0 -125 -41zM625 -29q-123 0 -225 44.5t-168.5 120t-103 173t-36.5 205.5
q0 150 64.5 273.5t189.5 197.5t287 74q125 0 227.5 -46t168 -122.5t101 -173t35.5 -201.5q0 -107 -34 -203.5t-98.5 -173.5t-170 -122.5t-237.5 -45.5zM629 104q92 0 165.5 32.5t119 89.5t69 129.5t23.5 156.5q0 113 -44 206t-132 150.5t-205 57.5q-180 0 -277.5 -118
t-97.5 -294q0 -78 25.5 -151.5t72.5 -131t120 -92.5t161 -35z" />
    <glyph glyph-name="uni1ED6" unicode="&#x1ed6;" horiz-adv-x="1755" 
d="M506 1595l270 207h164l279 -207h-185l-176 125l-170 -125h-182zM641 1892h-100v31q0 87 45.5 128.5t118.5 41.5q52 0 110 -22t110 -44t89 -22q67 0 67 70v18h103v-25q0 -84 -42.5 -130t-125.5 -46q-55 0 -154 44t-149 44q-31 0 -51.5 -17.5t-20.5 -55.5v-15zM879 -31
q-170 0 -313.5 59.5t-240.5 163t-151.5 243.5t-54.5 300q0 152 55 289t152.5 240t241.5 164t313 61q166 0 309 -61t240 -164t151.5 -241t54.5 -290q0 -156 -52 -294t-147 -243t-239.5 -166t-318.5 -61zM883 113q137 0 248 48.5t182.5 133t110 195.5t38.5 239
q0 120 -39.5 229.5t-112.5 196.5t-187.5 139t-254.5 52q-129 0 -238.5 -48.5t-182.5 -131.5t-113.5 -193t-40.5 -232q0 -124 39 -236t111.5 -200t186.5 -140t253 -52z" />
    <glyph glyph-name="uni1ED7" unicode="&#x1ed7;" horiz-adv-x="1257" 
d="M303 1190l229 205h185l235 -205h-168l-161 131l-154 -131h-166zM430 1491h-100v22q0 92 41.5 134.5t111.5 42.5q52 0 105.5 -20.5t97.5 -41t72 -20.5q32 0 49.5 13t17.5 48v19h103v-27q0 -170 -162 -170q-55 0 -144 42t-126 42q-30 0 -48 -17.5t-18 -52.5v-14zM625 -29
q-123 0 -225 44.5t-168.5 120t-103 173t-36.5 205.5q0 150 64.5 273.5t189.5 197.5t287 74q125 0 227.5 -46t168 -122.5t101 -173t35.5 -201.5q0 -107 -34 -203.5t-98.5 -173.5t-170 -122.5t-237.5 -45.5zM629 104q92 0 165.5 32.5t119 89.5t69 129.5t23.5 156.5
q0 113 -44 206t-132 150.5t-205 57.5q-180 0 -277.5 -118t-97.5 -294q0 -78 25.5 -151.5t72.5 -131t120 -92.5t161 -35z" />
    <glyph glyph-name="uni1ED8" unicode="&#x1ed8;" horiz-adv-x="1755" 
d="M879 -31q-170 0 -313.5 59.5t-240.5 163t-151.5 243.5t-54.5 300q0 152 55 289t152.5 240t241.5 164t313 61q166 0 309 -61t240 -164t151.5 -241t54.5 -290q0 -156 -52 -294t-147 -243t-239.5 -166t-318.5 -61zM883 113q137 0 248 48.5t182.5 133t110 195.5t38.5 239
q0 120 -39.5 229.5t-112.5 196.5t-187.5 139t-254.5 52q-129 0 -238.5 -48.5t-182.5 -131.5t-113.5 -193t-40.5 -232q0 -124 39 -236t111.5 -200t186.5 -140t253 -52zM461 1585l303 281h192l308 -281h-179l-227 197l-223 -197h-174zM940 -395h-156v229h156v-229z" />
    <glyph glyph-name="uni1ED9" unicode="&#x1ed9;" horiz-adv-x="1257" 
d="M625 -29q-123 0 -225 44.5t-168.5 120t-103 173t-36.5 205.5q0 150 64.5 273.5t189.5 197.5t287 74q125 0 227.5 -46t168 -122.5t101 -173t35.5 -201.5q0 -107 -34 -203.5t-98.5 -173.5t-170 -122.5t-237.5 -45.5zM629 104q92 0 165.5 32.5t119 89.5t69 129.5t23.5 156.5
q0 113 -44 206t-132 150.5t-205 57.5q-180 0 -277.5 -118t-97.5 -294q0 -78 25.5 -151.5t72.5 -131t120 -92.5t161 -35zM281 1233l264 332h162l266 -332h-154l-194 242l-191 -242h-153zM705 -395h-156v229h156v-229z" />
    <glyph glyph-name="uni1EDA" unicode="&#x1eda;" horiz-adv-x="1755" 
d="M1448 1649h147q15 -51 15 -113q0 -91 -47.5 -162t-141.5 -102q103 -105 159 -244.5t56 -294.5q0 -156 -52 -294t-147 -243t-239.5 -166t-318.5 -61q-170 0 -313.5 59.5t-240.5 163t-151.5 243.5t-54.5 300q0 152 55 289t152.5 240t241.5 164t313 61q244 0 430 -127
q157 29 157 170q0 65 -20 117zM883 113q137 0 248 48.5t182.5 133t110 195.5t38.5 239q0 120 -39.5 229.5t-112.5 196.5t-187.5 139t-254.5 52q-129 0 -238.5 -48.5t-182.5 -131.5t-113.5 -193t-40.5 -232q0 -124 39 -236t111.5 -200t186.5 -140t253 -52zM748 1614l348 284
h219l-395 -284h-172z" />
    <glyph glyph-name="uni1EDB" unicode="&#x1edb;" horiz-adv-x="1257" 
d="M1102 1225h147q15 -51 15 -113q0 -92 -50 -164.5t-149 -103.5q100 -142 100 -328q0 -107 -34 -203.5t-98.5 -173.5t-170 -122.5t-237.5 -45.5q-123 0 -225 44.5t-168.5 120t-103 173t-36.5 205.5q0 150 64.5 273.5t189.5 197.5t287 74q206 0 344 -119q145 34 145 168
q0 65 -20 117zM629 104q92 0 165.5 32.5t119 89.5t69 129.5t23.5 156.5q0 113 -44 206t-132 150.5t-205 57.5q-180 0 -277.5 -118t-97.5 -294q0 -78 25.5 -151.5t72.5 -131t120 -92.5t161 -35zM514 1235l285 330h192l-323 -330h-154z" />
    <glyph glyph-name="uni1EDC" unicode="&#x1edc;" horiz-adv-x="1755" 
d="M1448 1649h147q15 -51 15 -113q0 -91 -47.5 -162t-141.5 -102q103 -105 159 -244.5t56 -294.5q0 -156 -52 -294t-147 -243t-239.5 -166t-318.5 -61q-170 0 -313.5 59.5t-240.5 163t-151.5 243.5t-54.5 300q0 152 55 289t152.5 240t241.5 164t313 61q244 0 430 -127
q157 29 157 170q0 65 -20 117zM883 113q137 0 248 48.5t182.5 133t110 195.5t38.5 239q0 120 -39.5 229.5t-112.5 196.5t-187.5 139t-254.5 52q-129 0 -238.5 -48.5t-182.5 -131.5t-113.5 -193t-40.5 -232q0 -124 39 -236t111.5 -200t186.5 -140t253 -52zM410 1898h229
l356 -284h-170z" />
    <glyph glyph-name="uni1EDD" unicode="&#x1edd;" horiz-adv-x="1257" 
d="M1102 1225h147q15 -51 15 -113q0 -92 -50 -164.5t-149 -103.5q100 -142 100 -328q0 -107 -34 -203.5t-98.5 -173.5t-170 -122.5t-237.5 -45.5q-123 0 -225 44.5t-168.5 120t-103 173t-36.5 205.5q0 150 64.5 273.5t189.5 197.5t287 74q206 0 344 -119q145 34 145 168
q0 65 -20 117zM629 104q92 0 165.5 32.5t119 89.5t69 129.5t23.5 156.5q0 113 -44 206t-132 150.5t-205 57.5q-180 0 -277.5 -118t-97.5 -294q0 -78 25.5 -151.5t72.5 -131t120 -92.5t161 -35zM623 1235l-326 330h190l291 -330h-155z" />
    <glyph glyph-name="uni1EDE" unicode="&#x1ede;" horiz-adv-x="1755" 
d="M1448 1649h147q15 -51 15 -113q0 -91 -47.5 -162t-141.5 -102q103 -105 159 -244.5t56 -294.5q0 -156 -52 -294t-147 -243t-239.5 -166t-318.5 -61q-170 0 -313.5 59.5t-240.5 163t-151.5 243.5t-54.5 300q0 152 55 289t152.5 240t241.5 164t313 61q244 0 430 -127
q157 29 157 170q0 65 -20 117zM883 113q137 0 248 48.5t182.5 133t110 195.5t38.5 239q0 120 -39.5 229.5t-112.5 196.5t-187.5 139t-254.5 52q-129 0 -238.5 -48.5t-182.5 -131.5t-113.5 -193t-40.5 -232q0 -124 39 -236t111.5 -200t186.5 -140t253 -52zM707 1817l-37 94
q80 59 198 59q96 0 149.5 -49t53.5 -129q0 -45 -21.5 -88.5t-42 -66t-55.5 -54.5h-151q133 111 133 189q0 36 -23 58.5t-71 22.5q-78 0 -133 -36z" />
    <glyph glyph-name="uni1EDF" unicode="&#x1edf;" horiz-adv-x="1257" 
d="M1102 1225h147q15 -51 15 -113q0 -92 -50 -164.5t-149 -103.5q100 -142 100 -328q0 -107 -34 -203.5t-98.5 -173.5t-170 -122.5t-237.5 -45.5q-123 0 -225 44.5t-168.5 120t-103 173t-36.5 205.5q0 150 64.5 273.5t189.5 197.5t287 74q206 0 344 -119q145 34 145 168
q0 65 -20 117zM629 104q92 0 165.5 32.5t119 89.5t69 129.5t23.5 156.5q0 113 -44 206t-132 150.5t-205 57.5q-180 0 -277.5 -118t-97.5 -294q0 -78 25.5 -151.5t72.5 -131t120 -92.5t161 -35zM475 1432l-37 94q80 59 199 59q96 0 149.5 -49t53.5 -129q0 -45 -21.5 -88.5
t-42 -66t-55.5 -54.5h-152q68 57 100.5 101t32.5 87q0 37 -23 59.5t-71 22.5q-78 0 -133 -36z" />
    <glyph glyph-name="uni1EE0" unicode="&#x1ee0;" horiz-adv-x="1755" 
d="M1448 1649h147q15 -51 15 -113q0 -91 -47.5 -162t-141.5 -102q103 -105 159 -244.5t56 -294.5q0 -156 -52 -294t-147 -243t-239.5 -166t-318.5 -61q-170 0 -313.5 59.5t-240.5 163t-151.5 243.5t-54.5 300q0 152 55 289t152.5 240t241.5 164t313 61q244 0 430 -127
q157 29 157 170q0 65 -20 117zM883 113q137 0 248 48.5t182.5 133t110 195.5t38.5 239q0 120 -39.5 229.5t-112.5 196.5t-187.5 139t-254.5 52q-129 0 -238.5 -48.5t-182.5 -131.5t-113.5 -193t-40.5 -232q0 -124 39 -236t111.5 -200t186.5 -140t253 -52zM623 1626h-119v43
q0 211 180 211q46 0 103 -19.5t101.5 -43t92.5 -43t78 -19.5q38 0 54.5 23t16.5 84v24h117v-41q0 -119 -45.5 -170t-128.5 -51q-47 0 -103.5 20t-100.5 44.5t-94 44.5t-85 20q-67 0 -67 -94v-33z" />
    <glyph glyph-name="uni1EE1" unicode="&#x1ee1;" horiz-adv-x="1257" 
d="M1102 1225h147q15 -51 15 -113q0 -92 -50 -164.5t-149 -103.5q100 -142 100 -328q0 -107 -34 -203.5t-98.5 -173.5t-170 -122.5t-237.5 -45.5q-123 0 -225 44.5t-168.5 120t-103 173t-36.5 205.5q0 150 64.5 273.5t189.5 197.5t287 74q206 0 344 -119q145 34 145 168
q0 65 -20 117zM629 104q92 0 165.5 32.5t119 89.5t69 129.5t23.5 156.5q0 113 -44 206t-132 150.5t-205 57.5q-180 0 -277.5 -118t-97.5 -294q0 -78 25.5 -151.5t72.5 -131t120 -92.5t161 -35zM422 1262h-113v43q0 206 170 206q44 0 93 -18.5t84.5 -41.5t76 -41.5
t70.5 -18.5q36 0 51.5 21.5t15.5 80.5v27h111v-43q0 -215 -170 -215q-44 0 -91.5 19t-81.5 42t-76.5 42t-76.5 19q-63 0 -63 -84v-38z" />
    <glyph glyph-name="uni1EE2" unicode="&#x1ee2;" horiz-adv-x="1755" 
d="M1448 1649h147q15 -51 15 -113q0 -91 -47.5 -162t-141.5 -102q103 -105 159 -244.5t56 -294.5q0 -156 -52 -294t-147 -243t-239.5 -166t-318.5 -61q-170 0 -313.5 59.5t-240.5 163t-151.5 243.5t-54.5 300q0 152 55 289t152.5 240t241.5 164t313 61q244 0 430 -127
q157 29 157 170q0 65 -20 117zM883 113q137 0 248 48.5t182.5 133t110 195.5t38.5 239q0 120 -39.5 229.5t-112.5 196.5t-187.5 139t-254.5 52q-129 0 -238.5 -48.5t-182.5 -131.5t-113.5 -193t-40.5 -232q0 -124 39 -236t111.5 -200t186.5 -140t253 -52zM954 -395h-155v229
h155v-229z" />
    <glyph glyph-name="uni1EE3" unicode="&#x1ee3;" horiz-adv-x="1257" 
d="M1102 1225h147q15 -51 15 -113q0 -92 -50 -164.5t-149 -103.5q100 -142 100 -328q0 -107 -34 -203.5t-98.5 -173.5t-170 -122.5t-237.5 -45.5q-123 0 -225 44.5t-168.5 120t-103 173t-36.5 205.5q0 150 64.5 273.5t189.5 197.5t287 74q206 0 344 -119q145 34 145 168
q0 65 -20 117zM629 104q92 0 165.5 32.5t119 89.5t69 129.5t23.5 156.5q0 113 -44 206t-132 150.5t-205 57.5q-180 0 -277.5 -118t-97.5 -294q0 -78 25.5 -151.5t72.5 -131t120 -92.5t161 -35zM705 -395h-156v229h156v-229z" />
    <glyph glyph-name="uni1EE4" unicode="&#x1ee4;" horiz-adv-x="1660" 
d="M199 616v842h163v-829q0 -117 27.5 -208t72.5 -148t108 -94t128.5 -51.5t139.5 -14.5q226 0 343 121.5t117 394.5v829h164v-823q0 -666 -631 -666q-146 0 -260.5 37.5t-198.5 114.5t-128.5 202t-44.5 293zM907 -395h-155v229h155v-229z" />
    <glyph glyph-name="uni1EE5" unicode="&#x1ee5;" horiz-adv-x="1265" 
d="M172 389v641h156v-612q0 -50 8 -93.5t27.5 -84t49 -69t75.5 -45.5t104 -17q180 0 263 109.5t83 348.5v463h154v-729q0 -201 2 -301h-148q-8 58 -8 190q-42 -105 -129.5 -162t-247.5 -57q-176 0 -282.5 102t-106.5 316zM709 -395h-156v229h156v-229z" />
    <glyph glyph-name="uni1EE6" unicode="&#x1ee6;" horiz-adv-x="1660" 
d="M199 616v842h163v-829q0 -117 27.5 -208t72.5 -148t108 -94t128.5 -51.5t139.5 -14.5q226 0 343 121.5t117 394.5v829h164v-823q0 -666 -631 -666q-146 0 -260.5 37.5t-198.5 114.5t-128.5 202t-44.5 293zM659 1817l-36 94q80 59 198 59q96 0 149.5 -49t53.5 -129
q0 -45 -21.5 -88.5t-42 -66t-55.5 -54.5h-151q133 111 133 189q0 36 -23 58.5t-71 22.5q-79 0 -134 -36z" />
    <glyph glyph-name="uni1EE7" unicode="&#x1ee7;" horiz-adv-x="1265" 
d="M172 389v641h156v-612q0 -50 8 -93.5t27.5 -84t49 -69t75.5 -45.5t104 -17q180 0 263 109.5t83 348.5v463h154v-729q0 -201 2 -301h-148q-8 58 -8 190q-42 -105 -129.5 -162t-247.5 -57q-176 0 -282.5 102t-106.5 316zM461 1432l-37 94q80 59 199 59q96 0 149 -49
t53 -129q0 -45 -21 -88.5t-41.5 -66t-55.5 -54.5h-152q68 57 100.5 101t32.5 87q0 37 -23 59.5t-71 22.5q-78 0 -133 -36z" />
    <glyph glyph-name="uni1EE8" unicode="&#x1ee8;" horiz-adv-x="1660" 
d="M199 616v842h163v-829q0 -117 27.5 -208t72.5 -148t108 -94t128.5 -51.5t139.5 -14.5q226 0 343 121.5t117 394.5v829h82q160 29 160 170q0 65 -20 117h147q14 -47 14 -113q0 -98 -55 -173t-164 -101v-723q0 -666 -631 -666q-146 0 -260.5 37.5t-198.5 114.5t-128.5 202
t-44.5 293zM702 1599l349 285h219l-396 -285h-172z" />
    <glyph glyph-name="uni1EE9" unicode="&#x1ee9;" horiz-adv-x="1265" 
d="M172 389v641h156v-612q0 -50 8 -93.5t27.5 -84t49 -69t75.5 -45.5t104 -17q180 0 263 109.5t83 348.5v463h68q190 19 190 174q0 65 -20 117h147q14 -47 14 -113q0 -104 -61.5 -181t-183.5 -99v-627q0 -201 2 -301h-148q-8 58 -8 190q-42 -105 -129.5 -162t-247.5 -57
q-176 0 -282.5 102t-106.5 316zM516 1235l285 330h192l-323 -330h-154z" />
    <glyph glyph-name="uni1EEA" unicode="&#x1eea;" horiz-adv-x="1660" 
d="M199 616v842h163v-829q0 -117 27.5 -208t72.5 -148t108 -94t128.5 -51.5t139.5 -14.5q226 0 343 121.5t117 394.5v829h82q160 29 160 170q0 65 -20 117h147q14 -47 14 -113q0 -98 -55 -173t-164 -101v-723q0 -666 -631 -666q-146 0 -260.5 37.5t-198.5 114.5t-128.5 202
t-44.5 293zM379 1884h229l357 -285h-170z" />
    <glyph glyph-name="uni1EEB" unicode="&#x1eeb;" horiz-adv-x="1265" 
d="M172 389v641h156v-612q0 -50 8 -93.5t27.5 -84t49 -69t75.5 -45.5t104 -17q180 0 263 109.5t83 348.5v463h68q190 19 190 174q0 65 -20 117h147q14 -47 14 -113q0 -104 -61.5 -181t-183.5 -99v-627q0 -201 2 -301h-148q-8 58 -8 190q-42 -105 -129.5 -162t-247.5 -57
q-176 0 -282.5 102t-106.5 316zM627 1235l-326 330h191l290 -330h-155z" />
    <glyph glyph-name="uni1EEC" unicode="&#x1eec;" horiz-adv-x="1660" 
d="M199 616v842h163v-829q0 -117 27.5 -208t72.5 -148t108 -94t128.5 -51.5t139.5 -14.5q226 0 343 121.5t117 394.5v829h82q160 29 160 170q0 65 -20 117h147q14 -47 14 -113q0 -98 -55 -173t-164 -101v-723q0 -666 -631 -666q-146 0 -260.5 37.5t-198.5 114.5t-128.5 202
t-44.5 293zM659 1817l-36 94q80 59 198 59q96 0 149.5 -49t53.5 -129q0 -45 -21.5 -88.5t-42 -66t-55.5 -54.5h-151q133 111 133 189q0 36 -23 58.5t-71 22.5q-79 0 -134 -36z" />
    <glyph glyph-name="uni1EED" unicode="&#x1eed;" horiz-adv-x="1265" 
d="M172 389v641h156v-612q0 -50 8 -93.5t27.5 -84t49 -69t75.5 -45.5t104 -17q180 0 263 109.5t83 348.5v463h68q190 19 190 174q0 65 -20 117h147q14 -47 14 -113q0 -104 -61.5 -181t-183.5 -99v-627q0 -201 2 -301h-148q-8 58 -8 190q-42 -105 -129.5 -162t-247.5 -57
q-176 0 -282.5 102t-106.5 316zM479 1432l-37 94q80 59 199 59q96 0 149.5 -49t53.5 -129q0 -45 -21.5 -88.5t-42 -66t-55.5 -54.5h-152q68 57 101 101.5t33 86.5q0 36 -23.5 59t-71.5 23q-78 0 -133 -36z" />
    <glyph glyph-name="uni1EEE" unicode="&#x1eee;" horiz-adv-x="1660" 
d="M199 616v842h163v-829q0 -117 27.5 -208t72.5 -148t108 -94t128.5 -51.5t139.5 -14.5q226 0 343 121.5t117 394.5v829h82q160 29 160 170q0 65 -20 117h147q14 -47 14 -113q0 -98 -55 -173t-164 -101v-723q0 -666 -631 -666q-146 0 -260.5 37.5t-198.5 114.5t-128.5 202
t-44.5 293zM575 1610h-118v43q0 211 180 211q46 0 103 -19.5t101.5 -43t92.5 -43t78 -19.5q38 0 54.5 22.5t16.5 83.5v25h117v-41q0 -119 -45.5 -170t-128.5 -51q-47 0 -103.5 20t-100.5 44.5t-94 44.5t-85 20q-32 0 -50 -24.5t-18 -70.5v-32z" />
    <glyph glyph-name="uni1EEF" unicode="&#x1eef;" horiz-adv-x="1265" 
d="M172 389v641h156v-612q0 -50 8 -93.5t27.5 -84t49 -69t75.5 -45.5t104 -17q180 0 263 109.5t83 348.5v463h68q190 19 190 174q0 65 -20 117h147q14 -47 14 -113q0 -104 -61.5 -181t-183.5 -99v-627q0 -201 2 -301h-148q-8 58 -8 190q-42 -105 -129.5 -162t-247.5 -57
q-176 0 -282.5 102t-106.5 316zM408 1262h-113v43q0 206 170 206q44 0 93 -18.5t84 -41.5t75.5 -41.5t70.5 -18.5q36 0 52 21.5t16 80.5v27h111v-43q0 -215 -170 -215q-44 0 -91.5 19t-81.5 42t-76.5 42t-76.5 19q-63 0 -63 -84v-38z" />
    <glyph glyph-name="uni1EF0" unicode="&#x1ef0;" horiz-adv-x="1660" 
d="M199 616v842h163v-829q0 -117 27.5 -208t72.5 -148t108 -94t128.5 -51.5t139.5 -14.5q226 0 343 121.5t117 394.5v829h82q160 29 160 170q0 65 -20 117h147q14 -47 14 -113q0 -98 -55 -173t-164 -101v-723q0 -666 -631 -666q-146 0 -260.5 37.5t-198.5 114.5t-128.5 202
t-44.5 293zM907 -395h-155v229h155v-229z" />
    <glyph glyph-name="uni1EF1" unicode="&#x1ef1;" horiz-adv-x="1265" 
d="M172 389v641h156v-612q0 -50 8 -93.5t27.5 -84t49 -69t75.5 -45.5t104 -17q180 0 263 109.5t83 348.5v463h68q190 19 190 174q0 65 -20 117h147q14 -47 14 -113q0 -104 -61.5 -181t-183.5 -99v-627q0 -201 2 -301h-148q-8 58 -8 190q-42 -105 -129.5 -162t-247.5 -57
q-176 0 -282.5 102t-106.5 316zM709 -395h-156v229h156v-229z" />
    <glyph glyph-name="Ygrave" unicode="&#x1ef2;" horiz-adv-x="1351" 
d="M760 0h-164v565q0 19 -14 33l-613 860h197q60 -86 189 -267t214.5 -303.5t114.5 -174.5q73 121 512 745h186l-612 -862q-10 -17 -10 -35v-561zM225 1878h230l356 -285h-170z" />
    <glyph glyph-name="ygrave" unicode="&#x1ef3;" horiz-adv-x="1169" 
d="M98 -475v143q49 -8 117 -8q102 0 162.5 59t140.5 232l-483 1079h172q366 -835 395 -915h2q186 486 365 915h164l-422 -1005q-48 -115 -83.5 -190.5t-73 -136t-69 -93.5t-73 -54.5t-84 -28.5t-103.5 -7q-69 0 -127 10zM543 1235l-326 330h191l290 -330h-155z" />
    <glyph glyph-name="uni1EF4" unicode="&#x1ef4;" horiz-adv-x="1351" 
d="M760 0h-164v565q0 19 -14 33l-613 860h197q60 -86 189 -267t214.5 -303.5t114.5 -174.5q73 121 512 745h186l-612 -862q-10 -17 -10 -35v-561zM756 -395h-156v229h156v-229z" />
    <glyph glyph-name="uni1EF5" unicode="&#x1ef5;" horiz-adv-x="1169" 
d="M98 -475v143q49 -8 117 -8q102 0 162.5 59t140.5 232l-483 1079h172q366 -835 395 -915h2q186 486 365 915h164l-422 -1005q-48 -115 -83.5 -190.5t-73 -136t-69 -93.5t-73 -54.5t-84 -28.5t-103.5 -7q-69 0 -127 10zM1032 -395h-155v229h155v-229z" />
    <glyph glyph-name="uni1EF6" unicode="&#x1ef6;" horiz-adv-x="1351" 
d="M760 0h-164v565q0 19 -14 33l-613 860h197q60 -86 189 -267t214.5 -303.5t114.5 -174.5q73 121 512 745h186l-612 -862q-10 -17 -10 -35v-561zM504 1815l-37 94q80 59 199 59q96 0 149 -49t53 -129q0 -45 -21 -88.5t-41.5 -66t-55.5 -54.5h-152q68 57 100.5 101t32.5 87
q0 37 -23 59.5t-71 22.5q-78 0 -133 -36z" />
    <glyph glyph-name="uni1EF7" unicode="&#x1ef7;" horiz-adv-x="1169" 
d="M98 -475v143q49 -8 117 -8q102 0 162.5 59t140.5 232l-483 1079h172q366 -835 395 -915h2q186 486 365 915h164l-422 -1005q-48 -115 -83.5 -190.5t-73 -136t-69 -93.5t-73 -54.5t-84 -28.5t-103.5 -7q-69 0 -127 10zM414 1432l-37 94q80 59 198 59q96 0 149.5 -49
t53.5 -129q0 -45 -21.5 -88.5t-42 -66t-55.5 -54.5h-151q68 57 100.5 101t32.5 87q0 37 -23 59.5t-71 22.5q-78 0 -133 -36z" />
    <glyph glyph-name="uni1EF8" unicode="&#x1ef8;" horiz-adv-x="1351" 
d="M760 0h-164v565q0 19 -14 33l-613 860h197q60 -86 189 -267t214.5 -303.5t114.5 -174.5q73 121 512 745h186l-612 -862q-10 -17 -10 -35v-561zM420 1610h-119v43q0 211 180 211q46 0 103 -19.5t101.5 -43t92.5 -43t78 -19.5q38 0 55 22.5t17 83.5v25h116v-41
q0 -119 -45.5 -170t-128.5 -51q-47 0 -103.5 20t-100.5 44.5t-94 44.5t-85 20q-67 0 -67 -95v-32z" />
    <glyph glyph-name="uni1EF9" unicode="&#x1ef9;" horiz-adv-x="1169" 
d="M98 -475v143q49 -8 117 -8q102 0 162.5 59t140.5 232l-483 1079h172q366 -835 395 -915h2q186 486 365 915h164l-422 -1005q-48 -115 -83.5 -190.5t-73 -136t-69 -93.5t-73 -54.5t-84 -28.5t-103.5 -7q-69 0 -127 10zM360 1262h-112v43q0 206 170 206q44 0 93 -18.5
t84 -41.5t75.5 -41.5t70.5 -18.5q36 0 52 21.5t16 80.5v27h111v-43q0 -215 -170 -215q-44 0 -91.5 19t-81.5 42t-76.5 42t-76.5 19q-64 0 -64 -84v-38z" />
    <glyph glyph-name="uni2007" unicode="&#x2007;" horiz-adv-x="1288" 
 />
    <glyph glyph-name="uni2010" unicode="&#x2010;" horiz-adv-x="884" 
d="M119 457v137h647v-137h-647z" />
    <glyph glyph-name="figuredash" unicode="&#x2012;" horiz-adv-x="1288" 
d="M150 664v137h989v-137h-989z" />
    <glyph glyph-name="endash" unicode="&#x2013;" horiz-adv-x="1316" 
d="M119 457v137h1077v-137h-1077z" />
    <glyph glyph-name="emdash" unicode="&#x2014;" horiz-adv-x="2392" 
d="M119 457v137h2152v-137h-2152z" />
    <glyph glyph-name="uni2015" unicode="&#x2015;" horiz-adv-x="2392" 
d="M119 457v137h2152v-137h-2152z" />
    <glyph glyph-name="quoteleft" unicode="&#x2018;" horiz-adv-x="448" 
d="M250 958h-160q7 116 50 296.5t87 289.5h131q-41 -132 -71 -290.5t-37 -295.5z" />
    <glyph glyph-name="quoteright" unicode="&#x2019;" horiz-adv-x="448" 
d="M199 1544h159q-7 -117 -49.5 -298.5t-87.5 -289.5h-131q94 305 109 588z" />
    <glyph glyph-name="quotesinglbase" unicode="&#x201a;" horiz-adv-x="448" 
d="M199 299h159q-7 -117 -49.5 -298.5t-87.5 -289.5h-131q94 305 109 588z" />
    <glyph glyph-name="quotedblleft" unicode="&#x201c;" horiz-adv-x="800" 
d="M250 956h-160q7 116 50 296.5t87 289.5h131q-41 -132 -71 -290.5t-37 -295.5zM604 956h-160q7 115 50.5 296t87.5 290h131q-41 -133 -71.5 -291.5t-37.5 -294.5z" />
    <glyph glyph-name="quotedblright" unicode="&#x201d;" horiz-adv-x="800" 
d="M199 1544h159q-7 -117 -49.5 -298.5t-87.5 -289.5h-131q94 305 109 588zM553 1544h160q-7 -117 -50 -298t-88 -290h-131q94 305 109 588z" />
    <glyph glyph-name="quotedblbase" unicode="&#x201e;" horiz-adv-x="800" 
d="M199 299h159q-7 -117 -49.5 -298.5t-87.5 -289.5h-131q94 305 109 588zM553 299h160q-7 -117 -50 -298t-88 -290h-131q94 305 109 588z" />
    <glyph glyph-name="dagger" unicode="&#x2020;" horiz-adv-x="1095" 
d="M451 -305l12 1096l-402 -11v144l402 -15l-12 488h159l-16 -488l399 15v-144l-399 11l16 -1096h-159z" />
    <glyph glyph-name="daggerdbl" unicode="&#x2021;" horiz-adv-x="1095" 
d="M451 -305l12 498l-402 -15v141l402 -10v529l-402 -9v142l402 -15l-12 441h159l-16 -441l399 15v-142l-399 9v-529l399 10v-141l-399 15l16 -498h-159z" />
    <glyph glyph-name="bullet" unicode="&#x2022;" horiz-adv-x="829" 
d="M205 305v426h420v-426h-420z" />
    <glyph glyph-name="ellipsis" unicode="&#x2026;" horiz-adv-x="1669" 
d="M307 0h-168v309h168v-309zM870 0h-168v309h168v-309zM1430 0h-168v309h168v-309z" />
    <glyph glyph-name="perthousand" unicode="&#x2030;" horiz-adv-x="2750" 
d="M543 0h-148l979 1389h150zM1470 -25q-175 0 -267.5 113t-92.5 291q0 78 23 149t67 128t115.5 90.5t159.5 33.5q172 0 269 -106.5t97 -292.5q0 -82 -23 -154t-67 -129t-116.5 -90t-164.5 -33zM1477 92q110 0 170.5 79t60.5 210q0 132 -60 206.5t-175 74.5
q-102 0 -164 -74.5t-62 -206.5q0 -133 61 -211t169 -78zM2296 -25q-118 0 -201 55t-121.5 144.5t-38.5 204.5q0 78 23 149t67 128t115.5 90.5t159.5 33.5q172 0 269 -106.5t97 -292.5q0 -112 -38.5 -201.5t-124 -147t-207.5 -57.5zM2302 92q110 0 170.5 79t60.5 210
q0 132 -60 206.5t-175 74.5q-102 0 -163.5 -74t-61.5 -207t60.5 -211t168.5 -78zM446 612q-175 0 -267.5 113t-92.5 291q0 78 23 149t67 128t115.5 90.5t159.5 33.5q172 0 269 -106.5t97 -292.5q0 -82 -23 -154t-67 -129t-116.5 -90t-164.5 -33zM453 729q110 0 170.5 79
t60.5 210q0 132 -60 206t-175 74q-102 0 -164 -74t-62 -206q0 -133 61 -211t169 -78z" />
    <glyph glyph-name="uni2032" unicode="&#x2032;" horiz-adv-x="448" 
d="M229 969h-127l84 575h160z" />
    <glyph glyph-name="uni2033" unicode="&#x2033;" horiz-adv-x="792" 
d="M229 969h-127l84 575h160zM578 969h-127l84 575h159z" />
    <glyph glyph-name="guilsinglleft" unicode="&#x2039;" horiz-adv-x="757" 
d="M489 113l-389 422l389 419h166l-387 -419l387 -422h-166z" />
    <glyph glyph-name="guilsinglright" unicode="&#x203a;" horiz-adv-x="757" 
d="M268 113h-166l385 419l-387 422h168l387 -422z" />
    <glyph glyph-name="fraction" unicode="&#x2044;" horiz-adv-x="333" 
d="M-209 0h-131l885 1389h129z" />
    <glyph glyph-name="zero.sups" unicode="&#x2070;" horiz-adv-x="860" 
d="M428 907q-163 0 -259.5 118t-96.5 296q0 185 97.5 302.5t264.5 117.5q115 0 196.5 -57.5t119.5 -149t38 -207.5q0 -196 -97 -308t-263 -112zM432 1022q217 0 217 303q0 140 -57.5 221.5t-161.5 81.5q-103 0 -162 -79t-59 -226q0 -136 62.5 -218.5t160.5 -82.5z" />
    <glyph glyph-name="four.sups" unicode="&#x2074;" horiz-adv-x="825" 
d="M63 1122v111l418 498h158v-498h147l-10 -111h-137v-204h-125v204h-451zM207 1233h307v182q0 158 2 205q-39 -59 -309 -387z" />
    <glyph glyph-name="five.sups" unicode="&#x2075;" horiz-adv-x="843" 
d="M86 1157h137q17 -56 67.5 -97.5t143.5 -41.5q107 0 156 46t49 124q0 172 -209 172q-136 0 -205 -92l-119 26q53 292 68 437h563l-20 -117h-436q-18 -143 -33 -215q80 69 219 69q149 0 232 -75t83 -195q0 -129 -91.5 -210t-258.5 -81q-154 0 -242.5 72.5t-103.5 177.5z
" />
    <glyph glyph-name="six.sups" unicode="&#x2076;" horiz-adv-x="835" 
d="M436 907q-172 0 -268 108t-96 296q0 64 11.5 123.5t38.5 116t67.5 98t104.5 67t144 25.5q133 0 212.5 -64.5t94.5 -148.5h-139q-37 104 -172 104q-63 0 -107 -21t-68.5 -59.5t-36 -81.5t-15.5 -100q39 46 106.5 77t159.5 30q142 -1 222.5 -78.5t80.5 -194.5
q0 -130 -94.5 -213.5t-245.5 -83.5zM221 1225q0 -36 11 -70.5t34.5 -66.5t67.5 -52t102 -20q89 0 144.5 43.5t54.5 134.5q0 84 -50.5 129t-150.5 45q-88 0 -150.5 -39.5t-62.5 -103.5z" />
    <glyph glyph-name="seven.sups" unicode="&#x2077;" horiz-adv-x="714" 
d="M295 920h-148q48 182 160.5 382.5t212.5 309.5h-489v119h639v-101q-119 -145 -223.5 -337.5t-151.5 -372.5z" />
    <glyph glyph-name="eight.sups" unicode="&#x2078;" horiz-adv-x="821" 
d="M70 1151q0 74 43.5 123t115.5 74q-125 50 -125 172q0 99 81.5 160t232.5 61q143 0 220 -62.5t77 -150.5q0 -127 -129 -172q75 -25 120.5 -78.5t45.5 -122.5q0 -110 -96 -179t-248 -69q-161 0 -249.5 70.5t-88.5 173.5zM209 1159q0 -63 55 -104t144 -41q98 0 150 36
t52 105t-52 105t-148 36q-101 0 -151 -38t-50 -99zM242 1520q0 -123 176 -123q160 0 160 121q0 56 -42.5 88t-123.5 32t-125.5 -31t-44.5 -87z" />
    <glyph glyph-name="nine.sups" unicode="&#x2079;" horiz-adv-x="843" 
d="M84 1126h133q55 -112 193 -112q205 0 229 284q-75 -103 -262 -100q-141 1 -225 76t-84 184q0 125 94 204t246 79q174 0 269 -104t95 -296q0 -62 -11 -121t-38 -116.5t-67.5 -100.5t-104 -69.5t-143.5 -26.5q-140 0 -223.5 64.5t-100.5 154.5zM205 1468q0 -79 54.5 -121
t154.5 -42q52 0 96 12t77.5 44.5t33.5 82.5q0 84 -54 138t-161 54q-86 0 -143.5 -42.5t-57.5 -125.5z" />
    <glyph glyph-name="parenleft.sups" unicode="&#x207d;" horiz-adv-x="477" 
d="M426 754h-139q-78 79 -136.5 226.5t-58.5 322.5q0 322 195 552h139q-215 -249 -215 -552q0 -296 215 -549z" />
    <glyph glyph-name="parenright.sups" unicode="&#x207e;" horiz-adv-x="477" 
d="M51 1884h139q78 -79 136.5 -226.5t58.5 -322.5q0 -323 -195 -553h-139q213 247 213 553q0 298 -213 549z" />
    <glyph glyph-name="n.sups" unicode="&#x207f;" horiz-adv-x="874" 
d="M238 578h-125v462q0 147 -4 217h120q7 -31 7 -129q73 146 260 146q48 0 92.5 -13.5t85.5 -43.5t65.5 -86.5t24.5 -133.5v-419h-129v383q0 96 -39 147t-137 51q-97 0 -159 -64t-62 -171v-346z" />
    <glyph glyph-name="zero.subs" unicode="&#x2080;" horiz-adv-x="860" 
d="M428 -324q-163 0 -259.5 118t-96.5 296q0 185 97.5 302.5t264.5 117.5q115 0 196.5 -57.5t119.5 -149t38 -207.5q0 -196 -97 -308t-263 -112zM432 -209q217 0 217 303q0 140 -57.5 221.5t-161.5 81.5q-103 0 -162 -79t-59 -226q0 -136 62.5 -218.5t160.5 -82.5z" />
    <glyph glyph-name="one.subs" unicode="&#x2081;" horiz-adv-x="491" 
d="M352 -313h-135v657q-26 -20 -89 -40.5t-95 -22.5v104q51 10 120 45.5t107 69.5h92v-813z" />
    <glyph glyph-name="two.subs" unicode="&#x2082;" horiz-adv-x="796" 
d="M723 -313h-647v10q0 216 282 366q131 69 170 102.5t39 94.5q0 57 -41 97t-127 40t-132.5 -36t-61.5 -121h-133q14 124 99 197t230 73q81 0 143 -22t97 -59t52.5 -79.5t17.5 -87.5q0 -42 -12.5 -76.5t-30 -59t-54.5 -51t-68 -44t-89 -47.5q-102 -54 -146 -91t-65 -90h499z
" />
    <glyph glyph-name="three.subs" unicode="&#x2083;" horiz-adv-x="790" 
d="M49 -66h129q42 -149 215 -149q197 0 197 141q0 77 -56.5 108.5t-164.5 31.5h-68v104h61q113 0 153 25t40 86q0 50 -38 85t-130 35q-88 0 -130 -35.5t-58 -95.5h-121q2 24 9.5 49.5t29 61.5t53.5 63t89.5 46.5t131.5 19.5q143 0 221 -61t78 -166q0 -67 -36 -108t-91 -52
q70 -14 117 -65.5t47 -127.5q0 -109 -85 -181.5t-253 -72.5q-74 0 -133.5 18t-96 45t-61.5 63t-35.5 68t-13.5 64z" />
    <glyph glyph-name="four.subs" unicode="&#x2084;" horiz-adv-x="825" 
d="M63 -109v111l418 498h158v-498h147l-10 -111h-137v-204h-125v204h-451zM207 2h307v182q0 158 2 205q-39 -59 -309 -387z" />
    <glyph glyph-name="five.subs" unicode="&#x2085;" horiz-adv-x="843" 
d="M86 -74h137q17 -56 67.5 -97.5t143.5 -41.5q107 0 156 46t49 124q0 172 -209 172q-136 0 -205 -92l-119 26q53 292 68 437h563l-20 -117h-436q-18 -143 -33 -215q81 70 219 70q148 0 231.5 -75.5t83.5 -195.5q0 -129 -91.5 -210t-258.5 -81q-154 0 -242.5 72.5
t-103.5 177.5z" />
    <glyph glyph-name="six.subs" unicode="&#x2086;" horiz-adv-x="835" 
d="M436 -324q-172 0 -268 108t-96 296q0 64 11.5 123.5t38.5 116t67.5 98t104.5 67t144 25.5q133 0 212.5 -64.5t94.5 -148.5h-139q-37 104 -172 104q-63 0 -107 -21t-68.5 -59.5t-36 -81.5t-15.5 -100q39 46 106.5 77t159.5 30q142 -1 222.5 -78.5t80.5 -194.5
q0 -130 -94.5 -213.5t-245.5 -83.5zM221 -6q0 -36 11 -70.5t34.5 -66.5t67.5 -52t102 -20q89 0 144.5 43.5t54.5 134.5q0 84 -50.5 129t-150.5 45q-88 0 -150.5 -39.5t-62.5 -103.5z" />
    <glyph glyph-name="seven.subs" unicode="&#x2087;" horiz-adv-x="714" 
d="M295 -311h-148q48 182 160.5 382.5t212.5 309.5h-489v119h639v-101q-119 -145 -223.5 -337.5t-151.5 -372.5z" />
    <glyph glyph-name="eight.subs" unicode="&#x2088;" horiz-adv-x="821" 
d="M70 -80q0 74 43.5 123t115.5 74q-125 50 -125 172q0 99 81.5 160t232.5 61q143 0 220 -62.5t77 -150.5q0 -127 -129 -172q75 -25 120.5 -78.5t45.5 -122.5q0 -110 -96 -179t-248 -69q-161 0 -249.5 70.5t-88.5 173.5zM209 -72q0 -63 55 -104t144 -41q98 0 150 36t52 105
t-52 105.5t-148 36.5q-101 0 -151 -38.5t-50 -99.5zM242 289q0 -123 176 -123q160 0 160 121q0 57 -43 89t-123 32q-81 0 -125.5 -31.5t-44.5 -87.5z" />
    <glyph glyph-name="nine.subs" unicode="&#x2089;" horiz-adv-x="843" 
d="M84 -104h133q55 -113 193 -113q205 0 229 285q-76 -104 -262 -101q-141 1 -225 76t-84 184q0 125 94 204t246 79q174 0 269 -104t95 -295q0 -79 -19 -152t-59 -138.5t-113.5 -105t-172.5 -39.5q-140 0 -223.5 65t-100.5 155zM205 238q0 -79 54.5 -121.5t154.5 -42.5
q52 0 96 12t77.5 44.5t33.5 82.5q0 84 -54 138.5t-161 54.5q-86 0 -143.5 -42.5t-57.5 -125.5z" />
    <glyph glyph-name="parenleft.subs" unicode="&#x208d;" horiz-adv-x="477" 
d="M426 -477h-139q-78 79 -136.5 226.5t-58.5 322.5q0 323 195 553h139q-215 -249 -215 -553q0 -296 215 -549z" />
    <glyph glyph-name="parenright.subs" unicode="&#x208e;" horiz-adv-x="477" 
d="M51 653h139q78 -79 136.5 -226.5t58.5 -322.5q0 -323 -195 -553h-139q213 247 213 553q0 298 -213 549z" />
    <glyph glyph-name="colonmonetary" unicode="&#x20a1;" horiz-adv-x="1253" 
d="M592 -217h-105v219q-176 57 -271 233t-95 451q0 281 95.5 457t270.5 237v166h105v-141q44 6 90 6h18v135h105v-147q78 -16 142 -51.5t106 -83t67 -101t33 -108.5h-154q-47 158 -194 202v-1128q143 42 203 213h149q-76 -297 -352 -352v-207h-105v192h-36q-14 0 -72 5v-197
zM487 158v1073q-204 -113 -204 -541q0 -204 52.5 -338.5t151.5 -193.5zM700 111v1165h-26q-42 0 -82 -6v-1153q38 -6 76 -6h32z" />
    <glyph glyph-name="franc" unicode="&#x20a3;" horiz-adv-x="1239" 
d="M49 287v123h191v979h884v-142h-729v-446h688v-139h-688v-252h273v-123h-273v-287h-155v287h-191z" />
    <glyph glyph-name="lira" unicode="&#x20a4;" horiz-adv-x="1226" 
d="M1184 0h-1073v125q159 78 170 393h-209v113h209q0 27 -3 76.5t-4 64.5h-202v115h196v57q0 219 114 346t323 127q99 0 178.5 -29t129.5 -78t79 -109t36 -128h-153q-20 97 -92.5 152t-184.5 55q-272 0 -272 -334v-59h381v-115h-375q4 -98 6 -141h369v-113h-371
q-9 -256 -119 -377h887z" />
    <glyph glyph-name="uni20A6" unicode="&#x20a6;" horiz-adv-x="1339" 
d="M344 0h-143v526h-119v113h119v164h-119v112h119v474h223l217 -474h336v474h141v-474h121v-112h-121v-164h121v-113h-121v-526h-211l-241 526h-322v-526zM821 526l164 -358h8q-11 148 -14 358h-158zM344 915h143l-149 326h-6q8 -81 12 -326zM768 639h209v164h-285z
M344 639h270l-75 164h-195v-164z" />
    <glyph glyph-name="peseta" unicode="&#x20a7;" horiz-adv-x="1312" 
d="M362 0h-153v881h-143v123h143v385h455q193 0 328 -104t155 -281h117v-123h-117q-23 -188 -167.5 -290t-365.5 -102h-252v-489zM362 881v-258h259q162 0 257 66t115 192h-631zM362 1260v-256h631q-18 116 -105.5 186t-244.5 70h-281z" />
    <glyph glyph-name="dong" unicode="&#x20ab;" horiz-adv-x="1327" 
d="M154 -311v127h942v-127h-942zM1108 0h-137q-8 24 -13 170q-51 -95 -142.5 -146t-246.5 -51q-199 0 -332 143.5t-133 350.5q0 118 41 217t110 163t156 99t181 35q150 0 237.5 -49t126.5 -117v311h-514v123h514v158h150v-158h172v-123h-172v-827q0 -49 1 -149t1 -150z
M592 104q171 0 272 97t101 282q0 170 -92.5 268.5t-260.5 98.5q-86 0 -154 -30.5t-109.5 -83t-63 -119.5t-21.5 -144q0 -68 21.5 -133t61 -118t103.5 -85.5t142 -32.5z" />
    <glyph glyph-name="Euro" unicode="&#x20ac;" horiz-adv-x="1318" 
d="M86 514v113h139q-2 18 -2 59q0 34 4 100h-141v113h154q44 249 185.5 383.5t346.5 134.5q106 0 191 -30.5t139 -82.5t86 -115t43 -136h-148q-41 113 -115 171t-204 58q-149 0 -241.5 -98.5t-123.5 -284.5h459v-113h-471q-4 -62 -4 -98q0 -41 2 -61h473v-113h-463
q29 -194 124 -299.5t241 -105.5q118 0 194.5 48.5t128.5 168.5h152q-53 -170 -172.5 -262.5t-306.5 -92.5q-217 0 -353 144t-170 399h-147z" />
    <glyph glyph-name="uni20B1" unicode="&#x20b1;" horiz-adv-x="1376" 
d="M391 0h-151v758h-154v110h154v123h-154v111h154v287h444q160 0 285 -75.5t178 -211.5h145v-111h-118q4 -40 4 -63q0 -24 -4 -60h118v-110h-143q-54 -139 -187 -218t-313 -79h-258v-461zM391 758v-166h273q238 0 321 166h-594zM391 1257v-155h586q-88 155 -299 155h-287z
M391 868h627q4 36 4 60q0 33 -6 63h-625v-123z" />
    <glyph glyph-name="uni20B2" unicode="&#x20b2;" horiz-adv-x="1298" 
d="M606 -217v199q-163 21 -273.5 119t-161 248t-50.5 347q0 304 129.5 496.5t355.5 218.5v150h119v-148q102 -6 184 -40t133 -86t80.5 -112.5t36.5 -125.5h-155q-66 207 -279 229v-1169q153 5 262 63v492h158v-576q-101 -49 -197.5 -79t-222.5 -34v-192h-119zM606 119v1155
q-85 -13 -148.5 -63t-101 -128t-55.5 -173t-18 -208q0 -111 18 -205.5t55.5 -173.5t101 -132t148.5 -72z" />
    <glyph glyph-name="uni20B4" unicode="&#x20b4;" horiz-adv-x="1257" 
d="M70 532v113h235q103 68 289 131q8 2 22.5 8t18.5 7h-541v114h772q60 57 60 150t-78 163t-219 70q-242 0 -312 -203h-153q33 155 156.5 244.5t314.5 89.5q92 0 168 -23t125.5 -60t84 -84.5t49.5 -95t15 -93.5q0 -101 -33 -158h123v-114h-235q-89 -60 -273 -121
q-33 -10 -69 -25h551v-113h-764q-84 -73 -84 -176q2 -100 89.5 -175t227.5 -75q73 0 132 13t97 33t68 51t46 59.5t30 65.5h154q-19 -79 -57.5 -141.5t-101 -112t-157 -76.5t-215.5 -27q-208 0 -339.5 109.5t-131.5 269.5q0 109 49 182h-114z" />
    <glyph glyph-name="uni20B5" unicode="&#x20b5;" horiz-adv-x="1243" 
d="M719 -217h-119v197q-226 25 -352.5 214t-126.5 498q0 307 127 495.5t352 217.5v156h119v-152q81 -4 150 -28.5t116.5 -61t83.5 -84.5t56 -97.5t28 -101.5h-156q-64 215 -278 236v-1157q205 21 287 231h151q-19 -73 -53 -134t-85.5 -112.5t-128 -83.5t-171.5 -39v-194z
M600 119v1149q-160 -27 -239.5 -175t-79.5 -399q0 -236 84.5 -390t234.5 -185z" />
    <glyph glyph-name="uni20B9" unicode="&#x20b9;" horiz-adv-x="1286" 
d="M393 565h-254v121h287q69 0 133 16.5t120 50.5t90 95.5t34 142.5q0 23 -2 33h-662v113h623q-89 135 -340 135h-283v117h1045v-115h-363q71 -55 105 -137h258v-113h-232q2 -12 2 -37q0 -86 -29.5 -156.5t-82 -119.5t-119.5 -81.5t-148 -49.5l504 -580h-190z" />
    <glyph glyph-name="uni20BA" unicode="&#x20ba;" horiz-adv-x="1318" 
d="M473 0h-154v590l-231 -92v125l231 92v162l-231 -93v127l231 93v385h154v-324l320 129v-127l-320 -129v-162l320 129v-125l-320 -129v-522q254 0 395.5 126.5t178.5 381.5h151q-85 -637 -725 -637z" />
    <glyph glyph-name="uni20BD" unicode="&#x20bd;" horiz-adv-x="1302" 
d="M59 317v117h187v162h-187v123h187v670h469q219 0 343 -108t124 -286q0 -194 -126.5 -296.5t-361.5 -102.5h-282v-162h413v-117h-413v-317h-166v317h-187zM412 1255v-536h258q169 0 255.5 63t86.5 207q0 126 -81 196t-249 70h-270z" />
    <glyph glyph-name="uni2113" unicode="&#x2113;" horiz-adv-x="880" 
d="M55 350l-45 111q28 19 87 54.5t83 51.5v543q0 397 303 397q142 0 213.5 -85.5t71.5 -237.5q0 -196 -99 -354t-333 -326v-156q0 -133 40 -186t118 -53q79 0 123 43.5t65 158.5h145q-20 -168 -105 -251t-239 -83q-303 0 -303 345v108q-23 -18 -69.5 -46t-55.5 -34z
M336 1114v-448q155 129 218.5 252t63.5 262q0 202 -137 202q-73 0 -109 -61t-36 -207z" />
    </font>
</defs>
</svg>
