<?xml version="1.0" standalone="no"?>
<!DOCTYPE svg PUBLIC "-//W3C//DTD SVG 1.1//EN" "http://www.w3.org/Graphics/SVG/1.1/DTD/svg11.dtd" >
<svg xmlns="http://www.w3.org/2000/svg" xmlns:xlink="http://www.w3.org/1999/xlink" version="1.1">
<metadata>
Created by FontForge 20170731 at Wed Dec 29 09:54:41 2021
 By Aleksey,,,
(c) 2014 Adobe Systems Incorporated. All Rights Reserved.
</metadata>
<defs>
<font id="AcuminProWide-Medium" horiz-adv-x="819" >
  <font-face 
    font-family="Acumin Pro Wide"
    font-weight="500"
    font-stretch="expanded"
    units-per-em="2048"
    panose-1="2 11 6 5 2 2 2 2 2 4"
    ascent="1505"
    descent="-543"
    x-height="1042"
    cap-height="1452"
    bbox="-408 -543 2697 2193"
    underline-thickness="102"
    underline-position="-307"
    unicode-range="U+000D-FB02"
  />
<missing-glyph horiz-adv-x="1024" 
d="M1024 0h-1024v1434h1024v-1434zM512 625l-348 -523h696zM164 1331l348 -522l348 522h-696zM102 1239v-1044l349 522zM573 717l349 -522v1044z" />
    <glyph glyph-name="f_f" unicode="ff" horiz-adv-x="1347" 
d="M223 0v866h-190v176h190v117q0 87 20 157t61 123.5t110.5 83t163.5 29.5q74 0 118 -12v-176q-36 8 -82 8q-89 0 -125 -51.5t-36 -163.5v-115h419v119q0 181 85 286t270 105q75 0 119 -12v-176q-33 8 -82 8q-89 0 -125.5 -52t-36.5 -163v-115h237v-176h-237v-866h-230v866
h-419v-866h-230z" />
    <glyph glyph-name=".notdef" horiz-adv-x="1024" 
d="M1024 0h-1024v1434h1024v-1434zM512 625l-348 -523h696zM164 1331l348 -522l348 522h-696zM102 1239v-1044l349 522zM573 717l349 -522v1044z" />
    <glyph glyph-name=".null" horiz-adv-x="0" 
 />
    <glyph glyph-name="nonmarkingreturn" horiz-adv-x="682" 
 />
    <glyph glyph-name="NULL" horiz-adv-x="0" 
 />
    <glyph glyph-name="NULL" horiz-adv-x="0" 
 />
    <glyph glyph-name="CR" unicode="&#xd;" horiz-adv-x="598" 
 />
    <glyph glyph-name="space" unicode=" " horiz-adv-x="598" 
 />
    <glyph glyph-name="exclam" unicode="!" horiz-adv-x="688" 
d="M492 0h-222v322h222v-322zM483 518h-202l-23 699v235h248v-235z" />
    <glyph glyph-name="quotedbl" unicode="&#x22;" horiz-adv-x="800" 
d="M287 922h-168l-27 432v182h219v-180zM686 922h-168l-26 432v182h219v-180z" />
    <glyph glyph-name="numbersign" unicode="#" horiz-adv-x="1464" 
d="M168 0l113 371h-177v180h232l106 342h-217v178h271l104 340h170l-104 -340h338l104 340h168l-102 -340h163v-178h-219l-102 -342h205v-180h-260l-113 -371h-174l114 371h-337l-115 -371h-168zM506 551h338l104 342h-338z" />
    <glyph glyph-name="dollar" unicode="$" horiz-adv-x="1273" 
d="M709 -211h-148v188q-213 17 -342.5 125.5t-159.5 284.5h234q52 -190 268 -225v448q-130 28 -219 66.5t-141 89t-74.5 110t-22.5 136.5q0 55 16.5 106.5t52 100t88 85.5t129.5 61.5t171 29.5v155h148v-157q111 -11 196.5 -47.5t135.5 -88.5t77.5 -108.5t34.5 -118.5h-231
q-35 148 -213 180v-397q144 -30 241.5 -75.5t147 -102.5t69 -115t19.5 -131q0 -171 -124 -283t-353 -129v-188zM709 575v-417q113 9 174 60.5t61 139.5q0 78 -47.5 128t-187.5 89zM561 846v371q-121 -7 -173 -59t-52 -124q0 -71 48.5 -113t176.5 -75z" />
    <glyph glyph-name="percent" unicode="%" horiz-adv-x="1937" 
d="M1483 -25q-175 0 -273 111t-98 289q0 79 24 150t69.5 126.5t118 88t161.5 32.5q174 0 275.5 -105.5t101.5 -291.5q0 -173 -99 -286.5t-280 -113.5zM1487 125q96 0 147.5 68t51.5 182q0 119 -50.5 182.5t-150.5 63.5q-88 0 -139.5 -64.5t-51.5 -179.5t50.5 -183.5
t142.5 -68.5zM446 614q-175 0 -272.5 110.5t-97.5 289.5q0 79 24 150t69.5 126.5t118 88t161.5 32.5q174 0 275 -105.5t101 -291.5q0 -173 -99 -286.5t-280 -113.5zM451 764q96 0 147 68t51 182q0 119 -50 182.5t-150 63.5q-88 0 -139.5 -64.5t-51.5 -179.5t50.5 -183.5
t142.5 -68.5zM582 0h-181l940 1382h183z" />
    <glyph glyph-name="ampersand" unicode="&#x26;" horiz-adv-x="1765" 
d="M772 776l297 -256l322 422h260l-439 -547l457 -395h-330l-262 227q-54 -63 -100.5 -105t-105.5 -79t-129 -54.5t-154 -17.5q-118 0 -211 37t-147.5 97.5t-82.5 131t-28 144.5q0 128 71 222t242 190q-80 77 -120 152.5t-40 168.5q0 73 28 139t79.5 117.5t131 82
t175.5 30.5q100 0 179 -30.5t125.5 -81t70.5 -110t24 -124.5q0 -117 -74 -198.5t-239 -162.5zM934 352l-379 328q-120 -61 -163.5 -129t-43.5 -148q0 -100 72 -169.5t186 -69.5q96 0 165.5 40t162.5 148zM649 887q122 58 173.5 116t51.5 132q0 75 -46.5 130.5t-143.5 55.5
q-88 0 -139 -54.5t-51 -136.5q0 -64 36.5 -121.5t118.5 -121.5z" />
    <glyph glyph-name="quotesingle" unicode="'" horiz-adv-x="413" 
d="M299 922h-180l-27 395v219h230v-219z" />
    <glyph glyph-name="parenleft" unicode="(" horiz-adv-x="776" 
d="M713 -328h-230q-155 166 -257.5 412.5t-102.5 533.5q0 147 31 288.5t84.5 257t114 207t130.5 165.5h230q-381 -410 -381 -920q0 -272 96 -502t285 -442z" />
    <glyph glyph-name="parenright" unicode=")" horiz-adv-x="776" 
d="M63 1536h230q157 -166 259.5 -412.5t102.5 -533.5q0 -147 -31.5 -289t-85 -257.5t-114.5 -207t-131 -164.5h-230q381 406 381 920q0 272 -95.5 501.5t-285.5 442.5z" />
    <glyph glyph-name="asterisk" unicode="*" horiz-adv-x="962" 
d="M141 682l-98 164l338 153l-336 156l94 164l287 -215l-39 350h188l-38 -352l284 217l99 -164l-332 -154l332 -155l-99 -164l-278 217l32 -348h-188l37 348z" />
    <glyph glyph-name="plus" unicode="+" horiz-adv-x="1689" 
d="M745 0v563h-534v195h534v532h201v-532h533v-195h-533v-563h-201z" />
    <glyph glyph-name="comma" unicode="," horiz-adv-x="542" 
d="M190 358h236q-18 -152 -75.5 -329.5t-131.5 -296.5h-196q135 305 167 626z" />
    <glyph glyph-name="hyphen" unicode="-" horiz-adv-x="888" 
d="M113 426v195h661v-195h-661z" />
    <glyph glyph-name="period" unicode="." horiz-adv-x="493" 
d="M375 0h-256v358h256v-358z" />
    <glyph glyph-name="slash" unicode="/" horiz-adv-x="1083" 
d="M303 -104h-211l688 1556h209z" />
    <glyph glyph-name="zero" unicode="0" horiz-adv-x="1341" 
d="M670 -29q-137 0 -245 55.5t-176.5 154t-104 228t-35.5 281.5t36 282t104.5 228.5t177.5 154.5t247 56q135 0 242.5 -55.5t175.5 -152.5t103.5 -224t35.5 -274q0 -123 -19.5 -230.5t-63 -201t-107.5 -160t-159 -104.5t-212 -38zM672 160q321 0 321 542q0 78 -9 149
t-31.5 140.5t-58 119.5t-92 81t-128.5 31q-86 0 -150.5 -40t-102.5 -112.5t-56.5 -167t-18.5 -211.5q0 -100 17 -189.5t52.5 -169t101.5 -126.5t155 -47z" />
    <glyph glyph-name="one" unicode="1" horiz-adv-x="808" 
d="M612 0h-227v1106q-56 -36 -154 -71.5t-153 -41.5v176q112 30 208 89.5t156 123.5h170v-1382z" />
    <glyph glyph-name="two" unicode="2" horiz-adv-x="1226" 
d="M1143 0h-1051v10q0 183 113.5 340.5t361.5 311.5q86 53 129.5 81.5t87 62t61 60.5t28 59t10.5 74q0 45 -14.5 84t-44.5 72t-83.5 52.5t-124.5 19.5q-243 0 -288 -269h-224q15 202 154.5 327.5t366.5 125.5q229 0 359 -117t130 -293q0 -68 -16 -122t-41.5 -95.5t-78.5 -86
t-104.5 -79t-142.5 -88.5q-314 -188 -366 -342h809z" />
    <glyph glyph-name="three" unicode="3" horiz-adv-x="1296" 
d="M94 379h232q26 -104 109 -163.5t220 -59.5q133 0 215 64t82 192q0 114 -77 174.5t-232 60.5h-111v189h89q150 0 212 47t62 141q0 89 -65 147t-195 58q-227 0 -279 -199h-225q8 52 28 102t60.5 102t95.5 90t140 62.5t188 24.5q124 0 220 -31.5t152.5 -85t85.5 -119
t29 -139.5q0 -65 -20.5 -117t-54 -84t-65.5 -50.5t-66 -28.5v-4q33 -9 66 -24.5t70.5 -44.5t65 -65.5t46 -92t18.5 -119.5q0 -195 -145 -315t-402 -120q-129 0 -231 33.5t-166 92t-101 129t-51 153.5z" />
    <glyph glyph-name="four" unicode="4" horiz-adv-x="1290" 
d="M88 342v195l678 845h258v-850h205l-25 -190h-180v-342h-217v342h-719zM324 532h483v316q0 209 6 317q-95 -140 -489 -633z" />
    <glyph glyph-name="five" unicode="5" horiz-adv-x="1310" 
d="M121 369h225q64 -211 318 -211q147 0 229 82.5t82 222.5q0 56 -16 105.5t-50 92.5t-95.5 68t-143.5 25q-93 0 -159.5 -26.5t-100.5 -63t-62 -91.5l-198 29q28 138 68 394.5t54 385.5h883l-27 -190h-671q-26 -177 -58 -358q117 102 326 102q214 0 345.5 -126t131.5 -335
q0 -228 -144 -366t-401 -138q-120 0 -218 32t-162.5 88t-103.5 126.5t-52 151.5z" />
    <glyph glyph-name="six" unicode="6" horiz-adv-x="1296" 
d="M668 -27q-265 0 -412 180t-147 523q0 111 17.5 212.5t60 198.5t107 167.5t166 113.5t228.5 43q90 0 165.5 -20.5t127.5 -54t90.5 -79t59 -92t28.5 -96.5h-223q-64 164 -260 164q-320 0 -334 -481q130 186 391 186q214 0 344.5 -125t130.5 -330q0 -157 -70.5 -274
t-192 -176.5t-277.5 -59.5zM670 158q143 0 224 83.5t81 225.5q0 131 -75.5 211t-223.5 80q-147 0 -231.5 -81.5t-84.5 -193.5q0 -27 6 -58.5t19 -69t37.5 -72t57 -63t82 -45.5t108.5 -17z" />
    <glyph glyph-name="seven" unicode="7" horiz-adv-x="1105" 
d="M492 0h-250q55 298 219.5 634t349.5 558h-782v190h1028v-182q-194 -246 -346.5 -566.5t-218.5 -633.5z" />
    <glyph glyph-name="eight" unicode="8" horiz-adv-x="1310" 
d="M102 389q0 127 72.5 215t187.5 133q-87 42 -138.5 117.5t-51.5 177.5q0 169 132.5 274t363.5 105q133 0 240 -43t172 -131.5t65 -208.5q0 -107 -56.5 -180.5t-144.5 -104.5q125 -40 194.5 -132t69.5 -216q0 -84 -30.5 -154.5t-83 -119.5t-123.5 -83.5t-152 -50.5
t-168 -16q-155 0 -278.5 48t-197 144.5t-73.5 225.5zM334 399q0 -120 93 -187t228 -67q63 0 118.5 14t101.5 43t73 78.5t27 114.5q0 109 -76 178.5t-244 69.5q-89 0 -153.5 -19.5t-100 -54.5t-51.5 -77t-16 -93zM397 1032q0 -91 65 -150t204 -59q252 0 252 205
q0 96 -70.5 153.5t-188.5 57.5q-117 0 -189.5 -53t-72.5 -154z" />
    <glyph glyph-name="nine" unicode="9" horiz-adv-x="1292" 
d="M119 328h229q67 -176 275 -176q56 0 102 16.5t78.5 43.5t57.5 68t40.5 83.5t26.5 97t16 102t8 103.5q-112 -168 -366 -168q-226 0 -356 122.5t-130 313.5q0 208 142.5 341.5t382.5 133.5q269 0 413 -168t144 -487q0 -104 -11.5 -196.5t-36.5 -182.5t-69 -161.5
t-105 -126.5t-148 -84.5t-194 -29.5q-96 0 -176.5 22t-134 56.5t-93.5 82.5t-62 95.5t-33 98.5zM336 946q0 -124 79 -197t216 -73q135 0 215 68.5t80 177.5q0 41 -8.5 81t-30.5 81t-55.5 72t-88 51t-122.5 20q-137 0 -211 -79.5t-74 -201.5z" />
    <glyph glyph-name="colon" unicode=":" horiz-adv-x="587" 
d="M414 0h-240v338h240v-338zM414 711h-240v338h240v-338z" />
    <glyph glyph-name="semicolon" unicode=";" horiz-adv-x="636" 
d="M211 336h244q-16 -149 -71 -324t-130 -293h-205q141 320 162 617zM461 711h-256v338h256v-338z" />
    <glyph glyph-name="less" unicode="&#x3c;" horiz-adv-x="1603" 
d="M438 659l955 -442v-215l-1182 559v193l1182 538v-213z" />
    <glyph glyph-name="equal" unicode="=" horiz-adv-x="1689" 
d="M211 289v194h1268v-194h-1268zM211 870v195h1268v-195h-1268z" />
    <glyph glyph-name="greater" unicode="&#x3e;" horiz-adv-x="1603" 
d="M211 2v215l954 418l-954 442v215l1182 -557v-194z" />
    <glyph glyph-name="question" unicode="?" horiz-adv-x="1249" 
d="M743 -2h-235v297h235v-297zM743 444h-235v29q0 47 8.5 84t32 80.5t70 90t118.5 99.5q107 82 145.5 133t39.5 123q0 96 -69.5 161t-207.5 65q-126 0 -202.5 -61.5t-98.5 -178.5h-227q6 50 21 99.5t53.5 109t94.5 103.5t151.5 74t215.5 30q129 0 229.5 -35.5t157.5 -93.5
t86 -125t29 -139q0 -120 -50.5 -201.5t-191.5 -185.5q-95 -70 -132.5 -124.5t-37.5 -121.5v-15z" />
    <glyph glyph-name="at" unicode="@" horiz-adv-x="2146" 
d="M1343 866l35 148h191l-125 -613q-22 -112 3.5 -155t90.5 -43q136 0 219.5 136.5t83.5 352.5q0 280 -194.5 455.5t-516.5 175.5q-183 0 -334 -64.5t-251.5 -178t-155.5 -268t-55 -333.5q0 -223 94.5 -394t263 -263t385.5 -92q194 0 318 34t233 95l47 -150
q-117 -74 -262.5 -114.5t-355.5 -40.5q-194 0 -364 65.5t-294.5 183.5t-196 294t-71.5 386q0 205 70.5 387.5t198 320.5t320 219t423.5 81q187 0 350 -57.5t282 -159.5t187 -251.5t68 -324.5q0 -154 -42 -280.5t-115.5 -209.5t-172 -128t-211.5 -45q-105 0 -165.5 46.5
t-63.5 133.5q-59 -86 -135.5 -133t-194.5 -47q-148 0 -236 103t-88 284q0 170 64.5 311.5t174 222t238.5 80.5q63 0 111.5 -15.5t77.5 -42t46 -54t25 -58.5zM989 199q103 0 180 91t103 242q63 342 -168 342q-89 0 -157 -69t-100 -168t-32 -207q0 -231 174 -231z" />
    <glyph glyph-name="A" unicode="A" horiz-adv-x="1589" 
d="M18 0l615 1452h297l641 -1452h-260l-183 414h-688l-174 -414h-248zM774 1286h-2q-54 -172 -262 -672h545q-246 564 -281 672z" />
    <glyph glyph-name="B" unicode="B" horiz-adv-x="1554" 
d="M932 0h-731v1452h725q234 0 356.5 -98.5t122.5 -268.5q0 -123 -67 -201t-164 -108q55 -16 102 -41.5t91 -66.5t69.5 -103t25.5 -139q0 -138 -71 -236t-188.5 -144t-270.5 -46zM438 672v-484h447q323 0 323 242q0 119 -87.5 180.5t-248.5 61.5h-434zM438 1262v-402h430
q287 0 287 201t-281 201h-436z" />
    <glyph glyph-name="C" unicode="C" horiz-adv-x="1646" 
d="M1554 1012h-243q-23 57 -54.5 101.5t-82 86t-128 64t-176.5 22.5q-155 0 -270.5 -72.5t-175 -197.5t-59.5 -285q0 -118 34 -220.5t97 -180t160 -122t216 -44.5q94 0 166 18.5t122.5 56.5t84.5 84t64 111h241q-144 -465 -690 -465q-143 0 -265 39t-210.5 108t-150.5 163.5
t-92.5 207t-30.5 236.5q0 155 53 292.5t149 241.5t241.5 165t319.5 61q123 0 228 -26t179.5 -70.5t131.5 -105.5t91 -127.5t50 -141.5z" />
    <glyph glyph-name="D" unicode="D" horiz-adv-x="1669" 
d="M807 0h-606v1452h612q173 0 315.5 -54.5t236 -149.5t144 -222.5t50.5 -275.5q0 -171 -58.5 -313t-160 -237t-239 -147.5t-294.5 -52.5zM442 1257v-1062h322q263 0 401 147.5t138 400.5q0 239 -140.5 376.5t-384.5 137.5h-336z" />
    <glyph glyph-name="E" unicode="E" horiz-adv-x="1464" 
d="M201 0v1452h1142v-199h-901v-393h856v-198h-856v-463h947l-31 -199h-1157z" />
    <glyph glyph-name="F" unicode="F" horiz-adv-x="1409" 
d="M442 0h-239v1452h1126v-199h-887v-438h826v-201h-826v-614z" />
    <glyph glyph-name="G" unicode="G" horiz-adv-x="1726" 
d="M891 608v195h676v-803h-181q-13 59 -18 199q-76 -115 -196.5 -172.5t-323.5 -57.5q-170 0 -309 55t-232.5 154t-144.5 238t-51 305q0 160 53.5 299t151.5 242t246.5 162t328.5 59q159 0 284.5 -38.5t204.5 -104t126 -140.5t67 -160h-246q-20 50 -52 91t-82.5 78.5
t-128.5 59t-175 21.5q-127 0 -227.5 -43t-164.5 -119t-98 -176.5t-34 -218.5q0 -166 58 -293.5t177.5 -202.5t286.5 -75q216 0 331 105.5t115 301.5v39h-442z" />
    <glyph glyph-name="H" unicode="H" horiz-adv-x="1708" 
d="M442 0h-241v1452h241v-578h824v578h241v-1452h-241v676h-824v-676z" />
    <glyph glyph-name="I" unicode="I" horiz-adv-x="643" 
d="M201 0v1452h241v-1452h-241z" />
    <glyph glyph-name="J" unicode="J" horiz-adv-x="913" 
d="M55 -12v198q82 -14 176 -14q137 0 195.5 84t58.5 236v960h242v-948q0 -276 -113 -404.5t-360 -128.5q-109 0 -199 17z" />
    <glyph glyph-name="K" unicode="K" horiz-adv-x="1542" 
d="M442 0h-241v1452h241v-696q98 85 381.5 326t431.5 370h306l-725 -623l768 -829h-310l-637 698l-215 -174v-524z" />
    <glyph glyph-name="L" unicode="L" horiz-adv-x="1331" 
d="M440 201h860l-34 -201h-1065v1452h239v-1251z" />
    <glyph glyph-name="M" unicode="M" horiz-adv-x="2011" 
d="M201 0v1452h346q31 -79 110.5 -278.5t119 -299t94 -239.5t84.5 -222.5t42 -125.5h2q29 82 104.5 271.5t182 454t174.5 439.5h350v-1452h-235v608q0 490 10 682h-2q-25 -81 -83.5 -237t-113 -295t-151.5 -384t-148 -374h-208q-68 189 -251.5 674t-226.5 614h-2
q23 -318 23 -713v-575h-221z" />
    <glyph glyph-name="N" unicode="N" horiz-adv-x="1728" 
d="M424 0h-223v1452h286q138 -198 337.5 -469.5t326 -446t162.5 -241.5h4q-12 154 -12 655v502h223v-1452h-271q-196 270 -485 683t-354 525h-4q10 -184 10 -647v-561z" />
    <glyph glyph-name="O" unicode="O" horiz-adv-x="1757" 
d="M111 731q0 150 55 286.5t153 240t244.5 164.5t319.5 61q139 0 261 -39.5t213 -110t157 -164.5t99.5 -206t33.5 -232q0 -155 -52 -292.5t-148 -242.5t-244 -166t-329 -61q-173 0 -318 59t-241.5 162t-150 242.5t-53.5 298.5zM885 166q99 0 183 30t143 82t100.5 123
t61.5 153.5t20 172.5q0 111 -33.5 210.5t-97 178t-165 124.5t-227.5 46q-118 0 -215 -44.5t-159.5 -121t-96.5 -175.5t-34 -210q0 -115 34 -217t97.5 -181t164 -125t224.5 -46z" />
    <glyph glyph-name="P" unicode="P" horiz-adv-x="1517" 
d="M442 0h-241v1452h698q259 0 397 -119t138 -315q0 -215 -141 -333t-390 -118h-461v-567zM442 1255v-491h432q153 0 234.5 56t81.5 194q0 241 -316 241h-432z" />
    <glyph glyph-name="Q" unicode="Q" horiz-adv-x="1757" 
d="M1364 123l375 -268l-135 -160l-449 317q-125 -43 -281 -43q-173 0 -318 59t-241.5 162t-150 242.5t-53.5 298.5q0 150 55 286.5t153 240t244.5 164.5t319.5 61q139 0 261 -39.5t213 -110t157 -164.5t99.5 -206t33.5 -232q0 -185 -73.5 -345t-209.5 -263zM885 166
q99 0 183 30t143 82t100.5 123t61.5 153.5t20 172.5q0 111 -33.5 210.5t-97 178t-165 124.5t-227.5 46q-118 0 -215 -44.5t-159.5 -121t-96.5 -175.5t-34 -210q0 -115 34 -217t97.5 -181t164 -125t224.5 -46z" />
    <glyph glyph-name="R" unicode="R" horiz-adv-x="1550" 
d="M203 0v1452h717q232 0 367.5 -105t135.5 -294q0 -133 -67.5 -222t-194.5 -124q223 -65 223 -351v-65q0 -224 17 -291h-246q-4 12 -7.5 26.5t-5.5 27.5t-3.5 34.5t-2 34.5t-1 41t-0.5 40.5v46.5v46v49q0 150 -69 207t-251 57h-375v-610h-237zM440 1262v-461h420
q160 0 238 57.5t78 177.5q0 226 -310 226h-426z" />
    <glyph glyph-name="S" unicode="S" horiz-adv-x="1495" 
d="M1331 1081h-241q-11 34 -22.5 58.5t-39 56.5t-65 52t-102 34t-148.5 14q-152 0 -237 -51t-85 -149q0 -45 14.5 -76.5t54.5 -61t115 -52t191 -42.5q155 -27 267 -64t179 -78t105.5 -94.5t51.5 -104.5t13 -117q0 -91 -37.5 -168.5t-112 -138.5t-199.5 -95.5t-288 -34.5
q-300 0 -465.5 123t-201.5 334h244q26 -84 75 -141.5t142 -93t225 -35.5q193 0 282 61.5t89 163.5q0 53 -18 91t-65 72.5t-133 61t-219 49.5q-166 28 -277 68.5t-171 95t-83.5 114t-23.5 138.5q0 128 77 223t205.5 142t291.5 47q137 0 245.5 -28t173 -69.5t108.5 -98
t62 -106t23 -100.5z" />
    <glyph glyph-name="T" unicode="T" horiz-adv-x="1363" 
d="M803 0h-240v1253h-545v199h1328v-199h-543v-1253z" />
    <glyph glyph-name="U" unicode="U" horiz-adv-x="1673" 
d="M186 612v840h242v-823q0 -106 24 -188t63 -133t94 -84t113 -45.5t124 -12.5q197 0 299 106.5t102 356.5v823h240v-825q0 -658 -649 -658q-308 0 -480 158t-172 485z" />
    <glyph glyph-name="V" unicode="V" horiz-adv-x="1574" 
d="M922 0h-279l-625 1452h267l311 -756q108 -259 190 -497h5q18 59 182 479l325 774h256z" />
    <glyph glyph-name="W" unicode="W" horiz-adv-x="2215" 
d="M737 0h-258l-442 1452h254q17 -59 69 -236t85.5 -294t76.5 -269t69.5 -260t35.5 -168h2q41 220 362 1227h236q317 -1029 354 -1219h4q42 213 333 1151q14 47 21 68h242l-471 -1452h-262q-306 985 -352 1196h-2q-39 -198 -357 -1196z" />
    <glyph glyph-name="X" unicode="X" horiz-adv-x="1413" 
d="M-14 0l571 743l-549 709h287l414 -543l2 2l417 541h269l-557 -700l587 -752h-284l-447 580h-4l-434 -580h-272z" />
    <glyph glyph-name="Y" unicode="Y" horiz-adv-x="1384" 
d="M813 0h-240v545q0 17 -16 39l-606 868h287q38 -56 165 -242.5t197.5 -294t101.5 -163.5q26 44 84.5 133.5t110.5 167t142 210.5t128 189h267l-611 -877q-10 -17 -10 -34v-541z" />
    <glyph glyph-name="Z" unicode="Z" horiz-adv-x="1425" 
d="M51 0v174l981 1083h-934v195h1243v-186l-968 -1071h1024l-33 -195h-1313z" />
    <glyph glyph-name="bracketleft" unicode="[" horiz-adv-x="833" 
d="M739 -328h-544v1864h544v-162h-346v-1540h346v-162z" />
    <glyph glyph-name="backslash" unicode="\" horiz-adv-x="1083" 
d="M989 -104h-209l-688 1556h211z" />
    <glyph glyph-name="bracketright" unicode="]" horiz-adv-x="833" 
d="M92 -328v162h348v1540h-348v162h547v-1864h-547z" />
    <glyph glyph-name="asciicircum" unicode="^" horiz-adv-x="1216" 
d="M45 547l471 864h184l471 -864h-213l-352 674l-362 -674h-199z" />
    <glyph glyph-name="underscore" unicode="_" horiz-adv-x="1341" 
d="M0 -268v106h1343v-106h-1343z" />
    <glyph glyph-name="grave" unicode="`" 
d="M356 1233l-350 326h270l291 -326h-211z" />
    <glyph glyph-name="a" unicode="a" horiz-adv-x="1261" 
d="M379 737h-229q4 45 18 87t48 88.5t84.5 80.5t134.5 56t190 22q477 0 477 -364v-441q0 -166 8 -266h-217q-5 20 -12 143q-93 -172 -387 -172q-105 0 -186 30t-127 79.5t-68.5 107t-22.5 119.5q0 78 28 138t76 98t118.5 62.5t148 34t172.5 9.5h244v51q0 43 -10.5 77t-37 64
t-77.5 46t-125 16q-67 0 -114 -13t-73.5 -38.5t-39.5 -51.5t-21 -63zM315 319q0 -77 58 -125.5t172 -48.5q92 0 158.5 24.5t103.5 68.5t53.5 98t16.5 121v37q-29 2 -240 2q-167 0 -244.5 -42t-77.5 -135z" />
    <glyph glyph-name="b" unicode="b" horiz-adv-x="1353" 
d="M377 0h-219q2 137 2 356v1180h229v-643q119 178 375 178q143 0 258 -69t180.5 -191t65.5 -272q0 -258 -145.5 -413t-372.5 -155q-262 0 -369 181q0 -86 -4 -152zM709 160q82 0 145.5 30t101.5 82t57 117.5t19 140.5q0 66 -19 127t-56.5 112.5t-101 82.5t-144.5 31
q-162 0 -246 -99t-84 -262q0 -166 87.5 -264t240.5 -98z" />
    <glyph glyph-name="c" unicode="c" horiz-adv-x="1239" 
d="M1159 702h-227q-71 189 -289 189q-152 0 -238 -102.5t-86 -266.5q0 -161 85 -265.5t239 -104.5q113 0 183 46t110 134h227q-19 -74 -59.5 -137t-103 -114t-154.5 -80.5t-203 -29.5q-138 0 -246 43.5t-175 119t-101.5 173.5t-34.5 211q0 111 38 210.5t107.5 176
t176.5 121.5t237 45q105 0 192 -26t142 -65.5t95.5 -90.5t59 -97t25.5 -90z" />
    <glyph glyph-name="d" unicode="d" horiz-adv-x="1353" 
d="M1198 0h-223q-8 55 -8 150q-19 -30 -37.5 -52t-50.5 -47.5t-69 -41.5t-93.5 -27t-124.5 -11q-224 0 -365 151.5t-141 389.5q0 125 45.5 232t120 177.5t170 110t196.5 39.5q252 0 349 -147v612h229v-1235q0 -201 2 -301zM647 158q166 0 247 97.5t81 268.5q0 174 -75 267.5
t-249 93.5q-106 0 -182.5 -54t-111.5 -136t-35 -179q0 -70 21.5 -133.5t61 -114t102.5 -80.5t140 -30z" />
    <glyph glyph-name="e" unicode="e" horiz-adv-x="1257" 
d="M934 301h229q-23 -65 -62.5 -120.5t-101 -104.5t-154 -77t-206.5 -28q-112 0 -205.5 31t-157 83t-107 123t-63.5 148.5t-20 161.5q0 155 65 280t191 199t293 74q115 0 208.5 -32.5t154.5 -85.5t102.5 -125t59.5 -148t18 -156v-57h-863q8 -140 97.5 -228.5t234.5 -88.5
q110 0 178 38.5t109 112.5zM633 899q-144 0 -222.5 -77t-91.5 -201h623q-3 49 -18.5 93t-48 88t-95 70.5t-147.5 26.5z" />
    <glyph glyph-name="f" unicode="f" horiz-adv-x="698" 
d="M453 0h-230v866h-190v176h190v127q0 186 88.5 284.5t270.5 98.5q80 0 127 -12v-180q-36 8 -86 8q-97 0 -133.5 -45.5t-36.5 -161.5v-119h235v-176h-235v-866z" />
    <glyph glyph-name="g" unicode="g" horiz-adv-x="1351" 
d="M96 -121h232q27 -84 95.5 -133t209.5 -49q83 0 143.5 21.5t96.5 57t57.5 91.5t29 114.5t7.5 135.5v53q-51 -91 -140 -138.5t-241 -47.5q-145 0 -260 70t-177.5 189t-62.5 265q0 122 42 227.5t113 178.5t167 115t202 42q83 0 149 -17t106.5 -45t64.5 -56.5t37 -59.5
q0 105 6 149h221q-2 -102 -2 -303v-608q0 -150 -29 -259.5t-94 -190.5t-177 -121.5t-271 -40.5q-120 0 -214.5 27t-148 65t-91 90.5t-51 93.5t-20.5 84zM643 170q156 0 242 92.5t86 265.5q0 169 -83 262t-235 93q-108 0 -185.5 -53.5t-113 -135t-35.5 -178.5q0 -150 90 -248
t234 -98z" />
    <glyph glyph-name="h" unicode="h" horiz-adv-x="1320" 
d="M160 0v1536h227v-668q17 33 41.5 63t67.5 64.5t112 55t154 20.5q187 0 293 -112.5t106 -329.5v-629h-229v596q0 287 -242 287q-148 0 -224.5 -102.5t-76.5 -270.5v-510h-229z" />
    <glyph glyph-name="i" unicode="i" horiz-adv-x="548" 
d="M389 0h-229v1042h229v-1042zM389 1294h-229v242h229v-242z" />
    <glyph glyph-name="j" unicode="j" horiz-adv-x="557" 
d="M-33 -479v182h19q102 0 143 53.5t41 175.5v1110h227v-1056q0 -87 -8 -151.5t-33 -127t-68 -101.5t-115 -63t-171 -24q-10 0 -22 1t-13 1zM399 1294h-229v242h229v-242z" />
    <glyph glyph-name="k" unicode="k" horiz-adv-x="1253" 
d="M160 0v1536h229v-981q62 58 276.5 249t266.5 238h280l-471 -403l523 -639h-285l-404 510l-186 -154v-356h-229z" />
    <glyph glyph-name="l" unicode="l" horiz-adv-x="546" 
d="M389 0h-229v1536h229v-1536z" />
    <glyph glyph-name="m" unicode="m" horiz-adv-x="1927" 
d="M387 0h-227v772q0 180 -2 270h219q8 -57 8 -149q110 178 332 178q239 0 317 -192q123 192 357 192q168 0 272 -106t104 -324v-641h-225v633q0 38 -5 71t-19.5 67.5t-37 59.5t-61 40.5t-88.5 15.5q-119 0 -186.5 -80t-67.5 -236v-571h-225v639q0 50 -9.5 90.5t-32 78
t-66 58.5t-105.5 21q-129 0 -190.5 -88.5t-61.5 -237.5v-561z" />
    <glyph glyph-name="n" unicode="n" horiz-adv-x="1320" 
d="M389 0h-229v778q0 186 -2 264h223q3 -30 8 -180q19 39 47 73t71.5 66t108 51t142.5 19q188 0 295.5 -113t107.5 -321v-637h-229v596q0 63 -13 113t-40.5 90t-76 62t-114.5 22q-147 0 -223 -101t-76 -278v-504z" />
    <glyph glyph-name="o" unicode="o" horiz-adv-x="1304" 
d="M86 520q0 111 39 210.5t110 175.5t180 120.5t240 44.5q108 0 201 -31t159 -84.5t112.5 -124t69 -149t22.5 -160.5q0 -113 -37.5 -212t-107.5 -175t-181 -120t-248 -44q-131 0 -238.5 45t-176.5 121.5t-106.5 175t-37.5 207.5zM653 154q107 0 183.5 50.5t111.5 131.5
t35 182q0 156 -88.5 263.5t-245.5 107.5q-107 0 -183.5 -52t-111.5 -133.5t-35 -183.5q0 -96 37.5 -178t115.5 -135t181 -53z" />
    <glyph glyph-name="p" unicode="p" horiz-adv-x="1353" 
d="M389 -453h-229v1235q0 174 -2 260h225q6 -44 6 -170q117 199 391 199q209 0 348.5 -152.5t139.5 -379.5q0 -126 -42.5 -233.5t-114 -180t-166.5 -113.5t-200 -41q-242 0 -356 170v-594zM707 160q104 0 179 51t110.5 133t35.5 184q0 69 -20 131t-58 113t-101 81t-142 30
q-164 0 -246 -100.5t-82 -266.5q0 -161 83.5 -258.5t240.5 -97.5z" />
    <glyph glyph-name="q" unicode="q" horiz-adv-x="1353" 
d="M1198 -453h-229v600q-108 -176 -375 -176q-217 0 -362.5 151.5t-145.5 381.5q0 106 30.5 198.5t82 159t119 114.5t142.5 71.5t152 23.5q68 0 126 -12.5t95.5 -31t67.5 -42.5t44.5 -43.5t23.5 -38.5q3 91 6 139h225q-2 -86 -2 -292v-1203zM641 160q163 0 247.5 92.5
t84.5 269.5q0 166 -77.5 263.5t-242.5 97.5q-159 0 -245 -105.5t-86 -261.5q0 -154 87.5 -255t231.5 -101z" />
    <glyph glyph-name="r" unicode="r" horiz-adv-x="843" 
d="M389 0h-229v758q0 190 -2 284h223q8 -66 8 -229q51 121 158.5 190t257.5 66v-215q-188 3 -302 -105.5t-114 -326.5v-422z" />
    <glyph glyph-name="s" unicode="s" horiz-adv-x="1163" 
d="M1044 756h-227q-36 151 -266 151q-118 0 -164.5 -39t-46.5 -90q0 -38 20 -61.5t80.5 -44t171.5 -35.5q117 -16 202 -41.5t135.5 -55.5t80 -70t39.5 -78.5t10 -88.5q0 -150 -121 -241t-368 -91q-224 0 -360 90.5t-162 255.5h229q52 -178 307 -178q248 0 248 146
q0 43 -22 71t-89.5 51.5t-189.5 38.5q-108 14 -188.5 39t-127.5 54.5t-75 67.5t-37.5 73t-9.5 78q0 44 13.5 86t47 84t83.5 73t129 50.5t177 19.5q104 0 187.5 -20.5t135.5 -52.5t87.5 -75t51 -83.5t19.5 -83.5z" />
    <glyph glyph-name="t" unicode="t" horiz-adv-x="784" 
d="M236 295v571h-203v176h203v328h229v-328h264v-176h-264v-538q0 -88 28.5 -125t108.5 -37q59 0 98 8v-164q-61 -20 -172 -20q-163 0 -227.5 72.5t-64.5 232.5z" />
    <glyph glyph-name="u" unicode="u" horiz-adv-x="1304" 
d="M160 397v645h227v-604q0 -126 55.5 -202t178.5 -76q157 0 227 96t70 311v475h227v-739q0 -203 2 -303h-221q-8 58 -8 164q-28 -60 -68 -100t-116 -66.5t-185 -26.5q-175 0 -282 105t-107 321z" />
    <glyph glyph-name="v" unicode="v" horiz-adv-x="1193" 
d="M473 0l-453 1042h248q53 -140 185 -458.5t151 -376.5h4q49 156 332 835h234l-451 -1042h-250z" />
    <glyph glyph-name="w" unicode="w" horiz-adv-x="1761" 
d="M371 0l-336 1042h237q201 -678 238 -847h2q34 144 266 847h217q234 -711 260 -837h2q56 231 244 837h225l-352 -1042h-239q-46 142 -107.5 326t-97.5 293.5t-51 164.5h-2q-46 -174 -259 -784h-247z" />
    <glyph glyph-name="x" unicode="x" horiz-adv-x="1175" 
d="M8 0l445 528l-445 514h273q65 -77 143.5 -169t117 -137t56.5 -68h2q67 82 313 374h252l-438 -503l459 -539h-271q-91 109 -201 240.5t-126 150.5h-4q-59 -72 -322 -391h-254z" />
    <glyph glyph-name="y" unicode="y" horiz-adv-x="1212" 
d="M117 -469v195q62 -9 110 -9q71 0 117 23t80 70.5t80 144.5l-479 1087h251q274 -646 349 -864h4q139 406 319 864h236l-393 -966q-38 -93 -64 -154t-56 -123t-53.5 -98.5t-54 -71.5t-59.5 -53t-68 -32.5t-81 -19.5t-97 -5q-86 0 -141 12z" />
    <glyph glyph-name="z" unicode="z" horiz-adv-x="1132" 
d="M70 0v168l692 692h-653v182h944v-174l-680 -686h729l-33 -182h-999z" />
    <glyph glyph-name="braceleft" unicode="{" horiz-adv-x="874" 
d="M295 53v219q0 136 -50.5 189t-189.5 53v184q137 0 188.5 52.5t51.5 191.5v207q0 191 99 289t290 98h88v-164h-33q-134 0 -185.5 -58.5t-51.5 -189.5v-188q0 -271 -189 -328q47 -15 78.5 -35.5t58.5 -57.5t39.5 -96.5t12.5 -144.5v-188q0 -131 54 -191.5t175 -60.5h41
v-162h-90q-387 0 -387 381z" />
    <glyph glyph-name="bar" unicode="|" horiz-adv-x="620" 
d="M205 -541v2155h211v-2155h-211z" />
    <glyph glyph-name="braceright" unicode="}" horiz-adv-x="874" 
d="M55 -328v164h33q134 0 186 59t52 191v186q0 271 186 328q-47 15 -78.5 35.5t-57 57.5t-38 96.5t-12.5 144.5v188q0 131 -55 191.5t-175 60.5h-41v162h90q387 0 387 -381v-219q0 -136 50.5 -189t189.5 -53v-184q-137 0 -188.5 -52t-51.5 -190v-209q0 -191 -99 -289
t-290 -98h-88z" />
    <glyph glyph-name="asciitilde" unicode="~" horiz-adv-x="1622" 
d="M377 397h-184v82q0 88 23 153.5t63 103.5t89.5 56.5t106.5 18.5q90 0 191.5 -35t175.5 -76.5t154.5 -76.5t133.5 -35q65 0 91 36t26 128v49h180v-68q0 -102 -21 -172.5t-61.5 -107.5t-89 -52.5t-112.5 -15.5q-65 0 -140.5 23t-142.5 56t-131 66.5t-127 56.5t-110 23
q-55 0 -85 -35.5t-30 -125.5v-52z" />
    <glyph glyph-name="uni00A0" unicode="&#xa0;" horiz-adv-x="598" 
 />
    <glyph glyph-name="exclamdown" unicode="&#xa1;" horiz-adv-x="677" 
d="M203 -401v235l22 698h199l25 -698v-235h-246zM215 727v324h221v-324h-221z" />
    <glyph glyph-name="cent" unicode="&#xa2;" horiz-adv-x="1255" 
d="M578 -57v198q-114 12 -205 60t-148.5 121.5t-88 165.5t-30.5 194q0 218 129.5 364.5t342.5 172.5v153h155v-153q104 -9 188 -44.5t135 -86.5t80 -108t35 -116h-229q-46 154 -209 178v-723q158 22 209 170h229q-38 -144 -149.5 -237t-288.5 -111v-198h-155zM578 322v718
q-111 -22 -172.5 -112t-61.5 -242q0 -150 60 -244t174 -120z" />
    <glyph glyph-name="sterling" unicode="&#xa3;" horiz-adv-x="1267" 
d="M1219 0h-1115v164q172 81 172 389q0 39 -2 57h-196v172h186q-4 90 -4 148q0 217 117 349t344 132q106 0 190.5 -30.5t138 -83.5t84 -120t35.5 -143h-223q-41 195 -233 195q-116 0 -168.5 -71.5t-52.5 -211.5q0 -50 4 -164h350v-172h-342v-28q0 -255 -111 -387h854z" />
    <glyph glyph-name="currency" unicode="&#xa4;" horiz-adv-x="1292" 
d="M209 82l-125 137l162 172q-76 124 -76 287q0 162 78 287l-164 174l125 135l164 -174q122 86 284 86q160 0 285 -86l162 174l125 -135l-162 -174q74 -123 74 -283t-74 -289l162 -174l-125 -137l-162 174q-120 -88 -289 -88q-162 0 -282 88zM653 340q130 0 208.5 82.5
t78.5 257.5q0 151 -73 240.5t-214 89.5q-137 0 -212.5 -91.5t-75.5 -238.5q0 -87 25 -154.5t67 -107t92 -59t104 -19.5z" />
    <glyph glyph-name="yen" unicode="&#xa5;" horiz-adv-x="1200" 
d="M170 289v145h305v139h-305v148h268l-469 661h264q72 -110 138 -208.5t100.5 -150t63 -94t42 -64t21.5 -36.5h2q15 24 46.5 70.5t129.5 188t203 294.5h240l-480 -661h273v-148h-312v-139h312v-145h-312v-289h-225v289h-305z" />
    <glyph glyph-name="brokenbar" unicode="&#xa6;" horiz-adv-x="505" 
d="M164 696v754h203v-754h-203zM164 -379v754h203v-754h-203z" />
    <glyph glyph-name="section" unicode="&#xa7;" horiz-adv-x="1368" 
d="M100 -12h228q28 -105 121 -160t221 -55q133 0 206.5 48.5t73.5 125.5q0 59 -26.5 95.5t-110.5 74t-252 82.5q-132 35 -223.5 77.5t-142.5 94t-73 107t-22 124.5q0 89 55 165t140 128q-41 32 -63.5 86t-22.5 119q0 70 28.5 132.5t84.5 113t149.5 80t212.5 28.5
q113 0 204 -24t148 -61.5t96 -87.5t56 -96.5t20 -92.5h-225q-15 79 -93 136.5t-212 57.5q-246 0 -246 -168q0 -31 17 -57.5t42 -45.5t76.5 -41t95.5 -37t125 -40q249 -74 360.5 -169.5t111.5 -250.5q0 -90 -44.5 -171t-125.5 -136q88 -69 88 -209q0 -163 -137 -263.5
t-375 -100.5q-241 0 -388 101.5t-178 289.5zM629 389q237 -71 321 -115q94 63 94 166q0 95 -64 148t-251 119q-43 15 -110.5 36t-106 35t-70.5 31q-59 -29 -95 -77.5t-36 -96.5q0 -40 11 -68.5t43 -59.5t97 -60t167 -58z" />
    <glyph glyph-name="dieresis" unicode="&#xa8;" 
d="M297 1294h-205v242h205v-242zM727 1294h-205v242h205v-242z" />
    <glyph glyph-name="copyright" unicode="&#xa9;" horiz-adv-x="1710" 
d="M858 -29q-160 0 -298 56t-237 155t-155.5 241.5t-56.5 309.5q0 159 57.5 299.5t156.5 240t237.5 157t295.5 57.5q210 0 379.5 -97t265.5 -269.5t96 -387.5q0 -217 -96.5 -391.5t-266 -272.5t-378.5 -98zM856 88q132 0 245.5 45t196 126.5t130 203t47.5 268.5
q0 281 -174.5 460t-444.5 179q-131 0 -244 -43.5t-196.5 -124t-131.5 -203t-48 -272.5q0 -137 47.5 -256t130 -203t197.5 -132t245 -48zM1225 883h-150q-11 32 -24.5 55t-36.5 48.5t-61 39.5t-87 14q-110 0 -174.5 -80t-64.5 -223q0 -140 67.5 -222.5t173.5 -82.5
q81 0 130.5 36t76.5 112h148q-29 -128 -120 -200.5t-239 -72.5q-174 0 -282.5 115.5t-108.5 308.5q0 191 110 311.5t285 120.5q86 0 154.5 -26t109.5 -68.5t64 -89t29 -96.5z" />
    <glyph glyph-name="ordfeminine" unicode="&#xaa;" horiz-adv-x="843" 
d="M262 1053h-164q4 31 14 58t32.5 57t56 51t89 35t126.5 14q93 0 159 -21t100 -58t49 -78.5t15 -90.5v-299q0 -109 2 -156h-168q-6 37 -6 105q-77 -113 -248 -113q-124 0 -194 63.5t-70 159.5q0 55 21.5 96t56 65.5t86.5 39.5t104 20t117 5h125v22q0 51 -34 85t-117 34
q-132 0 -152 -94zM567 883v14h-129q-45 0 -77 -3.5t-63.5 -14t-48 -32.5t-16.5 -56q0 -41 36.5 -71t101.5 -30q86 0 141 45.5t55 147.5z" />
    <glyph glyph-name="guillemotleft" unicode="&#xab;" horiz-adv-x="1226" 
d="M436 111l-338 426l338 421h215l-334 -421l338 -426h-219zM911 111l-338 426l338 421h215l-333 -421l337 -426h-219z" />
    <glyph glyph-name="logicalnot" unicode="&#xac;" horiz-adv-x="1716" 
d="M211 713v194h1270v-753h-205v559h-1065z" />
    <glyph glyph-name="uni00AD" unicode="&#xad;" horiz-adv-x="888" 
d="M113 426v195h661v-195h-661z" />
    <glyph glyph-name="registered" unicode="&#xae;" horiz-adv-x="792" 
d="M41 1126q0 161 103 264t266 103q161 0 262.5 -107t101.5 -260q0 -164 -102 -266t-262 -102q-159 0 -264 103t-105 265zM410 836q134 0 205 78t71 210q0 131 -75.5 212t-202.5 81q-139 0 -210 -81.5t-71 -209.5t79.5 -209t203.5 -81zM348 952h-90v361h178q58 0 95.5 -28.5
t37.5 -76.5q0 -31 -14.5 -53.5t-36.5 -30.5q41 -11 41 -92q0 -30 4 -80h-94q-4 14 -4 80q0 32 -12 43.5t-45 11.5h-60v-135zM350 1243v-88h68q59 0 59 45q0 43 -61 43h-66z" />
    <glyph glyph-name="macron" unicode="&#xaf;" 
d="M94 1311v164h629v-164h-629z" />
    <glyph glyph-name="degree" unicode="&#xb0;" horiz-adv-x="722" 
d="M55 1128q0 134 87.5 223t217.5 89q139 0 223.5 -87t84.5 -214q0 -141 -90 -227.5t-220 -86.5q-134 0 -218.5 85.5t-84.5 217.5zM358 950q78 0 124 51t46 134q0 73 -44 127.5t-126 54.5q-77 0 -121 -51.5t-44 -132.5q0 -79 45.5 -131t119.5 -52z" />
    <glyph glyph-name="plusminus" unicode="&#xb1;" horiz-adv-x="1689" 
d="M211 860v193h534v489h201v-489h533v-193h-533v-532h-201v532h-534zM1479 0h-1268v195h1268v-195z" />
    <glyph glyph-name="two.sups" unicode="&#xb2;" horiz-adv-x="825" 
d="M756 911h-680v11q0 119 66 211.5t220 171.5q126 66 153 88q40 34 40 82t-34.5 82t-110.5 34q-74 0 -114 -32t-52 -101h-176q13 123 101.5 200t246.5 77q87 0 153 -23t103 -61.5t55 -82t18 -89.5q0 -97 -55.5 -154t-187.5 -119q-87 -43 -131 -75t-64 -74h475z" />
    <glyph glyph-name="three.sups" unicode="&#xb3;" horiz-adv-x="829" 
d="M51 1167h178q36 -127 189 -127q83 0 126.5 30t43.5 87q0 64 -47.5 89.5t-145.5 25.5h-73v131h67q94 0 129 21t35 69q0 102 -145 102q-130 0 -162 -106h-166q2 26 10.5 54t32 63.5t58 63t95 46.5t136.5 19q151 0 236 -64t85 -170q0 -65 -35.5 -105t-85.5 -50
q63 -14 110.5 -63.5t47.5 -125.5q0 -108 -88 -182t-272 -74q-80 0 -143.5 19t-102 47.5t-64.5 66t-36.5 70t-12.5 63.5z" />
    <glyph glyph-name="acute" unicode="&#xb4;" 
d="M252 1233l283 326h270l-342 -326h-211z" />
    <glyph glyph-name="uni00B5" unicode="&#xb5;" horiz-adv-x="1308" 
d="M160 -453v1495h227v-620q0 -262 231 -262q155 0 229.5 102t74.5 289v491h227v-716q0 -275 4 -326h-217q-10 40 -10 176q-52 -109 -126.5 -157t-209.5 -48q-144 0 -217 99q12 -228 14 -523h-227z" />
    <glyph glyph-name="paragraph" unicode="&#xb6;" horiz-adv-x="1419" 
d="M1184 -340h-185v633h-335q-266 0 -423 142.5t-157 400.5q0 240 152.5 389t425.5 149h337q5 89 13 121h174q-2 -41 -2 -152v-1683zM877 475h120v725h-120q-54 0 -94 -17t-65 -46.5t-40.5 -75.5t-21.5 -97t-7 -118q0 -46 1.5 -79.5t7 -74.5t15 -70.5t26.5 -58.5t40.5 -47
t58.5 -29.5t79 -11.5z" />
    <glyph glyph-name="periodcentered" unicode="&#xb7;" horiz-adv-x="493" 
d="M375 410h-256v358h256v-358z" />
    <glyph glyph-name="cedilla" unicode="&#xb8;" 
d="M184 -494v132q82 -19 146 -19q137 0 137 72q0 27 -18.5 45t-56 27t-76.5 12t-97 4v59l156 182l151 -20l-92 -111q29 -4 56.5 -11.5t58.5 -22.5t53.5 -35.5t37.5 -52t15 -70.5q0 -62 -28 -106.5t-75.5 -66.5t-94.5 -31t-99 -9q-101 0 -174 22z" />
    <glyph glyph-name="one.sups" unicode="&#xb9;" horiz-adv-x="516" 
d="M393 911h-184v613q-25 -15 -80.5 -29t-87.5 -16v133q51 9 118 43t107 69h127v-813z" />
    <glyph glyph-name="ordmasculine" unicode="&#xba;" horiz-adv-x="882" 
d="M61 909q0 165 107.5 262t275.5 97q172 0 274.5 -102t102.5 -253q0 -164 -106.5 -260t-280.5 -96q-163 0 -268 100.5t-105 251.5zM438 690q100 0 149.5 59t49.5 162q-3 100 -52.5 159.5t-146.5 59.5q-96 0 -144 -60t-48 -159q0 -94 52.5 -157.5t139.5 -63.5z" />
    <glyph glyph-name="guillemotright" unicode="&#xbb;" horiz-adv-x="1226" 
d="M315 111h-217l336 421l-336 426h217l340 -426zM791 111h-218l336 421l-336 426h218l339 -426z" />
    <glyph glyph-name="onequarter" unicode="&#xbc;" horiz-adv-x="1710" 
d="M399 0h-155l870 1382h154zM891 193v141l403 479h215v-479h142l-13 -141h-129v-193h-168v193h-450zM1071 334h270v149q0 134 5 193q-17 -24 -60.5 -78.5t-119 -146.5t-95.5 -117zM395 569h-184v613q-25 -15 -80.5 -29t-87.5 -16v133q51 9 118 43t107 69h127v-813z" />
    <glyph glyph-name="onehalf" unicode="&#xbd;" horiz-adv-x="1742" 
d="M389 0h-156l871 1382h153zM1669 0h-680v10q0 119 66.5 211t220.5 172q126 66 153 89q39 32 39 81q0 48 -34.5 82.5t-110.5 34.5q-74 0 -114 -32t-52 -101h-176q13 123 101.5 199.5t246.5 76.5q87 0 153 -23t103.5 -61.5t55.5 -82t18 -89.5q0 -97 -55.5 -153.5
t-188.5 -118.5q-86 -43 -129.5 -75.5t-64.5 -74.5h475zM383 569h-184v613q-25 -15 -80.5 -29t-87.5 -16v133q51 9 118 43t107 69h127v-813z" />
    <glyph glyph-name="threequarters" unicode="&#xbe;" horiz-adv-x="1910" 
d="M651 0h-155l870 1382h154zM1092 193v141l403 479h215v-479h141l-12 -141h-129v-193h-168v193h-450zM1272 334h270v149q0 146 4 193q-20 -29 -274 -342zM70 825h178q36 -127 188 -127q83 0 126.5 30t43.5 87q0 64 -47 89.5t-145 25.5h-74v131h68q94 0 128.5 21t34.5 69
q0 102 -145 102q-130 0 -162 -106h-166q2 26 10.5 54t32 63.5t58 63t95 46.5t136.5 19q151 0 236.5 -64t85.5 -170q0 -65 -35.5 -105t-85.5 -50q63 -14 110 -63.5t47 -125.5q0 -108 -88 -182t-272 -74q-80 0 -143.5 19t-101.5 47.5t-64 66t-36.5 70t-12.5 63.5z" />
    <glyph glyph-name="questiondown" unicode="&#xbf;" horiz-adv-x="1148" 
d="M895 10h211q-3 -61 -18 -118.5t-53.5 -120.5t-96 -109t-154 -76t-219.5 -30q-124 0 -220.5 31.5t-156 86.5t-90 125t-30.5 150q0 115 52 199t189 186q94 68 132 125t38 125v12h238v-29q0 -63 -16 -111.5t-68.5 -110t-147.5 -132.5q-105 -80 -143.5 -134.5t-38.5 -127.5
q-2 -94 71.5 -155.5t205.5 -61.5q278 0 315 276zM479 745v297h238v-297h-238z" />
    <glyph glyph-name="Agrave" unicode="&#xc0;" horiz-adv-x="1589" 
d="M18 0l615 1452h297l641 -1452h-260l-183 414h-688l-174 -414h-248zM774 1286h-2q-54 -172 -262 -672h545q-246 564 -281 672zM250 1876h309l344 -285h-225z" />
    <glyph glyph-name="Aacute" unicode="&#xc1;" horiz-adv-x="1589" 
d="M18 0l615 1452h297l641 -1452h-260l-183 414h-688l-174 -414h-248zM774 1286h-2q-54 -172 -262 -672h545q-246 564 -281 672zM643 1591l346 285h303l-415 -285h-234z" />
    <glyph glyph-name="Acircumflex" unicode="&#xc2;" horiz-adv-x="1589" 
d="M18 0l615 1452h297l641 -1452h-260l-183 414h-688l-174 -414h-248zM774 1286h-2q-54 -172 -262 -672h545q-246 564 -281 672zM367 1575l290 283h258l293 -283h-229l-195 176l-190 -176h-227z" />
    <glyph glyph-name="Atilde" unicode="&#xc3;" horiz-adv-x="1589" 
d="M18 0l615 1452h297l641 -1452h-260l-183 414h-688l-174 -414h-248zM774 1286h-2q-54 -172 -262 -672h545q-246 564 -281 672zM561 1597h-155v52q0 227 194 227q46 0 100.5 -17.5t95.5 -39t85.5 -39t72.5 -17.5q34 0 50 19.5t16 72.5v23h151v-43q0 -132 -49.5 -187
t-136.5 -55q-58 0 -129 29.5t-133.5 58.5t-101.5 29q-60 0 -60 -82v-31z" />
    <glyph glyph-name="Adieresis" unicode="&#xc4;" horiz-adv-x="1589" 
d="M664 1614h-205v241h205v-241zM1116 1614h-205v241h205v-241zM18 0l615 1452h297l641 -1452h-260l-183 414h-688l-174 -414h-248zM774 1286h-2q-54 -172 -262 -672h545q-246 564 -281 672z" />
    <glyph glyph-name="Aring" unicode="&#xc5;" horiz-adv-x="1589" 
d="M18 0l615 1452h297l641 -1452h-260l-183 414h-688l-174 -414h-248zM774 1286h-2q-54 -172 -262 -672h545q-246 564 -281 672zM537 1745q0 95 63 157t176 62q112 0 175 -60.5t63 -154.5q0 -96 -64 -156.5t-174 -60.5q-111 0 -175 60.5t-64 152.5zM776 1638q54 0 82.5 31.5
t28.5 77.5t-28 79.5t-83 33.5q-54 0 -82 -32.5t-28 -76.5q0 -48 27 -80.5t83 -32.5z" />
    <glyph glyph-name="AE" unicode="&#xc6;" horiz-adv-x="2349" 
d="M-33 0l1008 1452h1253v-201h-887v-389h844v-198h-844v-463h932l-30 -201h-1139v459h-561l-324 -459h-252zM659 645h445v639h-4z" />
    <glyph glyph-name="Ccedilla" unicode="&#xc7;" horiz-adv-x="1646" 
d="M631 -494v132q82 -19 145 -19q137 0 137 72q0 27 -18.5 45t-56 27t-76 12t-96.5 4v59l114 135q-160 13 -288.5 77t-211 165.5t-126 231t-43.5 276.5q0 155 53 292.5t149 241.5t241.5 165t319.5 61q123 0 228 -26t179.5 -70.5t131.5 -105.5t91 -127.5t50 -141.5h-243
q-23 57 -54.5 101.5t-82 86t-128 64t-176.5 22.5q-155 0 -270.5 -72.5t-175 -197.5t-59.5 -285q0 -118 34 -220.5t97 -180t160 -122t216 -44.5q94 0 166 18.5t122.5 56.5t84.5 84t64 111h241q-132 -426 -600 -461l-69 -84q29 -4 56.5 -11.5t58.5 -22.5t53.5 -35.5t37.5 -52
t15 -70.5q0 -62 -28 -106.5t-75.5 -66.5t-94.5 -31t-99 -9q-101 0 -174 22z" />
    <glyph glyph-name="Egrave" unicode="&#xc8;" horiz-adv-x="1464" 
d="M201 0v1452h1142v-199h-901v-393h856v-198h-856v-463h947l-31 -199h-1157zM279 1876h309l344 -285h-225z" />
    <glyph glyph-name="Eacute" unicode="&#xc9;" horiz-adv-x="1464" 
d="M201 0v1452h1142v-199h-901v-393h856v-198h-856v-463h947l-31 -199h-1157zM600 1591l346 285h303l-415 -285h-234z" />
    <glyph glyph-name="Ecircumflex" unicode="&#xca;" horiz-adv-x="1464" 
d="M201 0v1452h1142v-199h-901v-393h856v-198h-856v-463h947l-31 -199h-1157zM350 1583l291 283h258l293 -283h-229l-195 176l-190 -176h-228z" />
    <glyph glyph-name="Edieresis" unicode="&#xcb;" horiz-adv-x="1464" 
d="M645 1614h-205v241h205v-241zM1098 1614h-205v241h205v-241zM201 0v1452h1142v-199h-901v-393h856v-198h-856v-463h947l-31 -199h-1157z" />
    <glyph glyph-name="Igrave" unicode="&#xcc;" horiz-adv-x="643" 
d="M201 0v1452h241v-1452h-241zM-209 1876h309l344 -285h-225z" />
    <glyph glyph-name="Iacute" unicode="&#xcd;" horiz-adv-x="643" 
d="M201 0v1452h241v-1452h-241zM199 1591l346 285h303l-416 -285h-233z" />
    <glyph glyph-name="Icircumflex" unicode="&#xce;" horiz-adv-x="643" 
d="M201 0v1452h241v-1452h-241zM-100 1575l290 283h259l292 -283h-229l-195 176l-190 -176h-227z" />
    <glyph glyph-name="Idieresis" unicode="&#xcf;" horiz-adv-x="643" 
d="M197 1614h-205v241h205v-241zM649 1614h-205v241h205v-241zM201 0v1452h241v-1452h-241z" />
    <glyph glyph-name="Eth" unicode="&#xd0;" horiz-adv-x="1691" 
d="M223 0v664h-176v174h176v614h613q173 0 315 -54.5t235.5 -149.5t144 -222.5t50.5 -275.5q0 -171 -58.5 -313t-160 -237t-239 -147.5t-294.5 -52.5h-606zM465 195h321q263 0 401 147.5t138 400.5q0 239 -140 376.5t-384 137.5h-336v-419h409v-174h-409v-469z" />
    <glyph glyph-name="Ntilde" unicode="&#xd1;" horiz-adv-x="1728" 
d="M424 0h-223v1452h286q138 -198 337.5 -469.5t326 -446t162.5 -241.5h4q-12 154 -12 655v502h223v-1452h-271q-196 270 -485 683t-354 525h-4q10 -184 10 -647v-561zM635 1597h-156v52q0 227 195 227q46 0 100.5 -17.5t95.5 -39t85.5 -39t72.5 -17.5q34 0 50 19.5t16 72.5
v23h151v-43q0 -132 -49.5 -187t-136.5 -55q-58 0 -129 29.5t-134 58.5t-102 29q-59 0 -59 -82v-31z" />
    <glyph glyph-name="Ograve" unicode="&#xd2;" horiz-adv-x="1757" 
d="M111 731q0 150 55 286.5t153 240t244.5 164.5t319.5 61q139 0 261 -39.5t213 -110t157 -164.5t99.5 -206t33.5 -232q0 -155 -52 -292.5t-148 -242.5t-244 -166t-329 -61q-173 0 -318 59t-241.5 162t-150 242.5t-53.5 298.5zM885 166q99 0 183 30t143 82t100.5 123
t61.5 153.5t20 172.5q0 111 -33.5 210.5t-97 178t-165 124.5t-227.5 46q-118 0 -215 -44.5t-159.5 -121t-96.5 -175.5t-34 -210q0 -115 34 -217t97.5 -181t164 -125t224.5 -46zM367 1882h309l344 -285h-225z" />
    <glyph glyph-name="Oacute" unicode="&#xd3;" horiz-adv-x="1757" 
d="M111 731q0 150 55 286.5t153 240t244.5 164.5t319.5 61q139 0 261 -39.5t213 -110t157 -164.5t99.5 -206t33.5 -232q0 -155 -52 -292.5t-148 -242.5t-244 -166t-329 -61q-173 0 -318 59t-241.5 162t-150 242.5t-53.5 298.5zM885 166q99 0 183 30t143 82t100.5 123
t61.5 153.5t20 172.5q0 111 -33.5 210.5t-97 178t-165 124.5t-227.5 46q-118 0 -215 -44.5t-159.5 -121t-96.5 -175.5t-34 -210q0 -115 34 -217t97.5 -181t164 -125t224.5 -46zM717 1608l346 284h303l-416 -284h-233z" />
    <glyph glyph-name="Ocircumflex" unicode="&#xd4;" horiz-adv-x="1757" 
d="M111 731q0 150 55 286.5t153 240t244.5 164.5t319.5 61q139 0 261 -39.5t213 -110t157 -164.5t99.5 -206t33.5 -232q0 -155 -52 -292.5t-148 -242.5t-244 -166t-329 -61q-173 0 -318 59t-241.5 162t-150 242.5t-53.5 298.5zM885 166q99 0 183 30t143 82t100.5 123
t61.5 153.5t20 172.5q0 111 -33.5 210.5t-97 178t-165 124.5t-227.5 46q-118 0 -215 -44.5t-159.5 -121t-96.5 -175.5t-34 -210q0 -115 34 -217t97.5 -181t164 -125t224.5 -46zM446 1585l291 283h258l293 -283h-229l-195 176l-190 -176h-228z" />
    <glyph glyph-name="Otilde" unicode="&#xd5;" horiz-adv-x="1757" 
d="M111 731q0 150 55 286.5t153 240t244.5 164.5t319.5 61q139 0 261 -39.5t213 -110t157 -164.5t99.5 -206t33.5 -232q0 -155 -52 -292.5t-148 -242.5t-244 -166t-329 -61q-173 0 -318 59t-241.5 162t-150 242.5t-53.5 298.5zM885 166q99 0 183 30t143 82t100.5 123
t61.5 153.5t20 172.5q0 111 -33.5 210.5t-97 178t-165 124.5t-227.5 46q-118 0 -215 -44.5t-159.5 -121t-96.5 -175.5t-34 -210q0 -115 34 -217t97.5 -181t164 -125t224.5 -46zM639 1608h-156v51q0 227 195 227q59 0 129 -28t130.5 -56t94.5 -28t50 19.5t16 72.5v22h151v-43
q0 -132 -49 -186.5t-137 -54.5q-58 0 -129 29t-134 58t-102 29q-59 0 -59 -82v-30z" />
    <glyph glyph-name="Odieresis" unicode="&#xd6;" horiz-adv-x="1757" 
d="M743 1614h-204v241h204v-241zM1196 1614h-205v241h205v-241zM111 731q0 150 55 286.5t153 240t244.5 164.5t319.5 61q139 0 261 -39.5t213 -110t157 -164.5t99.5 -206t33.5 -232q0 -155 -52 -292.5t-148 -242.5t-244 -166t-329 -61q-173 0 -318 59t-241.5 162t-150 242.5
t-53.5 298.5zM885 166q99 0 183 30t143 82t100.5 123t61.5 153.5t20 172.5q0 111 -33.5 210.5t-97 178t-165 124.5t-227.5 46q-118 0 -215 -44.5t-159.5 -121t-96.5 -175.5t-34 -210q0 -115 34 -217t97.5 -181t164 -125t224.5 -46z" />
    <glyph glyph-name="multiply" unicode="&#xd7;" horiz-adv-x="1640" 
d="M346 18l-133 136l477 487l-477 487l129 132l477 -488l477 488l134 -132l-478 -489l475 -485l-131 -136l-475 488z" />
    <glyph glyph-name="Oslash" unicode="&#xd8;" horiz-adv-x="1757" 
d="M188 0l146 178q-107 106 -165 249.5t-58 303.5q0 154 54.5 291t152.5 239.5t244 162t319 59.5q239 0 419 -113l68 82h174l-133 -164q114 -104 176 -249t62 -308q0 -156 -52 -294t-148 -242.5t-244 -165t-329 -60.5q-246 0 -434 123l-73 -92h-179zM1268 1114l-693 -856
q133 -96 310 -96q165 0 282.5 76.5t173.5 202t56 286.5q0 231 -129 387zM477 356l690 850q-124 84 -297 84q-118 0 -215.5 -44.5t-161.5 -120t-98.5 -175.5t-34.5 -213q0 -221 117 -381z" />
    <glyph glyph-name="Ugrave" unicode="&#xd9;" horiz-adv-x="1673" 
d="M186 612v840h242v-823q0 -106 24 -188t63 -133t94 -84t113 -45.5t124 -12.5q197 0 299 106.5t102 356.5v823h240v-825q0 -658 -649 -658q-308 0 -480 158t-172 485zM326 1876h309l344 -285h-225z" />
    <glyph glyph-name="Uacute" unicode="&#xda;" horiz-adv-x="1673" 
d="M186 612v840h242v-823q0 -106 24 -188t63 -133t94 -84t113 -45.5t124 -12.5q197 0 299 106.5t102 356.5v823h240v-825q0 -658 -649 -658q-308 0 -480 158t-172 485zM684 1591l346 285h303l-415 -285h-234z" />
    <glyph glyph-name="Ucircumflex" unicode="&#xdb;" horiz-adv-x="1673" 
d="M186 612v840h242v-823q0 -106 24 -188t63 -133t94 -84t113 -45.5t124 -12.5q197 0 299 106.5t102 356.5v823h240v-825q0 -658 -649 -658q-308 0 -480 158t-172 485zM414 1575l291 283h258l292 -283h-229l-195 176l-190 -176h-227z" />
    <glyph glyph-name="Udieresis" unicode="&#xdc;" horiz-adv-x="1673" 
d="M711 1614h-205v241h205v-241zM1163 1614h-205v241h205v-241zM186 612v840h242v-823q0 -106 24 -188t63 -133t94 -84t113 -45.5t124 -12.5q197 0 299 106.5t102 356.5v823h240v-825q0 -658 -649 -658q-308 0 -480 158t-172 485z" />
    <glyph glyph-name="Yacute" unicode="&#xdd;" horiz-adv-x="1384" 
d="M813 0h-240v545q0 17 -16 39l-606 868h287q38 -56 165 -242.5t197.5 -294t101.5 -163.5q26 44 84.5 133.5t110.5 167t142 210.5t128 189h267l-611 -877q-10 -17 -10 -34v-541zM541 1591l346 285h303l-416 -285h-233z" />
    <glyph glyph-name="Thorn" unicode="&#xde;" horiz-adv-x="1499" 
d="M442 0h-239v1452h239v-268h402q259 0 407 -118t148 -335q0 -116 -45.5 -206t-126.5 -145t-185.5 -82.5t-228.5 -27.5h-371v-270zM442 991v-526h377q340 0 340 264q0 120 -86.5 191t-241.5 71h-389z" />
    <glyph glyph-name="germandbls" unicode="&#xdf;" horiz-adv-x="1468" 
d="M170 0v1063q0 242 139.5 365.5t435.5 123.5q98 0 180 -15.5t138.5 -40.5t101 -60.5t70.5 -72t43 -77.5t23 -74.5t6 -66.5q0 -42 -9 -80l-405 -188v-5l166 -92q173 -95 244 -190.5t71 -222.5q0 -183 -121.5 -289.5t-339.5 -106.5q-223 0 -370 105v221q62 -63 160.5 -107.5
t199.5 -44.5q124 0 183 57.5t59 141.5q0 76 -46 134t-165 124l-186 103q-112 63 -112 143t109 137l322 166q2 27 -7 56t-32.5 59.5t-60 54t-96 38.5t-132.5 15q-174 0 -257 -78.5t-83 -255.5v-1040h-229z" />
    <glyph glyph-name="agrave" unicode="&#xe0;" horiz-adv-x="1261" 
d="M379 737h-229q4 45 18 87t48 88.5t84.5 80.5t134.5 56t190 22q477 0 477 -364v-441q0 -166 8 -266h-217q-5 20 -12 143q-93 -172 -387 -172q-105 0 -186 30t-127 79.5t-68.5 107t-22.5 119.5q0 78 28 138t76 98t118.5 62.5t148 34t172.5 9.5h244v51q0 43 -10.5 77t-37 64
t-77.5 46t-125 16q-67 0 -114 -13t-73.5 -38.5t-39.5 -51.5t-21 -63zM315 319q0 -77 58 -125.5t172 -48.5q92 0 158.5 24.5t103.5 68.5t53.5 98t16.5 121v37q-29 2 -240 2q-167 0 -244.5 -42t-77.5 -135zM569 1233l-350 326h270l291 -326h-211z" />
    <glyph glyph-name="aacute" unicode="&#xe1;" horiz-adv-x="1261" 
d="M379 737h-229q4 45 18 87t48 88.5t84.5 80.5t134.5 56t190 22q477 0 477 -364v-441q0 -166 8 -266h-217q-5 20 -12 143q-93 -172 -387 -172q-105 0 -186 30t-127 79.5t-68.5 107t-22.5 119.5q0 78 28 138t76 98t118.5 62.5t148 34t172.5 9.5h244v51q0 43 -10.5 77t-37 64
t-77.5 46t-125 16q-67 0 -114 -13t-73.5 -38.5t-39.5 -51.5t-21 -63zM315 319q0 -77 58 -125.5t172 -48.5q92 0 158.5 24.5t103.5 68.5t53.5 98t16.5 121v37q-29 2 -240 2q-167 0 -244.5 -42t-77.5 -135zM475 1233l283 326h270l-342 -326h-211z" />
    <glyph glyph-name="acircumflex" unicode="&#xe2;" horiz-adv-x="1261" 
d="M379 737h-229q4 45 18 87t48 88.5t84.5 80.5t134.5 56t190 22q477 0 477 -364v-441q0 -166 8 -266h-217q-5 20 -12 143q-93 -172 -387 -172q-105 0 -186 30t-127 79.5t-68.5 107t-22.5 119.5q0 78 28 138t76 98t118.5 62.5t148 34t172.5 9.5h244v51q0 43 -10.5 77t-37 64
t-77.5 46t-125 16q-67 0 -114 -13t-73.5 -38.5t-39.5 -51.5t-21 -63zM315 319q0 -77 58 -125.5t172 -48.5q92 0 158.5 24.5t103.5 68.5t53.5 98t16.5 121v37q-29 2 -240 2q-167 0 -244.5 -42t-77.5 -135zM252 1225l268 327h225l267 -327h-207l-174 211l-170 -211h-209z" />
    <glyph glyph-name="atilde" unicode="&#xe3;" horiz-adv-x="1261" 
d="M379 737h-229q4 45 18 87t48 88.5t84.5 80.5t134.5 56t190 22q477 0 477 -364v-441q0 -166 8 -266h-217q-5 20 -12 143q-93 -172 -387 -172q-105 0 -186 30t-127 79.5t-68.5 107t-22.5 119.5q0 78 28 138t76 98t118.5 62.5t148 34t172.5 9.5h244v51q0 43 -10.5 77t-37 64
t-77.5 46t-125 16q-67 0 -114 -13t-73.5 -38.5t-39.5 -51.5t-21 -63zM315 319q0 -77 58 -125.5t172 -48.5q92 0 158.5 24.5t103.5 68.5t53.5 98t16.5 121v37q-29 2 -240 2q-167 0 -244.5 -42t-77.5 -135zM410 1243h-148v55q0 121 50 171.5t137 50.5q57 0 118 -28t112 -55.5
t85 -27.5q33 0 49 20.5t16 73.5v23h144v-49q0 -129 -48.5 -182.5t-138.5 -53.5q-45 0 -92.5 17.5t-80 39t-71.5 39t-69 17.5q-63 0 -63 -74v-37z" />
    <glyph glyph-name="adieresis" unicode="&#xe4;" horiz-adv-x="1261" 
d="M512 1294h-205v242h205v-242zM942 1294h-205v242h205v-242zM379 737h-229q4 45 18 87t48 88.5t84.5 80.5t134.5 56t190 22q477 0 477 -364v-441q0 -166 8 -266h-217q-5 20 -12 143q-93 -172 -387 -172q-105 0 -186 30t-127 79.5t-68.5 107t-22.5 119.5q0 78 28 138t76 98
t118.5 62.5t148 34t172.5 9.5h244v51q0 43 -10.5 77t-37 64t-77.5 46t-125 16q-67 0 -114 -13t-73.5 -38.5t-39.5 -51.5t-21 -63zM315 319q0 -77 58 -125.5t172 -48.5q92 0 158.5 24.5t103.5 68.5t53.5 98t16.5 121v37q-29 2 -240 2q-167 0 -244.5 -42t-77.5 -135z" />
    <glyph glyph-name="aring" unicode="&#xe5;" horiz-adv-x="1261" 
d="M379 737h-229q4 45 18 87t48 88.5t84.5 80.5t134.5 56t190 22q477 0 477 -364v-441q0 -166 8 -266h-217q-5 20 -12 143q-93 -172 -387 -172q-105 0 -186 30t-127 79.5t-68.5 107t-22.5 119.5q0 78 28 138t76 98t118.5 62.5t148 34t172.5 9.5h244v51q0 43 -10.5 77t-37 64
t-77.5 46t-125 16q-67 0 -114 -13t-73.5 -38.5t-39.5 -51.5t-21 -63zM315 319q0 -77 58 -125.5t172 -48.5q92 0 158.5 24.5t103.5 68.5t53.5 98t16.5 121v37q-29 2 -240 2q-167 0 -244.5 -42t-77.5 -135zM389 1393q0 95 63.5 157t176.5 62q112 0 174.5 -60.5t62.5 -154.5
q0 -96 -63.5 -156.5t-173.5 -60.5q-111 0 -175.5 60.5t-64.5 152.5zM629 1286q54 0 82 31.5t28 77.5t-27.5 79t-82.5 33t-83 -32t-28 -76q0 -48 27.5 -80.5t83.5 -32.5z" />
    <glyph glyph-name="ae" unicode="&#xe6;" horiz-adv-x="2045" 
d="M377 729h-227q6 69 34 127.5t82 108t146.5 78t214.5 28.5q313 0 399 -172q61 75 163 123.5t243 48.5q116 0 208.5 -31t152.5 -81.5t99.5 -120t56.5 -142.5t17 -153v-66h-864q5 -146 96 -235.5t248 -89.5q105 0 171 37t107 120h232q-22 -69 -64 -128t-105.5 -107
t-156 -75.5t-203.5 -27.5q-164 0 -279 62.5t-175 163.5q-127 -226 -453 -226q-110 0 -195.5 29t-135 77.5t-74.5 106.5t-25 121q0 90 40.5 155.5t113.5 102t163 53.5t201 17h273v51q0 219 -244 219q-122 0 -183 -45t-77 -129zM883 465v14h-265q-164 0 -233.5 -39t-69.5 -123
q0 -75 63.5 -121t172.5 -46q173 0 252.5 81t79.5 234zM1421 901q-139 0 -218 -70t-97 -198h627q-3 50 -20.5 94.5t-52 85t-96 64.5t-143.5 24z" />
    <glyph glyph-name="ccedilla" unicode="&#xe7;" horiz-adv-x="1239" 
d="M430 -489v131q82 -19 145 -19q138 0 138 72q0 27 -18.5 45t-56 27t-76.5 12t-97 4v59l113 131q-122 11 -217.5 58t-154.5 121t-89.5 167t-30.5 199q0 111 38 210.5t107.5 176t176.5 121.5t237 45q105 0 192 -26t142 -65.5t95.5 -90.5t59 -97t25.5 -90h-227
q-71 189 -289 189q-152 0 -238 -102.5t-86 -266.5q0 -161 85 -265.5t239 -104.5q113 0 183 46t110 134h227q-35 -134 -138.5 -230.5t-272.5 -121.5l-72 -86q29 -4 56.5 -11.5t58.5 -23t53.5 -35.5t37.5 -52t15 -71q0 -62 -28 -106.5t-75.5 -66.5t-94.5 -31t-99 -9
q-98 0 -174 23z" />
    <glyph glyph-name="egrave" unicode="&#xe8;" horiz-adv-x="1257" 
d="M934 301h229q-23 -65 -62.5 -120.5t-101 -104.5t-154 -77t-206.5 -28q-112 0 -205.5 31t-157 83t-107 123t-63.5 148.5t-20 161.5q0 155 65 280t191 199t293 74q115 0 208.5 -32.5t154.5 -85.5t102.5 -125t59.5 -148t18 -156v-57h-863q8 -140 97.5 -228.5t234.5 -88.5
q110 0 178 38.5t109 112.5zM633 899q-144 0 -222.5 -77t-91.5 -201h623q-3 49 -18.5 93t-48 88t-95 70.5t-147.5 26.5zM573 1233l-350 326h271l290 -326h-211z" />
    <glyph glyph-name="eacute" unicode="&#xe9;" horiz-adv-x="1257" 
d="M934 301h229q-23 -65 -62.5 -120.5t-101 -104.5t-154 -77t-206.5 -28q-112 0 -205.5 31t-157 83t-107 123t-63.5 148.5t-20 161.5q0 155 65 280t191 199t293 74q115 0 208.5 -32.5t154.5 -85.5t102.5 -125t59.5 -148t18 -156v-57h-863q8 -140 97.5 -228.5t234.5 -88.5
q110 0 178 38.5t109 112.5zM633 899q-144 0 -222.5 -77t-91.5 -201h623q-3 49 -18.5 93t-48 88t-95 70.5t-147.5 26.5zM469 1233l283 326h270l-342 -326h-211z" />
    <glyph glyph-name="ecircumflex" unicode="&#xea;" horiz-adv-x="1257" 
d="M934 301h229q-23 -65 -62.5 -120.5t-101 -104.5t-154 -77t-206.5 -28q-112 0 -205.5 31t-157 83t-107 123t-63.5 148.5t-20 161.5q0 155 65 280t191 199t293 74q115 0 208.5 -32.5t154.5 -85.5t102.5 -125t59.5 -148t18 -156v-57h-863q8 -140 97.5 -228.5t234.5 -88.5
q110 0 178 38.5t109 112.5zM633 899q-144 0 -222.5 -77t-91.5 -201h623q-3 49 -18.5 93t-48 88t-95 70.5t-147.5 26.5zM246 1225l268 327h225l267 -327h-207l-174 211l-170 -211h-209z" />
    <glyph glyph-name="edieresis" unicode="&#xeb;" horiz-adv-x="1257" 
d="M514 1294h-205v242h205v-242zM944 1294h-205v242h205v-242zM934 301h229q-23 -65 -62.5 -120.5t-101 -104.5t-154 -77t-206.5 -28q-112 0 -205.5 31t-157 83t-107 123t-63.5 148.5t-20 161.5q0 155 65 280t191 199t293 74q115 0 208.5 -32.5t154.5 -85.5t102.5 -125
t59.5 -148t18 -156v-57h-863q8 -140 97.5 -228.5t234.5 -88.5q110 0 178 38.5t109 112.5zM633 899q-144 0 -222.5 -77t-91.5 -201h623q-3 49 -18.5 93t-48 88t-95 70.5t-147.5 26.5z" />
    <glyph glyph-name="igrave" unicode="&#xec;" horiz-adv-x="548" 
d="M389 0h-229v1042h229v-1042zM180 1233l-350 326h270l291 -326h-211z" />
    <glyph glyph-name="iacute" unicode="&#xed;" horiz-adv-x="548" 
d="M389 0h-229v1042h229v-1042zM164 1233l282 326h271l-342 -326h-211z" />
    <glyph glyph-name="icircumflex" unicode="&#xee;" horiz-adv-x="548" 
d="M389 0h-229v1042h229v-1042zM-106 1225l268 327h225l266 -327h-207l-174 211l-170 -211h-208z" />
    <glyph glyph-name="idieresis" unicode="&#xef;" horiz-adv-x="548" 
d="M162 1294h-205v242h205v-242zM592 1294h-205v242h205v-242zM389 0h-229v1042h229v-1042z" />
    <glyph glyph-name="eth" unicode="&#xf0;" horiz-adv-x="1298" 
d="M375 1059l-60 102l234 146q-128 59 -289 82v163q264 -12 475 -129l258 162l60 -102l-209 -129q163 -125 252.5 -313t89.5 -431q0 -306 -145.5 -472.5t-409.5 -166.5q-102 0 -189.5 31t-149 83.5t-105 121.5t-64.5 145.5t-21 155.5q0 111 38 206.5t107 165t171 109
t223 39.5q80 0 149.5 -23t106.5 -65q-68 187 -231 301zM641 152q155 0 232 104t77 297q0 147 -79 222t-224 75q-103 0 -175 -49t-104 -125.5t-32 -173.5q0 -65 19 -126t55.5 -111.5t96 -81.5t134.5 -31z" />
    <glyph glyph-name="ntilde" unicode="&#xf1;" horiz-adv-x="1320" 
d="M389 0h-229v778q0 186 -2 264h223q3 -30 8 -180q19 39 47 73t71.5 66t108 51t142.5 19q188 0 295.5 -113t107.5 -321v-637h-229v596q0 63 -13 113t-40.5 90t-76 62t-114.5 22q-147 0 -223 -101t-76 -278v-504zM457 1243h-148v55q0 121 50 171.5t137 50.5q57 0 118 -28
t112 -55.5t85 -27.5q33 0 49.5 20.5t16.5 73.5v23h143v-49q0 -129 -48 -182.5t-138 -53.5q-57 0 -116.5 28.5t-110 56.5t-87.5 28q-63 0 -63 -74v-37z" />
    <glyph glyph-name="ograve" unicode="&#xf2;" horiz-adv-x="1304" 
d="M86 520q0 111 39 210.5t110 175.5t180 120.5t240 44.5q108 0 201 -31t159 -84.5t112.5 -124t69 -149t22.5 -160.5q0 -113 -37.5 -212t-107.5 -175t-181 -120t-248 -44q-131 0 -238.5 45t-176.5 121.5t-106.5 175t-37.5 207.5zM653 154q107 0 183.5 50.5t111.5 131.5
t35 182q0 156 -88.5 263.5t-245.5 107.5q-107 0 -183.5 -52t-111.5 -133.5t-35 -183.5q0 -96 37.5 -178t115.5 -135t181 -53zM590 1227l-350 325h270l291 -325h-211z" />
    <glyph glyph-name="oacute" unicode="&#xf3;" horiz-adv-x="1304" 
d="M86 520q0 111 39 210.5t110 175.5t180 120.5t240 44.5q108 0 201 -31t159 -84.5t112.5 -124t69 -149t22.5 -160.5q0 -113 -37.5 -212t-107.5 -175t-181 -120t-248 -44q-131 0 -238.5 45t-176.5 121.5t-106.5 175t-37.5 207.5zM653 154q107 0 183.5 50.5t111.5 131.5
t35 182q0 156 -88.5 263.5t-245.5 107.5q-107 0 -183.5 -52t-111.5 -133.5t-35 -183.5q0 -96 37.5 -178t115.5 -135t181 -53zM506 1229l282 325h271l-342 -325h-211z" />
    <glyph glyph-name="ocircumflex" unicode="&#xf4;" horiz-adv-x="1304" 
d="M86 520q0 111 39 210.5t110 175.5t180 120.5t240 44.5q108 0 201 -31t159 -84.5t112.5 -124t69 -149t22.5 -160.5q0 -113 -37.5 -212t-107.5 -175t-181 -120t-248 -44q-131 0 -238.5 45t-176.5 121.5t-106.5 175t-37.5 207.5zM653 154q107 0 183.5 50.5t111.5 131.5
t35 182q0 156 -88.5 263.5t-245.5 107.5q-107 0 -183.5 -52t-111.5 -133.5t-35 -183.5q0 -96 37.5 -178t115.5 -135t181 -53zM270 1225l269 327h225l266 -327h-207l-174 211l-170 -211h-209z" />
    <glyph glyph-name="otilde" unicode="&#xf5;" horiz-adv-x="1304" 
d="M86 520q0 111 39 210.5t110 175.5t180 120.5t240 44.5q108 0 201 -31t159 -84.5t112.5 -124t69 -149t22.5 -160.5q0 -113 -37.5 -212t-107.5 -175t-181 -120t-248 -44q-131 0 -238.5 45t-176.5 121.5t-106.5 175t-37.5 207.5zM653 154q107 0 183.5 50.5t111.5 131.5
t35 182q0 156 -88.5 263.5t-245.5 107.5q-107 0 -183.5 -52t-111.5 -133.5t-35 -183.5q0 -96 37.5 -178t115.5 -135t181 -53zM442 1243h-147v55q0 121 49.5 171.5t136.5 50.5q57 0 118 -28t112.5 -55.5t85.5 -27.5q33 0 49 20.5t16 73.5v23h144v-49q0 -129 -48.5 -182.5
t-138.5 -53.5q-45 0 -92.5 17.5t-80 39t-71.5 39t-69 17.5q-64 0 -64 -74v-37z" />
    <glyph glyph-name="odieresis" unicode="&#xf6;" horiz-adv-x="1304" 
d="M539 1294h-205v242h205v-242zM969 1294h-205v242h205v-242zM86 520q0 111 39 210.5t110 175.5t180 120.5t240 44.5q108 0 201 -31t159 -84.5t112.5 -124t69 -149t22.5 -160.5q0 -113 -37.5 -212t-107.5 -175t-181 -120t-248 -44q-131 0 -238.5 45t-176.5 121.5
t-106.5 175t-37.5 207.5zM653 154q107 0 183.5 50.5t111.5 131.5t35 182q0 156 -88.5 263.5t-245.5 107.5q-107 0 -183.5 -52t-111.5 -133.5t-35 -183.5q0 -96 37.5 -178t115.5 -135t181 -53z" />
    <glyph glyph-name="divide" unicode="&#xf7;" horiz-adv-x="1667" 
d="M948 6h-203v289h203v-289zM946 1001h-203v289h203v-289zM1479 563h-1268v195h1268v-195z" />
    <glyph glyph-name="oslash" unicode="&#xf8;" horiz-adv-x="1304" 
d="M133 -27l117 148q-80 76 -122 180.5t-42 216.5q0 237 157.5 395t415.5 158q163 0 291 -72l56 70h147l-111 -137q86 -78 131.5 -186t45.5 -224q0 -156 -67 -280t-199 -197.5t-310 -73.5q-172 0 -299 78l-61 -76h-150zM915 770l-450 -567q78 -56 186 -56q109 0 187 51.5
t113.5 134t35.5 185.5q0 148 -72 252zM383 287l448 563q-74 47 -182 47q-83 0 -148 -30.5t-105 -83t-60.5 -119.5t-20.5 -144q0 -133 68 -233z" />
    <glyph glyph-name="ugrave" unicode="&#xf9;" horiz-adv-x="1304" 
d="M160 397v645h227v-604q0 -126 55.5 -202t178.5 -76q157 0 227 96t70 311v475h227v-739q0 -203 2 -303h-221q-8 58 -8 164q-28 -60 -68 -100t-116 -66.5t-185 -26.5q-175 0 -282 105t-107 321zM598 1233l-350 326h270l291 -326h-211z" />
    <glyph glyph-name="uacute" unicode="&#xfa;" horiz-adv-x="1304" 
d="M160 397v645h227v-604q0 -126 55.5 -202t178.5 -76q157 0 227 96t70 311v475h227v-739q0 -203 2 -303h-221q-8 58 -8 164q-28 -60 -68 -100t-116 -66.5t-185 -26.5q-175 0 -282 105t-107 321zM494 1233l282 326h271l-342 -326h-211z" />
    <glyph glyph-name="ucircumflex" unicode="&#xfb;" horiz-adv-x="1304" 
d="M160 397v645h227v-604q0 -126 55.5 -202t178.5 -76q157 0 227 96t70 311v475h227v-739q0 -203 2 -303h-221q-8 58 -8 164q-28 -60 -68 -100t-116 -66.5t-185 -26.5q-175 0 -282 105t-107 321zM270 1225l269 327h225l266 -327h-207l-174 211l-170 -211h-209z" />
    <glyph glyph-name="udieresis" unicode="&#xfc;" horiz-adv-x="1304" 
d="M539 1294h-205v242h205v-242zM969 1294h-205v242h205v-242zM160 397v645h227v-604q0 -126 55.5 -202t178.5 -76q157 0 227 96t70 311v475h227v-739q0 -203 2 -303h-221q-8 58 -8 164q-28 -60 -68 -100t-116 -66.5t-185 -26.5q-175 0 -282 105t-107 321z" />
    <glyph glyph-name="yacute" unicode="&#xfd;" horiz-adv-x="1212" 
d="M117 -469v195q62 -9 110 -9q71 0 117 23t80 70.5t80 144.5l-479 1087h251q274 -646 349 -864h4q139 406 319 864h236l-393 -966q-38 -93 -64 -154t-56 -123t-53.5 -98.5t-54 -71.5t-59.5 -53t-68 -32.5t-81 -19.5t-97 -5q-86 0 -141 12zM446 1233l283 326h270l-342 -326
h-211z" />
    <glyph glyph-name="thorn" unicode="&#xfe;" horiz-adv-x="1353" 
d="M389 -453h-229v1989h229v-664q124 199 393 199q98 0 187 -39t155 -107.5t105 -169t39 -216.5q0 -128 -42.5 -236t-114 -180t-165 -112t-196.5 -40q-133 0 -222.5 47.5t-138.5 122.5v-594zM705 160q158 0 242.5 104t84.5 268q0 93 -33.5 170.5t-108 129t-179.5 51.5
q-155 0 -241.5 -101t-86.5 -260q0 -71 19 -134.5t57 -115t101.5 -82t144.5 -30.5z" />
    <glyph glyph-name="ydieresis" unicode="&#xff;" horiz-adv-x="1212" 
d="M492 1294h-205v242h205v-242zM922 1294h-205v242h205v-242zM117 -469v195q62 -9 110 -9q71 0 117 23t80 70.5t80 144.5l-479 1087h251q274 -646 349 -864h4q139 406 319 864h236l-393 -966q-38 -93 -64 -154t-56 -123t-53.5 -98.5t-54 -71.5t-59.5 -53t-68 -32.5
t-81 -19.5t-97 -5q-86 0 -141 12z" />
    <glyph glyph-name="Amacron" unicode="&#x100;" horiz-adv-x="1589" 
d="M18 0l615 1452h297l641 -1452h-260l-183 414h-688l-174 -414h-248zM774 1286h-2q-54 -172 -262 -672h545q-246 564 -281 672zM455 1640v162h671v-162h-671z" />
    <glyph glyph-name="amacron" unicode="&#x101;" horiz-adv-x="1261" 
d="M379 737h-229q4 45 18 87t48 88.5t84.5 80.5t134.5 56t190 22q477 0 477 -364v-441q0 -166 8 -266h-217q-5 20 -12 143q-93 -172 -387 -172q-105 0 -186 30t-127 79.5t-68.5 107t-22.5 119.5q0 78 28 138t76 98t118.5 62.5t148 34t172.5 9.5h244v51q0 43 -10.5 77t-37 64
t-77.5 46t-125 16q-67 0 -114 -13t-73.5 -38.5t-39.5 -51.5t-21 -63zM315 319q0 -77 58 -125.5t172 -48.5q92 0 158.5 24.5t103.5 68.5t53.5 98t16.5 121v37q-29 2 -240 2q-167 0 -244.5 -42t-77.5 -135zM309 1311v164h629v-164h-629z" />
    <glyph glyph-name="Abreve" unicode="&#x102;" horiz-adv-x="1589" 
d="M18 0l615 1452h297l641 -1452h-260l-183 414h-688l-174 -414h-248zM774 1286h-2q-54 -172 -262 -672h545q-246 564 -281 672zM987 1868h162q-20 -124 -112.5 -205.5t-250.5 -81.5q-71 0 -130.5 17.5t-99 46t-68.5 67t-43.5 77t-18.5 79.5h166q15 -60 67 -95.5t129 -35.5
q156 0 199 131z" />
    <glyph glyph-name="abreve" unicode="&#x103;" horiz-adv-x="1261" 
d="M379 737h-229q4 45 18 87t48 88.5t84.5 80.5t134.5 56t190 22q477 0 477 -364v-441q0 -166 8 -266h-217q-5 20 -12 143q-93 -172 -387 -172q-105 0 -186 30t-127 79.5t-68.5 107t-22.5 119.5q0 78 28 138t76 98t118.5 62.5t148 34t172.5 9.5h244v51q0 43 -10.5 77t-37 64
t-77.5 46t-125 16q-67 0 -114 -13t-73.5 -38.5t-39.5 -51.5t-21 -63zM315 319q0 -77 58 -125.5t172 -48.5q92 0 158.5 24.5t103.5 68.5t53.5 98t16.5 121v37q-29 2 -240 2q-167 0 -244.5 -42t-77.5 -135zM805 1540h162q-20 -140 -107.5 -228.5t-238.5 -88.5q-85 0 -151 26.5
t-105.5 72.5t-60.5 100.5t-25 117.5h161q16 -72 61.5 -115t119.5 -43q46 0 79.5 13t54 37.5t31 49t19.5 58.5z" />
    <glyph glyph-name="Aogonek" unicode="&#x104;" horiz-adv-x="1589" 
d="M18 0l615 1452h297l641 -1452h-33q-125 -104 -125 -207q0 -54 33 -82t92 -28q66 0 119 18v-160q-65 -33 -178 -33q-126 0 -195.5 63.5t-69.5 172.5q0 67 33.5 134.5t87.5 121.5h-24l-183 414h-688l-174 -414h-248zM774 1286h-2q-54 -172 -262 -672h545q-246 564 -281 672
z" />
    <glyph glyph-name="aogonek" unicode="&#x105;" horiz-adv-x="1261" 
d="M1110 0h-14q-125 -104 -125 -207q0 -54 33 -82t92 -28q65 0 118 18v-160q-65 -33 -178 -33q-126 0 -195 63.5t-69 172.5q0 67 33.5 134.5t87.5 121.5q-5 20 -12 143q-93 -172 -387 -172q-105 0 -186 30t-127 79.5t-68.5 107t-22.5 119.5q0 78 28 138t76 98t118.5 62.5
t148 34t172.5 9.5h244v51q0 43 -10.5 77t-37 64t-77.5 46t-125 16q-67 0 -114 -13t-73.5 -38.5t-39.5 -51.5t-21 -63h-229q4 45 18 87t48 88.5t84.5 80.5t134.5 56t190 22q477 0 477 -364v-441q0 -166 8 -266zM315 319q0 -77 58 -125.5t172 -48.5q92 0 158.5 24.5
t103.5 68.5t53.5 98t16.5 121v37q-29 2 -240 2q-167 0 -244.5 -42t-77.5 -135z" />
    <glyph glyph-name="Cacute" unicode="&#x106;" horiz-adv-x="1646" 
d="M1554 1012h-243q-23 57 -54.5 101.5t-82 86t-128 64t-176.5 22.5q-155 0 -270.5 -72.5t-175 -197.5t-59.5 -285q0 -118 34 -220.5t97 -180t160 -122t216 -44.5q94 0 166 18.5t122.5 56.5t84.5 84t64 111h241q-144 -465 -690 -465q-143 0 -265 39t-210.5 108t-150.5 163.5
t-92.5 207t-30.5 236.5q0 155 53 292.5t149 241.5t241.5 165t319.5 61q123 0 228 -26t179.5 -70.5t131.5 -105.5t91 -127.5t50 -141.5zM700 1606l347 284h303l-416 -284h-234z" />
    <glyph glyph-name="cacute" unicode="&#x107;" horiz-adv-x="1239" 
d="M1159 702h-227q-71 189 -289 189q-152 0 -238 -102.5t-86 -266.5q0 -161 85 -265.5t239 -104.5q113 0 183 46t110 134h227q-19 -74 -59.5 -137t-103 -114t-154.5 -80.5t-203 -29.5q-138 0 -246 43.5t-175 119t-101.5 173.5t-34.5 211q0 111 38 210.5t107.5 176
t176.5 121.5t237 45q105 0 192 -26t142 -65.5t95.5 -90.5t59 -97t25.5 -90zM496 1233l282 326h271l-342 -326h-211z" />
    <glyph glyph-name="Ccircumflex" unicode="&#x108;" horiz-adv-x="1646" 
d="M1554 1012h-243q-23 57 -54.5 101.5t-82 86t-128 64t-176.5 22.5q-155 0 -270.5 -72.5t-175 -197.5t-59.5 -285q0 -118 34 -220.5t97 -180t160 -122t216 -44.5q94 0 166 18.5t122.5 56.5t84.5 84t64 111h241q-144 -465 -690 -465q-143 0 -265 39t-210.5 108t-150.5 163.5
t-92.5 207t-30.5 236.5q0 155 53 292.5t149 241.5t241.5 165t319.5 61q123 0 228 -26t179.5 -70.5t131.5 -105.5t91 -127.5t50 -141.5zM432 1585l291 283h258l293 -283h-230l-194 176l-191 -176h-227z" />
    <glyph glyph-name="ccircumflex" unicode="&#x109;" horiz-adv-x="1239" 
d="M1159 702h-227q-71 189 -289 189q-152 0 -238 -102.5t-86 -266.5q0 -161 85 -265.5t239 -104.5q113 0 183 46t110 134h227q-19 -74 -59.5 -137t-103 -114t-154.5 -80.5t-203 -29.5q-138 0 -246 43.5t-175 119t-101.5 173.5t-34.5 211q0 111 38 210.5t107.5 176
t176.5 121.5t237 45q105 0 192 -26t142 -65.5t95.5 -90.5t59 -97t25.5 -90zM258 1225l268 327h226l266 -327h-207l-174 211l-170 -211h-209z" />
    <glyph glyph-name="Cdotaccent" unicode="&#x10a;" horiz-adv-x="1646" 
d="M1554 1012h-243q-23 57 -54.5 101.5t-82 86t-128 64t-176.5 22.5q-155 0 -270.5 -72.5t-175 -197.5t-59.5 -285q0 -118 34 -220.5t97 -180t160 -122t216 -44.5q94 0 166 18.5t122.5 56.5t84.5 84t64 111h241q-144 -465 -690 -465q-143 0 -265 39t-210.5 108t-150.5 163.5
t-92.5 207t-30.5 236.5q0 155 53 292.5t149 241.5t241.5 165t319.5 61q123 0 228 -26t179.5 -70.5t131.5 -105.5t91 -127.5t50 -141.5zM971 1624h-230v242h230v-242z" />
    <glyph glyph-name="cdotaccent" unicode="&#x10b;" horiz-adv-x="1239" 
d="M1159 702h-227q-71 189 -289 189q-152 0 -238 -102.5t-86 -266.5q0 -161 85 -265.5t239 -104.5q113 0 183 46t110 134h227q-19 -74 -59.5 -137t-103 -114t-154.5 -80.5t-203 -29.5q-138 0 -246 43.5t-175 119t-101.5 173.5t-34.5 211q0 111 38 210.5t107.5 176
t176.5 121.5t237 45q105 0 192 -26t142 -65.5t95.5 -90.5t59 -97t25.5 -90zM756 1294h-230v242h230v-242z" />
    <glyph glyph-name="Ccaron" unicode="&#x10c;" horiz-adv-x="1646" 
d="M1554 1012h-243q-23 57 -54.5 101.5t-82 86t-128 64t-176.5 22.5q-155 0 -270.5 -72.5t-175 -197.5t-59.5 -285q0 -118 34 -220.5t97 -180t160 -122t216 -44.5q94 0 166 18.5t122.5 56.5t84.5 84t64 111h241q-144 -465 -690 -465q-143 0 -265 39t-210.5 108t-150.5 163.5
t-92.5 207t-30.5 236.5q0 155 53 292.5t149 241.5t241.5 165t319.5 61q123 0 228 -26t179.5 -70.5t131.5 -105.5t91 -127.5t50 -141.5zM432 1868h230l194 -176l193 176h225l-291 -283h-258z" />
    <glyph glyph-name="ccaron" unicode="&#x10d;" horiz-adv-x="1239" 
d="M1159 702h-227q-71 189 -289 189q-152 0 -238 -102.5t-86 -266.5q0 -161 85 -265.5t239 -104.5q113 0 183 46t110 134h227q-19 -74 -59.5 -137t-103 -114t-154.5 -80.5t-203 -29.5q-138 0 -246 43.5t-175 119t-101.5 173.5t-34.5 211q0 111 38 210.5t107.5 176
t176.5 121.5t237 45q105 0 192 -26t142 -65.5t95.5 -90.5t59 -97t25.5 -90zM752 1214h-226l-268 326h207l176 -209l168 209h209z" />
    <glyph glyph-name="Dcaron" unicode="&#x10e;" horiz-adv-x="1669" 
d="M807 0h-606v1452h612q173 0 315.5 -54.5t236 -149.5t144 -222.5t50.5 -275.5q0 -171 -58.5 -313t-160 -237t-239 -147.5t-294.5 -52.5zM442 1257v-1062h322q263 0 401 147.5t138 400.5q0 239 -140.5 376.5t-384.5 137.5h-336zM340 1858h229l195 -177l192 177h226
l-291 -283h-258z" />
    <glyph glyph-name="dcaron" unicode="&#x10f;" horiz-adv-x="1480" 
d="M1198 0h-223q-8 55 -8 150q-19 -30 -37.5 -52t-50.5 -47.5t-69 -41.5t-93.5 -27t-124.5 -11q-224 0 -365 151.5t-141 389.5q0 125 45.5 232t120 177.5t170 110t196.5 39.5q252 0 349 -147v612h229v-1235q0 -201 2 -301zM647 158q166 0 247 97.5t81 268.5q0 174 -75 267.5
t-249 93.5q-106 0 -182.5 -54t-111.5 -136t-35 -179q0 -70 21.5 -133.5t61 -114t102.5 -80.5t140 -30zM1518 969h-170l-13 567h193z" />
    <glyph glyph-name="Dcroat" unicode="&#x110;" horiz-adv-x="1691" 
d="M223 0v664h-176v174h176v614h613q173 0 315 -54.5t235.5 -149.5t144 -222.5t50.5 -275.5q0 -171 -58.5 -313t-160 -237t-239 -147.5t-294.5 -52.5h-606zM465 195h321q263 0 401 147.5t138 400.5q0 239 -140 376.5t-384 137.5h-336v-419h409v-174h-409v-469z" />
    <glyph glyph-name="dcroat" unicode="&#x111;" horiz-adv-x="1353" 
d="M1198 0h-223q-8 55 -8 156q-22 -39 -48 -68.5t-69.5 -58t-109.5 -43.5t-152 -15q-220 0 -361 151.5t-141 381.5q0 127 45.5 233.5t120.5 176t170 107.5t196 38q261 0 349 -152v324h-482v145h482v160h229v-160h152v-145h-152v-930q0 -201 2 -301zM645 158q168 0 249 99
t81 259q0 161 -78.5 258.5t-241.5 97.5q-159 0 -246 -101.5t-87 -262.5q0 -145 86 -247.5t237 -102.5z" />
    <glyph glyph-name="Emacron" unicode="&#x112;" horiz-adv-x="1464" 
d="M201 0v1452h1142v-199h-901v-393h856v-198h-856v-463h947l-31 -199h-1157zM438 1659v162h672v-162h-672z" />
    <glyph glyph-name="emacron" unicode="&#x113;" horiz-adv-x="1257" 
d="M934 301h229q-23 -65 -62.5 -120.5t-101 -104.5t-154 -77t-206.5 -28q-112 0 -205.5 31t-157 83t-107 123t-63.5 148.5t-20 161.5q0 155 65 280t191 199t293 74q115 0 208.5 -32.5t154.5 -85.5t102.5 -125t59.5 -148t18 -156v-57h-863q8 -140 97.5 -228.5t234.5 -88.5
q110 0 178 38.5t109 112.5zM633 899q-144 0 -222.5 -77t-91.5 -201h623q-3 49 -18.5 93t-48 88t-95 70.5t-147.5 26.5zM311 1311v164h629v-164h-629z" />
    <glyph glyph-name="Ebreve" unicode="&#x114;" horiz-adv-x="1464" 
d="M201 0v1452h1142v-199h-901v-393h856v-198h-856v-463h947l-31 -199h-1157zM983 1878h162q-20 -124 -112.5 -205.5t-250.5 -81.5q-71 0 -130.5 17.5t-99 46t-68.5 67t-43.5 77t-18.5 79.5h166q15 -60 67 -95.5t129 -35.5q156 0 199 131z" />
    <glyph glyph-name="ebreve" unicode="&#x115;" horiz-adv-x="1257" 
d="M934 301h229q-23 -65 -62.5 -120.5t-101 -104.5t-154 -77t-206.5 -28q-112 0 -205.5 31t-157 83t-107 123t-63.5 148.5t-20 161.5q0 155 65 280t191 199t293 74q115 0 208.5 -32.5t154.5 -85.5t102.5 -125t59.5 -148t18 -156v-57h-863q8 -140 97.5 -228.5t234.5 -88.5
q110 0 178 38.5t109 112.5zM633 899q-144 0 -222.5 -77t-91.5 -201h623q-3 49 -18.5 93t-48 88t-95 70.5t-147.5 26.5zM809 1540h162q-20 -140 -107.5 -228.5t-238.5 -88.5q-85 0 -151 26.5t-105.5 72.5t-60.5 100.5t-25 117.5h161q16 -72 61.5 -115t119.5 -43q46 0 79.5 13
t54 37.5t31 49t19.5 58.5z" />
    <glyph glyph-name="Edotaccent" unicode="&#x116;" horiz-adv-x="1464" 
d="M201 0v1452h1142v-199h-901v-393h856v-198h-856v-463h947l-31 -199h-1157zM897 1626h-229v242h229v-242z" />
    <glyph glyph-name="edotaccent" unicode="&#x117;" horiz-adv-x="1257" 
d="M934 301h229q-23 -65 -62.5 -120.5t-101 -104.5t-154 -77t-206.5 -28q-112 0 -205.5 31t-157 83t-107 123t-63.5 148.5t-20 161.5q0 155 65 280t191 199t293 74q115 0 208.5 -32.5t154.5 -85.5t102.5 -125t59.5 -148t18 -156v-57h-863q8 -140 97.5 -228.5t234.5 -88.5
q110 0 178 38.5t109 112.5zM633 899q-144 0 -222.5 -77t-91.5 -201h623q-3 49 -18.5 93t-48 88t-95 70.5t-147.5 26.5zM741 1294h-229v242h229v-242z" />
    <glyph glyph-name="Eogonek" unicode="&#x118;" horiz-adv-x="1464" 
d="M201 0v1452h1142v-199h-901v-393h856v-198h-856v-463h947l-31 -199h-103q-125 -104 -125 -207q0 -54 33 -82t92 -28q66 0 119 18v-160q-65 -33 -178 -33q-126 0 -195 63.5t-69 172.5q0 67 33.5 134.5t87.5 121.5h-852z" />
    <glyph glyph-name="eogonek" unicode="&#x119;" horiz-adv-x="1257" 
d="M963 -289v-160q-63 -32 -179 -32q-126 0 -195 63t-69 172q0 110 86 217q-106 5 -194 38t-147.5 85.5t-100.5 121.5t-59.5 145t-18.5 157q0 155 65 280t191 199t293 74q115 0 208.5 -32.5t154.5 -85.5t102.5 -125t59.5 -148t18 -156v-57h-863q8 -140 97.5 -228.5
t234.5 -88.5q110 0 178 38.5t109 112.5h229q-38 -107 -120.5 -189t-217.5 -118q-106 -95 -106 -191q0 -54 33 -82t92 -28q66 0 119 18zM633 899q-144 0 -222.5 -77t-91.5 -201h623q-3 49 -18.5 93t-48 88t-95 70.5t-147.5 26.5z" />
    <glyph glyph-name="Ecaron" unicode="&#x11a;" horiz-adv-x="1464" 
d="M201 0v1452h1142v-199h-901v-393h856v-198h-856v-463h947l-31 -199h-1157zM352 1858h230l194 -177l193 177h225l-291 -283h-258z" />
    <glyph glyph-name="ecaron" unicode="&#x11b;" horiz-adv-x="1257" 
d="M934 301h229q-23 -65 -62.5 -120.5t-101 -104.5t-154 -77t-206.5 -28q-112 0 -205.5 31t-157 83t-107 123t-63.5 148.5t-20 161.5q0 155 65 280t191 199t293 74q115 0 208.5 -32.5t154.5 -85.5t102.5 -125t59.5 -148t18 -156v-57h-863q8 -140 97.5 -228.5t234.5 -88.5
q110 0 178 38.5t109 112.5zM633 899q-144 0 -222.5 -77t-91.5 -201h623q-3 49 -18.5 93t-48 88t-95 70.5t-147.5 26.5zM739 1214h-225l-268 326h207l176 -209l168 209h209z" />
    <glyph glyph-name="Gcircumflex" unicode="&#x11c;" horiz-adv-x="1726" 
d="M891 608v195h676v-803h-181q-13 59 -18 199q-76 -115 -196.5 -172.5t-323.5 -57.5q-170 0 -309 55t-232.5 154t-144.5 238t-51 305q0 160 53.5 299t151.5 242t246.5 162t328.5 59q159 0 284.5 -38.5t204.5 -104t126 -140.5t67 -160h-246q-20 50 -52 91t-82.5 78.5
t-128.5 59t-175 21.5q-127 0 -227.5 -43t-164.5 -119t-98 -176.5t-34 -218.5q0 -166 58 -293.5t177.5 -202.5t286.5 -75q216 0 331 105.5t115 301.5v39h-442zM438 1589l291 283h258l293 -283h-229l-195 176l-190 -176h-228z" />
    <glyph glyph-name="gcircumflex" unicode="&#x11d;" horiz-adv-x="1351" 
d="M96 -121h232q27 -84 95.5 -133t209.5 -49q83 0 143.5 21.5t96.5 57t57.5 91.5t29 114.5t7.5 135.5v53q-51 -91 -140 -138.5t-241 -47.5q-145 0 -260 70t-177.5 189t-62.5 265q0 122 42 227.5t113 178.5t167 115t202 42q83 0 149 -17t106.5 -45t64.5 -56.5t37 -59.5
q0 105 6 149h221q-2 -102 -2 -303v-608q0 -150 -29 -259.5t-94 -190.5t-177 -121.5t-271 -40.5q-120 0 -214.5 27t-148 65t-91 90.5t-51 93.5t-20.5 84zM643 170q156 0 242 92.5t86 265.5q0 169 -83 262t-235 93q-108 0 -185.5 -53.5t-113 -135t-35.5 -178.5q0 -150 90 -248
t234 -98zM295 1225l268 327h225l267 -327h-207l-174 211l-170 -211h-209z" />
    <glyph glyph-name="Gbreve" unicode="&#x11e;" horiz-adv-x="1726" 
d="M891 608v195h676v-803h-181q-13 59 -18 199q-76 -115 -196.5 -172.5t-323.5 -57.5q-170 0 -309 55t-232.5 154t-144.5 238t-51 305q0 160 53.5 299t151.5 242t246.5 162t328.5 59q159 0 284.5 -38.5t204.5 -104t126 -140.5t67 -160h-246q-20 50 -52 91t-82.5 78.5
t-128.5 59t-175 21.5q-127 0 -227.5 -43t-164.5 -119t-98 -176.5t-34 -218.5q0 -166 58 -293.5t177.5 -202.5t286.5 -75q216 0 331 105.5t115 301.5v39h-442zM1063 1884h162q-20 -124 -112.5 -205.5t-250.5 -81.5q-71 0 -130.5 17.5t-99 46t-68.5 67t-43.5 77t-18.5 79.5
h166q15 -60 67 -95.5t129 -35.5q156 0 199 131z" />
    <glyph glyph-name="gbreve" unicode="&#x11f;" horiz-adv-x="1351" 
d="M96 -121h232q27 -84 95.5 -133t209.5 -49q83 0 143.5 21.5t96.5 57t57.5 91.5t29 114.5t7.5 135.5v53q-51 -91 -140 -138.5t-241 -47.5q-145 0 -260 70t-177.5 189t-62.5 265q0 122 42 227.5t113 178.5t167 115t202 42q83 0 149 -17t106.5 -45t64.5 -56.5t37 -59.5
q0 105 6 149h221q-2 -102 -2 -303v-608q0 -150 -29 -259.5t-94 -190.5t-177 -121.5t-271 -40.5q-120 0 -214.5 27t-148 65t-91 90.5t-51 93.5t-20.5 84zM643 170q156 0 242 92.5t86 265.5q0 169 -83 262t-235 93q-108 0 -185.5 -53.5t-113 -135t-35.5 -178.5q0 -150 90 -248
t234 -98zM858 1540h162q-20 -140 -107.5 -228.5t-238.5 -88.5q-85 0 -151 26.5t-105.5 72.5t-60.5 100.5t-25 117.5h162q16 -72 61 -115t119 -43q46 0 79.5 13t54 37.5t31 49t19.5 58.5z" />
    <glyph glyph-name="Gdotaccent" unicode="&#x120;" horiz-adv-x="1726" 
d="M891 608v195h676v-803h-181q-13 59 -18 199q-76 -115 -196.5 -172.5t-323.5 -57.5q-170 0 -309 55t-232.5 154t-144.5 238t-51 305q0 160 53.5 299t151.5 242t246.5 162t328.5 59q159 0 284.5 -38.5t204.5 -104t126 -140.5t67 -160h-246q-20 50 -52 91t-82.5 78.5
t-128.5 59t-175 21.5q-127 0 -227.5 -43t-164.5 -119t-98 -176.5t-34 -218.5q0 -166 58 -293.5t177.5 -202.5t286.5 -75q216 0 331 105.5t115 301.5v39h-442zM977 1628h-229v242h229v-242z" />
    <glyph glyph-name="gdotaccent" unicode="&#x121;" horiz-adv-x="1351" 
d="M96 -121h232q27 -84 95.5 -133t209.5 -49q83 0 143.5 21.5t96.5 57t57.5 91.5t29 114.5t7.5 135.5v53q-51 -91 -140 -138.5t-241 -47.5q-145 0 -260 70t-177.5 189t-62.5 265q0 122 42 227.5t113 178.5t167 115t202 42q83 0 149 -17t106.5 -45t64.5 -56.5t37 -59.5
q0 105 6 149h221q-2 -102 -2 -303v-608q0 -150 -29 -259.5t-94 -190.5t-177 -121.5t-271 -40.5q-120 0 -214.5 27t-148 65t-91 90.5t-51 93.5t-20.5 84zM643 170q156 0 242 92.5t86 265.5q0 169 -83 262t-235 93q-108 0 -185.5 -53.5t-113 -135t-35.5 -178.5q0 -150 90 -248
t234 -98zM791 1294h-230v242h230v-242z" />
    <glyph glyph-name="uni0122" unicode="&#x122;" horiz-adv-x="1726" 
d="M891 608v195h676v-803h-181q-13 59 -18 199q-76 -115 -196.5 -172.5t-323.5 -57.5q-170 0 -309 55t-232.5 154t-144.5 238t-51 305q0 160 53.5 299t151.5 242t246.5 162t328.5 59q159 0 284.5 -38.5t204.5 -104t126 -140.5t67 -160h-246q-20 50 -52 91t-82.5 78.5
t-128.5 59t-175 21.5q-127 0 -227.5 -43t-164.5 -119t-98 -176.5t-34 -218.5q0 -166 58 -293.5t177.5 -202.5t286.5 -75q216 0 331 105.5t115 301.5v39h-442zM813 -150h197q0 -99 -30 -212.5t-83 -180.5h-186q102 195 102 393z" />
    <glyph glyph-name="uni0123" unicode="&#x123;" horiz-adv-x="1351" 
d="M760 1210h-211q17 116 65.5 234t110.5 203h188q-123 -195 -153 -437zM96 -121h232q27 -84 95.5 -133t209.5 -49q83 0 143.5 21.5t96.5 57t57.5 91.5t29 114.5t7.5 135.5v53q-51 -91 -140 -138.5t-241 -47.5q-145 0 -260 70t-177.5 189t-62.5 265q0 122 42 227.5
t113 178.5t167 115t202 42q83 0 149 -17t106.5 -45t64.5 -56.5t37 -59.5q0 105 6 149h221q-2 -102 -2 -303v-608q0 -150 -29 -259.5t-94 -190.5t-177 -121.5t-271 -40.5q-120 0 -214.5 27t-148 65t-91 90.5t-51 93.5t-20.5 84zM643 170q156 0 242 92.5t86 265.5
q0 169 -83 262t-235 93q-108 0 -185.5 -53.5t-113 -135t-35.5 -178.5q0 -150 90 -248t234 -98z" />
    <glyph glyph-name="Hcircumflex" unicode="&#x124;" horiz-adv-x="1708" 
d="M442 0h-241v1452h241v-578h824v578h241v-1452h-241v676h-824v-676zM432 1585l291 283h258l293 -283h-230l-194 176l-191 -176h-227z" />
    <glyph glyph-name="hcircumflex" unicode="&#x125;" horiz-adv-x="1320" 
d="M-109 1645l238 225h281l237 -225h-233l-146 124l-141 -124h-236zM160 0v1536h227v-668q17 33 41.5 63t67.5 64.5t112 55t154 20.5q187 0 293 -112.5t106 -329.5v-629h-229v596q0 287 -242 287q-148 0 -224.5 -102.5t-76.5 -270.5v-510h-229z" />
    <glyph glyph-name="Hbar" unicode="&#x126;" horiz-adv-x="1708" 
d="M201 0v1061h-158v162h158v229h241v-229h824v229h241v-229h158v-162h-158v-1061h-241v662h-824v-662h-241zM442 1061v-201h824v201h-824z" />
    <glyph glyph-name="hbar" unicode="&#x127;" horiz-adv-x="1320" 
d="M160 0v1231h-166v145h166v160h227v-160h473v-145h-473v-379q17 35 41.5 65.5t67.5 65.5t112 55.5t154 20.5q187 0 293 -111.5t106 -333.5v-614h-229v582q0 67 -12 117.5t-39.5 90.5t-75.5 61t-115 21q-148 0 -224.5 -103t-76.5 -271v-498h-229z" />
    <glyph glyph-name="Itilde" unicode="&#x128;" horiz-adv-x="643" 
d="M201 0v1452h241v-1452h-241zM92 1597h-155v52q0 227 194 227q46 0 100.5 -17.5t95.5 -39t85.5 -39t72.5 -17.5q34 0 50 19.5t16 72.5v23h151v-43q0 -132 -49.5 -187t-136.5 -55q-58 0 -129 29.5t-133.5 58.5t-101.5 29q-60 0 -60 -82v-31z" />
    <glyph glyph-name="itilde" unicode="&#x129;" horiz-adv-x="548" 
d="M389 0h-229v1042h229v-1042zM66 1243h-148v55q0 121 49.5 171.5t136.5 50.5q57 0 118 -28t112.5 -55.5t85.5 -27.5q33 0 49 20.5t16 73.5v23h144v-49q0 -129 -48.5 -182.5t-138.5 -53.5q-45 0 -92.5 17.5t-80 39t-71.5 39t-69 17.5q-63 0 -63 -74v-37z" />
    <glyph glyph-name="Imacron" unicode="&#x12a;" horiz-adv-x="643" 
d="M201 0v1452h241v-1452h-241zM-16 1640v162h671v-162h-671z" />
    <glyph glyph-name="imacron" unicode="&#x12b;" horiz-adv-x="548" 
d="M389 0h-229v1042h229v-1042zM-41 1311v164h629v-164h-629z" />
    <glyph glyph-name="Iogonek" unicode="&#x12e;" horiz-adv-x="643" 
d="M541 -299v-160q-65 -33 -179 -33q-126 0 -195 63.5t-69 172.5q0 67 33.5 134.5t87.5 121.5h-18v1452h241v-1452h-20q-125 -104 -125 -207q0 -54 33 -82t92 -28q66 0 119 18z" />
    <glyph glyph-name="iogonek" unicode="&#x12f;" horiz-adv-x="548" 
d="M489 -299v-160q-65 -33 -178 -33q-126 0 -195 63.5t-69 172.5q0 67 33.5 134.5t87.5 121.5h-8v1042h229v-1042h-18q-125 -104 -125 -207q0 -54 33 -82t92 -28q65 0 118 18zM389 1294h-229v242h229v-242z" />
    <glyph glyph-name="Idotaccent" unicode="&#x130;" horiz-adv-x="643" 
d="M201 0v1452h241v-1452h-241zM438 1614h-229v241h229v-241z" />
    <glyph glyph-name="dotlessi" unicode="&#x131;" horiz-adv-x="548" 
d="M389 0h-229v1042h229v-1042z" />
    <glyph glyph-name="Jcircumflex" unicode="&#x134;" horiz-adv-x="913" 
d="M55 -12v198q82 -14 176 -14q137 0 195.5 84t58.5 236v960h242v-948q0 -276 -113 -404.5t-360 -128.5q-109 0 -199 17zM182 1575l291 283h258l293 -283h-229l-195 176l-190 -176h-228z" />
    <glyph glyph-name="jcircumflex" unicode="&#x135;" horiz-adv-x="557" 
d="M-33 -479v182h19q102 0 143 53.5t41 175.5v1110h227v-1056q0 -87 -8 -151.5t-33 -127t-68 -101.5t-115 -63t-171 -24q-10 0 -22 1t-13 1zM-102 1225l268 327h225l266 -327h-206l-175 211l-170 -211h-208z" />
    <glyph glyph-name="uni0136" unicode="&#x136;" horiz-adv-x="1542" 
d="M442 0h-241v1452h241v-696q98 85 381.5 326t431.5 370h306l-725 -623l768 -829h-310l-637 698l-215 -174v-524zM723 -150h197q0 -99 -30 -212.5t-83 -180.5h-186q102 195 102 393z" />
    <glyph glyph-name="uni0137" unicode="&#x137;" horiz-adv-x="1253" 
d="M160 0v1536h229v-981q62 58 276.5 249t266.5 238h280l-471 -403l523 -639h-285l-404 510l-186 -154v-356h-229zM580 -150h196q0 -99 -29.5 -212.5t-82.5 -180.5h-187q103 197 103 393z" />
    <glyph glyph-name="kgreenlandic" unicode="&#x138;" horiz-adv-x="1247" 
d="M160 0v1042h229v-489q23 21 241 214t306 275h283q-261 -215 -484 -411q51 -63 257.5 -307t275.5 -324h-285q-21 29 -206 252t-208 256l-180 -139v-369h-229z" />
    <glyph glyph-name="Lacute" unicode="&#x139;" horiz-adv-x="1331" 
d="M440 201h860l-34 -201h-1065v1452h239v-1251zM197 1591l346 285h303l-416 -285h-233z" />
    <glyph glyph-name="lacute" unicode="&#x13a;" horiz-adv-x="546" 
d="M154 1653l280 250h275l-334 -250h-221zM389 0h-229v1536h229v-1536z" />
    <glyph glyph-name="uni013B" unicode="&#x13b;" horiz-adv-x="1331" 
d="M440 201h860l-34 -201h-1065v1452h239v-1251zM651 -150h197q0 -99 -30 -212.5t-83 -180.5h-186q102 195 102 393z" />
    <glyph glyph-name="uni013C" unicode="&#x13c;" horiz-adv-x="546" 
d="M389 0h-229v1536h229v-1536zM176 -150h197q0 -99 -30 -212.5t-83 -180.5h-186q102 195 102 393z" />
    <glyph glyph-name="Lcaron" unicode="&#x13d;" horiz-adv-x="1331" 
d="M440 201h860l-34 -201h-1065v1452h239v-1251zM973 887h-170l-12 567h192z" />
    <glyph glyph-name="lcaron" unicode="&#x13e;" horiz-adv-x="665" 
d="M389 0h-229v1536h229v-1536zM696 969h-170l-12 567h193z" />
    <glyph glyph-name="Ldot" unicode="&#x13f;" horiz-adv-x="1331" 
d="M983 645h-227v332h227v-332zM440 201h860l-34 -201h-1065v1452h239v-1251z" />
    <glyph glyph-name="ldot" unicode="&#x140;" horiz-adv-x="655" 
d="M702 707h-200v335h200v-335zM389 0h-229v1536h229v-1536z" />
    <glyph glyph-name="Lslash" unicode="&#x141;" horiz-adv-x="1331" 
d="M201 0v608l-215 -100l-2 172l217 102v670h239v-559l406 190v-174l-406 -188v-520h860l-34 -201h-1065z" />
    <glyph glyph-name="lslash" unicode="&#x142;" horiz-adv-x="598" 
d="M414 0h-230v698l-157 -86v179l157 86v659h230v-532l184 100v-180l-184 -101v-823z" />
    <glyph glyph-name="Nacute" unicode="&#x143;" horiz-adv-x="1728" 
d="M424 0h-223v1452h286q138 -198 337.5 -469.5t326 -446t162.5 -241.5h4q-12 154 -12 655v502h223v-1452h-271q-196 270 -485 683t-354 525h-4q10 -184 10 -647v-561zM713 1591l346 285h303l-416 -285h-233z" />
    <glyph glyph-name="nacute" unicode="&#x144;" horiz-adv-x="1320" 
d="M389 0h-229v778q0 186 -2 264h223q3 -30 8 -180q19 39 47 73t71.5 66t108 51t142.5 19q188 0 295.5 -113t107.5 -321v-637h-229v596q0 63 -13 113t-40.5 90t-76 62t-114.5 22q-147 0 -223 -101t-76 -278v-504zM508 1233l283 326h270l-342 -326h-211z" />
    <glyph glyph-name="uni0145" unicode="&#x145;" horiz-adv-x="1728" 
d="M424 0h-223v1452h286q138 -198 337.5 -469.5t326 -446t162.5 -241.5h4q-12 154 -12 655v502h223v-1452h-271q-196 270 -485 683t-354 525h-4q10 -184 10 -647v-561zM797 -139h196q0 -99 -29.5 -212.5t-82.5 -180.5h-187q103 197 103 393z" />
    <glyph glyph-name="uni0146" unicode="&#x146;" horiz-adv-x="1320" 
d="M389 0h-229v778q0 186 -2 264h223q3 -30 8 -180q19 39 47 73t71.5 66t108 51t142.5 19q188 0 295.5 -113t107.5 -321v-637h-229v596q0 63 -13 113t-40.5 90t-76 62t-114.5 22q-147 0 -223 -101t-76 -278v-504zM584 -150h196q0 -99 -29.5 -212.5t-82.5 -180.5h-187
q103 197 103 393z" />
    <glyph glyph-name="Ncaron" unicode="&#x147;" horiz-adv-x="1728" 
d="M424 0h-223v1452h286q138 -198 337.5 -469.5t326 -446t162.5 -241.5h4q-12 154 -12 655v502h223v-1452h-271q-196 270 -485 683t-354 525h-4q10 -184 10 -647v-561zM442 1858h230l194 -177l193 177h225l-291 -283h-258z" />
    <glyph glyph-name="ncaron" unicode="&#x148;" horiz-adv-x="1320" 
d="M389 0h-229v778q0 186 -2 264h223q3 -30 8 -180q19 39 47 73t71.5 66t108 51t142.5 19q188 0 295.5 -113t107.5 -321v-637h-229v596q0 63 -13 113t-40.5 90t-76 62t-114.5 22q-147 0 -223 -101t-76 -278v-504zM778 1214h-225l-268 326h207l176 -209l168 209h208z" />
    <glyph glyph-name="napostrophe" unicode="&#x149;" horiz-adv-x="1320" 
d="M135 1618h197q-13 -111 -53 -227.5t-86 -192.5h-173q86 211 115 420zM389 0h-229v778q0 186 -2 264h223q3 -30 8 -180q19 39 47 73t71.5 66t108 51t142.5 19q188 0 295.5 -113t107.5 -321v-637h-229v596q0 63 -13 113t-40.5 90t-76 62t-114.5 22q-147 0 -223 -101
t-76 -278v-504z" />
    <glyph glyph-name="Omacron" unicode="&#x14c;" horiz-adv-x="1757" 
d="M111 731q0 150 55 286.5t153 240t244.5 164.5t319.5 61q139 0 261 -39.5t213 -110t157 -164.5t99.5 -206t33.5 -232q0 -155 -52 -292.5t-148 -242.5t-244 -166t-329 -61q-173 0 -318 59t-241.5 162t-150 242.5t-53.5 298.5zM885 166q99 0 183 30t143 82t100.5 123
t61.5 153.5t20 172.5q0 111 -33.5 210.5t-97 178t-165 124.5t-227.5 46q-118 0 -215 -44.5t-159.5 -121t-96.5 -175.5t-34 -210q0 -115 34 -217t97.5 -181t164 -125t224.5 -46zM530 1661v162h672v-162h-672z" />
    <glyph glyph-name="omacron" unicode="&#x14d;" horiz-adv-x="1304" 
d="M86 520q0 111 39 210.5t110 175.5t180 120.5t240 44.5q108 0 201 -31t159 -84.5t112.5 -124t69 -149t22.5 -160.5q0 -113 -37.5 -212t-107.5 -175t-181 -120t-248 -44q-131 0 -238.5 45t-176.5 121.5t-106.5 175t-37.5 207.5zM653 154q107 0 183.5 50.5t111.5 131.5
t35 182q0 156 -88.5 263.5t-245.5 107.5q-107 0 -183.5 -52t-111.5 -133.5t-35 -183.5q0 -96 37.5 -178t115.5 -135t181 -53zM336 1311v164h629v-164h-629z" />
    <glyph glyph-name="Ohungarumlaut" unicode="&#x150;" horiz-adv-x="1757" 
d="M522 1604l250 282h236l-291 -282h-195zM950 1604l250 282h236l-291 -282h-195zM111 731q0 150 55 286.5t153 240t244.5 164.5t319.5 61q139 0 261 -39.5t213 -110t157 -164.5t99.5 -206t33.5 -232q0 -155 -52 -292.5t-148 -242.5t-244 -166t-329 -61q-173 0 -318 59
t-241.5 162t-150 242.5t-53.5 298.5zM885 166q99 0 183 30t143 82t100.5 123t61.5 153.5t20 172.5q0 111 -33.5 210.5t-97 178t-165 124.5t-227.5 46q-118 0 -215 -44.5t-159.5 -121t-96.5 -175.5t-34 -210q0 -115 34 -217t97.5 -181t164 -125t224.5 -46z" />
    <glyph glyph-name="ohungarumlaut" unicode="&#x151;" horiz-adv-x="1304" 
d="M522 1200h-176l234 336h213zM918 1200h-177l234 336h213zM86 520q0 111 39 210.5t110 175.5t180 120.5t240 44.5q108 0 201 -31t159 -84.5t112.5 -124t69 -149t22.5 -160.5q0 -113 -37.5 -212t-107.5 -175t-181 -120t-248 -44q-131 0 -238.5 45t-176.5 121.5t-106.5 175
t-37.5 207.5zM653 154q107 0 183.5 50.5t111.5 131.5t35 182q0 156 -88.5 263.5t-245.5 107.5q-107 0 -183.5 -52t-111.5 -133.5t-35 -183.5q0 -96 37.5 -178t115.5 -135t181 -53z" />
    <glyph glyph-name="OE" unicode="&#x152;" horiz-adv-x="2392" 
d="M1440 201h874l-30 -201h-1053q-143 -20 -307 -20q-162 0 -296 40t-228 109.5t-159 164t-95.5 204t-30.5 229.5q0 154 56 288t159.5 235t262.5 159.5t355 58.5q146 0 293 -16h1028v-201h-829v-391h784v-201h-784v-458zM369 731q0 -175 76 -303t202.5 -191t288.5 -63
q167 0 262 25v1054q-97 23 -246 23q-100 0 -187 -20.5t-160 -64t-125.5 -107t-81.5 -153.5t-29 -200z" />
    <glyph glyph-name="oe" unicode="&#x153;" horiz-adv-x="2160" 
d="M1837 301h229q-23 -65 -62.5 -120.5t-101 -104.5t-154 -77t-206.5 -28q-150 0 -261 58t-179 159q-69 -100 -185.5 -158.5t-271.5 -58.5q-131 0 -238.5 45t-176 121.5t-106 174.5t-38.5 208q0 111 39 210.5t110 175.5t180 120.5t240 44.5q147 0 260.5 -60.5t184.5 -162.5
q67 105 180.5 164t257.5 59q114 0 207 -32.5t154.5 -86.5t103 -126t60 -147.5t18.5 -154.5q0 -41 -2 -57h-860q8 -140 97 -228.5t234 -88.5q110 0 178 38.5t109 112.5zM653 154q107 0 183.5 50.5t111.5 131.5t35 182q0 156 -88.5 263.5t-245.5 107.5q-107 0 -183.5 -52
t-111.5 -133.5t-35 -183.5q0 -96 37.5 -178t115.5 -135t181 -53zM1536 899q-142 0 -221 -77.5t-92 -200.5h622q-3 37 -13.5 73t-34 74t-57 66.5t-86.5 46.5t-118 18z" />
    <glyph glyph-name="Racute" unicode="&#x154;" horiz-adv-x="1550" 
d="M203 0v1452h717q232 0 367.5 -105t135.5 -294q0 -133 -67.5 -222t-194.5 -124q223 -65 223 -351v-65q0 -224 17 -291h-246q-4 12 -7.5 26.5t-5.5 27.5t-3.5 34.5t-2 34.5t-1 41t-0.5 40.5v46.5v46v49q0 150 -69 207t-251 57h-375v-610h-237zM440 1262v-461h420
q160 0 238 57.5t78 177.5q0 226 -310 226h-426zM623 1591l346 285h303l-416 -285h-233z" />
    <glyph glyph-name="racute" unicode="&#x155;" horiz-adv-x="843" 
d="M389 0h-229v758q0 190 -2 284h223q8 -66 8 -229q51 121 158.5 190t257.5 66v-215q-188 3 -302 -105.5t-114 -326.5v-422zM295 1233l283 326h270l-342 -326h-211z" />
    <glyph glyph-name="uni0156" unicode="&#x156;" horiz-adv-x="1550" 
d="M203 0v1452h717q232 0 367.5 -105t135.5 -294q0 -133 -67.5 -222t-194.5 -124q223 -65 223 -351v-65q0 -224 17 -291h-246q-4 12 -7.5 26.5t-5.5 27.5t-3.5 34.5t-2 34.5t-1 41t-0.5 40.5v46.5v46v49q0 150 -69 207t-251 57h-375v-610h-237zM440 1262v-461h420
q160 0 238 57.5t78 177.5q0 226 -310 226h-426zM711 -127h196q0 -99 -29.5 -212.5t-82.5 -180.5h-187q103 197 103 393z" />
    <glyph glyph-name="uni0157" unicode="&#x157;" horiz-adv-x="843" 
d="M389 0h-229v758q0 190 -2 284h223q8 -66 8 -229q51 121 158.5 190t257.5 66v-215q-188 3 -302 -105.5t-114 -326.5v-422zM178 -150h197q0 -99 -30 -212.5t-83 -180.5h-186q102 195 102 393z" />
    <glyph glyph-name="Rcaron" unicode="&#x158;" horiz-adv-x="1550" 
d="M203 0v1452h717q232 0 367.5 -105t135.5 -294q0 -133 -67.5 -222t-194.5 -124q223 -65 223 -351v-65q0 -224 17 -291h-246q-4 12 -7.5 26.5t-5.5 27.5t-3.5 34.5t-2 34.5t-1 41t-0.5 40.5v46.5v46v49q0 150 -69 207t-251 57h-375v-610h-237zM440 1262v-461h420
q160 0 238 57.5t78 177.5q0 226 -310 226h-426zM342 1858h229l195 -177l192 177h226l-291 -283h-258z" />
    <glyph glyph-name="rcaron" unicode="&#x159;" horiz-adv-x="843" 
d="M389 0h-229v758q0 190 -2 284h223q8 -66 8 -229q51 121 158.5 190t257.5 66v-215q-188 3 -302 -105.5t-114 -326.5v-422zM559 1214h-225l-268 326h206l177 -209l167 209h209z" />
    <glyph glyph-name="Sacute" unicode="&#x15a;" horiz-adv-x="1495" 
d="M1331 1081h-241q-11 34 -22.5 58.5t-39 56.5t-65 52t-102 34t-148.5 14q-152 0 -237 -51t-85 -149q0 -45 14.5 -76.5t54.5 -61t115 -52t191 -42.5q155 -27 267 -64t179 -78t105.5 -94.5t51.5 -104.5t13 -117q0 -91 -37.5 -168.5t-112 -138.5t-199.5 -95.5t-288 -34.5
q-300 0 -465.5 123t-201.5 334h244q26 -84 75 -141.5t142 -93t225 -35.5q193 0 282 61.5t89 163.5q0 53 -18 91t-65 72.5t-133 61t-219 49.5q-166 28 -277 68.5t-171 95t-83.5 114t-23.5 138.5q0 128 77 223t205.5 142t291.5 47q137 0 245.5 -28t173 -69.5t108.5 -98
t62 -106t23 -100.5zM584 1602l346 284h303l-416 -284h-233z" />
    <glyph glyph-name="sacute" unicode="&#x15b;" horiz-adv-x="1163" 
d="M1044 756h-227q-36 151 -266 151q-118 0 -164.5 -39t-46.5 -90q0 -38 20 -61.5t80.5 -44t171.5 -35.5q117 -16 202 -41.5t135.5 -55.5t80 -70t39.5 -78.5t10 -88.5q0 -150 -121 -241t-368 -91q-224 0 -360 90.5t-162 255.5h229q52 -178 307 -178q248 0 248 146
q0 43 -22 71t-89.5 51.5t-189.5 38.5q-108 14 -188.5 39t-127.5 54.5t-75 67.5t-37.5 73t-9.5 78q0 44 13.5 86t47 84t83.5 73t129 50.5t177 19.5q104 0 187.5 -20.5t135.5 -52.5t87.5 -75t51 -83.5t19.5 -83.5zM424 1233l283 326h270l-342 -326h-211z" />
    <glyph glyph-name="Scircumflex" unicode="&#x15c;" horiz-adv-x="1495" 
d="M1331 1081h-241q-11 34 -22.5 58.5t-39 56.5t-65 52t-102 34t-148.5 14q-152 0 -237 -51t-85 -149q0 -45 14.5 -76.5t54.5 -61t115 -52t191 -42.5q155 -27 267 -64t179 -78t105.5 -94.5t51.5 -104.5t13 -117q0 -91 -37.5 -168.5t-112 -138.5t-199.5 -95.5t-288 -34.5
q-300 0 -465.5 123t-201.5 334h244q26 -84 75 -141.5t142 -93t225 -35.5q193 0 282 61.5t89 163.5q0 53 -18 91t-65 72.5t-133 61t-219 49.5q-166 28 -277 68.5t-171 95t-83.5 114t-23.5 138.5q0 128 77 223t205.5 142t291.5 47q137 0 245.5 -28t173 -69.5t108.5 -98
t62 -106t23 -100.5zM326 1585l290 283h258l293 -283h-229l-195 176l-190 -176h-227z" />
    <glyph glyph-name="scircumflex" unicode="&#x15d;" horiz-adv-x="1163" 
d="M1044 756h-227q-36 151 -266 151q-118 0 -164.5 -39t-46.5 -90q0 -38 20 -61.5t80.5 -44t171.5 -35.5q117 -16 202 -41.5t135.5 -55.5t80 -70t39.5 -78.5t10 -88.5q0 -150 -121 -241t-368 -91q-224 0 -360 90.5t-162 255.5h229q52 -178 307 -178q248 0 248 146
q0 43 -22 71t-89.5 51.5t-189.5 38.5q-108 14 -188.5 39t-127.5 54.5t-75 67.5t-37.5 73t-9.5 78q0 44 13.5 86t47 84t83.5 73t129 50.5t177 19.5q104 0 187.5 -20.5t135.5 -52.5t87.5 -75t51 -83.5t19.5 -83.5zM201 1225l268 327h225l267 -327h-207l-174 211l-170 -211
h-209z" />
    <glyph glyph-name="uni015E" unicode="&#x15e;" horiz-adv-x="1495" 
d="M530 -494v132q82 -19 146 -19q137 0 137 72q0 27 -18.5 45t-56 27t-76.5 12t-97 4v59l113 133q-268 13 -417 134.5t-183 320.5h244q26 -84 75 -141.5t142 -93t225 -35.5q193 0 282 61.5t89 163.5q0 53 -18 91t-65 72.5t-133 61t-219 49.5q-166 28 -277 68.5t-171 95
t-83.5 114t-23.5 138.5q0 128 77 223t205.5 142t291.5 47q137 0 245.5 -28t173 -69.5t108.5 -98t62 -106t23 -100.5h-241q-11 34 -22.5 58.5t-39 56.5t-65 52t-102 34t-148.5 14q-152 0 -237 -51t-85 -149q0 -45 14.5 -76.5t54.5 -61t115 -52t191 -42.5q155 -27 267 -64
t179 -78t105.5 -94.5t51.5 -104.5t13 -117q0 -174 -133 -293t-399 -140l-70 -84q29 -4 56.5 -11.5t58.5 -22.5t53.5 -35.5t37.5 -52t15 -70.5q0 -62 -28 -106.5t-75 -66.5t-94 -31t-99 -9q-102 0 -175 22z" />
    <glyph glyph-name="uni015F" unicode="&#x15f;" horiz-adv-x="1163" 
d="M365 -494v132q82 -19 145 -19q137 0 137 72q0 27 -18.5 45t-56 27t-76.5 12t-97 4v59l117 135q-192 15 -307.5 104t-140.5 240h229q52 -178 307 -178q248 0 248 146q0 43 -22 71t-89.5 51.5t-189.5 38.5q-108 14 -188.5 39t-127.5 54.5t-75 67.5t-37.5 73t-9.5 78
q0 44 13.5 86t47 84t83.5 73t129 50.5t177 19.5q104 0 187.5 -20.5t135.5 -52.5t87.5 -75t51 -83.5t19.5 -83.5h-227q-36 151 -266 151q-118 0 -164.5 -39t-46.5 -90q0 -38 20 -61.5t80.5 -44t171.5 -35.5q117 -16 202 -41.5t135.5 -55.5t80 -70t39.5 -78.5t10 -88.5
q0 -134 -97 -222t-296 -106l-72 -86q37 -5 71.5 -16.5t70.5 -32.5t58 -58t22 -85q0 -62 -28 -106.5t-75.5 -66.5t-94.5 -31t-99 -9q-101 0 -174 22z" />
    <glyph glyph-name="Scaron" unicode="&#x160;" horiz-adv-x="1495" 
d="M1331 1081h-241q-11 34 -22.5 58.5t-39 56.5t-65 52t-102 34t-148.5 14q-152 0 -237 -51t-85 -149q0 -45 14.5 -76.5t54.5 -61t115 -52t191 -42.5q155 -27 267 -64t179 -78t105.5 -94.5t51.5 -104.5t13 -117q0 -91 -37.5 -168.5t-112 -138.5t-199.5 -95.5t-288 -34.5
q-300 0 -465.5 123t-201.5 334h244q26 -84 75 -141.5t142 -93t225 -35.5q193 0 282 61.5t89 163.5q0 53 -18 91t-65 72.5t-133 61t-219 49.5q-166 28 -277 68.5t-171 95t-83.5 114t-23.5 138.5q0 128 77 223t205.5 142t291.5 47q137 0 245.5 -28t173 -69.5t108.5 -98
t62 -106t23 -100.5zM326 1884h229l195 -176l192 176h225l-290 -282h-259z" />
    <glyph glyph-name="scaron" unicode="&#x161;" horiz-adv-x="1163" 
d="M1044 756h-227q-36 151 -266 151q-118 0 -164.5 -39t-46.5 -90q0 -38 20 -61.5t80.5 -44t171.5 -35.5q117 -16 202 -41.5t135.5 -55.5t80 -70t39.5 -78.5t10 -88.5q0 -150 -121 -241t-368 -91q-224 0 -360 90.5t-162 255.5h229q52 -178 307 -178q248 0 248 146
q0 43 -22 71t-89.5 51.5t-189.5 38.5q-108 14 -188.5 39t-127.5 54.5t-75 67.5t-37.5 73t-9.5 78q0 44 13.5 86t47 84t83.5 73t129 50.5t177 19.5q104 0 187.5 -20.5t135.5 -52.5t87.5 -75t51 -83.5t19.5 -83.5zM694 1214h-225l-268 326h207l176 -209l168 209h209z" />
    <glyph glyph-name="uni0162" unicode="&#x162;" horiz-adv-x="1363" 
d="M444 -494v132q82 -19 146 -19q137 0 137 72q0 27 -18.5 45t-56 27t-76.5 12t-97 4v59l137 162h-53v1253h-545v199h1328v-199h-543v-1253h-17l-92 -111q29 -4 56.5 -11.5t58.5 -22.5t53.5 -35.5t37.5 -52t15 -70.5q0 -62 -28 -106.5t-75.5 -66.5t-94.5 -31t-99 -9
q-101 0 -174 22z" />
    <glyph glyph-name="uni0163" unicode="&#x163;" horiz-adv-x="784" 
d="M227 -473v131q77 -18 146 -18q137 0 137 71q0 27 -18.5 45t-56 27t-76.5 12t-97 4v60l127 149q-83 27 -118 97t-35 190v571h-203v176h203v328h229v-328h264v-176h-264v-538q0 -88 28.5 -125t108.5 -37q59 0 98 8v-164q-64 -20 -155 -20l-68 -80q29 -4 56.5 -11.5
t58.5 -23t53.5 -35.5t37.5 -52t15 -71q0 -62 -28 -106.5t-75.5 -66.5t-94.5 -31t-99 -9q-98 0 -174 23z" />
    <glyph glyph-name="Tcaron" unicode="&#x164;" horiz-adv-x="1363" 
d="M803 0h-240v1253h-545v199h1328v-199h-543v-1253zM260 1858h229l195 -177l193 177h225l-291 -283h-258z" />
    <glyph glyph-name="tcaron" unicode="&#x165;" horiz-adv-x="784" 
d="M782 1217h-135l-12 444h172zM236 295v571h-203v176h203v328h229v-328h264v-176h-264v-538q0 -88 28.5 -125t108.5 -37q59 0 98 8v-164q-61 -20 -172 -20q-163 0 -227.5 72.5t-64.5 232.5z" />
    <glyph glyph-name="Utilde" unicode="&#x168;" horiz-adv-x="1673" 
d="M186 612v840h242v-823q0 -106 24 -188t63 -133t94 -84t113 -45.5t124 -12.5q197 0 299 106.5t102 356.5v823h240v-825q0 -658 -649 -658q-308 0 -480 158t-172 485zM606 1597h-155v52q0 227 194 227q46 0 100.5 -17.5t95.5 -39t85.5 -39t72.5 -17.5q34 0 50 19.5t16 72.5
v23h152v-43q0 -132 -49.5 -187t-137.5 -55q-58 0 -129 29.5t-133.5 58.5t-101.5 29q-60 0 -60 -82v-31z" />
    <glyph glyph-name="utilde" unicode="&#x169;" horiz-adv-x="1304" 
d="M160 397v645h227v-604q0 -126 55.5 -202t178.5 -76q157 0 227 96t70 311v475h227v-739q0 -203 2 -303h-221q-8 58 -8 164q-28 -60 -68 -100t-116 -66.5t-185 -26.5q-175 0 -282 105t-107 321zM442 1243h-147v55q0 121 49.5 171.5t136.5 50.5q57 0 118 -28t112.5 -55.5
t85.5 -27.5q33 0 49 20.5t16 73.5v23h144v-49q0 -129 -48.5 -182.5t-138.5 -53.5q-45 0 -92.5 17.5t-80 39t-71.5 39t-69 17.5q-64 0 -64 -74v-37z" />
    <glyph glyph-name="Umacron" unicode="&#x16a;" horiz-adv-x="1673" 
d="M186 612v840h242v-823q0 -106 24 -188t63 -133t94 -84t113 -45.5t124 -12.5q197 0 299 106.5t102 356.5v823h240v-825q0 -658 -649 -658q-308 0 -480 158t-172 485zM498 1640v162h671v-162h-671z" />
    <glyph glyph-name="umacron" unicode="&#x16b;" horiz-adv-x="1304" 
d="M160 397v645h227v-604q0 -126 55.5 -202t178.5 -76q157 0 227 96t70 311v475h227v-739q0 -203 2 -303h-221q-8 58 -8 164q-28 -60 -68 -100t-116 -66.5t-185 -26.5q-175 0 -282 105t-107 321zM336 1311v164h629v-164h-629z" />
    <glyph glyph-name="Ubreve" unicode="&#x16c;" horiz-adv-x="1673" 
d="M186 612v840h242v-823q0 -106 24 -188t63 -133t94 -84t113 -45.5t124 -12.5q197 0 299 106.5t102 356.5v823h240v-825q0 -658 -649 -658q-308 0 -480 158t-172 485zM1034 1868h162q-20 -124 -112 -205.5t-250 -81.5q-88 0 -157.5 26t-111 69.5t-64 91.5t-28.5 100h166
q15 -59 67.5 -95t129.5 -36q88 0 133 35.5t65 95.5z" />
    <glyph glyph-name="ubreve" unicode="&#x16d;" horiz-adv-x="1304" 
d="M160 397v645h227v-604q0 -126 55.5 -202t178.5 -76q157 0 227 96t70 311v475h227v-739q0 -203 2 -303h-221q-8 58 -8 164q-28 -60 -68 -100t-116 -66.5t-185 -26.5q-175 0 -282 105t-107 321zM834 1540h161q-20 -140 -107.5 -228.5t-238.5 -88.5q-85 0 -151 26.5
t-105.5 72.5t-60.5 100.5t-25 117.5h162q16 -72 61 -115t119 -43q87 0 126.5 42.5t58.5 115.5z" />
    <glyph glyph-name="Uring" unicode="&#x16e;" horiz-adv-x="1673" 
d="M186 612v840h242v-823q0 -106 24 -188t63 -133t94 -84t113 -45.5t124 -12.5q197 0 299 106.5t102 356.5v823h240v-825q0 -658 -649 -658q-308 0 -480 158t-172 485zM596 1767q0 95 63.5 157.5t176.5 62.5q112 0 174.5 -60.5t62.5 -154.5q0 -96 -63.5 -157t-173.5 -61
q-111 0 -175.5 60.5t-64.5 152.5zM836 1661q54 0 82 31t28 77t-28 79.5t-82 33.5q-55 0 -83 -32t-28 -76q0 -48 27.5 -80.5t83.5 -32.5z" />
    <glyph glyph-name="uring" unicode="&#x16f;" horiz-adv-x="1304" 
d="M160 397v645h227v-604q0 -126 55.5 -202t178.5 -76q157 0 227 96t70 311v475h227v-739q0 -203 2 -303h-221q-8 58 -8 164q-28 -60 -68 -100t-116 -66.5t-185 -26.5q-175 0 -282 105t-107 321zM412 1382q0 95 63 157.5t176 62.5q112 0 175 -61t63 -155q0 -96 -64 -156.5
t-174 -60.5q-111 0 -175 60.5t-64 152.5zM651 1276q54 0 82.5 31t28.5 77t-28 79.5t-83 33.5t-82.5 -32t-27.5 -76q0 -48 27 -80.5t83 -32.5z" />
    <glyph glyph-name="Uhungarumlaut" unicode="&#x170;" horiz-adv-x="1673" 
d="M494 1593l249 283h236l-291 -283h-194zM922 1593l249 283h236l-291 -283h-194zM186 612v840h242v-823q0 -106 24 -188t63 -133t94 -84t113 -45.5t124 -12.5q197 0 299 106.5t102 356.5v823h240v-825q0 -658 -649 -658q-308 0 -480 158t-172 485z" />
    <glyph glyph-name="uhungarumlaut" unicode="&#x171;" horiz-adv-x="1304" 
d="M522 1200h-176l234 336h213zM918 1200h-177l234 336h213zM160 397v645h227v-604q0 -126 55.5 -202t178.5 -76q157 0 227 96t70 311v475h227v-739q0 -203 2 -303h-221q-8 58 -8 164q-28 -60 -68 -100t-116 -66.5t-185 -26.5q-175 0 -282 105t-107 321z" />
    <glyph glyph-name="Uogonek" unicode="&#x172;" horiz-adv-x="1673" 
d="M1092 2l8 -2q-125 -104 -125 -207q0 -54 33 -82t92 -28q66 0 119 18v-160q-65 -33 -179 -33q-126 0 -195 63.5t-69 172.5q0 116 92 225h-30q-308 0 -480 158t-172 485v840h242v-823q0 -106 24 -188t63 -133t94 -84t113 -45.5t124 -12.5q197 0 299 106.5t102 356.5v823
h240v-825q0 -511 -395 -625z" />
    <glyph glyph-name="uogonek" unicode="&#x173;" horiz-adv-x="1304" 
d="M160 397v645h227v-604q0 -126 55.5 -202t178.5 -76q157 0 227 96t70 311v475h227v-739q0 -203 2 -303h-25q-123 -105 -123 -205q0 -54 33 -82t92 -28q66 0 119 18v-160q-63 -32 -178 -32q-126 0 -195 63t-69 172q0 69 34.5 136.5t90.5 121.5q-8 66 -8 160
q-28 -60 -68 -100t-116 -66.5t-185 -26.5q-175 0 -282 105t-107 321z" />
    <glyph glyph-name="Wcircumflex" unicode="&#x174;" horiz-adv-x="2215" 
d="M737 0h-258l-442 1452h254q17 -59 69 -236t85.5 -294t76.5 -269t69.5 -260t35.5 -168h2q41 220 362 1227h236q317 -1029 354 -1219h4q42 213 333 1151q14 47 21 68h242l-471 -1452h-262q-306 985 -352 1196h-2q-39 -198 -357 -1196zM686 1575l291 283h258l293 -283h-230
l-194 176l-191 -176h-227z" />
    <glyph glyph-name="wcircumflex" unicode="&#x175;" horiz-adv-x="1761" 
d="M371 0l-336 1042h237q201 -678 238 -847h2q34 144 266 847h217q234 -711 260 -837h2q56 231 244 837h225l-352 -1042h-239q-46 142 -107.5 326t-97.5 293.5t-51 164.5h-2q-46 -174 -259 -784h-247zM500 1225l268 327h225l267 -327h-207l-174 211l-170 -211h-209z" />
    <glyph glyph-name="Ycircumflex" unicode="&#x176;" horiz-adv-x="1384" 
d="M813 0h-240v545q0 17 -16 39l-606 868h287q38 -56 165 -242.5t197.5 -294t101.5 -163.5q26 44 84.5 133.5t110.5 167t142 210.5t128 189h267l-611 -877q-10 -17 -10 -34v-541zM270 1575l291 283h258l293 -283h-229l-195 176l-190 -176h-228z" />
    <glyph glyph-name="ycircumflex" unicode="&#x177;" horiz-adv-x="1212" 
d="M117 -469v195q62 -9 110 -9q71 0 117 23t80 70.5t80 144.5l-479 1087h251q274 -646 349 -864h4q139 406 319 864h236l-393 -966q-38 -93 -64 -154t-56 -123t-53.5 -98.5t-54 -71.5t-59.5 -53t-68 -32.5t-81 -19.5t-97 -5q-86 0 -141 12zM223 1225l269 327h225l266 -327
h-207l-174 211l-170 -211h-209z" />
    <glyph glyph-name="Ydieresis" unicode="&#x178;" horiz-adv-x="1384" 
d="M567 1614h-205v241h205v-241zM1020 1614h-205v241h205v-241zM813 0h-240v545q0 17 -16 39l-606 868h287q38 -56 165 -242.5t197.5 -294t101.5 -163.5q26 44 84.5 133.5t110.5 167t142 210.5t128 189h267l-611 -877q-10 -17 -10 -34v-541z" />
    <glyph glyph-name="Zacute" unicode="&#x179;" horiz-adv-x="1425" 
d="M51 0v174l981 1083h-934v195h1243v-186l-968 -1071h1024l-33 -195h-1313zM559 1591l346 285h303l-415 -285h-234z" />
    <glyph glyph-name="zacute" unicode="&#x17a;" horiz-adv-x="1132" 
d="M70 0v168l692 692h-653v182h944v-174l-680 -686h729l-33 -182h-999zM434 1233l283 326h270l-342 -326h-211z" />
    <glyph glyph-name="Zdotaccent" unicode="&#x17b;" horiz-adv-x="1425" 
d="M51 0v174l981 1083h-934v195h1243v-186l-968 -1071h1024l-33 -195h-1313zM827 1614h-229v241h229v-241z" />
    <glyph glyph-name="zdotaccent" unicode="&#x17c;" horiz-adv-x="1132" 
d="M70 0v168l692 692h-653v182h944v-174l-680 -686h729l-33 -182h-999zM680 1294h-229v242h229v-242z" />
    <glyph glyph-name="Zcaron" unicode="&#x17d;" horiz-adv-x="1425" 
d="M51 0v174l981 1083h-934v195h1243v-186l-968 -1071h1024l-33 -195h-1313zM289 1858h229l195 -177l192 177h225l-290 -283h-258z" />
    <glyph glyph-name="zcaron" unicode="&#x17e;" horiz-adv-x="1132" 
d="M70 0v168l692 692h-653v182h944v-174l-680 -686h729l-33 -182h-999zM690 1214h-225l-268 326h206l177 -209l168 209h208z" />
    <glyph glyph-name="uni018F" unicode="&#x18f;" horiz-adv-x="1640" 
d="M106 799h1170q-10 230 -141 360.5t-342 130.5q-313 0 -428 -235h-240q33 87 90 161.5t139 135.5t197.5 96t251.5 35q180 0 321 -62.5t226 -168.5t128.5 -237.5t43.5 -279.5q0 -160 -45.5 -297.5t-132.5 -242.5t-225.5 -165t-313.5 -61q-325 -1 -514 199t-189 530
q0 39 4 101zM807 158q201 0 321 118.5t142 346.5h-916q3 -217 129 -341t324 -124z" />
    <glyph glyph-name="florin" unicode="&#x192;" horiz-adv-x="1312" 
d="M98 -154l43 177q74 -33 154 -33q75 0 114 60t68 229l66 397h-209v170h235l19 106q11 69 25 124.5t44 120t70 107.5t105 72t147 29q140 0 207 -43l-39 -168q-3 1 -18.5 6t-21.5 7t-21 6t-25.5 5.5t-27 3t-32.5 1.5q-81 0 -119.5 -63.5t-58.5 -186.5l-22 -127h258v-170
h-287l-72 -428q-16 -104 -40 -179.5t-66 -139.5t-109.5 -97t-160.5 -33q-132 0 -226 47z" />
    <glyph glyph-name="Ohorn" unicode="&#x1a0;" horiz-adv-x="1757" 
d="M1415 1638h209q14 -54 14 -120q0 -93 -46.5 -166t-135.5 -109q93 -103 142 -234.5t49 -277.5q0 -155 -52 -292.5t-148 -242.5t-244 -166t-329 -61q-173 0 -318 59t-241.5 162t-150 242.5t-53.5 298.5q0 150 55 286.5t153 240t244.5 164.5t319.5 61q241 0 426 -117
q127 23 127 152q0 59 -21 120zM885 166q99 0 183 30t143 82t100.5 123t61.5 153.5t20 172.5q0 111 -33.5 210.5t-97 178t-165 124.5t-227.5 46q-118 0 -215 -44.5t-159.5 -121t-96.5 -175.5t-34 -210q0 -115 34 -217t97.5 -181t164 -125t224.5 -46z" />
    <glyph glyph-name="ohorn" unicode="&#x1a1;" horiz-adv-x="1304" 
d="M1085 1231h209q15 -58 15 -121q0 -92 -46.5 -165t-136.5 -109q93 -140 93 -314q0 -113 -37.5 -212t-107.5 -175t-181 -120t-248 -44q-131 0 -238.5 45t-176.5 121.5t-106.5 175t-37.5 207.5q0 111 39 210.5t110 175.5t180 120.5t240 44.5q208 0 349 -106q102 30 102 145
q0 60 -21 121zM653 154q107 0 183.5 50.5t111.5 131.5t35 182q0 156 -88.5 263.5t-245.5 107.5q-107 0 -183.5 -52t-111.5 -133.5t-35 -183.5q0 -96 37.5 -178t115.5 -135t181 -53z" />
    <glyph glyph-name="Uhorn" unicode="&#x1af;" horiz-adv-x="1673" 
d="M186 612v840h242v-823q0 -106 24 -188t63 -133t94 -84t113 -45.5t124 -12.5q197 0 299 106.5t102 356.5v823h123q139 19 139 154q0 62 -20 120h209q14 -54 14 -120q0 -104 -57 -181.5t-168 -107.5v-690q0 -658 -649 -658q-308 0 -480 158t-172 485z" />
    <glyph glyph-name="uhorn" unicode="&#x1b0;" horiz-adv-x="1304" 
d="M160 397v645h227v-604q0 -126 55.5 -202t178.5 -76q157 0 227 96t70 311v475h102q156 14 156 156q0 60 -21 121h209q14 -54 14 -121q0 -106 -59 -184.5t-174 -106.5v-604q0 -203 2 -303h-221q-8 58 -8 164q-28 -60 -68 -100t-116 -66.5t-185 -26.5q-175 0 -282 105
t-107 321z" />
    <glyph glyph-name="uni01CD" unicode="&#x1cd;" horiz-adv-x="1589" 
d="M18 0l615 1452h297l641 -1452h-260l-183 414h-688l-174 -414h-248zM774 1286h-2q-54 -172 -262 -672h545q-246 564 -281 672zM360 1858h230l194 -177l193 177h225l-291 -283h-258z" />
    <glyph glyph-name="uni01CE" unicode="&#x1ce;" horiz-adv-x="1261" 
d="M379 737h-229q4 45 18 87t48 88.5t84.5 80.5t134.5 56t190 22q477 0 477 -364v-441q0 -166 8 -266h-217q-5 20 -12 143q-93 -172 -387 -172q-105 0 -186 30t-127 79.5t-68.5 107t-22.5 119.5q0 78 28 138t76 98t118.5 62.5t148 34t172.5 9.5h244v51q0 43 -10.5 77t-37 64
t-77.5 46t-125 16q-67 0 -114 -13t-73.5 -38.5t-39.5 -51.5t-21 -63zM315 319q0 -77 58 -125.5t172 -48.5q92 0 158.5 24.5t103.5 68.5t53.5 98t16.5 121v37q-29 2 -240 2q-167 0 -244.5 -42t-77.5 -135zM737 1214h-225l-268 326h207l176 -209l168 209h209z" />
    <glyph glyph-name="uni01CF" unicode="&#x1cf;" horiz-adv-x="643" 
d="M201 0v1452h241v-1452h-241zM-100 1858h229l195 -177l192 177h225l-290 -283h-258z" />
    <glyph glyph-name="uni01D0" unicode="&#x1d0;" horiz-adv-x="548" 
d="M389 0h-229v1042h229v-1042zM387 1214h-225l-268 326h206l176 -209l168 209h209z" />
    <glyph glyph-name="uni01D1" unicode="&#x1d1;" horiz-adv-x="1757" 
d="M111 731q0 150 55 286.5t153 240t244.5 164.5t319.5 61q139 0 261 -39.5t213 -110t157 -164.5t99.5 -206t33.5 -232q0 -155 -52 -292.5t-148 -242.5t-244 -166t-329 -61q-173 0 -318 59t-241.5 162t-150 242.5t-53.5 298.5zM885 166q99 0 183 30t143 82t100.5 123
t61.5 153.5t20 172.5q0 111 -33.5 210.5t-97 178t-165 124.5t-227.5 46q-118 0 -215 -44.5t-159.5 -121t-96.5 -175.5t-34 -210q0 -115 34 -217t97.5 -181t164 -125t224.5 -46zM442 1878h230l194 -176l193 176h225l-291 -283h-258z" />
    <glyph glyph-name="uni01D2" unicode="&#x1d2;" horiz-adv-x="1304" 
d="M86 520q0 111 39 210.5t110 175.5t180 120.5t240 44.5q108 0 201 -31t159 -84.5t112.5 -124t69 -149t22.5 -160.5q0 -113 -37.5 -212t-107.5 -175t-181 -120t-248 -44q-131 0 -238.5 45t-176.5 121.5t-106.5 175t-37.5 207.5zM653 154q107 0 183.5 50.5t111.5 131.5
t35 182q0 156 -88.5 263.5t-245.5 107.5q-107 0 -183.5 -52t-111.5 -133.5t-35 -183.5q0 -96 37.5 -178t115.5 -135t181 -53zM764 1214h-225l-269 326h207l176 -209l168 209h209z" />
    <glyph glyph-name="uni01D3" unicode="&#x1d3;" horiz-adv-x="1673" 
d="M186 612v840h242v-823q0 -106 24 -188t63 -133t94 -84t113 -45.5t124 -12.5q197 0 299 106.5t102 356.5v823h240v-825q0 -658 -649 -658q-308 0 -480 158t-172 485zM414 1858h229l195 -177l192 177h225l-290 -283h-258z" />
    <glyph glyph-name="uni01D4" unicode="&#x1d4;" horiz-adv-x="1304" 
d="M160 397v645h227v-604q0 -126 55.5 -202t178.5 -76q157 0 227 96t70 311v475h227v-739q0 -203 2 -303h-221q-8 58 -8 164q-28 -60 -68 -100t-116 -66.5t-185 -26.5q-175 0 -282 105t-107 321zM764 1214h-225l-269 326h207l176 -209l168 209h209z" />
    <glyph glyph-name="uni01D5" unicode="&#x1d5;" horiz-adv-x="1673" 
d="M696 1583h-188v201h188v-201zM1163 1911h-655v145h655v-145zM1163 1583h-188v201h188v-201zM186 612v840h242v-823q0 -106 24 -188t63 -133t94 -84t113 -45.5t124 -12.5q197 0 299 106.5t102 356.5v823h240v-825q0 -658 -649 -658q-308 0 -480 158t-172 485z" />
    <glyph glyph-name="uni01D6" unicode="&#x1d6;" horiz-adv-x="1304" 
d="M532 1171h-188v205h188v-205zM936 1495h-578v152h578v-152zM958 1171h-188v205h188v-205zM160 397v645h227v-604q0 -126 55.5 -202t178.5 -76q157 0 227 96t70 311v475h227v-739q0 -203 2 -303h-221q-8 58 -8 164q-28 -60 -68 -100t-116 -66.5t-185 -26.5
q-175 0 -282 105t-107 321z" />
    <glyph glyph-name="uni01D7" unicode="&#x1d7;" horiz-adv-x="1673" 
d="M508 1583v201h188v-201h-188zM930 1868h-211l287 246h264zM1163 1583h-188v201h188v-201zM186 612v840h242v-823q0 -106 24 -188t63 -133t94 -84t113 -45.5t124 -12.5q197 0 299 106.5t102 356.5v823h240v-825q0 -658 -649 -658q-308 0 -480 158t-172 485z" />
    <glyph glyph-name="uni01D8" unicode="&#x1d8;" horiz-adv-x="1304" 
d="M344 1171v211h188v-211h-188zM731 1475h-203l238 268h254zM958 1171h-188v211h188v-211zM160 397v645h227v-604q0 -126 55.5 -202t178.5 -76q157 0 227 96t70 311v475h227v-739q0 -203 2 -303h-221q-8 58 -8 164q-28 -60 -68 -100t-116 -66.5t-185 -26.5q-175 0 -282 105
t-107 321z" />
    <glyph glyph-name="uni01D9" unicode="&#x1d9;" horiz-adv-x="1673" 
d="M696 1583h-188v201h188v-201zM475 2085h207l156 -139l155 139h203l-252 -234h-217zM1163 1583h-188v201h188v-201zM186 612v840h242v-823q0 -106 24 -188t63 -133t94 -84t113 -45.5t124 -12.5q197 0 299 106.5t102 356.5v823h240v-825q0 -658 -649 -658q-308 0 -480 158
t-172 485z" />
    <glyph glyph-name="uni01DA" unicode="&#x1da;" horiz-adv-x="1304" 
d="M537 1176h-185v192h185v-192zM762 1442h-219l-219 246h194l135 -154l135 154h191zM950 1176h-184v192h184v-192zM160 397v645h227v-604q0 -126 55.5 -202t178.5 -76q157 0 227 96t70 311v475h227v-739q0 -203 2 -303h-221q-8 58 -8 164q-28 -60 -68 -100t-116 -66.5
t-185 -26.5q-175 0 -282 105t-107 321z" />
    <glyph glyph-name="uni01DB" unicode="&#x1db;" horiz-adv-x="1673" 
d="M508 1583v201h188v-201h-188zM420 2114h264l289 -246h-217zM1163 1583h-188v201h188v-201zM186 612v840h242v-823q0 -106 24 -188t63 -133t94 -84t113 -45.5t124 -12.5q197 0 299 106.5t102 356.5v823h240v-825q0 -658 -649 -658q-308 0 -480 158t-172 485z" />
    <glyph glyph-name="uni01DC" unicode="&#x1dc;" horiz-adv-x="1304" 
d="M344 1171v201h188v-201h-188zM573 1464l-288 269h252l237 -269h-201zM958 1171h-188v201h188v-201zM160 397v645h227v-604q0 -126 55.5 -202t178.5 -76q157 0 227 96t70 311v475h227v-739q0 -203 2 -303h-221q-8 58 -8 164q-28 -60 -68 -100t-116 -66.5t-185 -26.5
q-175 0 -282 105t-107 321z" />
    <glyph glyph-name="Gcaron" unicode="&#x1e6;" horiz-adv-x="1726" 
d="M891 608v195h676v-803h-181q-13 59 -18 199q-76 -115 -196.5 -172.5t-323.5 -57.5q-170 0 -309 55t-232.5 154t-144.5 238t-51 305q0 160 53.5 299t151.5 242t246.5 162t328.5 59q159 0 284.5 -38.5t204.5 -104t126 -140.5t67 -160h-246q-20 50 -52 91t-82.5 78.5
t-128.5 59t-175 21.5q-127 0 -227.5 -43t-164.5 -119t-98 -176.5t-34 -218.5q0 -166 58 -293.5t177.5 -202.5t286.5 -75q216 0 331 105.5t115 301.5v39h-442zM438 1868h230l194 -176l193 176h225l-291 -283h-258z" />
    <glyph glyph-name="gcaron" unicode="&#x1e7;" horiz-adv-x="1351" 
d="M96 -121h232q27 -84 95.5 -133t209.5 -49q83 0 143.5 21.5t96.5 57t57.5 91.5t29 114.5t7.5 135.5v53q-51 -91 -140 -138.5t-241 -47.5q-145 0 -260 70t-177.5 189t-62.5 265q0 122 42 227.5t113 178.5t167 115t202 42q83 0 149 -17t106.5 -45t64.5 -56.5t37 -59.5
q0 105 6 149h221q-2 -102 -2 -303v-608q0 -150 -29 -259.5t-94 -190.5t-177 -121.5t-271 -40.5q-120 0 -214.5 27t-148 65t-91 90.5t-51 93.5t-20.5 84zM643 170q156 0 242 92.5t86 265.5q0 169 -83 262t-235 93q-108 0 -185.5 -53.5t-113 -135t-35.5 -178.5q0 -150 90 -248
t234 -98zM788 1214h-225l-268 326h207l176 -209l168 209h209z" />
    <glyph glyph-name="uni0218" unicode="&#x218;" horiz-adv-x="1495" 
d="M1331 1081h-241q-11 34 -22.5 58.5t-39 56.5t-65 52t-102 34t-148.5 14q-152 0 -237 -51t-85 -149q0 -45 14.5 -76.5t54.5 -61t115 -52t191 -42.5q155 -27 267 -64t179 -78t105.5 -94.5t51.5 -104.5t13 -117q0 -91 -37.5 -168.5t-112 -138.5t-199.5 -95.5t-288 -34.5
q-300 0 -465.5 123t-201.5 334h244q26 -84 75 -141.5t142 -93t225 -35.5q193 0 282 61.5t89 163.5q0 53 -18 91t-65 72.5t-133 61t-219 49.5q-166 28 -277 68.5t-171 95t-83.5 114t-23.5 138.5q0 128 77 223t205.5 142t291.5 47q137 0 245.5 -28t173 -69.5t108.5 -98
t62 -106t23 -100.5zM700 -150h197q0 -99 -30 -212.5t-83 -180.5h-186q102 195 102 393z" />
    <glyph glyph-name="uni0219" unicode="&#x219;" horiz-adv-x="1163" 
d="M1044 756h-227q-36 151 -266 151q-118 0 -164.5 -39t-46.5 -90q0 -38 20 -61.5t80.5 -44t171.5 -35.5q117 -16 202 -41.5t135.5 -55.5t80 -70t39.5 -78.5t10 -88.5q0 -150 -121 -241t-368 -91q-224 0 -360 90.5t-162 255.5h229q52 -178 307 -178q248 0 248 146
q0 43 -22 71t-89.5 51.5t-189.5 38.5q-108 14 -188.5 39t-127.5 54.5t-75 67.5t-37.5 73t-9.5 78q0 44 13.5 86t47 84t83.5 73t129 50.5t177 19.5q104 0 187.5 -20.5t135.5 -52.5t87.5 -75t51 -83.5t19.5 -83.5zM512 -150h197q0 -99 -30 -212.5t-83 -180.5h-186
q102 195 102 393z" />
    <glyph glyph-name="uni021A" unicode="&#x21a;" horiz-adv-x="1363" 
d="M803 0h-240v1253h-545v199h1328v-199h-543v-1253zM586 -150h196q0 -99 -29.5 -212.5t-82.5 -180.5h-187q103 197 103 393z" />
    <glyph glyph-name="uni021B" unicode="&#x21b;" horiz-adv-x="784" 
d="M236 295v571h-203v176h203v328h229v-328h264v-176h-264v-538q0 -88 28.5 -125t108.5 -37q59 0 98 8v-164q-61 -20 -172 -20q-163 0 -227.5 72.5t-64.5 232.5zM344 -150h197q0 -99 -30 -212.5t-83 -180.5h-186q102 195 102 393z" />
    <glyph glyph-name="uni0237" unicode="&#x237;" horiz-adv-x="557" 
d="M-33 -479v182h19q102 0 143 53.5t41 175.5v1110h227v-1056q0 -87 -8 -151.5t-33 -127t-68 -101.5t-115 -63t-171 -24q-10 0 -22 1t-13 1z" />
    <glyph glyph-name="uni0251" unicode="&#x251;" horiz-adv-x="1353" 
d="M1206 0h-209q-6 17 -16 156q-110 -185 -389 -185q-222 0 -364 151t-142 390q0 130 45 238t120.5 177t170 106.5t196.5 37.5q238 0 349 -147v118h229v-763q0 -211 10 -279zM645 158q167 0 248.5 98t81.5 268q0 77 -18 141t-55.5 114t-100.5 78t-146 28q-82 0 -146.5 -30.5
t-104.5 -82t-61 -117t-21 -139.5q0 -95 35.5 -174.5t111 -131.5t176.5 -52z" />
    <glyph glyph-name="uni0259" unicode="&#x259;" horiz-adv-x="1247" 
d="M63 518v57h863q-8 140 -97.5 229t-234.5 89q-203 0 -287 -152h-229q23 65 62.5 120.5t101 104.5t154 77t206.5 28q112 0 205.5 -31t157 -83t107 -123t63.5 -148.5t20 -161.5q0 -155 -65 -280t-191 -199t-293 -74q-115 0 -208.5 32.5t-154.5 85.5t-102.5 125t-59.5 148
t-18 156zM922 422h-623q3 -38 12 -73.5t31.5 -74t55 -66.5t87 -46.5t123.5 -18.5q144 0 222.5 77.5t91.5 201.5z" />
    <glyph glyph-name="uni0261" unicode="&#x261;" horiz-adv-x="1351" 
d="M96 -121h232q27 -84 95.5 -133t209.5 -49q83 0 143.5 21.5t96.5 57t57.5 91.5t29 114.5t7.5 135.5v53q-51 -91 -140 -138.5t-241 -47.5q-145 0 -260 70t-177.5 189t-62.5 265q0 122 42 227.5t113 178.5t167 115t202 42q83 0 149 -17t106.5 -45t64.5 -56.5t37 -59.5
q0 105 6 149h221q-2 -102 -2 -303v-608q0 -150 -29 -259.5t-94 -190.5t-177 -121.5t-271 -40.5q-120 0 -214.5 27t-148 65t-91 90.5t-51 93.5t-20.5 84zM643 170q156 0 242 92.5t86 265.5q0 169 -83 262t-235 93q-108 0 -185.5 -53.5t-113 -135t-35.5 -178.5q0 -150 90 -248
t234 -98z" />
    <glyph glyph-name="uni02BB" unicode="&#x2bb;" horiz-adv-x="755" 
d="M438 920h-233q12 139 60 320.5t100 295.5h186q-95 -310 -113 -616z" />
    <glyph glyph-name="uni02BC" unicode="&#x2bc;" horiz-adv-x="755" 
d="M315 1536h236q-13 -140 -61.5 -321.5t-100.5 -294.5h-184q96 324 110 616z" />
    <glyph glyph-name="uni02BE" unicode="&#x2be;" horiz-adv-x="671" 
d="M207 1114v123q50 3 79 29.5t29 72.5q0 44 -30.5 69.5t-79.5 31.5v123q112 0 187 -61t75 -161q0 -103 -76 -165t-184 -62z" />
    <glyph glyph-name="uni02BF" unicode="&#x2bf;" horiz-adv-x="671" 
d="M465 1559v-123q-49 -3 -79 -30t-30 -75q0 -43 31 -68t80 -30v-123q-111 0 -186.5 60.5t-75.5 160.5q0 103 76.5 165.5t183.5 62.5z" />
    <glyph glyph-name="circumflex" unicode="&#x2c6;" 
d="M29 1225l268 327h225l266 -327h-206l-174 211l-170 -211h-209z" />
    <glyph glyph-name="caron" unicode="&#x2c7;" 
d="M522 1214h-225l-268 326h207l176 -209l168 209h208z" />
    <glyph glyph-name="uni02C8" unicode="&#x2c8;" horiz-adv-x="606" 
d="M401 1135h-196v399h196v-399z" />
    <glyph glyph-name="uni02C9" unicode="&#x2c9;" horiz-adv-x="1040" 
d="M205 1311v164h629v-164h-629z" />
    <glyph glyph-name="uni02CA" unicode="&#x2ca;" horiz-adv-x="942" 
d="M217 1233l283 326h270l-342 -326h-211z" />
    <glyph glyph-name="uni02CB" unicode="&#x2cb;" horiz-adv-x="944" 
d="M516 1233l-350 326h270l291 -326h-211z" />
    <glyph glyph-name="uni02CC" unicode="&#x2cc;" horiz-adv-x="606" 
d="M401 -504h-196v400h196v-400z" />
    <glyph glyph-name="breve" unicode="&#x2d8;" 
d="M592 1540h162q-20 -140 -107.5 -228.5t-238.5 -88.5q-85 0 -151 26.5t-105.5 72.5t-60.5 100.5t-25 117.5h161q16 -72 61.5 -115t119.5 -43q46 0 79.5 13t54 37.5t31 49t19.5 58.5z" />
    <glyph glyph-name="dotaccent" unicode="&#x2d9;" 
d="M524 1294h-229v242h229v-242z" />
    <glyph glyph-name="ring" unicode="&#x2da;" 
d="M170 1382q0 95 63.5 157.5t176.5 62.5q112 0 174.5 -61t62.5 -155q0 -96 -63.5 -156.5t-173.5 -60.5q-111 0 -175.5 60.5t-64.5 152.5zM410 1276q54 0 82 31t28 77t-28 79.5t-82 33.5q-55 0 -83 -32t-28 -76q0 -48 27.5 -80.5t83.5 -32.5z" />
    <glyph glyph-name="ogonek" unicode="&#x2db;" 
d="M690 -299v-160q-65 -33 -178 -33q-126 0 -195 63.5t-69 172.5q0 79 44 156t111 131l168 -31q-125 -104 -125 -207q0 -54 33 -82t92 -28q66 0 119 18z" />
    <glyph glyph-name="tilde" unicode="&#x2dc;" 
d="M201 1243h-148v55q0 121 50 171.5t137 50.5q57 0 118 -28t112 -55.5t85 -27.5q33 0 49.5 20.5t16.5 73.5v23h143v-49q0 -129 -48 -182.5t-138 -53.5q-57 0 -116.5 28.5t-110 56.5t-87.5 28q-63 0 -63 -74v-37z" />
    <glyph glyph-name="hungarumlaut" unicode="&#x2dd;" 
d="M281 1200h-177l234 336h213zM676 1200h-176l233 336h213z" />
    <glyph glyph-name="uni0300" unicode="&#x300;" horiz-adv-x="0" 
d="M49 1233l-350 326h270l291 -326h-211z" />
    <glyph glyph-name="uni0301" unicode="&#x301;" horiz-adv-x="0" 
d="M-260 1233l283 326h270l-342 -326h-211z" />
    <glyph glyph-name="uni0302" unicode="&#x302;" horiz-adv-x="0" 
d="M-381 1225l268 327h226l266 -327h-207l-174 211l-170 -211h-209z" />
    <glyph glyph-name="uni0303" unicode="&#x303;" horiz-adv-x="0" 
d="M-209 1243h-147v55q0 121 49.5 171.5t136.5 50.5q57 0 118 -28t112 -55.5t85 -27.5q33 0 49.5 20.5t16.5 73.5v23h143v-49q0 -129 -48 -182.5t-138 -53.5q-45 0 -92.5 17.5t-80 39t-71.5 39t-69 17.5q-64 0 -64 -74v-37z" />
    <glyph glyph-name="uni0304" unicode="&#x304;" horiz-adv-x="0" 
d="M-315 1311v164h628v-164h-628z" />
    <glyph glyph-name="uni0306" unicode="&#x306;" horiz-adv-x="0" 
d="M182 1540h162q-20 -140 -107.5 -228.5t-238.5 -88.5q-85 0 -151 26.5t-105.5 72.5t-60.5 100.5t-25 117.5h162q16 -72 61 -115t119 -43q46 0 79.5 13t54 37.5t31 49t19.5 58.5z" />
    <glyph glyph-name="uni0307" unicode="&#x307;" horiz-adv-x="0" 
d="M115 1294h-230v242h230v-242z" />
    <glyph glyph-name="uni0308" unicode="&#x308;" horiz-adv-x="0" 
d="M-113 1294h-204v242h204v-242zM317 1294h-204v242h204v-242z" />
    <glyph glyph-name="uni0309" unicode="&#x309;" horiz-adv-x="0" 
d="M-184 1411l-43 117q87 61 215 61q106 0 163.5 -50t57.5 -134q0 -45 -20.5 -88t-42 -67.5t-54.5 -53.5h-188q63 55 91 94.5t28 77.5q0 33 -21 54.5t-63 21.5q-69 0 -123 -33z" />
    <glyph glyph-name="uni030A" unicode="&#x30a;" horiz-adv-x="0" 
d="M-240 1382q0 95 63.5 157.5t176.5 62.5q112 0 175 -61t63 -155q0 -96 -64 -156.5t-174 -60.5q-111 0 -175.5 60.5t-64.5 152.5zM0 1276q54 0 82.5 31t28.5 77t-28 79.5t-83 33.5t-83 -32t-28 -76q0 -48 27.5 -80.5t83.5 -32.5z" />
    <glyph glyph-name="uni030B" unicode="&#x30b;" horiz-adv-x="0" 
d="M-231 1200h-177l234 336h213zM164 1200h-176l233 336h213z" />
    <glyph glyph-name="uni030C" unicode="&#x30c;" horiz-adv-x="0" 
d="M113 1214h-226l-268 326h207l176 -209l168 209h209z" />
    <glyph glyph-name="uni031B" unicode="&#x31b;" horiz-adv-x="0" 
d="M-18 1325h208q15 -58 15 -121q0 -120 -75.5 -203.5t-221.5 -97.5l-62 146q156 14 156 155q0 63 -20 121z" />
    <glyph glyph-name="uni0323" unicode="&#x323;" horiz-adv-x="0" 
d="M115 -408h-230v250h230v-250z" />
    <glyph glyph-name="uni0324" unicode="&#x324;" horiz-adv-x="0" 
d="M-113 -385h-204v242h204v-242zM317 -385h-204v242h204v-242z" />
    <glyph glyph-name="uni0326" unicode="&#x326;" horiz-adv-x="0" 
d="M-47 -150h197q0 -99 -30 -212.5t-83 -180.5h-187q103 197 103 393z" />
    <glyph glyph-name="uni0327" unicode="&#x327;" horiz-adv-x="0" 
d="M-225 -494v132q82 -19 145 -19q137 0 137 72q0 27 -18.5 45t-56 27t-76 12t-96.5 4v59l155 182l152 -20l-92 -111q29 -4 56.5 -11.5t58.5 -22.5t53.5 -35.5t37.5 -52t15 -70.5q0 -62 -28 -106.5t-75.5 -66.5t-94.5 -31t-99 -9q-101 0 -174 22z" />
    <glyph glyph-name="uni0328" unicode="&#x328;" horiz-adv-x="0" 
d="M233 -299v-160q-65 -33 -178 -33q-126 0 -195 63.5t-69 172.5q0 79 44 155.5t112 131.5l168 -31q-125 -104 -125 -207q0 -54 33 -82t92 -28q65 0 118 18z" />
    <glyph glyph-name="uni032E" unicode="&#x32e;" horiz-adv-x="0" 
d="M182 -129h162q-20 -140 -107.5 -228.5t-238.5 -88.5q-85 0 -151 26.5t-105.5 72.5t-60.5 100.5t-25 117.5h162q16 -72 61 -115t119 -43q46 0 79.5 13t54 37.5t31 49t19.5 58.5z" />
    <glyph glyph-name="uni0331" unicode="&#x331;" horiz-adv-x="0" 
d="M-315 -352v164h628v-164h-628z" />
    <glyph glyph-name="pi" unicode="&#x3c0;" horiz-adv-x="1261" 
d="M178 0v868q-129 0 -184 -6l2 166q75 14 336 14h905v-176h-170v-866h-229v868h-437v-868h-223z" />
    <glyph glyph-name="uni1E0C" unicode="&#x1e0c;" horiz-adv-x="1669" 
d="M807 0h-606v1452h612q173 0 315.5 -54.5t236 -149.5t144 -222.5t50.5 -275.5q0 -171 -58.5 -313t-160 -237t-239 -147.5t-294.5 -52.5zM442 1257v-1062h322q263 0 401 147.5t138 400.5q0 239 -140.5 376.5t-384.5 137.5h-336zM874 -408h-229v250h229v-250z" />
    <glyph glyph-name="uni1E0D" unicode="&#x1e0d;" horiz-adv-x="1353" 
d="M1198 0h-223q-8 55 -8 150q-19 -30 -37.5 -52t-50.5 -47.5t-69 -41.5t-93.5 -27t-124.5 -11q-224 0 -365 151.5t-141 389.5q0 125 45.5 232t120 177.5t170 110t196.5 39.5q252 0 349 -147v612h229v-1235q0 -201 2 -301zM647 158q166 0 247 97.5t81 268.5q0 174 -75 267.5
t-249 93.5q-106 0 -182.5 -54t-111.5 -136t-35 -179q0 -70 21.5 -133.5t61 -114t102.5 -80.5t140 -30zM793 -408h-230v250h230v-250z" />
    <glyph glyph-name="uni1E0E" unicode="&#x1e0e;" horiz-adv-x="1669" 
d="M807 0h-606v1452h612q173 0 315.5 -54.5t236 -149.5t144 -222.5t50.5 -275.5q0 -171 -58.5 -313t-160 -237t-239 -147.5t-294.5 -52.5zM442 1257v-1062h322q263 0 401 147.5t138 400.5q0 239 -140.5 376.5t-384.5 137.5h-336zM457 -352v164h628v-164h-628z" />
    <glyph glyph-name="uni1E0F" unicode="&#x1e0f;" horiz-adv-x="1353" 
d="M1198 0h-223q-8 55 -8 150q-19 -30 -37.5 -52t-50.5 -47.5t-69 -41.5t-93.5 -27t-124.5 -11q-224 0 -365 151.5t-141 389.5q0 125 45.5 232t120 177.5t170 110t196.5 39.5q252 0 349 -147v612h229v-1235q0 -201 2 -301zM647 158q166 0 247 97.5t81 268.5q0 174 -75 267.5
t-249 93.5q-106 0 -182.5 -54t-111.5 -136t-35 -179q0 -70 21.5 -133.5t61 -114t102.5 -80.5t140 -30zM362 -352v164h629v-164h-629z" />
    <glyph glyph-name="uni1E20" unicode="&#x1e20;" horiz-adv-x="1726" 
d="M891 608v195h676v-803h-181q-13 59 -18 199q-76 -115 -196.5 -172.5t-323.5 -57.5q-170 0 -309 55t-232.5 154t-144.5 238t-51 305q0 160 53.5 299t151.5 242t246.5 162t328.5 59q159 0 284.5 -38.5t204.5 -104t126 -140.5t67 -160h-246q-20 50 -52 91t-82.5 78.5
t-128.5 59t-175 21.5q-127 0 -227.5 -43t-164.5 -119t-98 -176.5t-34 -218.5q0 -166 58 -293.5t177.5 -202.5t286.5 -75q216 0 331 105.5t115 301.5v39h-442zM532 1659v162h672v-162h-672z" />
    <glyph glyph-name="uni1E21" unicode="&#x1e21;" horiz-adv-x="1351" 
d="M96 -121h232q27 -84 95.5 -133t209.5 -49q83 0 143.5 21.5t96.5 57t57.5 91.5t29 114.5t7.5 135.5v53q-51 -91 -140 -138.5t-241 -47.5q-145 0 -260 70t-177.5 189t-62.5 265q0 122 42 227.5t113 178.5t167 115t202 42q83 0 149 -17t106.5 -45t64.5 -56.5t37 -59.5
q0 105 6 149h221q-2 -102 -2 -303v-608q0 -150 -29 -259.5t-94 -190.5t-177 -121.5t-271 -40.5q-120 0 -214.5 27t-148 65t-91 90.5t-51 93.5t-20.5 84zM643 170q156 0 242 92.5t86 265.5q0 169 -83 262t-235 93q-108 0 -185.5 -53.5t-113 -135t-35.5 -178.5q0 -150 90 -248
t234 -98zM360 1311v164h629v-164h-629z" />
    <glyph glyph-name="uni1E24" unicode="&#x1e24;" horiz-adv-x="1708" 
d="M442 0h-241v1452h241v-578h824v578h241v-1452h-241v676h-824v-676zM969 -408h-230v250h230v-250z" />
    <glyph glyph-name="uni1E25" unicode="&#x1e25;" horiz-adv-x="1320" 
d="M160 0v1536h227v-668q17 33 41.5 63t67.5 64.5t112 55t154 20.5q187 0 293 -112.5t106 -329.5v-629h-229v596q0 287 -242 287q-148 0 -224.5 -102.5t-76.5 -270.5v-510h-229zM774 -408h-229v250h229v-250z" />
    <glyph glyph-name="uni1E2A" unicode="&#x1e2a;" horiz-adv-x="1708" 
d="M442 0h-241v1452h241v-578h824v578h241v-1452h-241v676h-824v-676zM1036 -129h162q-20 -140 -107.5 -228.5t-238.5 -88.5q-85 0 -151 26.5t-105.5 72.5t-60.5 100.5t-25 117.5h162q16 -72 61 -115t119 -43q46 0 79.5 13t54 37.5t31 49t19.5 58.5z" />
    <glyph glyph-name="uni1E2B" unicode="&#x1e2b;" horiz-adv-x="1320" 
d="M160 0v1536h227v-668q17 33 41.5 63t67.5 64.5t112 55t154 20.5q187 0 293 -112.5t106 -329.5v-629h-229v596q0 287 -242 287q-148 0 -224.5 -102.5t-76.5 -270.5v-510h-229zM842 -129h162q-20 -140 -107.5 -228.5t-239.5 -88.5q-85 0 -151 26.5t-105.5 72.5t-60.5 100.5
t-25 117.5h162q16 -72 61 -115t119 -43q87 0 126.5 42.5t58.5 115.5z" />
    <glyph glyph-name="uni1E36" unicode="&#x1e36;" horiz-adv-x="1331" 
d="M440 201h860l-34 -201h-1065v1452h239v-1251zM866 -408h-229v250h229v-250z" />
    <glyph glyph-name="uni1E37" unicode="&#x1e37;" horiz-adv-x="546" 
d="M389 0h-229v1536h229v-1536zM389 -408h-229v250h229v-250z" />
    <glyph glyph-name="uni1E38" unicode="&#x1e38;" horiz-adv-x="1331" 
d="M440 201h860l-34 -201h-1065v1452h239v-1251zM-6 1630v162h672v-162h-672zM866 -408h-229v250h229v-250z" />
    <glyph glyph-name="uni1E39" unicode="&#x1e39;" horiz-adv-x="546" 
d="M389 0h-229v1536h229v-1536zM-41 1675v164h629v-164h-629zM389 -408h-229v250h229v-250z" />
    <glyph glyph-name="uni1E3A" unicode="&#x1e3a;" horiz-adv-x="1331" 
d="M440 201h860l-34 -201h-1065v1452h239v-1251zM424 -352v164h629v-164h-629z" />
    <glyph glyph-name="uni1E3B" unicode="&#x1e3b;" horiz-adv-x="546" 
d="M389 0h-229v1536h229v-1536zM-41 -352v164h629v-164h-629z" />
    <glyph glyph-name="uni1E42" unicode="&#x1e42;" horiz-adv-x="2011" 
d="M201 0v1452h346q31 -79 110.5 -278.5t119 -299t94 -239.5t84.5 -222.5t42 -125.5h2q29 82 104.5 271.5t182 454t174.5 439.5h350v-1452h-235v608q0 490 10 682h-2q-25 -81 -83.5 -237t-113 -295t-151.5 -384t-148 -374h-208q-68 189 -251.5 674t-226.5 614h-2
q23 -318 23 -713v-575h-221zM1100 -408h-230v250h230v-250z" />
    <glyph glyph-name="uni1E43" unicode="&#x1e43;" horiz-adv-x="1927" 
d="M387 0h-227v772q0 180 -2 270h219q8 -57 8 -149q110 178 332 178q239 0 317 -192q123 192 357 192q168 0 272 -106t104 -324v-641h-225v633q0 38 -5 71t-19.5 67.5t-37 59.5t-61 40.5t-88.5 15.5q-119 0 -186.5 -80t-67.5 -236v-571h-225v639q0 50 -9.5 90.5t-32 78
t-66 58.5t-105.5 21q-129 0 -190.5 -88.5t-61.5 -237.5v-561zM1079 -408h-229v250h229v-250z" />
    <glyph glyph-name="uni1E44" unicode="&#x1e44;" horiz-adv-x="1728" 
d="M424 0h-223v1452h286q138 -198 337.5 -469.5t326 -446t162.5 -241.5h4q-12 154 -12 655v502h223v-1452h-271q-196 270 -485 683t-354 525h-4q10 -184 10 -647v-561zM981 1614h-229v241h229v-241z" />
    <glyph glyph-name="uni1E45" unicode="&#x1e45;" horiz-adv-x="1320" 
d="M389 0h-229v778q0 186 -2 264h223q3 -30 8 -180q19 39 47 73t71.5 66t108 51t142.5 19q188 0 295.5 -113t107.5 -321v-637h-229v596q0 63 -13 113t-40.5 90t-76 62t-114.5 22q-147 0 -223 -101t-76 -278v-504zM780 1294h-229v242h229v-242z" />
    <glyph glyph-name="uni1E46" unicode="&#x1e46;" horiz-adv-x="1728" 
d="M424 0h-223v1452h286q138 -198 337.5 -469.5t326 -446t162.5 -241.5h4q-12 154 -12 655v502h223v-1452h-271q-196 270 -485 683t-354 525h-4q10 -184 10 -647v-561zM979 -408h-229v250h229v-250z" />
    <glyph glyph-name="uni1E47" unicode="&#x1e47;" horiz-adv-x="1320" 
d="M389 0h-229v778q0 186 -2 264h223q3 -30 8 -180q19 39 47 73t71.5 66t108 51t142.5 19q188 0 295.5 -113t107.5 -321v-637h-229v596q0 63 -13 113t-40.5 90t-76 62t-114.5 22q-147 0 -223 -101t-76 -278v-504zM774 -408h-229v250h229v-250z" />
    <glyph glyph-name="uni1E48" unicode="&#x1e48;" horiz-adv-x="1728" 
d="M424 0h-223v1452h286q138 -198 337.5 -469.5t326 -446t162.5 -241.5h4q-12 154 -12 655v502h223v-1452h-271q-196 270 -485 683t-354 525h-4q10 -184 10 -647v-561zM549 -352v164h629v-164h-629z" />
    <glyph glyph-name="uni1E49" unicode="&#x1e49;" horiz-adv-x="1320" 
d="M389 0h-229v778q0 186 -2 264h223q3 -30 8 -180q19 39 47 73t71.5 66t108 51t142.5 19q188 0 295.5 -113t107.5 -321v-637h-229v596q0 63 -13 113t-40.5 90t-76 62t-114.5 22q-147 0 -223 -101t-76 -278v-504zM344 -352v164h629v-164h-629z" />
    <glyph glyph-name="uni1E5A" unicode="&#x1e5a;" horiz-adv-x="1550" 
d="M203 0v1452h717q232 0 367.5 -105t135.5 -294q0 -133 -67.5 -222t-194.5 -124q223 -65 223 -351v-65q0 -224 17 -291h-246q-4 12 -7.5 26.5t-5.5 27.5t-3.5 34.5t-2 34.5t-1 41t-0.5 40.5v46.5v46v49q0 150 -69 207t-251 57h-375v-610h-237zM440 1262v-461h420
q160 0 238 57.5t78 177.5q0 226 -310 226h-426zM889 -408h-230v250h230v-250z" />
    <glyph glyph-name="uni1E5B" unicode="&#x1e5b;" horiz-adv-x="843" 
d="M389 0h-229v758q0 190 -2 284h223q8 -66 8 -229q51 121 158.5 190t257.5 66v-215q-188 3 -302 -105.5t-114 -326.5v-422zM391 -408h-229v250h229v-250z" />
    <glyph glyph-name="uni1E5C" unicode="&#x1e5c;" horiz-adv-x="1550" 
d="M203 0v1452h717q232 0 367.5 -105t135.5 -294q0 -133 -67.5 -222t-194.5 -124q223 -65 223 -351v-65q0 -224 17 -291h-246q-4 12 -7.5 26.5t-5.5 27.5t-3.5 34.5t-2 34.5t-1 41t-0.5 40.5v46.5v46v49q0 150 -69 207t-251 57h-375v-610h-237zM440 1262v-461h420
q160 0 238 57.5t78 177.5q0 226 -310 226h-426zM436 1630v162h672v-162h-672zM885 -408h-230v250h230v-250z" />
    <glyph glyph-name="uni1E5D" unicode="&#x1e5d;" horiz-adv-x="843" 
d="M389 0h-229v758q0 190 -2 284h223q8 -66 8 -229q51 121 158.5 190t257.5 66v-215q-188 3 -302 -105.5t-114 -326.5v-422zM158 1311v164h628v-164h-628zM391 -408h-229v250h229v-250z" />
    <glyph glyph-name="uni1E5E" unicode="&#x1e5e;" horiz-adv-x="1550" 
d="M203 0v1452h717q232 0 367.5 -105t135.5 -294q0 -133 -67.5 -222t-194.5 -124q223 -65 223 -351v-65q0 -224 17 -291h-246q-4 12 -7.5 26.5t-5.5 27.5t-3.5 34.5t-2 34.5t-1 41t-0.5 40.5v46.5v46v49q0 150 -69 207t-251 57h-375v-610h-237zM440 1262v-461h420
q160 0 238 57.5t78 177.5q0 226 -310 226h-426zM469 -352v164h629v-164h-629z" />
    <glyph glyph-name="uni1E5F" unicode="&#x1e5f;" horiz-adv-x="843" 
d="M389 0h-229v758q0 190 -2 284h223q8 -66 8 -229q51 121 158.5 190t257.5 66v-215q-188 3 -302 -105.5t-114 -326.5v-422zM-27 -352v164h629v-164h-629z" />
    <glyph glyph-name="uni1E60" unicode="&#x1e60;" horiz-adv-x="1495" 
d="M1331 1081h-241q-11 34 -22.5 58.5t-39 56.5t-65 52t-102 34t-148.5 14q-152 0 -237 -51t-85 -149q0 -45 14.5 -76.5t54.5 -61t115 -52t191 -42.5q155 -27 267 -64t179 -78t105.5 -94.5t51.5 -104.5t13 -117q0 -91 -37.5 -168.5t-112 -138.5t-199.5 -95.5t-288 -34.5
q-300 0 -465.5 123t-201.5 334h244q26 -84 75 -141.5t142 -93t225 -35.5q193 0 282 61.5t89 163.5q0 53 -18 91t-65 72.5t-133 61t-219 49.5q-166 28 -277 68.5t-171 95t-83.5 114t-23.5 138.5q0 128 77 223t205.5 142t291.5 47q137 0 245.5 -28t173 -69.5t108.5 -98
t62 -106t23 -100.5zM864 1614h-229v241h229v-241z" />
    <glyph glyph-name="uni1E61" unicode="&#x1e61;" horiz-adv-x="1163" 
d="M1044 756h-227q-36 151 -266 151q-118 0 -164.5 -39t-46.5 -90q0 -38 20 -61.5t80.5 -44t171.5 -35.5q117 -16 202 -41.5t135.5 -55.5t80 -70t39.5 -78.5t10 -88.5q0 -150 -121 -241t-368 -91q-224 0 -360 90.5t-162 255.5h229q52 -178 307 -178q248 0 248 146
q0 43 -22 71t-89.5 51.5t-189.5 38.5q-108 14 -188.5 39t-127.5 54.5t-75 67.5t-37.5 73t-9.5 78q0 44 13.5 86t47 84t83.5 73t129 50.5t177 19.5q104 0 187.5 -20.5t135.5 -52.5t87.5 -75t51 -83.5t19.5 -83.5zM696 1294h-229v242h229v-242z" />
    <glyph glyph-name="uni1E62" unicode="&#x1e62;" horiz-adv-x="1495" 
d="M1331 1081h-241q-11 34 -22.5 58.5t-39 56.5t-65 52t-102 34t-148.5 14q-152 0 -237 -51t-85 -149q0 -45 14.5 -76.5t54.5 -61t115 -52t191 -42.5q155 -27 267 -64t179 -78t105.5 -94.5t51.5 -104.5t13 -117q0 -91 -37.5 -168.5t-112 -138.5t-199.5 -95.5t-288 -34.5
q-300 0 -465.5 123t-201.5 334h244q26 -84 75 -141.5t142 -93t225 -35.5q193 0 282 61.5t89 163.5q0 53 -18 91t-65 72.5t-133 61t-219 49.5q-166 28 -277 68.5t-171 95t-83.5 114t-23.5 138.5q0 128 77 223t205.5 142t291.5 47q137 0 245.5 -28t173 -69.5t108.5 -98
t62 -106t23 -100.5zM862 -408h-229v250h229v-250z" />
    <glyph glyph-name="uni1E63" unicode="&#x1e63;" horiz-adv-x="1163" 
d="M1044 756h-227q-36 151 -266 151q-118 0 -164.5 -39t-46.5 -90q0 -38 20 -61.5t80.5 -44t171.5 -35.5q117 -16 202 -41.5t135.5 -55.5t80 -70t39.5 -78.5t10 -88.5q0 -150 -121 -241t-368 -91q-224 0 -360 90.5t-162 255.5h229q52 -178 307 -178q248 0 248 146
q0 43 -22 71t-89.5 51.5t-189.5 38.5q-108 14 -188.5 39t-127.5 54.5t-75 67.5t-37.5 73t-9.5 78q0 44 13.5 86t47 84t83.5 73t129 50.5t177 19.5q104 0 187.5 -20.5t135.5 -52.5t87.5 -75t51 -83.5t19.5 -83.5zM696 -408h-229v250h229v-250z" />
    <glyph glyph-name="uni1E6C" unicode="&#x1e6c;" horiz-adv-x="1363" 
d="M803 0h-240v1253h-545v199h1328v-199h-543v-1253zM797 -408h-230v250h230v-250z" />
    <glyph glyph-name="uni1E6D" unicode="&#x1e6d;" horiz-adv-x="784" 
d="M236 295v571h-203v176h203v328h229v-328h264v-176h-264v-538q0 -88 28.5 -125t108.5 -37q59 0 98 8v-164q-61 -20 -172 -20q-163 0 -227.5 72.5t-64.5 232.5zM537 -408h-230v250h230v-250z" />
    <glyph glyph-name="uni1E6E" unicode="&#x1e6e;" horiz-adv-x="1363" 
d="M803 0h-240v1253h-545v199h1328v-199h-543v-1253zM367 -352v164h628v-164h-628z" />
    <glyph glyph-name="uni1E6F" unicode="&#x1e6f;" horiz-adv-x="784" 
d="M236 295v571h-203v176h203v328h229v-328h264v-176h-264v-538q0 -88 28.5 -125t108.5 -37q59 0 98 8v-164q-61 -20 -172 -20q-163 0 -227.5 72.5t-64.5 232.5zM117 -352v164h628v-164h-628z" />
    <glyph glyph-name="Wgrave" unicode="&#x1e80;" horiz-adv-x="2215" 
d="M737 0h-258l-442 1452h254q17 -59 69 -236t85.5 -294t76.5 -269t69.5 -260t35.5 -168h2q41 220 362 1227h236q317 -1029 354 -1219h4q42 213 333 1151q14 47 21 68h242l-471 -1452h-262q-306 985 -352 1196h-2q-39 -198 -357 -1196zM586 1876h309l344 -285h-225z" />
    <glyph glyph-name="wgrave" unicode="&#x1e81;" horiz-adv-x="1761" 
d="M371 0l-336 1042h237q201 -678 238 -847h2q34 144 266 847h217q234 -711 260 -837h2q56 231 244 837h225l-352 -1042h-239q-46 142 -107.5 326t-97.5 293.5t-51 164.5h-2q-46 -174 -259 -784h-247zM795 1233l-351 326h271l291 -326h-211z" />
    <glyph glyph-name="Wacute" unicode="&#x1e82;" horiz-adv-x="2215" 
d="M737 0h-258l-442 1452h254q17 -59 69 -236t85.5 -294t76.5 -269t69.5 -260t35.5 -168h2q41 220 362 1227h236q317 -1029 354 -1219h4q42 213 333 1151q14 47 21 68h242l-471 -1452h-262q-306 985 -352 1196h-2q-39 -198 -357 -1196zM969 1591l346 285h303l-416 -285h-233
z" />
    <glyph glyph-name="wacute" unicode="&#x1e83;" horiz-adv-x="1761" 
d="M371 0l-336 1042h237q201 -678 238 -847h2q34 144 266 847h217q234 -711 260 -837h2q56 231 244 837h225l-352 -1042h-239q-46 142 -107.5 326t-97.5 293.5t-51 164.5h-2q-46 -174 -259 -784h-247zM764 1233l283 326h270l-342 -326h-211z" />
    <glyph glyph-name="Wdieresis" unicode="&#x1e84;" horiz-adv-x="2215" 
d="M983 1606h-205v241h205v-241zM1436 1606h-205v241h205v-241zM737 0h-258l-442 1452h254q17 -59 69 -236t85.5 -294t76.5 -269t69.5 -260t35.5 -168h2q41 220 362 1227h236q317 -1029 354 -1219h4q42 213 333 1151q14 47 21 68h242l-471 -1452h-262q-306 985 -352 1196h-2
q-39 -198 -357 -1196z" />
    <glyph glyph-name="wdieresis" unicode="&#x1e85;" horiz-adv-x="1761" 
d="M768 1294h-205v242h205v-242zM1198 1294h-205v242h205v-242zM371 0l-336 1042h237q201 -678 238 -847h2q34 144 266 847h217q234 -711 260 -837h2q56 231 244 837h225l-352 -1042h-239q-46 142 -107.5 326t-97.5 293.5t-51 164.5h-2q-46 -174 -259 -784h-247z" />
    <glyph glyph-name="uni1E8E" unicode="&#x1e8e;" horiz-adv-x="1384" 
d="M813 0h-240v545q0 17 -16 39l-606 868h287q38 -56 165 -242.5t197.5 -294t101.5 -163.5q26 44 84.5 133.5t110.5 167t142 210.5t128 189h267l-611 -877q-10 -17 -10 -34v-541zM809 1595h-229v242h229v-242z" />
    <glyph glyph-name="uni1E8F" unicode="&#x1e8f;" horiz-adv-x="1212" 
d="M117 -469v195q62 -9 110 -9q71 0 117 23t80 70.5t80 144.5l-479 1087h251q274 -646 349 -864h4q139 406 319 864h236l-393 -966q-38 -93 -64 -154t-56 -123t-53.5 -98.5t-54 -71.5t-59.5 -53t-68 -32.5t-81 -19.5t-97 -5q-86 0 -141 12zM719 1294h-230v242h230v-242z" />
    <glyph glyph-name="uni1E92" unicode="&#x1e92;" horiz-adv-x="1425" 
d="M51 0v174l981 1083h-934v195h1243v-186l-968 -1071h1024l-33 -195h-1313zM825 -408h-229v250h229v-250z" />
    <glyph glyph-name="uni1E93" unicode="&#x1e93;" horiz-adv-x="1132" 
d="M70 0v168l692 692h-653v182h944v-174l-680 -686h729l-33 -182h-999zM692 -408h-229v250h229v-250z" />
    <glyph glyph-name="uni1E97" unicode="&#x1e97;" horiz-adv-x="784" 
d="M233 1470h-204v242h204v-242zM664 1470h-205v242h205v-242zM236 295v571h-203v176h203v328h229v-328h264v-176h-264v-538q0 -88 28.5 -125t108.5 -37q59 0 98 8v-164q-61 -20 -172 -20q-163 0 -227.5 72.5t-64.5 232.5z" />
    <glyph glyph-name="uni1E9E" unicode="&#x1e9e;" horiz-adv-x="1599" 
d="M207 0v1038q0 222 158.5 333.5t437.5 111.5q142 0 253 -28t177 -70.5t109.5 -99t59 -108t15.5 -102.5q0 -31 -6 -69l-397 -185v-4l160 -69q189 -85 264 -177t75 -221q0 -177 -129 -278t-368 -101q-133 0 -244.5 35t-177.5 94v232q77 -84 191 -134.5t231 -50.5
q129 0 196.5 49t67.5 134q0 71 -51.5 124.5t-188.5 114.5l-264 117q-48 22 -66 61t-2 79t62 65l404 201q0 81 -96.5 144.5t-270.5 63.5q-92 0 -157 -15t-112.5 -51t-70.5 -98.5t-23 -154.5v-981h-237z" />
    <glyph glyph-name="uni1EA0" unicode="&#x1ea0;" horiz-adv-x="1589" 
d="M18 0l615 1452h297l641 -1452h-260l-183 414h-688l-174 -414h-248zM774 1286h-2q-54 -172 -262 -672h545q-246 564 -281 672zM903 -408h-229v250h229v-250z" />
    <glyph glyph-name="uni1EA1" unicode="&#x1ea1;" horiz-adv-x="1261" 
d="M379 737h-229q4 45 18 87t48 88.5t84.5 80.5t134.5 56t190 22q477 0 477 -364v-441q0 -166 8 -266h-217q-5 20 -12 143q-93 -172 -387 -172q-105 0 -186 30t-127 79.5t-68.5 107t-22.5 119.5q0 78 28 138t76 98t118.5 62.5t148 34t172.5 9.5h244v51q0 43 -10.5 77t-37 64
t-77.5 46t-125 16q-67 0 -114 -13t-73.5 -38.5t-39.5 -51.5t-21 -63zM315 319q0 -77 58 -125.5t172 -48.5q92 0 158.5 24.5t103.5 68.5t53.5 98t16.5 121v37q-29 2 -240 2q-167 0 -244.5 -42t-77.5 -135zM748 -408h-230v250h230v-250z" />
    <glyph glyph-name="uni1EA2" unicode="&#x1ea2;" horiz-adv-x="1589" 
d="M18 0l615 1452h297l641 -1452h-260l-183 414h-688l-174 -414h-248zM774 1286h-2q-54 -172 -262 -672h545q-246 564 -281 672zM598 1782l-43 116q88 62 215 62q106 0 163.5 -50t57.5 -134q0 -45 -20.5 -88t-42 -67.5t-54.5 -53.5h-188q63 55 91 94.5t28 77.5
q0 33 -21 54.5t-63 21.5q-69 0 -123 -33z" />
    <glyph glyph-name="uni1EA3" unicode="&#x1ea3;" horiz-adv-x="1261" 
d="M379 737h-229q4 45 18 87t48 88.5t84.5 80.5t134.5 56t190 22q477 0 477 -364v-441q0 -166 8 -266h-217q-5 20 -12 143q-93 -172 -387 -172q-105 0 -186 30t-127 79.5t-68.5 107t-22.5 119.5q0 78 28 138t76 98t118.5 62.5t148 34t172.5 9.5h244v51q0 43 -10.5 77t-37 64
t-77.5 46t-125 16q-67 0 -114 -13t-73.5 -38.5t-39.5 -51.5t-21 -63zM315 319q0 -77 58 -125.5t172 -48.5q92 0 158.5 24.5t103.5 68.5t53.5 98t16.5 121v37q-29 2 -240 2q-167 0 -244.5 -42t-77.5 -135zM440 1411l-43 117q87 61 215 61q106 0 164 -50t58 -134
q0 -45 -20.5 -88t-42 -67.5t-54.5 -53.5h-189q63 55 91 94.5t28 77.5q0 33 -21 54.5t-63 21.5q-69 0 -123 -33z" />
    <glyph glyph-name="uni1EA4" unicode="&#x1ea4;" horiz-adv-x="1589" 
d="M360 1573l287 266h273l288 -266h-237l-189 162l-182 -162h-240zM1077 1804l236 248h252l-287 -248h-201zM18 0l615 1452h297l641 -1452h-260l-183 414h-688l-174 -414h-248zM774 1286h-2q-54 -172 -262 -672h545q-246 564 -281 672z" />
    <glyph glyph-name="uni1EA5" unicode="&#x1ea5;" horiz-adv-x="1261" 
d="M264 1210l250 281h219l256 -281h-207l-159 170l-154 -170h-205zM868 1446l230 268h229l-274 -268h-185zM379 737h-229q4 45 18 87t48 88.5t84.5 80.5t134.5 56t190 22q477 0 477 -364v-441q0 -166 8 -266h-217q-5 20 -12 143q-93 -172 -387 -172q-105 0 -186 30
t-127 79.5t-68.5 107t-22.5 119.5q0 78 28 138t76 98t118.5 62.5t148 34t172.5 9.5h244v51q0 43 -10.5 77t-37 64t-77.5 46t-125 16q-67 0 -114 -13t-73.5 -38.5t-39.5 -51.5t-21 -63zM315 319q0 -77 58 -125.5t172 -48.5q92 0 158.5 24.5t103.5 68.5t53.5 98t16.5 121v37
q-29 2 -240 2q-167 0 -244.5 -42t-77.5 -135z" />
    <glyph glyph-name="uni1EA6" unicode="&#x1ea6;" horiz-adv-x="1589" 
d="M360 1571l287 266h273l288 -266h-237l-189 162l-182 -162h-240zM1280 1755l-313 252l258 -2l256 -252zM18 0l615 1452h297l641 -1452h-260l-183 414h-688l-174 -414h-248zM774 1286h-2q-54 -172 -262 -672h545q-246 564 -281 672z" />
    <glyph glyph-name="uni1EA7" unicode="&#x1ea7;" horiz-adv-x="1261" 
d="M264 1214l250 281h219l256 -281h-207l-159 170l-154 -170h-205zM1030 1427l-278 275h227l225 -275h-174zM379 737h-229q4 45 18 87t48 88.5t84.5 80.5t134.5 56t190 22q477 0 477 -364v-441q0 -166 8 -266h-217q-5 20 -12 143q-93 -172 -387 -172q-105 0 -186 30
t-127 79.5t-68.5 107t-22.5 119.5q0 78 28 138t76 98t118.5 62.5t148 34t172.5 9.5h244v51q0 43 -10.5 77t-37 64t-77.5 46t-125 16q-67 0 -114 -13t-73.5 -38.5t-39.5 -51.5t-21 -63zM315 319q0 -77 58 -125.5t172 -48.5q92 0 158.5 24.5t103.5 68.5t53.5 98t16.5 121v37
q-29 2 -240 2q-167 0 -244.5 -42t-77.5 -135z" />
    <glyph glyph-name="uni1EA8" unicode="&#x1ea8;" horiz-adv-x="1589" 
d="M360 1571l287 266h273l288 -266h-237l-189 162l-182 -162h-240zM1036 1968l-37 115q83 59 207 59q96 0 150.5 -47t54.5 -127q0 -57 -33 -107.5t-84 -86.5h-176q117 88 117 163q0 30 -20 47t-58 17q-67 0 -121 -33zM18 0l615 1452h297l641 -1452h-260l-183 414h-688
l-174 -414h-248zM774 1286h-2q-54 -172 -262 -672h545q-246 564 -281 672z" />
    <glyph glyph-name="uni1EA9" unicode="&#x1ea9;" horiz-adv-x="1261" 
d="M262 1210l250 281h219l256 -281h-207l-159 170l-154 -170h-205zM811 1616l-43 98q77 66 195 66q94 0 142 -43t48 -121q0 -110 -102 -186h-164q119 91 119 159q0 30 -20 47t-56 17q-69 0 -119 -37zM379 737h-229q4 45 18 87t48 88.5t84.5 80.5t134.5 56t190 22
q477 0 477 -364v-441q0 -166 8 -266h-217q-5 20 -12 143q-93 -172 -387 -172q-105 0 -186 30t-127 79.5t-68.5 107t-22.5 119.5q0 78 28 138t76 98t118.5 62.5t148 34t172.5 9.5h244v51q0 43 -10.5 77t-37 64t-77.5 46t-125 16q-67 0 -114 -13t-73.5 -38.5t-39.5 -51.5
t-21 -63zM315 319q0 -77 58 -125.5t172 -48.5q92 0 158.5 24.5t103.5 68.5t53.5 98t16.5 121v37q-29 2 -240 2q-167 0 -244.5 -42t-77.5 -135z" />
    <glyph glyph-name="uni1EAA" unicode="&#x1eaa;" horiz-adv-x="1589" 
d="M397 1569l267 217h231l272 -217h-233l-156 114l-149 -114h-232zM569 1872h-129v33q0 190 178 190q54 0 114.5 -20.5t112.5 -41t85 -20.5q32 0 48.5 14t16.5 50v18h129v-22q0 -99 -47.5 -150t-132.5 -51q-60 0 -162 42t-145 42q-30 0 -49 -17.5t-19 -52.5v-14zM18 0
l615 1452h297l641 -1452h-260l-183 414h-688l-174 -414h-248zM774 1286h-2q-54 -172 -262 -672h545q-246 564 -281 672z" />
    <glyph glyph-name="uni1EAB" unicode="&#x1eab;" horiz-adv-x="1261" 
d="M434 1489h-129v24q0 100 46.5 147.5t121.5 47.5q54 0 109 -20t99 -40t71 -20q63 0 63 60v16h125v-27q0 -188 -172 -188q-59 0 -148.5 40t-123.5 40q-29 0 -45.5 -16.5t-16.5 -49.5v-14zM268 1188l228 213h249l234 -213h-215l-146 125l-139 -125h-211zM379 737h-229
q4 45 18 87t48 88.5t84.5 80.5t134.5 56t190 22q477 0 477 -364v-441q0 -166 8 -266h-217q-5 20 -12 143q-93 -172 -387 -172q-105 0 -186 30t-127 79.5t-68.5 107t-22.5 119.5q0 78 28 138t76 98t118.5 62.5t148 34t172.5 9.5h244v51q0 43 -10.5 77t-37 64t-77.5 46
t-125 16q-67 0 -114 -13t-73.5 -38.5t-39.5 -51.5t-21 -63zM315 319q0 -77 58 -125.5t172 -48.5q92 0 158.5 24.5t103.5 68.5t53.5 98t16.5 121v37q-29 2 -240 2q-167 0 -244.5 -42t-77.5 -135z" />
    <glyph glyph-name="uni1EAC" unicode="&#x1eac;" horiz-adv-x="1589" 
d="M18 0l615 1452h297l641 -1452h-260l-183 414h-688l-174 -414h-248zM774 1286h-2q-54 -172 -262 -672h545q-246 564 -281 672zM360 1575l291 283h258l293 -283h-229l-195 176l-190 -176h-228zM903 -408h-229v250h229v-250z" />
    <glyph glyph-name="uni1EAD" unicode="&#x1ead;" horiz-adv-x="1261" 
d="M379 737h-229q4 45 18 87t48 88.5t84.5 80.5t134.5 56t190 22q477 0 477 -364v-441q0 -166 8 -266h-217q-5 20 -12 143q-93 -172 -387 -172q-105 0 -186 30t-127 79.5t-68.5 107t-22.5 119.5q0 78 28 138t76 98t118.5 62.5t148 34t172.5 9.5h244v51q0 43 -10.5 77t-37 64
t-77.5 46t-125 16q-67 0 -114 -13t-73.5 -38.5t-39.5 -51.5t-21 -63zM315 319q0 -77 58 -125.5t172 -48.5q92 0 158.5 24.5t103.5 68.5t53.5 98t16.5 121v37q-29 2 -240 2q-167 0 -244.5 -42t-77.5 -135zM252 1225l268 327h225l267 -327h-207l-174 211l-170 -211h-209z
M756 -408h-230v250h230v-250z" />
    <glyph glyph-name="uni1EAE" unicode="&#x1eae;" horiz-adv-x="1589" 
d="M971 1827h166q-29 -119 -120 -189.5t-237 -70.5q-155 0 -245 76.5t-109 183.5h168q43 -113 186 -113q145 0 191 113zM672 1884l227 238h246l-281 -238h-192zM18 0l615 1452h297l641 -1452h-260l-183 414h-688l-174 -414h-248zM774 1286h-2q-54 -172 -262 -672h545
q-246 564 -281 672z" />
    <glyph glyph-name="uni1EAF" unicode="&#x1eaf;" horiz-adv-x="1261" 
d="M807 1442h158q-27 -118 -109.5 -189t-224.5 -71q-76 0 -137 22.5t-99.5 61t-61.5 82.5t-32 94h160q43 -117 172 -117q78 0 117 32.5t57 84.5zM526 1497l222 238h223l-262 -238h-183zM379 737h-229q4 45 18 87t48 88.5t84.5 80.5t134.5 56t190 22q477 0 477 -364v-441
q0 -166 8 -266h-217q-5 20 -12 143q-93 -172 -387 -172q-105 0 -186 30t-127 79.5t-68.5 107t-22.5 119.5q0 78 28 138t76 98t118.5 62.5t148 34t172.5 9.5h244v51q0 43 -10.5 77t-37 64t-77.5 46t-125 16q-67 0 -114 -13t-73.5 -38.5t-39.5 -51.5t-21 -63zM315 319
q0 -77 58 -125.5t172 -48.5q92 0 158.5 24.5t103.5 68.5t53.5 98t16.5 121v37q-29 2 -240 2q-167 0 -244.5 -42t-77.5 -135z" />
    <glyph glyph-name="uni1EB0" unicode="&#x1eb0;" horiz-adv-x="1589" 
d="M707 1884l-285 238h246l227 -238h-188zM971 1827h166q-29 -119 -120 -189.5t-237 -70.5q-155 0 -245 76.5t-109 183.5h168q43 -113 186 -113q145 0 191 113zM18 0l615 1452h297l641 -1452h-260l-183 414h-688l-174 -414h-248zM774 1286h-2q-54 -172 -262 -672h545
q-246 564 -281 672z" />
    <glyph glyph-name="uni1EB1" unicode="&#x1eb1;" horiz-adv-x="1261" 
d="M559 1501l-266 238h225l221 -238h-180zM805 1446h158q-27 -118 -109.5 -189t-224.5 -71q-76 0 -137 22.5t-99.5 61t-61.5 82.5t-32 94h160q43 -117 172 -117q78 0 117 32.5t57 84.5zM379 737h-229q4 45 18 87t48 88.5t84.5 80.5t134.5 56t190 22q477 0 477 -364v-441
q0 -166 8 -266h-217q-5 20 -12 143q-93 -172 -387 -172q-105 0 -186 30t-127 79.5t-68.5 107t-22.5 119.5q0 78 28 138t76 98t118.5 62.5t148 34t172.5 9.5h244v51q0 43 -10.5 77t-37 64t-77.5 46t-125 16q-67 0 -114 -13t-73.5 -38.5t-39.5 -51.5t-21 -63zM315 319
q0 -77 58 -125.5t172 -48.5q92 0 158.5 24.5t103.5 68.5t53.5 98t16.5 121v37q-29 2 -240 2q-167 0 -244.5 -42t-77.5 -135z" />
    <glyph glyph-name="uni1EB2" unicode="&#x1eb2;" horiz-adv-x="1589" 
d="M618 2025l-45 97q81 65 197 65q86 0 136 -44.5t50 -114.5q0 -98 -98 -175h-162q111 86 111 150q0 59 -76 59q-49 0 -113 -37zM987 1812h158q-12 -48 -38.5 -90.5t-69.5 -80t-108.5 -60t-146.5 -22.5q-88 0 -157.5 26t-109.5 67.5t-61.5 81t-29.5 78.5h166q19 -46 71 -78
t123 -32q149 0 203 110zM18 0l615 1452h297l641 -1452h-260l-183 414h-688l-174 -414h-248zM774 1286h-2q-54 -172 -262 -672h545q-246 564 -281 672z" />
    <glyph glyph-name="uni1EB3" unicode="&#x1eb3;" horiz-adv-x="1261" 
d="M469 1640l-35 101q81 63 187 63q90 0 138 -42t48 -117q0 -54 -30.5 -99.5t-78.5 -77.5h-161q112 83 112 148q0 59 -71 59q-55 0 -109 -35zM805 1442h158q-27 -118 -109.5 -189t-224.5 -71q-76 0 -137 22.5t-99.5 61t-61.5 82.5t-32 94h160q43 -117 172 -117
q78 0 117 32.5t57 84.5zM379 737h-229q4 45 18 87t48 88.5t84.5 80.5t134.5 56t190 22q477 0 477 -364v-441q0 -166 8 -266h-217q-5 20 -12 143q-93 -172 -387 -172q-105 0 -186 30t-127 79.5t-68.5 107t-22.5 119.5q0 78 28 138t76 98t118.5 62.5t148 34t172.5 9.5h244v51
q0 43 -10.5 77t-37 64t-77.5 46t-125 16q-67 0 -114 -13t-73.5 -38.5t-39.5 -51.5t-21 -63zM315 319q0 -77 58 -125.5t172 -48.5q92 0 158.5 24.5t103.5 68.5t53.5 98t16.5 121v37q-29 2 -240 2q-167 0 -244.5 -42t-77.5 -135z" />
    <glyph glyph-name="uni1EB4" unicode="&#x1eb4;" horiz-adv-x="1589" 
d="M975 1776h147q-27 -90 -110 -151.5t-230 -61.5q-77 0 -140 20.5t-102 53.5t-62.5 68t-33.5 71h152q19 -36 68.5 -61t119.5 -25q149 0 191 86zM573 1866h-124v22q0 176 169 176q67 0 178 -37.5t140 -37.5q32 0 47.5 11.5t15.5 45.5v16h125v-20q0 -91 -47 -134.5
t-125 -43.5q-58 0 -169 40t-146 40q-28 0 -46 -16.5t-18 -49.5v-12zM18 0l615 1452h297l641 -1452h-260l-183 414h-688l-174 -414h-248zM774 1286h-2q-54 -172 -262 -672h545q-246 564 -281 672z" />
    <glyph glyph-name="uni1EB5" unicode="&#x1eb5;" horiz-adv-x="1261" 
d="M807 1417h158q-27 -104 -110.5 -170.5t-223.5 -66.5q-75 0 -135.5 20.5t-99 55.5t-62 75t-33.5 86h160q40 -96 172 -96t174 96zM444 1509h-129v25q0 100 46.5 147.5t121.5 47.5q54 0 109 -20t99 -40t71 -20q30 0 46.5 12.5t16.5 46.5v16h125v-26q0 -189 -172 -189
q-59 0 -148.5 40t-123.5 40q-62 0 -62 -65v-15zM379 737h-229q4 45 18 87t48 88.5t84.5 80.5t134.5 56t190 22q477 0 477 -364v-441q0 -166 8 -266h-217q-5 20 -12 143q-93 -172 -387 -172q-105 0 -186 30t-127 79.5t-68.5 107t-22.5 119.5q0 78 28 138t76 98t118.5 62.5
t148 34t172.5 9.5h244v51q0 43 -10.5 77t-37 64t-77.5 46t-125 16q-67 0 -114 -13t-73.5 -38.5t-39.5 -51.5t-21 -63zM315 319q0 -77 58 -125.5t172 -48.5q92 0 158.5 24.5t103.5 68.5t53.5 98t16.5 121v37q-29 2 -240 2q-167 0 -244.5 -42t-77.5 -135z" />
    <glyph glyph-name="uni1EB6" unicode="&#x1eb6;" horiz-adv-x="1589" 
d="M18 0l615 1452h297l641 -1452h-260l-183 414h-688l-174 -414h-248zM774 1286h-2q-54 -172 -262 -672h545q-246 564 -281 672zM985 1868h162q-20 -124 -112.5 -205.5t-250.5 -81.5q-71 0 -130.5 17.5t-99 46t-68.5 67t-43.5 77t-18.5 79.5h166q15 -60 67 -95.5t129 -35.5
q156 0 199 131zM903 -408h-229v250h229v-250z" />
    <glyph glyph-name="uni1EB7" unicode="&#x1eb7;" horiz-adv-x="1261" 
d="M379 737h-229q4 45 18 87t48 88.5t84.5 80.5t134.5 56t190 22q477 0 477 -364v-441q0 -166 8 -266h-217q-5 20 -12 143q-93 -172 -387 -172q-105 0 -186 30t-127 79.5t-68.5 107t-22.5 119.5q0 78 28 138t76 98t118.5 62.5t148 34t172.5 9.5h244v51q0 43 -10.5 77t-37 64
t-77.5 46t-125 16q-67 0 -114 -13t-73.5 -38.5t-39.5 -51.5t-21 -63zM315 319q0 -77 58 -125.5t172 -48.5q92 0 158.5 24.5t103.5 68.5t53.5 98t16.5 121v37q-29 2 -240 2q-167 0 -244.5 -42t-77.5 -135zM815 1540h162q-20 -140 -107.5 -228.5t-238.5 -88.5q-85 0 -151 26.5
t-105.5 72.5t-60.5 100.5t-25 117.5h162q16 -72 61 -115t119 -43q46 0 79.5 13t54 37.5t31 49t19.5 58.5zM748 -408h-230v250h230v-250z" />
    <glyph glyph-name="uni1EB8" unicode="&#x1eb8;" horiz-adv-x="1464" 
d="M201 0v1452h1142v-199h-901v-393h856v-198h-856v-463h947l-31 -199h-1157zM899 -408h-229v250h229v-250z" />
    <glyph glyph-name="uni1EB9" unicode="&#x1eb9;" horiz-adv-x="1257" 
d="M934 301h229q-23 -65 -62.5 -120.5t-101 -104.5t-154 -77t-206.5 -28q-112 0 -205.5 31t-157 83t-107 123t-63.5 148.5t-20 161.5q0 155 65 280t191 199t293 74q115 0 208.5 -32.5t154.5 -85.5t102.5 -125t59.5 -148t18 -156v-57h-863q8 -140 97.5 -228.5t234.5 -88.5
q110 0 178 38.5t109 112.5zM633 899q-144 0 -222.5 -77t-91.5 -201h623q-3 49 -18.5 93t-48 88t-95 70.5t-147.5 26.5zM741 -408h-229v250h229v-250z" />
    <glyph glyph-name="uni1EBA" unicode="&#x1eba;" horiz-adv-x="1464" 
d="M201 0v1452h1142v-199h-901v-393h856v-198h-856v-463h947l-31 -199h-1157zM596 1792l-43 117q87 61 215 61q106 0 163.5 -50t57.5 -134q0 -45 -20.5 -88t-42 -67.5t-54.5 -53.5h-188q63 55 91 94.5t28 77.5q0 33 -21 54.5t-63 21.5q-69 0 -123 -33z" />
    <glyph glyph-name="uni1EBB" unicode="&#x1ebb;" horiz-adv-x="1257" 
d="M934 301h229q-23 -65 -62.5 -120.5t-101 -104.5t-154 -77t-206.5 -28q-112 0 -205.5 31t-157 83t-107 123t-63.5 148.5t-20 161.5q0 155 65 280t191 199t293 74q115 0 208.5 -32.5t154.5 -85.5t102.5 -125t59.5 -148t18 -156v-57h-863q8 -140 97.5 -228.5t234.5 -88.5
q110 0 178 38.5t109 112.5zM633 899q-144 0 -222.5 -77t-91.5 -201h623q-3 49 -18.5 93t-48 88t-95 70.5t-147.5 26.5zM451 1411l-43 117q87 61 215 61q106 0 163.5 -50t57.5 -134q0 -45 -20.5 -88t-42 -67.5t-54.5 -53.5h-188q62 54 90 93.5t28 78.5q0 33 -21 54.5
t-63 21.5q-68 0 -122 -33z" />
    <glyph glyph-name="uni1EBC" unicode="&#x1ebc;" horiz-adv-x="1464" 
d="M201 0v1452h1142v-199h-901v-393h856v-198h-856v-463h947l-31 -199h-1157zM549 1614h-156v51q0 227 195 227q59 0 129 -28t130.5 -56t94.5 -28t50 19.5t16 72.5v22h151v-43q0 -132 -49 -186.5t-137 -54.5q-58 0 -129 29t-134 58t-102 29q-59 0 -59 -81v-31z" />
    <glyph glyph-name="uni1EBD" unicode="&#x1ebd;" horiz-adv-x="1257" 
d="M934 301h229q-23 -65 -62.5 -120.5t-101 -104.5t-154 -77t-206.5 -28q-112 0 -205.5 31t-157 83t-107 123t-63.5 148.5t-20 161.5q0 155 65 280t191 199t293 74q115 0 208.5 -32.5t154.5 -85.5t102.5 -125t59.5 -148t18 -156v-57h-863q8 -140 97.5 -228.5t234.5 -88.5
q110 0 178 38.5t109 112.5zM633 899q-144 0 -222.5 -77t-91.5 -201h623q-3 49 -18.5 93t-48 88t-95 70.5t-147.5 26.5zM418 1243h-148v55q0 121 50 171.5t137 50.5q57 0 118 -28t112 -55.5t85 -27.5q33 0 49.5 20.5t16.5 73.5v23h143v-49q0 -129 -48 -182.5t-138 -53.5
q-57 0 -116.5 28.5t-110 56.5t-87.5 28q-63 0 -63 -74v-37z" />
    <glyph glyph-name="uni1EBE" unicode="&#x1ebe;" horiz-adv-x="1464" 
d="M340 1585l287 266h272l289 -266h-238l-188 162l-182 -162h-240zM1057 1817l235 247h252l-287 -247h-200zM201 0v1452h1142v-199h-901v-393h856v-198h-856v-463h947l-31 -199h-1157z" />
    <glyph glyph-name="uni1EBF" unicode="&#x1ebf;" horiz-adv-x="1257" 
d="M272 1210l250 281h219l256 -281h-206l-160 170l-154 -170h-205zM877 1446l229 268h229l-274 -268h-184zM934 301h229q-23 -65 -62.5 -120.5t-101 -104.5t-154 -77t-206.5 -28q-112 0 -205.5 31t-157 83t-107 123t-63.5 148.5t-20 161.5q0 155 65 280t191 199t293 74
q115 0 208.5 -32.5t154.5 -85.5t102.5 -125t59.5 -148t18 -156v-57h-863q8 -140 97.5 -228.5t234.5 -88.5q110 0 178 38.5t109 112.5zM633 899q-144 0 -222.5 -77t-91.5 -201h623q-3 49 -18.5 93t-48 88t-95 70.5t-147.5 26.5z" />
    <glyph glyph-name="uni1EC0" unicode="&#x1ec0;" horiz-adv-x="1464" 
d="M340 1583l287 266h272l289 -266h-238l-188 162l-182 -162h-240zM1260 1767l-314 252l258 -2l256 -252zM201 0v1452h1142v-199h-901v-393h856v-198h-856v-463h947l-31 -199h-1157z" />
    <glyph glyph-name="uni1EC1" unicode="&#x1ec1;" horiz-adv-x="1257" 
d="M272 1210l250 281h219l256 -281h-206l-160 170l-154 -170h-205zM1038 1423l-278 275h227l225 -275h-174zM934 301h229q-23 -65 -62.5 -120.5t-101 -104.5t-154 -77t-206.5 -28q-112 0 -205.5 31t-157 83t-107 123t-63.5 148.5t-20 161.5q0 155 65 280t191 199t293 74
q115 0 208.5 -32.5t154.5 -85.5t102.5 -125t59.5 -148t18 -156v-57h-863q8 -140 97.5 -228.5t234.5 -88.5q110 0 178 38.5t109 112.5zM633 899q-144 0 -222.5 -77t-91.5 -201h623q-3 49 -18.5 93t-48 88t-95 70.5t-147.5 26.5z" />
    <glyph glyph-name="uni1EC2" unicode="&#x1ec2;" horiz-adv-x="1464" 
d="M340 1581l287 266h272l289 -266h-238l-188 162l-182 -162h-240zM1016 1978l-37 115q83 59 207 59q96 0 150.5 -47t54.5 -127q0 -57 -33 -107.5t-84 -86.5h-176q116 87 116 164q0 63 -77 63q-67 0 -121 -33zM201 0v1452h1142v-199h-901v-393h856v-198h-856v-463h947
l-31 -199h-1157z" />
    <glyph glyph-name="uni1EC3" unicode="&#x1ec3;" horiz-adv-x="1257" 
d="M274 1210l250 281h219l256 -281h-206l-160 170l-154 -170h-205zM823 1616l-43 98q77 66 195 66q94 0 142 -43t48 -121q0 -110 -102 -186h-164q119 91 119 159q0 30 -20 47t-56 17q-69 0 -119 -37zM934 301h229q-23 -65 -62.5 -120.5t-101 -104.5t-154 -77t-206.5 -28
q-112 0 -205.5 31t-157 83t-107 123t-63.5 148.5t-20 161.5q0 155 65 280t191 199t293 74q115 0 208.5 -32.5t154.5 -85.5t102.5 -125t59.5 -148t18 -156v-57h-863q8 -140 97.5 -228.5t234.5 -88.5q110 0 178 38.5t109 112.5zM633 899q-144 0 -222.5 -77t-91.5 -201h623
q-3 49 -18.5 93t-48 88t-95 70.5t-147.5 26.5z" />
    <glyph glyph-name="uni1EC4" unicode="&#x1ec4;" horiz-adv-x="1464" 
d="M387 1575l266 217h232l272 -217h-233l-156 115l-150 -115h-231zM559 1878h-129v33q0 190 178 190q54 0 114.5 -20.5t112.5 -41t85 -20.5q32 0 48.5 14t16.5 50v18h129v-22q0 -99 -47.5 -150t-132.5 -51q-60 0 -162 42t-145 42q-30 0 -49 -17.5t-19 -52.5v-14zM201 0v1452
h1142v-199h-901v-393h856v-198h-856v-463h947l-31 -199h-1157z" />
    <glyph glyph-name="uni1EC5" unicode="&#x1ec5;" horiz-adv-x="1257" 
d="M442 1489h-129v24q0 100 46.5 147.5t121.5 47.5q54 0 109 -20t99 -40t71 -20q63 0 63 60v16h125v-27q0 -188 -172 -188q-59 0 -148.5 40t-123.5 40q-29 0 -45.5 -16.5t-16.5 -49.5v-14zM276 1188l228 213h250l233 -213h-215l-145 125l-140 -125h-211zM934 301h229
q-23 -65 -62.5 -120.5t-101 -104.5t-154 -77t-206.5 -28q-112 0 -205.5 31t-157 83t-107 123t-63.5 148.5t-20 161.5q0 155 65 280t191 199t293 74q115 0 208.5 -32.5t154.5 -85.5t102.5 -125t59.5 -148t18 -156v-57h-863q8 -140 97.5 -228.5t234.5 -88.5q110 0 178 38.5
t109 112.5zM633 899q-144 0 -222.5 -77t-91.5 -201h623q-3 49 -18.5 93t-48 88t-95 70.5t-147.5 26.5z" />
    <glyph glyph-name="uni1EC6" unicode="&#x1ec6;" horiz-adv-x="1464" 
d="M201 0v1452h1142v-199h-901v-393h856v-198h-856v-463h947l-31 -199h-1157zM348 1583l291 283h258l293 -283h-229l-195 176l-191 -176h-227zM909 -408h-229v250h229v-250z" />
    <glyph glyph-name="uni1EC7" unicode="&#x1ec7;" horiz-adv-x="1257" 
d="M934 301h229q-23 -65 -62.5 -120.5t-101 -104.5t-154 -77t-206.5 -28q-112 0 -205.5 31t-157 83t-107 123t-63.5 148.5t-20 161.5q0 155 65 280t191 199t293 74q115 0 208.5 -32.5t154.5 -85.5t102.5 -125t59.5 -148t18 -156v-57h-863q8 -140 97.5 -228.5t234.5 -88.5
q110 0 178 38.5t109 112.5zM633 899q-144 0 -222.5 -77t-91.5 -201h623q-3 49 -18.5 93t-48 88t-95 70.5t-147.5 26.5zM246 1225l268 327h225l267 -327h-207l-174 211l-170 -211h-209zM741 -408h-229v250h229v-250z" />
    <glyph glyph-name="uni1EC8" unicode="&#x1ec8;" horiz-adv-x="643" 
d="M201 0v1452h241v-1452h-241zM137 1782l-43 116q88 62 215 62q106 0 163.5 -50t57.5 -134q0 -107 -116 -209h-189q63 55 91 94.5t28 77.5q0 33 -21 54.5t-63 21.5q-69 0 -123 -33z" />
    <glyph glyph-name="uni1EC9" unicode="&#x1ec9;" horiz-adv-x="548" 
d="M389 0h-229v1042h229v-1042zM90 1411l-43 117q87 61 215 61q106 0 163.5 -50t57.5 -134q0 -107 -116 -209h-189q63 55 91 94.5t28 77.5q0 33 -21 54.5t-63 21.5q-69 0 -123 -33z" />
    <glyph glyph-name="uni1ECA" unicode="&#x1eca;" horiz-adv-x="643" 
d="M201 0v1452h241v-1452h-241zM436 -408h-229v250h229v-250z" />
    <glyph glyph-name="uni1ECB" unicode="&#x1ecb;" horiz-adv-x="548" 
d="M389 0h-229v1042h229v-1042zM389 1294h-229v242h229v-242zM389 -408h-229v250h229v-250z" />
    <glyph glyph-name="uni1ECC" unicode="&#x1ecc;" horiz-adv-x="1757" 
d="M111 731q0 150 55 286.5t153 240t244.5 164.5t319.5 61q139 0 261 -39.5t213 -110t157 -164.5t99.5 -206t33.5 -232q0 -155 -52 -292.5t-148 -242.5t-244 -166t-329 -61q-173 0 -318 59t-241.5 162t-150 242.5t-53.5 298.5zM885 166q99 0 183 30t143 82t100.5 123
t61.5 153.5t20 172.5q0 111 -33.5 210.5t-97 178t-165 124.5t-227.5 46q-118 0 -215 -44.5t-159.5 -121t-96.5 -175.5t-34 -210q0 -115 34 -217t97.5 -181t164 -125t224.5 -46zM983 -408h-229v250h229v-250z" />
    <glyph glyph-name="uni1ECD" unicode="&#x1ecd;" horiz-adv-x="1304" 
d="M86 520q0 111 39 210.5t110 175.5t180 120.5t240 44.5q108 0 201 -31t159 -84.5t112.5 -124t69 -149t22.5 -160.5q0 -113 -37.5 -212t-107.5 -175t-181 -120t-248 -44q-131 0 -238.5 45t-176.5 121.5t-106.5 175t-37.5 207.5zM653 154q107 0 183.5 50.5t111.5 131.5
t35 182q0 156 -88.5 263.5t-245.5 107.5q-107 0 -183.5 -52t-111.5 -133.5t-35 -183.5q0 -96 37.5 -178t115.5 -135t181 -53zM766 -408h-229v250h229v-250z" />
    <glyph glyph-name="uni1ECE" unicode="&#x1ece;" horiz-adv-x="1757" 
d="M111 731q0 150 55 286.5t153 240t244.5 164.5t319.5 61q139 0 261 -39.5t213 -110t157 -164.5t99.5 -206t33.5 -232q0 -155 -52 -292.5t-148 -242.5t-244 -166t-329 -61q-173 0 -318 59t-241.5 162t-150 242.5t-53.5 298.5zM885 166q99 0 183 30t143 82t100.5 123
t61.5 153.5t20 172.5q0 111 -33.5 210.5t-97 178t-165 124.5t-227.5 46q-118 0 -215 -44.5t-159.5 -121t-96.5 -175.5t-34 -210q0 -115 34 -217t97.5 -181t164 -125t224.5 -46zM684 1802l-43 117q87 61 215 61q106 0 163.5 -50t57.5 -134q0 -107 -116 -209h-189
q63 55 91 94.5t28 77.5q0 33 -21 54.5t-63 21.5q-69 0 -123 -33z" />
    <glyph glyph-name="uni1ECF" unicode="&#x1ecf;" horiz-adv-x="1304" 
d="M86 520q0 111 39 210.5t110 175.5t180 120.5t240 44.5q108 0 201 -31t159 -84.5t112.5 -124t69 -149t22.5 -160.5q0 -113 -37.5 -212t-107.5 -175t-181 -120t-248 -44q-131 0 -238.5 45t-176.5 121.5t-106.5 175t-37.5 207.5zM653 154q107 0 183.5 50.5t111.5 131.5
t35 182q0 156 -88.5 263.5t-245.5 107.5q-107 0 -183.5 -52t-111.5 -133.5t-35 -183.5q0 -96 37.5 -178t115.5 -135t181 -53zM467 1411l-43 117q87 61 215 61q106 0 163.5 -50t57.5 -134q0 -45 -20.5 -88t-42 -67.5t-54.5 -53.5h-188q63 55 91 94.5t28 77.5q0 33 -21 54.5
t-63 21.5q-69 0 -123 -33z" />
    <glyph glyph-name="uni1ED0" unicode="&#x1ed0;" horiz-adv-x="1757" 
d="M444 1581l287 266h273l288 -266h-237l-189 162l-182 -162h-240zM1161 1812l236 248h252l-287 -248h-201zM111 731q0 150 55 286.5t153 240t244.5 164.5t319.5 61q139 0 261 -39.5t213 -110t157 -164.5t99.5 -206t33.5 -232q0 -155 -52 -292.5t-148 -242.5t-244 -166
t-329 -61q-173 0 -318 59t-241.5 162t-150 242.5t-53.5 298.5zM885 166q99 0 183 30t143 82t100.5 123t61.5 153.5t20 172.5q0 111 -33.5 210.5t-97 178t-165 124.5t-227.5 46q-118 0 -215 -44.5t-159.5 -121t-96.5 -175.5t-34 -210q0 -115 34 -217t97.5 -181t164 -125
t224.5 -46z" />
    <glyph glyph-name="uni1ED1" unicode="&#x1ed1;" horiz-adv-x="1304" 
d="M289 1210l250 281h219l256 -281h-207l-160 170l-153 -170h-205zM893 1446l229 268h230l-275 -268h-184zM86 520q0 111 39 210.5t110 175.5t180 120.5t240 44.5q108 0 201 -31t159 -84.5t112.5 -124t69 -149t22.5 -160.5q0 -113 -37.5 -212t-107.5 -175t-181 -120
t-248 -44q-131 0 -238.5 45t-176.5 121.5t-106.5 175t-37.5 207.5zM653 154q107 0 183.5 50.5t111.5 131.5t35 182q0 156 -88.5 263.5t-245.5 107.5q-107 0 -183.5 -52t-111.5 -133.5t-35 -183.5q0 -96 37.5 -178t115.5 -135t181 -53z" />
    <glyph glyph-name="uni1ED2" unicode="&#x1ed2;" horiz-adv-x="1757" 
d="M444 1581l287 266h273l288 -266h-237l-189 162l-182 -162h-240zM1364 1765l-313 252l258 -2l256 -252zM111 731q0 150 55 286.5t153 240t244.5 164.5t319.5 61q139 0 261 -39.5t213 -110t157 -164.5t99.5 -206t33.5 -232q0 -155 -52 -292.5t-148 -242.5t-244 -166
t-329 -61q-173 0 -318 59t-241.5 162t-150 242.5t-53.5 298.5zM885 166q99 0 183 30t143 82t100.5 123t61.5 153.5t20 172.5q0 111 -33.5 210.5t-97 178t-165 124.5t-227.5 46q-118 0 -215 -44.5t-159.5 -121t-96.5 -175.5t-34 -210q0 -115 34 -217t97.5 -181t164 -125
t224.5 -46z" />
    <glyph glyph-name="uni1ED3" unicode="&#x1ed3;" horiz-adv-x="1304" 
d="M289 1210l250 281h219l256 -281h-207l-160 170l-153 -170h-205zM1055 1423l-279 275h228l225 -275h-174zM86 520q0 111 39 210.5t110 175.5t180 120.5t240 44.5q108 0 201 -31t159 -84.5t112.5 -124t69 -149t22.5 -160.5q0 -113 -37.5 -212t-107.5 -175t-181 -120
t-248 -44q-131 0 -238.5 45t-176.5 121.5t-106.5 175t-37.5 207.5zM653 154q107 0 183.5 50.5t111.5 131.5t35 182q0 156 -88.5 263.5t-245.5 107.5q-107 0 -183.5 -52t-111.5 -133.5t-35 -183.5q0 -96 37.5 -178t115.5 -135t181 -53z" />
    <glyph glyph-name="uni1ED4" unicode="&#x1ed4;" horiz-adv-x="1757" 
d="M444 1583l287 266h273l288 -266h-237l-189 162l-182 -162h-240zM1120 1980l-37 115q83 59 207 59q96 0 150.5 -47t54.5 -127q0 -57 -33 -107.5t-84 -86.5h-176q117 88 117 164q0 30 -20 46.5t-58 16.5q-67 0 -121 -33zM111 731q0 150 55 286.5t153 240t244.5 164.5
t319.5 61q139 0 261 -39.5t213 -110t157 -164.5t99.5 -206t33.5 -232q0 -155 -52 -292.5t-148 -242.5t-244 -166t-329 -61q-173 0 -318 59t-241.5 162t-150 242.5t-53.5 298.5zM885 166q99 0 183 30t143 82t100.5 123t61.5 153.5t20 172.5q0 111 -33.5 210.5t-97 178
t-165 124.5t-227.5 46q-118 0 -215 -44.5t-159.5 -121t-96.5 -175.5t-34 -210q0 -115 34 -217t97.5 -181t164 -125t224.5 -46z" />
    <glyph glyph-name="uni1ED5" unicode="&#x1ed5;" horiz-adv-x="1304" 
d="M289 1210l250 281h219l256 -281h-207l-160 170l-153 -170h-205zM838 1616l-43 98q77 66 194 66q94 0 142.5 -43t48.5 -121q0 -109 -103 -186h-164q119 91 119 159q0 30 -20 47t-56 17q-68 0 -118 -37zM86 520q0 111 39 210.5t110 175.5t180 120.5t240 44.5q108 0 201 -31
t159 -84.5t112.5 -124t69 -149t22.5 -160.5q0 -113 -37.5 -212t-107.5 -175t-181 -120t-248 -44q-131 0 -238.5 45t-176.5 121.5t-106.5 175t-37.5 207.5zM653 154q107 0 183.5 50.5t111.5 131.5t35 182q0 156 -88.5 263.5t-245.5 107.5q-107 0 -183.5 -52t-111.5 -133.5
t-35 -183.5q0 -96 37.5 -178t115.5 -135t181 -53z" />
    <glyph glyph-name="uni1ED6" unicode="&#x1ed6;" horiz-adv-x="1757" 
d="M483 1579l267 217h231l272 -217h-233l-156 115l-149 -115h-232zM655 1882h-129v33q0 190 179 190q54 0 114.5 -20.5t112 -41t84.5 -20.5q32 0 48.5 14t16.5 50v18h129v-22q0 -99 -47.5 -150t-132.5 -51q-60 0 -162 42t-145 42q-30 0 -49 -17.5t-19 -52.5v-14zM111 731
q0 150 55 286.5t153 240t244.5 164.5t319.5 61q139 0 261 -39.5t213 -110t157 -164.5t99.5 -206t33.5 -232q0 -155 -52 -292.5t-148 -242.5t-244 -166t-329 -61q-173 0 -318 59t-241.5 162t-150 242.5t-53.5 298.5zM885 166q99 0 183 30t143 82t100.5 123t61.5 153.5
t20 172.5q0 111 -33.5 210.5t-97 178t-165 124.5t-227.5 46q-118 0 -215 -44.5t-159.5 -121t-96.5 -175.5t-34 -210q0 -115 34 -217t97.5 -181t164 -125t224.5 -46z" />
    <glyph glyph-name="uni1ED7" unicode="&#x1ed7;" horiz-adv-x="1304" 
d="M463 1489h-129v24q0 100 46.5 147.5t121.5 47.5q54 0 109 -20t98.5 -40t70.5 -20q64 0 64 60v16h125v-27q0 -188 -172 -188q-59 0 -149 40t-124 40q-61 0 -61 -66v-14zM297 1188l227 213h250l234 -213h-215l-146 125l-139 -125h-211zM86 520q0 111 39 210.5t110 175.5
t180 120.5t240 44.5q108 0 201 -31t159 -84.5t112.5 -124t69 -149t22.5 -160.5q0 -113 -37.5 -212t-107.5 -175t-181 -120t-248 -44q-131 0 -238.5 45t-176.5 121.5t-106.5 175t-37.5 207.5zM653 154q107 0 183.5 50.5t111.5 131.5t35 182q0 156 -88.5 263.5t-245.5 107.5
q-107 0 -183.5 -52t-111.5 -133.5t-35 -183.5q0 -96 37.5 -178t115.5 -135t181 -53z" />
    <glyph glyph-name="uni1ED8" unicode="&#x1ed8;" horiz-adv-x="1757" 
d="M111 731q0 150 55 286.5t153 240t244.5 164.5t319.5 61q139 0 261 -39.5t213 -110t157 -164.5t99.5 -206t33.5 -232q0 -155 -52 -292.5t-148 -242.5t-244 -166t-329 -61q-173 0 -318 59t-241.5 162t-150 242.5t-53.5 298.5zM885 166q99 0 183 30t143 82t100.5 123
t61.5 153.5t20 172.5q0 111 -33.5 210.5t-97 178t-165 124.5t-227.5 46q-118 0 -215 -44.5t-159.5 -121t-96.5 -175.5t-34 -210q0 -115 34 -217t97.5 -181t164 -125t224.5 -46zM446 1575l291 283h258l293 -283h-229l-195 176l-190 -176h-228zM983 -408h-229v250h229v-250z
" />
    <glyph glyph-name="uni1ED9" unicode="&#x1ed9;" horiz-adv-x="1304" 
d="M86 520q0 111 39 210.5t110 175.5t180 120.5t240 44.5q108 0 201 -31t159 -84.5t112.5 -124t69 -149t22.5 -160.5q0 -113 -37.5 -212t-107.5 -175t-181 -120t-248 -44q-131 0 -238.5 45t-176.5 121.5t-106.5 175t-37.5 207.5zM653 154q107 0 183.5 50.5t111.5 131.5
t35 182q0 156 -88.5 263.5t-245.5 107.5q-107 0 -183.5 -52t-111.5 -133.5t-35 -183.5q0 -96 37.5 -178t115.5 -135t181 -53zM270 1225l269 327h225l266 -327h-207l-174 211l-170 -211h-209zM766 -408h-229v250h229v-250z" />
    <glyph glyph-name="uni1EDA" unicode="&#x1eda;" horiz-adv-x="1757" 
d="M1415 1638h209q14 -54 14 -120q0 -93 -46.5 -166t-135.5 -109q93 -103 142 -234.5t49 -277.5q0 -155 -52 -292.5t-148 -242.5t-244 -166t-329 -61q-173 0 -318 59t-241.5 162t-150 242.5t-53.5 298.5q0 150 55 286.5t153 240t244.5 164.5t319.5 61q241 0 426 -117
q127 23 127 152q0 59 -21 120zM885 166q99 0 183 30t143 82t100.5 123t61.5 153.5t20 172.5q0 111 -33.5 210.5t-97 178t-165 124.5t-227.5 46q-118 0 -215 -44.5t-159.5 -121t-96.5 -175.5t-34 -210q0 -115 34 -217t97.5 -181t164 -125t224.5 -46zM717 1599l346 285h303
l-416 -285h-233z" />
    <glyph glyph-name="uni1EDB" unicode="&#x1edb;" horiz-adv-x="1304" 
d="M1085 1231h209q15 -58 15 -121q0 -92 -46.5 -165t-136.5 -109q93 -140 93 -314q0 -113 -37.5 -212t-107.5 -175t-181 -120t-248 -44q-131 0 -238.5 45t-176.5 121.5t-106.5 175t-37.5 207.5q0 111 39 210.5t110 175.5t180 120.5t240 44.5q208 0 349 -106q102 30 102 145
q0 60 -21 121zM653 154q107 0 183.5 50.5t111.5 131.5t35 182q0 156 -88.5 263.5t-245.5 107.5q-107 0 -183.5 -52t-111.5 -133.5t-35 -183.5q0 -96 37.5 -178t115.5 -135t181 -53zM512 1233l283 326h270l-342 -326h-211z" />
    <glyph glyph-name="uni1EDC" unicode="&#x1edc;" horiz-adv-x="1757" 
d="M1415 1638h209q14 -54 14 -120q0 -93 -46.5 -166t-135.5 -109q93 -103 142 -234.5t49 -277.5q0 -155 -52 -292.5t-148 -242.5t-244 -166t-329 -61q-173 0 -318 59t-241.5 162t-150 242.5t-53.5 298.5q0 150 55 286.5t153 240t244.5 164.5t319.5 61q241 0 426 -117
q127 23 127 152q0 59 -21 120zM885 166q99 0 183 30t143 82t100.5 123t61.5 153.5t20 172.5q0 111 -33.5 210.5t-97 178t-165 124.5t-227.5 46q-118 0 -215 -44.5t-159.5 -121t-96.5 -175.5t-34 -210q0 -115 34 -217t97.5 -181t164 -125t224.5 -46zM375 1884h309l344 -285
h-225z" />
    <glyph glyph-name="uni1EDD" unicode="&#x1edd;" horiz-adv-x="1304" 
d="M1085 1231h209q15 -58 15 -121q0 -92 -46.5 -165t-136.5 -109q93 -140 93 -314q0 -113 -37.5 -212t-107.5 -175t-181 -120t-248 -44q-131 0 -238.5 45t-176.5 121.5t-106.5 175t-37.5 207.5q0 111 39 210.5t110 175.5t180 120.5t240 44.5q208 0 349 -106q102 30 102 145
q0 60 -21 121zM653 154q107 0 183.5 50.5t111.5 131.5t35 182q0 156 -88.5 263.5t-245.5 107.5q-107 0 -183.5 -52t-111.5 -133.5t-35 -183.5q0 -96 37.5 -178t115.5 -135t181 -53zM610 1233l-350 326h270l291 -326h-211z" />
    <glyph glyph-name="uni1EDE" unicode="&#x1ede;" horiz-adv-x="1757" 
d="M1415 1638h209q14 -54 14 -120q0 -93 -46.5 -166t-135.5 -109q93 -103 142 -234.5t49 -277.5q0 -155 -52 -292.5t-148 -242.5t-244 -166t-329 -61q-173 0 -318 59t-241.5 162t-150 242.5t-53.5 298.5q0 150 55 286.5t153 240t244.5 164.5t319.5 61q241 0 426 -117
q127 23 127 152q0 59 -21 120zM885 166q99 0 183 30t143 82t100.5 123t61.5 153.5t20 172.5q0 111 -33.5 210.5t-97 178t-165 124.5t-227.5 46q-118 0 -215 -44.5t-159.5 -121t-96.5 -175.5t-34 -210q0 -115 34 -217t97.5 -181t164 -125t224.5 -46zM692 1790l-43 117
q87 61 215 61q106 0 163.5 -50t57.5 -134q0 -107 -116 -209h-189q63 55 91 94.5t28 77.5q0 33 -21 54.5t-63 21.5q-69 0 -123 -33z" />
    <glyph glyph-name="uni1EDF" unicode="&#x1edf;" horiz-adv-x="1304" 
d="M1085 1231h209q15 -58 15 -121q0 -92 -46.5 -165t-136.5 -109q93 -140 93 -314q0 -113 -37.5 -212t-107.5 -175t-181 -120t-248 -44q-131 0 -238.5 45t-176.5 121.5t-106.5 175t-37.5 207.5q0 111 39 210.5t110 175.5t180 120.5t240 44.5q208 0 349 -106q102 30 102 145
q0 60 -21 121zM653 154q107 0 183.5 50.5t111.5 131.5t35 182q0 156 -88.5 263.5t-245.5 107.5q-107 0 -183.5 -52t-111.5 -133.5t-35 -183.5q0 -96 37.5 -178t115.5 -135t181 -53zM479 1411l-43 117q87 61 215 61q106 0 163.5 -50t57.5 -134q0 -107 -116 -209h-189
q63 55 91 94.5t28 77.5q0 33 -21 54.5t-63 21.5q-69 0 -123 -33z" />
    <glyph glyph-name="uni1EE0" unicode="&#x1ee0;" horiz-adv-x="1757" 
d="M1415 1638h209q14 -54 14 -120q0 -93 -46.5 -166t-135.5 -109q93 -103 142 -234.5t49 -277.5q0 -155 -52 -292.5t-148 -242.5t-244 -166t-329 -61q-173 0 -318 59t-241.5 162t-150 242.5t-53.5 298.5q0 150 55 286.5t153 240t244.5 164.5t319.5 61q241 0 426 -117
q127 23 127 152q0 59 -21 120zM885 166q99 0 183 30t143 82t100.5 123t61.5 153.5t20 172.5q0 111 -33.5 210.5t-97 178t-165 124.5t-227.5 46q-118 0 -215 -44.5t-159.5 -121t-96.5 -175.5t-34 -210q0 -115 34 -217t97.5 -181t164 -125t224.5 -46zM647 1608h-155v51
q0 227 194 227q59 0 129 -28t130.5 -56t94.5 -28t50 19.5t16 72.5v22h151v-43q0 -132 -49 -186.5t-137 -54.5q-58 0 -129 29t-133.5 58t-101.5 29q-60 0 -60 -82v-30z" />
    <glyph glyph-name="uni1EE1" unicode="&#x1ee1;" horiz-adv-x="1304" 
d="M1085 1231h209q15 -58 15 -121q0 -92 -46.5 -165t-136.5 -109q93 -140 93 -314q0 -113 -37.5 -212t-107.5 -175t-181 -120t-248 -44q-131 0 -238.5 45t-176.5 121.5t-106.5 175t-37.5 207.5q0 111 39 210.5t110 175.5t180 120.5t240 44.5q208 0 349 -106q102 30 102 145
q0 60 -21 121zM653 154q107 0 183.5 50.5t111.5 131.5t35 182q0 156 -88.5 263.5t-245.5 107.5q-107 0 -183.5 -52t-111.5 -133.5t-35 -183.5q0 -96 37.5 -178t115.5 -135t181 -53zM455 1243h-148v55q0 121 50 171.5t137 50.5q57 0 118 -28t112 -55.5t85 -27.5q33 0 49 20.5
t16 73.5v23h144v-49q0 -129 -48.5 -182.5t-138.5 -53.5q-45 0 -92.5 17.5t-80 39t-71.5 39t-69 17.5q-63 0 -63 -74v-37z" />
    <glyph glyph-name="uni1EE2" unicode="&#x1ee2;" horiz-adv-x="1757" 
d="M1415 1638h209q14 -54 14 -120q0 -93 -46.5 -166t-135.5 -109q93 -103 142 -234.5t49 -277.5q0 -155 -52 -292.5t-148 -242.5t-244 -166t-329 -61q-173 0 -318 59t-241.5 162t-150 242.5t-53.5 298.5q0 150 55 286.5t153 240t244.5 164.5t319.5 61q241 0 426 -117
q127 23 127 152q0 59 -21 120zM885 166q99 0 183 30t143 82t100.5 123t61.5 153.5t20 172.5q0 111 -33.5 210.5t-97 178t-165 124.5t-227.5 46q-118 0 -215 -44.5t-159.5 -121t-96.5 -175.5t-34 -210q0 -115 34 -217t97.5 -181t164 -125t224.5 -46zM991 -408h-229v250h229
v-250z" />
    <glyph glyph-name="uni1EE3" unicode="&#x1ee3;" horiz-adv-x="1304" 
d="M1085 1231h209q15 -58 15 -121q0 -92 -46.5 -165t-136.5 -109q93 -140 93 -314q0 -113 -37.5 -212t-107.5 -175t-181 -120t-248 -44q-131 0 -238.5 45t-176.5 121.5t-106.5 175t-37.5 207.5q0 111 39 210.5t110 175.5t180 120.5t240 44.5q208 0 349 -106q102 30 102 145
q0 60 -21 121zM653 154q107 0 183.5 50.5t111.5 131.5t35 182q0 156 -88.5 263.5t-245.5 107.5q-107 0 -183.5 -52t-111.5 -133.5t-35 -183.5q0 -96 37.5 -178t115.5 -135t181 -53zM766 -408h-229v250h229v-250z" />
    <glyph glyph-name="uni1EE4" unicode="&#x1ee4;" horiz-adv-x="1673" 
d="M186 612v840h242v-823q0 -106 24 -188t63 -133t94 -84t113 -45.5t124 -12.5q197 0 299 106.5t102 356.5v823h240v-825q0 -658 -649 -658q-308 0 -480 158t-172 485zM950 -408h-229v250h229v-250z" />
    <glyph glyph-name="uni1EE5" unicode="&#x1ee5;" horiz-adv-x="1304" 
d="M160 397v645h227v-604q0 -126 55.5 -202t178.5 -76q157 0 227 96t70 311v475h227v-739q0 -203 2 -303h-221q-8 58 -8 164q-28 -60 -68 -100t-116 -66.5t-185 -26.5q-175 0 -282 105t-107 321zM766 -408h-229v250h229v-250z" />
    <glyph glyph-name="uni1EE6" unicode="&#x1ee6;" horiz-adv-x="1673" 
d="M186 612v840h242v-823q0 -106 24 -188t63 -133t94 -84t113 -45.5t124 -12.5q197 0 299 106.5t102 356.5v823h240v-825q0 -658 -649 -658q-308 0 -480 158t-172 485zM651 1790l-43 117q87 61 215 61q106 0 163.5 -50t57.5 -134q0 -107 -116 -209h-189q63 55 91 94.5
t28 77.5q0 33 -21 54.5t-63 21.5q-69 0 -123 -33z" />
    <glyph glyph-name="uni1EE7" unicode="&#x1ee7;" horiz-adv-x="1304" 
d="M160 397v645h227v-604q0 -126 55.5 -202t178.5 -76q157 0 227 96t70 311v475h227v-739q0 -203 2 -303h-221q-8 58 -8 164q-28 -60 -68 -100t-116 -66.5t-185 -26.5q-175 0 -282 105t-107 321zM467 1411l-43 117q87 61 215 61q106 0 163.5 -50t57.5 -134q0 -45 -20.5 -88
t-42 -67.5t-54.5 -53.5h-188q63 55 91 94.5t28 77.5q0 33 -21 54.5t-63 21.5q-69 0 -123 -33z" />
    <glyph glyph-name="uni1EE8" unicode="&#x1ee8;" horiz-adv-x="1673" 
d="M186 612v840h242v-823q0 -106 24 -188t63 -133t94 -84t113 -45.5t124 -12.5q197 0 299 106.5t102 356.5v823h123q139 19 139 154q0 62 -20 120h209q14 -54 14 -120q0 -104 -57 -181.5t-168 -107.5v-690q0 -658 -649 -658q-308 0 -480 158t-172 485zM684 1591l346 285h303
l-415 -285h-234z" />
    <glyph glyph-name="uni1EE9" unicode="&#x1ee9;" horiz-adv-x="1304" 
d="M160 397v645h227v-604q0 -126 55.5 -202t178.5 -76q157 0 227 96t70 311v475h102q156 14 156 156q0 60 -21 121h209q14 -54 14 -121q0 -106 -59 -184.5t-174 -106.5v-604q0 -203 2 -303h-221q-8 58 -8 164q-28 -60 -68 -100t-116 -66.5t-185 -26.5q-175 0 -282 105
t-107 321zM504 1233l282 326h271l-342 -326h-211z" />
    <glyph glyph-name="uni1EEA" unicode="&#x1eea;" horiz-adv-x="1673" 
d="M186 612v840h242v-823q0 -106 24 -188t63 -133t94 -84t113 -45.5t124 -12.5q197 0 299 106.5t102 356.5v823h123q139 19 139 154q0 62 -20 120h209q14 -54 14 -120q0 -104 -57 -181.5t-168 -107.5v-690q0 -658 -649 -658q-308 0 -480 158t-172 485zM346 1876h309
l344 -285h-225z" />
    <glyph glyph-name="uni1EEB" unicode="&#x1eeb;" horiz-adv-x="1304" 
d="M160 397v645h227v-604q0 -126 55.5 -202t178.5 -76q157 0 227 96t70 311v475h102q156 14 156 156q0 60 -21 121h209q14 -54 14 -121q0 -106 -59 -184.5t-174 -106.5v-604q0 -203 2 -303h-221q-8 58 -8 164q-28 -60 -68 -100t-116 -66.5t-185 -26.5q-175 0 -282 105
t-107 321zM608 1233l-350 326h270l291 -326h-211z" />
    <glyph glyph-name="uni1EEC" unicode="&#x1eec;" horiz-adv-x="1673" 
d="M186 612v840h242v-823q0 -106 24 -188t63 -133t94 -84t113 -45.5t124 -12.5q197 0 299 106.5t102 356.5v823h123q139 19 139 154q0 62 -20 120h209q14 -54 14 -120q0 -104 -57 -181.5t-168 -107.5v-690q0 -658 -649 -658q-308 0 -480 158t-172 485zM651 1790l-43 117
q87 61 215 61q106 0 163.5 -50t57.5 -134q0 -107 -116 -209h-189q63 55 91 94.5t28 77.5q0 33 -21 54.5t-63 21.5q-69 0 -123 -33z" />
    <glyph glyph-name="uni1EED" unicode="&#x1eed;" horiz-adv-x="1304" 
d="M160 397v645h227v-604q0 -126 55.5 -202t178.5 -76q157 0 227 96t70 311v475h102q156 14 156 156q0 60 -21 121h209q14 -54 14 -121q0 -106 -59 -184.5t-174 -106.5v-604q0 -203 2 -303h-221q-8 58 -8 164q-28 -60 -68 -100t-116 -66.5t-185 -26.5q-175 0 -282 105
t-107 321zM477 1411l-43 117q87 61 215 61q106 0 163.5 -50t57.5 -134q0 -107 -116 -209h-189q63 55 91 94.5t28 77.5q0 33 -21 54.5t-63 21.5q-69 0 -123 -33z" />
    <glyph glyph-name="uni1EEE" unicode="&#x1eee;" horiz-adv-x="1673" 
d="M186 612v840h242v-823q0 -106 24 -188t63 -133t94 -84t113 -45.5t124 -12.5q197 0 299 106.5t102 356.5v823h123q139 19 139 154q0 62 -20 120h209q14 -54 14 -120q0 -104 -57 -181.5t-168 -107.5v-690q0 -658 -649 -658q-308 0 -480 158t-172 485zM606 1597h-155v52
q0 227 194 227q46 0 100.5 -17.5t95.5 -39t85.5 -39t72.5 -17.5q34 0 50 19.5t16 72.5v23h152v-43q0 -132 -49.5 -187t-137.5 -55q-58 0 -129 29.5t-133.5 58.5t-101.5 29q-60 0 -60 -82v-31z" />
    <glyph glyph-name="uni1EEF" unicode="&#x1eef;" horiz-adv-x="1304" 
d="M160 397v645h227v-604q0 -126 55.5 -202t178.5 -76q157 0 227 96t70 311v475h102q156 14 156 156q0 60 -21 121h209q14 -54 14 -121q0 -106 -59 -184.5t-174 -106.5v-604q0 -203 2 -303h-221q-8 58 -8 164q-28 -60 -68 -100t-116 -66.5t-185 -26.5q-175 0 -282 105
t-107 321zM442 1243h-147v55q0 121 49.5 171.5t136.5 50.5q57 0 118 -28t112.5 -55.5t85.5 -27.5q33 0 49 20.5t16 73.5v23h144v-49q0 -129 -48.5 -182.5t-138.5 -53.5q-45 0 -92.5 17.5t-80 39t-71.5 39t-69 17.5q-64 0 -64 -74v-37z" />
    <glyph glyph-name="uni1EF0" unicode="&#x1ef0;" horiz-adv-x="1673" 
d="M186 612v840h242v-823q0 -106 24 -188t63 -133t94 -84t113 -45.5t124 -12.5q197 0 299 106.5t102 356.5v823h123q139 19 139 154q0 62 -20 120h209q14 -54 14 -120q0 -104 -57 -181.5t-168 -107.5v-690q0 -658 -649 -658q-308 0 -480 158t-172 485zM950 -408h-229v250
h229v-250z" />
    <glyph glyph-name="uni1EF1" unicode="&#x1ef1;" horiz-adv-x="1304" 
d="M160 397v645h227v-604q0 -126 55.5 -202t178.5 -76q157 0 227 96t70 311v475h102q156 14 156 156q0 60 -21 121h209q14 -54 14 -121q0 -106 -59 -184.5t-174 -106.5v-604q0 -203 2 -303h-221q-8 58 -8 164q-28 -60 -68 -100t-116 -66.5t-185 -26.5q-175 0 -282 105
t-107 321zM766 -408h-229v250h229v-250z" />
    <glyph glyph-name="Ygrave" unicode="&#x1ef2;" horiz-adv-x="1384" 
d="M813 0h-240v545q0 17 -16 39l-606 868h287q38 -56 165 -242.5t197.5 -294t101.5 -163.5q26 44 84.5 133.5t110.5 167t142 210.5t128 189h267l-611 -877q-10 -17 -10 -34v-541zM201 1864h309l344 -285h-225z" />
    <glyph glyph-name="ygrave" unicode="&#x1ef3;" horiz-adv-x="1212" 
d="M117 -469v195q62 -9 110 -9q71 0 117 23t80 70.5t80 144.5l-479 1087h251q274 -646 349 -864h4q139 406 319 864h236l-393 -966q-38 -93 -64 -154t-56 -123t-53.5 -98.5t-54 -71.5t-59.5 -53t-68 -32.5t-81 -19.5t-97 -5q-86 0 -141 12zM541 1233l-351 326h271l291 -326
h-211z" />
    <glyph glyph-name="uni1EF4" unicode="&#x1ef4;" horiz-adv-x="1384" 
d="M813 0h-240v545q0 17 -16 39l-606 868h287q38 -56 165 -242.5t197.5 -294t101.5 -163.5q26 44 84.5 133.5t110.5 167t142 210.5t128 189h267l-611 -877q-10 -17 -10 -34v-541zM809 -408h-229v250h229v-250z" />
    <glyph glyph-name="uni1EF5" unicode="&#x1ef5;" horiz-adv-x="1212" 
d="M117 -469v195q62 -9 110 -9q71 0 117 23t80 70.5t80 144.5l-479 1087h251q274 -646 349 -864h4q139 406 319 864h236l-393 -966q-38 -93 -64 -154t-56 -123t-53.5 -98.5t-54 -71.5t-59.5 -53t-68 -32.5t-81 -19.5t-97 -5q-86 0 -141 12zM1133 -408h-230v250h230v-250z
" />
    <glyph glyph-name="uni1EF6" unicode="&#x1ef6;" horiz-adv-x="1384" 
d="M813 0h-240v545q0 17 -16 39l-606 868h287q38 -56 165 -242.5t197.5 -294t101.5 -163.5q26 44 84.5 133.5t110.5 167t142 210.5t128 189h267l-611 -877q-10 -17 -10 -34v-541zM508 1782l-43 116q88 62 215 62q106 0 163.5 -50t57.5 -134q0 -45 -20.5 -88t-42 -67.5
t-54.5 -53.5h-188q63 55 91 94.5t28 77.5q0 33 -21 54.5t-63 21.5q-69 0 -123 -33z" />
    <glyph glyph-name="uni1EF7" unicode="&#x1ef7;" horiz-adv-x="1212" 
d="M117 -469v195q62 -9 110 -9q71 0 117 23t80 70.5t80 144.5l-479 1087h251q274 -646 349 -864h4q139 406 319 864h236l-393 -966q-38 -93 -64 -154t-56 -123t-53.5 -98.5t-54 -71.5t-59.5 -53t-68 -32.5t-81 -19.5t-97 -5q-86 0 -141 12zM420 1411l-43 117q87 61 215 61
q106 0 163.5 -50t57.5 -134q0 -45 -20.5 -88t-42 -67.5t-54.5 -53.5h-188q63 55 91 94.5t28 77.5q0 33 -21 54.5t-63 21.5q-69 0 -123 -33z" />
    <glyph glyph-name="uni1EF8" unicode="&#x1ef8;" horiz-adv-x="1384" 
d="M813 0h-240v545q0 17 -16 39l-606 868h287q38 -56 165 -242.5t197.5 -294t101.5 -163.5q26 44 84.5 133.5t110.5 167t142 210.5t128 189h267l-611 -877q-10 -17 -10 -34v-541zM463 1597h-156v52q0 227 195 227q46 0 100.5 -17.5t95.5 -39t85.5 -39t72.5 -17.5
q34 0 50 19.5t16 72.5v23h151v-43q0 -132 -49.5 -187t-136.5 -55q-58 0 -129 29.5t-134 58.5t-102 29q-59 0 -59 -82v-31z" />
    <glyph glyph-name="uni1EF9" unicode="&#x1ef9;" horiz-adv-x="1212" 
d="M117 -469v195q62 -9 110 -9q71 0 117 23t80 70.5t80 144.5l-479 1087h251q274 -646 349 -864h4q139 406 319 864h236l-393 -966q-38 -93 -64 -154t-56 -123t-53.5 -98.5t-54 -71.5t-59.5 -53t-68 -32.5t-81 -19.5t-97 -5q-86 0 -141 12zM395 1243h-147v55
q0 121 49.5 171.5t136.5 50.5q57 0 118 -28t112.5 -55.5t85.5 -27.5q33 0 49 20.5t16 73.5v23h143v-49q0 -129 -48 -182.5t-138 -53.5q-45 0 -92.5 17.5t-80 39t-71.5 39t-69 17.5q-64 0 -64 -74v-37z" />
    <glyph glyph-name="uni2007" unicode="&#x2007;" horiz-adv-x="1320" 
 />
    <glyph glyph-name="uni2010" unicode="&#x2010;" horiz-adv-x="888" 
d="M113 426v195h661v-195h-661z" />
    <glyph glyph-name="figuredash" unicode="&#x2012;" horiz-adv-x="1320" 
d="M154 627v194h1015v-194h-1015z" />
    <glyph glyph-name="endash" unicode="&#x2013;" horiz-adv-x="1302" 
d="M113 426v195h1077v-195h-1077z" />
    <glyph glyph-name="emdash" unicode="&#x2014;" horiz-adv-x="2377" 
d="M113 426v195h2152v-195h-2152z" />
    <glyph glyph-name="uni2015" unicode="&#x2015;" horiz-adv-x="2377" 
d="M113 426v195h2152v-195h-2152z" />
    <glyph glyph-name="quoteleft" unicode="&#x2018;" horiz-adv-x="522" 
d="M322 920h-234q12 139 60 320.5t100 295.5h186q-94 -306 -112 -616z" />
    <glyph glyph-name="quoteright" unicode="&#x2019;" horiz-adv-x="522" 
d="M199 1536h235q-13 -140 -61.5 -321.5t-100.5 -294.5h-184q97 328 111 616z" />
    <glyph glyph-name="quotesinglbase" unicode="&#x201a;" horiz-adv-x="522" 
d="M199 330h235q-13 -140 -62 -322t-100 -295h-184q97 328 111 617z" />
    <glyph glyph-name="quotedblleft" unicode="&#x201c;" horiz-adv-x="923" 
d="M322 920h-234q12 139 60 320.5t100 295.5h186q-94 -306 -112 -616zM731 920h-233q12 140 59.5 321.5t99.5 294.5h187q-95 -310 -113 -616z" />
    <glyph glyph-name="quotedblright" unicode="&#x201d;" horiz-adv-x="923" 
d="M199 1536h235q-13 -140 -61.5 -321.5t-100.5 -294.5h-184q97 328 111 616zM608 1536h236q-13 -140 -61.5 -321.5t-100.5 -294.5h-184q96 324 110 616z" />
    <glyph glyph-name="quotedblbase" unicode="&#x201e;" horiz-adv-x="923" 
d="M199 330h235q-13 -140 -62 -322t-100 -295h-184q97 328 111 617zM608 330h236q-13 -140 -62 -322t-100 -295h-184q96 324 110 617z" />
    <glyph glyph-name="dagger" unicode="&#x2020;" horiz-adv-x="1120" 
d="M438 -295l15 1059l-392 -14v182l392 -12l-15 469h207l-14 -469l387 12v-182l-387 14l14 -1059h-207z" />
    <glyph glyph-name="daggerdbl" unicode="&#x2021;" horiz-adv-x="1120" 
d="M438 -295l15 473l-392 -14v180l392 -10v479l-392 -12v182l392 -14l-15 417h207l-14 -417l387 14v-182l-387 12v-479l387 10v-180l-387 14l14 -473h-207z" />
    <glyph glyph-name="bullet" unicode="&#x2022;" horiz-adv-x="890" 
d="M205 279v487h481v-487h-481z" />
    <glyph glyph-name="ellipsis" unicode="&#x2026;" horiz-adv-x="1763" 
d="M391 0h-256v358h256v-358zM985 0h-256v358h256v-358zM1577 0h-256v358h256v-358z" />
    <glyph glyph-name="perthousand" unicode="&#x2030;" horiz-adv-x="2772" 
d="M2318 -25q-175 0 -272.5 110.5t-97.5 289.5q0 107 40.5 195.5t127 145t204.5 56.5q174 0 275.5 -105.5t101.5 -291.5q0 -173 -99 -286.5t-280 -113.5zM2322 125q96 0 147.5 68t51.5 182q0 119 -50.5 182.5t-150.5 63.5q-87 0 -138.5 -64t-51.5 -180q0 -115 50 -183.5
t142 -68.5zM446 614q-175 0 -272.5 110.5t-97.5 289.5q0 79 24 150t69.5 126.5t118 88t161.5 32.5q174 0 275 -105.5t101 -291.5q0 -173 -99 -286.5t-280 -113.5zM451 764q96 0 147 68t51 182q0 119 -50 182.5t-150 63.5q-88 0 -139.5 -64.5t-51.5 -179.5t50.5 -183.5
t142.5 -68.5zM582 0h-181l940 1382h183zM1483 -25q-175 0 -273 111t-98 289q0 79 24 150t69.5 126.5t118 88t161.5 32.5q174 0 275.5 -105.5t101.5 -291.5q0 -173 -99 -286.5t-280 -113.5zM1487 125q96 0 147.5 68t51.5 182q0 119 -50.5 182.5t-150.5 63.5
q-88 0 -139.5 -64.5t-51.5 -179.5t50.5 -183.5t142.5 -68.5z" />
    <glyph glyph-name="uni2032" unicode="&#x2032;" horiz-adv-x="518" 
d="M283 922h-181l84 614h230z" />
    <glyph glyph-name="uni2033" unicode="&#x2033;" horiz-adv-x="907" 
d="M283 922h-181l84 614h230zM680 922h-180l84 614h229z" />
    <glyph glyph-name="guilsinglleft" unicode="&#x2039;" horiz-adv-x="792" 
d="M469 111l-371 426l371 421h225l-368 -421l370 -426h-227z" />
    <glyph glyph-name="guilsinglright" unicode="&#x203a;" horiz-adv-x="792" 
d="M324 111h-226l369 421l-369 426h226l372 -426z" />
    <glyph glyph-name="fraction" unicode="&#x2044;" horiz-adv-x="335" 
d="M-188 0h-156l870 1382h154z" />
    <glyph glyph-name="zero.sups" unicode="&#x2070;" horiz-adv-x="892" 
d="M446 901q-118 0 -205.5 56.5t-130 149.5t-42.5 208q0 184 103.5 302t281.5 118q121 0 207.5 -58.5t126.5 -150.5t40 -205q0 -193 -103.5 -306.5t-277.5 -113.5zM451 1047q186 0 186 272q0 129 -48.5 199.5t-139.5 70.5t-142 -70.5t-51 -201.5q0 -124 54 -197t141 -73z
" />
    <glyph glyph-name="four.sups" unicode="&#x2074;" horiz-adv-x="858" 
d="M61 1104v141l404 479h215v-479h141l-12 -141h-129v-193h-168v193h-451zM242 1245h270v150q0 145 4 192q-20 -29 -274 -342z" />
    <glyph glyph-name="five.sups" unicode="&#x2075;" horiz-adv-x="866" 
d="M84 1159h182q14 -49 57 -83t123 -34q175 0 175 144q0 141 -185 141q-121 0 -176 -78l-162 33q50 247 74 442h594l-25 -149h-424q-9 -62 -26 -168q69 55 201 55q147 0 233 -72.5t86 -193.5q0 -131 -96.5 -213t-270.5 -82q-163 0 -256 74.5t-104 183.5z" />
    <glyph glyph-name="six.sups" unicode="&#x2076;" horiz-adv-x="870" 
d="M453 901q-183 0 -284 109.5t-101 298.5q0 63 12.5 122t41.5 115t72 97.5t109 66.5t148 25q76 0 137.5 -19.5t100 -52t61.5 -70t30 -77.5h-184q-13 34 -49 58.5t-101 24.5q-181 0 -192 -223q35 40 100 65.5t152 24.5q143 -1 224 -76t81 -192q0 -132 -97.5 -214.5
t-260.5 -82.5zM268 1210q0 -30 10 -59t30 -55.5t57.5 -43t87.5 -16.5q79 0 126.5 38t47.5 114q-3 147 -178 147q-76 0 -128.5 -34.5t-52.5 -90.5z" />
    <glyph glyph-name="seven.sups" unicode="&#x2077;" horiz-adv-x="747" 
d="M348 913h-203q41 174 150 366.5t207 293.5h-469v151h667v-135q-115 -138 -211.5 -319t-140.5 -357z" />
    <glyph glyph-name="eight.sups" unicode="&#x2078;" horiz-adv-x="864" 
d="M70 1147q0 136 149 192q-55 24 -84 67.5t-29 98.5q0 100 85.5 165t246.5 65q154 0 237 -65t83 -157q0 -120 -121 -167q73 -26 115.5 -75.5t42.5 -119.5q0 -112 -104 -181t-263 -69q-167 0 -262.5 71.5t-95.5 174.5zM256 1159q0 -54 47.5 -89.5t128.5 -35.5
q85 0 130.5 31.5t45.5 89.5q0 119 -178 119q-86 0 -130 -31.5t-44 -83.5zM285 1503q0 -104 153 -104q140 0 140 102q0 47 -37 76t-107 29q-72 0 -110.5 -28t-38.5 -75z" />
    <glyph glyph-name="nine.sups" unicode="&#x2079;" horiz-adv-x="874" 
d="M78 1128h182q17 -38 56.5 -65t107.5 -27q179 0 199 240q-75 -89 -246 -86q-147 1 -231.5 74.5t-84.5 183.5q0 125 98 206t261 81q185 0 285 -106t100 -298q0 -59 -11 -116t-38.5 -115t-69.5 -101.5t-109.5 -70.5t-152.5 -27q-151 0 -240 67.5t-106 159.5zM246 1460
q0 -66 47.5 -102.5t132.5 -36.5q75 0 127.5 30.5t52.5 90.5q0 68 -45.5 114t-140.5 46q-75 0 -125 -36.5t-49 -105.5z" />
    <glyph glyph-name="parenleft.sups" unicode="&#x207d;" horiz-adv-x="501" 
d="M455 750h-179q-75 82 -132.5 225.5t-57.5 320.5q0 321 190 551h179q-95 -115 -152 -247.5t-57 -303.5q0 -168 57 -298t152 -248z" />
    <glyph glyph-name="parenright.sups" unicode="&#x207e;" horiz-adv-x="501" 
d="M47 1876h178q75 -82 133 -226t58 -321q0 -316 -191 -551h-178q95 115 152 247.5t57 303.5q0 169 -56.5 299t-152.5 248z" />
    <glyph glyph-name="n.sups" unicode="&#x207f;" horiz-adv-x="901" 
d="M281 571h-175v461q0 149 -4 219h168q6 -21 6 -112q77 129 252 129q38 0 74 -8t72 -28.5t63 -51t43.5 -80t16.5 -111.5v-418h-179v379q0 80 -33 125t-116 45t-135.5 -54t-52.5 -155v-340z" />
    <glyph glyph-name="zero.subs" unicode="&#x2080;" horiz-adv-x="892" 
d="M446 -330q-118 0 -205.5 56.5t-130 149.5t-42.5 208q0 184 103.5 302t281.5 118q121 0 207.5 -58.5t126.5 -150.5t40 -205q0 -193 -103.5 -306.5t-277.5 -113.5zM451 -184q186 0 186 272q0 129 -48.5 199.5t-139.5 70.5t-142 -70.5t-51 -201.5q0 -124 54 -197t141 -73z
" />
    <glyph glyph-name="one.subs" unicode="&#x2081;" horiz-adv-x="516" 
d="M393 -319h-184v612q-25 -15 -80.5 -29t-87.5 -16v133q51 9 118 43.5t107 69.5h127v-813z" />
    <glyph glyph-name="two.subs" unicode="&#x2082;" horiz-adv-x="825" 
d="M756 -319h-680v10q0 119 66 211.5t220 171.5q126 66 153 88q40 34 40 82t-34.5 82t-110.5 34q-74 0 -114 -32t-52 -101h-176q13 123 101.5 200t246.5 77q87 0 153 -23t103 -61.5t55 -82t18 -89.5q0 -97 -55.5 -154t-187.5 -119q-87 -43 -131 -75t-64 -74h475z" />
    <glyph glyph-name="three.subs" unicode="&#x2083;" horiz-adv-x="829" 
d="M51 -63h178q36 -127 189 -127q170 0 170 116q0 64 -47.5 89.5t-145.5 25.5h-73v131h67q94 0 129 21t35 69q0 44 -32.5 73.5t-112.5 29.5q-129 0 -162 -107h-166q2 26 10.5 54t32 63.5t58 63t95 46.5t136.5 19q151 0 236 -64t85 -170q0 -65 -35.5 -105t-85.5 -50
q63 -14 110.5 -63.5t47.5 -125.5q0 -108 -88 -182t-272 -74q-98 0 -171.5 28t-111.5 72t-55.5 85.5t-20.5 81.5z" />
    <glyph glyph-name="four.subs" unicode="&#x2084;" horiz-adv-x="858" 
d="M61 -127v141l404 480h215v-480h141l-12 -141h-129v-192h-168v192h-451zM242 14h270v150q0 145 4 192q-20 -29 -274 -342z" />
    <glyph glyph-name="five.subs" unicode="&#x2085;" horiz-adv-x="866" 
d="M84 -72h182q34 -116 180 -116q175 0 175 143q0 141 -185 141q-121 0 -176 -78l-162 33q50 245 74 443h594l-25 -150h-424q-9 -62 -26 -168q69 55 201 55q147 0 233 -72.5t86 -193.5q0 -131 -96.5 -213t-270.5 -82q-163 0 -256 74.5t-104 183.5z" />
    <glyph glyph-name="six.subs" unicode="&#x2086;" horiz-adv-x="870" 
d="M453 -330q-183 0 -284 109.5t-101 298.5q0 63 12.5 122t41.5 115t72 97.5t109 66.5t148 25q76 0 137.5 -19.5t100 -52t61.5 -70t30 -77.5h-184q-32 84 -150 84q-181 0 -192 -224q36 40 101 66t151 25q143 -1 224 -76.5t81 -192.5q0 -132 -97.5 -214.5t-260.5 -82.5z
M268 -20q0 -30 10 -59t30 -56t57.5 -43.5t87.5 -16.5q79 0 126.5 38t47.5 114q-3 147 -178 147q-76 0 -128.5 -34.5t-52.5 -89.5z" />
    <glyph glyph-name="seven.subs" unicode="&#x2087;" horiz-adv-x="747" 
d="M348 -317h-203q41 173 150 365.5t207 293.5h-469v152h667v-136q-115 -138 -211.5 -319t-140.5 -356z" />
    <glyph glyph-name="eight.subs" unicode="&#x2088;" horiz-adv-x="864" 
d="M70 -84q0 137 149 193q-55 25 -84 67.5t-29 97.5q0 100 85.5 165t246.5 65q154 0 237 -64.5t83 -156.5q0 -121 -121 -168q73 -26 115.5 -75.5t42.5 -119.5q0 -112 -104 -181t-263 -69q-167 0 -262.5 71.5t-95.5 174.5zM256 -72q0 -54 47.5 -89.5t128.5 -35.5
q85 0 130.5 31.5t45.5 89.5q0 119 -178 119q-86 0 -130 -31.5t-44 -83.5zM285 272q0 -104 153 -104q140 0 140 102q0 47 -37 76t-107 29q-72 0 -110.5 -28t-38.5 -75z" />
    <glyph glyph-name="nine.subs" unicode="&#x2089;" horiz-adv-x="874" 
d="M78 -102h182q41 -93 164 -93q179 0 199 240q-75 -89 -246 -86q-147 1 -231.5 74.5t-84.5 183.5q0 125 98 206t261 81q185 0 285 -106t100 -298q0 -59 -11 -116t-38.5 -115t-69.5 -101.5t-109.5 -70.5t-152.5 -27q-151 0 -240 68t-106 160zM246 229q0 -66 47.5 -102.5
t132.5 -36.5q75 0 127.5 30.5t52.5 90.5q0 68 -45.5 114t-140.5 46q-75 0 -125 -36.5t-49 -105.5z" />
    <glyph glyph-name="parenleft.subs" unicode="&#x208d;" horiz-adv-x="501" 
d="M455 -481h-179q-74 82 -132 226t-58 321q0 320 190 550h179q-95 -115 -152 -247t-57 -303q0 -168 57 -298.5t152 -248.5z" />
    <glyph glyph-name="parenright.subs" unicode="&#x208e;" horiz-adv-x="501" 
d="M47 645h178q75 -82 133 -226t58 -321q0 -316 -191 -551h-178q95 115 152 247.5t57 303.5q0 169 -56.5 299t-152.5 248z" />
    <glyph glyph-name="colonmonetary" unicode="&#x20a1;" horiz-adv-x="1300" 
d="M616 -209h-118v213q-185 58 -287 233t-102 447q0 274 102.5 451.5t286.5 238.5v162h118v-135q50 4 76 4h21v131h118v-145q84 -18 152.5 -57t112 -89.5t69 -105.5t31.5 -111h-221q-30 125 -144 170v-1016q108 45 152 178h217q-79 -309 -369 -368v-201h-118v186h-35
q-32 0 -62 3v-189zM498 215v952q-158 -113 -158 -479q0 -351 158 -473zM713 158v1065h-31q-36 0 -66 -6v-1053q30 -6 62 -6h35z" />
    <glyph glyph-name="franc" unicode="&#x20a3;" horiz-adv-x="1265" 
d="M51 254v160h180v968h920v-196h-694v-375h655v-193h-655v-204h250v-160h-250v-254h-226v254h-180z" />
    <glyph glyph-name="lira" unicode="&#x20a4;" horiz-adv-x="1267" 
d="M1219 0h-1115v164q153 70 166 323h-200v140h200q-4 82 -8 123h-192v141h186v39q0 214 118.5 347.5t350.5 133.5q107 0 192 -31.5t137 -84.5t81.5 -115.5t35.5 -130.5h-223q-16 81 -75 129.5t-156 48.5q-117 0 -174.5 -75t-57.5 -214v-47h349v-141h-342q3 -64 6 -123h336
v-140h-340q-15 -191 -103 -292h856z" />
    <glyph glyph-name="uni20A6" unicode="&#x20a6;" horiz-adv-x="1392" 
d="M397 0h-194v506h-119v139h119v137h-119v142h119v458h311l186 -458h277v458h192v-458h121v-142h-121v-137h121v-139h-121v-506h-299l-202 506h-271v-506zM870 506l113 -279h12q-11 109 -14 279h-111zM813 645h164v137h-219zM395 924h105l-105 258h-10q10 -110 10 -258z
M397 645h213l-55 137h-158v-137z" />
    <glyph glyph-name="peseta" unicode="&#x20a7;" horiz-adv-x="1363" 
d="M428 0h-221v840h-139v157h139v385h473q199 0 339.5 -103t166.5 -282h114v-157h-114q-29 -183 -178 -286t-367 -103h-213v-451zM428 840v-215h205q288 0 330 215h-535zM428 1212v-215h535q-41 215 -308 215h-227z" />
    <glyph glyph-name="dong" unicode="&#x20ab;" horiz-adv-x="1376" 
d="M147 -328v158h996v-158h-996zM1155 0h-209q-7 21 -12 150q-52 -86 -136.5 -131.5t-230.5 -45.5q-199 0 -333 144.5t-134 351.5q0 120 42.5 219.5t112.5 162.5t157.5 97.5t181.5 34.5q243 0 338 -141v264h-473v158h473v131h221v-131h160v-158h-160v-809q0 -49 1 -148.5
t1 -148.5zM618 152q150 0 236 84.5t86 246.5q0 150 -79 237t-226 87q-77 0 -136.5 -27t-95.5 -74t-54.5 -105.5t-18.5 -125.5q0 -61 18.5 -118t53 -103.5t90.5 -74t126 -27.5z" />
    <glyph glyph-name="Euro" unicode="&#x20ac;" horiz-adv-x="1361" 
d="M82 496v139h133v49q0 57 2 86h-135v141h154q49 240 193.5 370t356.5 130q90 0 166.5 -21.5t131 -58.5t95 -86.5t63 -103.5t30.5 -113h-217q-34 98 -100.5 149.5t-180.5 51.5q-252 0 -311 -318h405v-141h-422q-2 -27 -2 -84v-51h424v-139h-409q28 -162 107.5 -249
t205.5 -87q106 0 173.5 42.5t109.5 143.5h219q-48 -174 -174 -274.5t-332 -100.5q-223 0 -362.5 139.5t-176.5 385.5h-147z" />
    <glyph glyph-name="uni20B1" unicode="&#x20b1;" horiz-adv-x="1396" 
d="M449 0h-222v731h-149v123h149v102h-149v125h149v301h459q173 0 305 -79t185 -222h143v-125h-115q2 -16 2 -53q0 -33 -2 -49h115v-123h-141q-54 -147 -191 -230t-323 -83h-215v-418zM449 731v-141h213q214 0 284 141h-497zM449 1210v-129h487q-74 129 -264 129h-223z
M449 854h530q2 14 2 47q0 19 -4 55h-528v-102z" />
    <glyph glyph-name="uni20B2" unicode="&#x20b2;" horiz-adv-x="1343" 
d="M604 -211v193q-243 36 -369 225.5t-126 482.5q0 296 132 487.5t363 223.5v149h148v-145q105 -8 190.5 -43.5t139.5 -89.5t85.5 -117.5t38.5 -132.5h-229q-51 172 -225 199v-1067q113 5 209 49v471h231v-586q-231 -108 -440 -115v-184h-148zM604 170v1044
q-72 -17 -124 -65.5t-81 -120.5t-42 -153t-13 -175q0 -455 260 -530z" />
    <glyph glyph-name="uni20B4" unicode="&#x20b4;" horiz-adv-x="1290" 
d="M76 508v141h223q94 63 256 123h-455v141h756q45 48 45 123q0 82 -66 142.5t-186 60.5q-209 0 -264 -172h-219q26 154 150 250t335 96q97 0 177.5 -23t132 -60.5t87 -86.5t51 -99t15.5 -100q0 -75 -20 -131h106v-141h-227q-92 -65 -266 -123h469v-141h-754
q-60 -57 -60 -141q2 -88 77.5 -151.5t195.5 -63.5q76 0 132 14.5t90.5 42.5t54 58t34.5 71h223q-38 -169 -172 -267t-374 -98q-207 0 -346.5 109t-139.5 276q0 87 31 150h-92z" />
    <glyph glyph-name="uni20B5" unicode="&#x20b5;" horiz-adv-x="1286" 
d="M745 -211h-147v193q-230 29 -359.5 214t-129.5 492q0 304 129 490.5t360 220.5v151h147v-147q107 -8 193 -47.5t138 -97t82 -120.5t38 -128h-225q-51 183 -226 207v-1053q171 24 232 205h223q-38 -161 -149.5 -266t-305.5 -123v-191zM598 170v1040q-256 -59 -256 -520
q0 -209 66 -347t190 -173z" />
    <glyph glyph-name="uni20B9" unicode="&#x20b9;" horiz-adv-x="1323" 
d="M367 539h-232v159h297q67 0 125.5 15.5t106.5 47.5t76 86t28 124h-633v141h596q-76 123 -295 123h-301v147h1088v-143h-349q61 -57 89 -127h260v-141h-234v-4q0 -161 -99.5 -263.5t-260.5 -142.5l497 -561h-274z" />
    <glyph glyph-name="uni20BA" unicode="&#x20ba;" horiz-adv-x="1345" 
d="M535 0h-224v547l-217 -86v160l217 86v143l-217 -86v162l217 86v370h228v-280l297 117v-162l-297 -117v-143l297 116v-159l-297 -117v-455q223 1 338.5 118.5t146.5 328.5h217q-38 -303 -212.5 -466t-493.5 -163z" />
    <glyph glyph-name="uni20BD" unicode="&#x20bd;" horiz-adv-x="1335" 
d="M61 283v145h179v145h-179v166h179v643h499q230 0 359 -110t129 -289q0 -202 -134 -306t-374 -104h-238v-145h396v-145h-396v-283h-241v283h-179zM481 1208v-469h213q142 0 215.5 55.5t73.5 180.5q0 233 -283 233h-219z" />
    <glyph glyph-name="uni2113" unicode="&#x2113;" horiz-adv-x="954" 
d="M72 338l-56 149q25 16 83 49t87 52v495q0 116 26.5 199.5t75 130t106.5 67.5t130 21q155 0 235.5 -89t80.5 -251q0 -193 -97.5 -348.5t-330.5 -312.5v-140q0 -116 31.5 -160t97.5 -44t101 40.5t52 135.5h207q-43 -352 -379 -352t-336 348v78q-37 -26 -114 -68zM412 1108
v-391q123 109 174 217.5t51 224.5q0 178 -109 178q-61 0 -88.5 -49.5t-27.5 -179.5z" />
    <glyph glyph-name="uni2116" unicode="&#x2116;" horiz-adv-x="2387" 
d="M401 0h-221v1411h303q519 -840 605 -992q57 -100 75 -147h2q-12 167 -12 648v491h221v-1411h-276q-675 1126 -711 1190h-2q16 -217 16 -701v-489zM1575 229v152h657v-152h-657zM1901 510q-171 0 -279.5 114.5t-108.5 301.5q0 182 110.5 297.5t281.5 115.5
q180 0 286.5 -115t106.5 -298q0 -185 -108 -300.5t-289 -115.5zM1907 666q96 0 151.5 66.5t55.5 193.5q0 129 -56.5 195.5t-154.5 66.5q-92 0 -148.5 -69t-56.5 -193q0 -120 57.5 -190t151.5 -70z" />
    <glyph glyph-name="uni2117" unicode="&#x2117;" horiz-adv-x="1710" 
d="M858 -29q-160 0 -298 56t-237 155t-155.5 241.5t-56.5 309.5q0 159 57.5 299.5t156.5 240t237.5 157t295.5 57.5q210 0 379.5 -97t265.5 -269.5t96 -387.5q0 -166 -56.5 -308t-155 -241.5t-235.5 -156t-294 -56.5zM856 88q132 0 245.5 45t196 126.5t130 203t47.5 268.5
q0 281 -174.5 459t-444.5 178q-131 0 -244 -43t-196.5 -123t-131.5 -202.5t-48 -272.5q0 -137 47.5 -256t130 -203t197.5 -132t245 -48zM735 322h-147v825h334q128 0 216.5 -71.5t88.5 -194.5q0 -132 -87.5 -203.5t-232.5 -71.5h-172v-284zM737 1022v-293h154q92 0 137 39
t45 109q0 66 -44.5 104.5t-125.5 38.5z" />
    <glyph glyph-name="uni2120" unicode="&#x2120;" horiz-adv-x="1140" 
d="M508 1305h-113q-14 73 -114 73q-43 0 -65.5 -14.5t-22.5 -36.5t21 -33.5t85 -21.5q125 -22 175 -57.5t50 -102.5q0 -75 -59.5 -117.5t-167.5 -42.5q-105 0 -168 46t-74 128h117q8 -42 44 -62t85 -20q107 0 107 56q0 28 -30 41t-106 24q-116 19 -156 55t-40 95
q0 65 55.5 107t155.5 42q106 0 160.5 -44t60.5 -115zM590 967v485h192q19 -58 53.5 -160.5t51.5 -156.5h2q94 269 112 317h181v-485h-119v153q0 156 8 246h-2q-18 -51 -65.5 -186t-75.5 -211h-99q-115 349 -129 397h-2q5 -114 7 -260v-139h-115z" />
    <glyph glyph-name="trademark" unicode="&#x2122;" horiz-adv-x="1019" 
d="M127 967v379h-170v106h461v-106h-164v-379h-127zM483 967v485h193q18 -56 52.5 -159t51.5 -158h2q78 223 113 317h180v-485h-119v153q0 145 9 246h-2q-142 -396 -142 -397h-98q-115 349 -129 397h-2q4 -81 6 -260v-139h-115z" />
    <glyph glyph-name="uni2126" unicode="&#x2126;" horiz-adv-x="1679" 
d="M61 0v197h375q-73 53 -128 109t-103 129t-73.5 165t-25.5 199q0 141 51 265t143.5 217.5t232.5 147.5t309 54q170 0 309.5 -53.5t231 -146t141 -215t49.5 -261.5q0 -108 -26.5 -204t-75 -170.5t-107 -132t-131.5 -103.5h385v-197h-637v217q158 83 255.5 230t96.5 337
q-2 102 -34 191.5t-92 160.5t-157 112.5t-219 41.5q-99 0 -179.5 -28t-136 -75.5t-93.5 -113.5t-55 -139.5t-17 -155.5q0 -101 30 -191t82 -158.5t113.5 -120.5t133.5 -91v-217h-648z" />
    </font>
</defs>
</svg>
